<svg xmlns="http://www.w3.org/2000/svg" xmlns:xlink="http://www.w3.org/1999/xlink" width="49" height="58" viewBox="0 0 49 58">
  <defs>
    <clipPath id="clip-path">
      <rect id="Rectángulo_306510" data-name="Rectángulo 306510" width="49" height="58" transform="translate(513 4602)" fill="#583cb6" stroke="#707070" stroke-width="1"/>
    </clipPath>
  </defs>
  <g id="Enmascarar_grupo_878395" data-name="Enmascarar grupo 878395" transform="translate(-513 -4602)" clip-path="url(#clip-path)">
    <g id="documento" transform="translate(511.366 4604.867)">
      <path id="Trazado_629647" data-name="Trazado 629647" d="M42.442,49.816H37.566l-1.633-1.633.024-44.1,1.609.29,12.25,2.16Z" fill="#fdbf44"/>
      <path id="Trazado_629648" data-name="Trazado 629648" d="M42.442,50.633H40.016V49h1.736l6.006-35.254,1.61.274L43.247,49.953a.817.817,0,0,1-.805.679Z"/>
      <path id="Trazado_629649" data-name="Trazado 629649" d="M49.647,12.387l-1.61-.274L48.875,7.2l-9-1.587L40.158,4l9.8,1.728a.817.817,0,0,1,.664.941Z"/>
      <g id="Grupo_956608" data-name="Grupo 956608">
        <path id="Trazado_629650" data-name="Trazado 629650" d="M2.45,2.45H37.566V49.816H2.45Z" fill="#25b1fa"/>
        <rect id="Rectángulo_306882" data-name="Rectángulo 306882" width="8.167" height="8.167" rx="2.042" transform="translate(6.533 26.133)" fill="#fcfeff"/>
        <rect id="Rectángulo_306883" data-name="Rectángulo 306883" width="8.167" height="8.167" rx="2.042" transform="translate(6.533 38.383)" fill="#fcfeff"/>
        <path id="Trazado_629651" data-name="Trazado 629651" d="M37.566,50.633H2.45a.817.817,0,0,1-.817-.817V37.566H3.267V49H36.75V3.267H3.267V35.933H1.633V2.45a.817.817,0,0,1,.817-.817H37.566a.817.817,0,0,1,.817.817V49.816A.817.817,0,0,1,37.566,50.633Z"/>
        <g id="Grupo_956607" data-name="Grupo 956607">
          <g id="Grupo_956605" data-name="Grupo 956605">
            <path id="Trazado_629652" data-name="Trazado 629652" d="M11.433,32.666a.817.817,0,0,1-.578-.239l-2.45-2.45,1.155-1.155,1.826,1.826L15.713,25.6l1.24,1.063-4.9,5.717a.817.817,0,0,1-.589.285h-.031Z"/>
            <path id="Trazado_629653" data-name="Trazado 629653" d="M12.658,35.116H8.575a2.862,2.862,0,0,1-2.858-2.858V28.175a2.862,2.862,0,0,1,2.858-2.858H12.25V26.95H8.575A1.226,1.226,0,0,0,7.35,28.175v4.083a1.226,1.226,0,0,0,1.225,1.225h4.083a1.226,1.226,0,0,0,1.225-1.225V31.85h1.633v.408A2.862,2.862,0,0,1,12.658,35.116Z"/>
          </g>
          <g id="Grupo_956606" data-name="Grupo 956606">
            <path id="Trazado_629654" data-name="Trazado 629654" d="M11.433,44.916a.817.817,0,0,1-.578-.239l-2.45-2.45,1.155-1.155L11.387,42.9l4.326-5.047,1.24,1.063-4.9,5.717a.817.817,0,0,1-.589.285h-.031Z"/>
            <path id="Trazado_629655" data-name="Trazado 629655" d="M12.658,47.366H8.575a2.862,2.862,0,0,1-2.858-2.858V40.425a2.862,2.862,0,0,1,2.858-2.858H12.25V39.2H8.575A1.226,1.226,0,0,0,7.35,40.425v4.083a1.226,1.226,0,0,0,1.225,1.225h4.083a1.226,1.226,0,0,0,1.225-1.225V44.1h1.633v.408a2.862,2.862,0,0,1-2.858,2.858Z"/>
          </g>
          <path id="Trazado_629656" data-name="Trazado 629656" d="M18.783,37.566h12.25V39.2H18.783Z"/>
          <path id="Trazado_629657" data-name="Trazado 629657" d="M18.783,41.65h4.083v1.633H18.783Z"/>
        </g>
        <path id="Trazado_629658" data-name="Trazado 629658" d="M24.5,41.65h6.533v1.633H24.5Z"/>
        <path id="Trazado_629659" data-name="Trazado 629659" d="M18.783,25.316h12.25V26.95H18.783Z"/>
        <path id="Trazado_629660" data-name="Trazado 629660" d="M18.783,29.4h4.083v1.633H18.783Z"/>
        <path id="Trazado_629661" data-name="Trazado 629661" d="M24.5,29.4h6.533v1.633H24.5Z"/>
        <path id="Trazado_629662" data-name="Trazado 629662" d="M18.633,20.745a12.554,12.554,0,0,1-4.954-7.871l-.612-3.884,7.34-3.273,7.34,3.273-.618,3.916a12.55,12.55,0,0,1-5.019,7.917l-1.7,1.233Z" fill="#fcfeff"/>
        <path id="Trazado_629663" data-name="Trazado 629663" d="M20.413,22.873a.815.815,0,0,1-.484-.159L18.148,21.4a13.367,13.367,0,0,1-5.273-8.383l0-.019L12.26,9.116a.817.817,0,0,1,.474-.873l7.34-3.273a.817.817,0,0,1,.665,0l7.34,3.273a.817.817,0,0,1,.474.873l-.618,3.916,0,.019a13.363,13.363,0,0,1-5.342,8.432l-1.7,1.233a.815.815,0,0,1-.48.156ZM14.484,12.737a11.741,11.741,0,0,0,4.633,7.35l1.3.957,1.213-.882a11.737,11.737,0,0,0,4.694-7.394l.519-3.288-6.436-2.87-6.436,2.87Z"/>
        <path id="Trazado_629664" data-name="Trazado 629664" d="M19.58,16.339A.814.814,0,0,1,19,16.1l-2.45-2.45,1.155-1.155,1.873,1.872L23.9,10.045,25.058,11.2l-4.9,4.9a.814.814,0,0,1-.577.24Z"/>
        <path id="Trazado_629665" data-name="Trazado 629665" d="M5.717,4.9h4.9V6.533h-4.9Z"/>
        <path id="Trazado_629666" data-name="Trazado 629666" d="M5.717,8.167H8.983V9.8H5.717Z"/>
        <path id="Trazado_629667" data-name="Trazado 629667" d="M30.216,4.9H31.85V6.533H30.216Z"/>
        <path id="Trazado_629668" data-name="Trazado 629668" d="M33.483,4.9h1.633V6.533H33.483Z"/>
      </g>
    </g>
  </g>
</svg>
