<svg xmlns="http://www.w3.org/2000/svg" xmlns:xlink="http://www.w3.org/1999/xlink" width="49" height="58" viewBox="0 0 49 58">
  <defs>
    <clipPath id="clip-path">
      <rect id="Rectángulo_306518" data-name="Rectángulo 306518" width="49" height="58" transform="translate(198 4704)" fill="#583cb6" stroke="#707070" stroke-width="1"/>
    </clipPath>
  </defs>
  <g id="Enmascarar_grupo_878396" data-name="Enmascarar grupo 878396" transform="translate(-198 -4704)" clip-path="url(#clip-path)">
    <g id="practica" transform="translate(197.328 4707.643)">
      <circle id="Elipse_7714" data-name="Elipse 7714" cx="2.371" cy="2.371" r="2.371" transform="translate(38.726 31.613)" fill="#58b389"/>
      <path id="Trazado_629669" data-name="Trazado 629669" d="M5.532,14.226h4.742v4.742H5.532Z" fill="#82ace6"/>
      <path id="Trazado_629670" data-name="Trazado 629670" d="M29.242,5.532v4.742L33.194,7.9Z" fill="#778ea6"/>
      <circle id="Elipse_7715" data-name="Elipse 7715" cx="6.323" cy="6.323" r="6.323" transform="translate(36.355 1.581)" fill="#ccdbf0"/>
      <path id="Trazado_629671" data-name="Trazado 629671" d="M42.677,4.347l.977,2.081,2.184.334-1.581,1.62.373,2.287-1.954-1.08-1.954,1.08L41.1,8.382l-1.581-1.62L41.7,6.428Z" fill="#d9736b"/>
      <path id="Trazado_629672" data-name="Trazado 629672" d="M13.042,43.6a4.724,4.724,0,0,0,0-1.845l1.184-.661a6.264,6.264,0,0,0-1.739-2.923l-.686.383a.871.871,0,0,1-.9-.021,5.266,5.266,0,0,0-.777-.433.816.816,0,0,1-.472-.748v-.765a6.612,6.612,0,0,0-3.486,0v.762a.816.816,0,0,1-.472.748,5.264,5.264,0,0,0-.777.433.871.871,0,0,1-.9.021l-.683-.381a6.264,6.264,0,0,0-1.743,2.921l1.184.661a4.723,4.723,0,0,0,0,1.845l-1.184.661A6.264,6.264,0,0,0,3.32,47.184l.686-.383a.871.871,0,0,1,.9.021,5.263,5.263,0,0,0,.777.433A.816.816,0,0,1,6.16,48v.765a6.613,6.613,0,0,0,3.486,0V48a.816.816,0,0,1,.472-.748,5.262,5.262,0,0,0,.777-.433.872.872,0,0,1,.9-.021l.683.381a6.265,6.265,0,0,0,1.743-2.921ZM7.9,45.048a2.371,2.371,0,1,1,2.371-2.371A2.371,2.371,0,0,1,7.9,45.048Z" fill="#64788c"/>
      <path id="Trazado_629673" data-name="Trazado 629673" d="M14.492,43.638l-.711-.4q.023-.25.023-.5t-.023-.5l.711-.4a.791.791,0,0,0,.378-.894,7.058,7.058,0,0,0-1.958-3.292.794.794,0,0,0-.931-.117l-.686.384.386.69-.464-.678a10.182,10.182,0,0,0-.9-.525v-.765a.79.79,0,0,0-.586-.763,7.8,7.8,0,0,0-2.041-.259,7.56,7.56,0,0,0-1.855.262.79.79,0,0,0-.586.763l-.008.79a6.2,6.2,0,0,0-.891.5l-.079-.012L3.59,37.55a.792.792,0,0,0-.93.117A7.063,7.063,0,0,0,.7,40.956a.79.79,0,0,0,.378.895l.711.4q-.023.25-.023.5t.023.5l-.711.4a.791.791,0,0,0-.378.894,7.054,7.054,0,0,0,1.957,3.292.79.79,0,0,0,.93.117l.687-.384.079-.012a10.038,10.038,0,0,0,.9.525v.765a.79.79,0,0,0,.586.763,7.513,7.513,0,0,0,1.944.259h.1a7.56,7.56,0,0,0,1.855-.262.79.79,0,0,0,.586-.763l.006-.79a6.186,6.186,0,0,0,.893-.5l.079.012.683.381a.789.789,0,0,0,.93-.117,7.063,7.063,0,0,0,1.961-3.289.79.79,0,0,0-.378-.894ZM12.147,41.97a3.921,3.921,0,0,1,0,1.548.792.792,0,0,0,.391.838l.616.344a5.477,5.477,0,0,1-.939,1.559l-.147-.083a1.668,1.668,0,0,0-1.731.056,4.555,4.555,0,0,1-.663.369,1.61,1.61,0,0,0-.935,1.468V48.2a5.743,5.743,0,0,1-1.906,0v-.128A1.608,1.608,0,0,0,5.9,46.6a4.466,4.466,0,0,1-.661-.367A1.666,1.666,0,0,0,3.5,46.177l-.151.085A5.465,5.465,0,0,1,2.415,44.7l.616-.344a.792.792,0,0,0,.391-.838,3.921,3.921,0,0,1,0-1.548.792.792,0,0,0-.391-.838l-.616-.344a5.477,5.477,0,0,1,.939-1.559l.147.083a1.663,1.663,0,0,0,1.731-.056,4.506,4.506,0,0,1,.662-.369,1.608,1.608,0,0,0,.936-1.468v-.126a5.633,5.633,0,0,1,.88-.08,5.166,5.166,0,0,1,1.026.078v.128a1.61,1.61,0,0,0,.935,1.468,4.544,4.544,0,0,1,.661.367,1.669,1.669,0,0,0,1.733.057l.151-.084a5.45,5.45,0,0,1,.936,1.561l-.616.344a.792.792,0,0,0-.391.838Z"/>
      <path id="Trazado_629674" data-name="Trazado 629674" d="M7.785,39.583a3.161,3.161,0,1,0,3.161,3.161A3.161,3.161,0,0,0,7.785,39.583Zm0,4.742a1.581,1.581,0,1,1,1.581-1.581,1.581,1.581,0,0,1-1.581,1.581Z"/>
      <path id="Trazado_629675" data-name="Trazado 629675" d="M40.978,30.889A3.161,3.161,0,1,0,44.14,34.05a3.161,3.161,0,0,0-3.161-3.161Zm0,4.742a1.581,1.581,0,1,1,1.581-1.581A1.581,1.581,0,0,1,40.978,35.631Z"/>
      <path id="Trazado_629676" data-name="Trazado 629676" d="M36.236,41.954H16.478v1.581H36.236A5.539,5.539,0,0,0,41.769,38H40.188A3.956,3.956,0,0,1,36.236,41.954Z"/>
      <path id="Trazado_629677" data-name="Trazado 629677" d="M8.575,20.615H6.994a5.539,5.539,0,0,0,5.532,5.532h23.71A3.956,3.956,0,0,1,40.188,30.1h1.581a5.539,5.539,0,0,0-5.532-5.532H12.527a3.956,3.956,0,0,1-3.952-3.952Z"/>
      <path id="Trazado_629678" data-name="Trazado 629678" d="M6.994,12.712H8.575A3.956,3.956,0,0,1,12.527,8.76H28.333v1.581a.79.79,0,0,0,1.2.678l3.952-2.371a.79.79,0,0,0,0-1.355L29.53,4.921a.79.79,0,0,0-1.2.678V7.179H12.527a5.539,5.539,0,0,0-5.532,5.532ZM29.914,6.995l1.625.975-1.625.975Z"/>
      <path id="Trazado_629679" data-name="Trazado 629679" d="M4.623,14.292v4.742a.79.79,0,0,0,.79.79h4.742a.79.79,0,0,0,.79-.79V14.292a.79.79,0,0,0-.79-.79H5.414a.79.79,0,0,0-.79.79Zm1.581.79H9.365v3.161H6.2Z"/>
      <path id="Trazado_629680" data-name="Trazado 629680" d="M45.84,6.047l-1.767-.27-.8-1.7a.79.79,0,0,0-1.431,0l-.8,1.7-1.767.27a.79.79,0,0,0-.446,1.333l1.3,1.334-.309,1.894a.79.79,0,0,0,1.162.819l1.571-.868,1.571.868a.79.79,0,0,0,1.162-.819l-.309-1.894,1.3-1.334a.79.79,0,0,0-.446-1.333ZM43.574,7.9a.791.791,0,0,0-.215.679l.111.681-.529-.293a.788.788,0,0,0-.764,0l-.529.293.111-.681a.791.791,0,0,0-.215-.679l-.506-.519.664-.1a.79.79,0,0,0,.6-.445l.262-.557.262.557a.79.79,0,0,0,.6.445l.664.1Z"/>
      <path id="Trazado_629681" data-name="Trazado 629681" d="M42.559.857A7.113,7.113,0,1,0,49.672,7.97,7.113,7.113,0,0,0,42.559.857Zm0,12.645A5.532,5.532,0,1,1,48.091,7.97,5.532,5.532,0,0,1,42.559,13.5Z"/>
    </g>
  </g>
</svg>
