<svg xmlns="http://www.w3.org/2000/svg" xmlns:xlink="http://www.w3.org/1999/xlink" width="49" height="58" viewBox="0 0 49 58">
  <defs>
    <clipPath id="clip-path">
      <rect id="Rectángulo_306516" data-name="Rectángulo 306516" width="49" height="58" transform="translate(513 4704)" fill="#583cb6" stroke="#707070" stroke-width="1"/>
    </clipPath>
  </defs>
  <g id="Enmascarar_grupo_878397" data-name="Enmascarar grupo 878397" transform="translate(-513 -4704)" clip-path="url(#clip-path)">
    <g id="evaluar" transform="translate(513 4708.5)">
      <path id="Trazado_629682" data-name="Trazado 629682" d="M26.437,1.449h0a4.064,4.064,0,0,1,5.094,1.013h0a4.064,4.064,0,0,0,3.58,1.483h0A4.064,4.064,0,0,1,39.43,6.83h0a4.064,4.064,0,0,0,2.74,2.74h0a4.064,4.064,0,0,1,2.886,4.319h0a4.064,4.064,0,0,0,1.483,3.58h0a4.064,4.064,0,0,1,1.013,5.094h0a4.064,4.064,0,0,0,0,3.875h0a4.064,4.064,0,0,1-1.013,5.094h0a4.064,4.064,0,0,0-1.483,3.58h0A4.064,4.064,0,0,1,42.17,39.43h0a4.064,4.064,0,0,0-2.74,2.74h0a4.064,4.064,0,0,1-4.319,2.886h0a4.064,4.064,0,0,0-3.58,1.483h0a4.064,4.064,0,0,1-5.094,1.013h0a4.064,4.064,0,0,0-3.875,0h0a4.064,4.064,0,0,1-5.094-1.013h0a4.064,4.064,0,0,0-3.58-1.483h0A4.064,4.064,0,0,1,9.57,42.17h0a4.064,4.064,0,0,0-2.74-2.74h0a4.064,4.064,0,0,1-2.886-4.319h0a4.064,4.064,0,0,0-1.483-3.58h0a4.064,4.064,0,0,1-1.013-5.094h0a4.064,4.064,0,0,0,0-3.875h0a4.064,4.064,0,0,1,1.013-5.094h0a4.064,4.064,0,0,0,1.483-3.58h0A4.064,4.064,0,0,1,6.83,9.57h0A4.064,4.064,0,0,0,9.57,6.83h0a4.064,4.064,0,0,1,4.319-2.886h0a4.064,4.064,0,0,0,3.58-1.483h0a4.064,4.064,0,0,1,5.094-1.013h0A4.064,4.064,0,0,0,26.437,1.449Z" fill="#66e8de"/>
      <circle id="Elipse_7716" data-name="Elipse 7716" cx="18.375" cy="18.375" r="18.375" transform="translate(6.125 6.125)" fill="#fff"/>
      <path id="Trazado_629683" data-name="Trazado 629683" d="M19.236,23.388v-1.9a1.2,1.2,0,0,0-1.2-1.2H13.924a1.2,1.2,0,0,0-1.2,1.2V32.874a1.2,1.2,0,0,0,1.2,1.2H18.04a1.2,1.2,0,0,0,1.2-1.2V23.388Z" fill="#95efe8"/>
      <path id="Trazado_629684" data-name="Trazado 629684" d="M33.975,23.735H32.592a1.723,1.723,0,0,0,1.723-1.723h0a1.723,1.723,0,0,0-1.723-1.723H27.1l.7-2.074a4,4,0,0,0-2.627-5.1h0L23.7,17.16a5.528,5.528,0,0,1-2.554,2.974L19.2,21.2l.036,11.862,1.24.486a7.637,7.637,0,0,0,2.789.527h8.126a1.723,1.723,0,0,0,1.723-1.723h0a1.723,1.723,0,0,0-1.723-1.723H32.73A1.723,1.723,0,0,0,34.452,28.9h0A1.723,1.723,0,0,0,32.73,27.18h1.245A1.723,1.723,0,0,0,35.7,25.457h0A1.723,1.723,0,0,0,33.975,23.735Z" fill="#ffd3ae"/>
      <path id="Trazado_629685" data-name="Trazado 629685" d="M48.393,23.019a5.023,5.023,0,0,0-1.252-6.294,3.1,3.1,0,0,1-1.134-2.737,5.023,5.023,0,0,0-3.565-5.336,3.1,3.1,0,0,1-2.095-2.094,5.023,5.023,0,0,0-5.336-3.565,3.1,3.1,0,0,1-2.737-1.134A5.023,5.023,0,0,0,25.981.607h0a3.1,3.1,0,0,1-2.962,0,5.023,5.023,0,0,0-6.294,1.252,3.1,3.1,0,0,1-2.737,1.134A5.023,5.023,0,0,0,8.652,6.558,3.1,3.1,0,0,1,6.558,8.653a5.023,5.023,0,0,0-3.565,5.336,3.1,3.1,0,0,1-1.134,2.737A5.023,5.023,0,0,0,.607,23.019a3.1,3.1,0,0,1,0,2.962,5.023,5.023,0,0,0,1.252,6.294,3.1,3.1,0,0,1,1.134,2.737,5.023,5.023,0,0,0,3.565,5.336,3.1,3.1,0,0,1,2.095,2.094,5.022,5.022,0,0,0,5.336,3.565,3.1,3.1,0,0,1,2.737,1.134,5.023,5.023,0,0,0,6.294,1.252,3.1,3.1,0,0,1,2.962,0,5.022,5.022,0,0,0,6.294-1.252,3.1,3.1,0,0,1,2.737-1.134,5.018,5.018,0,0,0,5.336-3.565,3.1,3.1,0,0,1,2.095-2.095,5.023,5.023,0,0,0,3.565-5.336,3.1,3.1,0,0,1,1.134-2.737,5.023,5.023,0,0,0,1.252-6.294A3.1,3.1,0,0,1,48.393,23.019ZM46.71,26.894a3.108,3.108,0,0,1-.775,3.895A5,5,0,0,0,44.1,35.211a3.108,3.108,0,0,1-2.206,3.3A5,5,0,0,0,38.513,41.9a3.106,3.106,0,0,1-3.3,2.206,5,5,0,0,0-4.423,1.832,3.108,3.108,0,0,1-3.895.775,5,5,0,0,0-4.787,0,3.108,3.108,0,0,1-3.895-.775A5,5,0,0,0,13.789,44.1a3.108,3.108,0,0,1-3.3-2.206A5,5,0,0,0,7.1,38.513a3.108,3.108,0,0,1-2.206-3.3,5,5,0,0,0-1.832-4.423,3.108,3.108,0,0,1-.775-3.895,5,5,0,0,0,0-4.787,3.108,3.108,0,0,1,.775-3.895A5,5,0,0,0,4.9,13.79a3.108,3.108,0,0,1,2.206-3.3A5,5,0,0,0,10.488,7.1a3.107,3.107,0,0,1,3.3-2.206,5,5,0,0,0,4.423-1.832,3.108,3.108,0,0,1,3.895-.775,5,5,0,0,0,4.787,0,3.108,3.108,0,0,1,3.895.775A5,5,0,0,0,35.211,4.9a3.108,3.108,0,0,1,3.3,2.206A5,5,0,0,0,41.9,10.488a3.108,3.108,0,0,1,2.206,3.3,5,5,0,0,0,1.832,4.423,3.108,3.108,0,0,1,.775,3.895A5,5,0,0,0,46.71,26.894Z"/>
      <path id="Trazado_629686" data-name="Trazado 629686" d="M32.744,9.151a.957.957,0,0,0,.906-1.686A19.486,19.486,0,0,0,21.813,5.355,19.339,19.339,0,0,0,6.937,32.592a.957.957,0,1,0,1.739-.8A17.425,17.425,0,0,1,32.744,9.151Z"/>
      <path id="Trazado_629687" data-name="Trazado 629687" d="M12.183,36.817A.957.957,0,1,0,10.83,38.17l.041.041a.957.957,0,0,0,1.353-1.354Z"/>
      <path id="Trazado_629688" data-name="Trazado 629688" d="M40.167,14.843a.957.957,0,0,0-.38,1.3,17.508,17.508,0,0,1-2.971,20.675,17.316,17.316,0,0,1-19.335,3.63.957.957,0,0,0-.771,1.752,19.27,19.27,0,0,0,7.771,1.636,19.529,19.529,0,0,0,3.439-.306A19.339,19.339,0,0,0,43.655,27.118a19.478,19.478,0,0,0-2.189-11.895A.957.957,0,0,0,40.167,14.843Z"/>
      <path id="Trazado_629689" data-name="Trazado 629689" d="M36.841,12.209a.957.957,0,0,0,1.353-1.354l-.025-.025a.957.957,0,1,0-1.354,1.354Z"/>
      <path id="Trazado_629690" data-name="Trazado 629690" d="M19.689,34.263l.437.172a8.559,8.559,0,0,0,3.138.593h8.126a2.679,2.679,0,0,0,2.477-3.7,2.678,2.678,0,0,0,1.323-3.484,2.678,2.678,0,0,0-.115-4.828,2.678,2.678,0,0,0-2.484-3.683H28.43l.273-.811A4.957,4.957,0,0,0,25.448,12.2a.957.957,0,0,0-1.178.59L22.8,16.835a4.567,4.567,0,0,1-2.112,2.459l-1.163.634a2.145,2.145,0,0,0-1.484-.595h-4.12a2.156,2.156,0,0,0-2.153,2.153V32.874a2.156,2.156,0,0,0,2.153,2.153h4.12A2.15,2.15,0,0,0,19.689,34.263Zm1.919-13.288a6.479,6.479,0,0,0,3-3.489l1.11-3.068A3.049,3.049,0,0,1,26.89,17.91l-.7,2.074a.957.957,0,0,0,.907,1.263h5.494a.766.766,0,0,1,0,1.531H29.668a.957.957,0,0,0,0,1.914h4.307a.766.766,0,1,1,0,1.531H29.668a.957.957,0,0,0,0,1.914H32.73a.766.766,0,1,1,0,1.531H29.668a.957.957,0,0,0,0,1.914h1.723a.766.766,0,1,1,0,1.531H23.265a6.655,6.655,0,0,1-2.439-.461l-.627-.246V21.742Zm-7.922,11.9V21.485a.24.24,0,0,1,.239-.239h4.12a.239.239,0,0,1,.218.142c.005.025.012.05.019.075,0,.007,0,.015,0,.022V32.874a.24.24,0,0,1-.239.239h-4.12A.239.239,0,0,1,13.686,32.874Z"/>
    </g>
  </g>
</svg>
