<svg xmlns="http://www.w3.org/2000/svg" xmlns:xlink="http://www.w3.org/1999/xlink" width="49" height="58" viewBox="0 0 49 58">
  <defs>
    <clipPath id="clip-path">
      <rect id="Rectángulo_306524" data-name="Rectángulo 306524" width="49" height="58" transform="translate(198 4806)" fill="#583cb6" stroke="#707070" stroke-width="1"/>
    </clipPath>
  </defs>
  <g id="Enmascarar_grupo_878400" data-name="Enmascarar grupo 878400" transform="translate(-198 -4806)" clip-path="url(#clip-path)">
    <g id="nota" transform="translate(197.361 4809.862)">
      <g id="Grupo_956610" data-name="Grupo 956610">
        <path id="Trazado_629724" data-name="Trazado 629724" d="M1.627,6.656V46.329a2.968,2.968,0,0,0,2.96,2.959H35.893a2.968,2.968,0,0,0,2.96-2.959V28.566L34.411,32.52V43.226a1.475,1.475,0,0,1-1.471,1.468H7.36a1.475,1.475,0,0,1-1.469-1.468V10.018A1.475,1.475,0,0,1,7.36,8.547l7.134,0V3.694H4.587a2.968,2.968,0,0,0-2.96,2.962Z" fill="#52cbf0" fill-rule="evenodd"/>
      </g>
      <g id="Grupo_956611" data-name="Grupo 956611">
        <path id="Trazado_629725" data-name="Trazado 629725" d="M29.436,8.55l4.975,4.971V23.942l4.442-3.954V6.656a2.969,2.969,0,0,0-2.96-2.962H25.929V8.55h3.506Z" fill="#52cbf0" fill-rule="evenodd"/>
      </g>
      <g id="Grupo_956612" data-name="Grupo 956612">
        <path id="Trazado_629726" data-name="Trazado 629726" d="M14.494,8.55H25.929V3.694h-3.01a2.707,2.707,0,0,0-5.414,0h-3.01V8.55Z" fill="#ffcb7c" fill-rule="evenodd"/>
      </g>
      <g id="Grupo_956613" data-name="Grupo 956613">
        <path id="Trazado_629727" data-name="Trazado 629727" d="M5.892,10.018V43.226A1.475,1.475,0,0,0,7.36,44.694H32.939a1.475,1.475,0,0,0,1.471-1.468V32.52l-5.451,4.847-6.9,1.849L24.7,32.579l9.71-8.637V13.521h-3.5a1.476,1.476,0,0,1-1.471-1.471V8.55H14.494l-7.134,0a1.475,1.475,0,0,0-1.469,1.471Z" fill="#f9f9f9" fill-rule="evenodd"/>
      </g>
      <g id="Grupo_956614" data-name="Grupo 956614">
        <path id="Trazado_629728" data-name="Trazado 629728" d="M29.436,12.05a1.476,1.476,0,0,0,1.471,1.471h3.5L29.436,8.55v3.5Z" fill="#c6c4c8" fill-rule="evenodd"/>
      </g>
      <g id="Grupo_956615" data-name="Grupo 956615">
        <path id="Trazado_629729" data-name="Trazado 629729" d="M24.7,32.579l-2.641,6.636,6.9-1.849-2.131-2.4Z" fill="#ffcb7c" fill-rule="evenodd"/>
      </g>
      <g id="Grupo_956616" data-name="Grupo 956616">
        <path id="Trazado_629730" data-name="Trazado 629730" d="M24.7,32.579l2.128,2.393,7.582-6.73,4.442-3.948,5.2-4.619-2.142-2.407-3.058,2.719L34.41,23.942Z" fill="#ffe6c0" fill-rule="evenodd"/>
      </g>
      <g id="Grupo_956617" data-name="Grupo 956617">
        <path id="Trazado_629731" data-name="Trazado 629731" d="M26.828,34.972l2.131,2.4L34.41,32.52l4.442-3.954,7.32-6.51-2.117-2.378,0,0-5.2,4.619L34.41,28.242Z" fill="#ffcb7c" fill-rule="evenodd"/>
      </g>
      <g id="Grupo_956618" data-name="Grupo 956618">
        <path id="Trazado_629732" data-name="Trazado 629732" d="M41.911,17.269l2.142,2.407,0,0,2.117,2.378,1.812-1.612c.025-.022.051-.048.073-.07a2,2,0,0,0,.09-2.742l-.09-.1L46.536,15.82a2,2,0,0,0-2.813-.163Z" fill="#f46370" fill-rule="evenodd"/>
      </g>
      <g id="Grupo_956619" data-name="Grupo 956619">
        <path id="Trazado_629733" data-name="Trazado 629733" d="M48.887,16.975l-1.612-1.812a2.987,2.987,0,0,0-4.209-.245L41.254,16.53h0l-1.412,1.256V6.656a3.954,3.954,0,0,0-3.948-3.951H23.773a3.7,3.7,0,0,0-7.123,0H4.587A3.954,3.954,0,0,0,.638,6.656V22.589a.989.989,0,0,0,1.978,0V6.656A1.974,1.974,0,0,1,4.587,4.683h8.918V7.559H7.36A2.461,2.461,0,0,0,4.9,10.018V43.226A2.46,2.46,0,0,0,7.36,45.683H32.939a2.462,2.462,0,0,0,2.46-2.457V32.963l2.464-2.192V46.329a1.973,1.973,0,0,1-1.971,1.97H4.587a1.973,1.973,0,0,1-1.971-1.97v-15.9a.989.989,0,1,0-1.978,0v15.9a3.953,3.953,0,0,0,3.949,3.948H35.893a3.953,3.953,0,0,0,3.948-3.948V29.011L46.83,22.8h0l1.812-1.611a2.989,2.989,0,0,0,.245-4.209ZM26.918,4.683h8.975a1.974,1.974,0,0,1,1.971,1.973V19.545L35.4,21.738V13.521a1,1,0,0,0-.29-.7L30.135,7.85a1,1,0,0,0-.7-.289H26.918Zm5.1,7.849H30.907a.489.489,0,0,1-.482-.482V10.936ZM15.483,4.683H17.5a.989.989,0,0,0,.989-.989,1.718,1.718,0,0,1,3.437,0,.989.989,0,0,0,.989.989H24.94V7.56H15.483V4.683ZM33.421,43.226a.487.487,0,0,1-.482.479H7.36a.486.486,0,0,1-.48-.479V10.018a.487.487,0,0,1,.479-.482h7.1l.037,0H28.447V12.05a2.463,2.463,0,0,0,2.46,2.46h2.515V23.5L24.043,31.84l0,0a.986.986,0,0,0-.2.256l-.006.01-.007.015c-.012.023-.023.047-.033.071l-.008.018-2.393,6.013H10.537a.989.989,0,0,0,0,1.978H22.063a1,1,0,0,0,.109-.007h.012l.025,0c.031,0,.061-.011.09-.018l.017,0,6.9-1.849h0a.979.979,0,0,0,.2-.079l.013-.006.012-.008c.023-.013.046-.027.068-.042l.017-.01.007-.005a.979.979,0,0,0,.081-.064l0,0,.113-.1,3.692-3.283v8.5Zm-8.395-8.792,1.062,1.194,0,0,0,0,1.063,1.195-3.448.924Zm13.2-6.632-.01.009-9.174,8.16-.817-.919,4.45-3.973A.989.989,0,0,0,31.356,29.6l-4.447,3.97-.812-.913,8.971-7.98.007-.007,6.754-6.009.827.929L37.28,24.369a.989.989,0,0,0,1.314,1.479l5.378-4.777.805.9Zm9.434-8.787a.993.993,0,0,1-.331.691l-1.074.955-2.947-3.31,1.074-.956a1.009,1.009,0,0,1,1.416.083l1.612,1.812A1,1,0,0,1,47.658,19.015Z"/>
        <path id="Trazado_629734" data-name="Trazado 629734" d="M10.537,35.394h7.777a.989.989,0,0,0,0-1.978H10.537a.989.989,0,0,0,0,1.978Z"/>
        <path id="Trazado_629735" data-name="Trazado 629735" d="M10.537,30.581H22.059a.989.989,0,0,0,0-1.978H10.537a.989.989,0,0,0,0,1.978Z"/>
        <path id="Trazado_629736" data-name="Trazado 629736" d="M10.537,25.768H28.269a.989.989,0,1,0,0-1.978H10.537a.989.989,0,0,0,0,1.978Z"/>
        <path id="Trazado_629737" data-name="Trazado 629737" d="M10.537,20.957H28.269a.989.989,0,1,0,0-1.978H10.537a.989.989,0,0,0,0,1.978Z"/>
        <path id="Trazado_629738" data-name="Trazado 629738" d="M1.627,27.5a.989.989,0,0,0,.989-.989v-.017a.989.989,0,1,0-1.978,0v.017A.989.989,0,0,0,1.627,27.5Z"/>
        <path id="Trazado_629739" data-name="Trazado 629739" d="M34.265,27.049l-.014.014a.989.989,0,1,0,1.4,1.4l.014-.014a.989.989,0,0,0-1.4-1.4Z"/>
        <path id="Trazado_629740" data-name="Trazado 629740" d="M10.537,16.144h3.072a.989.989,0,0,0,0-1.978H10.537a.989.989,0,0,0,0,1.978Z"/>
      </g>
    </g>
  </g>
</svg>
