<svg xmlns="http://www.w3.org/2000/svg" xmlns:xlink="http://www.w3.org/1999/xlink" width="49" height="58" viewBox="0 0 49 58">
  <defs>
    <clipPath id="clip-path">
      <rect id="Rectángulo_306522" data-name="Rectángulo 306522" width="49" height="58" transform="translate(513 4806)" fill="#583cb6" stroke="#707070" stroke-width="1"/>
    </clipPath>
  </defs>
  <g id="Enmascarar_grupo_878401" data-name="Enmascarar grupo 878401" transform="translate(-513 -4806)" clip-path="url(#clip-path)">
    <g id="implementar" transform="translate(513 4810.5)">
      <path id="Trazado_629741" data-name="Trazado 629741" d="M.718,16.959V43.642a4.64,4.64,0,0,0,4.64,4.64H43.642a4.64,4.64,0,0,0,4.64-4.64V16.959Z" fill="#c8effe"/>
      <path id="Trazado_629742" data-name="Trazado 629742" d="M37.648,16.959V38.537a3.676,3.676,0,0,0,3.671,3.676h0a3.637,3.637,0,0,0,1.521-.332,1.914,1.914,0,0,1,.8-.172,1.933,1.933,0,0,1,0,3.867H5.358a1.933,1.933,0,0,1,0-3.867,1.915,1.915,0,0,1,.8.172,3.637,3.637,0,0,0,1.521.332h0a3.676,3.676,0,0,0,3.671-3.676V16.959H.718V43.642a4.64,4.64,0,0,0,4.64,4.64H43.642a4.64,4.64,0,0,0,4.64-4.64V16.959Z" fill="#99e6fc"/>
      <g id="Grupo_956620" data-name="Grupo 956620">
        <path id="Trazado_629743" data-name="Trazado 629743" d="M34.19,11.3V9.52a.908.908,0,0,0-.768-.9L32,8.4a.9.9,0,0,1-.7-.564q-.08-.212-.173-.418a.9.9,0,0,1,.1-.9l.846-1.16a.908.908,0,0,0-.091-1.178L30.724,2.928a.908.908,0,0,0-1.178-.091l-1.16.846a.9.9,0,0,1-.9.1q-.205-.093-.417-.173a.9.9,0,0,1-.564-.7l-.222-1.419a.908.908,0,0,0-.9-.768H23.612a.908.908,0,0,0-.9.768L22.493,2.9a.9.9,0,0,1-.564.7q-.212.08-.417.173a.9.9,0,0,1-.9-.1l-1.16-.846a.908.908,0,0,0-1.178.091L17.021,4.184a.908.908,0,0,0-.091,1.178l.846,1.16a.9.9,0,0,1,.1.9q-.093.205-.173.418A.9.9,0,0,1,17,8.4l-1.419.222a.908.908,0,0,0-.768.9V11.3a.908.908,0,0,0,.768.9L17,12.415a.9.9,0,0,1,.7.564q.08.212.173.418a.9.9,0,0,1-.1.9l-.846,1.16a.908.908,0,0,0,.091,1.178l1.256,1.256a.908.908,0,0,0,1.178.091l1.16-.846a.9.9,0,0,1,.9-.1q.205.093.417.173a.9.9,0,0,1,.564.7l.222,1.419a.908.908,0,0,0,.9.768h1.776a.908.908,0,0,0,.9-.768l.222-1.419a.9.9,0,0,1,.564-.7q.212-.08.417-.173a.9.9,0,0,1,.9.1l1.16.846a.908.908,0,0,0,1.178-.091l1.256-1.256a.908.908,0,0,0,.091-1.178l-.846-1.16a.9.9,0,0,1-.1-.9q.093-.205.173-.418a.9.9,0,0,1,.7-.564l1.419-.222a.908.908,0,0,0,.768-.9ZM24.5,12.83a2.422,2.422,0,1,1,2.422-2.423A2.422,2.422,0,0,1,24.5,12.83Z" fill="#ffe177"/>
        <path id="Trazado_629744" data-name="Trazado 629744" d="M33.422,8.622,32,8.4a.9.9,0,0,1-.7-.564q-.08-.212-.173-.418a.9.9,0,0,1,.1-.9l.846-1.16a.908.908,0,0,0-.091-1.178L30.724,2.928a.9.9,0,0,0-.645-.263,11.5,11.5,0,0,1-11.332,13.5,11.564,11.564,0,0,1-1.989-.175.9.9,0,0,0,.263.645l1.256,1.256a.908.908,0,0,0,1.178.091l1.16-.846a.9.9,0,0,1,.9-.1q.205.093.417.173a.9.9,0,0,1,.564.7l.222,1.419a.908.908,0,0,0,.9.768h1.776a.908.908,0,0,0,.9-.768l.222-1.419a.9.9,0,0,1,.564-.7q.212-.08.417-.173a.9.9,0,0,1,.9.1l1.16.846a.908.908,0,0,0,1.178-.091l1.256-1.256a.908.908,0,0,0,.091-1.178l-.846-1.16a.9.9,0,0,1-.1-.9q.093-.205.173-.418a.9.9,0,0,1,.7-.564l1.419-.222a.908.908,0,0,0,.768-.9V9.52a.908.908,0,0,0-.768-.9Z" fill="#ffd15b"/>
      </g>
      <path id="Trazado_629745" data-name="Trazado 629745" d="M7.686,7.337A4.617,4.617,0,0,0,5.4,6.712,4.717,4.717,0,0,0,.718,11.435V43.642a4.643,4.643,0,0,1,6.566-4.223.965.965,0,0,0,1.361-.882V9.008a1.932,1.932,0,0,0-.959-1.67Z" fill="#dff6fd"/>
      <path id="Trazado_629746" data-name="Trazado 629746" d="M41.314,7.337a4.617,4.617,0,0,1,2.29-.626,4.717,4.717,0,0,1,4.679,4.723V43.642a4.643,4.643,0,0,0-6.566-4.223.965.965,0,0,1-1.361-.882V9.008a1.932,1.932,0,0,1,.959-1.67Z" fill="#dff6fd"/>
      <path id="Trazado_629747" data-name="Trazado 629747" d="M45.575,7.15V39.424a4.64,4.64,0,0,1,2.707,4.218V11.435A4.771,4.771,0,0,0,45.575,7.15Z" fill="#c8effe"/>
      <path id="Trazado_629748" data-name="Trazado 629748" d="M28.029,27.832H20.971a.725.725,0,0,1-.725-.725v-3.19a.725.725,0,0,1,.725-.725h7.057a.725.725,0,0,1,.725.725v3.19A.725.725,0,0,1,28.029,27.832Z" fill="#fe7ab6"/>
      <path id="Trazado_629749" data-name="Trazado 629749" d="M28.029,23.191H25.515a.725.725,0,0,1,.725.725v3.19a.725.725,0,0,1-.725.725h2.514a.725.725,0,0,0,.725-.725v-3.19a.725.725,0,0,0-.725-.725Z" fill="#fe5ca7"/>
      <path id="Trazado_629750" data-name="Trazado 629750" d="M36.73,38.273H29.672a.725.725,0,0,1-.725-.725v-3.19a.725.725,0,0,1,.725-.725H36.73a.725.725,0,0,1,.725.725v3.19A.725.725,0,0,1,36.73,38.273Z" fill="#528fd8"/>
      <path id="Trazado_629751" data-name="Trazado 629751" d="M36.73,33.632H34.216a.725.725,0,0,1,.725.725v3.19a.725.725,0,0,1-.725.725H36.73a.725.725,0,0,0,.725-.725v-3.19A.725.725,0,0,0,36.73,33.632Z" fill="#0573ce"/>
      <path id="Trazado_629752" data-name="Trazado 629752" d="M12.27,38.273h7.057a.725.725,0,0,0,.725-.725v-3.19a.725.725,0,0,0-.725-.725H12.27a.725.725,0,0,0-.725.725v3.19a.725.725,0,0,0,.725.725Z" fill="#528fd8"/>
      <path id="Trazado_629753" data-name="Trazado 629753" d="M19.328,33.632H16.814a.725.725,0,0,1,.725.725v3.19a.725.725,0,0,1-.725.725h2.514a.725.725,0,0,0,.725-.725v-3.19A.725.725,0,0,0,19.328,33.632Z" fill="#0573ce"/>
      <g id="Grupo_956621" data-name="Grupo 956621">
        <path id="Trazado_629754" data-name="Trazado 629754" d="M24.5,7.268a3.14,3.14,0,1,0,3.14,3.14A3.144,3.144,0,0,0,24.5,7.268Zm0,4.845a1.7,1.7,0,1,1,1.7-1.7,1.707,1.707,0,0,1-1.7,1.7Z"/>
        <path id="Trazado_629755" data-name="Trazado 629755" d="M47.372,7.55a5.273,5.273,0,0,0-3.732-1.556H43.6a5.354,5.354,0,0,0-2.645.723,2.656,2.656,0,0,0-1.315,2.291v7.234H32.946a1.621,1.621,0,0,0-.295-1.211l-.846-1.16a.183.183,0,0,1-.025-.179c.067-.149.131-.3.19-.459a.182.182,0,0,1,.144-.109l1.419-.222A1.618,1.618,0,0,0,34.908,11.3V9.52a1.618,1.618,0,0,0-1.375-1.607l-1.419-.222a.182.182,0,0,1-.144-.109c-.059-.155-.122-.31-.19-.459a.183.183,0,0,1,.025-.179l.846-1.16a1.618,1.618,0,0,0-.164-2.109L31.231,2.421a1.618,1.618,0,0,0-2.108-.164l-1.16.847a.182.182,0,0,1-.179.025c-.151-.068-.305-.132-.459-.19a.182.182,0,0,1-.109-.144l-.222-1.419A1.618,1.618,0,0,0,25.388,0H23.612a1.618,1.618,0,0,0-1.607,1.375l-.222,1.419a.182.182,0,0,1-.109.144c-.154.058-.308.122-.459.19a.183.183,0,0,1-.179-.025l-1.16-.847a1.618,1.618,0,0,0-2.108.164L16.513,3.676a1.618,1.618,0,0,0-.164,2.109l.846,1.16a.183.183,0,0,1,.025.179c-.067.149-.131.3-.19.459a.182.182,0,0,1-.144.109l-1.419.222A1.618,1.618,0,0,0,14.092,9.52V11.3A1.618,1.618,0,0,0,15.468,12.9l1.419.222a.182.182,0,0,1,.144.109c.059.155.122.31.19.459a.183.183,0,0,1-.025.179l-.846,1.16a1.62,1.62,0,0,0-.295,1.211H9.363V9.008A2.657,2.657,0,0,0,8.048,6.717,5.356,5.356,0,0,0,5.4,5.994H5.359A5.274,5.274,0,0,0,1.627,7.55,5.513,5.513,0,0,0,0,11.435v3.85a.718.718,0,1,0,1.436,0v-3.85a4.068,4.068,0,0,1,1.2-2.866A3.845,3.845,0,0,1,5.391,7.429a3.919,3.919,0,0,1,1.935.529,1.216,1.216,0,0,1,.6,1.05V38.537a.245.245,0,0,1-.116.212.234.234,0,0,1-.229.017A5.357,5.357,0,0,0,1.436,40V18.634a.718.718,0,1,0-1.436,0V43.642A5.364,5.364,0,0,0,5.358,49H13.68a.718.718,0,1,0,0-1.436H5.358a3.923,3.923,0,1,1,0-7.846,3.888,3.888,0,0,1,1.627.352,1.682,1.682,0,0,0,2.378-1.534V17.677h7.688l.718.718a1.618,1.618,0,0,0,2.108.164l1.16-.847a.183.183,0,0,1,.179-.024c.151.068.305.132.459.19a.182.182,0,0,1,.109.144l.222,1.419a1.618,1.618,0,0,0,1.607,1.375h.17v1.658H20.971a1.444,1.444,0,0,0-1.443,1.443v3.19a1.445,1.445,0,0,0,1.443,1.443h2.811v1.465H15.8a.718.718,0,0,0-.718.718v2.183H12.27a1.444,1.444,0,0,0-1.443,1.443v3.19A1.444,1.444,0,0,0,12.27,38.99h7.057a1.444,1.444,0,0,0,1.443-1.443v-3.19a1.444,1.444,0,0,0-1.443-1.443H16.517V31.45H32.483v1.465H29.672a1.444,1.444,0,0,0-1.443,1.443v3.19a1.444,1.444,0,0,0,1.443,1.443H36.73a1.444,1.444,0,0,0,1.443-1.443v-3.19a1.444,1.444,0,0,0-1.443-1.443H33.919V30.732a.718.718,0,0,0-.718-.718H25.218V28.549h2.811a1.445,1.445,0,0,0,1.443-1.443v-3.19a1.444,1.444,0,0,0-1.443-1.443H25.218V20.815h.17a1.618,1.618,0,0,0,1.607-1.375l.222-1.419a.182.182,0,0,1,.109-.144c.154-.058.308-.122.459-.19a.183.183,0,0,1,.179.025l1.16.847a1.618,1.618,0,0,0,2.108-.164l.718-.718h7.688V22.14a.718.718,0,1,0,1.436,0V9.008a1.216,1.216,0,0,1,.6-1.05,3.916,3.916,0,0,1,1.935-.529h.031a3.849,3.849,0,0,1,2.721,1.14,4.068,4.068,0,0,1,1.2,2.866V40a5.357,5.357,0,0,0-6.147-1.229.233.233,0,0,1-.228-.017.245.245,0,0,1-.116-.212V25.49a.718.718,0,0,0-1.436,0V38.537a1.682,1.682,0,0,0,2.377,1.534,3.923,3.923,0,1,1,1.627,7.493H17.029a.718.718,0,1,0,0,1.436H43.642A5.364,5.364,0,0,0,49,43.642V11.435A5.512,5.512,0,0,0,47.372,7.55ZM19.335,34.357v3.19a.007.007,0,0,1-.007.007H12.271a.007.007,0,0,1-.007-.007v-3.19a.007.007,0,0,1,.007-.007h7.057a.007.007,0,0,1,.007.007Zm17.4,0v3.19a.007.007,0,0,1-.007.007H29.672a.007.007,0,0,1-.007-.007v-3.19a.007.007,0,0,1,.007-.007H36.73A.007.007,0,0,1,36.737,34.357Zm-8.7-10.441v3.19a.007.007,0,0,1-.007.007H20.971a.007.007,0,0,1-.007-.007v-3.19a.007.007,0,0,1,.007-.007h7.057A.007.007,0,0,1,28.036,23.916Zm3.436-7.792L30.216,17.38a.189.189,0,0,1-.247.019l-1.16-.847a1.618,1.618,0,0,0-1.615-.174c-.124.056-.251.108-.376.156A1.617,1.617,0,0,0,25.8,17.8l-.222,1.419a.19.19,0,0,1-.188.161H23.612a.19.19,0,0,1-.188-.161L23.2,17.8a1.617,1.617,0,0,0-1.02-1.265c-.126-.047-.252-.1-.376-.156a1.592,1.592,0,0,0-.655-.14,1.631,1.631,0,0,0-.96.314l-1.16.847a.19.19,0,0,1-.247-.019l-1.256-1.256a.19.19,0,0,1-.019-.247l.846-1.16a1.619,1.619,0,0,0,.174-1.615c-.055-.122-.107-.249-.155-.376a1.617,1.617,0,0,0-1.265-1.02l-1.419-.222a.19.19,0,0,1-.161-.188V9.52a.19.19,0,0,1,.161-.188l1.419-.222a1.617,1.617,0,0,0,1.265-1.02c.048-.127.1-.254.156-.376A1.619,1.619,0,0,0,18.355,6.1l-.846-1.16a.19.19,0,0,1,.019-.247l1.256-1.256a.19.19,0,0,1,.247-.019l1.16.847a1.618,1.618,0,0,0,1.615.174c.124-.056.251-.108.376-.156A1.617,1.617,0,0,0,23.2,3.016L23.424,1.6a.19.19,0,0,1,.188-.161h1.776a.19.19,0,0,1,.188.161L25.8,3.016a1.617,1.617,0,0,0,1.02,1.265c.126.047.252.1.376.156a1.618,1.618,0,0,0,1.615-.174l1.16-.847a.189.189,0,0,1,.247.019l1.256,1.256a.19.19,0,0,1,.019.247L30.645,6.1a1.619,1.619,0,0,0-.174,1.615c.055.122.107.249.155.376a1.617,1.617,0,0,0,1.265,1.02l1.419.222a.19.19,0,0,1,.161.188V11.3a.19.19,0,0,1-.161.188l-1.419.222a1.617,1.617,0,0,0-1.265,1.02c-.048.127-.1.254-.156.376a1.619,1.619,0,0,0,.174,1.615l.846,1.16a.19.19,0,0,1-.019.247Z"/>
        <path id="Trazado_629756" data-name="Trazado 629756" d="M38.172,42.288a.718.718,0,0,0-.718-.718H11.545a.718.718,0,0,0,0,1.436H37.455A.718.718,0,0,0,38.172,42.288Z"/>
      </g>
    </g>
  </g>
</svg>
