<svg xmlns="http://www.w3.org/2000/svg" xmlns:xlink="http://www.w3.org/1999/xlink" width="49" height="58" viewBox="0 0 49 58">
  <defs>
    <clipPath id="clip-path">
      <rect id="Rectángulo_306521" data-name="Rectángulo 306521" width="49" height="58" transform="translate(828 4806)" fill="#583cb6" stroke="#707070" stroke-width="1"/>
    </clipPath>
  </defs>
  <g id="Enmascarar_grupo_878402" data-name="Enmascarar grupo 878402" transform="translate(-828 -4806)" clip-path="url(#clip-path)">
    <g id="layer1" transform="translate(828 4810.5)">
      <path id="path7833" d="M6.125.766a2.292,2.292,0,0,0-2.3,2.3V29.094a2.292,2.292,0,0,0,2.3,2.3H45.937a2.292,2.292,0,0,0,2.3-2.3V3.063a2.292,2.292,0,0,0-2.3-2.3Z" fill="#549ad4"/>
      <path id="path7863" d="M44.667.766C47.021,29.94,6.125,30.625,6.125,30.625l-.473.716a2.315,2.315,0,0,0,.473.049H45.938a2.292,2.292,0,0,0,2.3-2.3V3.062a2.292,2.292,0,0,0-2.3-2.3Z" fill="#3588cb"/>
      <path id="path7838" d="M8.712,3.934A1.818,1.818,0,0,0,6.891,5.755V26.4a1.818,1.818,0,0,0,1.822,1.822H43.35A1.818,1.818,0,0,0,45.172,26.4V5.755A1.818,1.818,0,0,0,43.35,3.934Z" fill="#e4eff8"/>
      <path id="path7858" d="M42.939,3.934c-.853,18.35-24.244,22.455-35.8,23.365a1.811,1.811,0,0,0,1.578.923H43.35A1.817,1.817,0,0,0,45.172,26.4V5.756A1.817,1.817,0,0,0,43.35,3.934Z" fill="#c4dcf0"/>
      <path id="path7816" d="M35.984,39.812,30.336,28.5a1.953,1.953,0,0,1,.7-2.615,1.91,1.91,0,0,1,2.615.7l2.333,4.041V19.141a1.531,1.531,0,1,1,3.063,0v6.891a1.531,1.531,0,1,1,3.063,0V26.8a1.531,1.531,0,0,1,3.063,0v.766a1.531,1.531,0,1,1,3.062,0v6.891c0,2.3-1.531,3.828-1.531,5.359Z" fill="#ffd1b5"/>
      <path id="path7828" d="M46.806,26.042c.287,11.389-7.892,13.554-8.863,13.771H46.7c0-1.531,1.531-3.062,1.531-5.359V27.563a1.523,1.523,0,0,0-1.428-1.521Z" fill="#ffb98d"/>
      <path id="path7825" d="M32.128,25.63a1.91,1.91,0,0,0-1.092.253,1.954,1.954,0,0,0-.7,2.615l5.648,11.314h1.531L31.868,28.5a1.954,1.954,0,0,1,.7-2.615,1.893,1.893,0,0,1,.2-.09A1.912,1.912,0,0,0,32.128,25.63Z" fill="#f5f9fb"/>
      <path id="path7790" d="M3.8,16.41a3.836,3.836,0,0,0-3.033,4v6.514c0,2.171,2.3,6.765,2.3,8.3v3.062h11.62c0-1.527,1.632-3.817,1.64-6.891H10.669c-.381-3.165-3.013-3.937-3.013-5.359V22.747c-.082-2.715-1.97-3.882-3.062-3.516V17.36Z" fill="#ffd1b5"/>
      <path id="path7820" d="M3.8,16.41a3.836,3.836,0,0,0-3.033,4v6.514c0,2.171,2.3,6.765,2.3,8.3v3.062H4.594V35.219c0-1.531-2.3-6.125-2.3-8.3V20.409a4.038,4.038,0,0,1,1.862-3.569Z" fill="#f5f9fb"/>
      <path id="path7810" d="M14.608,31.391C11.967,36.7,3.062,38.281,3.062,38.281h11.62c0-1.527,1.632-3.817,1.64-6.891Z" fill="#ffb98d"/>
      <path id="rect7783" d="M35.984,39.812H46.7a1.528,1.528,0,0,1,1.531,1.531V46.7A1.528,1.528,0,0,1,46.7,48.234H35.984A1.528,1.528,0,0,1,34.453,46.7V41.344a1.528,1.528,0,0,1,1.531-1.531Z" fill="#549ad4"/>
      <path id="path7785" d="M47.285,39.928c-1.411,5.652-9,7.214-12.761,7.214a1.523,1.523,0,0,0,1.461,1.093H46.7A1.528,1.528,0,0,0,48.234,46.7V41.344a1.527,1.527,0,0,0-.95-1.416Z" fill="#3588cb"/>
      <path id="path7787" d="M35.984,40.052a1.528,1.528,0,0,0-1.531,1.531V46.7a1.528,1.528,0,0,0,1.531,1.531h1.531A1.528,1.528,0,0,1,35.984,46.7v-5.12a1.528,1.528,0,0,1,1.531-1.531Z" fill="#f5f9fb"/>
      <path id="rect7771" d="M3.828,38.281H14.547a1.528,1.528,0,0,1,1.531,1.531V46.7a1.528,1.528,0,0,1-1.531,1.531H3.828A1.528,1.528,0,0,1,2.3,46.7V39.813a1.528,1.528,0,0,1,1.531-1.531Z" fill="#549ad4"/>
      <path id="path7773" d="M15.129,38.4c-1.411,5.652-9.377,7.989-12.761,8.745a1.523,1.523,0,0,0,1.461,1.093H14.547A1.528,1.528,0,0,0,16.078,46.7V39.813a1.527,1.527,0,0,0-.95-1.416Z" fill="#3588cb"/>
      <path id="rect7780" d="M3.828,38.281A1.528,1.528,0,0,0,2.3,39.813V46.7a1.528,1.528,0,0,0,1.531,1.531H5.359A1.528,1.528,0,0,1,3.828,46.7V39.813a1.528,1.528,0,0,1,1.531-1.531Z" fill="#f5f9fb"/>
      <path id="path7803" d="M14.792,31.391c-.009,3.073-1.64,5.363-1.64,6.891h1.531c0-1.527,1.632-3.817,1.64-6.891Z" fill="#ffb98d"/>
      <path id="path7808" d="M6.125,22.747V26.8c0,1.422,2.632,2.195,3.013,5.359h1.531c-.381-3.165-3.013-4.7-3.013-6.125V22.747c-.082-2.715-1.97-3.882-3.828-3.516.327-.366,2.215.8,2.3,3.516Z" fill="#ffb98d"/>
      <path id="path7844" d="M9.953,16.844a7.656,7.656,0,0,1,15.312,0v3.062H9.953Z" fill="#ff5151"/>
      <g id="Grupo_956622" data-name="Grupo 956622">
        <path id="path7856" d="M15.313,19.906v-.766a2.3,2.3,0,1,1,4.594,0v.766Z" fill="#ffca28"/>
        <path id="rect7840" d="M-37.516-6.891a1.528,1.528,0,0,0,1.531-1.531V-9.953a1.528,1.528,0,0,0-1.531-1.531,1.528,1.528,0,0,0-1.531,1.531v1.531A1.528,1.528,0,0,0-37.516-6.891Z" transform="rotate(180)" fill="#ffca28"/>
        <path id="rect7842" d="M31.391,12.25a1.528,1.528,0,0,1,1.531,1.531v1.531a1.531,1.531,0,1,1-3.062,0V13.781A1.528,1.528,0,0,1,31.391,12.25Z" fill="#ffca28"/>
      </g>
      <path id="path7848" d="M17.609,9.188a7.691,7.691,0,0,0-1.531.154,7.658,7.658,0,0,1,6.125,7.5v3.062h3.062V16.844a7.656,7.656,0,0,0-7.656-7.656Z" fill="#ff2929"/>
      <path id="path7853" d="M17.609,9.188a7.656,7.656,0,0,0-7.656,7.656v3.062h1.531V16.844a7.658,7.658,0,0,1,6.891-7.619q-.378-.038-.766-.037Z" fill="#f5f9fb"/>
      <path id="rect820" d="M6.126,0A3.074,3.074,0,0,0,3.064,3.064V15.816A4.283,4.283,0,0,0,.74,17.65,5.33,5.33,0,0,0,0,20.409v6.515a15.542,15.542,0,0,0,1.192,4.64c.289.809.573,1.594.781,2.249a6.539,6.539,0,0,1,.322,1.4v2.894a2.291,2.291,0,0,0-.763,1.7V46.7a2.312,2.312,0,0,0,2.3,2.3H14.548a2.31,2.31,0,0,0,2.294-2.3V39.81a2.305,2.305,0,0,0-1.311-2.07c.131-.523.4-1.243.7-2.079a13.628,13.628,0,0,0,.831-3.5H31.3l3.583,7.17a2.3,2.3,0,0,0-1.2,2.013V46.7A2.31,2.31,0,0,0,35.983,49H46.7A2.317,2.317,0,0,0,49,46.7V41.341a2.31,2.31,0,0,0-1.431-2.122,13.123,13.123,0,0,1,.6-1.489A7.877,7.877,0,0,0,49,34.452V3.064A3.075,3.075,0,0,0,45.936,0Zm0,1.531h39.81a1.513,1.513,0,0,1,1.531,1.533V25.4a2.126,2.126,0,0,0-.769-.135,2.005,2.005,0,0,0-.763.139V5.358a2.3,2.3,0,0,0-2.294-2.294H8.42A2.3,2.3,0,0,0,6.126,5.358v13.3c-.047-.02-.093-.042-.141-.061A2.468,2.468,0,0,0,4.6,18.43V3.064A1.513,1.513,0,0,1,6.126,1.531ZM7.658,20.048V5.358A.743.743,0,0,1,8.42,4.6H43.642a.743.743,0,0,1,.763.763v19.28a2.03,2.03,0,0,0-.763-.138,2.212,2.212,0,0,0-1.135.295,2.277,2.277,0,0,0-1.929-1.063,2.433,2.433,0,0,0-.769.133v-3.19H42.1a.766.766,0,0,0,0-1.533H39.81a2.3,2.3,0,1,0-4.6,0H28.325a.766.766,0,0,0,0,1.533h6.889v7.091l-.9-1.564a2.689,2.689,0,0,0-3.658-.984,2.655,2.655,0,0,0-1.31,2.345H9.609c-.353-.387-.672-.7-.882-.956-.239-.29-.307-.446-.307-.574v-3.3a5.278,5.278,0,0,0-.763-2.688ZM37.516,6.126a2.31,2.31,0,0,0-2.3,2.294H28.325a.766.766,0,0,0,0,1.533h6.889a2.3,2.3,0,0,0,4.6,0h2.3a.766.766,0,0,0,0-1.533h-2.3A2.3,2.3,0,0,0,37.516,6.126Zm0,1.531a.743.743,0,0,1,.763.763V9.953a.766.766,0,1,1-1.533,0V8.42A.749.749,0,0,1,37.516,7.658Zm-19.9.763a8.432,8.432,0,0,0-8.42,8.422V19.9a.766.766,0,0,0,.763.77H25.261a.766.766,0,0,0,.77-.77V16.842a8.432,8.432,0,0,0-8.42-8.422Zm-.769,1.575v.727a.766.766,0,0,0,1.531,0V9.995a6.855,6.855,0,0,1,3.54,1.459l-.516.516a.768.768,0,0,0,1.086,1.086L23,12.54a6.853,6.853,0,0,1,1.458,3.54h-.719a.766.766,0,1,0,0,1.531H24.5v1.531H20.675a3.049,3.049,0,0,0-.751-2l1.288-1.288a.763.763,0,1,0-1.08-1.08L18.64,16.259a3.03,3.03,0,0,0-1.029-.179,3.074,3.074,0,0,0-3.062,3.062H10.722V17.611h.763a.766.766,0,0,0,0-1.531h-.721a6.855,6.855,0,0,1,1.459-3.54l.516.516a.766.766,0,0,0,1.08-1.086l-.513-.513a6.854,6.854,0,0,1,3.537-1.462Zm14.545,1.489a2.3,2.3,0,0,0-2.294,2.294h-.769a.766.766,0,0,0,0,1.533h.769a2.3,2.3,0,1,0,4.6,0h8.42a.766.766,0,0,0,0-1.533h-8.42a2.31,2.31,0,0,0-2.3-2.294Zm0,1.531a.749.749,0,0,1,.77.763v1.533a.766.766,0,1,1-1.533,0V13.778A.743.743,0,0,1,31.388,13.016ZM3.064,17.466v8.57a.766.766,0,0,0,1.531,0V20.448c0-.368.083-.421.181-.474a.79.79,0,0,1,.633.039,2.882,2.882,0,0,1,1.48,2.757v3.261a2.454,2.454,0,0,0,.656,1.554c.334.405.713.759,1.068,1.159a4.665,4.665,0,0,1,1.34,3.414.766.766,0,0,0,1.531,0H15.52a12.4,12.4,0,0,1-.736,2.989,15.65,15.65,0,0,0-.655,2.369H3.827v-2.3a6.315,6.315,0,0,0-.39-1.865c-.223-.7-.517-1.492-.8-2.294a17.086,17.086,0,0,1-1.1-4.132V20.409a3.931,3.931,0,0,1,.514-1.966,2.584,2.584,0,0,1,1.018-.976Zm14.547.145a1.52,1.52,0,0,1,1.531,1.531H16.08a1.52,1.52,0,0,1,1.531-1.531Zm20.667,1.531v9.952a.766.766,0,0,0,1.531,0V26.031a.766.766,0,1,1,1.531,0v3.062a.766.766,0,0,0,1.531,0v-2.3a.766.766,0,0,1,1.533,0v2.3a.766.766,0,0,0,1.531,0V27.562a.766.766,0,1,1,1.531,0v6.889a6.413,6.413,0,0,1-.7,2.656,9.94,9.94,0,0,0-.748,1.939H36.457L31.021,28.156a1.165,1.165,0,0,1,.395-1.612,1.132,1.132,0,0,1,1.572.419L35.322,31a.766.766,0,0,0,1.424-.378c0-3.826,0-7.661,0-11.483a.766.766,0,1,1,1.533,0ZM10.728,29.094H29.774l.764,1.531H11.309a6.161,6.161,0,0,0-.582-1.531Zm-6.9,9.953H14.548a.743.743,0,0,1,.763.763V46.7a.748.748,0,0,1-.763.769H3.827a.748.748,0,0,1-.763-.769V39.809a.743.743,0,0,1,.763-.763Zm32.156,1.531H46.7a.748.748,0,0,1,.769.763V46.7a.753.753,0,0,1-.769.769H35.983a.753.753,0,0,1-.769-.769V41.341A.748.748,0,0,1,35.983,40.578Z"/>
    </g>
  </g>
</svg>
