<svg xmlns="http://www.w3.org/2000/svg" xmlns:xlink="http://www.w3.org/1999/xlink" width="85.663" height="85.663" viewBox="0 0 85.663 85.663">
  <defs>
    <clipPath id="clip-path">
      <rect id="Rectángulo_306886" data-name="Rectángulo 306886" width="79" height="79" transform="translate(183 606.863)" fill="#fff" stroke="#707070" stroke-width="1"/>
    </clipPath>
  </defs>
  <g id="Grupo_952193" data-name="Grupo 952193" transform="translate(-180 -603.953)">
    <path id="Trazado_621807" data-name="Trazado 621807" d="M42.832,0A42.832,42.832,0,1,1,0,42.832,42.832,42.832,0,0,1,42.832,0Z" transform="translate(180 603.953)" fill="#ef8b53"/>
    <g id="Enmascarar_grupo_878403" data-name="Enmascarar grupo 878403" clip-path="url(#clip-path)">
      <g id="uniforme" transform="translate(181.726 605.589)">
        <g id="Grupo_956650" data-name="Grupo 956650">
          <g id="Grupo_956626" data-name="Grupo 956626">
            <path id="Trazado_629757" data-name="Trazado 629757" d="M15.29,67.532H33.129V79H10.194V67.532Z" fill="#d3a06c"/>
          </g>
          <g id="Grupo_956627" data-name="Grupo 956627">
            <path id="Trazado_629758" data-name="Trazado 629758" d="M10.194,67.532V62.359a7.077,7.077,0,0,0,1.045.076H15.29v5.1Z" fill="#4fc1e9"/>
          </g>
          <g id="Grupo_956628" data-name="Grupo 956628">
            <path id="Trazado_629759" data-name="Trazado 629759" d="M33.129,52.242v15.29h-5.1V47.145H15.29v8.5l-2.969-.5a2.555,2.555,0,0,1-2.128-2.51v-.4H2.612a17.082,17.082,0,0,1,13.952-15.29l.344,1.389a4.9,4.9,0,0,0,9.505,0l.344-1.389A17.083,17.083,0,0,1,40.71,52.242Z" fill="#4fc1e9"/>
          </g>
          <g id="Grupo_956629" data-name="Grupo 956629">
            <path id="Trazado_629760" data-name="Trazado 629760" d="M28.032,47.145V67.532H15.29v-5.1h6.371a3.823,3.823,0,0,0,0-7.645h-.37a3.747,3.747,0,0,0-1.707.408l-1.746.866-2.548-.42v-8.5Z" fill="#e6e9ed"/>
          </g>
          <g id="Grupo_956630" data-name="Grupo 956630">
            <path id="Trazado_629761" data-name="Trazado 629761" d="M75.177,77.815V79H44.6V77.815a21.748,21.748,0,0,1,6.371-15.38H68.806a21.77,21.77,0,0,1,6.371,15.38Z" fill="#969faa"/>
          </g>
          <g id="Grupo_956631" data-name="Grupo 956631">
            <path id="Trazado_629762" data-name="Trazado 629762" d="M69.265,59.887l-.459,2.548H57.339V49.694l1.771-1.771c.268-.268.535-.548.765-.828A21.251,21.251,0,0,0,64.309,39.5a19.225,19.225,0,0,0,.675-2.548A17.124,17.124,0,0,1,73.9,41.577c.395.4.777.8,1.134,1.236A17.038,17.038,0,0,1,79,53.745v6.142Z" fill="#4fc1e9"/>
          </g>
          <g id="Grupo_956632" data-name="Grupo 956632">
            <path id="Trazado_629763" data-name="Trazado 629763" d="M50.509,59.887H40.774V53.745A17.064,17.064,0,0,1,54.79,36.952a21.407,21.407,0,0,0,.675,2.548h.013a21.346,21.346,0,0,0,4.4,7.594c-.229.28-.5.561-.765.828l-1.771,1.771V62.435H50.968Z" fill="#4fc1e9"/>
          </g>
          <g id="Grupo_956633" data-name="Grupo 956633">
            <path id="Trazado_629764" data-name="Trazado 629764" d="M55.478,39.5h8.83a21.251,21.251,0,0,1-4.434,7.594A21.346,21.346,0,0,1,55.478,39.5Z" fill="#e6e9ed"/>
          </g>
          <g id="Grupo_956634" data-name="Grupo 956634">
            <path id="Trazado_629765" data-name="Trazado 629765" d="M73.9,25.484V41.577a17.124,17.124,0,0,0-8.919-4.625l-.7-2.816a6.4,6.4,0,0,0,4.4-4.829h1.4A3.817,3.817,0,0,0,73.9,25.484Z" fill="#fcd770"/>
          </g>
          <g id="Grupo_956635" data-name="Grupo 956635">
            <path id="Trazado_629766" data-name="Trazado 629766" d="M49.694,29.306h1.4a6.4,6.4,0,0,0,4.4,4.829l-.7,2.816a17.124,17.124,0,0,0-8.919,4.625V25.484a3.828,3.828,0,0,0,3.823,3.823Z" fill="#fcd770"/>
          </g>
          <g id="Grupo_956636" data-name="Grupo 956636">
            <path id="Trazado_629767" data-name="Trazado 629767" d="M73.9,16.565v8.919a3.828,3.828,0,0,0-3.823-3.823H68.806V17.839l-8.919-3.823-8.919,3.823v3.823H49.694a3.817,3.817,0,0,0-3.823,3.823V16.565a14.016,14.016,0,1,1,28.032,0Z" fill="#fcd770"/>
          </g>
          <g id="Grupo_956637" data-name="Grupo 956637">
            <path id="Trazado_629768" data-name="Trazado 629768" d="M19.113,14.016,15.15,15.609a3.8,3.8,0,0,0-2.408,3.542v2.51H11.468a3.825,3.825,0,0,0-2.192.688,13.4,13.4,0,0,1,11.761-19.8h1.249A13.385,13.385,0,0,1,34.046,22.337l-.013.013a3.755,3.755,0,0,0-2.179-.688H30.581a3.817,3.817,0,0,0-3.823-3.823H22.935a3.828,3.828,0,0,1-3.823-3.823Z" fill="#656d78"/>
          </g>
          <g id="Grupo_956638" data-name="Grupo 956638">
            <path id="Trazado_629769" data-name="Trazado 629769" d="M24.363,55.912a3.82,3.82,0,0,1-2.7,6.524H11.238a7.077,7.077,0,0,1-1.045-.076,8.48,8.48,0,0,1-5.1-2.472,8.625,8.625,0,0,1-2.548-6.142c0-.51.025-1.007.064-1.5h7.581v.4a2.555,2.555,0,0,0,2.128,2.51l2.969.5,2.548.42,1.746-.866a3.747,3.747,0,0,1,1.707-.408h.37a3.813,3.813,0,0,1,2.7,1.121Z" fill="#f0d0b4"/>
          </g>
          <g id="Grupo_956639" data-name="Grupo 956639">
            <path id="Trazado_629770" data-name="Trazado 629770" d="M40.774,70.081V79H33.129V52.242H40.71c.038.5.064.994.064,1.5V70.081Z" fill="#f0d0b4"/>
          </g>
          <g id="Grupo_956640" data-name="Grupo 956640">
            <path id="Trazado_629771" data-name="Trazado 629771" d="M69.265,59.887H79V79H75.177V77.815a21.77,21.77,0,0,0-6.371-15.38Z" fill="#f0d0b4"/>
          </g>
          <g id="Grupo_956641" data-name="Grupo 956641">
            <path id="Trazado_629772" data-name="Trazado 629772" d="M50.509,59.887l.459,2.548A21.748,21.748,0,0,0,44.6,77.815V79H40.774V59.887Z" fill="#f0d0b4"/>
          </g>
          <g id="Grupo_956642" data-name="Grupo 956642">
            <path id="Trazado_629773" data-name="Trazado 629773" d="M72.782,22.783a3.82,3.82,0,0,1-2.7,6.524h-1.4a6,6,0,0,0,.127-1.274V21.661h1.274A3.813,3.813,0,0,1,72.782,22.783Z" fill="#f0d0b4"/>
          </g>
          <g id="Grupo_956643" data-name="Grupo 956643">
            <path id="Trazado_629774" data-name="Trazado 629774" d="M62.435,34.4a6.353,6.353,0,0,0,1.848-.268l.7,2.816a19.227,19.227,0,0,1-.675,2.548H55.466a21.406,21.406,0,0,1-.675-2.548l.7-2.816a6.353,6.353,0,0,0,1.848.268Z" fill="#f0d0b4"/>
          </g>
          <g id="Grupo_956644" data-name="Grupo 956644">
            <path id="Trazado_629775" data-name="Trazado 629775" d="M51.1,29.306a6,6,0,0,1-.127-1.274V17.839l8.919-3.823,8.919,3.823V28.032a6,6,0,0,1-.127,1.274,6.342,6.342,0,0,1-6.244,5.1h-5.1a6.342,6.342,0,0,1-6.244-5.1Z" fill="#f0d0b4"/>
          </g>
          <g id="Grupo_956645" data-name="Grupo 956645">
            <path id="Trazado_629776" data-name="Trazado 629776" d="M51.1,29.306h-1.4a3.823,3.823,0,0,1,0-7.645h1.274v6.371A6,6,0,0,0,51.1,29.306Z" fill="#f0d0b4"/>
          </g>
          <g id="Grupo_956646" data-name="Grupo 956646">
            <path id="Trazado_629777" data-name="Trazado 629777" d="M34.556,22.783a3.82,3.82,0,0,1-2.7,6.524h-1.4a6,6,0,0,0,.127-1.274V21.661h1.274a3.755,3.755,0,0,1,2.179.688,3.368,3.368,0,0,1,.522.433Z" fill="#f0d0b4"/>
          </g>
          <g id="Grupo_956647" data-name="Grupo 956647">
            <path id="Trazado_629778" data-name="Trazado 629778" d="M26.758,36.952l-.344,1.389a4.9,4.9,0,0,1-9.505,0l-.344-1.389.7-2.816a6.353,6.353,0,0,0,1.848.268h5.1a6.353,6.353,0,0,0,1.848-.268Z" fill="#f0d0b4"/>
          </g>
          <g id="Grupo_956648" data-name="Grupo 956648">
            <path id="Trazado_629779" data-name="Trazado 629779" d="M30.581,21.661v6.371a6,6,0,0,1-.127,1.274,6.342,6.342,0,0,1-6.244,5.1h-5.1a6.342,6.342,0,0,1-6.244-5.1,6,6,0,0,1-.127-1.274V19.151a3.8,3.8,0,0,1,2.408-3.542l3.963-1.593a3.828,3.828,0,0,0,3.823,3.823h3.823a3.817,3.817,0,0,1,3.823,3.823Z" fill="#f0d0b4"/>
          </g>
          <g id="Grupo_956649" data-name="Grupo 956649">
            <path id="Trazado_629780" data-name="Trazado 629780" d="M12.869,29.306h-1.4a3.823,3.823,0,1,1,0-7.645h1.274v6.371A6,6,0,0,0,12.869,29.306Z" fill="#f0d0b4"/>
          </g>
        </g>
        <g id="Grupo_956651" data-name="Grupo 956651">
          <circle id="Elipse_7720" data-name="Elipse 7720" cx="1.274" cy="1.274" r="1.274" transform="translate(16.565 21.661)"/>
          <circle id="Elipse_7721" data-name="Elipse 7721" cx="1.274" cy="1.274" r="1.274" transform="translate(24.21 21.661)"/>
          <path id="Trazado_629781" data-name="Trazado 629781" d="M26.758,26.758H24.21a1.275,1.275,0,0,1-1.274,1.274h-5.1v2.548h5.1A3.827,3.827,0,0,0,26.758,26.758Z"/>
          <path id="Trazado_629782" data-name="Trazado 629782" d="M75.177,41.06v-24.5a15.29,15.29,0,0,0-30.581,0v24.5a18.362,18.362,0,0,0-3.823,6A18.321,18.321,0,0,0,27.8,35.865l-.243-.97a7.667,7.667,0,0,0,3.853-4.314h.446a5.078,5.078,0,0,0,3.733-8.54,14.605,14.605,0,0,0-13.3-20.767H21.033a14.605,14.605,0,0,0-13.3,20.767,5.078,5.078,0,0,0,3.733,8.54h.446A7.669,7.669,0,0,0,15.766,34.9l-.243.97A18.336,18.336,0,0,0,1.274,53.747a9.974,9.974,0,0,0,7.645,9.68v14.3H1.274v2.548h79V53.747A18.314,18.314,0,0,0,75.177,41.06Zm2.548,12.687v4.866H70.8L72.727,47.99l-5.568-5.568-1.8,1.8,4.625,4.625L67.744,61.161H58.613V50.221l1.4-1.4a22.644,22.644,0,0,0,5.914-10.345,15.786,15.786,0,0,1,11.8,15.275ZM42.048,77.726V61.161h7.393l.161.886a22.849,22.849,0,0,0-6.275,15.679ZM34.4,53.516H39.49c0,.078.01.153.01.231V77.726H34.4Zm17.1,10.194H68.269A20.333,20.333,0,0,1,73.9,77.726H45.875A20.333,20.333,0,0,1,51.505,63.71Zm10.93-30.581h-5.1a5.1,5.1,0,0,1-5.1-5.1V18.678L59.887,15.4l7.645,3.276v9.354A5.1,5.1,0,0,1,62.435,33.129Zm-5.1,2.548h5.1a7.519,7.519,0,0,0,.9-.059l.335,1.34c-.09.427-.19.85-.307,1.267H56.414q-.178-.625-.312-1.264l.335-1.342A7.81,7.81,0,0,0,57.339,35.677Zm5.117,5.1a20.1,20.1,0,0,1-2.573,4.334,20.187,20.187,0,0,1-2.561-4.334Zm3.569-4.909-.242-.97a7.673,7.673,0,0,0,3.852-4.314h.446a5.044,5.044,0,0,0,2.548-.708v8.986A18.269,18.269,0,0,0,66.025,35.865Zm4.056-12.929a2.548,2.548,0,0,1,0,5.1ZM59.887,3.823A12.756,12.756,0,0,1,72.629,16.565V21.1a5.044,5.044,0,0,0-2.548-.708V17L59.887,12.63,49.694,17v3.388a5.044,5.044,0,0,0-2.548.708V16.565A12.756,12.756,0,0,1,59.887,3.823ZM49.694,28.032a2.548,2.548,0,0,1,0-5.1Zm-2.548,1.84a5.044,5.044,0,0,0,2.548.708h.446A7.669,7.669,0,0,0,53.991,34.9l-.243.97a18.266,18.266,0,0,0-6.6,2.992V29.872Zm6.7,8.6a22.75,22.75,0,0,0,4.339,8.578l-2.115,2.115v12H52.03L49.792,48.849l4.625-4.625-1.8-1.8L47.047,47.99l1.932,10.623h-6.93V53.747A15.785,15.785,0,0,1,53.841,38.473ZM31.855,28.032v-5.1a2.548,2.548,0,0,1,0,5.1ZM8.919,25.484a2.551,2.551,0,0,1,2.548-2.548v5.1A2.551,2.551,0,0,1,8.919,25.484Zm2.548-6.331v1.235a5.016,5.016,0,0,0-1.571.274A12.079,12.079,0,0,1,21.033,3.823h1.256A12.079,12.079,0,0,1,33.426,20.661a5.016,5.016,0,0,0-1.571-.274h-.181a5.09,5.09,0,0,0-4.916-3.823H22.935a2.548,2.548,0,0,1,0-5.1V8.919a5.105,5.105,0,0,0-5.018,4.2l-3.245,1.3A5.069,5.069,0,0,0,11.468,19.152Zm2.548,8.88v-8.88a2.533,2.533,0,0,1,1.6-2.365l2.533-1.014a5.107,5.107,0,0,0,4.785,3.34h3.823a2.551,2.551,0,0,1,2.548,2.548v6.371a5.1,5.1,0,0,1-5.1,5.1h-5.1A5.1,5.1,0,0,1,14.016,28.032Zm5.1,7.645h5.1a7.536,7.536,0,0,0,.9-.059l.334,1.333-.27,1.079a3.623,3.623,0,0,1-7.028,0l-.27-1.079.334-1.333a7.81,7.81,0,0,0,.9.057Zm-3.481,2.792.045.18a6.169,6.169,0,0,0,11.97,0l.045-.18a15.788,15.788,0,0,1,11.563,12.5H34.4v-5.1H31.855V66.258H29.306V45.871H14.016v8.264l-1.484-.247a1.27,1.27,0,0,1-1.064-1.256V45.871H8.919v5.1H4.069a15.786,15.786,0,0,1,11.563-12.5ZM14.016,63.71v2.548H11.468V63.71Zm2.548,0h5.1a5.1,5.1,0,1,0,0-10.194h-.372a5.137,5.137,0,0,0-2.28.538l-1.37.686-1.075-.18v-6.14H26.758V66.258H16.565ZM3.823,53.747c0-.078.009-.153.01-.231h5.2a3.8,3.8,0,0,0,3.08,2.886l5.924.988,2.11-1.056a2.578,2.578,0,0,1,1.142-.269h.372a2.548,2.548,0,1,1,0,5.1H11.237a7.422,7.422,0,0,1-7.415-7.415Zm7.645,15.06H31.855v8.919H22.935V73.416l1.844-.923-1.14-2.28-3.252,1.627v5.884H11.468Zm64.98,8.919a22.847,22.847,0,0,0-6.275-15.679l.161-.886h7.393V77.726Z"/>
          <path id="Trazado_629783" data-name="Trazado 629783" d="M61.161,28.032h-5.1v2.548h5.1a3.827,3.827,0,0,0,3.823-3.823H62.435A1.275,1.275,0,0,1,61.161,28.032Z"/>
          <circle id="Elipse_7722" data-name="Elipse 7722" cx="1.274" cy="1.274" r="1.274" transform="translate(54.79 20.387)"/>
          <circle id="Elipse_7723" data-name="Elipse 7723" cx="1.274" cy="1.274" r="1.274" transform="translate(62.435 20.387)"/>
        </g>
      </g>
    </g>
  </g>
</svg>
