<svg xmlns="http://www.w3.org/2000/svg" xmlns:xlink="http://www.w3.org/1999/xlink" width="124" height="124" viewBox="0 0 124 124">
  <defs>
    <clipPath id="clip-path">
      <rect id="Rect치ngulo_306887" data-name="Rect치ngulo 306887" width="79" height="79" transform="translate(1061 4751.58)" fill="#583cb6" stroke="#707070" stroke-width="1"/>
    </clipPath>
  </defs>
  <g id="Grupo_955178" data-name="Grupo 955178" transform="translate(-1049 -4740)">
    <circle id="Elipse_7678" data-name="Elipse 7678" cx="50.5" cy="50.5" r="50.5" transform="translate(1061 4752)" fill="#faebcd"/>
    <rect id="Rect치ngulo_305813" data-name="Rect치ngulo 305813" width="124" height="124" transform="translate(1049 4740)" fill="none"/>
    <g id="Enmascarar_grupo_878404" data-name="Enmascarar grupo 878404" transform="translate(11 11)" clip-path="url(#clip-path)">
      <g id="carpeta" transform="translate(1062.383 4751.58)">
        <g id="Grupo_956654" data-name="Grupo 956654" transform="translate(1.157 1.157)">
          <path id="Trazado_629784" data-name="Trazado 629784" d="M73.2,41.621,71.654,80.612l-4.813,1.543H5.763A2.515,2.515,0,0,1,3.248,79.64V23.656a2.315,2.315,0,0,1,2.314-2.314h8.151l11.2-1.543c1.389,0,4.058,2.669,4.058,4.058v10.62a2.515,2.515,0,0,0,2.515,2.515H61.511Z" transform="translate(-3.248 -5.47)" fill="#ffe177"/>
          <path id="Trazado_629785" data-name="Trazado 629785" d="M34.16,29.857v8.354a2.515,2.515,0,0,0,2.515,2.515H70.359a2.515,2.515,0,0,1,2.515,2.515V78.833a5.515,5.515,0,0,0,3.969,5.294,5.729,5.729,0,0,0,1.544-.089,5,5,0,0,0,5.2-5.2V32.372a2.021,2.021,0,0,0-2.207-2.206l-2.829-.309Z" transform="translate(-9.981 -7.661)" fill="#a4ccff"/>
          <path id="Trazado_629786" data-name="Trazado 629786" d="M95.786,32.371V78.833a5.512,5.512,0,0,1-7.056,5.292,5.512,5.512,0,0,0,3.97-5.292V32.371a2.514,2.514,0,0,0-2.515-2.515h3.086A2.514,2.514,0,0,1,95.786,32.371Z" transform="translate(-21.868 -7.661)" fill="#8bb3ea"/>
          <path id="Trazado_629787" data-name="Trazado 629787" d="M27.271,90.36H11.678a1.543,1.543,0,0,1-1.543-1.543V83.738a1.543,1.543,0,0,1,1.543-1.543H27.271a1.543,1.543,0,0,1,1.543,1.543v5.079a1.543,1.543,0,0,1-1.543,1.543Z" transform="translate(-4.748 -19.061)" fill="#f9f7f8"/>
          <path id="Trazado_629788" data-name="Trazado 629788" d="M71.457,13.836,73,66.249c0,1.44.376,1.065-1.065,1.065h-1.27a.093.093,0,0,1-.093-.093L69.03,37.06a2.515,2.515,0,0,0-2.515-2.515H32.832a2.515,2.515,0,0,1-2.515-2.515V19.96a2.608,2.608,0,0,0-2.608-2.608h-11.1a.091.091,0,0,1-.091-.091V4.086a2.606,2.606,0,0,1,2.606-2.606H62.765a1.543,1.543,0,0,1,1.121.482l7.149,10.813a1.543,1.543,0,0,1,.422,1.061Z" transform="translate(-6.138 -1.479)" fill="#f9f7f8"/>
          <path id="Trazado_629789" data-name="Trazado 629789" d="M75.033,81.86a5.514,5.514,0,0,0,5.513,5.513h6.172a5.514,5.514,0,0,1-5.513-5.513v-3.8L82.748,54.6l-1.543-8.335a2.514,2.514,0,0,0-2.515-2.515H72.41a2.623,2.623,0,0,1,2.623,2.623Z" transform="translate(-18.313 -10.688)" fill="#ffd15b"/>
          <path id="Trazado_629790" data-name="Trazado 629790" d="M83.654,70.935l0-59.912,4.933,3.831c.125.132.378.282.449.445a1.537,1.537,0,0,1,.128.615V68.328a2.608,2.608,0,0,1-2.608,2.608Z" transform="translate(-20.762 -3.558)" fill="#efedef"/>
          <path id="Trazado_629791" data-name="Trazado 629791" d="M87.478,13.264H78.037a1.543,1.543,0,0,1-1.543-1.543V1.673A1.548,1.548,0,0,1,76.95,2L87.185,12.818A1.49,1.49,0,0,1,87.478,13.264Z" transform="translate(-19.202 -1.522)" fill="#ff6a7e"/>
        </g>
        <g id="Grupo_956655" data-name="Grupo 956655" transform="translate(0)">
          <path id="Trazado_629792" data-name="Trazado 629792" d="M63.3,35.38a1.359,1.359,0,0,1,1.358,1.358V72.33a6.639,6.639,0,0,0,1.625,4.356H5.441a1.359,1.359,0,0,1-1.358-1.358V32.917a1.157,1.157,0,0,0-2.314,0V75.328A3.677,3.677,0,0,0,5.441,79H71.332A6.678,6.678,0,0,0,78,72.33V59.844a1.157,1.157,0,1,0-2.314,0V72.33a4.356,4.356,0,1,1-8.712,0V69.691h1.747a3.769,3.769,0,0,0,3.765-3.765V24.511H74.33a1.359,1.359,0,0,1,1.358,1.358V54.8A1.157,1.157,0,1,0,78,54.8V25.868A3.677,3.677,0,0,0,74.33,22.2H72.488V13.514a2.689,2.689,0,0,0-.739-1.856L61.514.844A2.711,2.711,0,0,0,59.553,0H50.361a1.157,1.157,0,0,0,0,2.314h8.7v9.042a2.7,2.7,0,0,0,2.7,2.7h8.414v51.87a1.452,1.452,0,0,1-1.45,1.45H66.976V36.738A3.677,3.677,0,0,0,63.3,33.065H29.62a1.359,1.359,0,0,1-1.358-1.358V19.544a3.677,3.677,0,0,0-3.672-3.672H14.46V3.763a1.451,1.451,0,0,1,1.449-1.449H45.317a1.157,1.157,0,1,0,0-2.314H15.909a3.768,3.768,0,0,0-3.763,3.763V15.872H5.24a3.476,3.476,0,0,0-3.472,3.472v8.53a1.157,1.157,0,0,0,2.314,0v-8.53A1.158,1.158,0,0,1,5.24,18.187H24.59a1.359,1.359,0,0,1,1.358,1.358V31.708A3.677,3.677,0,0,0,29.62,35.38H63.3ZM61.374,11.356V4.063l7.268,7.679H61.76A.386.386,0,0,1,61.374,11.356Z" transform="translate(-1.769 0)"/>
          <path id="Trazado_629793" data-name="Trazado 629793" d="M71.248,31.593a1.158,1.158,0,0,0,1.637,0l1.154-1.154,1.154,1.154a1.157,1.157,0,1,0,1.637-1.637L75.675,28.8l1.154-1.154a1.157,1.157,0,0,0-1.637-1.637l-1.154,1.154-1.154-1.154a1.157,1.157,0,0,0-1.637,1.637L72.4,28.8l-1.154,1.154a1.157,1.157,0,0,0,0,1.637Z" transform="translate(-16.829 -5.592)"/>
          <path id="Trazado_629794" data-name="Trazado 629794" d="M57.91,14.079H39.817a1.157,1.157,0,0,0,0,2.314H57.91a1.157,1.157,0,0,0,0-2.314Z" transform="translate(-9.804 -3.067)"/>
          <path id="Trazado_629795" data-name="Trazado 629795" d="M57.91,28.194H39.817a1.157,1.157,0,0,0,0,2.314H57.91a1.157,1.157,0,0,0,0-2.314Z" transform="translate(-9.804 -6.141)"/>
          <path id="Trazado_629796" data-name="Trazado 629796" d="M26.949,91.2a2.7,2.7,0,0,0,2.7-2.7V83.415a2.7,2.7,0,0,0-2.7-2.7H11.355a2.7,2.7,0,0,0-2.7,2.7v5.079a2.7,2.7,0,0,0,2.7,2.7Zm-15.979-2.7V83.415a.386.386,0,0,1,.386-.386H26.949a.386.386,0,0,1,.386.386v5.079a.386.386,0,0,1-.386.386H11.355a.386.386,0,0,1-.386-.386Z" transform="translate(-3.269 -17.582)"/>
          <path id="Trazado_629797" data-name="Trazado 629797" d="M16.337,88.249H24.81a1.157,1.157,0,0,0,0-2.314H16.337a1.157,1.157,0,1,0,0,2.314Z" transform="translate(-4.69 -18.718)"/>
        </g>
      </g>
    </g>
  </g>
</svg>
