<svg xmlns="http://www.w3.org/2000/svg" xmlns:xlink="http://www.w3.org/1999/xlink" width="124" height="124" viewBox="0 0 124 124">
  <defs>
    <clipPath id="clip-path">
      <rect id="Rect치ngulo_306887" data-name="Rect치ngulo 306887" width="75" height="75" transform="translate(1074 4764.58)" fill="#583cb6" stroke="#707070" stroke-width="1"/>
    </clipPath>
  </defs>
  <g id="Grupo_956658" data-name="Grupo 956658" transform="translate(-1049 -4740)">
    <circle id="Elipse_7678" data-name="Elipse 7678" cx="50.5" cy="50.5" r="50.5" transform="translate(1061 4752)" fill="#faebcd"/>
    <rect id="Rect치ngulo_305813" data-name="Rect치ngulo 305813" width="124" height="124" transform="translate(1049 4740)" fill="none"/>
    <g id="Enmascarar_grupo_878408" data-name="Enmascarar grupo 878408" clip-path="url(#clip-path)">
      <g id="dia-laboral" transform="translate(1074 4764.58)">
        <g id="Grupo_956702" data-name="Grupo 956702">
          <path id="Trazado_629879" data-name="Trazado 629879" d="M39.076,29.5A3.485,3.485,0,0,0,37.295,25l-9.864-4.481a4.411,4.411,0,0,0-5.457,1.525L17.086,29.3a6.12,6.12,0,0,0,.181,7.113l10.4,13.878a6.209,6.209,0,0,1,1.247,3.726V66.954H49.662V53.316a6.186,6.186,0,0,1,.572-2.6l3.594-7.775a7.021,7.021,0,0,0,.623-3.571l-.6-6.766-4.344-4-7.963,5.717s-3.2-3.031-2.465-4.819Z" fill="#f1ccbd"/>
          <path id="Trazado_629880" data-name="Trazado 629880" d="M39.076,29.5A3.485,3.485,0,0,0,37.295,25l-9.864-4.481a4.411,4.411,0,0,0-5.457,1.525L17.086,29.3a6.12,6.12,0,0,0,.181,7.113l10.4,13.878a6.209,6.209,0,0,1,1.247,3.726V66.954H49.662V53.316a6.186,6.186,0,0,1,.572-2.6l3.594-7.775a7.021,7.021,0,0,0,.623-3.571l-.6-6.766-4.344-4-7.963,5.717s-3.2-3.031-2.465-4.819Z" fill="#f1ccbd"/>
          <path id="Trazado_629881" data-name="Trazado 629881" d="M42.327,33.759l-.786.565s-2.273-2.152-2.548-3.9l-8.52-8.52-3.042-1.382a4.411,4.411,0,0,0-5.457,1.525l-2.71,4.023a10.041,10.041,0,0,0,3.5-.053.981.981,0,0,1,.881.269L49.735,52.376a6.2,6.2,0,0,1,.5-1.656L53.1,44.528Z" fill="#eaad9c"/>
          <path id="Trazado_629882" data-name="Trazado 629882" d="M47.948,46.194a.981.981,0,0,1,.269.881A10.228,10.228,0,0,0,59.623,59.088a.542.542,0,0,0,.293-.926L53.7,51.95a1.716,1.716,0,0,1-.026-2.427l3.2-3.2a1.716,1.716,0,0,1,2.427.026l6.212,6.212a.542.542,0,0,0,.926-.293A10.228,10.228,0,0,0,54.433,40.858a.981.981,0,0,1-.881-.269l-26.5-26.5a.981.981,0,0,1-.269-.881A10.228,10.228,0,0,0,15.377,1.2a.542.542,0,0,0-.293.926L21.3,8.334a1.716,1.716,0,0,1,.026,2.427l-3.2,3.2a1.716,1.716,0,0,1-2.427-.026L9.479,7.726a.542.542,0,0,0-.926.293A10.228,10.228,0,0,0,20.567,19.426a.981.981,0,0,1,.881.269Z" fill="#ebf4ff"/>
          <g id="Grupo_956701" data-name="Grupo 956701">
            <path id="Trazado_629883" data-name="Trazado 629883" d="M63.539,43.679a10.15,10.15,0,0,0-9.106-2.821.981.981,0,0,1-.881-.269l-26.5-26.5a.981.981,0,0,1-.269-.881A10.228,10.228,0,0,0,15.377,1.2a.542.542,0,0,0-.293.926L16.44,3.477a10.239,10.239,0,0,1,8.147,11.929.981.981,0,0,0,.269.881l26.5,26.5a.981.981,0,0,0,.881.269A10.239,10.239,0,0,1,64.165,51.2l1.356,1.356a.542.542,0,0,0,.926-.293,10.16,10.16,0,0,0-2.908-8.586Z" fill="#dae9fd"/>
          </g>
          <path id="Trazado_629884" data-name="Trazado 629884" d="M28.992,23.861a3.408,3.408,0,0,1-.426-4.876l3.421-3.97a3.6,3.6,0,0,1,4.987-.417,3.408,3.408,0,0,1,.426,4.876l-3.421,3.97a3.6,3.6,0,0,1-4.987.417Z" fill="#f1ccbd"/>
          <path id="Trazado_629885" data-name="Trazado 629885" d="M36.973,14.6a3.6,3.6,0,0,0-4.481-.064c.028.022.058.041.086.064A3.408,3.408,0,0,1,33,19.475l-3.421,3.97a3.523,3.523,0,0,1-.506.481,3.592,3.592,0,0,0,4.9-.481l3.421-3.97a3.408,3.408,0,0,0-.426-4.876Z" fill="#eaad9c"/>
          <path id="Trazado_629886" data-name="Trazado 629886" d="M34.4,28.32a3.408,3.408,0,0,1-.426-4.876l3.421-3.97a3.6,3.6,0,0,1,4.987-.417,3.408,3.408,0,0,1,.426,4.876L39.391,27.9A3.6,3.6,0,0,1,34.4,28.32Z" fill="#f1ccbd"/>
          <path id="Trazado_629887" data-name="Trazado 629887" d="M42.386,19.058a3.6,3.6,0,0,0-4.481-.064c.028.022.058.041.086.064a3.408,3.408,0,0,1,.426,4.876L35,27.9a3.514,3.514,0,0,1-.506.481,3.592,3.592,0,0,0,4.9-.481l3.421-3.97a3.407,3.407,0,0,0-.426-4.876Z" fill="#eaad9c"/>
          <path id="Trazado_629888" data-name="Trazado 629888" d="M39.817,32.78a3.408,3.408,0,0,1-.426-4.876l3.421-3.97a3.6,3.6,0,0,1,4.987-.417,3.408,3.408,0,0,1,.426,4.876L44.8,32.363A3.6,3.6,0,0,1,39.817,32.78Z" fill="#f1ccbd"/>
          <path id="Trazado_629889" data-name="Trazado 629889" d="M47.8,23.517a3.6,3.6,0,0,0-4.481-.064c.028.022.058.041.086.064a3.408,3.408,0,0,1,.426,4.876l-3.421,3.97a3.506,3.506,0,0,1-.506.481,3.592,3.592,0,0,0,4.9-.481l3.421-3.97A3.408,3.408,0,0,0,47.8,23.517Z" fill="#eaad9c"/>
          <path id="Trazado_629890" data-name="Trazado 629890" d="M26.32,32.457l1.232-1.543a3.137,3.137,0,0,1,3.455-1l3.495,1.47A3.485,3.485,0,0,0,37.295,25l-9.864-4.481a4.411,4.411,0,0,0-5.457,1.525L17.086,29.3a6.12,6.12,0,0,0,.181,7.113l10.4,13.878a6.209,6.209,0,0,1,1.247,3.726V66.954H49.662V54.48c-.44-.695-23.342-22.023-23.342-22.023Z" fill="#f1ccbd"/>
          <path id="Trazado_629891" data-name="Trazado 629891" d="M26.32,32.457l1.232-1.543a3.137,3.137,0,0,1,3.455-1l3.495,1.47A3.485,3.485,0,0,0,37.295,25l-9.864-4.481a4.411,4.411,0,0,0-5.457,1.525L17.086,29.3Z" fill="#f1ccbd"/>
          <path id="Trazado_629892" data-name="Trazado 629892" d="M27.883,30.561a3.147,3.147,0,0,1,3.124-.643l3.418,1.438a3.539,3.539,0,0,0,4.618-1.776,3.484,3.484,0,0,0-.485-3.6A3.486,3.486,0,0,1,34.5,26.994l-3.495-1.47a3.137,3.137,0,0,0-3.455,1l-.243.3-.015.019a2.528,2.528,0,0,0,.2,3.323Z" fill="#eaad9c"/>
          <path id="Trazado_629893" data-name="Trazado 629893" d="M26.377,73.535V65.822a4.394,4.394,0,0,1,4.394-4.394H47.648a4.394,4.394,0,0,1,4.394,4.394v7.714A1.465,1.465,0,0,1,50.577,75H27.842a1.465,1.465,0,0,1-1.465-1.465Z" fill="#db8894"/>
          <path id="Trazado_629894" data-name="Trazado 629894" d="M47.648,61.427H43.253a4.394,4.394,0,0,1,4.394,4.394v7.714A1.465,1.465,0,0,1,46.183,75h4.394a1.465,1.465,0,0,0,1.465-1.465V65.822a4.394,4.394,0,0,0-4.394-4.394Z" fill="#d4717f"/>
          <path id="Trazado_629895" data-name="Trazado 629895" d="M45.23,37.239a3.408,3.408,0,0,1-.426-4.876l3.421-3.97a3.6,3.6,0,0,1,4.987-.417,3.408,3.408,0,0,1,.426,4.876l-3.421,3.97A3.6,3.6,0,0,1,45.23,37.239Z" fill="#f1ccbd"/>
          <path id="Trazado_629896" data-name="Trazado 629896" d="M53.211,27.977a3.6,3.6,0,0,0-4.481-.064c.028.022.058.041.086.064a3.408,3.408,0,0,1,.426,4.876l-3.421,3.97a3.514,3.514,0,0,1-.506.481,3.592,3.592,0,0,0,4.9-.481l3.421-3.97A3.408,3.408,0,0,0,53.211,27.977Z" fill="#eaad9c"/>
        </g>
        <path id="Trazado_629897" data-name="Trazado 629897" d="M45.483,65.918a1.1,1.1,0,1,0,1.1,1.1A1.1,1.1,0,0,0,45.483,65.918ZM64.316,42.9a11.261,11.261,0,0,0-8.75-3.3c-.012-.292-.56-6.43-.591-6.746a4.555,4.555,0,0,0-1.064-5.729,4.688,4.688,0,0,0-3.754-1A4.517,4.517,0,0,0,48.5,22.669a4.689,4.689,0,0,0-3.755-1,4.518,4.518,0,0,0-1.659-3.463,4.686,4.686,0,0,0-3.754-1,4.519,4.519,0,0,0-1.659-3.464,4.7,4.7,0,0,0-6.517.548l-1.083,1.256-2.2-2.2a11.243,11.243,0,0,0-1.05-7.178,1.1,1.1,0,0,0-1.955,1A9.033,9.033,0,0,1,25.7,13a2.078,2.078,0,0,0,.571,1.866l2.357,2.357S27.266,18.89,27.1,19.235a5.5,5.5,0,0,0-4.1.448l-.767-.767a2.079,2.079,0,0,0-1.867-.57,9.142,9.142,0,0,1-10.8-8.992l5.361,5.361a2.82,2.82,0,0,0,3.98.024l3.2-3.2a2.842,2.842,0,0,0-.025-3.982L16.714,2.2h.051a9.026,9.026,0,0,1,5.1,1.584,1.1,1.1,0,0,0,1.24-1.814A11.2,11.2,0,0,0,15.225.107,1.62,1.62,0,0,0,13.9,1.2a1.642,1.642,0,0,0,.4,1.693L20.519,9.11a.6.6,0,0,1,.026.874l-3.2,3.2a.62.62,0,0,1-.873-.025L10.256,6.95a1.646,1.646,0,0,0-1.7-.4,1.62,1.62,0,0,0-1.1,1.32A11.328,11.328,0,0,0,20.716,20.516l.589.589c-.23.287-4.908,7.257-5.13,7.585a7.243,7.243,0,0,0,.213,8.386l3.831,5.112a1.1,1.1,0,0,0,1.758-1.318l-3.831-5.112a5.044,5.044,0,0,1-.15-5.84l4.888-7.256a3.33,3.33,0,0,1,4.091-1.14L36.84,26a2.378,2.378,0,0,1,1.22,3.081,2.407,2.407,0,0,1-3.131,1.291c-.071-.03-3.5-1.476-3.568-1.5a4.237,4.237,0,0,0-4.667,1.351l-1.232,1.542a1.1,1.1,0,1,0,1.717,1.371L28.411,31.6c.808-1.016,2.068-.85,3.118-.27l15.6,15.6A11.189,11.189,0,0,0,48.564,54.8v5.61a5.506,5.506,0,0,0-.916-.078H30.772a5.519,5.519,0,0,0-.759.054V54.021a7.263,7.263,0,0,0-1.466-4.385l-3.525-4.7a1.1,1.1,0,0,0-1.758,1.318l3.525,4.7a5.081,5.081,0,0,1,1.027,3.068V61.2a5.492,5.492,0,0,0-2.537,4.626V73.9a1.1,1.1,0,1,0,2.2,0v-8.08a3.3,3.3,0,0,1,3.3-3.3H47.648a3.3,3.3,0,0,1,3.3,3.3V73.9a1.1,1.1,0,1,0,2.2,0v-8.08a5.49,5.49,0,0,0-2.38-4.522V57.427a11.373,11.373,0,0,0,7.5,2.855,10.98,10.98,0,0,0,1.513-.1,1.622,1.622,0,0,0,1.317-1.1,1.646,1.646,0,0,0-.4-1.694L54.48,51.172a.6.6,0,0,1-.025-.871l3.2-3.2a.621.621,0,0,1,.875.025l6.213,6.212a1.645,1.645,0,0,0,1.7.4,1.62,1.62,0,0,0,1.1-1.32A11.326,11.326,0,0,0,64.316,42.9ZM49.057,29.111a2.494,2.494,0,0,1,3.456-.286,2.332,2.332,0,0,1,.292,3.311l-3.421,3.97a2.494,2.494,0,0,1-3.456.286,2.329,2.329,0,0,1-.292-3.311ZM53.3,38.78,51.515,37l1.47-1.706ZM43.644,24.652a2.5,2.5,0,0,1,3.457-.287,2.332,2.332,0,0,1,.291,3.311l-3.42,3.97a2.492,2.492,0,0,1-3.455.286,2.33,2.33,0,0,1-.8-1.293,4.7,4.7,0,0,0,.719-2.267ZM29.128,20.087c.076-.135,3.69-4.354,3.69-4.354a2.494,2.494,0,0,1,3.456-.287,2.332,2.332,0,0,1,.292,3.311l-2.916,3.384ZM37.749,24l-2.014-.915,2.5-2.9a2.493,2.493,0,0,1,3.456-.285,2.331,2.331,0,0,1,.293,3.311l-2.211,2.565A4.579,4.579,0,0,0,37.749,24ZM60.084,45.567a2.822,2.822,0,0,0-3.98-.025l-3.2,3.2a2.827,2.827,0,0,0,.025,3.98l5.358,5.358H58.26a9.164,9.164,0,0,1-6.447-2.68A9.05,9.05,0,0,1,49.3,47.283a2.073,2.073,0,0,0-.571-1.866L36.061,32.754a4.574,4.574,0,0,0,1.921-.517,4.574,4.574,0,0,0,1.137,1.39,4.653,4.653,0,0,0,3.756,1,4.512,4.512,0,0,0,1.658,3.463A4.709,4.709,0,0,0,49.9,38.5l2.873,2.873a2.1,2.1,0,0,0,1.86.568,9.137,9.137,0,0,1,10.8,8.988Z"/>
      </g>
    </g>
  </g>
</svg>
