<svg xmlns="http://www.w3.org/2000/svg" xmlns:xlink="http://www.w3.org/1999/xlink" width="124" height="124" viewBox="0 0 124 124">
  <defs>
    <clipPath id="clip-path">
      <rect id="Rect치ngulo_306887" data-name="Rect치ngulo 306887" width="75" height="75" transform="translate(1074 4764.58)" fill="#583cb6" stroke="#707070" stroke-width="1"/>
    </clipPath>
  </defs>
  <g id="Grupo_956659" data-name="Grupo 956659" transform="translate(-1049 -4740)">
    <circle id="Elipse_7678" data-name="Elipse 7678" cx="50.5" cy="50.5" r="50.5" transform="translate(1061 4752)" fill="#faebcd"/>
    <rect id="Rect치ngulo_305813" data-name="Rect치ngulo 305813" width="124" height="124" transform="translate(1049 4740)" fill="none"/>
    <g id="Enmascarar_grupo_878409" data-name="Enmascarar grupo 878409" clip-path="url(#clip-path)">
      <g id="liderazgo" transform="translate(1073.846 4764.58)">
        <path id="Trazado_629898" data-name="Trazado 629898" d="M73.038,34.015,63.281,19.922l-3.516,4.687L66.8,35.156l-8.2,11.719H39.844L35.005,31.15l-3.432,3.735,3.206,15.965a2.344,2.344,0,0,0,2.3,1.884H48.047L44.531,70.312H60.937V69.141l3.516-15.234L73.207,36.4A2.344,2.344,0,0,0,73.038,34.015Z" fill="#23a3db"/>
        <path id="Trazado_629899" data-name="Trazado 629899" d="M44.531,70.312H60.937V75H44.531Z" fill="#1990ba"/>
        <path id="Trazado_629900" data-name="Trazado 629900" d="M57.821,46.875V33.984a2.344,2.344,0,0,0-2.344-2.344h-8.2v7.91a3.809,3.809,0,0,0,3.809,3.809h2.051v3.516Z" fill="#fdcaa7"/>
        <path id="Trazado_629901" data-name="Trazado 629901" d="M57.821,38.8V33.984a2.344,2.344,0,0,0-2.344-2.344h-8.2v3.516h5.859Z" fill="#894619"/>
        <path id="Trazado_629902" data-name="Trazado 629902" d="M50.277,31.641h-3v7.91a3.809,3.809,0,0,0,3.809,3.809h2.051L51.4,41.891a3.167,3.167,0,0,1-1.121-2.418Z" fill="#fafbfc" opacity="0.3"/>
        <path id="Trazado_629903" data-name="Trazado 629903" d="M1.172,55.53,36.328,17.578h18.75l8.2-11.719L58.594,2.344,70.312,1.172l3.516,10.547L70.312,9.375,59.766,24.609H41.016L1.172,67.969Z" fill="#f7d74f"/>
        <path id="Trazado_629904" data-name="Trazado 629904" d="M2.344,42.187l21.68-22.852,2.93,2.93V12.891H17.578l3.516,3.516L2.279,35.221Z" fill="#f7d74f"/>
        <path id="Trazado_629905" data-name="Trazado 629905" d="M70.312,1.172,58.594,2.344l4.687,3.516-8.2,11.719H36.328L1.172,55.53v6.579L38.395,21.094H57.821Z" fill="#fff" opacity="0.3"/>
        <path id="Trazado_629906" data-name="Trazado 629906" d="M71.424.8A1.172,1.172,0,0,0,70.2.006L58.477,1.178a1.172,1.172,0,0,0-.586,2.1l3.78,2.835-7.2,10.29H36.328a1.172,1.172,0,0,0-.86.375L.312,54.733l1.719,1.593L36.84,18.75H55.078a1.172,1.172,0,0,0,.96-.5l8.2-11.719a1.172,1.172,0,0,0-.257-1.61L61.7,3.211,69.5,2.432,71.636,8.85,70.962,8.4a1.172,1.172,0,0,0-1.614.308L62.177,19.067l-3.025,4.371H41.016a1.172,1.172,0,0,0-.863.379l-8.6,9.357-.776.845L.309,67.176l1.726,1.586,28.9-31.451,2.7,13.77a3.525,3.525,0,0,0,3.446,2.826h9.54L43.382,70.083a1.176,1.176,0,0,0-.023.23V75H45.7V71.484H59.766V75h2.344V69.274l3.454-14.968,8.692-17.384A3.516,3.516,0,0,0,74,33.347L64.566,19.733l6.054-8.745,2.557,1.705a1.172,1.172,0,0,0,1.762-1.346ZM41.53,25.781H59.138l6.239,9.359-6.229,8.9V33.984a3.52,3.52,0,0,0-3.516-3.516h-8.2a1.172,1.172,0,0,0-1.172,1.172v7.91a4.986,4.986,0,0,0,4.98,4.98h.879V45.7H40.709L36.323,31.448ZM54.461,45.7V43.359a1.172,1.172,0,0,0-1.172-1.172H51.238A2.64,2.64,0,0,1,48.6,39.551V36.328h4.3l3.906,2.93V45.7ZM56.8,36.328l-2.812-2.109a1.172,1.172,0,0,0-.7-.234H48.6V32.812h7.031A1.173,1.173,0,0,1,56.8,33.984Zm15.355-.454L63.4,53.382a1.174,1.174,0,0,0-.094.261L59.8,68.877a1.171,1.171,0,0,0-.03.264h-13.8L49.2,52.964a1.172,1.172,0,0,0-1.149-1.4H37.078a1.174,1.174,0,0,1-1.148-.937L32.9,35.168l.068-.074,1.513-1.647L38.724,47.22a1.172,1.172,0,0,0,1.12.827h13.87L52.13,58.417a1.17,1.17,0,0,0-.013.177v5.859h2.344v-5.77l1.624-10.636h2.509a1.172,1.172,0,0,0,.96-.5l8.2-11.719a1.172,1.172,0,0,0,.015-1.322l-6.59-9.884,1.959-2.83,8.933,12.891a1.172,1.172,0,0,1,.085,1.191Z"/>
        <path id="Trazado_629907" data-name="Trazado 629907" d="M24.852,18.507a1.172,1.172,0,0,0-1.679.022L1.494,41.381l1.7,1.613L24.046,21.015l2.079,2.079a1.172,1.172,0,0,0,2-.829V12.891a1.172,1.172,0,0,0-1.172-1.172H17.578a1.172,1.172,0,0,0-.829,2l2.687,2.687L2.687,33.156l1.657,1.657L21.922,17.235a1.172,1.172,0,0,0,0-1.657l-1.515-1.515h5.374v5.374Z"/>
      </g>
    </g>
  </g>
</svg>
