<svg xmlns="http://www.w3.org/2000/svg" xmlns:xlink="http://www.w3.org/1999/xlink" width="190" height="146" viewBox="0 0 190 146">
  <defs>
    <clipPath id="clip-path">
      <rect id="Rect치ngulo_306763" data-name="Rect치ngulo 306763" width="114" height="102" transform="translate(218 9413)" fill="#583cb6"/>
    </clipPath>
  </defs>
  <g id="Grupo_955205" data-name="Grupo 955205" transform="translate(-180 -9391)">
    <rect id="Rect치ngulo_306762" data-name="Rect치ngulo 306762" width="190" height="146" transform="translate(180 9391)" fill="#fff"/>
    <g id="Enmascarar_grupo_878410" data-name="Enmascarar grupo 878410" clip-path="url(#clip-path)">
      <g id="grafico" transform="translate(223.978 9412.978)">
        <path id="Trazado_629908" data-name="Trazado 629908" d="M100.344,100.291H68.038V56.083h22.1l10.2,10.2v34.006Z" fill="#e6e6e6"/>
        <path id="Trazado_629909" data-name="Trazado 629909" d="M90.142,56.083v10.2h10.2Z" fill="#f2f2f2"/>
        <path id="Trazado_629910" data-name="Trazado 629910" d="M13.43,58.686A22.1,22.1,0,1,0,43.585,88.064L23.831,78.187Z" fill="#06aae9"/>
        <path id="Trazado_629911" data-name="Trazado 629911" d="M44.933,71.593a22.1,22.1,0,0,0-31.5-12.907l10.4,19.5Z" fill="#fbb03b"/>
        <path id="Trazado_629912" data-name="Trazado 629912" d="M44.933,71.593l-21.1,6.594,19.754,9.877a22.03,22.03,0,0,0,1.348-16.471Z" fill="red"/>
        <path id="Trazado_629913" data-name="Trazado 629913" d="M68.038,28.878H34.032l-8.5,13.6H76.54Z" fill="#06aae9"/>
        <path id="Trazado_629914" data-name="Trazado 629914" d="M59.537,15.276h-17l-8.5,13.6H68.038Z" fill="#fbb03b"/>
        <path id="Trazado_629915" data-name="Trazado 629915" d="M51.035,1.674l-8.5,13.6h17Z" fill="#ed1c24"/>
        <path id="Trazado_629916" data-name="Trazado 629916" d="M102.024,66.181a1.7,1.7,0,0,0-.088-.442c-.019-.054-.032-.105-.056-.158a1.7,1.7,0,0,0-.34-.5l-6.9-6.9A44.19,44.19,0,0,0,58.253,7.376q-.906-.15-1.818-.262L52.477.772A1.768,1.768,0,0,0,50.015.344a1.74,1.74,0,0,0-.429.429L45.639,7.1A44.159,44.159,0,0,0,7.163,56.291q.26,2.137.729,4.244a23.79,23.79,0,0,0,31.8,35.4,24.163,24.163,0,0,0,1.8-1.794,44.436,44.436,0,0,0,9.551,1.054,43.928,43.928,0,0,0,15.3-2.72v7.821a1.7,1.7,0,0,0,1.7,1.7h32.306a1.7,1.7,0,0,0,1.7-1.7V66.285c0-.036-.019-.068-.021-.1ZM91.843,60.188l4.4,4.4h-4.4ZM64.978,27.178H37.1l6.374-10.2H58.595Zm-29.993,3.4H67.1l6.376,10.2H28.6ZM54.315,10.131l-.014.17.134.017,2.04,3.258H45.612l5.424-8.694ZM23.831,98.591A20.4,20.4,0,0,1,12.763,61.051L22.329,78.99l.014.019c.026.046.063.083.093.128a1.72,1.72,0,0,0,.192.25l.022.026a1.451,1.451,0,0,0,.117.087,1.706,1.706,0,0,0,.255.17c.017.01.029.024.048.034L41.24,88.787a20.278,20.278,0,0,1-17.41,9.8ZM43.748,73.744a20.546,20.546,0,0,1,.486,4.443,20.107,20.107,0,0,1-1.469,7.566l-14.4-7.2,2.307-.723Zm-10.069-.417-9.012,2.816-8.9-16.7A20.4,20.4,0,0,1,42.575,70.114c.056.128.109.257.161.386ZM51.035,91.79a41.018,41.018,0,0,1-7.269-.65A24.063,24.063,0,0,0,45.1,88.834v-.009A23.789,23.789,0,0,0,12.627,57.187c-.605.323-1.19.68-1.753,1.047A40.809,40.809,0,0,1,43.233,10.952l-2.141,3.423-17,27.2a1.7,1.7,0,0,0,1.442,2.6H76.54a1.7,1.7,0,0,0,1.442-2.6l-17-27.2-2.152-3.443a40.807,40.807,0,0,1,32.8,44.233l-.284-.284a1.684,1.684,0,0,0-.5-.34c-.054-.024-.107-.037-.161-.056a1.6,1.6,0,0,0-.435-.087c-.037,0-.071-.022-.109-.022h-22.1a1.7,1.7,0,0,0-1.7,1.7V88.809a40.513,40.513,0,0,1-15.3,2.981Zm18.7,6.8V57.783h18.7v8.5a1.7,1.7,0,0,0,1.7,1.7h8.5V98.591Z"/>
        <path id="Trazado_629917" data-name="Trazado 629917" d="M73.139,61.184h11.9v3.4h-11.9Z"/>
        <path id="Trazado_629918" data-name="Trazado 629918" d="M3.427,1.674h13.6v3.4H3.427Z"/>
        <path id="Trazado_629919" data-name="Trazado 629919" d="M3.427,8.475h13.6v3.4H3.427Z"/>
        <path id="Trazado_629920" data-name="Trazado 629920" d="M3.427,15.276h6.8v3.4h-6.8Z"/>
        <path id="Trazado_629921" data-name="Trazado 629921" d="M11.929,88.389h8.5v3.4h-8.5Z"/>
        <path id="Trazado_629922" data-name="Trazado 629922" d="M11.929,83.288h5.1v3.4h-5.1Z"/>
        <path id="Trazado_629923" data-name="Trazado 629923" d="M74.84,79.887h3.4v15.3h-3.4Z"/>
        <path id="Trazado_629924" data-name="Trazado 629924" d="M79.941,74.786h3.4v20.4h-3.4Z"/>
        <path id="Trazado_629925" data-name="Trazado 629925" d="M85.041,76.487h3.4v18.7h-3.4Z"/>
        <path id="Trazado_629926" data-name="Trazado 629926" d="M90.142,71.386h3.4v23.8h-3.4Z"/>
      </g>
    </g>
  </g>
</svg>
