<svg xmlns="http://www.w3.org/2000/svg" width="385.711" height="388.878" viewBox="0 0 385.711 388.878">
  <g id="Grupo_959743" data-name="Grupo 959743" transform="translate(-46.729 -40.684)">
    <g id="Background_Complete" data-name="Background Complete" transform="translate(46.729 40.683)">
      <g id="Grupo_959506" data-name="Grupo 959506" transform="translate(15.932)">
        <path id="Trazado_630746" data-name="Trazado 630746" d="M98.748,89.179l-8.97-2.8S87.428,93.912,79.56,91.6a7.6,7.6,0,0,1-5.584-6.826,8.42,8.42,0,0,1,2.905-7.065c2.3-2.034,6.349-3.274,12.062-.323l6.31-20.225L86.383,54.4l-3.7,11.847s-13.442-.665-17.72,13.044c-4.092,13.117,6.721,19.832,11.756,21.4C80.573,101.895,93.98,105.057,98.748,89.179Z" transform="translate(-64.062 -41.793)" fill="#f5f5f5"/>
        <rect id="Rectángulo_307094" data-name="Rectángulo 307094" width="9.429" height="8.807" transform="matrix(-0.955, -0.298, 0.298, -0.955, 32.516, 11.215)" fill="#f5f5f5"/>
      </g>
      <g id="Grupo_959507" data-name="Grupo 959507" transform="translate(75.021 15.839)">
        <path id="Trazado_630747" data-name="Trazado 630747" d="M128.7,66.628l3.592-.947a3.157,3.157,0,0,1,2.325-3.9,3.005,3.005,0,0,1,3.3,1.113,3.328,3.328,0,0,1,.511,2.976c-.344,1.165-1.438,2.43-3.972,2.643l2.136,8.1,3.552-.938L138.9,70.935a7.175,7.175,0,0,0,3.194-8.092c-1.386-5.252-6.418-5.23-8.434-4.7C132.117,58.552,126.964,60.31,128.7,66.628Z" transform="translate(-128.349 -57.916)" fill="#ebebeb"/>
        <rect id="Rectángulo_307095" data-name="Rectángulo 307095" width="3.728" height="3.482" transform="matrix(0.967, -0.255, 0.255, 0.967, 8.681, 20.371)" fill="#ebebeb"/>
      </g>
      <g id="Grupo_959508" data-name="Grupo 959508" transform="translate(371.107 112.868)">
        <path id="Trazado_630748" data-name="Trazado 630748" d="M451.543,168.192l3.493,1.265a3.157,3.157,0,0,1,4.13-1.881,3,3,0,0,1,2.083,2.8,3.329,3.329,0,0,1-1.273,2.739c-.947.762-2.566,1.179-4.769-.088l-2.853,7.875,3.453,1.251,1.671-4.612a7.175,7.175,0,0,0,7.232-4.836c1.85-5.108-2.3-7.953-4.261-8.664C458.949,163.494,453.709,162.006,451.543,168.192Z" transform="translate(-450.569 -163.481)" fill="#ebebeb"/>
        <rect id="Rectángulo_307096" data-name="Rectángulo 307096" width="3.728" height="3.482" transform="translate(1.186 19.035) rotate(19.914)" fill="#ebebeb"/>
      </g>
      <g id="Grupo_959509" data-name="Grupo 959509" transform="translate(0 137.4)">
        <path id="Trazado_630749" data-name="Trazado 630749" d="M48.132,210.353l7.393-2.848s-2.392-6.206,4.016-8.8A6.41,6.41,0,0,1,66.8,200.29a7.1,7.1,0,0,1,1.78,6.189c-.458,2.551-2.482,5.487-7.8,6.529l6.42,16.668,7.31-2.816L70.751,217.1s9.231-6.6,4.879-17.9c-4.165-10.809-14.825-9.585-18.975-7.986C53.482,192.436,42.969,197.367,48.132,210.353Z" transform="translate(-46.729 -190.171)" fill="#f5f5f5"/>
        <rect id="Rectángulo_307097" data-name="Rectángulo 307097" width="7.949" height="7.424" transform="matrix(0.933, -0.359, 0.359, 0.933, 21.777, 42.946)" fill="#f5f5f5"/>
      </g>
      <g id="Grupo_959510" data-name="Grupo 959510" transform="translate(353.37 164.585)">
        <path id="Trazado_630750" data-name="Trazado 630750" d="M452.883,241.434l-5.238,2.018a4.771,4.771,0,0,1-2.847,6.238,4.542,4.542,0,0,1-5.146-1.124,5.032,5.032,0,0,1-1.262-4.386c.324-1.807,1.758-3.889,5.529-4.627l-4.551-11.811-5.179,2,2.665,6.918a10.839,10.839,0,0,0-3.457,12.682c2.95,7.66,10.506,6.792,13.446,5.66C449.092,254.131,456.542,250.637,452.883,241.434Z" transform="translate(-431.297 -220.393)" fill="#f5f5f5"/>
        <rect id="Rectángulo_307098" data-name="Rectángulo 307098" width="5.633" height="5.261" transform="translate(7.148 4.91) rotate(158.931)" fill="#f5f5f5"/>
      </g>
    </g>
    <g id="Speech_Bubble" data-name="Speech Bubble" transform="translate(357.42 52.998)">
      <g id="Grupo_959518" data-name="Grupo 959518">
        <g id="Grupo_959511" data-name="Grupo 959511" transform="translate(20.049 15.263)">
          <path id="Trazado_630751" data-name="Trazado 630751" d="M420.268,87.762h-3.659a3.11,3.11,0,0,1-3.192,3.128A2.962,2.962,0,0,1,410.549,89a3.28,3.28,0,0,1,.261-2.963c.62-1.024,1.981-1.953,4.446-1.519v-8.25h-3.618V81.1a7.065,7.065,0,0,0-5.074,6.9c0,5.35,4.8,6.593,6.851,6.593C414.987,94.6,420.337,94.217,420.268,87.762Z" transform="translate(-406.565 -71.139)" fill="#583cb6"/>
          <rect id="Rectángulo_307099" data-name="Rectángulo 307099" width="3.672" height="3.429" transform="translate(8.702 3.429) rotate(180)" fill="#583cb6"/>
        </g>
        <g id="Grupo_959517" data-name="Grupo 959517">
          <g id="Grupo_959516" data-name="Grupo 959516">
            <g id="Grupo_959515" data-name="Grupo 959515">
              <g id="Grupo_959514" data-name="Grupo 959514">
                <g id="Grupo_959513" data-name="Grupo 959513">
                  <g id="Grupo_959512" data-name="Grupo 959512">
                    <path id="Trazado_630752" data-name="Trazado 630752" d="M438.544,81.072a2.629,2.629,0,0,0,.007-.462c-.009-.336-.022-.787-.039-1.361-.014-.3-.014-.635-.044-1q-.079-.553-.169-1.2l-.2-1.4q-.182-.736-.388-1.564a25.343,25.343,0,0,0-3.307-7.586A26.764,26.764,0,0,0,414.284,54.2a27.63,27.63,0,0,0-3.668-.074c-.62.043-1.251.031-1.876.121l-1.889.285a26.907,26.907,0,0,0-7.464,2.549,28.728,28.728,0,0,0-6.708,4.875,28.166,28.166,0,0,0-5.046,7.024A25.516,25.516,0,0,0,385,77.541a17,17,0,0,0-.194,2.283,20.547,20.547,0,0,0-.042,2.308,27.353,27.353,0,0,0,.585,4.624,27.024,27.024,0,0,0,3.873,9.2l-.028-.279-3.763,9.376-.223.555.577-.158,10.023-2.757-.247-.047a26.908,26.908,0,0,0,11.453,5,24.372,24.372,0,0,0,5.869.365,18.849,18.849,0,0,0,2.818-.267l1.371-.212c.451-.085.888-.222,1.328-.328a26.817,26.817,0,0,0,15.249-10.461,25.631,25.631,0,0,0,3.284-6.225l.5-1.4q.176-.692.338-1.331t.3-1.218c.075-.391.116-.767.17-1.121.09-.709.212-1.331.239-1.877s.033-1,.046-1.378c.008-.349.014-.627.019-.842a1.293,1.293,0,0,0-.01-.285,1.324,1.324,0,0,0-.04.285c-.017.214-.039.49-.066.837q-.037.569-.092,1.37c-.042.541-.179,1.158-.283,1.859a26.663,26.663,0,0,1-19.777,21.319c-.432.1-.861.236-1.305.316l-1.347.2a18.539,18.539,0,0,1-2.768.248,23.89,23.89,0,0,1-5.752-.381,26.415,26.415,0,0,1-11.205-4.934l-.112-.085-.135.037-10.03,2.735.354.4q1.845-4.581,3.774-9.372l.059-.147-.087-.132a26.467,26.467,0,0,1-3.783-9,26.869,26.869,0,0,1-.572-4.519,20.085,20.085,0,0,1,.04-2.257,16.4,16.4,0,0,1,.188-2.233,24.974,24.974,0,0,1,2.561-8.373,27.653,27.653,0,0,1,4.924-6.88,28.231,28.231,0,0,1,6.555-4.788,26.438,26.438,0,0,1,7.3-2.521l1.851-.286c.612-.092,1.231-.081,1.839-.126a26.427,26.427,0,0,1,23.479,12.033,25.5,25.5,0,0,1,3.365,7.462q.216.816.411,1.545l.228,1.386q.106.641.2,1.188c.04.365.05.7.074,1,.041.572.074,1.019.1,1.354A2.532,2.532,0,0,0,438.544,81.072Z" transform="translate(-384.752 -54.081)" fill="#263238"/>
                  </g>
                </g>
              </g>
            </g>
          </g>
        </g>
      </g>
    </g>
    <g id="Question_Mark" data-name="Question Mark" transform="translate(115.117 88.871)">
      <g id="Grupo_959527" data-name="Grupo 959527">
        <g id="Grupo_959521" data-name="Grupo 959521">
          <g id="Grupo_959519" data-name="Grupo 959519" transform="translate(21.986)">
            <path id="Trazado_630753" data-name="Trazado 630753" d="M145.066,192.629H198.15s0-44.57,46.317-45.368c24.056-.414,36.528,15.343,41.595,27.414,5.885,14.018,4.1,29.994-3.78,42.994-9,14.844-28.394,29.761-64.168,23.457l-.339,118.265h52.488v-70.11s73.616-19.03,73.616-100.157c0-77.622-62.771-94.391-96.505-95.468-18.773-.6-25.578-1.406-48.794,1.89C168.992,99.746,144.44,134.1,145.066,192.629Z" transform="translate(-145.054 -93.11)" fill="#ef8b53"/>
            <rect id="Rectángulo_307100" data-name="Rectángulo 307100" width="53.27" height="49.752" transform="translate(72.573 290.938)" fill="#ef8b53"/>
            <rect id="Rectángulo_307101" data-name="Rectángulo 307101" width="53.27" height="49.752" transform="translate(72.573 290.938)" opacity="0.1"/>
            <path id="Trazado_630754" data-name="Trazado 630754" d="M145.066,192.629H198.15s0-44.57,46.317-45.368c24.056-.414,36.528,15.343,41.595,27.414,5.885,14.018,4.1,29.994-3.78,42.994-9,14.844-28.394,29.761-64.168,23.457l-.339,118.265h52.488v-70.11s73.616-19.03,73.616-100.157c0-77.622-62.771-94.391-96.505-95.468-18.773-.6-25.578-1.406-48.794,1.89C168.992,99.746,144.44,134.1,145.066,192.629Z" transform="translate(-145.052 -93.11)" opacity="0.1"/>
          </g>
          <g id="Grupo_959520" data-name="Grupo 959520" transform="translate(0 0.364)">
            <path id="Trazado_630755" data-name="Trazado 630755" d="M121.143,192.661h53.084s0-44.57,46.318-45.368c24.055-.414,36.527,15.343,41.595,27.414,5.884,14.018,4.1,29.994-3.781,42.994-9,14.844-28.733,28.337-64.507,22.035V359.423H246.34v-70.11s73.616-19.03,73.616-100.157c0-77.622-69.609-95.651-99.406-95.65C197.764,93.506,120.142,99.014,121.143,192.661Z" transform="translate(-121.134 -93.506)" fill="#ef8b53"/>
            <path id="Trazado_630756" data-name="Trazado 630756" d="M121.143,192.661h53.084s0-44.57,46.318-45.368c24.055-.414,36.527,15.343,41.595,27.414,5.884,14.018,4.1,29.994-3.781,42.994-9,14.844-28.733,28.337-64.507,22.035V359.423H246.34v-70.11s73.616-19.03,73.616-100.157c0-77.622-69.609-95.651-99.406-95.65C197.764,93.506,120.142,99.014,121.143,192.661Z" transform="translate(-121.134 -93.506)" opacity="0.3"/>
            <rect id="Rectángulo_307102" data-name="Rectángulo 307102" width="53.27" height="49.752" transform="translate(72.571 290.574)" fill="#ef8b53"/>
            <rect id="Rectángulo_307103" data-name="Rectángulo 307103" width="53.27" height="49.752" transform="translate(72.777 290.574)" opacity="0.3"/>
          </g>
        </g>
        <g id="Grupo_959522" data-name="Grupo 959522" transform="translate(52.776 53.857)">
          <path id="Trazado_630757" data-name="Trazado 630757" d="M231.183,152.246a4.929,4.929,0,0,1-.794-.049c-.519-.026-1.275-.172-2.262-.183a46.25,46.25,0,0,0-8.324.345,59.641,59.641,0,0,0-12.016,2.826,51.287,51.287,0,0,0-6.7,2.88,35.6,35.6,0,0,0-6.547,4.241,32.473,32.473,0,0,0-5.359,5.661,52.377,52.377,0,0,0-8.77,17.468,45.967,45.967,0,0,0-1.6,8.176c-.113.98-.142,1.745-.169,2.263a5,5,0,0,1-.072.792,4.879,4.879,0,0,1-.025-.794c0-.521,0-1.29.081-2.278a42.545,42.545,0,0,1,1.456-8.25,52.709,52.709,0,0,1,4.695-11.508,53.682,53.682,0,0,1,4.029-6.155,32.617,32.617,0,0,1,5.427-5.746,35.674,35.674,0,0,1,6.636-4.287,50.746,50.746,0,0,1,6.766-2.88,58.09,58.09,0,0,1,12.12-2.746,42.944,42.944,0,0,1,8.376-.195c.99.04,1.746.217,2.263.274A4.917,4.917,0,0,1,231.183,152.246Z" transform="translate(-178.552 -151.705)" fill="#263238"/>
        </g>
        <g id="Grupo_959523" data-name="Grupo 959523" transform="translate(95.769 0.381)">
          <path id="Trazado_630758" data-name="Trazado 630758" d="M314.945,138.065a1.122,1.122,0,0,1-.173-.209l-.465-.639-1.746-2.48c-.383-.535-.782-1.149-1.265-1.787l-1.657-2.011-1.9-2.312c-.691-.8-1.5-1.584-2.3-2.44-.824-.839-1.643-1.763-2.575-2.643l-2.968-2.683c-.517-.459-1.023-.949-1.574-1.4l-1.711-1.347c-1.166-.9-2.325-1.879-3.589-2.783a114.907,114.907,0,0,0-17.393-10.272l-4.843-2.19L265.971,101c-1.564-.649-3.165-1.11-4.71-1.621-1.555-.482-3.052-1.04-4.567-1.4l-4.4-1.154c-1.425-.378-2.841-.6-4.192-.9-1.359-.254-2.656-.592-3.931-.75l-3.655-.529c-2.322-.4-4.454-.478-6.314-.665-.932-.073-1.8-.173-2.6-.21l-2.189-.059-3.032-.1-.789-.038a1.121,1.121,0,0,1-.269-.029,1.143,1.143,0,0,1,.268-.02l.79-.009,3.037.007,2.2.017c.8.024,1.67.11,2.606.171,1.866.163,4.007.219,6.338.6l3.671.5c1.281.15,2.584.48,3.95.726,1.358.287,2.78.5,4.212.875l4.417,1.14c1.523.35,3.028.905,4.589,1.385,1.553.508,3.16.968,4.733,1.616l4.834,1.869,4.865,2.2a112.867,112.867,0,0,1,17.447,10.348c1.266.914,2.427,1.9,3.593,2.812l1.711,1.362c.551.459,1.056.954,1.573,1.417l2.962,2.715c.93.892,1.745,1.826,2.564,2.676.8.869,1.6,1.661,2.285,2.473l1.879,2.345,1.631,2.041c.473.648.863,1.272,1.234,1.817l1.677,2.534.425.665A1.2,1.2,0,0,1,314.945,138.065Z" transform="translate(-225.328 -93.525)" fill="#263238"/>
        </g>
        <g id="Grupo_959524" data-name="Grupo 959524" transform="translate(125.423 158.889)">
          <path id="Trazado_630759" data-name="Trazado 630759" d="M312.023,265.978a3.665,3.665,0,0,1-.4.551l-1.224,1.523c-.53.663-1.193,1.462-2,2.355s-1.695,1.944-2.763,3.023c-1.047,1.1-2.2,2.3-3.5,3.521-1.267,1.261-2.7,2.518-4.2,3.858a114.969,114.969,0,0,1-21.47,14.8c-1.785.921-3.471,1.816-5.1,2.552-1.606.781-3.136,1.433-4.536,2.02-1.389.614-2.684,1.073-3.809,1.507s-2.1.776-2.913,1.035l-1.859.6a3.705,3.705,0,0,1-.657.179,3.61,3.61,0,0,1,.627-.27l1.826-.688c.8-.286,1.768-.646,2.88-1.109s2.4-.937,3.771-1.569c1.388-.6,2.905-1.273,4.5-2.067,1.615-.747,3.288-1.654,5.06-2.581,3.507-1.925,7.284-4.189,11.095-6.8,3.792-2.633,7.25-5.357,10.3-7.951,1.5-1.326,2.938-2.567,4.212-3.811,1.309-1.207,2.472-2.387,3.53-3.469,1.081-1.061,1.985-2.09,2.808-2.968s1.51-1.653,2.062-2.3l1.291-1.463A3.637,3.637,0,0,1,312.023,265.978Z" transform="translate(-257.591 -265.978)" fill="#263238"/>
        </g>
        <g id="Grupo_959525" data-name="Grupo 959525" transform="translate(124.038 196.166)">
          <path id="Trazado_630760" data-name="Trazado 630760" d="M256.324,372.481c-.132,0-.24-14.764-.24-32.972s.108-32.975.24-32.975.239,14.761.239,32.975S256.456,372.481,256.324,372.481Z" transform="translate(-256.084 -306.534)" fill="#263238"/>
        </g>
        <g id="Grupo_959526" data-name="Grupo 959526" transform="translate(126.063 291.038)">
          <path id="Trazado_630761" data-name="Trazado 630761" d="M258.527,456.03c-.132,0-.24-10.361-.24-23.138s.108-23.14.24-23.14.239,10.358.239,23.14S258.658,456.03,258.527,456.03Z" transform="translate(-258.287 -409.752)" fill="#263238"/>
        </g>
      </g>
    </g>
    <g id="Character" transform="translate(289.413 69.449)">
      <g id="Grupo_959742" data-name="Grupo 959742">
        <g id="Grupo_959544" data-name="Grupo 959544" transform="translate(0 58.84)">
          <path id="Trazado_630762" data-name="Trazado 630762" d="M315.385,192.859c-.927,1.85,2.507,3.343,4.489,3.942a17.955,17.955,0,0,0,6.163.425c2.739-.148,5.577-.4,7.96-1.765a12.649,12.649,0,0,0,4.8-5.381,37.7,37.7,0,0,0,2.436-6.883S319.514,184.62,315.385,192.859Z" transform="translate(-311.124 -139.813)" fill="#583cb6"/>
          <g id="Grupo_959528" data-name="Grupo 959528" transform="translate(4.106 43.385)" opacity="0.4">
            <path id="Trazado_630763" data-name="Trazado 630763" d="M315.385,192.859c-.927,1.85,2.507,3.343,4.489,3.942a17.955,17.955,0,0,0,6.163.425c2.739-.148,5.577-.4,7.96-1.765a12.649,12.649,0,0,0,4.8-5.381,37.7,37.7,0,0,0,2.436-6.883S319.514,184.62,315.385,192.859Z" transform="translate(-315.23 -183.198)"/>
          </g>
          <g id="Grupo_959530" data-name="Grupo 959530" transform="translate(64.192 40.777)">
            <path id="Trazado_630764" data-name="Trazado 630764" d="M382.019,186.744a20.824,20.824,0,0,0,12.258,3.848,8.692,8.692,0,0,0,5.837-1.836c.709-.648,1.237-1.476,1.967-2.1.5-.423,1.075-.745,1.541-1.2a1.972,1.972,0,0,0,.676-1.745,3.638,3.638,0,0,0-1.269-2.029c-2.495-1.415-5.47-1.364-8.337-1.3a28.586,28.586,0,0,0-8.41,1.649c-2.223.748-4.553,1.8-5.68,3.86" transform="translate(-380.602 -180.36)" fill="#583cb6"/>
            <g id="Grupo_959529" data-name="Grupo 959529" transform="translate(0 0.013)" opacity="0.4">
              <path id="Trazado_630765" data-name="Trazado 630765" d="M404.3,183.715a3.85,3.85,0,0,0-1.631-1.847c-2.494-1.415-5.109-1.547-7.976-1.482a28.585,28.585,0,0,0-8.409,1.649c-2.223.748-4.553,1.8-5.68,3.86l1.417.849a20.824,20.824,0,0,0,12.258,3.848,8.692,8.692,0,0,0,5.837-1.836c.709-.648,1.237-1.476,1.967-2.1.5-.423,1.075-.745,1.541-1.2A1.972,1.972,0,0,0,404.3,183.715Z" transform="translate(-380.602 -180.374)"/>
            </g>
          </g>
          <path id="Trazado_630766" data-name="Trazado 630766" d="M333.978,216.151l45.82.6a.589.589,0,0,0,.568-.768l-5.374-16.766s.791-8.377,1.886-18.459c1.662-15.3,3.871-34.535,3.9-34.482-3.13-8.782-21.622-10.28-21.622-10.28l-21.077,1.253-.742-1.236-6.064,2.82a28.039,28.039,0,0,0-3.805,2.145c-4,2.682-13.66,8.824-15.419,15.679-4.069,15.848,2.824,33.542,2.824,33.542l4.424-3.459a31.059,31.059,0,0,1,3.512-2.347l8.88,23.792a4.2,4.2,0,0,0-1.927,3.054c-.078,1.928.956,4.252,4.217,4.912" transform="translate(-310.763 -135.996)" fill="#583cb6"/>
          <g id="Grupo_959531" data-name="Grupo 959531" transform="translate(36.88 28.352)" opacity="0.3">
            <path id="Trazado_630767" data-name="Trazado 630767" d="M356.864,190.592c1.453-7.81.685-15.842-.088-23.75-2.544,6.469-2.451,13.76-5.144,20.168a8.621,8.621,0,0,0-.717,2.123,2.372,2.372,0,0,0,.612,2.073c.732.669,1.823.309,2.807.19a10.725,10.725,0,0,0,2.529-.8" transform="translate(-350.887 -166.842)"/>
          </g>
          <g id="Grupo_959532" data-name="Grupo 959532" transform="translate(25.363 64.371)" opacity="0.4">
            <path id="Trazado_630768" data-name="Trazado 630768" d="M338.974,211.844c3.7,1.282,7.589-1.1,11.482-1.519,2.572-.279,5.146.311,7.7.725a57.563,57.563,0,0,0,15.626.383,5.979,5.979,0,0,0,2.3-.594,2.773,2.773,0,0,0,1.2-2.281c-8.653-.888-17.307-1.417-25.96-2.305a16.317,16.317,0,0,0-6.49.206c-2.616.811-4.632,2.865-6.475,4.89" transform="translate(-338.357 -206.03)"/>
          </g>
          <path id="Trazado_630769" data-name="Trazado 630769" d="M402.555,177.923c-3.746-8.422-16.935-31.733-16.935-31.733L375.4,159l2.384,25.139s5.394-6.021,20.476-6.142a7.393,7.393,0,0,1,5.613,2.956Z" transform="translate(-315.99 -136.82)" fill="#583cb6"/>
          <g id="Grupo_959533" data-name="Grupo 959533" transform="translate(22.246 25.533)">
            <path id="Trazado_630770" data-name="Trazado 630770" d="M337.964,174.9a34.766,34.766,0,0,1-1.722-5.5,34.789,34.789,0,0,1-1.259-5.622,34.8,34.8,0,0,1,1.722,5.5A34.985,34.985,0,0,1,337.964,174.9Z" transform="translate(-334.965 -163.776)" fill="#263238"/>
          </g>
          <g id="Grupo_959534" data-name="Grupo 959534" transform="translate(58.642 20.471)">
            <path id="Trazado_630771" data-name="Trazado 630771" d="M374.566,158.269a6.193,6.193,0,0,1,.945.8,25.873,25.873,0,0,1,2.276,2.5,24.123,24.123,0,0,1,4.877,9.981,18.659,18.659,0,0,1,.293,6.157c-.237,1.881-.6,3.534-.828,4.934s-.386,2.535-.46,3.324a8.215,8.215,0,0,1-.128,1.229,4.915,4.915,0,0,1-.058-1.239,29.112,29.112,0,0,1,.312-3.366c.188-1.412.515-3.08.723-4.934a18.913,18.913,0,0,0-.323-6.006,25.267,25.267,0,0,0-4.677-9.872C375.819,159.516,374.5,158.339,374.566,158.269Z" transform="translate(-374.563 -158.267)" fill="#263238"/>
          </g>
          <g id="Grupo_959535" data-name="Grupo 959535" transform="translate(25.278 70.695)">
            <path id="Trazado_630772" data-name="Trazado 630772" d="M362.276,220.367a4.277,4.277,0,0,1-1,.29,9.573,9.573,0,0,1-1.2.232,16.1,16.1,0,0,1-1.6.2,23.751,23.751,0,0,1-4.208-.024,24.994,24.994,0,0,1-9.8-3.042,23.685,23.685,0,0,1-3.482-2.364,16,16,0,0,1-1.211-1.069,9.582,9.582,0,0,1-.854-.869,4.3,4.3,0,0,1-.658-.8c.069-.066,1.055,1.038,2.933,2.476a26.438,26.438,0,0,0,3.484,2.243,26.419,26.419,0,0,0,9.633,2.991,26.425,26.425,0,0,0,4.141.124C360.818,220.624,362.256,220.274,362.276,220.367Z" transform="translate(-338.264 -212.91)" fill="#263238"/>
          </g>
          <g id="Grupo_959536" data-name="Grupo 959536" transform="translate(60.531 72.91)">
            <path id="Trazado_630773" data-name="Trazado 630773" d="M379.527,215.32a3.246,3.246,0,0,1,.354,1.342,8.281,8.281,0,0,1-.247,3.349,5.84,5.84,0,0,1-1.8,2.847,2.538,2.538,0,0,1-1.211.69c-.04-.069.406-.349.981-.938a6.512,6.512,0,0,0,1.573-2.736C379.871,217.447,379.347,215.331,379.527,215.32Z" transform="translate(-376.619 -215.32)" fill="#263238"/>
          </g>
          <g id="Grupo_959537" data-name="Grupo 959537" transform="translate(58.971 76.148)">
            <path id="Trazado_630774" data-name="Trazado 630774" d="M376.9,218.843a5,5,0,0,1-1.968,5.073c-.1-.1.756-1.014,1.289-2.418C376.772,220.1,376.756,218.848,376.9,218.843Z" transform="translate(-374.922 -218.843)" fill="#263238"/>
          </g>
          <g id="Grupo_959538" data-name="Grupo 959538" transform="translate(49.482 45.897)">
            <path id="Trazado_630775" data-name="Trazado 630775" d="M367.859,185.937a18.59,18.59,0,0,1-1.635,2.353,18.7,18.7,0,0,1-1.607,2.371,8.53,8.53,0,0,1,3.242-4.724Z" transform="translate(-364.598 -185.93)" fill="#263238"/>
          </g>
          <g id="Grupo_959539" data-name="Grupo 959539" transform="translate(5.992 17.85)">
            <path id="Trazado_630776" data-name="Trazado 630776" d="M332.587,161.211a23.163,23.163,0,0,1-2.032-1.347,26.17,26.17,0,0,0-10.855-4.052,23.229,23.229,0,0,1-2.417-.314,8.478,8.478,0,0,1,2.455-.022,21.983,21.983,0,0,1,11.009,4.11A8.514,8.514,0,0,1,332.587,161.211Z" transform="translate(-317.282 -155.416)" fill="#263238"/>
          </g>
          <g id="Grupo_959540" data-name="Grupo 959540" transform="translate(61.493 9.06)">
            <path id="Trazado_630777" data-name="Trazado 630777" d="M385.809,145.858a39.9,39.9,0,0,0-4.644,4.346,39.885,39.885,0,0,0-3.49,5.317,5.669,5.669,0,0,1,.641-1.783,18.219,18.219,0,0,1,5.846-6.944A5.679,5.679,0,0,1,385.809,145.858Z" transform="translate(-377.666 -145.853)" fill="#263238"/>
          </g>
          <g id="Grupo_959541" data-name="Grupo 959541" transform="translate(24.14 1.491)">
            <path id="Trazado_630778" data-name="Trazado 630778" d="M363.6,137.618a1.746,1.746,0,0,1,.207.425,7.9,7.9,0,0,1,.428,1.29,10.9,10.9,0,0,1-.017,4.977,12.234,12.234,0,0,1-3.749,6.335,12.712,12.712,0,0,1-8.457,3.012,14.31,14.31,0,0,1-8.538-2.854,16.329,16.329,0,0,1-4.7-5.695,17.367,17.367,0,0,1-1.565-4.73,12.605,12.605,0,0,1-.165-1.344,1.746,1.746,0,0,1-.009-.472c.049-.006.1.642.357,1.78a18.831,18.831,0,0,0,1.683,4.611,16.357,16.357,0,0,0,4.661,5.5,14.034,14.034,0,0,0,8.278,2.729,12.389,12.389,0,0,0,8.164-2.865,12.074,12.074,0,0,0,3.711-6.082,11.279,11.279,0,0,0,.165-4.859C363.826,138.231,363.544,137.639,363.6,137.618Z" transform="translate(-337.026 -137.618)" fill="#263238"/>
          </g>
          <g id="Grupo_959542" data-name="Grupo 959542" transform="translate(49.503 46.208)" opacity="0.3">
            <path id="Trazado_630779" data-name="Trazado 630779" d="M369.047,187.594c-.014-.46-.074-1-.472-1.23a.9.9,0,0,0-.833.014,2.341,2.341,0,0,0-.665.55,11.244,11.244,0,0,0-2.456,3.925l4.506-.389C369.1,189.514,369.076,188.545,369.047,187.594Z" transform="translate(-364.62 -186.269)"/>
          </g>
          <g id="Grupo_959543" data-name="Grupo 959543" transform="translate(65.62 31.073)" opacity="0.3">
            <path id="Trazado_630780" data-name="Trazado 630780" d="M385.421,176.785a14.748,14.748,0,0,0-3.266-6.982c1.94,6.361,1.291,9.951.2,14.306l.235-.609C383.842,180.955,385.766,179.361,385.421,176.785Z" transform="translate(-382.155 -169.803)"/>
          </g>
        </g>
        <g id="Grupo_959564" data-name="Grupo 959564" transform="translate(36.391 308.714)">
          <g id="Grupo_959545" data-name="Grupo 959545" transform="translate(0 0)">
            <path id="Trazado_630781" data-name="Trazado 630781" d="M373.85,409.7,371.1,450.924l-17.924-.211-2.823-42.861Z" transform="translate(-350.355 -407.852)" fill="#ffbe9d"/>
          </g>
          <g id="Grupo_959563" data-name="Grupo 959563" transform="translate(1.549 37.218)">
            <g id="Grupo_959562" data-name="Grupo 959562">
              <g id="Grupo_959547" data-name="Grupo 959547">
                <g id="Grupo_959546" data-name="Grupo 959546">
                  <path id="Trazado_630782" data-name="Trazado 630782" d="M371.749,448.771l0,1.192s20.2,8.132,20.416,11.966l-40.129-.235.624-13.351A22.955,22.955,0,0,0,371.749,448.771Z" transform="translate(-352.04 -448.344)" fill="#ef8b53"/>
                </g>
              </g>
              <g id="Grupo_959550" data-name="Grupo 959550" transform="translate(3.485 4.228)">
                <g id="Grupo_959549" data-name="Grupo 959549">
                  <g id="Grupo_959548" data-name="Grupo 959548">
                    <path id="Trazado_630783" data-name="Trazado 630783" d="M357.008,453.009a1.639,1.639,0,0,0-1.143,1.864,1.574,1.574,0,0,0,1.836,1.15,1.728,1.728,0,0,0,1.2-1.98,1.634,1.634,0,0,0-2.043-.984" transform="translate(-355.832 -452.944)" fill="#fff"/>
                  </g>
                </g>
              </g>
              <g id="Grupo_959552" data-name="Grupo 959552" transform="translate(0 10.14)">
                <g id="Grupo_959551" data-name="Grupo 959551">
                  <path id="Trazado_630784" data-name="Trazado 630784" d="M352.04,462.587l.15-3.211,38.406,1.4s1.782.788,1.573,2.045Z" transform="translate(-352.04 -459.376)" fill="#263238"/>
                </g>
              </g>
              <g id="Grupo_959555" data-name="Grupo 959555" transform="translate(16.183 1.548)">
                <g id="Grupo_959554" data-name="Grupo 959554">
                  <g id="Grupo_959553" data-name="Grupo 959553">
                    <path id="Trazado_630785" data-name="Trazado 630785" d="M373.316,450.213c-.007.2-.988.279-1.956.9-.983.6-1.485,1.445-1.665,1.366-.18-.039.119-1.209,1.3-1.944S373.36,450.034,373.316,450.213Z" transform="translate(-369.646 -450.028)" fill="#263238"/>
                  </g>
                </g>
              </g>
              <g id="Grupo_959558" data-name="Grupo 959558" transform="translate(21.376 3.418)">
                <g id="Grupo_959557" data-name="Grupo 959557">
                  <g id="Grupo_959556" data-name="Grupo 959556">
                    <path id="Trazado_630786" data-name="Trazado 630786" d="M377.972,452.143c.044.19-.806.518-1.477,1.344-.695.8-.868,1.7-1.063,1.69-.185.029-.313-1.119.54-2.129S377.969,451.956,377.972,452.143Z" transform="translate(-375.296 -452.062)" fill="#263238"/>
                  </g>
                </g>
              </g>
              <g id="Grupo_959561" data-name="Grupo 959561" transform="translate(26.181 5.177)">
                <g id="Grupo_959560" data-name="Grupo 959560">
                  <g id="Grupo_959559" data-name="Grupo 959559">
                    <path id="Trazado_630787" data-name="Trazado 630787" d="M380.756,457.349c-.178.04-.445-.94.064-2.01s1.428-1.492,1.51-1.328c.11.162-.488.734-.893,1.619C381.011,456.5,380.951,457.331,380.756,457.349Z" transform="translate(-380.525 -453.977)" fill="#263238"/>
                  </g>
                </g>
              </g>
            </g>
          </g>
        </g>
        <g id="Grupo_959671" data-name="Grupo 959671" transform="translate(9.566)">
          <path id="Trazado_630788" data-name="Trazado 630788" d="M368.814,81.056c1.034-2.578-.219-5.695-2.457-7.34a10.669,10.669,0,0,0-7.962-1.566,31.689,31.689,0,0,0-7.851,2.712A8.863,8.863,0,0,0,335.5,79.774a5.633,5.633,0,0,0-6.674,7.4l12.424,4.364L354.817,115.4a10.855,10.855,0,0,0,15.974-14.432,9.314,9.314,0,0,0,1.906-2.358,9.511,9.511,0,0,0,4.391-5.88A10.04,10.04,0,0,0,368.814,81.056Z" transform="translate(-321.762 -71.979)" fill="#263238"/>
          <g id="Grupo_959665" data-name="Grupo 959665" transform="translate(0 6.468)">
            <g id="Grupo_959642" data-name="Grupo 959642" transform="translate(8.161)">
              <g id="Grupo_959641" data-name="Grupo 959641">
                <g id="Grupo_959639" data-name="Grupo 959639" transform="translate(0 2.359)">
                  <g id="Grupo_959638" data-name="Grupo 959638">
                    <g id="Grupo_959637" data-name="Grupo 959637">
                      <g id="Grupo_959636" data-name="Grupo 959636">
                        <g id="Grupo_959621" data-name="Grupo 959621">
                          <g id="Grupo_959620" data-name="Grupo 959620">
                            <g id="Grupo_959619" data-name="Grupo 959619">
                              <g id="Grupo_959571" data-name="Grupo 959571">
                                <g id="Grupo_959570" data-name="Grupo 959570">
                                  <g id="Grupo_959569" data-name="Grupo 959569">
                                    <g id="Grupo_959568" data-name="Grupo 959568">
                                      <g id="Grupo_959567" data-name="Grupo 959567">
                                        <g id="Grupo_959566" data-name="Grupo 959566">
                                          <g id="Grupo_959565" data-name="Grupo 959565">
                                            <path id="Trazado_630789" data-name="Trazado 630789" d="M360.715,131.6c-.771-3.885-1.309-6.546-1.3-6.519,0,0,7.326-2.853,6.821-13.085-.251-5.089-2.192-13.112-3.993-19.625-1.62-5.862-7.086-12.326-12.874-10.457l-17.5,8.549c-1.758.567-2.066,2.219-1.652,4.019l.029.878,6.811,28.179,2.877,12.594A10.639,10.639,0,0,0,351.8,144.2h0A10.64,10.64,0,0,0,360.715,131.6Z" transform="translate(-330.048 -81.583)" fill="#ffbe9d"/>
                                          </g>
                                        </g>
                                      </g>
                                    </g>
                                  </g>
                                </g>
                              </g>
                              <g id="Grupo_959587" data-name="Grupo 959587" transform="translate(26.285 14.745)">
                                <g id="Grupo_959578" data-name="Grupo 959578" transform="translate(3.252 1.931)">
                                  <g id="Grupo_959577" data-name="Grupo 959577">
                                    <g id="Grupo_959576" data-name="Grupo 959576">
                                      <g id="Grupo_959575" data-name="Grupo 959575">
                                        <g id="Grupo_959574" data-name="Grupo 959574">
                                          <g id="Grupo_959573" data-name="Grupo 959573">
                                            <g id="Grupo_959572" data-name="Grupo 959572">
                                              <path id="Trazado_630790" data-name="Trazado 630790" d="M364.725,100.642a1.3,1.3,0,0,1-.956,1.538,1.241,1.241,0,0,1-1.55-.87,1.3,1.3,0,0,1,.954-1.54A1.244,1.244,0,0,1,364.725,100.642Z" transform="translate(-362.184 -99.725)" fill="#263238"/>
                                            </g>
                                          </g>
                                        </g>
                                      </g>
                                    </g>
                                  </g>
                                </g>
                                <g id="Grupo_959586" data-name="Grupo 959586">
                                  <g id="Grupo_959585" data-name="Grupo 959585">
                                    <g id="Grupo_959584" data-name="Grupo 959584">
                                      <g id="Grupo_959583" data-name="Grupo 959583">
                                        <g id="Grupo_959582" data-name="Grupo 959582">
                                          <g id="Grupo_959581" data-name="Grupo 959581">
                                            <g id="Grupo_959580" data-name="Grupo 959580">
                                              <g id="Grupo_959579" data-name="Grupo 959579">
                                                <path id="Trazado_630791" data-name="Trazado 630791" d="M363.684,98.516c-.123.2-1.234-.312-2.6-.021-1.369.27-2.224,1.184-2.407,1.048-.088-.059.009-.392.38-.8A3.556,3.556,0,0,1,360.94,97.7a3.419,3.419,0,0,1,2.112.223C363.54,98.155,363.745,98.426,363.684,98.516Z" transform="translate(-358.646 -97.625)" fill="#263238"/>
                                              </g>
                                            </g>
                                          </g>
                                        </g>
                                      </g>
                                    </g>
                                  </g>
                                </g>
                              </g>
                              <g id="Grupo_959603" data-name="Grupo 959603" transform="translate(13.07 17.985)">
                                <g id="Grupo_959594" data-name="Grupo 959594" transform="translate(3.168 1.74)">
                                  <g id="Grupo_959593" data-name="Grupo 959593">
                                    <g id="Grupo_959592" data-name="Grupo 959592">
                                      <g id="Grupo_959591" data-name="Grupo 959591">
                                        <g id="Grupo_959590" data-name="Grupo 959590">
                                          <g id="Grupo_959589" data-name="Grupo 959589">
                                            <g id="Grupo_959588" data-name="Grupo 959588">
                                              <path id="Trazado_630792" data-name="Trazado 630792" d="M350.255,103.959a1.3,1.3,0,0,1-.956,1.539,1.241,1.241,0,0,1-1.549-.87,1.3,1.3,0,0,1,.954-1.539A1.242,1.242,0,0,1,350.255,103.959Z" transform="translate(-347.715 -103.043)" fill="#263238"/>
                                            </g>
                                          </g>
                                        </g>
                                      </g>
                                    </g>
                                  </g>
                                </g>
                                <g id="Grupo_959602" data-name="Grupo 959602">
                                  <g id="Grupo_959601" data-name="Grupo 959601">
                                    <g id="Grupo_959600" data-name="Grupo 959600">
                                      <g id="Grupo_959599" data-name="Grupo 959599">
                                        <g id="Grupo_959598" data-name="Grupo 959598">
                                          <g id="Grupo_959597" data-name="Grupo 959597">
                                            <g id="Grupo_959596" data-name="Grupo 959596">
                                              <g id="Grupo_959595" data-name="Grupo 959595">
                                                <path id="Trazado_630793" data-name="Trazado 630793" d="M349.306,102.041c-.123.2-1.235-.311-2.6-.021-1.369.27-2.224,1.184-2.407,1.048-.088-.059.007-.391.38-.8a3.558,3.558,0,0,1,1.883-1.044,3.428,3.428,0,0,1,2.113.223C349.161,101.68,349.367,101.951,349.306,102.041Z" transform="translate(-344.268 -101.15)" fill="#263238"/>
                                              </g>
                                            </g>
                                          </g>
                                        </g>
                                      </g>
                                    </g>
                                  </g>
                                </g>
                              </g>
                              <g id="Grupo_959611" data-name="Grupo 959611" transform="translate(22.008 16.264)">
                                <g id="Grupo_959610" data-name="Grupo 959610">
                                  <g id="Grupo_959609" data-name="Grupo 959609">
                                    <g id="Grupo_959608" data-name="Grupo 959608">
                                      <g id="Grupo_959607" data-name="Grupo 959607">
                                        <g id="Grupo_959606" data-name="Grupo 959606">
                                          <g id="Grupo_959605" data-name="Grupo 959605">
                                            <g id="Grupo_959604" data-name="Grupo 959604">
                                              <path id="Trazado_630794" data-name="Trazado 630794" d="M357.013,110.535a9.234,9.234,0,0,1,2.136-.867c.341-.109.657-.247.665-.5a1.81,1.81,0,0,0-.449-.985l-1.589-2.44c-2.227-3.483-3.917-6.376-3.776-6.464s2.06,2.662,4.287,6.144q.811,1.292,1.55,2.466a2.061,2.061,0,0,1,.468,1.332.9.9,0,0,1-.467.631,2.428,2.428,0,0,1-.575.207A9.115,9.115,0,0,1,357.013,110.535Z" transform="translate(-353.992 -99.278)" fill="#263238"/>
                                            </g>
                                          </g>
                                        </g>
                                      </g>
                                    </g>
                                  </g>
                                </g>
                              </g>
                              <g id="Grupo_959618" data-name="Grupo 959618" transform="translate(15.361 42.739)">
                                <g id="Grupo_959617" data-name="Grupo 959617">
                                  <g id="Grupo_959616" data-name="Grupo 959616">
                                    <g id="Grupo_959615" data-name="Grupo 959615">
                                      <g id="Grupo_959614" data-name="Grupo 959614">
                                        <g id="Grupo_959613" data-name="Grupo 959613">
                                          <g id="Grupo_959612" data-name="Grupo 959612">
                                            <path id="Trazado_630795" data-name="Trazado 630795" d="M360.765,128.838a25.738,25.738,0,0,1-14-.756s4.812,6.287,14.529,3.281Z" transform="translate(-346.761 -128.082)" fill="#eb996e"/>
                                          </g>
                                        </g>
                                      </g>
                                    </g>
                                  </g>
                                </g>
                              </g>
                            </g>
                          </g>
                        </g>
                        <g id="Grupo_959628" data-name="Grupo 959628" transform="translate(12.114 16.171)">
                          <g id="Grupo_959627" data-name="Grupo 959627">
                            <g id="Grupo_959626" data-name="Grupo 959626">
                              <g id="Grupo_959625" data-name="Grupo 959625">
                                <g id="Grupo_959624" data-name="Grupo 959624">
                                  <g id="Grupo_959623" data-name="Grupo 959623">
                                    <g id="Grupo_959622" data-name="Grupo 959622">
                                      <path id="Trazado_630796" data-name="Trazado 630796" d="M349.48,99.932c-.09.393-1.5.384-3.1.778-1.61.362-2.864,1-3.12.687-.116-.15.069-.532.555-.961a5.554,5.554,0,0,1,4.738-1.116C349.18,99.488,349.518,99.747,349.48,99.932Z" transform="translate(-343.228 -99.176)" fill="#263238"/>
                                    </g>
                                  </g>
                                </g>
                              </g>
                            </g>
                          </g>
                        </g>
                        <g id="Grupo_959635" data-name="Grupo 959635" transform="translate(25.241 10.358)">
                          <g id="Grupo_959634" data-name="Grupo 959634">
                            <g id="Grupo_959633" data-name="Grupo 959633">
                              <g id="Grupo_959632" data-name="Grupo 959632">
                                <g id="Grupo_959631" data-name="Grupo 959631">
                                  <g id="Grupo_959630" data-name="Grupo 959630">
                                    <g id="Grupo_959629" data-name="Grupo 959629">
                                      <path id="Trazado_630797" data-name="Trazado 630797" d="M363.073,93.783c-.219.369-1.4.281-2.743.548-1.35.226-2.429.727-2.759.457-.147-.133-.034-.482.4-.88a4.4,4.4,0,0,1,2.119-.975,4.347,4.347,0,0,1,2.314.165C362.944,93.319,363.166,93.606,363.073,93.783Z" transform="translate(-357.51 -92.852)" fill="#263238"/>
                                    </g>
                                  </g>
                                </g>
                              </g>
                            </g>
                          </g>
                        </g>
                      </g>
                    </g>
                  </g>
                </g>
                <g id="Grupo_959640" data-name="Grupo 959640" transform="translate(5.589)">
                  <path id="Trazado_630798" data-name="Trazado 630798" d="M336.661,83.669a6.923,6.923,0,0,0,9.386,5.034c1.456-.591,2.956-1.7,4.434-1.165,1.553.563,2.041,2.628,3.484,3.435,2.061,1.154,4.543-.845,6.9-.647,1.817.153,3.226,1.567,4.649,2.708s3.4,2.1,5.006,1.233a20.5,20.5,0,0,0-1.627-4.427,6.9,6.9,0,0,0-3.367-3.184,25.861,25.861,0,0,1-2.454-.82c-1.659-.853-2.4-2.781-3.612-4.2a7.588,7.588,0,0,0-6.439-2.58c-1.99.2-3.877,1.207-5.876,1.121-1.478-.062-2.893-.72-4.372-.695-2.88.049-5.043,2.571-6.641,4.968" transform="translate(-336.129 -79.017)" fill="#263238"/>
                </g>
              </g>
            </g>
            <path id="Trazado_630799" data-name="Trazado 630799" d="M345.137,86.02c-1.316-.1-4.024-.375-4.914-1.314a7.755,7.755,0,0,0-7.392-2.425,6.4,6.4,0,0,0-4.613,6.123A9.2,9.2,0,0,0,321.509,95a10.665,10.665,0,0,0,2.3,9.656,19.107,19.107,0,0,1,1.508,2.185,15.623,15.623,0,0,0-1.635,2.479c-2.1,4.65,3.6,6.431,3.6,6.431.016,3.126,2.9,3.111,4.745,3.1,1.778-.008,2.871,4.919,4.31,4.728l-1.461-15.223a1.9,1.9,0,0,0,.674.122c3.485.062,2.575-6.53,1.447-8.235a19.748,19.748,0,0,0,2.612-4.205,14.248,14.248,0,0,0,.135-7.047C340.954,88.81,345.716,86.062,345.137,86.02Z" transform="translate(-321.17 -79.264)" fill="#263238"/>
            <g id="Grupo_959664" data-name="Grupo 959664" transform="translate(8.404 27.623)">
              <g id="Grupo_959652" data-name="Grupo 959652">
                <g id="Grupo_959651" data-name="Grupo 959651">
                  <g id="Grupo_959650" data-name="Grupo 959650">
                    <g id="Grupo_959649" data-name="Grupo 959649">
                      <g id="Grupo_959648" data-name="Grupo 959648">
                        <g id="Grupo_959647" data-name="Grupo 959647">
                          <g id="Grupo_959646" data-name="Grupo 959646">
                            <g id="Grupo_959645" data-name="Grupo 959645">
                              <g id="Grupo_959644" data-name="Grupo 959644">
                                <g id="Grupo_959643" data-name="Grupo 959643">
                                  <path id="Trazado_630800" data-name="Trazado 630800" d="M336.132,111.342a2.951,2.951,0,0,0-4.738-1.581c-.882.788-1.408,2.113-.852,4.332,1.484,5.917,7.119,3.206,7.087,3.034C337.608,117.021,336.768,113.785,336.132,111.342Z" transform="translate(-330.313 -109.069)" fill="#ffbe9d"/>
                                </g>
                              </g>
                            </g>
                          </g>
                        </g>
                      </g>
                    </g>
                  </g>
                </g>
              </g>
              <g id="Grupo_959663" data-name="Grupo 959663" transform="translate(1.639 1.84)">
                <g id="Grupo_959662" data-name="Grupo 959662">
                  <g id="Grupo_959661" data-name="Grupo 959661">
                    <g id="Grupo_959660" data-name="Grupo 959660">
                      <g id="Grupo_959659" data-name="Grupo 959659">
                        <g id="Grupo_959658" data-name="Grupo 959658">
                          <g id="Grupo_959657" data-name="Grupo 959657">
                            <g id="Grupo_959656" data-name="Grupo 959656">
                              <g id="Grupo_959655" data-name="Grupo 959655">
                                <g id="Grupo_959654" data-name="Grupo 959654">
                                  <g id="Grupo_959653" data-name="Grupo 959653">
                                    <path id="Trazado_630801" data-name="Trazado 630801" d="M335.4,115.5c-.031-.012-.085.1-.24.222a1.062,1.062,0,0,1-.767.21c-.682-.073-1.458-.933-1.754-1.993a3.522,3.522,0,0,1-.082-1.548,1.228,1.228,0,0,1,.577-.985.542.542,0,0,1,.679.13c.12.145.113.273.146.276s.1-.131-.006-.364a.681.681,0,0,0-.325-.313.806.806,0,0,0-.608-.007,1.5,1.5,0,0,0-.847,1.188,3.623,3.623,0,0,0,.056,1.739c.337,1.182,1.228,2.145,2.145,2.177a1.134,1.134,0,0,0,.9-.392C335.428,115.647,335.426,115.506,335.4,115.5Z" transform="translate(-332.097 -111.071)" fill="#eb996e"/>
                                  </g>
                                </g>
                              </g>
                            </g>
                          </g>
                        </g>
                      </g>
                    </g>
                  </g>
                </g>
              </g>
            </g>
          </g>
          <g id="Grupo_959666" data-name="Grupo 959666" transform="translate(17.535 10.324)">
            <path id="Trazado_630802" data-name="Trazado 630802" d="M368.673,100.986c-.037-.045.535-.413,1.29-1.336a8.7,8.7,0,0,0,1.847-4.6,8.463,8.463,0,0,0-.33-3.408,7.316,7.316,0,0,0-2.1-3.266,8.639,8.639,0,0,0-8.449-1.644c-.277.089-.533.227-.8.335-.251.131-.488.278-.722.411l-.364.2-.006-.405a2.986,2.986,0,0,0-.744-1.931,4.748,4.748,0,0,0-1.7-1.213,6.265,6.265,0,0,0-3.946-.289c-2.537.575-4.689,1.735-6.721,1.969a6.5,6.5,0,0,1-4.585-.921,3.741,3.741,0,0,1-.9-.919,1.612,1.612,0,0,1-.2-.4,5.277,5.277,0,0,0,1.2,1.17,6.474,6.474,0,0,0,4.439.745,15.94,15.94,0,0,0,3.086-.891,27.86,27.86,0,0,1,3.588-1.176,7.962,7.962,0,0,1,2.077-.208,6.4,6.4,0,0,1,2.142.493,5.2,5.2,0,0,1,1.873,1.331,3.461,3.461,0,0,1,.862,2.24l-.37-.2c.25-.142.5-.3.771-.44.279-.116.552-.263.847-.358a9.033,9.033,0,0,1,8.906,1.768,7.67,7.67,0,0,1,2.185,3.476,8.7,8.7,0,0,1,.287,3.563,8.594,8.594,0,0,1-2.041,4.679,6.137,6.137,0,0,1-1.025.95A1.839,1.839,0,0,1,368.673,100.986Z" transform="translate(-340.247 -83.212)" fill="#455a64"/>
          </g>
          <g id="Grupo_959667" data-name="Grupo 959667" transform="translate(18.264 3.848)">
            <path id="Trazado_630803" data-name="Trazado 630803" d="M367.534,79.638a6.555,6.555,0,0,0-1.9-.654,5.017,5.017,0,0,0-2.263.2,4.466,4.466,0,0,0-2.329,1.693l-.225.325-.138-.368a6.915,6.915,0,0,0-5.607-4.164,8.93,8.93,0,0,0-5.39,1.558,23.887,23.887,0,0,1-4.272,2.211,6.72,6.72,0,0,1-3.234.38,4.073,4.073,0,0,1-.858-.235c-.187-.081-.281-.131-.275-.146.015-.043.41.122,1.155.2a7.023,7.023,0,0,0,3.1-.514,25.816,25.816,0,0,0,4.165-2.273,14.633,14.633,0,0,1,2.575-1.257,7.015,7.015,0,0,1,3.087-.4,7.251,7.251,0,0,1,5.942,4.492l-.363-.043a4.753,4.753,0,0,1,2.57-1.783,5.078,5.078,0,0,1,2.4-.119,4.308,4.308,0,0,1,1.44.55C367.407,79.5,367.546,79.624,367.534,79.638Z" transform="translate(-341.041 -76.166)" fill="#455a64"/>
          </g>
          <path id="Trazado_630804" data-name="Trazado 630804" d="M356.4,114.438a2,2,0,0,0-1.615-.469,2.365,2.365,0,0,0-1.549,1.131c-.008.011-.016.023-.024.035s-.038.049-.051.075l.022-.016a1.134,1.134,0,0,0-.173.694,1.668,1.668,0,0,0,.961,1.243,2.112,2.112,0,0,0,2.408-.348A1.725,1.725,0,0,0,356.4,114.438Z" transform="translate(-323.744 -75.373)" fill="#e8505b"/>
          <g id="Grupo_959668" data-name="Grupo 959668" transform="translate(28.964 39.444)">
            <path id="Trazado_630805" data-name="Trazado 630805" d="M356.836,117.373c-.071.014-.161-.273-.405-.657a2.882,2.882,0,0,0-2.984-1.358c-.451.069-.726.189-.763.127s.192-.286.681-.455a2.72,2.72,0,0,1,3.366,1.531C356.926,117.041,356.894,117.366,356.836,117.373Z" transform="translate(-352.682 -114.893)" fill="#263238"/>
          </g>
          <g id="Grupo_959669" data-name="Grupo 959669" transform="translate(10.796 41.672)">
            <path id="Trazado_630806" data-name="Trazado 630806" d="M336.479,118.706c.044-.029.263.46-.082,1.156a1.873,1.873,0,0,1-.98.886,1.9,1.9,0,0,1-2.5-1.572,1.873,1.873,0,0,1,.375-1.267c.48-.611,1.015-.626,1.008-.573.031.072-.4.209-.727.762a1.654,1.654,0,0,0-.218,1.03,1.533,1.533,0,0,0,1.91,1.2,1.654,1.654,0,0,0,.836-.642C336.464,119.16,336.4,118.709,336.479,118.706Z" transform="translate(-332.916 -117.318)" fill="#e8505b"/>
          </g>
          <g id="Grupo_959670" data-name="Grupo 959670" transform="translate(9.161 40.991)">
            <path id="Trazado_630807" data-name="Trazado 630807" d="M333.231,118.292c.052.024-.028.313-.427.508a1.16,1.16,0,0,1-.764.075,1.224,1.224,0,0,1-.841-1.554,1.161,1.161,0,0,1,.481-.6c.382-.228.668-.136.66-.08,0,.072-.226.119-.454.348a.874.874,0,0,0,.806,1.49C333.008,118.415,333.174,118.249,333.231,118.292Z" transform="translate(-331.137 -116.577)" fill="#e8505b"/>
          </g>
        </g>
        <g id="Grupo_959680" data-name="Grupo 959680" transform="translate(10.388 47.57)">
          <path id="Trazado_630808" data-name="Trazado 630808" d="M344.407,205.114s22.757,1.32,36.209,1.444c10.419.1,15.063-2.672,17.147-9.366,1.748-5.621-2.009-16.4-2.009-16.4-7.045.036-11.394,1.006-15.928,3.132l1.209,4.928-36.692,3.164Z" transform="translate(-323.866 -128.348)" fill="#ffbe9d"/>
          <g id="Grupo_959672" data-name="Grupo 959672" transform="translate(56.952 60.365)">
            <path id="Trazado_630809" data-name="Trazado 630809" d="M391.892,194.808a13.27,13.27,0,0,0-7.864-5.361,3.245,3.245,0,0,1,1.46.127,9.737,9.737,0,0,1,5.753,3.922A3.261,3.261,0,0,1,391.892,194.808Z" transform="translate(-384.028 -189.41)" fill="#eb996e"/>
          </g>
          <g id="Grupo_959679" data-name="Grupo 959679">
            <path id="Trazado_630810" data-name="Trazado 630810" d="M334.273,181.392h0a44.019,44.019,0,0,0-12.208,5.144l5.5,14.949c1.836,4.905,7.462,7.316,11.917,4.771,6.921-3.954,9.362-15.5,9.362-15.5l7.607-32.977-12.6-7.9-9.573,31.509" transform="translate(-322.065 -125.849)" fill="#ffbe9d"/>
            <g id="Grupo_959678" data-name="Grupo 959678" transform="translate(10.061)">
              <path id="Trazado_630811" data-name="Trazado 630811" d="M345.549,147.785l.509-10.845-2.814-10.985c-.156-.609-.233-1.368.26-1.738a1.336,1.336,0,0,1,1.7.053c.77.788,4.445,10.436,4.445,10.436s5.576-3.352,6.572-3.515,2.236,2.837,2.313,3.075a17.481,17.481,0,0,1,.01,2.016s3.449.1,3.757.576a11.842,11.842,0,0,1,.4,2.926s1.458.468,1.693,1.574.7,2.925.017,3.324-2.14,1.2-2.14,1.2-.585,5.627-.735,6.139a34.9,34.9,0,0,1-3.383,3.664Z" transform="translate(-333.829 -123.751)" fill="#ffbe9d"/>
              <g id="Grupo_959673" data-name="Grupo 959673">
                <path id="Trazado_630812" data-name="Trazado 630812" d="M333.011,204.368c.015-.03.343.2,1.056.427a7.191,7.191,0,0,0,3.249.257,9.064,9.064,0,0,0,4.7-2.169,21.809,21.809,0,0,0,4.373-5.537,24.857,24.857,0,0,0,1.7-3.8,38.914,38.914,0,0,0,1.179-4.405c.722-3.1,1.5-6.432,2.325-9.976,1.659-7.09,3.514-15.017,5.511-23.555l.015-.063.048-.047c.632-.62,1.268-1.259,1.9-1.915.313-.329.628-.663.927-1.006a6.463,6.463,0,0,0,.417-.519c.108-.11.111-.333.153-.567.249-1.84.443-3.742.647-5.656l.013-.121.108-.061,1.752-.982c.133-.079.33-.176.413-.242a.508.508,0,0,0,.165-.308,2.934,2.934,0,0,0,.011-.952,14.3,14.3,0,0,0-.408-2,2.46,2.46,0,0,0-1.463-1.18l-.159-.059-.006-.16c-.023-.532-.059-1.08-.119-1.625-.031-.272-.066-.547-.122-.807A1.582,1.582,0,0,0,361.3,137c-.029-.06-.016-.015-.057-.053a.918.918,0,0,0-.154-.065,16.224,16.224,0,0,0-3.366-.38l-.24-.012.007-.236c.017-.567.041-1.2.016-1.8a1.891,1.891,0,0,0-.214-.616c-.1-.222-.2-.44-.315-.655a7.885,7.885,0,0,0-.752-1.214,2.031,2.031,0,0,0-.467-.458.447.447,0,0,0-.489-.056,11.917,11.917,0,0,0-1.3.594c-1.716.892-3.382,1.868-5.017,2.838l-.24.142-.1-.258q-1.3-3.265-2.574-6.444l-1.259-3.154a1.308,1.308,0,0,0-1.01-.946,1.023,1.023,0,0,0-1.2.439,1.07,1.07,0,0,0-.14.654c.027.2.128.515.188.766q.21.8.416,1.584.414,1.576.821,3.123l1.593,6.068.008.032,0,.033c-.183,3.774-.358,7.4-.525,10.845l0,.025-.007.024c-3.473,11.3-6.354,20.677-8.373,27.247-1.014,3.257-1.812,5.816-2.362,7.585q-.411,1.284-.636,1.989c-.147.449-.237.676-.237.676s.051-.239.178-.694q.205-.71.579-2.006l2.259-7.616c1.98-6.583,4.805-15.974,8.212-27.3l-.008.048c.156-3.449.321-7.071.492-10.846l.006.064q-.786-2.97-1.607-6.064l-.827-3.122q-.208-.787-.419-1.582c-.065-.281-.149-.494-.2-.834a1.538,1.538,0,0,1,.2-.936,1.422,1.422,0,0,1,.745-.626,1.773,1.773,0,0,1,.95-.03,1.883,1.883,0,0,1,.842.429,1.858,1.858,0,0,1,.5.792q.626,1.565,1.263,3.153l2.58,6.443-.343-.116c1.642-.977,3.306-1.951,5.043-2.857a12.2,12.2,0,0,1,1.364-.622,1.043,1.043,0,0,1,.463-.065,1,1,0,0,1,.436.174,2.5,2.5,0,0,1,.582.563,8.332,8.332,0,0,1,.8,1.292c.115.223.224.449.326.678a2.25,2.25,0,0,1,.255.78c.028.652,0,1.264-.015,1.846l-.233-.248a16.207,16.207,0,0,1,3.51.407,1.317,1.317,0,0,1,.237.1.59.59,0,0,1,.237.24,1.94,1.94,0,0,1,.152.466c.063.29.1.574.13.855.062.563.1,1.114.12,1.661l-.165-.218a2.905,2.905,0,0,1,1.757,1.452,13.9,13.9,0,0,1,.44,2.128,3.343,3.343,0,0,1-.022,1.117.977.977,0,0,1-.334.568,4.88,4.88,0,0,1-.469.279l-1.761.984.12-.181c-.207,1.92-.4,3.812-.656,5.675l-.059.357a.916.916,0,0,1-.17.4,6.261,6.261,0,0,1-.453.564c-.309.352-.626.688-.943,1.019-.636.661-1.275,1.3-1.913,1.924l.063-.11-5.578,23.539-2.37,9.964a38.883,38.883,0,0,1-1.215,4.433,25.108,25.108,0,0,1-1.75,3.832,21.818,21.818,0,0,1-4.474,5.563,9.142,9.142,0,0,1-4.829,2.154,7.082,7.082,0,0,1-3.293-.333,4.86,4.86,0,0,1-.781-.354A1.611,1.611,0,0,1,333.011,204.368Z" transform="translate(-333.011 -123.734)" fill="#eb996e"/>
              </g>
              <g id="Grupo_959674" data-name="Grupo 959674" transform="translate(19.954 12.25)">
                <path id="Trazado_630813" data-name="Trazado 630813" d="M359.479,137.325c0,.068-.312.1-.8.125a9.2,9.2,0,0,0-1.831.217,3.619,3.619,0,0,0-1.56.834c-.336.313-.483.58-.551.551s-.017-.352.3-.776a3.093,3.093,0,0,1,1.692-1.072,5.343,5.343,0,0,1,1.964-.092C359.188,137.176,359.483,137.26,359.479,137.325Z" transform="translate(-354.72 -137.062)" fill="#eb996e"/>
              </g>
              <g id="Grupo_959675" data-name="Grupo 959675" transform="translate(21.918 11.506)">
                <path id="Trazado_630814" data-name="Trazado 630814" d="M356.955,137.361c-.123-.047-.131-.331-.017-.634s.306-.513.43-.467.131.331.017.634S357.079,137.407,356.955,137.361Z" transform="translate(-356.857 -136.253)" fill="#eb996e"/>
              </g>
              <g id="Grupo_959676" data-name="Grupo 959676" transform="translate(24.38 15.807)">
                <path id="Trazado_630815" data-name="Trazado 630815" d="M364.176,141.076a8.629,8.629,0,0,1-2.728.378,1.864,1.864,0,0,0-1.518.731c-.243.375-.162.688-.232.707-.044.042-.293-.31-.071-.859a1.5,1.5,0,0,1,.657-.73,2.914,2.914,0,0,1,1.106-.324A7.762,7.762,0,0,1,364.176,141.076Z" transform="translate(-359.536 -140.932)" fill="#eb996e"/>
              </g>
              <g id="Grupo_959677" data-name="Grupo 959677" transform="translate(28.09 19.258)">
                <path id="Trazado_630816" data-name="Trazado 630816" d="M363.889,144.687c.132.006.209.685.171,1.518s-.175,1.5-.307,1.5-.209-.686-.171-1.518S363.757,144.681,363.889,144.687Z" transform="translate(-363.573 -144.687)" fill="#eb996e"/>
              </g>
            </g>
          </g>
        </g>
        <g id="Grupo_959683" data-name="Grupo 959683" transform="translate(2.352 75.367)">
          <path id="Trazado_630819" data-name="Trazado 630819" d="M315.785,153.977c.022.018-.342.353-.817,1.092a9.346,9.346,0,0,0-1.246,3.471,25.08,25.08,0,0,0-.165,5.507c.1,2.081.269,4.365.524,6.755a118.556,118.556,0,0,0,1.939,12.151c.327,1.541.621,2.782.825,3.64l.236.987c.052.226.07.347.07.347s-.042-.115-.107-.337c-.077-.279-.167-.6-.272-.979-.226-.852-.54-2.089-.884-3.629a107.681,107.681,0,0,1-2-12.16c-.255-2.394-.418-4.683-.51-6.767a24.549,24.549,0,0,1,.209-5.538,9.141,9.141,0,0,1,1.317-3.488A5.536,5.536,0,0,1,315.785,153.977Z" transform="translate(-313.322 -153.977)" fill="#fff"/>
        </g>
        <g id="Grupo_959684" data-name="Grupo 959684" transform="translate(4.816 62.871)">
          <path id="Trazado_630820" data-name="Trazado 630820" d="M335.344,140.382a1.166,1.166,0,0,1-.207.112l-.607.29c-.526.251-1.285.62-2.2,1.125a79.217,79.217,0,0,0-6.906,4.316c-2.624,1.8-4.951,3.509-6.65,4.723l-2.018,1.428-.556.38a1.115,1.115,0,0,1-.2.121,1.085,1.085,0,0,1,.178-.153l.535-.408,1.982-1.478c1.678-1.242,3.994-2.965,6.622-4.772a69.023,69.023,0,0,1,6.951-4.278c.923-.491,1.693-.843,2.231-1.074l.622-.256A1.009,1.009,0,0,1,335.344,140.382Z" transform="translate(-316.002 -140.381)" fill="#fff"/>
        </g>
        <g id="Grupo_959685" data-name="Grupo 959685" transform="translate(50.944 61.382)">
          <path id="Trazado_630821" data-name="Trazado 630821" d="M383.237,146.23a.748.748,0,0,1-.153-.116l-.414-.358a16.441,16.441,0,0,0-1.61-1.2,32.71,32.71,0,0,0-5.908-2.99,60.022,60.022,0,0,0-6.3-2.1c-.819-.227-1.487-.394-1.949-.508l-.531-.135a.724.724,0,0,1-.183-.061.742.742,0,0,1,.191.023l.54.1c.467.092,1.142.239,1.967.45a51.031,51.031,0,0,1,6.337,2.05,29.978,29.978,0,0,1,5.914,3.056A11.674,11.674,0,0,1,383.237,146.23Z" transform="translate(-366.188 -138.762)" fill="#fff"/>
        </g>
        <g id="Grupo_959686" data-name="Grupo 959686" transform="translate(21.021 131.161)">
          <path id="Trazado_630822" data-name="Trazado 630822" d="M337.03,222.528a1.3,1.3,0,0,1-.358-.123,6.067,6.067,0,0,1-.912-.487,4.435,4.435,0,0,1-2-2.707,5.3,5.3,0,0,1,.356-3.364,4.641,4.641,0,0,1,.532-.889,1.254,1.254,0,0,1,.255-.279,10.721,10.721,0,0,0-.664,1.222,5.444,5.444,0,0,0-.293,3.267,4.474,4.474,0,0,0,1.889,2.638C336.541,222.3,337.046,222.5,337.03,222.528Z" transform="translate(-333.633 -214.679)" fill="#fff"/>
        </g>
        <g id="Grupo_959687" data-name="Grupo 959687" transform="translate(21.481 129.059)">
          <path id="Trazado_630823" data-name="Trazado 630823" d="M334.145,212.392a7.961,7.961,0,0,1,.691,2.362,7.959,7.959,0,0,1-.691-2.362Z" transform="translate(-334.133 -212.392)" fill="#fff"/>
        </g>
        <g id="Grupo_959741" data-name="Grupo 959741" transform="translate(11.09 138.996)">
          <g id="Grupo_959688" data-name="Grupo 959688">
            <path id="Trazado_630824" data-name="Trazado 630824" d="M345.658,419.343,373.7,419.2l-.508-96.931-.261-98.6-37.972-.472-6.826,12.87a46.211,46.211,0,0,0-5.253,16.68c-.477,4.454,2.86,18.98,4.026,22.677l10.452,33.145Z" transform="translate(-322.829 -223.203)" fill="#263238"/>
            <path id="Trazado_630825" data-name="Trazado 630825" d="M383.743,223.851l30.806,83.983a38.74,38.74,0,0,1-3.8,32.812L374.984,410.46,354.873,385.3,384.8,322.759l-26.383-42.744,4.439-56.075,12.427-.2Z" transform="translate(-325.42 -223.246)" fill="#263238"/>
          </g>
          <g id="Grupo_959689" data-name="Grupo 959689" transform="translate(47.53 28.74)">
            <path id="Trazado_630826" data-name="Trazado 630826" d="M374.546,254.471s.023.146.043.431c.019.305.046.725.08,1.266.061,1.135.148,2.772.259,4.869.206,4.251.5,10.364.866,17.91.348,7.569.763,16.572,1.223,26.566.224,5,.461,10.248.706,15.689.175,2.719.095,5.492.127,8.3q.012,4.219.026,8.554c.039,23.1.074,44.008.1,59.168-.01,7.554-.018,13.674-.025,17.93-.013,2.1-.024,3.738-.031,4.875-.008.54-.015.961-.019,1.267-.007.286-.024.432-.024.432s-.017-.146-.026-.432l-.027-1.267c-.014-1.137-.034-2.775-.059-4.874-.03-4.256-.074-10.374-.128-17.928-.062-15.158-.146-36.064-.239-59.16q-.012-4.332-.024-8.553c-.03-2.812.051-5.585-.12-8.3-.234-5.44-.461-10.687-.677-15.687-.421-9.995-.8-19-1.12-26.567-.3-7.547-.544-13.662-.713-17.915-.074-2.1-.131-3.735-.17-4.872-.014-.54-.025-.961-.032-1.267C374.536,254.618,374.546,254.471,374.546,254.471Z" transform="translate(-374.54 -254.471)" fill="#455a64"/>
          </g>
          <g id="Grupo_959690" data-name="Grupo 959690" transform="translate(46.812 2.262)">
            <path id="Trazado_630827" data-name="Trazado 630827" d="M373.781,225.664a3.49,3.49,0,0,1,.194.913c.1.591.21,1.449.332,2.513.246,2.126.5,5.074.653,8.337s.154,6.223.1,8.363c-.026,1.07-.062,1.936-.1,2.532a3.487,3.487,0,0,1-.112.926,28.533,28.533,0,0,1-.122-3.46c-.034-2.136-.1-5.086-.242-8.34s-.351-6.2-.51-8.327A28.454,28.454,0,0,1,373.781,225.664Z" transform="translate(-373.759 -225.664)" fill="#455a64"/>
          </g>
          <g id="Grupo_959691" data-name="Grupo 959691" transform="translate(39.64 3.912)">
            <path id="Trazado_630828" data-name="Trazado 630828" d="M366.972,227.7a2.254,2.254,0,0,0-.621,1.048,1.19,1.19,0,0,0,.357,1.12,1.223,1.223,0,0,0,2.089-.957,1.192,1.192,0,0,0-.616-1,2.237,2.237,0,0,0-1.2-.213c-.012-.025.088-.122.326-.191a1.569,1.569,0,0,1,1.929,1.383,1.645,1.645,0,0,1-2.835,1.3,1.569,1.569,0,0,1,.213-2.364C366.823,227.688,366.961,227.675,366.972,227.7Z" transform="translate(-365.956 -227.459)" fill="#455a64"/>
          </g>
          <g id="Grupo_959692" data-name="Grupo 959692" transform="translate(11.229 2.489)">
            <path id="Trazado_630829" data-name="Trazado 630829" d="M349.763,225.911a2.748,2.748,0,0,1,.252.88,8.715,8.715,0,0,1,.082,2.5,10.059,10.059,0,0,1-1.061,3.562,9.428,9.428,0,0,1-7.183,5.156,10.071,10.071,0,0,1-3.713-.134A8.721,8.721,0,0,1,335.8,237a2.735,2.735,0,0,1-.753-.52,15.841,15.841,0,0,0,3.161,1.064,9.65,9.65,0,0,0,11.555-8.293A15.952,15.952,0,0,0,349.763,225.911Z" transform="translate(-335.045 -225.911)" fill="#455a64"/>
          </g>
          <g id="Grupo_959693" data-name="Grupo 959693" transform="translate(54.559 2.41)">
            <path id="Trazado_630830" data-name="Trazado 630830" d="M389.639,233.95a3.719,3.719,0,0,1-1.766-.209A8.205,8.205,0,0,1,382.3,227.6a3.72,3.72,0,0,1-.038-1.778c.086,0,.09.676.368,1.7a8.883,8.883,0,0,0,5.35,5.9C388.976,233.8,389.649,233.866,389.639,233.95Z" transform="translate(-382.187 -225.825)" fill="#455a64"/>
          </g>
          <g id="Grupo_959694" data-name="Grupo 959694" transform="translate(61.415 98.313)">
            <path id="Trazado_630831" data-name="Trazado 630831" d="M401.193,332.929a5.821,5.821,0,0,1-1.625,1.292,7.509,7.509,0,0,1-2.091.914,5.04,5.04,0,0,1-2.822-.074,8.211,8.211,0,0,1-3.927-3.125,7.288,7.288,0,0,1-1.077-1.768,11.33,11.33,0,0,1,1.344,1.56A8.712,8.712,0,0,0,394.8,334.6a5.893,5.893,0,0,0,4.6-.677A19.016,19.016,0,0,1,401.193,332.929Z" transform="translate(-389.647 -330.165)" fill="#455a64"/>
          </g>
          <g id="Grupo_959695" data-name="Grupo 959695" transform="translate(60.524 98.827)">
            <path id="Trazado_630832" data-name="Trazado 630832" d="M394.1,338.338a45.575,45.575,0,0,1-5.413-7.611,45.679,45.679,0,0,1,5.413,7.611Z" transform="translate(-388.677 -330.724)" fill="#455a64"/>
          </g>
          <g id="Grupo_959696" data-name="Grupo 959696" transform="translate(17.776 29.454)">
            <path id="Trazado_630833" data-name="Trazado 630833" d="M343.231,257.794c-.122.05-.449-.48-.731-1.182s-.409-1.311-.286-1.36.449.48.731,1.182S343.355,257.745,343.231,257.794Z" transform="translate(-342.168 -255.249)" fill="#fafafa"/>
          </g>
          <g id="Grupo_959697" data-name="Grupo 959697" transform="translate(36.397 32.508)">
            <path id="Trazado_630834" data-name="Trazado 630834" d="M362.667,260.605c-.132,0-.24-.455-.24-1.017s.108-1.017.24-1.017.239.456.239,1.017S362.8,260.605,362.667,260.605Z" transform="translate(-362.427 -258.571)" fill="#fafafa"/>
          </g>
          <g id="Grupo_959698" data-name="Grupo 959698" transform="translate(28.983 41.663)">
            <path id="Trazado_630835" data-name="Trazado 630835" d="M354.7,271.073c-.131.009-.278-.552-.325-1.255s.021-1.279.153-1.288.278.553.325,1.256S354.833,271.065,354.7,271.073Z" transform="translate(-354.361 -268.531)" fill="#fafafa"/>
          </g>
          <g id="Grupo_959699" data-name="Grupo 959699" transform="translate(14.091 49.912)">
            <path id="Trazado_630836" data-name="Trazado 630836" d="M340.026,278.916c-.109.081-.488-.257-.981-.611s-.927-.616-.883-.744.608-.05,1.165.358S340.132,278.843,340.026,278.916Z" transform="translate(-338.159 -277.506)" fill="#fafafa"/>
          </g>
          <g id="Grupo_959700" data-name="Grupo 959700" transform="translate(39.48 58.769)">
            <path id="Trazado_630837" data-name="Trazado 630837" d="M365.82,288.679c-.11-.074.029-.474.309-.9s.6-.7.708-.631-.028.474-.31.9S365.929,288.752,365.82,288.679Z" transform="translate(-365.782 -287.142)" fill="#fafafa"/>
          </g>
          <g id="Grupo_959701" data-name="Grupo 959701" transform="translate(24.701 59.458)">
            <path id="Trazado_630838" data-name="Trazado 630838" d="M349.943,291.282c-.132,0-.24-.759-.24-1.695s.108-1.695.24-1.695.239.758.239,1.695S350.075,291.282,349.943,291.282Z" transform="translate(-349.703 -287.892)" fill="#fafafa"/>
          </g>
          <g id="Grupo_959702" data-name="Grupo 959702" transform="translate(18.34 71.776)">
            <path id="Trazado_630839" data-name="Trazado 630839" d="M344.658,302.675c-.077.108-.558-.109-1.073-.483s-.87-.765-.792-.871.558.109,1.074.483S344.736,302.569,344.658,302.675Z" transform="translate(-342.783 -301.293)" fill="#fafafa"/>
          </g>
          <g id="Grupo_959703" data-name="Grupo 959703" transform="translate(33.41 76.682)">
            <path id="Trazado_630840" data-name="Trazado 630840" d="M360.709,306.7c.053.121-.244.37-.665.558s-.807.241-.86.12.245-.37.665-.558S360.655,306.575,360.709,306.7Z" transform="translate(-359.177 -306.631)" fill="#fafafa"/>
          </g>
          <g id="Grupo_959704" data-name="Grupo 959704" transform="translate(23.219 90.133)">
            <path id="Trazado_630841" data-name="Trazado 630841" d="M349.813,324.659c-.119.059-.594-.653-1.062-1.588s-.752-1.743-.633-1.8.593.652,1.062,1.588S349.93,324.6,349.813,324.659Z" transform="translate(-348.091 -321.265)" fill="#fafafa"/>
          </g>
          <g id="Grupo_959705" data-name="Grupo 959705" transform="translate(41.18 89.454)">
            <path id="Trazado_630842" data-name="Trazado 630842" d="M367.664,323.074c-.117-.062.092-.682.467-1.384s.772-1.221.889-1.158-.093.681-.467,1.383S367.781,323.135,367.664,323.074Z" transform="translate(-367.632 -320.526)" fill="#fafafa"/>
          </g>
          <g id="Grupo_959706" data-name="Grupo 959706" transform="translate(33.551 103.014)">
            <path id="Trazado_630843" data-name="Trazado 630843" d="M359.874,338.5c-.136-.02-.125-.745-.267-1.608s-.365-1.551-.243-1.612.569.589.716,1.538S360,338.53,359.874,338.5Z" transform="translate(-359.331 -335.279)" fill="#fafafa"/>
          </g>
          <g id="Grupo_959707" data-name="Grupo 959707" transform="translate(24.753 112.496)">
            <path id="Trazado_630844" data-name="Trazado 630844" d="M351.472,347.474c-.1.089-.556-.256-1.024-.771s-.768-1-.671-1.093.557.256,1.025.771S351.571,347.386,351.472,347.474Z" transform="translate(-349.759 -345.596)" fill="#fafafa"/>
          </g>
          <g id="Grupo_959708" data-name="Grupo 959708" transform="translate(44.963 115.569)">
            <path id="Trazado_630845" data-name="Trazado 630845" d="M371.763,350.831c-.094-.092.244-.588.755-1.107s1-.864,1.1-.771-.244.588-.755,1.107S371.856,350.924,371.763,350.831Z" transform="translate(-371.747 -348.939)" fill="#fafafa"/>
          </g>
          <g id="Grupo_959709" data-name="Grupo 959709" transform="translate(34.232 126.582)">
            <path id="Trazado_630846" data-name="Trazado 630846" d="M360.171,363.978c-.131-.019-.132-.721,0-1.564s.338-1.513.469-1.493.132.72,0,1.564S360.3,364,360.171,363.978Z" transform="translate(-360.072 -360.92)" fill="#fafafa"/>
          </g>
          <g id="Grupo_959710" data-name="Grupo 959710" transform="translate(25.756 133.184)">
            <path id="Trazado_630847" data-name="Trazado 630847" d="M352.261,370.468c-.114.067-.516-.407-.9-1.058s-.6-1.233-.483-1.3.516.407.9,1.059S352.375,370.4,352.261,370.468Z" transform="translate(-350.85 -368.103)" fill="#fafafa"/>
          </g>
          <g id="Grupo_959711" data-name="Grupo 959711" transform="translate(42.046 142.987)">
            <path id="Trazado_630848" data-name="Trazado 630848" d="M370.954,378.791c.076.108-.392.574-1.047,1.043s-1.247.762-1.324.654.392-.574,1.046-1.043S370.876,378.684,370.954,378.791Z" transform="translate(-368.574 -378.769)" fill="#fafafa"/>
          </g>
          <g id="Grupo_959712" data-name="Grupo 959712" transform="translate(30.003 149.292)">
            <path id="Trazado_630849" data-name="Trazado 630849" d="M355.519,389.025c-.129-.046.036-.787.112-1.7s.053-1.671.188-1.695.38.751.29,1.737S355.637,389.074,355.519,389.025Z" transform="translate(-355.471 -385.628)" fill="#fafafa"/>
          </g>
          <g id="Grupo_959713" data-name="Grupo 959713" transform="translate(34.407 164.871)">
            <path id="Trazado_630850" data-name="Trazado 630850" d="M361.644,404.286c-.1.083-.491-.23-.865-.7s-.595-.915-.492-1,.491.231.865.7S361.747,404.2,361.644,404.286Z" transform="translate(-360.262 -402.578)" fill="#fafafa"/>
          </g>
          <g id="Grupo_959714" data-name="Grupo 959714" transform="translate(27.632 173.182)">
            <path id="Trazado_630851" data-name="Trazado 630851" d="M354.777,414.34c-.109.074-.615-.472-1.13-1.221s-.844-1.416-.735-1.492.615.472,1.13,1.221S354.886,414.264,354.777,414.34Z" transform="translate(-352.892 -411.621)" fill="#fafafa"/>
          </g>
          <g id="Grupo_959715" data-name="Grupo 959715" transform="translate(46.721 162.845)">
            <path id="Trazado_630852" data-name="Trazado 630852" d="M373.745,401.735c-.124-.047-.11-.388.03-.762s.355-.641.478-.594.11.387-.029.762S373.869,401.781,373.745,401.735Z" transform="translate(-373.66 -400.374)" fill="#fafafa"/>
          </g>
          <g id="Grupo_959716" data-name="Grupo 959716" transform="translate(39.145 183.359)">
            <path id="Trazado_630853" data-name="Trazado 630853" d="M365.451,425.744c-.121-.063.109-.718.288-1.537s.254-1.507.39-1.514.278.728.077,1.618S365.561,425.807,365.451,425.744Z" transform="translate(-365.417 -422.693)" fill="#fafafa"/>
          </g>
          <g id="Grupo_959717" data-name="Grupo 959717" transform="translate(43.216 42.494)">
            <path id="Trazado_630854" data-name="Trazado 630854" d="M370.766,271.3c-.12.056-.412-.314-.651-.826s-.337-.972-.218-1.029.412.313.651.825S370.886,271.239,370.766,271.3Z" transform="translate(-369.846 -269.435)" fill="#fafafa"/>
          </g>
          <g id="Grupo_959718" data-name="Grupo 959718" transform="translate(28.816 15.709)">
            <path id="Trazado_630855" data-name="Trazado 630855" d="M356.745,240.313c.073.117-.574.634-1.257,1.369s-1.164,1.408-1.285,1.344.2-.887.936-1.671S356.683,240.2,356.745,240.313Z" transform="translate(-354.18 -240.294)" fill="#fafafa"/>
          </g>
          <g id="Grupo_959719" data-name="Grupo 959719" transform="translate(41.532 13.005)">
            <path id="Trazado_630856" data-name="Trazado 630856" d="M369.22,239.736c-.132.028-.349-.518-.668-1.149s-.62-1.133-.517-1.223.6.313.946,1.009S369.347,239.715,369.22,239.736Z" transform="translate(-368.014 -237.352)" fill="#fafafa"/>
          </g>
          <g id="Grupo_959720" data-name="Grupo 959720" transform="translate(7.31 22.179)">
            <path id="Trazado_630857" data-name="Trazado 630857" d="M330.829,249.883c-.123-.048,0-.658.28-1.361s.6-1.233.726-1.185,0,.658-.281,1.361S330.951,249.931,330.829,249.883Z" transform="translate(-330.782 -247.334)" fill="#fafafa"/>
          </g>
          <g id="Grupo_959721" data-name="Grupo 959721" transform="translate(6.454 36.895)">
            <path id="Trazado_630858" data-name="Trazado 630858" d="M331.9,265.059c-.085.1-.608-.2-1.17-.664s-.949-.93-.864-1.031.608.2,1.171.664S331.981,264.958,331.9,265.059Z" transform="translate(-329.85 -263.344)" fill="#fafafa"/>
          </g>
          <g id="Grupo_959722" data-name="Grupo 959722" transform="translate(30.976 3.012)">
            <path id="Trazado_630859" data-name="Trazado 630859" d="M357.275,228.179c-.123.049-.374-.29-.562-.758s-.239-.888-.117-.937.374.29.562.758S357.4,228.13,357.275,228.179Z" transform="translate(-356.53 -226.48)" fill="#fafafa"/>
          </g>
          <g id="Grupo_959723" data-name="Grupo 959723" transform="translate(53.864 9.126)">
            <path id="Trazado_630860" data-name="Trazado 630860" d="M381.52,235.5c-.129-.028-.117-.582.027-1.236s.364-1.163.493-1.134.118.582-.026,1.236S381.65,235.532,381.52,235.5Z" transform="translate(-381.431 -233.132)" fill="#fafafa"/>
          </g>
          <g id="Grupo_959724" data-name="Grupo 959724" transform="translate(59.139 19.115)">
            <path id="Trazado_630861" data-name="Trazado 630861" d="M387.21,246.884c-.122-.051.044-.736.371-1.531s.693-1.4.815-1.35-.045.736-.372,1.532S387.333,246.935,387.21,246.884Z" transform="translate(-387.17 -244)" fill="#fafafa"/>
          </g>
          <g id="Grupo_959725" data-name="Grupo 959725" transform="translate(53.895 27.42)">
            <path id="Trazado_630862" data-name="Trazado 630862" d="M383.02,256.09c-.119.059-.556-.576-.977-1.419s-.666-1.573-.549-1.632.556.576.977,1.418S383.138,256.03,383.02,256.09Z" transform="translate(-381.465 -253.035)" fill="#fafafa"/>
          </g>
          <g id="Grupo_959726" data-name="Grupo 959726" transform="translate(63.361 36.743)">
            <path id="Trazado_630863" data-name="Trazado 630863" d="M391.819,265.385c-.123-.048-.034-.579.2-1.188s.524-1.063.647-1.016.034.578-.2,1.188S391.942,265.432,391.819,265.385Z" transform="translate(-391.764 -263.178)" fill="#fafafa"/>
          </g>
          <g id="Grupo_959727" data-name="Grupo 959727" transform="translate(55.404 45.886)">
            <path id="Trazado_630864" data-name="Trazado 630864" d="M384,274.495c-.112.07-.392-.177-.627-.551s-.333-.734-.221-.805.392.177.627.551S384.113,274.425,384,274.495Z" transform="translate(-383.107 -273.126)" fill="#fafafa"/>
          </g>
          <g id="Grupo_959728" data-name="Grupo 959728" transform="translate(55.599 61.995)">
            <path id="Trazado_630865" data-name="Trazado 630865" d="M385.537,293.036c-.1.09-.669-.369-1.278-1.024s-1.023-1.259-.926-1.349.669.369,1.278,1.024S385.633,292.946,385.537,293.036Z" transform="translate(-383.319 -290.652)" fill="#fafafa"/>
          </g>
          <g id="Grupo_959729" data-name="Grupo 959729" transform="translate(65.262 52.16)">
            <path id="Trazado_630866" data-name="Trazado 630866" d="M395.715,282.334c-.1.082-.606-.383-1.12-1.039s-.848-1.253-.745-1.335.606.383,1.12,1.04S395.819,282.253,395.715,282.334Z" transform="translate(-393.831 -279.952)" fill="#fafafa"/>
          </g>
          <g id="Grupo_959730" data-name="Grupo 959730" transform="translate(72.23 65.237)">
            <path id="Trazado_630867" data-name="Trazado 630867" d="M401.446,297.06c-.119-.057.089-.747.466-1.541s.779-1.393.9-1.336-.089.746-.466,1.541S401.566,297.117,401.446,297.06Z" transform="translate(-401.412 -294.179)" fill="#fafafa"/>
          </g>
          <g id="Grupo_959731" data-name="Grupo 959731" transform="translate(59.174 77.225)">
            <path id="Trazado_630868" data-name="Trazado 630868" d="M389.417,309.285c-.117.071-.543-.439-1.135-.981s-1.13-.931-1.068-1.052.747.1,1.393.7S389.529,309.224,389.417,309.285Z" transform="translate(-387.209 -307.222)" fill="#fafafa"/>
          </g>
          <g id="Grupo_959732" data-name="Grupo 959732" transform="translate(60.027 90.576)">
            <path id="Trazado_630869" data-name="Trazado 630869" d="M390.17,321.986c0,.132-.456.239-1.017.239s-1.017-.107-1.017-.239.455-.239,1.017-.239S390.17,321.854,390.17,321.986Z" transform="translate(-388.136 -321.747)" fill="#fafafa"/>
          </g>
          <g id="Grupo_959733" data-name="Grupo 959733" transform="translate(73.216 84.882)">
            <path id="Trazado_630870" data-name="Trazado 630870" d="M402.516,318.264c-.116-.072.12-.644.3-1.367s.245-1.336.381-1.345.286.657.083,1.461S402.622,318.337,402.516,318.264Z" transform="translate(-402.486 -315.553)" fill="#fafafa"/>
          </g>
          <g id="Grupo_959734" data-name="Grupo 959734" transform="translate(83.25 88.423)">
            <path id="Trazado_630871" data-name="Trazado 630871" d="M414.513,322.441c-.125.043-.464-.6-.758-1.438s-.431-1.552-.306-1.6.464.6.758,1.438S414.638,322.4,414.513,322.441Z" transform="translate(-413.403 -319.405)" fill="#fafafa"/>
          </g>
          <g id="Grupo_959735" data-name="Grupo 959735" transform="translate(82.564 104.039)">
            <path id="Trazado_630872" data-name="Trazado 630872" d="M412.683,339.622c-.118-.061.165-.833.632-1.722s.939-1.562,1.057-1.5-.166.833-.633,1.723S412.8,339.684,412.683,339.622Z" transform="translate(-412.656 -336.395)" fill="#fafafa"/>
          </g>
          <g id="Grupo_959736" data-name="Grupo 959736" transform="translate(71.165 113.528)">
            <path id="Trazado_630873" data-name="Trazado 630873" d="M401.536,349.748c-.122.051-.5-.586-.843-1.422s-.523-1.555-.4-1.606.5.587.843,1.424S401.659,349.7,401.536,349.748Z" transform="translate(-400.255 -346.718)" fill="#fafafa"/>
          </g>
          <g id="Grupo_959737" data-name="Grupo 959737" transform="translate(59.518 119.898)">
            <path id="Trazado_630874" data-name="Trazado 630874" d="M389.278,353.888c0,.132-.38.24-.847.24s-.847-.108-.847-.24.379-.239.847-.239S389.278,353.756,389.278,353.888Z" transform="translate(-387.583 -353.649)" fill="#fafafa"/>
          </g>
          <g id="Grupo_959738" data-name="Grupo 959738" transform="translate(66.904 132.339)">
            <path id="Trazado_630875" data-name="Trazado 630875" d="M396.368,369.728c-.128.035-.383-.507-.57-1.209s-.236-1.3-.108-1.334.383.507.571,1.21S396.5,369.7,396.368,369.728Z" transform="translate(-395.618 -367.184)" fill="#fafafa"/>
          </g>
          <g id="Grupo_959739" data-name="Grupo 959739" transform="translate(59.478 128.264)">
            <path id="Trazado_630876" data-name="Trazado 630876" d="M387.579,364.455c-.114-.068.022-.5.3-.971s.6-.792.714-.724-.022.5-.3.971S387.693,364.523,387.579,364.455Z" transform="translate(-387.539 -362.751)" fill="#fafafa"/>
          </g>
          <g id="Grupo_959740" data-name="Grupo 959740" transform="translate(58.887 143.358)">
            <path id="Trazado_630877" data-name="Trazado 630877" d="M387.357,382.054c-.131.016-.313-.618-.407-1.413s-.062-1.453.068-1.469.313.617.407,1.413S387.489,382.039,387.357,382.054Z" transform="translate(-386.896 -379.173)" fill="#fafafa"/>
          </g>
        </g>
      </g>
    </g>
  </g>
</svg>
