<svg xmlns="http://www.w3.org/2000/svg" xmlns:xlink="http://www.w3.org/1999/xlink" width="85" height="85" viewBox="0 0 85 85">
  <defs>
    <clipPath id="clip-path">
      <rect id="Rect치ngulo_306893" data-name="Rect치ngulo 306893" width="59" height="59" transform="translate(874 15469)" fill="#f0bd51"/>
    </clipPath>
  </defs>
  <g id="Grupo_956742" data-name="Grupo 956742" transform="translate(-861 -15407.133)">
    <rect id="Rect치ngulo_306800" data-name="Rect치ngulo 306800" width="85" height="85" transform="translate(861 15407.133)" fill="#583cb6"/>
    <g id="Enmascarar_grupo_878412" data-name="Enmascarar grupo 878412" transform="translate(0 -48.867)" clip-path="url(#clip-path)">
      <g id="escritorio-de-oficina" transform="translate(874 15469)">
        <g id="Grupo_956710" data-name="Grupo 956710">
          <path id="Trazado_629951" data-name="Trazado 629951" d="M24.775,18.073h3.457v4.2H24.775Z" fill="#918291"/>
          <path id="Trazado_629952" data-name="Trazado 629952" d="M32.842,25.5V24a1.729,1.729,0,0,0-1.729-1.729H21.895A1.729,1.729,0,0,0,20.166,24v1.5Z" fill="#a79ba7"/>
          <path id="Trazado_629953" data-name="Trazado 629953" d="M24.775,25.5V24A1.729,1.729,0,0,1,26.5,22.272H21.895A1.729,1.729,0,0,0,20.166,24v1.5Z" fill="#918291"/>
          <g id="Grupo_956708" data-name="Grupo 956708">
            <path id="Trazado_629954" data-name="Trazado 629954" d="M36.875,18.073H16.133a.576.576,0,0,1-.576-.576V5.269a.576.576,0,0,1,.576-.576H36.875a.576.576,0,0,1,.576.576V17.5A.576.576,0,0,1,36.875,18.073Z" fill="#eaf6ff"/>
          </g>
          <g id="Grupo_956709" data-name="Grupo 956709">
            <path id="Trazado_629955" data-name="Trazado 629955" d="M20.166,17.5V5.269a.576.576,0,0,1,.576-.576H16.133a.576.576,0,0,0-.576.576V17.5a.576.576,0,0,0,.576.576h4.609A.576.576,0,0,1,20.166,17.5Z" fill="#d8ecfe"/>
          </g>
        </g>
        <g id="Grupo_956711" data-name="Grupo 956711">
          <path id="Trazado_629956" data-name="Trazado 629956" d="M6.771,25.5h4.2a3.8,3.8,0,0,0,1.7-3.169V18.3a.576.576,0,0,0-.576-.576H5.07V22.33a3.8,3.8,0,0,0,1.7,3.169Z" fill="#eaf6ff"/>
          <path id="Trazado_629957" data-name="Trazado 629957" d="M6.771,25.5H9.656A3.8,3.8,0,0,1,7.951,22.33V17.721H5.07V22.33A3.8,3.8,0,0,0,6.771,25.5Z" fill="#d8ecfe"/>
        </g>
        <g id="Grupo_956720" data-name="Grupo 956720">
          <g id="Grupo_956716" data-name="Grupo 956716">
            <g id="Grupo_956712" data-name="Grupo 956712">
              <path id="Trazado_629958" data-name="Trazado 629958" d="M55.649,25.5H40.217V20.313a.576.576,0,0,1,.576-.576H55.649Z" fill="#fed402"/>
            </g>
            <g id="Grupo_956713" data-name="Grupo 956713">
              <path id="Trazado_629959" data-name="Trazado 629959" d="M46.564,19.737H40.793a.576.576,0,0,0-.576.576V25.5h5.771V20.313A.576.576,0,0,1,46.564,19.737Z" fill="#fac600"/>
            </g>
            <g id="Grupo_956714" data-name="Grupo 956714">
              <path id="Trazado_629960" data-name="Trazado 629960" d="M55.649,22.618H40.217v-2.3a.576.576,0,0,1,.576-.576H55.649Z" fill="#fe6c55"/>
            </g>
            <g id="Grupo_956715" data-name="Grupo 956715">
              <path id="Trazado_629961" data-name="Trazado 629961" d="M46.564,19.737H40.793a.576.576,0,0,0-.576.576v2.3h5.771v-2.3A.576.576,0,0,1,46.564,19.737Z" fill="#fd544d"/>
            </g>
          </g>
          <g id="Grupo_956718" data-name="Grupo 956718">
            <g id="Grupo_956717" data-name="Grupo 956717">
              <path id="Trazado_629962" data-name="Trazado 629962" d="M57.56,19.737H42.7v-2.3a.576.576,0,0,1,.576-.576H57.56a.576.576,0,0,1,.576.576v1.729A.576.576,0,0,1,57.56,19.737Z" fill="#00c27a"/>
            </g>
          </g>
          <g id="Grupo_956719" data-name="Grupo 956719">
            <path id="Trazado_629963" data-name="Trazado 629963" d="M48.062,16.856H43.279a.576.576,0,0,0-.576.576v2.3h4.782v-2.3A.576.576,0,0,1,48.062,16.856Z" fill="#09a755"/>
          </g>
        </g>
        <path id="Trazado_629964" data-name="Trazado 629964" d="M6.165,28.534H32.9V39.788H6.165Z" fill="#ea9b58"/>
        <path id="Trazado_629965" data-name="Trazado 629965" d="M6.165,28.534h3.86V39.788H6.165Z" fill="#d88a55"/>
        <g id="Grupo_956727" data-name="Grupo 956727">
          <g id="Grupo_956721" data-name="Grupo 956721">
            <path id="Trazado_629966" data-name="Trazado 629966" d="M32.9,28.534H52.835v6.352H32.9Z" fill="#ea9b58"/>
          </g>
          <g id="Grupo_956722" data-name="Grupo 956722">
            <path id="Trazado_629967" data-name="Trazado 629967" d="M32.9,28.534h3.515v6.352H32.9Z" fill="#d88a55"/>
          </g>
          <g id="Grupo_956723" data-name="Grupo 956723">
            <path id="Trazado_629968" data-name="Trazado 629968" d="M32.9,34.886H52.835v6.352H32.9Z" fill="#f6a96c"/>
          </g>
          <g id="Grupo_956724" data-name="Grupo 956724">
            <path id="Trazado_629969" data-name="Trazado 629969" d="M32.9,34.886h3.515v6.352H32.9Z" fill="#ea9b58"/>
          </g>
          <g id="Grupo_956725" data-name="Grupo 956725">
            <path id="Trazado_629970" data-name="Trazado 629970" d="M52.835,49.755H33.476a.576.576,0,0,1-.576-.576V41.237H52.835Z" fill="#ea9b58"/>
          </g>
          <g id="Grupo_956726" data-name="Grupo 956726">
            <path id="Trazado_629971" data-name="Trazado 629971" d="M36.414,49.179V41.237H32.9v7.942a.576.576,0,0,0,.576.576H36.99A.576.576,0,0,1,36.414,49.179Z" fill="#d88a55"/>
          </g>
        </g>
        <path id="Trazado_629972" data-name="Trazado 629972" d="M2.708,28.534v25.2a.576.576,0,0,0,.576.576h2.3a.576.576,0,0,0,.576-.576v-25.2Z" fill="#a79ba7"/>
        <path id="Trazado_629973" data-name="Trazado 629973" d="M52.835,28.534v25.2a.576.576,0,0,0,.576.576h2.3a.576.576,0,0,0,.576-.576v-25.2Z" fill="#a79ba7"/>
        <g id="Grupo_956728" data-name="Grupo 956728">
          <path id="Trazado_629974" data-name="Trazado 629974" d="M57.56,25.5H1.44a.576.576,0,0,0-.576.576v1.883a.576.576,0,0,0,.576.576H57.56a.576.576,0,0,0,.576-.576V26.075A.576.576,0,0,0,57.56,25.5Z" fill="#f6a96c"/>
        </g>
        <g id="Grupo_956729" data-name="Grupo 956729">
          <path id="Trazado_629975" data-name="Trazado 629975" d="M6.684,27.958V26.075A.576.576,0,0,1,7.26,25.5H1.44a.576.576,0,0,0-.576.576v1.883a.576.576,0,0,0,.576.576H7.26A.576.576,0,0,1,6.684,27.958Z" fill="#ea9b58"/>
        </g>
        <g id="Grupo_956730" data-name="Grupo 956730">
          <path id="Trazado_629976" data-name="Trazado 629976" d="M41.369,32.558h3a.864.864,0,1,0,0-1.729h-3a.864.864,0,1,0,0,1.729Z"/>
          <path id="Trazado_629977" data-name="Trazado 629977" d="M41.369,38.91h3a.864.864,0,0,0,0-1.729h-3a.864.864,0,0,0,0,1.729Z"/>
          <path id="Trazado_629978" data-name="Trazado 629978" d="M41.369,45.262h3a.864.864,0,0,0,0-1.729h-3a.864.864,0,0,0,0,1.729Z"/>
          <path id="Trazado_629979" data-name="Trazado 629979" d="M57.56,20.6A1.442,1.442,0,0,0,59,19.161V17.432a1.442,1.442,0,0,0-1.44-1.44H43.279a1.442,1.442,0,0,0-1.44,1.44v1.44H40.793a1.442,1.442,0,0,0-1.44,1.44v4.321H33.706V24a2.6,2.6,0,0,0-2.593-2.593H29.1V18.937h7.778a1.442,1.442,0,0,0,1.44-1.44V13.482a.864.864,0,0,0-1.729,0v3.726H16.421V5.557H36.587V9.449a.864.864,0,1,0,1.729,0V5.269a1.442,1.442,0,0,0-1.44-1.44H16.133a1.442,1.442,0,0,0-1.44,1.44V17.5a1.442,1.442,0,0,0,1.44,1.44h7.778v2.471H21.895A2.6,2.6,0,0,0,19.3,24v.634H12.929a4.634,4.634,0,0,0,.611-2.3V18.3a1.442,1.442,0,0,0-1.44-1.44H3.688a2.6,2.6,0,0,0-2.593,2.593V20.6a2.6,2.6,0,0,0,2.593,2.593h.6a4.634,4.634,0,0,0,.532,1.44H1.44A1.442,1.442,0,0,0,0,26.075v1.883A1.442,1.442,0,0,0,1.44,29.4h.4V53.731a1.442,1.442,0,0,0,1.44,1.44h2.3a1.442,1.442,0,0,0,1.44-1.44V40.652h5.3a.864.864,0,0,0,0-1.729h-5.3V29.4H32.035v9.526H16.363a.864.864,0,0,0,0,1.729H32.035v8.527a1.442,1.442,0,0,0,1.44,1.44h18.5v3.111a1.442,1.442,0,0,0,1.44,1.44h2.3a1.442,1.442,0,0,0,1.44-1.44V36.414a.864.864,0,0,0-1.729,0V53.443H53.7V29.4h1.729v2.983a.864.864,0,0,0,1.729,0V29.4h.4A1.442,1.442,0,0,0,59,27.958V26.075a1.442,1.442,0,0,0-1.44-1.44H56.513V20.6Zm-53.354.864H3.688a.865.865,0,0,1-.864-.864V19.449a.865.865,0,0,1,.864-.864h.519ZM41.081,20.6h13.7v1.152h-13.7Zm0,2.881h13.7v1.152h-13.7ZM25.64,18.937h1.729v2.471H25.64ZM21.03,24a.865.865,0,0,1,.864-.864h9.219a.865.865,0,0,1,.864.864v.634H21.03Zm-15.1-5.416h5.877V22.33a2.934,2.934,0,0,1-1.119,2.3H7.053a2.934,2.934,0,0,1-1.119-2.3ZM5.3,53.443H3.572V29.4H5.3Zm46.67-4.552H33.764V42.1H51.971Zm0-8.518H33.764V35.75H51.971Zm0-6.352H33.764V29.4H51.971Zm5.3-7.658V27.67H1.729V26.363Zm-1.622-7.49H43.568V17.721h13.7v1.152Z"/>
          <path id="Trazado_629980" data-name="Trazado 629980" d="M33.648,7.433H25.006a.864.864,0,0,0,0,1.729h8.643a.864.864,0,0,0,0-1.729Z"/>
          <path id="Trazado_629981" data-name="Trazado 629981" d="M19.359,9.161h3a.864.864,0,0,0,0-1.729h-3a.864.864,0,0,0,0,1.729Z"/>
          <path id="Trazado_629982" data-name="Trazado 629982" d="M33.648,10.429H30.883a.864.864,0,0,0,0,1.729h2.766a.864.864,0,0,0,0-1.729Z"/>
          <path id="Trazado_629983" data-name="Trazado 629983" d="M28.751,11.293a.864.864,0,0,0-.864-.864H19.359a.864.864,0,0,0,0,1.729h8.527A.864.864,0,0,0,28.751,11.293Z"/>
          <path id="Trazado_629984" data-name="Trazado 629984" d="M19.359,13.425a.864.864,0,0,0,0,1.729h5.07a.864.864,0,0,0,0-1.729Z"/>
        </g>
      </g>
    </g>
  </g>
</svg>
