<svg xmlns="http://www.w3.org/2000/svg" xmlns:xlink="http://www.w3.org/1999/xlink" width="85" height="85" viewBox="0 0 85 85">
  <defs>
    <clipPath id="clip-path">
      <rect id="Rectángulo_307319" data-name="Rectángulo 307319" width="85" height="85" transform="translate(685 18396)" fill="#449c6e" stroke="#707070" stroke-width="1"/>
    </clipPath>
  </defs>
  <g id="Enmascarar_grupo_878453" data-name="Enmascarar grupo 878453" transform="translate(-685 -18396)" clip-path="url(#clip-path)">
    <g id="administracion" transform="translate(685 18396)">
      <path id="Trazado_633116" data-name="Trazado 633116" d="M35.859,34.531V54.453a2.942,2.942,0,0,0-.04-.491,2.71,2.71,0,0,0-2.311-2.152A2.248,2.248,0,0,0,33.2,51.8H30.547v9.3l5.312,5.312v7.969H9.3V67.734l5.312-5.312V55.781H11.953A2.664,2.664,0,0,0,9.3,58.437V34.531h6.641v2.656H29.219V34.531Z" fill="#f98800"/>
      <path id="Trazado_633117" data-name="Trazado 633117" d="M35.859,34.531,9.3,74.375H35.859Z" fill="#f05a29"/>
      <path id="Trazado_633118" data-name="Trazado 633118" d="M83.672,77.031v6.641H75.7l2.656-2.656-1.328-3.984h2.656L81.016,75.7Z" fill="#acdd12"/>
      <path id="Trazado_633119" data-name="Trazado 633119" d="M75.7,83.672s-7.969-.013-7.969,0V77.031L70.391,75.7l1.328,1.328h2.656l-1.328,3.984Z" fill="#acdd12"/>
      <path id="Trazado_633120" data-name="Trazado 633120" d="M78.359,81.016,75.7,83.672l-2.656-2.656,1.328-3.984h2.656Z" fill="#387f29"/>
      <path id="Trazado_633121" data-name="Trazado 633121" d="M78.359,18.594H73.047l-5.312,1.328v6.641H83.672V19.922Z" fill="#aedef8"/>
      <path id="Trazado_633122" data-name="Trazado 633122" d="M78.359,7.969l-3.984,3.984-2.656-1.328H69.062v1.328a2.656,2.656,0,0,0,2.656,2.656h0v1.328l1.328,2.656h5.312l1.328-2.656V14.609h0a2.656,2.656,0,0,0,2.656-2.656V10.625H78.359Z" fill="#fac8b2"/>
      <path id="Trazado_633123" data-name="Trazado 633123" d="M75.7,18.594l-2.656,5.312L75.7,26.562l2.656-2.656Z" fill="#00587e"/>
      <path id="Trazado_633124" data-name="Trazado 633124" d="M71.719,10.625H67.734V3.984l5.312-2.656,5.312,1.328,2.656-1.328,2.656,2.656v6.641H78.359V7.969l-3.984,3.984Z" fill="#58492f"/>
      <path id="Trazado_633125" data-name="Trazado 633125" d="M75.7,57.109s7.969-.013,7.969,0V50.469l-3.984-1.328-1.328,1.328H77.031l1.328,3.984Z" fill="#fcd4ef"/>
      <path id="Trazado_633126" data-name="Trazado 633126" d="M73.047,54.453,75.7,57.109l2.656-2.656-1.328-3.984H74.375Z" fill="#f249b4"/>
      <path id="Trazado_633127" data-name="Trazado 633127" d="M67.734,50.469v6.641H75.7l-2.656-2.656,1.328-3.984H73.047l-1.328-1.328Z" fill="#fcd4ef"/>
      <path id="Trazado_633128" data-name="Trazado 633128" d="M79.687,45.156v3.984l-1.328,1.328H73.047l-1.328-1.328V45.156h1.328A2.676,2.676,0,0,0,75.7,42.5a2.664,2.664,0,0,0,2.656,2.656Z" fill="#fac8b2"/>
      <path id="Trazado_633129" data-name="Trazado 633129" d="M82.344,43.828a6.669,6.669,0,0,1-1.939,4.7,6.232,6.232,0,0,1-.717.611V45.156H78.359A2.664,2.664,0,0,1,75.7,42.5a2.676,2.676,0,0,1-2.656,2.656H71.719v3.984A6.233,6.233,0,0,1,71,48.53a6.652,6.652,0,0,1,1.381-10.452,6.64,6.64,0,0,1,6.641,0,6.568,6.568,0,0,1,3.32,5.751Z" fill="#b71e71"/>
      <path id="Trazado_633130" data-name="Trazado 633130" d="M79.687,35.859a4.073,4.073,0,0,1-.664,2.218,6.64,6.64,0,0,0-6.641,0,4.073,4.073,0,0,1-.664-2.218,3.984,3.984,0,1,1,7.969,0Z" fill="#931d5b"/>
      <path id="Trazado_633131" data-name="Trazado 633131" d="M81.016,65.078v3.984L70.391,66.406V65.078a2.664,2.664,0,0,1,2.656-2.656h5.312A2.664,2.664,0,0,1,81.016,65.078Z" fill="#f05a29"/>
      <path id="Trazado_633132" data-name="Trazado 633132" d="M83.672,71.055a1.99,1.99,0,0,1-1.992,1.992h-.664V75.7l-1.328,1.328H71.719L70.391,75.7V73.047h-.664a1.992,1.992,0,1,1,0-3.984h.664V66.406l10.625,2.656h.664A1.989,1.989,0,0,1,83.672,71.055Z" fill="#fac8b2"/>
      <path id="Trazado_633133" data-name="Trazado 633133" d="M29.219,34.531v2.656H15.937V34.531a2.664,2.664,0,0,1,2.656-2.656h1.328V30.547a2.664,2.664,0,0,1,2.656-2.656,2.676,2.676,0,0,1,2.656,2.656v1.328h1.328a2.664,2.664,0,0,1,2.656,2.656Z" fill="#ffec00"/>
      <path id="Trazado_633134" data-name="Trazado 633134" d="M14.609,42.5h5.312v5.312H14.609Z" fill="#fff"/>
      <path id="Trazado_633135" data-name="Trazado 633135" d="M14.609,53.125h5.312v5.312H14.609Z" fill="#fff"/>
      <path id="Trazado_633136" data-name="Trazado 633136" d="M14.609,63.75h5.312v5.312H14.609Z" fill="#fff"/>
      <path id="Trazado_633137" data-name="Trazado 633137" d="M14.609,55.781v6.641L9.3,67.734H1.328V54.453l3.984-3.984H9.3v7.969a2.664,2.664,0,0,1,2.656-2.656Z" fill="#fac8b2"/>
      <path id="Trazado_633138" data-name="Trazado 633138" d="M43.828,54.453v7l-7.969-7.437V50.469h3.984Z" fill="#fac8b2"/>
      <path id="Trazado_633139" data-name="Trazado 633139" d="M43.642,66.406H35.859l-5.312-5.312V51.8H33.2a2.248,2.248,0,0,1,.305.013,2.71,2.71,0,0,1,2.311,2.152,2.942,2.942,0,0,1,.04.491v4.688Z" fill="#fac8b2"/>
      <path id="Trazado_633140" data-name="Trazado 633140" d="M33.509,51.81A2.248,2.248,0,0,0,33.2,51.8H30.547v2.391l-3.984-3.719V47.812h2.656Z" fill="#00a8e7"/>
      <path id="Trazado_633141" data-name="Trazado 633141" d="M49.141,66.406l-2.656,2.656-2.842-2.656-7.783-7.265V54.015l7.969,7.437Z" fill="#00a8e7"/>
      <path id="Trazado_633142" data-name="Trazado 633142" d="M35.859,66.406h7.969V83.672H35.859Z" fill="#00587e"/>
      <path id="Trazado_633143" data-name="Trazado 633143" d="M1.328,67.734H9.3V83.672H1.328Z" fill="#00587e"/>
      <path id="Trazado_633144" data-name="Trazado 633144" d="M30.547,43.828H25.234a1.328,1.328,0,1,1,0-2.656h5.312a1.328,1.328,0,0,1,0,2.656Z" fill="#f05a29"/>
      <path id="Trazado_633145" data-name="Trazado 633145" d="M26.562,58.437H25.234a1.328,1.328,0,1,1,0-2.656h1.328a1.328,1.328,0,1,1,0,2.656Z" fill="#f98800"/>
      <path id="Trazado_633146" data-name="Trazado 633146" d="M30.547,70.391H25.234a1.328,1.328,0,0,1,0-2.656h5.312a1.328,1.328,0,0,1,0,2.656Z" fill="#f98800"/>
      <circle id="Elipse_7809" data-name="Elipse 7809" cx="10.625" cy="10.625" r="10.625" transform="translate(11.953 1.328)" fill="#ffec00"/>
      <path id="Trazado_633147" data-name="Trazado 633147" d="M33.2,11.953a10.626,10.626,0,0,1-19.862,5.253,10.627,10.627,0,0,0,14.49-14.49A10.618,10.618,0,0,1,33.2,11.953Z" fill="#fcc200"/>
      <g id="Grupo_964119" data-name="Grupo 964119">
        <path id="Trazado_633148" data-name="Trazado 633148" d="M25.234,13.281H22.578a1.328,1.328,0,0,1-1.328-1.328V6.641a1.328,1.328,0,0,1,2.656,0v3.984h1.328a1.328,1.328,0,1,1,0,2.656Z" fill="#e22526"/>
        <path id="Trazado_633149" data-name="Trazado 633149" d="M60.7,37.576a1.328,1.328,0,0,0-1.878,1.878l1.717,1.717H42.5a1.328,1.328,0,1,0,0,2.656H60.543l-1.717,1.717A1.328,1.328,0,0,0,60.7,47.424l3.984-3.984a1.328,1.328,0,0,0,0-1.878Z" fill="#e22526"/>
        <path id="Trazado_633150" data-name="Trazado 633150" d="M42.5,37.187h6.641a6.648,6.648,0,0,0,6.641-6.641v-9.3a3.989,3.989,0,0,1,3.984-3.984h.778l-1.717,1.717A1.328,1.328,0,0,0,60.7,20.861l3.984-3.984a1.328,1.328,0,0,0,0-1.878L60.7,11.014a1.328,1.328,0,0,0-1.878,1.878l1.717,1.717h-.778a6.648,6.648,0,0,0-6.641,6.641v9.3a3.989,3.989,0,0,1-3.984,3.984H42.5a1.328,1.328,0,0,0,0,2.656Z" fill="#e22526"/>
        <path id="Trazado_633151" data-name="Trazado 633151" d="M60.7,64.139a1.328,1.328,0,1,0-1.878,1.878l1.717,1.717h-.778a3.989,3.989,0,0,1-3.984-3.984v-9.3a6.648,6.648,0,0,0-6.641-6.641H42.5a1.328,1.328,0,0,0,0,2.656h6.641a3.989,3.989,0,0,1,3.984,3.984v9.3a6.648,6.648,0,0,0,6.641,6.641h.778l-1.717,1.717A1.328,1.328,0,0,0,60.7,73.986L64.689,70a1.328,1.328,0,0,0,0-1.878Z" fill="#e22526"/>
      </g>
      <path id="Trazado_633152" data-name="Trazado 633152" d="M81.016,15.937V15.71a3.991,3.991,0,0,0,2.656-3.757A1.328,1.328,0,0,0,85,10.625V3.984a1.329,1.329,0,0,0-.389-.939L81.955.389A1.328,1.328,0,0,0,80.421.14L78.2,1.249,73.369.04a1.326,1.326,0,0,0-.916.1L67.14,2.8a1.328,1.328,0,0,0-.734,1.188v6.641a1.328,1.328,0,0,0,1.328,1.328,3.991,3.991,0,0,0,2.656,3.757v.228a1.328,1.328,0,0,0,.14.594l.588,1.175-3.706.927a1.328,1.328,0,0,0-1.006,1.288v6.641a1.328,1.328,0,0,0,1.328,1.328H83.672A1.328,1.328,0,0,0,85,26.562V19.922a1.328,1.328,0,0,0-1.006-1.288l-3.706-.927.588-1.175a1.328,1.328,0,0,0,.14-.594ZM69.062,4.805,73.2,2.736l4.836,1.209a1.328,1.328,0,0,0,.916-.1l1.8-.9,1.59,1.59V9.3H79.687V7.969A1.328,1.328,0,0,0,77.42,7.03l-3.308,3.308-1.8-.9a1.328,1.328,0,0,0-.594-.14H69.062ZM75.7,24.684l-1.04-1.04,1.04-2.08,1.04,2.08Zm-6.641-3.725,4.148-1.037h.344l-1.7,3.39a1.328,1.328,0,0,0,.249,1.533l.389.389H69.062Zm13.281,4.276H78.91l.389-.389a1.328,1.328,0,0,0,.249-1.533l-1.7-3.39H78.2l4.148,1.037ZM79.687,13.281a1.328,1.328,0,0,0-1.328,1.328v1.015l-.821,1.642H73.868l-.821-1.642V14.609a1.328,1.328,0,0,0-1.328-1.328,1.33,1.33,0,0,1-1.328-1.328h1.015l2.376,1.188a1.328,1.328,0,0,0,1.533-.249l1.8-1.8a1.328,1.328,0,0,0,1.244.862h2.656a1.33,1.33,0,0,1-1.328,1.328Z"/>
      <path id="Trazado_633153" data-name="Trazado 633153" d="M84.092,49.209l-1.966-.655a8,8,0,0,0-.782-10.366,7.582,7.582,0,0,0-.634-.56,5.312,5.312,0,1,0-10.011.008,7.968,7.968,0,0,0-1.418,10.918l-1.966.655a1.328,1.328,0,0,0-.908,1.26v6.641a1.328,1.328,0,0,0,1.328,1.328H83.672A1.328,1.328,0,0,0,85,57.109V50.469a1.328,1.328,0,0,0-.908-1.26Zm-5.733-.618-.55.55H73.6l-.55-.55V46.484a3.906,3.906,0,0,0,2.653-1.02,3.968,3.968,0,0,0,2.659,1.02Zm-1.52,5.5L75.7,55.231l-1.137-1.137.766-2.3h.742ZM75.7,33.2a2.647,2.647,0,0,1,2.618,3.1,8.025,8.025,0,0,0-5.236,0A2.648,2.648,0,0,1,75.7,33.2Zm-2.646,6.019a5.312,5.312,0,0,1,5.3,0,5.239,5.239,0,0,1,2.658,4.6,5.375,5.375,0,0,1-.074.89,1.329,1.329,0,0,0-1.254-.89H78.359A1.33,1.33,0,0,1,77.031,42.5a1.328,1.328,0,1,0-2.656,0,1.271,1.271,0,0,1-.381.92l-.026.026a1.271,1.271,0,0,1-.92.381H71.719a1.329,1.329,0,0,0-1.254.89,5.373,5.373,0,0,1-.074-.89,5.275,5.275,0,0,1,2.666-4.606Zm-3.994,12.2,2.3-.766.748.748a1.328,1.328,0,0,0,.455.3l-.776,2.329a1.328,1.328,0,0,0,.321,1.359l.389.389H69.062Zm13.281,4.355H78.909l.389-.389a1.328,1.328,0,0,0,.321-1.359L78.843,51.7a1.328,1.328,0,0,0,.455-.3l.748-.748,2.3.766Z"/>
      <path id="Trazado_633154" data-name="Trazado 633154" d="M19.922,41.172H14.609A1.328,1.328,0,0,0,13.281,42.5v5.312a1.328,1.328,0,0,0,1.328,1.328h5.312a1.328,1.328,0,0,0,1.328-1.328V42.5A1.328,1.328,0,0,0,19.922,41.172Zm-1.328,5.312H15.937V43.828h2.656Z"/>
      <path id="Trazado_633155" data-name="Trazado 633155" d="M50.046,65.435l-4.89-4.56V54.453a1.329,1.329,0,0,0-.389-.939l-3.984-3.984a1.329,1.329,0,0,0-.939-.389H37.187V34.531A1.328,1.328,0,0,0,35.859,33.2H30.318a3.991,3.991,0,0,0-3.756-2.656,4,4,0,0,0-3.984-3.984,3.989,3.989,0,0,0-3.984,3.984A3.991,3.991,0,0,0,14.838,33.2H9.3a1.328,1.328,0,0,0-1.328,1.328V49.14H5.312a1.329,1.329,0,0,0-.939.389L.389,53.514A1.329,1.329,0,0,0,0,54.453V83.672A1.328,1.328,0,0,0,1.328,85H9.3a1.328,1.328,0,0,0,1.328-1.328V75.7H34.531v7.969A1.328,1.328,0,0,0,35.859,85h7.969a1.328,1.328,0,0,0,1.328-1.328V69.639l.421.394A1.328,1.328,0,0,0,47.423,70l2.656-2.656a1.328,1.328,0,0,0-.033-1.91ZM42.5,55V58.4l-5.493-5.126a4.02,4.02,0,0,0-.841-1.473h3.127ZM36.409,65.078l-4.534-4.534V53.125H33.2c.046,0,.091,0,.118,0l.021,0a1.393,1.393,0,0,1,1.15.993l.039,5.031a1.328,1.328,0,0,0,.422.961l5.32,4.966ZM29.34,51.244l-1.45-1.353V49.14H28.7l1.482,1.381A1.33,1.33,0,0,0,29.34,51.244ZM17.266,34.531A1.33,1.33,0,0,1,18.594,33.2h1.328a1.328,1.328,0,0,0,1.328-1.328V30.547a1.33,1.33,0,0,1,1.328-1.328,1.271,1.271,0,0,1,.921.381l.026.026a1.271,1.271,0,0,1,.382.921v1.328A1.328,1.328,0,0,0,25.234,33.2h1.328a1.33,1.33,0,0,1,1.328,1.328v1.328H17.266ZM2.656,55,5.863,51.8H7.969v6.641a1.328,1.328,0,0,0,2.656,0,1.33,1.33,0,0,1,1.328-1.328h1.328v4.762L8.747,66.406H2.656ZM15.937,65.078h2.656v2.656H15.937ZM2.656,82.343V69.062H7.969V82.343Zm7.969-9.3V68.284l2.656-2.656v3.434a1.328,1.328,0,0,0,1.328,1.328h5.312a1.328,1.328,0,0,0,1.328-1.328V63.75a1.328,1.328,0,0,0-1.328-1.328H15.937V59.765h3.984a1.328,1.328,0,0,0,1.328-1.328V53.125A1.328,1.328,0,0,0,19.922,51.8H14.609a1.328,1.328,0,0,0-1.328,1.328v1.328H11.953a3.966,3.966,0,0,0-1.328.228V35.859h3.984v1.328a1.328,1.328,0,0,0,1.328,1.328H29.219a1.328,1.328,0,0,0,1.328-1.328V35.859h3.984V50.7a4.017,4.017,0,0,0-.393-.118l-4.014-3.741a1.328,1.328,0,0,0-.905-.357H26.562a1.328,1.328,0,0,0-1.328,1.328v2.656a1.328,1.328,0,0,0,.422.971l3.563,3.325v6.329a1.329,1.329,0,0,0,.389.939l4.924,4.924v6.09Zm5.312-15.937V54.453h2.656v2.656ZM42.5,82.343H37.187V67.734H42.5Zm3.953-15.128-1.9-1.779h0L37.183,58.56l-.012-1.5,5.751,5.367,4.307,4.016Z"/>
      <path id="Trazado_633156" data-name="Trazado 633156" d="M25.234,43.828h5.312a1.328,1.328,0,0,0,0-2.656H25.234a1.328,1.328,0,1,0,0,2.656Z"/>
      <path id="Trazado_633157" data-name="Trazado 633157" d="M25.234,58.437h1.328a1.328,1.328,0,1,0,0-2.656H25.234a1.328,1.328,0,1,0,0,2.656Z"/>
      <path id="Trazado_633158" data-name="Trazado 633158" d="M30.547,67.734H25.234a1.328,1.328,0,0,0,0,2.656h5.312a1.328,1.328,0,0,0,0-2.656Z"/>
      <path id="Trazado_633159" data-name="Trazado 633159" d="M22.578,23.906A11.953,11.953,0,1,1,34.531,11.953,11.967,11.967,0,0,1,22.578,23.906Zm0-21.25a9.3,9.3,0,1,0,9.3,9.3A9.307,9.307,0,0,0,22.578,2.656Z"/>
      <path id="Trazado_633160" data-name="Trazado 633160" d="M25.234,13.281H22.578a1.328,1.328,0,0,1-1.328-1.328V6.641a1.328,1.328,0,0,1,2.656,0v3.984h1.328a1.328,1.328,0,1,1,0,2.656Z"/>
      <path id="Trazado_633161" data-name="Trazado 633161" d="M60.7,37.576a1.328,1.328,0,0,0-1.878,1.878l1.717,1.717H42.5a1.328,1.328,0,1,0,0,2.656H60.543l-1.717,1.717A1.328,1.328,0,0,0,60.7,47.424l3.984-3.984a1.328,1.328,0,0,0,0-1.878Z"/>
      <path id="Trazado_633162" data-name="Trazado 633162" d="M42.5,37.187h6.641a6.648,6.648,0,0,0,6.641-6.641v-9.3a3.989,3.989,0,0,1,3.984-3.984h.778l-1.717,1.717A1.328,1.328,0,0,0,60.7,20.861l3.984-3.984a1.328,1.328,0,0,0,0-1.878L60.7,11.014a1.328,1.328,0,0,0-1.878,1.878l1.717,1.717h-.778a6.648,6.648,0,0,0-6.641,6.641v9.3a3.989,3.989,0,0,1-3.984,3.984H42.5a1.328,1.328,0,0,0,0,2.656Z"/>
      <path id="Trazado_633163" data-name="Trazado 633163" d="M60.7,64.139a1.328,1.328,0,1,0-1.878,1.878l1.717,1.717h-.778a3.989,3.989,0,0,1-3.984-3.984v-9.3a6.648,6.648,0,0,0-6.641-6.641H42.5a1.328,1.328,0,0,0,0,2.656h6.641a3.989,3.989,0,0,1,3.984,3.984v9.3a6.648,6.648,0,0,0,6.641,6.641h.778l-1.717,1.717A1.328,1.328,0,0,0,60.7,73.986L64.689,70a1.328,1.328,0,0,0,0-1.878Z"/>
      <path id="Trazado_633164" data-name="Trazado 633164" d="M84.266,75.843l-1.922-.961v-.574a3.321,3.321,0,0,0,0-6.507V65.078a3.989,3.989,0,0,0-3.984-3.984H73.047a3.989,3.989,0,0,0-3.984,3.984V67.8a3.321,3.321,0,0,0,0,6.507v.574l-1.922.961a1.328,1.328,0,0,0-.734,1.188v6.641A1.328,1.328,0,0,0,67.734,85H83.672A1.328,1.328,0,0,0,85,83.672V77.031a1.328,1.328,0,0,0-.734-1.188ZM71.719,65.078a1.33,1.33,0,0,1,1.328-1.328h5.312a1.33,1.33,0,0,1,1.328,1.328v2.283l-7.969-1.992Zm-1.992,5.312h.664a1.328,1.328,0,0,0,1.328-1.328v-.955l8.975,2.244a1.321,1.321,0,0,0,.322.04h.664a.664.664,0,1,1,0,1.328h-.664a1.328,1.328,0,0,0-1.328,1.328v2.106l-.55.55H72.269l-.55-.55V73.047a1.328,1.328,0,0,0-1.328-1.328h-.664a.664.664,0,1,1,0-1.328ZM76.84,80.657,75.7,81.794l-1.137-1.137.766-2.3h.742Zm-7.777-2.8,1.066-.533.651.651a1.328,1.328,0,0,0,.939.389h.813L71.787,80.6a1.328,1.328,0,0,0,.321,1.359l.389.389H69.062Zm13.281,4.492H78.91l.389-.389a1.328,1.328,0,0,0,.321-1.359l-.745-2.236h.813a1.328,1.328,0,0,0,.939-.389l.651-.651,1.066.533Z"/>
    </g>
  </g>
</svg>
