<svg xmlns="http://www.w3.org/2000/svg" xmlns:xlink="http://www.w3.org/1999/xlink" width="85" height="85" viewBox="0 0 85 85">
  <defs>
    <clipPath id="clip-path">
      <rect id="Rect치ngulo_306810" data-name="Rect치ngulo 306810" width="85" height="85" transform="translate(-7293 6740)" fill="#449c6e" stroke="#707070" stroke-width="1"/>
    </clipPath>
  </defs>
  <g id="Enmascarar_grupo_878417" data-name="Enmascarar grupo 878417" transform="translate(7293 -6740)" clip-path="url(#clip-path)">
    <g id="Filled_outline" data-name="Filled outline" transform="translate(-7295.833 6737.167)">
      <path id="Trazado_630928" data-name="Trazado 630928" d="M86.416,15.583v59.5H9.917A5.667,5.667,0,0,1,4.25,69.416V15.583Z" fill="#d6d6d4"/>
      <path id="Trazado_630929" data-name="Trazado 630929" d="M9.917,63.75A5.667,5.667,0,0,0,4.25,69.416V9.917A5.667,5.667,0,0,1,9.917,4.25Z" fill="#ebebe9"/>
      <path id="Trazado_630930" data-name="Trazado 630930" d="M86.416,15.583v59.5H11.386l69.067-59.5Z" fill="#c7c7c5"/>
      <g id="Grupo_959745" data-name="Grupo 959745">
        <path id="Trazado_630931" data-name="Trazado 630931" d="M19.833,19.833A5.667,5.667,0,1,0,25.5,25.5,5.667,5.667,0,0,0,19.833,19.833Zm0,8.5A2.833,2.833,0,1,1,22.667,25.5,2.833,2.833,0,0,1,19.833,28.333Z" fill="#b0b0ae"/>
        <path id="Trazado_630932" data-name="Trazado 630932" d="M19.833,51A5.667,5.667,0,1,0,25.5,56.666,5.667,5.667,0,0,0,19.833,51Zm0,8.5a2.833,2.833,0,1,1,2.833-2.833A2.833,2.833,0,0,1,19.833,59.5Z" fill="#b0b0ae"/>
        <path id="Trazado_630933" data-name="Trazado 630933" d="M16.585,46.335l3.248-3.248,3.248,3.248,2-2-3.248-3.248,3.248-3.248-2-2L19.833,39.08l-3.248-3.248-2,2,3.248,3.248-3.248,3.248Z" fill="#b0b0ae"/>
        <path id="Trazado_630934" data-name="Trazado 630934" d="M34.932,31.078a10.96,10.96,0,0,0-.854-.723l1.954-.379-.539-2.782L29.48,28.359a1.417,1.417,0,0,0-1.1,1.734l1.417,5.667,2.749-.687-.71-2.84a8.418,8.418,0,0,1,1.161.909c2.228,2.094,2.947,5.146,2.136,9.071l2.775.573c1.275-6.172-.911-9.774-2.97-11.709Z" fill="#b0b0ae"/>
        <path id="Trazado_630935" data-name="Trazado 630935" d="M76.5,29.75a5.667,5.667,0,1,0,5.667,5.667A5.667,5.667,0,0,0,76.5,29.75Zm0,8.5a2.833,2.833,0,1,1,2.833-2.833A2.833,2.833,0,0,1,76.5,38.25Z" fill="#b0b0ae"/>
      </g>
      <rect id="Rect치ngulo_307104" data-name="Rect치ngulo 307104" width="25.5" height="32.583" rx="12.75" transform="translate(42.5 5.667)" fill="#fec9a3"/>
      <path id="Trazado_630936" data-name="Trazado 630936" d="M63.75,45.333v-8.5h-17v8.5l8.5,32.583Z" fill="#fec9a3"/>
      <path id="Trazado_630937" data-name="Trazado 630937" d="M58.72,45.333a7.622,7.622,0,0,0,5.029-1.9V32.583h-17V43.435a7.621,7.621,0,0,0,5.029,1.9Z" fill="#feb784"/>
      <path id="Trazado_630938" data-name="Trazado 630938" d="M81.051,49.658,69.416,46.75,63.75,45.333l-8.5,2.833-8.5-2.833L41.083,46.75,29.449,49.658a7.083,7.083,0,0,0-5.366,6.872V82.166H86.416V56.53a7.083,7.083,0,0,0-5.366-6.872Z" fill="#374559"/>
      <path id="Trazado_630939" data-name="Trazado 630939" d="M46.75,45.333l8.5,32.583,8.5-32.584-8.5,2.834Z" fill="#bfbfbd"/>
      <path id="Trazado_630940" data-name="Trazado 630940" d="M58.083,67.055V50.433L55.25,48.166l-2.833,2.267V67.055L55.25,77.916Z" fill="#95573a"/>
      <path id="Trazado_630941" data-name="Trazado 630941" d="M43.916,58.083,42.5,63.75,55.25,77.916l-8.5-32.583L41.083,46.75l-4.25,9.917Z" fill="#4c5d72"/>
      <path id="Trazado_630942" data-name="Trazado 630942" d="M66.583,58.083,68,63.75,55.25,77.916l8.5-32.583,5.667,1.417,4.25,9.917Z" fill="#4c5d72"/>
      <path id="Trazado_630943" data-name="Trazado 630943" d="M35.416,62.333H38.25v17H35.416Z" fill="#22303d"/>
      <path id="Trazado_630944" data-name="Trazado 630944" d="M72.25,62.333h2.833v17H72.25Z" fill="#22303d"/>
      <path id="Trazado_630945" data-name="Trazado 630945" d="M77.916,65.166h8.5v12.75H79.333L70.8,79.134l-1.388-9.718Z" fill="#fec9a3"/>
      <path id="Trazado_630946" data-name="Trazado 630946" d="M70.8,79.135l-6.173,1.238L62.873,69.825l6.543-.409Z" fill="#e0e0de"/>
      <path id="Trazado_630947" data-name="Trazado 630947" d="M64.631,80.372l-27.8,6.044h-8.5a4.251,4.251,0,0,1-4.25-4.25V72.25l38.79-2.424Z" fill="#374559"/>
      <path id="Trazado_630948" data-name="Trazado 630948" d="M68,18.416h1.417a4.25,4.25,0,1,1,0,8.5H68v-8.5Z" fill="#feb784"/>
      <path id="Trazado_630949" data-name="Trazado 630949" d="M42.5,18.417H41.083a4.25,4.25,0,0,0,0,8.5H42.5Z" fill="#feb784"/>
      <circle id="Elipse_7754" data-name="Elipse 7754" cx="2.125" cy="2.125" r="2.125" transform="translate(46.75 18.416)" fill="#7a432a"/>
      <circle id="Elipse_7755" data-name="Elipse 7755" cx="2.125" cy="2.125" r="2.125" transform="translate(59.5 18.416)" fill="#7a432a"/>
      <path id="Trazado_630950" data-name="Trazado 630950" d="M58.083,28.333H52.416a1.417,1.417,0,0,1-1.344-1.865l2.833-8.5,2.688.9L54.382,25.5h3.7Z" fill="#f7a468"/>
      <path id="Trazado_630951" data-name="Trazado 630951" d="M67.052,11.333H62.266A34.932,34.932,0,0,0,67.4,20.508c.195.251.395.5.6.742V15.583a9.8,9.8,0,0,0-.947-4.25Z" fill="#7a432a"/>
      <path id="Trazado_630952" data-name="Trazado 630952" d="M42.5,21.25V11.508a4.56,4.56,0,0,1,5.667-4.424v4.25S45.605,17.523,42.5,21.25Z" fill="#7a432a"/>
      <path id="Trazado_630953" data-name="Trazado 630953" d="M58.72,42.5H51.779a7.627,7.627,0,0,1-7.011-4.623A28.062,28.062,0,0,1,42.5,26.823V18.417l2.447,7.728A3.558,3.558,0,0,0,50.1,27.514a3.559,3.559,0,0,1,1.974-.6h6.345a3.559,3.559,0,0,1,1.973.6l.248.166a3.558,3.558,0,0,0,5.025-1.13L68,18.417v8.407a28.063,28.063,0,0,1-2.269,11.054A7.628,7.628,0,0,1,58.72,42.5Z" fill="#7a432a"/>
      <path id="Trazado_630954" data-name="Trazado 630954" d="M53.637,34H51V31.166h2.637a10.546,10.546,0,0,0,5.149-1.224l1.428,2.447A13.253,13.253,0,0,1,53.637,34Z" fill="#fec9a3"/>
      <path id="Trazado_630955" data-name="Trazado 630955" d="M68,11.333H48.166V7.083A9.676,9.676,0,0,1,55.007,4.25h5.909a7.081,7.081,0,0,1,5.007,2.075c.1.1.2.2.293.312A7.048,7.048,0,0,1,68,11.333Z" fill="#7a432a"/>
      <path id="Trazado_630956" data-name="Trazado 630956" d="M60,4.25l-5.876,7.083h-3.68L56.317,4.25Z" fill="#8c5137"/>
      <path id="Trazado_630957" data-name="Trazado 630957" d="M66.216,6.637l-4.632,4.7H57.6l6.325-6.41a7.056,7.056,0,0,1,2,1.4c.1.1.2.2.292.312Z" fill="#8c5137"/>
      <path id="Trazado_630958" data-name="Trazado 630958" d="M63.75,45.333l-8.5,2.834L61.67,53.3Z" fill="#e0e0de"/>
      <path id="Trazado_630959" data-name="Trazado 630959" d="M55.25,48.166l-8.5-2.833,2.079,7.97Z" fill="#e0e0de"/>
      <path id="Trazado_630960" data-name="Trazado 630960" d="M32.583,65.166h-8.5v12.75h7.083l8.528,1.218,1.388-9.718Z" fill="#fec9a3"/>
      <path id="Trazado_630961" data-name="Trazado 630961" d="M86.416,72.25v9.917a4.251,4.251,0,0,1-4.25,4.25h-8.5l-26.8-5.828.769-10.763Z" fill="#3d4d63"/>
      <path id="Trazado_630962" data-name="Trazado 630962" d="M52.416,76.5H55.25v2.833H52.416Z" fill="#22303d"/>
      <path id="Trazado_630963" data-name="Trazado 630963" d="M58.083,76.5h2.833v2.833H58.083Z" fill="#22303d"/>
      <path id="Trazado_630964" data-name="Trazado 630964" d="M46.863,80.588l-7.168-1.454,1.388-9.718,6.549.409Z" fill="#e0e0de"/>
      <path id="Trazado_630965" data-name="Trazado 630965" d="M86.416,14.167H69.326a11.361,11.361,0,0,0-.367-1.793,1.411,1.411,0,0,0,.457-1.04,8.51,8.51,0,0,0-8.5-8.5h-5.91a11.005,11.005,0,0,0-7.288,2.735,5.976,5.976,0,0,0-6.635,5.939v2.66H11.333V4.25A1.417,1.417,0,0,0,9.917,2.833,7.091,7.091,0,0,0,2.833,9.917v59.5A7.091,7.091,0,0,0,9.917,76.5h12.75v5.667a5.673,5.673,0,0,0,5.667,5.667l9.1-.1,14.935-3.246,21.073,3.327c.073.012,8.721.018,8.721.018a5.673,5.673,0,0,0,5.667-5.667V15.583a1.417,1.417,0,0,0-1.417-1.417ZM85,50.193a8.486,8.486,0,0,0-3.605-1.909L65.166,44.227v-3.01a9.042,9.042,0,0,0,1.867-2.782,29.293,29.293,0,0,0,2.345-10.1h.038A5.667,5.667,0,0,0,69.45,17H85ZM68.391,47.954l3.285,7.666-5.371,1.074a1.417,1.417,0,0,0-1.1,1.733l1.234,4.936-4.6,5.108-2.709.169,5.631-21.592,1.812.453Zm9.86,18.629H85v4.159L71.608,69.9ZM45.575,78.86l-4.191-.911-.086-.016,1-7.021,3.847.24ZM25.5,72.25V66.583h6.749l7.288,3.644-1.044,7.3-7.126-1.018a1.4,1.4,0,0,0-.2-.014H25.5ZM41.083,25.5a2.833,2.833,0,1,1,0-5.667ZM49.1,12.75H61.3A36.223,36.223,0,0,0,65.842,20.8l-1.477,5.155a2.141,2.141,0,0,1-2.935.543l-.248-.166a4.958,4.958,0,0,0-2.76-.835h-4.04l2.212-6.635-2.688-.9-2.527,7.581a4.956,4.956,0,0,0-2.061.786A2.143,2.143,0,0,1,46.26,25.6l-1.553-4.905A50.289,50.289,0,0,0,49.1,12.75Zm17.011,0a8.582,8.582,0,0,1,.477,2.833v1.288a33.85,33.85,0,0,1-2.194-4.121Zm3.31,8.5V19.833a2.833,2.833,0,0,1,0,5.667ZM46.853,29.361a4.976,4.976,0,0,0,4.036-.669,2.135,2.135,0,0,1,1.188-.359h6.345a2.135,2.135,0,0,1,1.188.359l.248.166a4.976,4.976,0,0,0,6.708-1.112,26.477,26.477,0,0,1-2.139,9.573,6.2,6.2,0,0,1-5.707,3.764H51.779a6.2,6.2,0,0,1-5.709-3.764A26.491,26.491,0,0,1,43.919,27.2a4.978,4.978,0,0,0,2.934,2.159Zm3.579,24.473L51,53.381v2.631Zm-.783-3L48.781,47.5l3.551,1.183-.8.64Zm10.419,3L59.5,56.014V53.381Zm.783-3-1.882-1.505-.8-.64L61.72,47.5ZM53.833,66.87V51.114l1.417-1.133,1.417,1.133v15.76l-.509,1.951H54.343ZM51.779,43.916H58.72a9.039,9.039,0,0,0,3.612-.752v1.147L55.25,46.673l-7.083-2.361V43.164a9.038,9.038,0,0,0,3.612.752Zm-6.046,3.132.374,1.432,1.352,5.181v0L51.043,67.4s0,.01,0,.015l.32,1.226-2.711-.169-4.6-5.108,1.234-4.936a1.417,1.417,0,0,0-1.1-1.733L38.823,55.62l3.285-7.666ZM35.579,57.326a1.417,1.417,0,0,0,.976.73l5.626,1.125-1.056,4.225a1.417,1.417,0,0,0,.321,1.291l3.169,3.52-3.156-.2-3.209-1.6V62.333H35.416V65l-2.2-1.1a1.416,1.416,0,0,0-.634-.15H25.5V56.53a5.658,5.658,0,0,1,4.292-5.5l8.864-2.216-3.125,7.291a1.417,1.417,0,0,0,.048,1.218ZM62.92,9.917,65.2,7.632a5.657,5.657,0,0,1,1.2,2.284ZM62.83,6,58.913,9.917H55.364l3.4-4.25h2.152A5.641,5.641,0,0,1,62.83,6Zm-7.694-.333-3.4,4.25H49.583V7.7a8.2,8.2,0,0,1,5.424-2.03Zm-11.219,5.84A3.149,3.149,0,0,1,46.75,8.377v2.667a55.705,55.705,0,0,1-2.833,5.627ZM5.667,9.917A4.257,4.257,0,0,1,8.5,5.909V62.475a7.056,7.056,0,0,0-2.833,1.278Zm4.25,63.75a4.25,4.25,0,1,1,0-8.5,1.417,1.417,0,0,0,1.417-1.417V17H41.049a5.667,5.667,0,1,0,.034,11.333h.039a29.29,29.29,0,0,0,2.345,10.1,9.042,9.042,0,0,0,1.866,2.782v3.01L40.74,45.376l-.006,0L29.1,48.285a8.486,8.486,0,0,0-5.429,4.222,5.667,5.667,0,1,0-1.009,9.064V73.666Zm12.75-17a2.833,2.833,0,1,1-2.833-2.833A2.833,2.833,0,0,1,22.667,56.666ZM28.333,85A2.837,2.837,0,0,1,25.5,82.166V79.333h5.566l8.418,1.2.01,0,1.338.191,4.531.985-.026.348a1.413,1.413,0,0,0,.306.989L36.681,85Zm45.444,0L48.26,80.97l.717-9.641L85,73.581v8.586A2.837,2.837,0,0,1,82.166,85ZM85,63.75H77.916a1.416,1.416,0,0,0-.634.15l-2.2,1.1V62.333H72.25v4.083l-3.209,1.6-3.156.2,3.168-3.52a1.417,1.417,0,0,0,.321-1.291l-1.056-4.225,5.626-1.125a1.417,1.417,0,0,0,1.024-1.948l-3.125-7.292,8.864,2.216A5.658,5.658,0,0,1,85,56.53Z"/>
      <path id="Trazado_630966" data-name="Trazado 630966" d="M19.833,31.166A5.667,5.667,0,1,0,14.167,25.5,5.667,5.667,0,0,0,19.833,31.166Zm0-8.5A2.833,2.833,0,1,1,17,25.5a2.833,2.833,0,0,1,2.833-2.833Z"/>
      <path id="Trazado_630967" data-name="Trazado 630967" d="M23.081,35.831,19.833,39.08l-3.248-3.248-2,2,3.248,3.248-3.248,3.248,2,2,3.248-3.248,3.248,3.248,2-2-3.248-3.248,3.248-3.248Z"/>
      <path id="Trazado_630968" data-name="Trazado 630968" d="M29.792,35.76l2.749-.687-.71-2.84a8.418,8.418,0,0,1,1.161.909c2.228,2.094,2.947,5.146,2.136,9.071l2.775.573c1.275-6.172-.911-9.774-2.97-11.709a10.96,10.96,0,0,0-.854-.723l1.954-.379-.539-2.782L29.48,28.359a1.417,1.417,0,0,0-1.1,1.734Z"/>
      <path id="Trazado_630969" data-name="Trazado 630969" d="M53.636,34a13.25,13.25,0,0,0,6.577-1.61l-1.428-2.447a10.549,10.549,0,0,1-5.149,1.224H51V34Z"/>
      <path id="Trazado_630970" data-name="Trazado 630970" d="M48.875,22.667a2.125,2.125,0,1,0-2.125-2.125A2.125,2.125,0,0,0,48.875,22.667Z"/>
      <path id="Trazado_630971" data-name="Trazado 630971" d="M61.625,22.667A2.125,2.125,0,1,0,59.5,20.542,2.125,2.125,0,0,0,61.625,22.667Z"/>
      <path id="Trazado_630972" data-name="Trazado 630972" d="M52.416,76.5H55.25v2.833H52.416Z"/>
      <path id="Trazado_630973" data-name="Trazado 630973" d="M58.083,76.5h2.833v2.833H58.083Z"/>
      <path id="Trazado_630974" data-name="Trazado 630974" d="M70.833,35.416A5.667,5.667,0,1,0,76.5,29.75a5.667,5.667,0,0,0-5.667,5.667ZM76.5,32.583a2.833,2.833,0,1,1-2.833,2.833A2.833,2.833,0,0,1,76.5,32.583Z"/>
    </g>
  </g>
</svg>
