<svg xmlns="http://www.w3.org/2000/svg" xmlns:xlink="http://www.w3.org/1999/xlink" width="85" height="85" viewBox="0 0 85 85">
  <defs>
    <clipPath id="clip-path">
      <rect id="Rectángulo_306812" data-name="Rectángulo 306812" width="85" height="85" transform="translate(-7293 6927)" fill="#449c6e" stroke="#707070" stroke-width="1"/>
    </clipPath>
  </defs>
  <g id="Enmascarar_grupo_878418" data-name="Enmascarar grupo 878418" transform="translate(7293 -6927)" clip-path="url(#clip-path)">
    <g id="capacitacion" transform="translate(-7293 6927)">
      <g id="Grupo_959748" data-name="Grupo 959748">
        <path id="Trazado_630975" data-name="Trazado 630975" d="M7.886,5.761H79.023v55.05H7.886Z" fill="#f5f8f9"/>
        <path id="Trazado_630976" data-name="Trazado 630976" d="M5.977,5.761H9.795V60.811H5.977Z" fill="#e8edf2"/>
        <path id="Trazado_630977" data-name="Trazado 630977" d="M82.925,7.056H9.795l-7.3-.271a.83.83,0,0,1-.83-.83l.385-3.482a.83.83,0,0,1,.83-.83l6.918-.4h73.13a.83.83,0,0,1,.83.83v4.15A.83.83,0,0,1,82.925,7.056Z" fill="#2baef7"/>
        <path id="Trazado_630978" data-name="Trazado 630978" d="M80.683,64.5H9.795l-4.661-.55a.83.83,0,0,1-.83-.83l-.062-2.305a.83.83,0,0,1,.83-.83l4.723-.465H80.683a.83.83,0,0,1,.83.83v3.32a.83.83,0,0,1-.83.83Z" fill="#2baef7"/>
        <path id="Trazado_630979" data-name="Trazado 630979" d="M9.795,1.245V7.056H2.075a.83.83,0,0,1-.83-.83V2.075a.83.83,0,0,1,.83-.83Z" fill="#21a1e8"/>
        <path id="Trazado_630980" data-name="Trazado 630980" d="M9.795,59.517V64.5H4.316a.83.83,0,0,1-.83-.83v-3.32a.83.83,0,0,1,.83-.83Z" fill="#21a1e8"/>
        <g id="Grupo_959746" data-name="Grupo 959746">
          <path id="Trazado_630981" data-name="Trazado 630981" d="M83.755,60.833V71.32a5.8,5.8,0,0,1-3.307,5.234L79.273,76.4l-1.312.713v5.977a.664.664,0,0,1-.664.664H69.228l-1.135-.838-1.355.838H61.011l-2.433-.4a.664.664,0,0,1-.664-.664L57.3,65.469c0-.138-.084-.156-.3-.21a.326.326,0,0,0-.3.011L44.417,72.112a3.32,3.32,0,0,1-3.8-.4c-2.183-1.909-6.02-5.268-9.308-8.143V59.792l3.81-.861,7.147,5.419a.331.331,0,0,0,.393,0l10.057-7.2a13.277,13.277,0,0,1,6.07-2.377l3.158-.4.015.04c1.683,2.167,3.168,3.886,6.02,3.886,2.779,0,3.6-1.25,5.958-3.683l5.943,1.351A4.982,4.982,0,0,1,83.755,60.833Z" fill="#ffe97b"/>
          <path id="Trazado_630982" data-name="Trazado 630982" d="M61.011,68.2V83.755H57.856a.664.664,0,0,1-.664-.664V65.559a.33.33,0,0,0-.191-.3l1.377.1A2.845,2.845,0,0,1,61.011,68.2Z" fill="#ffde2e"/>
          <path id="Trazado_630983" data-name="Trazado 630983" d="M35.117,58.93l-3.81,4.637c-1.474-1.292-2.837-2.485-3.893-3.408a2.822,2.822,0,0,1-.251-4l.045-.051a2.73,2.73,0,0,1,3.7-.372Z" fill="#ffd8a1"/>
          <path id="Trazado_630984" data-name="Trazado 630984" d="M73.935,54.624a6.273,6.273,0,0,1-11.978-.2l-.015-.04,1.31-.164A1.666,1.666,0,0,0,64.7,52.564l.67-4.258h5.109l.861,4.169v.236a1.66,1.66,0,0,0,1.292,1.619Z" fill="#ffd8a1"/>
          <path id="Trazado_630985" data-name="Trazado 630985" d="M74.446,28.934a7.511,7.511,0,0,0-6.18.117.645.645,0,0,1-.566,0,6.721,6.721,0,0,0-1.153-.438,8.822,8.822,0,0,0-4.845.634,6.584,6.584,0,0,0-4.016,6.35L57.8,40.49v4.152c0,1.834,1.416,2.76,3.25,2.76l5.219.561h9.189a3.32,3.32,0,0,0,3.32-3.32V35.6a7.29,7.29,0,0,0-4.328-6.662Z" fill="#a6764a"/>
          <path id="Trazado_630986" data-name="Trazado 630986" d="M68.815,47.962h-8.3a3.321,3.321,0,0,1-3.322-3.32V35.6a7.293,7.293,0,0,1,4.328-6.662,7.54,7.54,0,0,1,5.027-.322,6.433,6.433,0,0,0-.877.322A7.293,7.293,0,0,0,61.343,35.6v4.894a7.471,7.471,0,0,0,7.472,7.472Z" fill="#926540"/>
          <path id="Trazado_630987" data-name="Trazado 630987" d="M71.345,48.305v4.169a4.667,4.667,0,0,1-6.641.09V48.306Z" fill="#fac78c"/>
          <path id="Trazado_630988" data-name="Trazado 630988" d="M74.624,39.111a.33.33,0,0,0-.312-.331,6.452,6.452,0,0,1-4.938-2.7l-.235-.329a3.825,3.825,0,0,0-3.068-1.618,4.691,4.691,0,0,0-4.728,4.65v2.869a9.33,9.33,0,0,0,5.067,8.3.338.338,0,0,1,.137.133,1.69,1.69,0,0,0,2.875,0,.334.334,0,0,1,.132-.126,9.33,9.33,0,0,0,5.071-8.3Z" fill="#ffd8a1"/>
        </g>
        <path id="Trazado_630989" data-name="Trazado 630989" d="M70.391,17.515H14.609a.332.332,0,0,1-.332-.332V12.7a.332.332,0,0,1,.332-.332H70.391a.332.332,0,0,1,.332.332v4.482A.332.332,0,0,1,70.391,17.515Z" fill="#f90"/>
        <g id="Grupo_959747" data-name="Grupo 959747">
          <path id="Trazado_630990" data-name="Trazado 630990" d="M41.919,40.757H37.436a.664.664,0,0,1-.664-.664V35.61a.664.664,0,0,1,.664-.664h4.482a.664.664,0,0,1,.664.664v4.482A.664.664,0,0,1,41.919,40.757Z" fill="#3fe0c1"/>
          <path id="Trazado_630991" data-name="Trazado 630991" d="M41.919,51.548H37.436a.664.664,0,0,1-.664-.664V46.4a.664.664,0,0,1,.664-.664h4.482a.664.664,0,0,1,.664.664v4.482A.664.664,0,0,1,41.919,51.548Z" fill="#3fe0c1"/>
        </g>
      </g>
      <g id="Grupo_959749" data-name="Grupo 959749">
        <path id="Trazado_630992" data-name="Trazado 630992" d="M80.019,8.3h2.905A2.077,2.077,0,0,0,85,6.226V2.075A2.078,2.078,0,0,0,82.925,0H2.075A2.078,2.078,0,0,0,0,2.075v4.15A2.077,2.077,0,0,0,2.075,8.3H4.98V32.666a1.245,1.245,0,1,0,2.49,0V8.3H23.942a1.245,1.245,0,0,0,0-2.49H2.49V2.49H82.51v3.32H29.752a1.245,1.245,0,0,0,0,2.49H77.529V29.571a8.524,8.524,0,0,0-9.546-1.759,8.532,8.532,0,0,0-8.23.677,1.245,1.245,0,0,0,1.38,2.073,6.086,6.086,0,0,1,.893-.491,6.02,6.02,0,0,1,5.156.117l.244.122a1.244,1.244,0,0,0,1.114,0l.244-.122A6.042,6.042,0,0,1,77.529,35.6v9.046a2.078,2.078,0,0,1-2.075,2.076H74.59a10.574,10.574,0,0,0,1.279-5.06V38.788a1.245,1.245,0,0,0-1.245-1.245,5.216,5.216,0,0,1-4.237-2.181L70.13,35a5.045,5.045,0,0,0-4.1-2.109A5.956,5.956,0,0,0,60.1,38.788v2.869a10.574,10.574,0,0,0,1.279,5.06h-.864a2.078,2.078,0,0,1-2.075-2.076V35.6a6.056,6.056,0,0,1,.1-1.077,1.245,1.245,0,0,0-2.451-.443,8.568,8.568,0,0,0-.136,1.52v9.046a4.571,4.571,0,0,0,4.565,4.566h2.746c.066.064.133.127.2.19V52.57a.416.416,0,0,1-.363.412l-4.467.563a14.571,14.571,0,0,0-6.639,2.6l-2.74,1.961H36.091l-4.428-3.358a3.99,3.99,0,0,0-4.038-.449l-7.6-14.131a1.245,1.245,0,0,0-2.193,1.18l7.9,14.69a4.041,4.041,0,0,0-.525,2.069H7.471V38.477a1.245,1.245,0,0,0-2.49,0V58.105H4.316a2.077,2.077,0,0,0-2.075,2.075V63.5a2.077,2.077,0,0,0,2.075,2.075h27.4L39.8,72.647a4.54,4.54,0,0,0,1.459.856V76.89a4.15,4.15,0,1,0,2.49,0V73.676a4.539,4.539,0,0,0,1.279-.476l10.923-6.085V83.755a1.245,1.245,0,0,0,2.49,0V65a1.245,1.245,0,0,0-1.851-1.088L43.812,71.024a2.08,2.08,0,0,1-2.376-.251l-8.4-7.349,2.282-2.779,6.387,4.844a1.244,1.244,0,0,0,1.477.02l10.257-7.34a12.072,12.072,0,0,1,5.5-2.154l2.477-.312a7.3,7.3,0,0,0,5.321,4.359V71.3a1.245,1.245,0,1,0,2.49,0V60.069a7.008,7.008,0,0,0,5.212-4.053L79.6,57.19a3.717,3.717,0,0,1,2.906,3.643V71.32a4.556,4.556,0,0,1-3.3,4.374V67.983a1.245,1.245,0,0,0-2.49,0V83.755a1.245,1.245,0,1,0,2.49,0V78.249A7.051,7.051,0,0,0,85,71.32V60.832a6.263,6.263,0,0,0-4.98-6.1ZM42.5,82.51a1.66,1.66,0,1,1,1.66-1.66A1.662,1.662,0,0,1,42.5,82.51ZM4.731,63.086V60.6H26.113a4.1,4.1,0,0,0,.481.5l2.275,1.991Zm26.43-1.3-2.928-2.562a1.56,1.56,0,0,1-.533-1.079,1.668,1.668,0,0,1,.4-1.158,1.586,1.586,0,0,1,2.06-.253l3.175,2.408ZM42.48,62.951l-3.1-2.355h6.4ZM66.033,35.383A2.549,2.549,0,0,1,68.1,36.449l.257.359a7.714,7.714,0,0,0,5.018,3.122v1.726a8.04,8.04,0,0,1-4.467,7.231h0a2.083,2.083,0,0,1-1.856,0,8.04,8.04,0,0,1-4.467-7.231V38.8a3.456,3.456,0,0,1,3.445-3.416Zm1.945,22.305a4.726,4.726,0,0,1-3.969-2.38A2.91,2.91,0,0,0,65.95,52.57V51.119a4.569,4.569,0,0,0,2.034.476,5.029,5.029,0,0,0,2.117-.519V52.71a2.887,2.887,0,0,0,1.847,2.7,4.631,4.631,0,0,1-3.97,2.274Zm4.936-4.574a.413.413,0,0,1-.323-.4V49.319c.039-.037.079-.074.118-.112h2.746a4.536,4.536,0,0,0,2.075-.5v5.458Z"/>
        <path id="Trazado_630993" data-name="Trazado 630993" d="M67.983,75.868a1.245,1.245,0,0,0-1.245,1.245v6.558a1.245,1.245,0,0,0,2.49,0V77.113A1.245,1.245,0,0,0,67.983,75.868Z"/>
        <path id="Trazado_630994" data-name="Trazado 630994" d="M71.968,17.515V12.368a1.245,1.245,0,0,0-1.245-1.245H14.277a1.245,1.245,0,0,0-1.245,1.245v5.146a1.245,1.245,0,0,0,1.245,1.245H70.723A1.245,1.245,0,0,0,71.968,17.515Zm-2.49-1.245H15.522V13.613H69.477Z"/>
        <path id="Trazado_630995" data-name="Trazado 630995" d="M42.583,22.08H14.36a1.245,1.245,0,0,0,0,2.49H42.583a1.245,1.245,0,1,0,0-2.49Z"/>
        <path id="Trazado_630996" data-name="Trazado 630996" d="M42.583,27.891H14.36a1.245,1.245,0,0,0,0,2.49H42.583a1.245,1.245,0,1,0,0-2.49Z"/>
        <path id="Trazado_630997" data-name="Trazado 630997" d="M43.828,34.946A1.245,1.245,0,0,0,42.583,33.7H36.772a1.245,1.245,0,0,0-1.245,1.245v5.811A1.245,1.245,0,0,0,36.772,42h5.811a1.245,1.245,0,0,0,1.245-1.245Zm-2.49,4.565h-3.32v-3.32h3.32Z"/>
        <path id="Trazado_630998" data-name="Trazado 630998" d="M42.583,44.492H36.772a1.245,1.245,0,0,0-1.245,1.245v5.811a1.245,1.245,0,0,0,1.245,1.245h5.811a1.245,1.245,0,0,0,1.245-1.245V45.737A1.245,1.245,0,0,0,42.583,44.492ZM41.338,50.3h-3.32v-3.32h3.32Z"/>
        <path id="Trazado_630999" data-name="Trazado 630999" d="M30.962,39.512h-5.4a1.245,1.245,0,1,0,0,2.49h5.4a1.245,1.245,0,1,0,0-2.49Z"/>
        <path id="Trazado_631000" data-name="Trazado 631000" d="M30.962,33.7H14.36a1.245,1.245,0,1,0,0,2.49h16.6a1.245,1.245,0,1,0,0-2.49Z"/>
      </g>
    </g>
  </g>
</svg>
