<svg xmlns="http://www.w3.org/2000/svg" xmlns:xlink="http://www.w3.org/1999/xlink" width="85" height="85" viewBox="0 0 85 85">
  <defs>
    <clipPath id="clip-path">
      <rect id="Rect치ngulo_306816" data-name="Rect치ngulo 306816" width="85" height="85" transform="translate(-7293 7315)" fill="#449c6e" stroke="#707070" stroke-width="1"/>
    </clipPath>
  </defs>
  <g id="Enmascarar_grupo_878420" data-name="Enmascarar grupo 878420" transform="translate(7293 -7315)" clip-path="url(#clip-path)">
    <g id="Monitoring" transform="translate(-7295.826 7312.181)">
      <rect id="Rect치ngulo_307105" data-name="Rect치ngulo 307105" width="76.487" height="53.824" rx="5.666" transform="translate(7.082 21.246)" fill="#57a4ff"/>
      <path id="Trazado_631016" data-name="Trazado 631016" d="M12.748,26.912H77.9V69.405H12.748Z" fill="#ffdaaa"/>
      <path id="Trazado_631017" data-name="Trazado 631017" d="M36.827,69.405H77.9V26.912C77.9,50.4,59.531,69.405,36.827,69.405Z" fill="#ffc477"/>
      <path id="Trazado_631018" data-name="Trazado 631018" d="M4.249,75.071H86.4v5.666A5.666,5.666,0,0,1,80.736,86.4H9.915a5.666,5.666,0,0,1-5.666-5.666Z" fill="#006df0"/>
      <path id="Trazado_631019" data-name="Trazado 631019" d="M77.9,21.246H75.071a5.666,5.666,0,0,1,5.666,5.666V69.405a5.666,5.666,0,0,1-5.666,5.666H77.9a5.666,5.666,0,0,0,5.666-5.666V26.912A5.666,5.666,0,0,0,77.9,21.246Z" fill="#2488ff"/>
      <path id="Trazado_631020" data-name="Trazado 631020" d="M83.569,75.071v5.666A5.666,5.666,0,0,1,77.9,86.4h2.833A5.666,5.666,0,0,0,86.4,80.736V75.071Z" fill="#005ece"/>
      <path id="Trazado_631021" data-name="Trazado 631021" d="M41.076,80.736h8.5A2.833,2.833,0,0,0,52.408,77.9V75.071H38.244V77.9A2.833,2.833,0,0,0,41.076,80.736Z" fill="#ffcd00"/>
      <path id="Trazado_631022" data-name="Trazado 631022" d="M56.657,46.544a22.663,22.663,0,1,1,8.3-30.963A22.663,22.663,0,0,1,56.657,46.544Z" fill="#ff9811"/>
      <path id="Trazado_631023" data-name="Trazado 631023" d="M53.824,41.629a17,17,0,1,1,6.218-23.215,17,17,0,0,1-6.218,23.215Z" fill="#ffcd00"/>
      <path id="Trazado_631024" data-name="Trazado 631024" d="M64.068,53.71l-4.907,2.833-2.453,1.416L66.5,74.921a5.666,5.666,0,1,0,9.813-5.666L66.521,52.293Z" fill="#004fac"/>
      <path id="Trazado_631025" data-name="Trazado 631025" d="M50.991,19.83h4.249V33.994H50.991Z" fill="#5eac24"/>
      <path id="Trazado_631026" data-name="Trazado 631026" d="M42.493,24.079h4.249v9.915H42.493Z" fill="#006df0"/>
      <path id="Trazado_631027" data-name="Trazado 631027" d="M33.994,28.329h4.249v5.666H33.994Z" fill="#ed1c24"/>
      <path id="Trazado_631028" data-name="Trazado 631028" d="M58.88,45.059a21.03,21.03,0,0,1-4.615,2.664l-.142.084,5.042,8.735,4.907-2.833L59.03,44.974Z" fill="#ff5023"/>
      <path id="Trazado_631029" data-name="Trazado 631029" d="M29.378,36.119a18.414,18.414,0,1,0,6.741-25.153,18.414,18.414,0,0,0-6.741,25.153Zm8.157-22.7a15.482,15.482,0,1,1-7.3,9.45,15.581,15.581,0,0,1,7.3-9.45Z"/>
      <path id="Trazado_631030" data-name="Trazado 631030" d="M86.4,73.654h-2.87a7.009,7.009,0,0,0,1.453-4.249V26.912A7.091,7.091,0,0,0,77.9,19.83H68.321a24.034,24.034,0,0,0-45.97,0h-9.6a7.091,7.091,0,0,0-7.082,7.082V69.405a7.009,7.009,0,0,0,1.453,4.249H4.249a1.416,1.416,0,0,0-1.416,1.416v5.666a7.091,7.091,0,0,0,7.082,7.082H80.736a7.091,7.091,0,0,0,7.082-7.082V75.071A1.416,1.416,0,0,0,86.4,73.654ZM77.9,22.663a4.249,4.249,0,0,1,4.249,4.249V69.405a4.241,4.241,0,0,1-3.856,4.21,7.058,7.058,0,0,0,.031-2.878,1.4,1.4,0,0,0,.992-1.331V26.912A1.416,1.416,0,0,0,77.9,25.5H69.336A24.022,24.022,0,0,0,69,22.663ZM21.316,28.329A23.983,23.983,0,0,0,39.093,50.171a24.234,24.234,0,0,0,6.271.83,23.8,23.8,0,0,0,8.13-1.442l3.729,6.465L56,56.732a1.416,1.416,0,0,0-.518,1.935l5.384,9.322h-46.7V28.329ZM58.557,47l3.576,6.194L59.68,54.606l-3.564-6.173c.425-.211.839-.425,1.249-.667s.8-.511,1.191-.771Zm.086,11.482,3.683-2.125,2.453-1.416L66,54.228,75.082,69.95v.007a4.252,4.252,0,1,1-7.365,4.249Zm9.1-6.894a1.416,1.416,0,0,0-1.935-.518l-1.227.708L60.846,45.3a24.115,24.115,0,0,0,8.5-16.967h7.143V66.722ZM34.7,8.513A21.118,21.118,0,0,1,45.292,5.656,21.262,21.262,0,1,1,34.7,8.512ZM8.5,26.912a4.249,4.249,0,0,1,4.249-4.249h8.9a24.351,24.351,0,0,0-.341,2.833H12.748a1.416,1.416,0,0,0-1.416,1.416V69.405a1.416,1.416,0,0,0,1.416,1.416H62.5l1.636,2.833H12.748A4.249,4.249,0,0,1,8.5,69.405ZM50.991,76.487V77.9a1.416,1.416,0,0,1-1.416,1.416h-8.5A1.416,1.416,0,0,1,39.66,77.9V76.487Zm33.994,4.249a4.249,4.249,0,0,1-4.249,4.249H9.915a4.249,4.249,0,0,1-4.249-4.249V76.487H36.827V77.9a4.249,4.249,0,0,0,4.249,4.249h8.5A4.249,4.249,0,0,0,53.824,77.9V76.487h12.04a7.041,7.041,0,0,0,11.078,0h8.044Z"/>
      <path id="Trazado_631031" data-name="Trazado 631031" d="M50.991,35.411h4.249a1.416,1.416,0,0,0,1.416-1.416V19.83a1.416,1.416,0,0,0-1.416-1.416H50.991a1.416,1.416,0,0,0-1.416,1.416V33.994A1.416,1.416,0,0,0,50.991,35.411Zm1.416-14.164h1.416V32.578H52.408Z"/>
      <path id="Trazado_631032" data-name="Trazado 631032" d="M42.493,35.411h4.249a1.416,1.416,0,0,0,1.416-1.416V24.079a1.416,1.416,0,0,0-1.416-1.416H42.493a1.416,1.416,0,0,0-1.416,1.416v9.915A1.416,1.416,0,0,0,42.493,35.411ZM43.909,25.5h1.416v7.082H43.909Z"/>
      <path id="Trazado_631033" data-name="Trazado 631033" d="M33.994,35.411h4.249a1.416,1.416,0,0,0,1.416-1.416V28.329a1.416,1.416,0,0,0-1.416-1.416H33.994a1.416,1.416,0,0,0-1.416,1.416v5.666A1.416,1.416,0,0,0,33.994,35.411Zm1.416-5.666h1.416v2.833H35.411Z"/>
      <path id="Trazado_631034" data-name="Trazado 631034" d="M21.246,59.49h2.833a1.416,1.416,0,1,0,0-2.833H21.246a1.416,1.416,0,1,0,0,2.833Z"/>
      <path id="Trazado_631035" data-name="Trazado 631035" d="M29.745,59.49H50.991a1.416,1.416,0,1,0,0-2.833H29.745a1.416,1.416,0,1,0,0,2.833Z"/>
      <path id="Trazado_631036" data-name="Trazado 631036" d="M21.246,53.824h2.833a1.416,1.416,0,1,0,0-2.833H21.246a1.416,1.416,0,1,0,0,2.833Z"/>
      <path id="Trazado_631037" data-name="Trazado 631037" d="M29.745,53.824h5.666a1.416,1.416,0,0,0,0-2.833H29.745a1.416,1.416,0,0,0,0,2.833Z"/>
      <path id="Trazado_631038" data-name="Trazado 631038" d="M21.246,65.156h2.833a1.416,1.416,0,1,0,0-2.833H21.246a1.416,1.416,0,1,0,0,2.833Z"/>
      <path id="Trazado_631039" data-name="Trazado 631039" d="M29.745,65.156H50.991a1.416,1.416,0,0,0,0-2.833H29.745a1.416,1.416,0,0,0,0,2.833Z"/>
    </g>
  </g>
</svg>
