<svg xmlns="http://www.w3.org/2000/svg" xmlns:xlink="http://www.w3.org/1999/xlink" width="86" height="86" viewBox="0 0 86 86">
  <defs>
    <clipPath id="clip-path">
      <rect id="Rectángulo_351130" data-name="Rectángulo 351130" width="60.47" height="60.487" fill="none"/>
    </clipPath>
  </defs>
  <g id="Grupo_980514" data-name="Grupo 980514" transform="translate(-757 -18748)">
    <circle id="Elipse_7825" data-name="Elipse 7825" cx="43" cy="43" r="43" transform="translate(757 18748)" fill="#faebcd"/>
    <g id="Grupo_980513" data-name="Grupo 980513" transform="translate(769.861 18760.756)">
      <g id="Grupo_980512" data-name="Grupo 980512" transform="translate(0)" clip-path="url(#clip-path)">
        <path id="Trazado_656361" data-name="Trazado 656361" d="M131.619,152.38a18.161,18.161,0,0,1-25.559-25.559,17.947,17.947,0,0,1,11.531-4.161,17.469,17.469,0,0,1,2.061.119.885.885,0,0,0-.4.713v.951a.833.833,0,1,0,1.664,0v-.951a.947.947,0,0,0-.2-.555,18.2,18.2,0,0,1,14.781,14.82.782.782,0,0,0-.555-.238H134a.832.832,0,1,0,0,1.664h.951a.885.885,0,0,0,.713-.4,17.441,17.441,0,0,1,.119,2.061,17.867,17.867,0,0,1-4.161,11.531m-10.7-17.237a3.037,3.037,0,0,1,1.506.872,3.254,3.254,0,0,1,0,4.676,3.328,3.328,0,0,1-2.338.991,3.684,3.684,0,0,1-1.149-.2l-2.615,3.8a.841.841,0,0,1-1.387-.951l2.655-3.8a3.262,3.262,0,0,1,.159-4.517,3.036,3.036,0,0,1,1.506-.872v-7.489a.832.832,0,1,1,1.664,0Zm.317,2.061a1.466,1.466,0,0,0-1.149-.476,1.625,1.625,0,0,0-1.149,2.774,1.559,1.559,0,0,0,1.149.515,1.5,1.5,0,0,0,1.149-.515,1.539,1.539,0,0,0,0-2.3m-15.969,1.981a.833.833,0,1,1,0-1.664h.951a.832.832,0,0,1,0,1.664Zm15.652,14.028a.832.832,0,1,1-1.664,0v-.951a.833.833,0,1,1,1.664,0Z" transform="translate(-89.853 -108.117)" fill="#583cb6" fill-rule="evenodd"/>
        <path id="Trazado_656362" data-name="Trazado 656362" d="M48.27,33.86l.04-.04,1.228-1.228a.853.853,0,0,1,1.149.04l8.084,8.084a.862.862,0,0,1,0,1.189L55.086,45.59a.84.84,0,0,0-.119.991,28.276,28.276,0,0,1,1.545,3.725.809.809,0,0,0,.793.594H62.5a.837.837,0,0,1,.832.832v9.827H59.8a.857.857,0,0,0-.832.594c-.2.634-.436,1.228-.674,1.862H56.076a.857.857,0,0,0-.832.594,15.109,15.109,0,0,1-1.228,2.853.778.778,0,0,0,.159.991l4.6,4.557c.357.317.079.753,0,1.189l-5.587,5.627a.912.912,0,0,1-1.228,0L48.31,76.142a.85.85,0,0,0-.991-.159,21.723,21.723,0,0,1-3.725,1.545.857.857,0,0,0-.594.832v5.191a.829.829,0,0,1-.357.674,1.783,1.783,0,0,1-1.11.159H31.35c-.436,0-.951.079-1.268-.277a1,1,0,0,1-.238-.555V78.361a.811.811,0,0,0-.594-.832,20.112,20.112,0,0,1-3.685-1.545.9.9,0,0,0-1.03.159l-3.646,3.685a.912.912,0,0,1-1.228,0l-8.044-8.084a.839.839,0,0,1,0-1.228l3.646-3.646a.85.85,0,0,0,.159-.991,25.458,25.458,0,0,1-1.545-3.725.844.844,0,0,0-.792-.594H7.891c-.713,0-.872-.594-.872-1.149V49.275a.879.879,0,0,1,.872-.872h5.191a.844.844,0,0,0,.792-.594,25.463,25.463,0,0,1,1.545-3.725.85.85,0,0,0-.159-.991l-3.646-3.646a.839.839,0,0,1,0-1.228L17.2,32.632c.476,0,.872-.317,1.189,0l4.755,4.716a.83.83,0,0,0,.991.159,12.387,12.387,0,0,1,2.813-1.387.857.857,0,0,0,.594-.832l-.079-2.219c.594-.238,1.189-.436,1.783-.634a.8.8,0,0,0,.594-.792V28.075h9.827a.813.813,0,0,1,.832.832V34.1a.857.857,0,0,0,.594.832,23.61,23.61,0,0,1,3.725,1.506.833.833,0,0,0,.991-.119ZM36.422,36.793A18.189,18.189,0,1,1,18.273,54.981,18.214,18.214,0,0,1,36.422,36.793" transform="translate(-6.187 -24.746)" fill="#f28e6a" fill-rule="evenodd"/>
        <path id="Trazado_656363" data-name="Trazado 656363" d="M37.645,6.895a16.839,16.839,0,0,1,1.981.713c.634.277,1.268.555,1.862.872h.04c1.07-1.189,2.5-2.5,3.685-3.685A1.678,1.678,0,0,1,46.4,4.319a1.748,1.748,0,0,1,1.189.476l8.084,8.084a1.844,1.844,0,0,1,.476,1.228,1.822,1.822,0,0,1-.476,1.189c-1.189,1.149-2.5,2.576-3.685,3.646v.04a15.912,15.912,0,0,1,.872,1.862,16.8,16.8,0,0,1,.713,1.981h5.231a1.719,1.719,0,0,1,1.189.515,1.613,1.613,0,0,1,.476,1.189V35.545a2.594,2.594,0,0,1-.2,1.189,1.437,1.437,0,0,1-1.466.911H53.575a16.2,16.2,0,0,1-.713,1.942,13.9,13.9,0,0,1-.872,1.9v.04c1.189,1.07,2.5,2.5,3.685,3.646a1.843,1.843,0,0,1,.476,1.228,1.822,1.822,0,0,1-.476,1.189l-8.084,8.084a1.747,1.747,0,0,1-1.189.476,1.678,1.678,0,0,1-1.189-.476c-1.189-1.189-2.615-2.5-3.685-3.685h-.04c-.594.317-1.228.594-1.862.872a16.8,16.8,0,0,1-1.981.713v5.231a2.085,2.085,0,0,1-.159.713,1.9,1.9,0,0,1-1.981.951H24.965a1.878,1.878,0,0,1-1.7-.555,2.246,2.246,0,0,1-.317-.515,1.59,1.59,0,0,1-.119-.594V53.575a16.211,16.211,0,0,1-1.942-.713c-.674-.277-1.308-.555-1.9-.872-1.07,1.189-2.536,2.5-3.685,3.685a1.747,1.747,0,0,1-1.189.476,1.844,1.844,0,0,1-1.228-.476L4.834,47.591A1.69,1.69,0,0,1,4.319,46.4a1.71,1.71,0,0,1,.515-1.228C5.984,44.025,7.291,42.6,8.48,41.528v-.04c-.317-.594-.594-1.228-.872-1.862-.238-.634-.515-1.308-.713-1.981-.792.159-4.082,0-5.191,0a1.527,1.527,0,0,1-1.427-.792A2.11,2.11,0,0,1,0,35.664V24.529A1.786,1.786,0,0,1,.476,23.34h.04A1.582,1.582,0,0,1,1.7,22.825H6.895a16.208,16.208,0,0,1,.713-1.942c.277-.674.555-1.308.872-1.9v-.04c-1.189-1.07-2.5-2.5-3.646-3.646a1.69,1.69,0,0,1-.515-1.189,1.711,1.711,0,0,1,.515-1.228l8.044-8.084a1.844,1.844,0,0,1,1.228-.476,1.823,1.823,0,0,1,1.189.476c1.149,1.189,2.576,2.5,3.685,3.685.594-.317,1.228-.594,1.9-.872a19.237,19.237,0,0,1,1.942-.713V1.7A1.739,1.739,0,0,1,23.34.475,1.786,1.786,0,0,1,24.529,0H35.941A1.71,1.71,0,0,1,37.13.475,1.739,1.739,0,0,1,37.645,1.7Zm1.308,2.259c-.594-.238-1.189-.476-1.823-.674a1.8,1.8,0,0,1-.832-.594,1.733,1.733,0,0,1-.317-.991V1.664H24.529V6.895a1.522,1.522,0,0,1-.357.991,1.617,1.617,0,0,1-.832.594c-.634.2-1.228.436-1.823.674a17.967,17.967,0,0,0-1.783.832,1.831,1.831,0,0,1-1.03.159,1.468,1.468,0,0,1-.911-.476L14.107,5.983h-.04L5.984,14.067v.04l3.685,3.646a1.565,1.565,0,0,1,.476.951,1.832,1.832,0,0,1-.159,1.03,17.969,17.969,0,0,0-.832,1.783c-.238.594-.476,1.189-.674,1.823a1.616,1.616,0,0,1-.594.832,1.522,1.522,0,0,1-.991.357H1.664c-.277,1.268,0,8.837,0,11.135a.773.773,0,0,0,.04.317H6.895a1.735,1.735,0,0,1,.991.317,1.617,1.617,0,0,1,.594.832c.2.634.436,1.228.674,1.823a14.59,14.59,0,0,0,.832,1.783,1.832,1.832,0,0,1,.159,1.03,1.565,1.565,0,0,1-.476.951L5.984,46.363v.04l8.084,8.084h.04L17.792,50.8a1.468,1.468,0,0,1,.911-.476,1.832,1.832,0,0,1,1.03.159,17.966,17.966,0,0,0,1.783.832c.594.238,1.189.476,1.823.674a1.739,1.739,0,0,1,1.189,1.625v5.191H35.981V53.614a1.86,1.86,0,0,1,.317-1.03,1.8,1.8,0,0,1,.832-.594c.634-.2,1.228-.436,1.862-.674a14.051,14.051,0,0,0,1.744-.832,1.832,1.832,0,0,1,1.03-.159,1.564,1.564,0,0,1,.951.476l3.646,3.685h.04L54.486,46.4v-.04L50.8,42.717a1.811,1.811,0,0,1-.476-.951,1.832,1.832,0,0,1,.159-1.03,14.589,14.589,0,0,0,.832-1.783,14.3,14.3,0,0,0,.674-1.823,1.617,1.617,0,0,1,.594-.832,1.861,1.861,0,0,1,1.03-.317h5.151a1.483,1.483,0,0,0,.04-.436V24.529H53.614A1.739,1.739,0,0,1,51.99,23.34a14.3,14.3,0,0,0-.674-1.823c-.238-.634-.515-1.189-.792-1.783a1.568,1.568,0,0,1-.2-1.03,1.811,1.811,0,0,1,.476-.951l3.685-3.646v-.04L46.4,5.983h-.04L42.717,9.669a1.564,1.564,0,0,1-.951.476,1.831,1.831,0,0,1-1.03-.159,12.266,12.266,0,0,0-1.783-.832M1.7,36.02c.04.04.04,0,0,0" transform="translate(0)" fill="#575757"/>
        <path id="Trazado_656364" data-name="Trazado 656364" d="M113.606,94.586a19.077,19.077,0,1,1-13.433,5.587,18.823,18.823,0,0,1,13.433-5.587m12.245,6.776a17.221,17.221,0,1,0,5.112,12.245,17.247,17.247,0,0,0-5.112-12.245" transform="translate(-83.371 -83.372)" fill="#414141"/>
      </g>
    </g>
  </g>
</svg>
