<svg xmlns="http://www.w3.org/2000/svg" xmlns:xlink="http://www.w3.org/1999/xlink" width="81" height="81" viewBox="0 0 81 81">
  <defs>
    <clipPath id="clip-path">
      <rect id="Rectángulo_306927" data-name="Rectángulo 306927" width="81" height="81" transform="translate(218 20344)" fill="#583cb6" stroke="#707070" stroke-width="1"/>
    </clipPath>
  </defs>
  <g id="Enmascarar_grupo_878422" data-name="Enmascarar grupo 878422" transform="translate(-218 -20344)" clip-path="url(#clip-path)">
    <g id="guardaespaldas" transform="translate(218 20344)">
      <g id="Grupo_959769" data-name="Grupo 959769" transform="translate(1.187 1.187)">
        <path id="Trazado_631055" data-name="Trazado 631055" d="M76.543,56.016c-11.094-4.01-18.646-9.743-21.8-13.11-3.308,3.609-21.022,2.656-24.375-2.48H27.627c0,1.661-8.519,10.188-23.463,15.59a4.741,4.741,0,0,0-3.124,4.46V74.119H76.514l1.576-9.052Z" transform="translate(-1.04 4.507)" fill="#607882"/>
        <path id="Trazado_631056" data-name="Trazado 631056" d="M70.349,58.552a4.741,4.741,0,0,0-3.124-4.46l-.028,18.1h3.152Z" transform="translate(8.278 6.432)" fill="#495959"/>
        <path id="Trazado_631057" data-name="Trazado 631057" d="M39.9,48.565c3.534,0,7.916-2.05,11.224-5.659a5.52,5.52,0,0,1-1.661-2.48H26.746c3.354,5.136,8.873,8.139,13.152,8.139Z" transform="translate(2.58 4.507)" fill="#495959"/>
        <path id="Trazado_631058" data-name="Trazado 631058" d="M24.345,34.876v6.332c0,10.26,4.538,20.281,8.194,26.69h5.726c2.816,0,7.962-10.768,9.5-21.076Z" transform="translate(2.242 3.726)" fill="#f5fcff"/>
        <path id="Trazado_631059" data-name="Trazado 631059" d="M40.235,49.347a13.23,13.23,0,0,0,5.809-1.535A61.034,61.034,0,0,1,38.264,67.9H41.6c3.656-6.409,8.194-16.43,8.194-26.69V34.876H24.345A19.131,19.131,0,0,0,35.093,48.133a12.783,12.783,0,0,0,5.142,1.214Z" transform="translate(2.242 3.726)" fill="#d3effd"/>
        <path id="Trazado_631060" data-name="Trazado 631060" d="M31.527,50.5c0,.756,2.159,3.454,2.159,3.454s-2.159,7.588-2.159,12.3h0v0a32.17,32.17,0,0,0,4.531,4.1,17.153,17.153,0,0,0,3.424-4.894c-.433-4.216-2.159-11.514-2.159-11.514s2.246-4.6,2.246-5.354c-.193-.289-.4-.592-.622-.9L34.081,46.5C32.846,48.056,31.527,50.056,31.527,50.5Z" transform="translate(3.254 5.362)" fill="#607882"/>
        <path id="Trazado_631061" data-name="Trazado 631061" d="M35.744,44.787c-.309,0-1.123.87-1.978,1.949a13.013,13.013,0,0,0,4.867,1.21c-1.119-1.556-2.47-3.159-2.889-3.159Z" transform="translate(3.569 5.122)" fill="#495959"/>
        <path id="Trazado_631062" data-name="Trazado 631062" d="M40.591,66c0-4.716-2.159-12.3-2.159-12.3s2.159-2.7,2.159-3.454a6.434,6.434,0,0,0-1.021-1.9c0,.61-2.287,3.723-3.17,4.9a1.183,1.183,0,0,0-.2,1,84.453,84.453,0,0,1,2.017,10.173c-.611,1.052-1.137,1.894-1.516,2.484a1.714,1.714,0,0,1-1.93.711A11.384,11.384,0,0,1,31.528,66a66.809,66.809,0,0,0,4.531,7,66.824,66.824,0,0,0,4.532-7Z" transform="translate(3.254 5.622)" fill="#495959"/>
        <path id="Trazado_631063" data-name="Trazado 631063" d="M24.66,23.149c0,2.844-.472,7.166-2.667,7.166-3.461,0-5.282-4.323-5.282-7.166S18.49,18,20.685,18,24.66,20.306,24.66,23.149Z" transform="translate(1.167 1.349)" fill="#915041"/>
        <path id="Trazado_631064" data-name="Trazado 631064" d="M47.32,23.149c0,2.844.472,7.166,2.667,7.166,3.461,0,5.282-4.323,5.282-7.166S53.49,18,51.295,18s-3.975,2.305-3.975,5.149Z" transform="translate(5.478 1.349)" fill="#915041"/>
        <path id="Trazado_631065" data-name="Trazado 631065" d="M52.065,32.7V19.284c0-7.364-2.306-12.913-6.059-16.143a16.684,16.684,0,0,0-8.512-2.1c-10.344,0-16.153,7.141-16.153,18.244V32.7c0,11.1,9.554,18.244,16.153,18.244h0C43.663,50.462,52.065,43.807,52.065,32.7Z" transform="translate(1.819 -1.04)" fill="#b46e5a"/>
        <path id="Trazado_631066" data-name="Trazado 631066" d="M44.012,2.882c2.918,3.308,4.476,8.779,4.476,16.143v13.42c0,11.1-7.609,17.389-12.988,18.244,6.6,0,16.152-7.142,16.152-18.244V19.025c0-7.541-2.68-13.253-7.64-16.143Z" transform="translate(3.813 -0.781)" fill="#915041"/>
        <path id="Trazado_631067" data-name="Trazado 631067" d="M49.777,22.416l-1.582-4.5H39.953a2.373,2.373,0,0,0-2.373,2.373v1.495a6.455,6.455,0,0,0,.235,1.765c1.063,2.015,4.339,2.737,6.065,2.737C46.959,26.285,49.777,25.147,49.777,22.416Z" transform="translate(4.106 1.337)" fill="#607882"/>
        <path id="Trazado_631068" data-name="Trazado 631068" d="M48.957,17.916h-.791v2.919c0,2.731-2.819,3.869-5.9,3.869a7.87,7.87,0,0,1-4.483-1.155c.813,2.871,3.626,4.319,6.655,4.319,3.6,0,6.89-2.041,6.89-6.084V20.289a2.373,2.373,0,0,0-2.373-2.373Z" transform="translate(4.135 1.337)" fill="#495959"/>
        <path id="Trazado_631069" data-name="Trazado 631069" d="M33.539,22.416l-1.582-4.5H23.714a2.373,2.373,0,0,0-2.373,2.373v1.495a6.455,6.455,0,0,0,.235,1.765c1.063,2.015,4.339,2.737,6.065,2.737C30.72,26.285,33.539,25.147,33.539,22.416Z" transform="translate(1.819 1.337)" fill="#607882"/>
        <path id="Trazado_631070" data-name="Trazado 631070" d="M32.719,17.916h-.791v2.919c0,2.731-2.819,3.869-5.9,3.869a7.87,7.87,0,0,1-4.483-1.155c.813,2.871,3.626,4.319,6.655,4.319,3.6,0,6.89-2.041,6.89-6.084V20.289a2.373,2.373,0,0,0-2.373-2.373Z" transform="translate(1.848 1.337)" fill="#495959"/>
        <path id="Trazado_631071" data-name="Trazado 631071" d="M38.359,21.49c0,5.152,1.569,5.8,1.569,7.2s-2.634,3-3.942,3-3.942-1.605-3.942-3,1.568-2.045,1.568-7.2a2.631,2.631,0,0,1,4.746,0Z" transform="translate(3.327 1.63)" fill="#915041"/>
      </g>
      <g id="Grupo_959770" data-name="Grupo 959770" transform="translate(0 0)">
        <path id="Trazado_631072" data-name="Trazado 631072" d="M32.867,81a1.182,1.182,0,0,1-.823-.332c-.035-.034-3.583-3.453-7.142-7.125a1.186,1.186,0,0,1,1.7-1.651c3.529,3.641,7.049,7.033,7.084,7.067A1.186,1.186,0,0,1,32.867,81Zm46.946,0a1.186,1.186,0,0,1-1.187-1.187V66.17a3.563,3.563,0,0,0-2.341-3.344c-1.163-.421-2.327-.874-3.461-1.349a1.187,1.187,0,0,1,.917-2.189c1.1.46,2.225.9,3.351,1.306A5.943,5.943,0,0,1,81,66.17V79.813A1.186,1.186,0,0,1,79.813,81ZM40.5,81a1.186,1.186,0,0,1-.94-.462,72.738,72.738,0,0,1-6.482-10.591c-2.578-5.084-5.586-12.467-6.323-20.3a35.842,35.842,0,0,1-2.9,2.634c-2.128,4.667-4.293,10.045-4.388,11.33.1.258.663,1.311,3.749,4.694a1.187,1.187,0,0,1-1.754,1.6c-4.034-4.424-4.371-5.494-4.371-6.212,0-1.4,1.561-5.376,2.91-8.548A69.585,69.585,0,0,1,4.714,62.826,3.563,3.563,0,0,0,2.373,66.17V79.813a1.187,1.187,0,0,1-2.373,0V66.17a5.943,5.943,0,0,1,3.907-5.576,66.7,66.7,0,0,0,15.748-8.116,3.769,3.769,0,0,1-1.123-1.057,3.645,3.645,0,0,1-.527-3.313A3.767,3.767,0,0,1,16.5,42.293a3.767,3.767,0,0,1,.76-6.021,6.463,6.463,0,0,1-.573-2.708A7.287,7.287,0,0,1,18.4,28.778a10.125,10.125,0,0,1-.52-3.094c0-3.493,2.315-6.335,5.161-6.335l.121,0c.016-6.549,1.976-11.805,5.67-15.2a1.187,1.187,0,0,1,1.606,1.747c-3.208,2.951-4.9,7.632-4.9,13.536v.025a3.545,3.545,0,0,1,1.187-.2h9.034a3.566,3.566,0,0,1,3.424,2.586,4.2,4.2,0,0,1,2.644,0,3.566,3.566,0,0,1,3.424-2.586h9.034a3.545,3.545,0,0,1,1.187.2v-.025c0-5.228-1.351-9.554-3.908-12.509C48.947,3.9,45.226,2.373,40.5,2.373a16.565,16.565,0,0,0-6.3,1.145,1.187,1.187,0,0,1-.9-2.2A18.919,18.919,0,0,1,40.5,0c5.37,0,9.814,1.857,12.853,5.369,2.922,3.377,4.472,8.211,4.486,13.982l.122,0c2.846,0,5.161,2.842,5.161,6.335,0,3.125-1.839,7.426-5.311,8.223a19.608,19.608,0,0,1-3.4,10.046v2.085c.368,1,4.986,6.248,15.025,11.275a1.186,1.186,0,1,1-1.062,2.122A65.918,65.918,0,0,1,61,55.145c1.4,3.3,2.908,7.149,2.908,8.544,0,.666,0,1.779-7.627,9.667-3.62,3.743-7.287,7.277-7.324,7.312a1.186,1.186,0,1,1-1.646-1.709c.034-.033,3.478-3.352,6.967-6.947,6.188-6.376,7.115-8.047,7.254-8.4-.089-1.156-1.939-5.937-4.383-11.32q-.334-.273-.63-.526c-.663-.564-1.5-1.316-2.276-2.119a57.054,57.054,0,0,1-6.319,20.3A72.7,72.7,0,0,1,41.44,80.538,1.187,1.187,0,0,1,40.5,81Zm-3.343-8.527c1.345,2.342,2.554,4.172,3.343,5.309.788-1.137,2-2.967,3.342-5.307-.1-4.523-2.09-11.572-2.11-11.644a1.187,1.187,0,0,1,.215-1.066,18.806,18.806,0,0,0,1.85-2.688,27.252,27.252,0,0,0-3.3-4.53,27.253,27.253,0,0,0-3.3,4.53,18.8,18.8,0,0,0,1.85,2.688,1.187,1.187,0,0,1,.215,1.066c-.021.072-2.012,7.123-2.11,11.642Zm7.018-11.7a74.851,74.851,0,0,1,1.692,7.946c3.008-5.97,6-13.861,6.165-21.882l-.148.148a18.842,18.842,0,0,1-8.746,4.989c.26.319.546.686.862,1.111,2.218,2.978,2.218,3.7,2.218,3.97s0,1.077-2.043,3.717ZM28.967,46.834c.169,8.02,3.156,15.909,6.164,21.879a74.838,74.838,0,0,1,1.692-7.945c-2.043-2.64-2.043-3.443-2.043-3.717s0-.992,2.218-3.97c.316-.425.6-.793.862-1.111a18.841,18.841,0,0,1-8.746-4.989l-.147-.146Zm-9.157-.755a1.187,1.187,0,0,1,.868,2,1.588,1.588,0,0,0-.214,1.969,1.517,1.517,0,0,0,1.744.506c2.662-2.152,4.152-3.868,4.377-4.51V43.955a19.609,19.609,0,0,1-3.4-10.048,6.058,6.058,0,0,1-3.6-2.661,5.115,5.115,0,0,0-.533,2.317,3.722,3.722,0,0,0,.849,2.492,1.163,1.163,0,0,1,.3,1.238,1.191,1.191,0,0,1-1.03.79,1.49,1.49,0,0,0-.319,2.943,1.183,1.183,0,0,1,.144,2.191,1.489,1.489,0,0,0,.743,2.863h.062Zm5.722-16.428v3.2a17.386,17.386,0,0,0,5.249,12.442c2.884,2.847,6.607,4.616,9.717,4.616s6.834-1.769,9.717-4.616a17.386,17.386,0,0,0,5.249-12.442v-3.2a8.626,8.626,0,0,1-5.7,1.926,9.3,9.3,0,0,1-4.265-.963,3.109,3.109,0,0,1,.131.89c0,2.291-3.4,4.186-5.128,4.186A6.153,6.153,0,0,1,37.358,34.5,4.1,4.1,0,0,1,35.372,31.5a3.107,3.107,0,0,1,.131-.891,9.3,9.3,0,0,1-4.266.964,8.627,8.627,0,0,1-5.7-1.926Zm-5.62,6.411h0Zm19.4-11.478a12.774,12.774,0,0,1-1.254,6.045,2.354,2.354,0,0,0-.312.875c.049.539,1.837,1.813,2.755,1.813s2.706-1.274,2.755-1.817a2.365,2.365,0,0,0-.313-.871,12.761,12.761,0,0,1-1.255-6.041,1.5,1.5,0,0,0-2.376,0Zm18.527-2.857v9.668c1.827-.868,2.91-3.653,2.91-5.71,0-2.148-1.277-3.962-2.788-3.962C57.92,21.722,57.879,21.724,57.839,21.726ZM21.211,29.361a4.62,4.62,0,0,0,1.949,2.033V28.438A5.819,5.819,0,0,0,21.211,29.361Zm22.848-5.054c0,3.615,3.072,4.9,5.7,4.9s5.7-1.283,5.7-4.9V22.812a1.188,1.188,0,0,0-1.187-1.187H45.245a1.188,1.188,0,0,0-1.187,1.187Zm-18.526,0c0,3.615,3.072,4.9,5.7,4.9s5.689-1.277,5.7-4.872c0-.017,0-.035,0-.053V22.812a1.188,1.188,0,0,0-1.187-1.187H26.719a1.188,1.188,0,0,0-1.187,1.187v1.495Zm-2.494-2.584c-1.511,0-2.788,1.814-2.788,3.962a7.209,7.209,0,0,0,.146,1.4,8.288,8.288,0,0,1,2.763-1.061V21.726c-.04,0-.08,0-.121,0Zm24.35,20.224a1.18,1.18,0,0,1-.574-.149A13.564,13.564,0,0,0,40.5,40.437,13.564,13.564,0,0,0,34.185,41.8a1.186,1.186,0,1,1-1.151-2.075A15.736,15.736,0,0,1,40.5,38.064a15.738,15.738,0,0,1,7.465,1.658,1.187,1.187,0,0,1-.576,2.224Z" transform="translate(0 0)"/>
      </g>
    </g>
  </g>
</svg>
