<svg xmlns="http://www.w3.org/2000/svg" xmlns:xlink="http://www.w3.org/1999/xlink" width="71" height="71" viewBox="0 0 71 71">
  <defs>
    <clipPath id="clip-path">
      <rect id="Rectángulo_306932" data-name="Rectángulo 306932" width="71" height="71" transform="translate(218 20663)" fill="#583cb6" stroke="#707070" stroke-width="1"/>
    </clipPath>
  </defs>
  <g id="Enmascarar_grupo_878425" data-name="Enmascarar grupo 878425" transform="translate(-218 -20663)" clip-path="url(#clip-path)">
    <g id="nervioso" transform="translate(218 20663)">
      <g id="Grupo_959776" data-name="Grupo 959776">
        <g id="Grupo_959775" data-name="Grupo 959775">
          <path id="Trazado_631127" data-name="Trazado 631127" d="M50.6,24.333h-30.2l-1.154-9.689a12.165,12.165,0,0,1,12.08-13.6h6.961a12.166,12.166,0,0,1,12.08,13.6Z" fill="#685e68"/>
          <path id="Trazado_631128" data-name="Trazado 631128" d="M22.365,28.43h2.262L23.24,20.236h-.875a4.1,4.1,0,0,0,0,8.194Z" fill="#ffbd86"/>
          <path id="Trazado_631129" data-name="Trazado 631129" d="M58.694,69.958H51.926l-1.04-1.387-1.04,1.387H40.1l-4.207-1.387L30.9,69.958H21.154l-1.04-1.387-1.04,1.387H10.919a2.08,2.08,0,0,1-2.075-2.222l1.1-16.089a5.547,5.547,0,0,1,4.313-5.032l14.4-3.25H42.4l9.786,2.216,4.142,1.171a5.547,5.547,0,0,1,4.309,5.031l.13,15.953A2.08,2.08,0,0,1,58.694,69.958Z" fill="#f3f0f3"/>
          <path id="Trazado_631130" data-name="Trazado 631130" d="M35.531,51.208a6.872,6.872,0,0,1-6.872-6.872V36.127H42.4v8.209a6.872,6.872,0,0,1-6.872,6.872Z" fill="#f6a96c"/>
          <path id="Trazado_631131" data-name="Trazado 631131" d="M39.669,1.04h-4.16a12.165,12.165,0,0,1,12.08,13.6l-1.154,9.689H50.6l1.154-9.689A12.166,12.166,0,0,0,39.669,1.04Z" fill="#554e56"/>
          <path id="Trazado_631132" data-name="Trazado 631132" d="M30.126,9.345A31.6,31.6,0,0,0,42.9,15.153a25.91,25.91,0,0,0,3.354.656.7.7,0,0,1,.608.475,11.688,11.688,0,0,1,.617,3.761v8.6A11.99,11.99,0,0,1,35.5,40.924a12.286,12.286,0,0,1-2.08-.039A12.377,12.377,0,0,1,23.24,28.644v-8.6A12.443,12.443,0,0,1,29.354,9.3a.693.693,0,0,1,.773.046Z" fill="#fed2a4"/>
          <path id="Trazado_631133" data-name="Trazado 631133" d="M62.156,67.736l-1.1-16.092a5.547,5.547,0,0,0-4.309-5.031L52.189,45.58a5.907,5.907,0,0,1,3.248,4.878l1.172,17.133a2.215,2.215,0,0,1-2.21,2.366h5.682a2.08,2.08,0,0,0,2.075-2.222Z" fill="#e2dee2"/>
          <path id="Trazado_631134" data-name="Trazado 631134" d="M30.9,52.447l4.6,5.939,4.6-5.939V49.783H30.9Z" fill="#fd8087"/>
          <path id="Trazado_631135" data-name="Trazado 631135" d="M30.9,69.96l4.6-11.574L40.1,69.96Z" fill="#fd8087"/>
          <path id="Trazado_631136" data-name="Trazado 631136" d="M41.939,42.281l-6.471,7.5,6.5,4.775a.693.693,0,0,0,1.093-.439l1.711-9.794a.694.694,0,0,0-.218-.633l-1.628-1.473a.693.693,0,0,0-.99.061Z" fill="#e2dee2"/>
          <path id="Trazado_631137" data-name="Trazado 631137" d="M29.114,42.28l6.354,7.5-6.438,4.769a.693.693,0,0,1-1.1-.438l-1.709-9.8a.693.693,0,0,1,.227-.641l1.676-1.465a.693.693,0,0,1,.985.074Z" fill="#e2dee2"/>
          <path id="Trazado_631138" data-name="Trazado 631138" d="M48.635,20.236H47.76L46.373,28.43h2.262a4.1,4.1,0,0,0,0-8.194Z" fill="#f6a96c"/>
          <g id="Grupo_959774" data-name="Grupo 959774">
            <path id="Trazado_631139" data-name="Trazado 631139" d="M47.142,16.146a.7.7,0,0,0-.608-.475,30.851,30.851,0,0,1-3.632-.518.68.68,0,0,1,.079.162,12.549,12.549,0,0,1,.617,3.9v9.43a12.377,12.377,0,0,1-10.18,12.24,12.187,12.187,0,0,0,2.08.179A12.34,12.34,0,0,0,47.76,28.644v-8.6a12.545,12.545,0,0,0-.617-3.9Z" fill="#ffbd86"/>
          </g>
        </g>
      </g>
      <g id="Grupo_959777" data-name="Grupo 959777">
        <path id="Trazado_631140" data-name="Trazado 631140" d="M37.859,34.68a1.04,1.04,0,1,0,.789-1.924,8.324,8.324,0,0,0-6.269-.011,1.04,1.04,0,1,0,.732,1.947A6.225,6.225,0,0,1,37.859,34.68Z"/>
        <path id="Trazado_631141" data-name="Trazado 631141" d="M29.7,22.033a1.04,1.04,0,0,0-1.04,1.04v1.6a1.04,1.04,0,1,0,2.08,0v-1.6A1.04,1.04,0,0,0,29.7,22.033Z"/>
        <path id="Trazado_631142" data-name="Trazado 631142" d="M41.3,25.714a1.04,1.04,0,0,0,1.04-1.04v-1.6a1.04,1.04,0,1,0-2.08,0v1.6A1.04,1.04,0,0,0,41.3,25.714Z"/>
        <path id="Trazado_631143" data-name="Trazado 631143" d="M6.277,50.249c.045-.382.187-.507.53-.812a3.145,3.145,0,0,0,1.215-2.122,1.04,1.04,0,0,0-2.066-.245c-.045.382-.187.508-.53.812a3.127,3.127,0,0,0-.531,4.47c.262.376.37.532.325.913s-.187.508-.53.812a3.127,3.127,0,0,0-.531,4.47c.262.376.371.532.325.914s-.187.508-.53.812A3.144,3.144,0,0,0,2.74,62.395a1.04,1.04,0,1,0,2.066.245c.045-.382.187-.508.53-.812a3.128,3.128,0,0,0,.531-4.471c-.262-.376-.371-.532-.325-.914s.187-.507.53-.812a3.127,3.127,0,0,0,.531-4.47c-.262-.376-.37-.532-.325-.913Z"/>
        <path id="Trazado_631144" data-name="Trazado 631144" d="M68.26,62.395a3.144,3.144,0,0,0-1.215-2.123c-.343-.3-.485-.43-.53-.812s.063-.538.325-.914a3.127,3.127,0,0,0-.531-4.47c-.343-.3-.485-.43-.53-.812s.063-.537.325-.913a3.127,3.127,0,0,0-.531-4.47c-.343-.3-.485-.43-.53-.812a1.04,1.04,0,1,0-2.066.245,3.145,3.145,0,0,0,1.215,2.122c.343.3.485.43.53.812s-.063.537-.325.913a3.127,3.127,0,0,0,.531,4.47c.343.3.485.43.53.812s-.063.537-.325.914a3.128,3.128,0,0,0,.531,4.471c.343.3.485.43.53.812a1.04,1.04,0,0,0,2.066-.245Z"/>
        <path id="Trazado_631145" data-name="Trazado 631145" d="M55.887,31.782a1.04,1.04,0,0,0,.941,1.131q.048,0,.1,0a1.04,1.04,0,0,0,1.034-.945,3.145,3.145,0,0,0-.747-2.329c-.272-.369-.385-.522-.35-.9s.173-.513.508-.826a3.128,3.128,0,0,0,.411-4.483c-.272-.369-.385-.522-.35-.9s.173-.512.508-.826a3.127,3.127,0,0,0,.411-4.483c-.272-.369-.385-.522-.35-.9a1.04,1.04,0,0,0-2.071-.19,3.146,3.146,0,0,0,.747,2.329c.272.369.385.522.35.9s-.173.512-.508.825a3.127,3.127,0,0,0-.411,4.483c.272.369.385.522.35.9s-.174.513-.508.826a3.128,3.128,0,0,0-.411,4.483c.272.369.385.522.35.9Z"/>
        <path id="Trazado_631146" data-name="Trazado 631146" d="M13.061,21.7c.334.313.473.443.508.825s-.078.535-.35.9a3.128,3.128,0,0,0,.411,4.483c.335.313.473.443.508.826s-.078.536-.35.9a3.146,3.146,0,0,0-.747,2.329,1.04,1.04,0,0,0,1.034.945c.032,0,.064,0,.1,0a1.04,1.04,0,0,0,.941-1.131c-.035-.383.078-.536.35-.9a3.128,3.128,0,0,0-.411-4.483c-.334-.313-.473-.443-.508-.826s.078-.535.35-.9a3.127,3.127,0,0,0-.411-4.483c-.334-.313-.473-.443-.508-.826s.078-.535.35-.9a3.145,3.145,0,0,0,.747-2.329,1.04,1.04,0,0,0-2.071.19c.035.383-.078.535-.35.9a3.127,3.127,0,0,0,.411,4.483Z"/>
        <path id="Trazado_631147" data-name="Trazado 631147" d="M25.688,42.97,14.027,45.6a6.628,6.628,0,0,0-5.122,5.976l-.329,4.809A1.04,1.04,0,0,0,9.544,57.5l.072,0a1.04,1.04,0,0,0,1.037-.969l.329-4.809a4.535,4.535,0,0,1,3.5-4.089l10.837-2.446,1.588,9.109a1.722,1.722,0,0,0,1.064,1.312,1.742,1.742,0,0,0,.646.125,1.724,1.724,0,0,0,1.029-.342l1.406-1.042,3.258,4.208L30.2,68.92H21.154V60.672a1.04,1.04,0,0,0-2.08,0V68.92H10.918a1.04,1.04,0,0,1-1.038-1.111l.453-6.625a1.04,1.04,0,0,0-2.075-.142l-.453,6.625A3.12,3.12,0,0,0,10.918,71H60.082a3.12,3.12,0,0,0,3.113-3.333l-1.1-16.092A6.545,6.545,0,0,0,56.977,45.6l-4.928-1.116a1.04,1.04,0,1,0-.459,2.029l4.928,1.116a4.479,4.479,0,0,1,3.5,4.088l1.1,16.092a1.04,1.04,0,0,1-1.038,1.111H51.926V60.672a1.04,1.04,0,0,0-2.08,0V68.92H40.8L36.686,58.555l3.251-4.2L41.355,55.4a1.733,1.733,0,0,0,2.734-1.1l1.594-9.125,1.32.3a1.04,1.04,0,0,0,.459-2.029l-2.188-.5-1.831-1.636V39.434a13.5,13.5,0,0,0,5.331-9.966A5.134,5.134,0,0,0,52.1,20.54l.687-5.772A13.206,13.206,0,0,0,39.669,0H31.321A13.243,13.243,0,0,0,18.874,8.779a1.04,1.04,0,0,0,1.959.7,11.159,11.159,0,0,1,10.487-7.4h8.348A11.126,11.126,0,0,1,50.717,14.521l-.583,4.9a5.114,5.114,0,0,0-1.362-.22,13.549,13.549,0,0,0-.64-3.376,1.733,1.733,0,0,0-1.511-1.189A30.513,30.513,0,0,1,30.759,8.521,1.725,1.725,0,0,0,28.826,8.4a13.539,13.539,0,0,0-6.6,10.8,5.118,5.118,0,0,0-1.37.223l-.584-4.9c-.036-.3-.059-.6-.071-.9a1.04,1.04,0,0,0-2.078.081c.014.354.042.712.084,1.065l.688,5.78a5.133,5.133,0,0,0,3.329,8.919,13.5,13.5,0,0,0,5.393,10.012v1.813Zm18.03,1.366-1.582,9.055-5.145-3.779,5.5-6.382ZM48.8,27.386v-6.1a3.057,3.057,0,0,1,0,6.1ZM19.308,24.333A3.061,3.061,0,0,1,22.2,21.281v6.1a3.061,3.061,0,0,1-2.892-3.052Zm4.972,4.311v-8.6a11.46,11.46,0,0,1,5.4-9.731,32.639,32.639,0,0,0,16.54,6.373,11.52,11.52,0,0,1,.5,3.358v8.6a11.221,11.221,0,1,1-22.44,0ZM29.7,41.4v-.649a13.142,13.142,0,0,0,11.664-.031V41.4l-5.887,6.786Zm-.836,11.98-1.579-9.055,1.264-1.105,5.409,6.387Zm6.608-2.306,2.788,2.048L35.5,56.689l-2.772-3.58ZM35.5,61.2l3.066,7.716H32.434Z"/>
      </g>
    </g>
  </g>
</svg>
