<svg xmlns="http://www.w3.org/2000/svg" xmlns:xlink="http://www.w3.org/1999/xlink" width="71" height="71" viewBox="0 0 71 71">
  <defs>
    <clipPath id="clip-path">
      <rect id="Rectángulo_306930" data-name="Rectángulo 306930" width="71" height="71" transform="translate(1058 20663)" fill="#583cb6" stroke="#707070" stroke-width="1"/>
    </clipPath>
  </defs>
  <g id="Enmascarar_grupo_878427" data-name="Enmascarar grupo 878427" transform="translate(-1058 -20663)" clip-path="url(#clip-path)">
    <g id="continuo" transform="translate(1057.999 20663)">
      <path id="Trazado_631169" data-name="Trazado 631169" d="M26.634,4.315a32.417,32.417,0,0,0,2.837,63.039l.815-4.024A28.309,28.309,0,0,1,27.7,8.284l.856,3.2,3.874-3.874L36.3,3.735,31.009,2.317,25.718.9Zm17.733,62.37.916,3.417-5.291-1.417L34.7,67.268l3.874-3.874,3.874-3.874.858,3.2A28.309,28.309,0,0,0,40.718,7.672l.815-4.024a32.416,32.416,0,0,1,2.834,63.038Z" fill="#e8dab2" fill-rule="evenodd"/>
      <circle id="Elipse_7765" data-name="Elipse 7765" cx="19.992" cy="19.992" r="19.992" transform="translate(7.22 35.501) rotate(-45)" fill="#00b2ca"/>
      <circle id="Elipse_7766" data-name="Elipse 7766" cx="15.745" cy="15.745" r="15.745" transform="translate(17.43 22.482) rotate(-9.208)" fill="#e8dab2"/>
      <path id="Trazado_631170" data-name="Trazado 631170" d="M37.964,29.437a.9.9,0,1,1,1.554.9l-3.24,5.613a.9.9,0,0,1-1.227.327.491.491,0,0,1-.045-.028l-8.418-4.861a.9.9,0,1,1,.892-1.554l7.692,4.44ZM36.4,20.68v1.429a.9.9,0,0,1-1.8,0V20.68a14.756,14.756,0,0,0-5.734,1.534l.714,1.237a.9.9,0,0,1-1.554.9l-.714-1.237A14.774,14.774,0,0,0,25,25a14.989,14.989,0,0,0-1.889,2.31l1.237.714a.9.9,0,0,1-.9,1.554l-1.237-.714A14.778,14.778,0,0,0,20.678,34.6h1.429a.9.9,0,0,1,0,1.792H20.678a14.754,14.754,0,0,0,1.535,5.738l1.237-.714a.9.9,0,1,1,.9,1.554l-1.237.714A14.774,14.774,0,0,0,25,46a14.942,14.942,0,0,0,2.312,1.89l.713-1.235a.9.9,0,0,1,1.554.892l-.716,1.24A14.76,14.76,0,0,0,34.6,50.32V48.891a.9.9,0,0,1,1.792,0V50.32a14.754,14.754,0,0,0,5.738-1.535l-.714-1.237a.9.9,0,1,1,1.554-.9l.714,1.237A14.774,14.774,0,0,0,46,46a14.942,14.942,0,0,0,1.89-2.312l-1.235-.713a.9.9,0,0,1,.892-1.554l1.24.716a14.76,14.76,0,0,0,1.535-5.74H48.891a.9.9,0,0,1,0-1.792H50.32a14.754,14.754,0,0,0-1.535-5.738l-1.237.714a.9.9,0,1,1-.9-1.554l1.237-.714A14.774,14.774,0,0,0,46,25a14.941,14.941,0,0,0-2.312-1.89l-.713,1.235a.9.9,0,1,1-1.554-.892l.716-1.24A14.785,14.785,0,0,0,36.4,20.68ZM23.73,23.73A16.644,16.644,0,1,0,35.5,18.854,16.6,16.6,0,0,0,23.73,23.73ZM35.5,16.406A19.095,19.095,0,1,0,49,22a19.036,19.036,0,0,0-13.5-5.593ZM20.727,20.727A20.892,20.892,0,1,0,35.5,14.606,20.827,20.827,0,0,0,20.727,20.727ZM26.853,5.187A31.514,31.514,0,0,0,28.77,66.3l.459-2.266A29.21,29.21,0,0,1,27.449,7.418a.9.9,0,0,1,1.11.619l.457,1.707L34.562,4.2,26.988,2.17,27.5,4.084a.9.9,0,0,1-.636,1.1ZM8.885,15.454A33.3,33.3,0,0,0,29.306,68.236a.9.9,0,0,0,1.047-.717l.006-.037.805-3.977a.9.9,0,0,0-.7-1.054l-.014,0h0A27.414,27.414,0,0,1,27.069,9.415l.616,2.3a.9.9,0,0,0,1.5.4h0l7.746-7.746a.9.9,0,0,0-.447-1.517L25.95.031a.9.9,0,0,0-1.1,1.112l.687,2.563A33.392,33.392,0,0,0,8.885,15.454Zm35.263,50.36A31.521,31.521,0,0,0,42.232,4.706l-.459,2.266a29.2,29.2,0,0,1,1.779,56.609.9.9,0,0,1-1.11-.619l-.457-1.707L36.439,66.8l7.574,2.029L43.5,66.916a.9.9,0,0,1,.636-1.1ZM62.12,55.584A33.336,33.336,0,0,0,41.7,2.766a.9.9,0,0,0-1.047.717l-.006.037L39.839,7.5a.9.9,0,0,0,.7,1.054l.014,0h0a27.409,27.409,0,0,1,3.377,53.032l-.616-2.3a.9.9,0,0,0-1.5-.4L34.066,66.63a.9.9,0,0,0,.447,1.517L45.052,70.97a.9.9,0,0,0,1.1-1.112l-.687-2.563A33.318,33.318,0,0,0,62.12,55.584Z" fill="#010101" fill-rule="evenodd"/>
    </g>
  </g>
</svg>
