<svg xmlns="http://www.w3.org/2000/svg" xmlns:xlink="http://www.w3.org/1999/xlink" width="71" height="71" viewBox="0 0 71 71">
  <defs>
    <clipPath id="clip-path">
      <rect id="Rectángulo_306934" data-name="Rectángulo 306934" width="71" height="71" transform="translate(638 20981)" fill="#583cb6" stroke="#707070" stroke-width="1"/>
    </clipPath>
  </defs>
  <g id="Enmascarar_grupo_878429" data-name="Enmascarar grupo 878429" transform="translate(-638 -20981)" clip-path="url(#clip-path)">
    <g id="empleados" transform="translate(638 20981)">
      <path id="Trazado_631198" data-name="Trazado 631198" d="M66.253,39.758l-6-2.361h-21.3l-6,2.361A5.809,5.809,0,0,0,29.274,45.4l.8,20.048H69.128l.8-20.048A5.809,5.809,0,0,0,66.253,39.758Z" fill="#dbd9dc"/>
      <rect id="Rectángulo_307107" data-name="Rectángulo 307107" width="13.555" height="11.618" transform="translate(42.825 29.622)" fill="#b48764"/>
      <path id="Trazado_631199" data-name="Trazado 631199" d="M49.6,5.447a12.523,12.523,0,0,0-7.584,2.9s-4.034,0-4.034,4.841a36.17,36.17,0,0,0,.968,7.715H61.22C63.157,10.258,58.558,4.963,49.6,5.447Z" fill="#5c414b"/>
      <path id="Trazado_631200" data-name="Trazado 631200" d="M43.793,16.912c-3.557-4.447-1.775-8.561-1.775-8.561s-4.034,0-4.034,4.841a36.17,36.17,0,0,0,.968,7.715h4.841Z" fill="#503441"/>
      <path id="Trazado_631201" data-name="Trazado 631201" d="M60.252,19.94h-.968l-1.9-2.3C48.671,19.46,44.105,15.7,44.105,15.7c-.476,3.013-3.395,5.283-3.395,5.283l-1.791-1.04h0a1.9,1.9,0,0,0-.323.034,2.047,2.047,0,0,0-1.579,2.043v.7a2.033,2.033,0,0,0,1.548,2.022,1.906,1.906,0,0,0,.538.034.936.936,0,0,1,.985.774,9.671,9.671,0,0,0,19.029.013.94.94,0,0,1,.937-.781h.2a1.936,1.936,0,0,0,1.936-1.936v-.968A1.936,1.936,0,0,0,60.252,19.94Z" fill="#c39772"/>
      <path id="Trazado_631202" data-name="Trazado 631202" d="M64.858,46.346l4.212-4.212a5.79,5.79,0,0,1,.86,3.263l-.8,20.048H63.157V50.453A5.808,5.808,0,0,1,64.858,46.346Z" fill="#edebed"/>
      <path id="Trazado_631203" data-name="Trazado 631203" d="M51.4,41.284H47.511l-.973,24.16h5.838Z" fill="#5d5360"/>
      <path id="Trazado_631204" data-name="Trazado 631204" d="M51.615,46.547,51.4,41.284H47.511L47.3,46.547Z" fill="#4b3f4e"/>
      <g id="Grupo_959781" data-name="Grupo 959781">
        <path id="Trazado_631205" data-name="Trazado 631205" d="M49.6,41.27l-7.745-6.777-2.9,2.9,4.5,6.748a1.936,1.936,0,0,0,2.98.3Z" fill="#edebed"/>
        <path id="Trazado_631206" data-name="Trazado 631206" d="M49.6,41.27l7.745-6.777,2.9,2.9-4.5,6.748a1.936,1.936,0,0,1-2.98.3Z" fill="#edebed"/>
      </g>
      <path id="Trazado_631207" data-name="Trazado 631207" d="M51.522,33.3a9.685,9.685,0,0,1-7.729-9.485v-6.95a10.7,10.7,0,0,1-3.082,4.118l-1.791-1.04h0a1.9,1.9,0,0,0-.323.034,2.047,2.047,0,0,0-1.579,2.043v.7a2.034,2.034,0,0,0,1.548,2.023,1.911,1.911,0,0,0,.538.034.936.936,0,0,1,.985.774A9.645,9.645,0,0,0,51.522,33.3Z" fill="#b48764"/>
      <path id="Trazado_631208" data-name="Trazado 631208" d="M32.421,45.456,27.2,43.176H9.76l-5.223,2.28a5.809,5.809,0,0,0-3.48,5.57l.611,14.418H35.289L35.9,51.026A5.809,5.809,0,0,0,32.421,45.456Z" fill="#5d5360"/>
      <rect id="Rectángulo_307108" data-name="Rectángulo 307108" width="9.682" height="9.682" transform="translate(13.637 36.399)" fill="#fad7a5"/>
      <circle id="Elipse_7768" data-name="Elipse 7768" cx="5.809" cy="5.809" r="5.809" transform="translate(12.669 5.417)" fill="#deaf73"/>
      <ellipse id="Elipse_7769" data-name="Elipse 7769" cx="11.618" cy="11.134" rx="11.618" ry="11.134" transform="translate(6.86 10.257)" fill="#d59f63"/>
      <path id="Trazado_631209" data-name="Trazado 631209" d="M14.606,22.844c-3.873-3.873-4.452-7.212-4.36-9.307A10.87,10.87,0,0,0,6.86,21.392a10.7,10.7,0,0,0,1.664,5.734Z" fill="#cd915a"/>
      <path id="Trazado_631210" data-name="Trazado 631210" d="M29.517,24.821a5.225,5.225,0,0,0-.555-.04,1.936,1.936,0,0,1-1.369-.567L26.26,23.2A18.756,18.756,0,0,1,13.2,20.516,11.688,11.688,0,0,1,9.632,25.38L7.8,24.78h0a1.891,1.891,0,0,0-.325.035,2.047,2.047,0,0,0-1.577,2.043v.7a2.033,2.033,0,0,0,1.547,2.022,1.909,1.909,0,0,0,.54.034.935.935,0,0,1,.984.773,9.671,9.671,0,0,0,19.027.026.949.949,0,0,1,.989-.8,1.95,1.95,0,0,0,.63-.046,2.006,2.006,0,0,0,1.467-2.026c-.011-.44-.011-.87-.011-.87A2.021,2.021,0,0,0,29.517,24.821Z" fill="#ffe1b4"/>
      <g id="Grupo_959782" data-name="Grupo 959782">
        <path id="Trazado_631211" data-name="Trazado 631211" d="M6.257,50.973,2.72,46.728a5.794,5.794,0,0,0-1.664,4.3l.611,14.418H7.828V55.311A6.777,6.777,0,0,0,6.257,50.973Z" fill="#6f6571"/>
        <path id="Trazado_631212" data-name="Trazado 631212" d="M30.7,50.973l3.538-4.245a5.794,5.794,0,0,1,1.664,4.3l-.611,14.418H29.128V55.311A6.777,6.777,0,0,1,30.7,50.973Z" fill="#6f6571"/>
      </g>
      <path id="Trazado_631213" data-name="Trazado 631213" d="M12.669,28.653V21.739a13.978,13.978,0,0,1-3.037,3.64L7.8,24.78h0a1.892,1.892,0,0,0-.325.035,2.047,2.047,0,0,0-1.577,2.043v.7a2.033,2.033,0,0,0,1.547,2.022,1.91,1.91,0,0,0,.54.034.935.935,0,0,1,.984.773A9.646,9.646,0,0,0,20.4,38.138,9.685,9.685,0,0,1,12.669,28.653Z" fill="#fad7a5"/>
      <g id="Grupo_959783" data-name="Grupo 959783">
        <path id="Trazado_631214" data-name="Trazado 631214" d="M18.207,45.983l-5.838-5.838L9.45,43.064l3.6,5.844a.973.973,0,0,0,1.46.23Z" fill="#6f6571"/>
        <path id="Trazado_631215" data-name="Trazado 631215" d="M18.207,45.983l5.838-5.838,2.919,2.919-3.6,5.844a.973.973,0,0,1-1.46.23Z" fill="#6f6571"/>
      </g>
      <path id="Trazado_631216" data-name="Trazado 631216" d="M43.688,50.156H39.8a1.04,1.04,0,0,0,0,2.08h3.892a1.04,1.04,0,0,0,0-2.08Z"/>
      <path id="Trazado_631217" data-name="Trazado 631217" d="M66.6,39.022l-5.664-2.185L58.046,33.95a1.035,1.035,0,0,0-.668-.3v-2.3A10.726,10.726,0,0,0,60.1,25.992a2.975,2.975,0,0,0,.729-.058,3.078,3.078,0,0,0,2.388-3.053v-.758A3.117,3.117,0,0,0,62.3,19.91c.918-4.995.162-9.066-2.2-11.79C57.82,5.485,54.144,4.226,49.47,4.478a13.93,13.93,0,0,0-7.988,2.947,5.48,5.48,0,0,0-2.14.727C38.187,8.846,36.81,10.3,36.81,13.3a25.971,25.971,0,0,0,.721,6.042,3.083,3.083,0,0,0-1.694,2.791v.747a3.078,3.078,0,0,0,2.388,3.053,2.969,2.969,0,0,0,.729.058,10.727,10.727,0,0,0,2.721,5.359v2.3a1.035,1.035,0,0,0-.668.3l-2.888,2.888-5.664,2.185a6.887,6.887,0,0,0-1.391.728,1.04,1.04,0,1,0,1.169,1.721,4.812,4.812,0,0,1,.971-.508l5.256-2.027,4.019,6.028a2.975,2.975,0,0,0,2.19,1.315c.1.01.2.015.3.015a2.969,2.969,0,0,0,1.464-.387l-.862,19.562a1.04,1.04,0,0,0,.993,1.085h.047a1.04,1.04,0,0,0,1.038-.994l.8-18.158h2.159l.8,18.158a1.04,1.04,0,0,0,1.038.994h.047a1.04,1.04,0,0,0,.993-1.085l-.862-19.562a2.968,2.968,0,0,0,1.464.387c.1,0,.2,0,.3-.015a2.976,2.976,0,0,0,2.19-1.315l4.019-6.028,5.256,2.027a4.787,4.787,0,0,1,1.871,1.3l-3.6,3.6a6.833,6.833,0,0,0-2.015,4.864V65.513a1.04,1.04,0,1,0,2.08,0V50.725a4.767,4.767,0,0,1,1.405-3.393l3.156-3.156a4.793,4.793,0,0,1,.166,1.454L68.11,65.471a1.04,1.04,0,0,0,1,1.082h.043a1.04,1.04,0,0,0,1.038-1l.806-19.842A6.876,6.876,0,0,0,66.6,39.022ZM49.526,40.114l-5.771-5.05V33.074a10.764,10.764,0,0,0,11.542,0v1.991Zm-10.642-16.2a.892.892,0,0,1-.242-.017,1.009,1.009,0,0,1-.725-1.015v-.747a.986.986,0,0,1,.734-.989.9.9,0,0,1,.89.341,1.451,1.451,0,0,0,1.993.313,7.551,7.551,0,0,0,1.706-1.667,1.04,1.04,0,0,0-1.669-1.241,5.521,5.521,0,0,1-.81.875,2.975,2.975,0,0,0-1.128-.6A23.92,23.92,0,0,1,38.89,13.3a3.644,3.644,0,0,1,1.459-3.326,3.376,3.376,0,0,1,1.555-.5,1.05,1.05,0,0,0,.718-.287,11.716,11.716,0,0,1,6.961-2.633c4.008-.216,7.1.8,8.948,2.927,1.86,2.148,2.48,5.446,1.808,9.573a4.508,4.508,0,0,0-.887.062l-.977-2.347a1.041,1.041,0,0,0-1.223-.606c-.1.025-9.7,2.46-13.728-2.554a1.04,1.04,0,1,0-1.622,1.3c4.112,5.12,12.273,4.006,14.989,3.463l.756,1.815A1.71,1.71,0,0,0,59.62,21.2a2.245,2.245,0,0,1,.778-.057.981.981,0,0,1,.738.976v.759A1.008,1.008,0,0,1,60.41,23.9a.882.882,0,0,1-.242.017,2.026,2.026,0,0,0-2.106,1.651,8.679,8.679,0,0,1-17.072,0A2.025,2.025,0,0,0,38.884,23.912Zm5.99,20.3a.893.893,0,0,1-.665-.4l-4.049-6.073,1.628-1.628L48,41.547l-2.4,2.4A.893.893,0,0,1,44.874,44.208Zm3.664,1.113.063-1.43.925-.925.925.925.063,1.429Zm6.3-1.512a.906.906,0,0,1-1.394.138l-2.4-2.4,6.215-5.438,1.628,1.628Z"/>
      <path id="Trazado_631218" data-name="Trazado 631218" d="M32.983,44.472,27.9,42.255l-2.776-2.776a1.034,1.034,0,0,0-.668-.3V37.542a10.742,10.742,0,0,0,4.667-6.993,2.988,2.988,0,0,0,.821-.078,3.1,3.1,0,0,0,2.3-3.032v-.758a3.1,3.1,0,0,0-1.333-2.558,11.761,11.761,0,0,0,.36-2.881,12.126,12.126,0,0,0-5.84-10.283,6.743,6.743,0,0,0-6.876-6.511,6.743,6.743,0,0,0-6.876,6.511A12.126,12.126,0,0,0,5.838,21.24,11.761,11.761,0,0,0,6.2,24.113a3.108,3.108,0,0,0-1.331,2.577v.747a3.1,3.1,0,0,0,2.3,3.032,2.982,2.982,0,0,0,.821.078,10.742,10.742,0,0,0,4.667,6.993v1.636a1.034,1.034,0,0,0-.668.3L9.2,42.255,4.126,44.472a6.922,6.922,0,0,0-4.12,6.6L.62,65.558a1.04,1.04,0,0,0,1.038,1H1.7a1.04,1.04,0,0,0,1-1.083l-.614-14.49a4.789,4.789,0,0,1,.659-2.619l2.73,3.276A5.782,5.782,0,0,1,6.811,55.33V65.514a1.04,1.04,0,0,0,2.08,0V55.33A7.866,7.866,0,0,0,7.071,50.3l-2.9-3.482a4.716,4.716,0,0,1,.789-.443l4.426-1.932,3.128,5.077A2.013,2.013,0,0,0,15.533,50l1.982-1.691V65.513a1.04,1.04,0,1,0,2.08,0V48.308L21.576,50a2.013,2.013,0,0,0,3.021-.475l3.128-5.077,4.426,1.932a4.721,4.721,0,0,1,.789.443l-2.9,3.482a7.866,7.866,0,0,0-1.82,5.026V65.514a1.04,1.04,0,1,0,2.08,0V55.33a5.783,5.783,0,0,1,1.338-3.695l2.73-3.276a4.789,4.789,0,0,1,.659,2.619l-.614,14.49a1.04,1.04,0,0,0,1,1.083h.045a1.04,1.04,0,0,0,1.038-1l.614-14.49A6.922,6.922,0,0,0,32.983,44.472ZM18.555,6.526A4.765,4.765,0,0,1,23.186,9.85a13.189,13.189,0,0,0-9.263,0A4.765,4.765,0,0,1,18.555,6.526ZM10.019,30.12a2.026,2.026,0,0,0-2.106-1.651.9.9,0,0,1-.272-.023,1.016,1.016,0,0,1-.7-1.008v-.747a.986.986,0,0,1,.734-.989.9.9,0,0,1,.89.341,1.45,1.45,0,0,0,1.993.313,7.544,7.544,0,0,0,1.683-1.638,1.04,1.04,0,0,0-1.663-1.249,5.514,5.514,0,0,1-.793.853,2.98,2.98,0,0,0-1.569-.691,9.686,9.686,0,0,1-.3-2.39,10.414,10.414,0,0,1,10.636-10.15,10.413,10.413,0,0,1,10.636,10.15,9.683,9.683,0,0,1-.3,2.386,4.77,4.77,0,0,0-.809.133l-.782-.643a2,2,0,0,0-1.388-.455c-1.529.09-9.358.3-13.375-4.51a1.04,1.04,0,0,0-1.6,1.334,14.864,14.864,0,0,0,8.636,4.765A25.456,25.456,0,0,0,26,24.74l1.22,1a1.038,1.038,0,0,0,1.182.1,2.3,2.3,0,0,1,1.025-.136.981.981,0,0,1,.738.976v.758a1.016,1.016,0,0,1-.7,1.008.889.889,0,0,1-.272.023,2.028,2.028,0,0,0-2.106,1.651,8.679,8.679,0,0,1-17.072,0Zm8.536,9.189a10.737,10.737,0,0,0,3.825-.7v2.152l-3.825,3.825-3.825-3.825V38.605A10.734,10.734,0,0,0,18.555,39.309Zm-4.313,9.057-3.128-5.078,1.6-1.6,4.307,4.307Zm8.625,0-2.781-2.373,4.307-4.307,1.6,1.6Z"/>
      <path id="Trazado_631219" data-name="Trazado 631219" d="M14.662,54.743H11.743a1.04,1.04,0,0,0,0,2.08h2.919a1.04,1.04,0,0,0,0-2.08Z"/>
    </g>
  </g>
</svg>
