<svg xmlns="http://www.w3.org/2000/svg" xmlns:xlink="http://www.w3.org/1999/xlink" width="57" height="57" viewBox="0 0 57 57">
  <defs>
    <clipPath id="clip-path">
      <rect id="Rectángulo_307077" data-name="Rectángulo 307077" width="57" height="57" transform="translate(672 9224)" fill="#583cb6" stroke="#707070" stroke-width="1"/>
    </clipPath>
  </defs>
  <g id="Enmascarar_grupo_878446" data-name="Enmascarar grupo 878446" transform="translate(-672 -9224)" clip-path="url(#clip-path)">
    <g id="Layer_54" transform="translate(672.098 9224)">
      <g id="Grupo_963568" data-name="Grupo 963568">
        <g id="Grupo_963534" data-name="Grupo 963534">
          <path id="Trazado_632872" data-name="Trazado 632872" d="M35.438,48.208l-27.752.347V22.494H35.438Z" fill="#7367db"/>
          <path id="Trazado_632873" data-name="Trazado 632873" d="M7.686,49.206a.639.639,0,0,1-.455-.184.63.63,0,0,1-.2-.466V22.494a.652.652,0,0,1,.65-.65H35.438a.652.652,0,0,1,.65.65V48.208a.634.634,0,0,1-.629.65h-.011Zm.65-26.061V47.9l26.451-.336V23.145Z"/>
        </g>
        <g id="Grupo_963535" data-name="Grupo 963535">
          <path id="Trazado_632874" data-name="Trazado 632874" d="M24.814,32.142H50.886V56.35H24.814Z" fill="#fe9eb8"/>
          <path id="Trazado_632875" data-name="Trazado 632875" d="M50.875,57H24.814a.652.652,0,0,1-.65-.65V32.142a.652.652,0,0,1,.65-.65H50.875a.652.652,0,0,1,.65.65V56.35A.652.652,0,0,1,50.875,57Zm-25.41-1.3h24.76V32.793H25.465Z"/>
        </g>
        <g id="Grupo_963536" data-name="Grupo 963536">
          <path id="Trazado_632876" data-name="Trazado 632876" d="M28.4,6.7H56.154V32.76H28.4Z" fill="#65afd6"/>
          <path id="Trazado_632877" data-name="Trazado 632877" d="M56.154,33.411H28.4a.652.652,0,0,1-.65-.65V6.7a.652.652,0,0,1,.65-.65H56.154a.652.652,0,0,1,.65.65V32.76A.652.652,0,0,1,56.154,33.411Zm-27.1-1.3H55.5V7.35H29.053Z"/>
        </g>
        <g id="Grupo_963542" data-name="Grupo 963542">
          <g id="Grupo_963537" data-name="Grupo 963537">
            <path id="Trazado_632878" data-name="Trazado 632878" d="M19.459,13.681H47.211V39.742H19.459Z" fill="#ff8874"/>
            <path id="Trazado_632879" data-name="Trazado 632879" d="M47.211,40.4H19.459a.652.652,0,0,1-.65-.65V13.681a.652.652,0,0,1,.65-.65H47.211a.652.652,0,0,1,.65.65V39.753A.652.652,0,0,1,47.211,40.4Zm-27.1-1.3H46.56V14.331H20.109Z"/>
          </g>
          <g id="Grupo_963541" data-name="Grupo 963541">
            <path id="Trazado_632880" data-name="Trazado 632880" d="M19.459,16.955H47.211v1.3H19.459Z"/>
            <g id="Grupo_963538" data-name="Grupo 963538">
              <path id="Trazado_632881" data-name="Trazado 632881" d="M19.459,20.586h.65v1.3h-.65Z"/>
              <path id="Trazado_632882" data-name="Trazado 632882" d="M45.3,21.887H44.035v-1.3H45.3Zm-2.526,0H41.52v-1.3h1.258Zm-2.515,0H39v-1.3h1.258Zm-2.526,0H36.479v-1.3h1.258Zm-2.515,0H33.964v-1.3h1.258Zm-2.515,0H31.438v-1.3h1.268Zm-2.526,0H28.923v-1.3H30.18Zm-2.515,0H26.408v-1.3h1.258Zm-2.515,0H23.882v-1.3H25.15Zm-2.526,0H21.367v-1.3h1.258Z"/>
              <path id="Trazado_632883" data-name="Trazado 632883" d="M46.56,20.586h.65v1.3h-.65Z"/>
            </g>
            <path id="Trazado_632884" data-name="Trazado 632884" d="M19.459,24.25H47.211v1.3H19.459Z"/>
            <g id="Grupo_963539" data-name="Grupo 963539">
              <path id="Trazado_632885" data-name="Trazado 632885" d="M19.459,27.882h.65v1.3h-.65Z"/>
              <path id="Trazado_632886" data-name="Trazado 632886" d="M45.3,29.183H44.035v-1.3H45.3Zm-2.526,0H41.52v-1.3h1.258Zm-2.515,0H39v-1.3h1.258Zm-2.526,0H36.479v-1.3h1.258Zm-2.515,0H33.964v-1.3h1.258Zm-2.515,0H31.438v-1.3h1.268Zm-2.526,0H28.923v-1.3H30.18Zm-2.515,0H26.408v-1.3h1.258Zm-2.515,0H23.882v-1.3H25.15Zm-2.526,0H21.367v-1.3h1.258Z"/>
              <path id="Trazado_632887" data-name="Trazado 632887" d="M46.56,27.882h.65v1.3h-.65Z"/>
            </g>
            <path id="Trazado_632888" data-name="Trazado 632888" d="M19.459,31.861H47.211v1.3H19.459Z"/>
            <g id="Grupo_963540" data-name="Grupo 963540">
              <path id="Trazado_632889" data-name="Trazado 632889" d="M19.459,35.492h.65v1.3h-.65Z"/>
              <path id="Trazado_632890" data-name="Trazado 632890" d="M45.3,36.793H44.035v-1.3H45.3Zm-2.526,0H41.52v-1.3h1.258Zm-2.515,0H39v-1.3h1.258Zm-2.526,0H36.479v-1.3h1.258Zm-2.515,0H33.964v-1.3h1.258Zm-2.515,0H31.438v-1.3h1.268Zm-2.526,0H28.923v-1.3H30.18Zm-2.515,0H26.408v-1.3h1.258Zm-2.515,0H23.882v-1.3H25.15Zm-2.526,0H21.367v-1.3h1.258Z"/>
              <path id="Trazado_632891" data-name="Trazado 632891" d="M46.56,35.492h.65v1.3h-.65Z"/>
            </g>
          </g>
        </g>
        <g id="Grupo_963543" data-name="Grupo 963543">
          <path id="Trazado_632892" data-name="Trazado 632892" d="M.65.65H28.4V26.711H.65Z" fill="#e0e0e0"/>
          <path id="Trazado_632893" data-name="Trazado 632893" d="M28.4,27.362H.65a.652.652,0,0,1-.65-.65V.65A.652.652,0,0,1,.65,0H28.4a.652.652,0,0,1,.65.65V26.711A.652.652,0,0,1,28.4,27.362Zm-27.1-1.3H27.752V1.3H1.3Z"/>
        </g>
        <g id="Grupo_963544" data-name="Grupo 963544">
          <path id="Trazado_632894" data-name="Trazado 632894" d="M6.67,29.033h9.338v1.3H6.67Z" transform="matrix(0.796, -0.606, 0.606, 0.796, -15.663, 12.934)"/>
          <path id="Trazado_632895" data-name="Trazado 632895" d="M6.193,31.885H20.986v1.3H6.193Z" transform="matrix(0.796, -0.606, 0.606, 0.796, -16.928, 14.879)"/>
          <path id="Trazado_632896" data-name="Trazado 632896" d="M6.115,36.45H21v1.3H6.115Z" transform="matrix(0.791, -0.612, 0.612, 0.791, -19.856, 16.031)"/>
          <path id="Trazado_632897" data-name="Trazado 632897" d="M6.286,41.314h14.4v1.3H6.286Z" transform="matrix(0.81, -0.586, 0.586, 0.81, -22.049, 15.887)"/>
          <path id="Trazado_632898" data-name="Trazado 632898" d="M9.652,43.511H24.207v1.3H9.652Z" transform="matrix(0.796, -0.606, 0.606, 0.796, -23.286, 19.283)"/>
          <path id="Trazado_632899" data-name="Trazado 632899" d="M16.159,44.986h9.663v1.3H16.159Z" transform="matrix(0.796, -0.606, 0.606, 0.796, -23.354, 22.044)"/>
        </g>
        <g id="Grupo_963565" data-name="Grupo 963565">
          <g id="Grupo_963549" data-name="Grupo 963549">
            <g id="Grupo_963545" data-name="Grupo 963545">
              <circle id="Elipse_7790" data-name="Elipse 7790" cx="1.333" cy="1.333" r="1.333" transform="translate(4.184 5.052)" fill="#7367db"/>
              <path id="Trazado_632900" data-name="Trazado 632900" d="M5.518,8.369A1.995,1.995,0,1,1,7.5,6.363v.022A2,2,0,0,1,5.518,8.369Zm0-2.678a.688.688,0,1,0,0,1.377A.68.68,0,0,0,6.2,6.385.7.7,0,0,0,5.518,5.691Z"/>
            </g>
            <g id="Grupo_963546" data-name="Grupo 963546">
              <circle id="Elipse_7791" data-name="Elipse 7791" cx="1.333" cy="1.333" r="1.333" transform="translate(4.184 10.7)" fill="#7367db"/>
              <path id="Trazado_632901" data-name="Trazado 632901" d="M5.518,14.028A1.995,1.995,0,1,1,7.5,12.022v.011a2.008,2.008,0,0,1-1.984,1.995Zm0-2.678a.688.688,0,1,0,.683.683A.68.68,0,0,0,5.518,11.35Z"/>
            </g>
            <g id="Grupo_963547" data-name="Grupo 963547">
              <circle id="Elipse_7792" data-name="Elipse 7792" cx="1.333" cy="1.333" r="1.333" transform="translate(4.184 16.792)" fill="#7367db"/>
              <path id="Trazado_632902" data-name="Trazado 632902" d="M5.518,20.109A1.995,1.995,0,1,1,7.5,18.1v.022a2,2,0,0,1-1.984,1.984Zm0-2.678a.688.688,0,1,0,0,1.377.68.68,0,0,0,.683-.683A.7.7,0,0,0,5.518,17.432Z"/>
            </g>
            <g id="Grupo_963548" data-name="Grupo 963548">
              <circle id="Elipse_7793" data-name="Elipse 7793" cx="1.333" cy="1.333" r="1.333" transform="translate(4.184 23.036)" fill="#7367db"/>
              <path id="Trazado_632903" data-name="Trazado 632903" d="M5.518,26.354A1.984,1.984,0,1,1,7.5,24.37a1.985,1.985,0,0,1-1.984,1.984Zm0-2.667a.683.683,0,1,0,.683.683A.68.68,0,0,0,5.518,23.687Z"/>
            </g>
          </g>
          <g id="Grupo_963554" data-name="Grupo 963554">
            <g id="Grupo_963550" data-name="Grupo 963550">
              <circle id="Elipse_7794" data-name="Elipse 7794" cx="1.333" cy="1.333" r="1.333" transform="translate(10.212 1.713)" fill="#7367db"/>
              <path id="Trazado_632904" data-name="Trazado 632904" d="M11.545,5.03A1.995,1.995,0,1,1,13.54,3.035v.011A1.985,1.985,0,0,1,11.556,5.03Zm0-2.678a.7.7,0,0,0-.683.694.68.68,0,0,0,.683.683.688.688,0,1,0,0-1.377Z"/>
            </g>
            <g id="Grupo_963551" data-name="Grupo 963551">
              <circle id="Elipse_7795" data-name="Elipse 7795" cx="1.333" cy="1.333" r="1.333" transform="translate(10.212 7.361)" fill="#7367db"/>
              <path id="Trazado_632905" data-name="Trazado 632905" d="M11.545,10.689a1.984,1.984,0,1,1,.022,0Zm0-2.678a.68.68,0,0,0-.683.683.688.688,0,1,0,.683-.683Z"/>
            </g>
            <g id="Grupo_963552" data-name="Grupo 963552">
              <circle id="Elipse_7796" data-name="Elipse 7796" cx="1.333" cy="1.333" r="1.333" transform="translate(10.212 13.453)" fill="#7367db"/>
              <path id="Trazado_632906" data-name="Trazado 632906" d="M11.545,16.77a1.995,1.995,0,1,1,1.995-1.995v.011a1.985,1.985,0,0,1-1.984,1.984Zm0-2.678a.7.7,0,0,0-.683.694.68.68,0,0,0,.683.683.688.688,0,1,0,0-1.377Z"/>
            </g>
            <g id="Grupo_963553" data-name="Grupo 963553">
              <circle id="Elipse_7797" data-name="Elipse 7797" cx="1.333" cy="1.333" r="1.333" transform="translate(10.212 19.697)" fill="#7367db"/>
              <path id="Trazado_632907" data-name="Trazado 632907" d="M11.545,23.025a1.995,1.995,0,1,1,1.995-1.995A1.989,1.989,0,0,1,11.545,23.025Zm0-2.678a.68.68,0,0,0-.683.683.688.688,0,1,0,.683-.683Z"/>
            </g>
          </g>
          <g id="Grupo_963559" data-name="Grupo 963559">
            <g id="Grupo_963555" data-name="Grupo 963555">
              <circle id="Elipse_7798" data-name="Elipse 7798" cx="1.333" cy="1.333" r="1.333" transform="translate(16.63 5.052)" fill="#7367db"/>
              <path id="Trazado_632908" data-name="Trazado 632908" d="M17.963,8.369a1.995,1.995,0,1,1,1.984-2.006v.022A1.985,1.985,0,0,1,17.963,8.369Zm0-2.678a.688.688,0,1,0,0,1.377.68.68,0,0,0,.683-.683A.7.7,0,0,0,17.963,5.691Z"/>
            </g>
            <g id="Grupo_963556" data-name="Grupo 963556">
              <circle id="Elipse_7799" data-name="Elipse 7799" cx="1.333" cy="1.333" r="1.333" transform="translate(16.63 10.7)" fill="#7367db"/>
              <path id="Trazado_632909" data-name="Trazado 632909" d="M17.963,14.028a1.995,1.995,0,1,1,1.984-2.006v.011A2,2,0,0,1,17.963,14.028Zm0-2.678a.688.688,0,1,0,.683.683A.68.68,0,0,0,17.963,11.35Z"/>
            </g>
            <g id="Grupo_963557" data-name="Grupo 963557">
              <circle id="Elipse_7800" data-name="Elipse 7800" cx="1.333" cy="1.333" r="1.333" transform="translate(16.63 16.792)" fill="#7367db"/>
              <path id="Trazado_632910" data-name="Trazado 632910" d="M17.963,20.109A1.995,1.995,0,1,1,19.947,18.1v.022A1.985,1.985,0,0,1,17.963,20.109Zm0-2.678a.688.688,0,1,0,0,1.377.68.68,0,0,0,.683-.683A.7.7,0,0,0,17.963,17.432Z"/>
            </g>
            <g id="Grupo_963558" data-name="Grupo 963558">
              <circle id="Elipse_7801" data-name="Elipse 7801" cx="1.333" cy="1.333" r="1.333" transform="translate(16.63 23.036)" fill="#7367db"/>
              <path id="Trazado_632911" data-name="Trazado 632911" d="M17.963,26.354a1.984,1.984,0,1,1,1.984-1.984A1.985,1.985,0,0,1,17.963,26.354Zm0-2.667a.683.683,0,1,0,.683.683A.68.68,0,0,0,17.963,23.687Z"/>
            </g>
          </g>
          <g id="Grupo_963564" data-name="Grupo 963564">
            <g id="Grupo_963560" data-name="Grupo 963560">
              <circle id="Elipse_7802" data-name="Elipse 7802" cx="1.333" cy="1.333" r="1.333" transform="translate(22.657 1.713)" fill="#7367db"/>
              <path id="Trazado_632912" data-name="Trazado 632912" d="M23.99,5.03a1.995,1.995,0,1,1,1.984-2.006v.022A1.985,1.985,0,0,1,23.99,5.03Zm0-2.678a.7.7,0,0,0-.683.694.683.683,0,0,0,1.366,0A.7.7,0,0,0,23.99,2.352Z"/>
            </g>
            <g id="Grupo_963561" data-name="Grupo 963561">
              <circle id="Elipse_7803" data-name="Elipse 7803" cx="1.333" cy="1.333" r="1.333" transform="translate(22.657 7.361)" fill="#7367db"/>
              <path id="Trazado_632913" data-name="Trazado 632913" d="M23.99,10.689a1.995,1.995,0,1,1,1.984-2.006v.011A1.985,1.985,0,0,1,24,10.689Zm0-2.678a.683.683,0,1,0,.683.683A.68.68,0,0,0,23.99,8.011Z"/>
            </g>
            <g id="Grupo_963562" data-name="Grupo 963562">
              <circle id="Elipse_7804" data-name="Elipse 7804" cx="1.333" cy="1.333" r="1.333" transform="translate(22.657 13.453)" fill="#7367db"/>
              <path id="Trazado_632914" data-name="Trazado 632914" d="M23.99,16.77a1.995,1.995,0,1,1,1.984-2.006v.022A1.985,1.985,0,0,1,23.99,16.77Zm0-2.678a.7.7,0,0,0-.683.694.683.683,0,1,0,1.366,0A.7.7,0,0,0,23.99,14.093Z"/>
            </g>
            <g id="Grupo_963563" data-name="Grupo 963563">
              <circle id="Elipse_7805" data-name="Elipse 7805" cx="1.333" cy="1.333" r="1.333" transform="translate(22.657 19.697)" fill="#7367db"/>
              <path id="Trazado_632915" data-name="Trazado 632915" d="M23.99,23.025a1.995,1.995,0,1,1,1.984-2.006v.011A2,2,0,0,1,23.99,23.025Zm0-2.678a.683.683,0,1,0,.683.683A.68.68,0,0,0,23.99,20.348Z"/>
            </g>
          </g>
        </g>
        <g id="Grupo_963566" data-name="Grupo 963566">
          <path id="Trazado_632916" data-name="Trazado 632916" d="M50.3,8.976h1.377v1.3H50.3Z"/>
          <path id="Trazado_632917" data-name="Trazado 632917" d="M51.9,19.762h1.377v1.3H51.9Z"/>
          <path id="Trazado_632918" data-name="Trazado 632918" d="M49.455,29.823h1.377v1.3H49.455Z"/>
          <path id="Trazado_632919" data-name="Trazado 632919" d="M48.924,25.4H50.3v1.3H48.924Z"/>
          <path id="Trazado_632920" data-name="Trazado 632920" d="M49.455,16.955h1.377v1.3H49.455Z"/>
          <path id="Trazado_632921" data-name="Trazado 632921" d="M52.588,13.789h1.377v1.3H52.588Z"/>
          <path id="Trazado_632922" data-name="Trazado 632922" d="M52.588,27.405h1.377v1.3H52.588Z"/>
          <path id="Trazado_632923" data-name="Trazado 632923" d="M44.739,10.44h1.377v1.3H44.739Z"/>
          <path id="Trazado_632924" data-name="Trazado 632924" d="M43.634,8.044H45.01v1.3H43.634Z"/>
          <path id="Trazado_632925" data-name="Trazado 632925" d="M49.455,11.914h1.377v1.3H49.455Z"/>
          <path id="Trazado_632926" data-name="Trazado 632926" d="M53.282,23.362h1.377v1.3H53.282Z"/>
          <path id="Trazado_632927" data-name="Trazado 632927" d="M37.845,8.044h1.377v1.3H37.845Z"/>
          <path id="Trazado_632928" data-name="Trazado 632928" d="M40.078,10.765h1.377v1.3H40.078Z"/>
          <path id="Trazado_632929" data-name="Trazado 632929" d="M34.018,10.765h1.377v1.3H34.018Z"/>
          <path id="Trazado_632930" data-name="Trazado 632930" d="M30.419,8.044H31.8v1.3H30.419Z"/>
        </g>
        <g id="Grupo_963567" data-name="Grupo 963567">
          <path id="Trazado_632931" data-name="Trazado 632931" d="M47.655,56.8l-2.331-2.428a.661.661,0,0,1,.011-.921l1.886-1.865-1.908-2.114a.648.648,0,0,1,.033-.911l1.843-1.691-1.854-1.843a.63.63,0,0,1-.2-.466.641.641,0,0,1,.206-.466L47.2,42.354l-1.875-1.94.932-.9,2.331,2.407a.583.583,0,0,1,.184.466.649.649,0,0,1-.2.455l-1.854,1.745,1.865,1.843a.62.62,0,0,1,.184.477.641.641,0,0,1-.206.466l-1.854,1.713,1.9,2.092a.667.667,0,0,1-.022.9L46.7,53.932l1.9,1.973Z"/>
          <path id="Trazado_632932" data-name="Trazado 632932" d="M42.788,56.8l-2.331-2.428a.661.661,0,0,1,.011-.921l1.9-1.865-1.919-2.114a.649.649,0,0,1,.043-.911l1.832-1.691-1.854-1.843a.675.675,0,0,1-.2-.466.641.641,0,0,1,.206-.466l1.854-1.745-1.875-1.94.943-.9,2.331,2.407a.684.684,0,0,1,.184.466.66.66,0,0,1-.206.455l-1.843,1.745L43.72,46.43a.637.637,0,0,1,.2.477.7.7,0,0,1-.217.466l-1.854,1.713,1.9,2.092a.645.645,0,0,1-.022.9l-1.875,1.854,1.886,1.973Z"/>
          <path id="Trazado_632933" data-name="Trazado 632933" d="M37.931,56.8,35.6,54.377a.651.651,0,0,1,.011-.921L37.5,51.591l-1.919-2.114a.649.649,0,0,1,.043-.911l1.832-1.691L35.6,45.032a.684.684,0,0,1-.184-.466.641.641,0,0,1,.206-.466l1.854-1.745L35.6,40.414l.932-.9,2.331,2.407a.684.684,0,0,1,.184.466.617.617,0,0,1-.206.455L37,44.587l1.854,1.843a.655.655,0,0,1-.011.943l-1.865,1.713,1.9,2.092a.645.645,0,0,1-.022.9l-1.875,1.854,1.886,1.973Z"/>
          <path id="Trazado_632934" data-name="Trazado 632934" d="M33.27,56.8l-2.331-2.428a.661.661,0,0,1,.011-.921l1.886-1.865-1.908-2.114a.635.635,0,0,1,.033-.9l.011-.011L32.8,46.875,30.95,45.032a.63.63,0,0,1-.2-.466.641.641,0,0,1,.206-.466l1.854-1.745-1.875-1.94.932-.9,2.342,2.407a.627.627,0,0,1,.173.466.649.649,0,0,1-.2.455l-1.843,1.745L34.2,46.43a.673.673,0,0,1,.2.477.7.7,0,0,1-.217.466l-1.854,1.713,1.9,2.092a.645.645,0,0,1-.022.9l-1.875,1.854,1.886,1.973Z"/>
          <path id="Trazado_632935" data-name="Trazado 632935" d="M28.619,56.8l-2.342-2.428a.661.661,0,0,1,.022-.921l1.886-1.865-1.919-2.114a.649.649,0,0,1,.043-.911l1.832-1.691-1.854-1.843a.684.684,0,0,1-.184-.466.641.641,0,0,1,.206-.466l1.854-1.745-1.875-1.94.932-.9,2.331,2.407a.684.684,0,0,1,.184.466.617.617,0,0,1-.206.455l-1.843,1.745,1.854,1.843a.655.655,0,0,1-.011.943l-1.865,1.713,1.9,2.092a.645.645,0,0,1-.022.9l-1.875,1.854,1.886,1.973Z"/>
        </g>
      </g>
    </g>
  </g>
</svg>
