<svg xmlns="http://www.w3.org/2000/svg" xmlns:xlink="http://www.w3.org/1999/xlink" width="86" height="86" viewBox="0 0 86 86">
  <defs>
    <clipPath id="clip-path">
      <rect id="Rectángulo_351132" data-name="Rectángulo 351132" width="60.437" height="58.464" fill="none"/>
    </clipPath>
  </defs>
  <g id="Grupo_980520" data-name="Grupo 980520" transform="translate(-810 -553)">
    <g id="Grupo_980517" data-name="Grupo 980517" transform="translate(-157)">
      <circle id="Elipse_7825" data-name="Elipse 7825" cx="43" cy="43" r="43" transform="translate(967 553)" fill="#faebcd"/>
    </g>
    <g id="Grupo_980519" data-name="Grupo 980519" transform="translate(826.26 568.405)">
      <g id="Grupo_980518" data-name="Grupo 980518" clip-path="url(#clip-path)">
        <path id="Trazado_656365" data-name="Trazado 656365" d="M52.579,211.9h-22.9a3.959,3.959,0,0,1-3.948-3.948V190.508l18.988,3.711v3.474a3.829,3.829,0,0,0,7.658,0v-3.474L68.488,191.1v4.777a9.627,9.627,0,0,0-1.066-.039A14.9,14.9,0,0,0,52.5,210.719c0,.395.039.79.079,1.184" transform="translate(-22.696 -168.007)" fill="#f28e6a" fill-rule="evenodd"/>
        <path id="Trazado_656366" data-name="Trazado 656366" d="M277.88,281.27a14.9,14.9,0,1,1,2.132-7.7,14.552,14.552,0,0,1-2.132,7.7" transform="translate(-222.535 -228.136)" fill="#8f83b4" fill-rule="evenodd"/>
        <path id="Trazado_656367" data-name="Trazado 656367" d="M191.905,213.251a3.443,3.443,0,0,1-1.579.355,3.858,3.858,0,0,1-3.829-3.829v-5.566h4.777a.885.885,0,0,1,.908.868v6.79a3.2,3.2,0,0,1-.276,1.382" transform="translate(-164.47 -180.091)" fill="#f28e6a" fill-rule="evenodd"/>
        <path id="Trazado_656368" data-name="Trazado 656368" d="M53.836,115.289l-17.961,3.474v-3.316a.885.885,0,0,0-.868-.908H29.124a.918.918,0,0,0-.908.908v3.316l-19.343-3.75c-.987-.2-1.855-.75-1.855-1.618v-8.448H51.981a1.761,1.761,0,0,1,1.855,1.579Z" transform="translate(-6.189 -92.551)" fill="#8f83b4" fill-rule="evenodd"/>
        <path id="Trazado_656369" data-name="Trazado 656369" d="M131.258,29.436V26.751a1.584,1.584,0,0,0-1.579-1.579H115.428a1.584,1.584,0,0,0-1.579,1.579v2.29l-.2.395h-4.027v-6a2.087,2.087,0,0,1,.513-.039H131.3a2.706,2.706,0,0,1,2.368,2.724v3.316Z" transform="translate(-96.677 -20.633)" fill="#f28e6a" fill-rule="evenodd"/>
        <path id="Trazado_656370" data-name="Trazado 656370" d="M66.009,189.171v6.277a11.432,11.432,0,0,0-1.658-.474v-5.448l1.224-.237c.158-.04.316-.079.434-.118m-19.54,22.383H23.494a4.713,4.713,0,0,1-3.355-1.382,4.771,4.771,0,0,1-1.421-3.395V189.171l.474.118,1.224.237v17.251a2.976,2.976,0,0,0,.908,2.211,3.11,3.11,0,0,0,2.171.908H46.35a11.717,11.717,0,0,0,.118,1.658" transform="translate(-16.506 -166.828)" fill="#505050"/>
        <path id="Trazado_656371" data-name="Trazado 656371" d="M261.071,228.609A15.715,15.715,0,1,1,245.32,244.32a15.7,15.7,0,0,1,15.751-15.711m9.948,5.763a14.105,14.105,0,1,0,4.105,9.948,14.157,14.157,0,0,0-4.105-9.948" transform="translate(-216.345 -201.608)" fill="#505050"/>
        <path id="Trazado_656372" data-name="Trazado 656372" d="M269.25,265.488a.83.83,0,1,1,0-1.658H270a.829.829,0,0,1,0,1.658ZM280.58,252.5a.809.809,0,0,1,.829-.829.834.834,0,0,1,.829.829v.79a.861.861,0,0,1-.829.829.834.834,0,0,1-.829-.829Zm12.987,11.329a.829.829,0,1,1,0,1.658h-.789a.829.829,0,0,1,0-1.658Zm-11.329,12.988a.834.834,0,0,1-.829.829.809.809,0,0,1-.829-.829v-.75a.843.843,0,0,1,.829-.868.869.869,0,0,1,.829.868Zm2.8-7.935a.833.833,0,1,1-1.421.868l-2.921-4.658a.546.546,0,0,1-.118-.474v-7.935a.834.834,0,0,1,.829-.829.861.861,0,0,1,.829.829v7.737Z" transform="translate(-236.683 -221.946)" fill="#fff"/>
        <path id="Trazado_656373" data-name="Trazado 656373" d="M2.684,67.514H49.068a2.744,2.744,0,0,1,1.855.671,2.29,2.29,0,0,1,.829,1.737V80.383A2.078,2.078,0,0,1,50.963,82a3.532,3.532,0,0,1-1.737.79L29.686,86.62v-1.7l19.225-3.75a2.276,2.276,0,0,0,.987-.434.414.414,0,0,0,.2-.355V69.922a.669.669,0,0,0-.276-.474,1.158,1.158,0,0,0-.75-.276H2.684a1.271,1.271,0,0,0-.789.276.617.617,0,0,0-.237.474V80.383a.415.415,0,0,0,.2.355,2.277,2.277,0,0,0,.987.434l19.185,3.75v1.7l-19.5-3.829A3.847,3.847,0,0,1,.75,82,2.044,2.044,0,0,1,0,80.383V69.922a2.291,2.291,0,0,1,.829-1.737,2.743,2.743,0,0,1,1.855-.671" transform="translate(0 -59.54)" fill="#505050"/>
        <path id="Trazado_656374" data-name="Trazado 656374" d="M105.765,0h21.2a3.008,3.008,0,0,1,2.211.947h.04a3.3,3.3,0,0,1,.908,2.25V8.8h-1.658V3.2a1.458,1.458,0,0,0-.434-1.066,1.525,1.525,0,0,0-1.066-.434h-21.2a1.483,1.483,0,0,0-1.5,1.5V8.8h-1.658V3.2a3.3,3.3,0,0,1,.908-2.25A3.165,3.165,0,0,1,105.765,0M124.24,8.8V6.119A.637.637,0,0,0,124,5.606a.637.637,0,0,0-.513-.237H109.239a.717.717,0,0,0-.553.237.751.751,0,0,0-.2.513V8.8h-1.7V6.119a2.386,2.386,0,0,1,.711-1.7,2.479,2.479,0,0,1,1.737-.711H123.49A2.426,2.426,0,0,1,125.9,6.119V8.8Z" transform="translate(-90.488 0)" fill="#505050"/>
        <path id="Trazado_656375" data-name="Trazado 656375" d="M181.216,179.145H187.1a1.575,1.575,0,0,1,1.184.513,1.732,1.732,0,0,1,.513,1.224v6.79a4.65,4.65,0,0,1-4.658,4.658,4.53,4.53,0,0,1-3.276-1.382,4.693,4.693,0,0,1-1.382-3.276v-6.79a1.752,1.752,0,0,1,1.737-1.737M187.1,180.8h-5.882l-.04.039v6.829a2.825,2.825,0,0,0,.868,2.092,2.91,2.91,0,0,0,4.224,0,2.825,2.825,0,0,0,.868-2.092v-6.829a.039.039,0,0,1-.039-.039" transform="translate(-158.28 -157.986)" fill="#505050"/>
        <path id="Trazado_656376" data-name="Trazado 656376" d="M209.191,244.289a1.323,1.323,0,1,0,0-2.645,1.323,1.323,0,0,0,0,2.645" transform="translate(-183.334 -213.103)" fill="#325e8a" fill-rule="evenodd"/>
      </g>
    </g>
  </g>
</svg>
