<svg xmlns="http://www.w3.org/2000/svg" xmlns:xlink="http://www.w3.org/1999/xlink" width="57" height="57" viewBox="0 0 57 57">
  <defs>
    <clipPath id="clip-path">
      <rect id="Rect치ngulo_307079" data-name="Rect치ngulo 307079" width="57" height="57" transform="translate(194 9326.5)" fill="#583cb6" stroke="#707070" stroke-width="1"/>
    </clipPath>
  </defs>
  <g id="Enmascarar_grupo_878447" data-name="Enmascarar grupo 878447" transform="translate(-194 -9326.5)" clip-path="url(#clip-path)">
    <g id="lista-de-verificacion" transform="translate(191.815 9324.315)">
      <rect id="Rect치ngulo_307302" data-name="Rect치ngulo 307302" width="42.242" height="53.598" rx="2.398" transform="translate(9.565 4.75)" fill="#fd646f"/>
      <path id="Trazado_632936" data-name="Trazado 632936" d="M14.813,10H46.56V53.1H14.813Z" fill="#dff6fd"/>
      <path id="Trazado_632937" data-name="Trazado 632937" d="M23.152,3.024H38.22V10H23.152Z" fill="#fad207"/>
      <g id="Grupo_963569" data-name="Grupo 963569">
        <path id="Trazado_632938" data-name="Trazado 632938" d="M51.807,23.32a.839.839,0,0,0-.839.839V55.948a1.561,1.561,0,0,1-1.559,1.559H11.962A1.561,1.561,0,0,1,10.4,55.948V49.475a.839.839,0,0,0-1.678,0v6.473a3.241,3.241,0,0,0,3.237,3.237H49.409a3.241,3.241,0,0,0,3.237-3.237V24.159a.839.839,0,0,0-.839-.839Z"/>
        <path id="Trazado_632939" data-name="Trazado 632939" d="M51.807,16.733a.839.839,0,0,0-.839.839V19.73a.839.839,0,1,0,1.678,0V17.572a.839.839,0,0,0-.839-.839Z"/>
        <path id="Trazado_632940" data-name="Trazado 632940" d="M49.409,3.911H39.059V3.024a.839.839,0,0,0-.839-.839H23.152a.839.839,0,0,0-.839.839v.887H11.963A3.241,3.241,0,0,0,8.726,7.147v37.84a.839.839,0,0,0,1.678,0V7.147a1.561,1.561,0,0,1,1.559-1.559H22.313V9.158h-7.5a.839.839,0,0,0-.839.839V53.1a.839.839,0,0,0,.839.839H46.559A.839.839,0,0,0,47.4,53.1V10a.839.839,0,0,0-.839-.839h-7.5V5.589h10.35a1.561,1.561,0,0,1,1.559,1.559v5.8a.839.839,0,1,0,1.678,0v-5.8a3.241,3.241,0,0,0-3.237-3.237ZM45.72,52.262H15.652V10.836H45.72ZM23.991,9.158V3.863h13.39V9.158Z"/>
        <path id="Trazado_632941" data-name="Trazado 632941" d="M34.612,5.671H26.759a.839.839,0,0,0,0,1.678h7.853a.839.839,0,1,0,0-1.678Z"/>
        <path id="Trazado_632942" data-name="Trazado 632942" d="M36.118,46.913H31.024a.839.839,0,1,0,0,1.678h5.094a.839.839,0,0,0,0-1.678Z"/>
        <path id="Trazado_632943" data-name="Trazado 632943" d="M41.211,42.8H31.024a.839.839,0,1,0,0,1.678H41.211a.839.839,0,1,0,0-1.678Z"/>
        <path id="Trazado_632944" data-name="Trazado 632944" d="M25.895,43.041,22.37,46.566,20.754,44.95a.839.839,0,0,0-1.187,1.187l2.209,2.209a.839.839,0,0,0,1.187,0l4.118-4.118a.839.839,0,0,0-1.186-1.186Z"/>
        <path id="Trazado_632945" data-name="Trazado 632945" d="M31.024,20.3h5.094a.839.839,0,1,0,0-1.678H31.024a.839.839,0,0,0,0,1.678Z"/>
        <path id="Trazado_632946" data-name="Trazado 632946" d="M30.185,15.343a.839.839,0,0,0,.839.839H41.211a.839.839,0,1,0,0-1.678H31.024A.839.839,0,0,0,30.185,15.343Z"/>
        <path id="Trazado_632947" data-name="Trazado 632947" d="M25.895,14.752,22.37,18.276,20.754,16.66a.839.839,0,0,0-1.187,1.187l2.209,2.209a.839.839,0,0,0,1.187,0l4.118-4.118a.839.839,0,0,0-1.186-1.186Z"/>
        <path id="Trazado_632948" data-name="Trazado 632948" d="M31.024,29.732h5.094a.839.839,0,1,0,0-1.678H31.024a.839.839,0,0,0,0,1.678Z"/>
        <path id="Trazado_632949" data-name="Trazado 632949" d="M41.211,23.936H31.024a.839.839,0,0,0,0,1.678H41.211a.839.839,0,1,0,0-1.678Z"/>
        <path id="Trazado_632950" data-name="Trazado 632950" d="M25.895,24.182,22.37,27.706,20.754,26.09a.839.839,0,1,0-1.187,1.187l2.209,2.211a.839.839,0,0,0,1.187,0l4.118-4.118a.839.839,0,0,0-1.186-1.186Z"/>
        <path id="Trazado_632951" data-name="Trazado 632951" d="M31.024,39.162h5.094a.839.839,0,0,0,0-1.678H31.024a.839.839,0,1,0,0,1.678Z"/>
        <path id="Trazado_632952" data-name="Trazado 632952" d="M41.211,33.366H31.024a.839.839,0,0,0,0,1.678H41.211a.839.839,0,1,0,0-1.678Z"/>
        <path id="Trazado_632953" data-name="Trazado 632953" d="M25.895,33.611,22.37,37.135l-1.616-1.616a.839.839,0,0,0-1.187,1.187l2.209,2.209a.839.839,0,0,0,1.187,0L27.081,34.8a.839.839,0,0,0-1.186-1.186Z"/>
      </g>
    </g>
  </g>
</svg>
