<svg xmlns="http://www.w3.org/2000/svg" xmlns:xlink="http://www.w3.org/1999/xlink" width="77" height="76" viewBox="0 0 77 76">
  <defs>
    <clipPath id="clip-path">
      <rect id="Rectángulo_307013" data-name="Rectángulo 307013" width="77" height="76" transform="translate(194 1801)" fill="#583cb6"/>
    </clipPath>
  </defs>
  <g id="Enmascarar_grupo_878435" data-name="Enmascarar grupo 878435" transform="translate(-194 -1801)" clip-path="url(#clip-path)">
    <g id="pruebas" transform="translate(193.274 1799.774)">
      <path id="Trazado_631972" data-name="Trazado 631972" d="M15.935,72.323a3.677,3.677,0,0,1-7.355,0v-28.3a6.706,6.706,0,0,0,1.226.11H23.29V72.323a3.677,3.677,0,0,1-7.355,0Z" fill="#838f9b"/>
      <path id="Trazado_631973" data-name="Trazado 631973" d="M28.132,40.452a3.352,3.352,0,0,1,.061.613,3.055,3.055,0,0,1-3.065,3.065H9.806a6.706,6.706,0,0,1-1.226-.11,7.342,7.342,0,0,1-6.129-7.245V35.548H8.581A2.459,2.459,0,0,0,11.032,38h14.1A3.065,3.065,0,0,1,28.132,40.452Z" fill="#f0d0b4"/>
      <path id="Trazado_631974" data-name="Trazado 631974" d="M8.581,35.548H2.452V29.419a9.8,9.8,0,0,1,9.806-9.806H14.55L13.484,30.645,15.935,33.1l2.452-2.452L17.308,19.613H36.394a22.09,22.09,0,0,0-5.246,6.129H26.355a3.066,3.066,0,0,0-3.065,3.065V38H11.032a2.459,2.459,0,0,1-2.452-2.452Z" fill="#ff826e"/>
      <path id="Trazado_631975" data-name="Trazado 631975" d="M17.308,19.613l1.079,11.032L15.935,33.1l-2.452-2.452L14.55,19.613h2.758Z" fill="#e6e9ed"/>
      <path id="Trazado_631976" data-name="Trazado 631976" d="M76,57.613v7.355l-3.322.834c-.049.123-.086.245-.147.368L74.3,69.086l-5.21,5.21-2.917-1.765c-.123.061-.245.1-.368.147L64.968,76H57.613l-.834-3.322c-.123-.049-.245-.086-.368-.147L53.494,74.3l-5.21-5.21,1.765-2.917c-.061-.123-.1-.245-.147-.368l-3.322-.834V58.52a21.371,21.371,0,0,0,3.677.319,22.05,22.05,0,0,0,4.254-.417,7.442,7.442,0,0,0-.576,2.868,7.355,7.355,0,1,0,9.684-6.963,21.955,21.955,0,0,0,5.455-6.043h.012l5.21,5.21-1.765,2.917c.061.123.1.245.147.368Z" fill="#ffc729"/>
      <path id="Trazado_631977" data-name="Trazado 631977" d="M71.1,2.452a4.9,4.9,0,1,1,0,9.806H61.29v-4.9a4.9,4.9,0,0,1,4.9-4.9Z" fill="#ffeaa7"/>
      <path id="Trazado_631978" data-name="Trazado 631978" d="M63.619,54.328a22.1,22.1,0,0,1-13.361,4.511,21.371,21.371,0,0,1-3.677-.319A21.816,21.816,0,0,1,36.6,54.107a22.687,22.687,0,0,1-3.677-3.677A21.873,21.873,0,0,1,28.5,40.39a20.667,20.667,0,0,1-.306-3.616A22.059,22.059,0,1,1,63.619,54.328Z" fill="#e6e9ed"/>
      <circle id="Elipse_7772" data-name="Elipse 7772" cx="17.161" cy="17.161" r="17.161" transform="translate(33.097 19.613)" fill="#69d6f4"/>
      <g id="Grupo_962082" data-name="Grupo 962082">
        <path id="Trazado_631979" data-name="Trazado 631979" d="M62.516,31.871v16.9a17.243,17.243,0,0,1-4.891,3.506l-.012-.025V31.871Z" fill="#ffeaa7"/>
        <path id="Trazado_631980" data-name="Trazado 631980" d="M57.613,52.256l.012.025a17.577,17.577,0,0,1-4.915,1.483V36.774h4.9Z" fill="#ffeaa7"/>
        <path id="Trazado_631981" data-name="Trazado 631981" d="M52.71,53.739v.025a17.6,17.6,0,0,1-4.9,0V24.516h4.9V53.739Z" fill="#ffeaa7"/>
        <path id="Trazado_631982" data-name="Trazado 631982" d="M47.806,53.739v.025a17.577,17.577,0,0,1-4.915-1.483l.012-.025V41.677h4.9Z" fill="#ffeaa7"/>
        <path id="Trazado_631983" data-name="Trazado 631983" d="M42.9,41.677V52.256l-.012.025A17.243,17.243,0,0,1,38,48.775V34.323h4.9Z" fill="#ffeaa7"/>
      </g>
      <path id="Trazado_631984" data-name="Trazado 631984" d="M36.6,54.107l-4.732,4.732-3.677-3.677,4.732-4.732A22.686,22.686,0,0,0,36.6,54.107Z" fill="#ccd1d9"/>
      <path id="Trazado_631985" data-name="Trazado 631985" d="M33.1,60.065,23.29,69.871V57.613l3.677-3.677,1.226,1.226,3.677,3.677Z" fill="#cf9e76"/>
      <circle id="Elipse_7773" data-name="Elipse 7773" cx="8.581" cy="8.581" r="8.581" transform="translate(7.355 2.452)" fill="#f0d0b4"/>
      <path id="Trazado_631986" data-name="Trazado 631986" d="M75.836,53.3l-5.227-5.227A23.257,23.257,0,0,0,36.015,18.387H22.4a9.8,9.8,0,1,0-12.6.286A11.045,11.045,0,0,0,1.226,29.419v7.355a8.593,8.593,0,0,0,6.129,8.219V72.323a4.883,4.883,0,0,0,8.581,3.209,4.883,4.883,0,0,0,8.581-3.209V70.378L34.83,60.065,33.6,58.839,36.74,55.7a23.154,23.154,0,0,0,8.615,3.832v6.39l2.962.739-1.57,2.618L53.3,75.837l2.616-1.571.739,2.96h9.27l.739-2.962,2.616,1.571,6.554-6.554-1.57-2.618,2.962-.738v-9.27l-2.962-.739ZM71.1,36.774A20.839,20.839,0,1,1,50.258,15.935,20.862,20.862,0,0,1,71.1,36.774ZM67.419,61.29a6.13,6.13,0,1,1-11.947-1.836,23.156,23.156,0,0,0,8.3-3.746,6.1,6.1,0,0,1,3.65,5.582ZM26.968,52.2l-2.452,2.452v-9.3h.613a4.278,4.278,0,0,0,3.035-1.261,23.221,23.221,0,0,0,3.165,6.2l-3.136,3.136Zm0-15.428c0,.15.02.294.022.443a4.241,4.241,0,0,0-1.861-.443h-.613V28.806a1.841,1.841,0,0,1,1.839-1.839h2.807A23.128,23.128,0,0,0,26.968,36.774Zm-9.857-6.586-1.176,1.176L14.76,30.188l.908-9.349H16.2ZM8.581,11.032a7.355,7.355,0,1,1,7.355,7.355,7.362,7.362,0,0,1-7.355-7.355Zm3.677,9.806h.948l-1,10.264,3.728,3.728L19.663,31.1l-1-10.264H33.32a23.456,23.456,0,0,0-2.828,3.677H26.355a4.3,4.3,0,0,0-4.29,4.29v7.968H11.032a1.227,1.227,0,0,1-1.226-1.226V26.968H7.355v7.355H3.677v-4.9A8.591,8.591,0,0,1,12.258,20.839ZM3.677,36.774h3.9a3.672,3.672,0,0,0,3.452,2.452h14.1a1.839,1.839,0,1,1,0,3.677H9.806A6.136,6.136,0,0,1,3.677,36.774Zm15.935,38a2.454,2.454,0,0,1-2.452-2.452V50.258H14.71V72.323a2.452,2.452,0,0,1-4.9,0V45.355H22.065V72.323A2.454,2.454,0,0,1,19.613,74.774Zm4.9-7.862V58.12l2.452-2.452,4.4,4.4Zm7.355-9.806-1.944-1.944,2.944-2.944a23.276,23.276,0,0,0,1.944,1.944Zm42.9,1.465v5.44l-2.389.6-.655.253-.571,1.4L72.748,68.9,68.9,72.748l-2.645-1.587-1.5.608-.75,3.006H58.57l-.6-2.389-.249-.656-1.4-.569-2.645,1.587L49.833,68.9l1.589-2.647-.613-1.5-3-.749V59.933a22.566,22.566,0,0,0,5.023-.018,8.579,8.579,0,1,0,13-5.873,23.507,23.507,0,0,0,3.431-3.85l3.486,3.486-1.589,2.647.617,1.5Z"/>
      <path id="Trazado_631987" data-name="Trazado 631987" d="M77.226,7.355A6.136,6.136,0,0,0,71.1,1.226h-4.9a6.136,6.136,0,0,0-6.129,6.129v6.129H71.1A6.136,6.136,0,0,0,77.226,7.355Zm-14.71,0a3.682,3.682,0,0,1,3.677-3.677h4.9a3.677,3.677,0,0,1,0,7.355H62.516Z"/>
      <path id="Trazado_631988" data-name="Trazado 631988" d="M64.968,6.129h2.452V8.581H64.968Z"/>
      <path id="Trazado_631989" data-name="Trazado 631989" d="M69.871,6.129h2.452V8.581H69.871Z"/>
      <path id="Trazado_631990" data-name="Trazado 631990" d="M50.258,55.161A18.387,18.387,0,1,0,31.871,36.774,18.408,18.408,0,0,0,50.258,55.161ZM44.129,42.9h2.452v9.361a15.655,15.655,0,0,1-2.452-.785Zm-2.452,7.278a16,16,0,0,1-2.452-1.934v-12.7h2.452Zm7.355,2.466V25.742h2.452V52.647c-.406.032-.811.063-1.226.063S49.438,52.679,49.032,52.647ZM53.935,38h2.452V51.48a15.917,15.917,0,0,1-2.452.785ZM61.29,48.247a16,16,0,0,1-2.452,1.934V33.1H61.29ZM50.258,20.839A15.9,15.9,0,0,1,63.742,45.227V30.645H56.387v4.9H53.935V23.29H46.581V40.452H44.129V33.1H36.774V45.227A15.9,15.9,0,0,1,50.258,20.839Z"/>
    </g>
  </g>
</svg>
