<svg xmlns="http://www.w3.org/2000/svg" xmlns:xlink="http://www.w3.org/1999/xlink" width="57" height="57" viewBox="0 0 57 57">
  <defs>
    <clipPath id="clip-path">
      <rect id="Rectángulo_307087" data-name="Rectángulo 307087" width="57" height="57" transform="translate(194 9663)" fill="#583cb6" stroke="#707070" stroke-width="1"/>
    </clipPath>
  </defs>
  <g id="Enmascarar_grupo_878450" data-name="Enmascarar grupo 878450" transform="translate(-194 -9663)" clip-path="url(#clip-path)">
    <g id="prueba" transform="translate(194 9663)">
      <path id="Trazado_632986" data-name="Trazado 632986" d="M32.952,1.113H3.34A2.226,2.226,0,0,0,1.113,3.34V53.66A2.226,2.226,0,0,0,3.34,55.887H41.634a2.227,2.227,0,0,0,2.227-2.227V12.022Zm0,0" fill="#edf2fa"/>
      <path id="Trazado_632987" data-name="Trazado 632987" d="M42.092,45.857l9.25,9.25a2.662,2.662,0,1,0,3.764-3.764l-9.25-9.25Zm0,0" fill="#ff5d5d"/>
      <path id="Trazado_632988" data-name="Trazado 632988" d="M47.871,34.512A13.359,13.359,0,1,1,34.512,21.152,13.359,13.359,0,0,1,47.871,34.512Zm0,0" fill="#fff"/>
      <path id="Trazado_632989" data-name="Trazado 632989" d="M35.178,12.022H43.86L32.952,1.114V9.8A2.226,2.226,0,0,0,35.178,12.022Zm0,0" fill="#ffb954"/>
      <g id="Grupo_963571" data-name="Grupo 963571">
        <path id="Trazado_632990" data-name="Trazado 632990" d="M14.25,40.969H8.906A1.781,1.781,0,0,0,7.125,42.75v5.344a1.781,1.781,0,0,0,1.781,1.781H14.25a1.781,1.781,0,0,0,1.781-1.781V42.75A1.781,1.781,0,0,0,14.25,40.969Zm0,0" fill="#72d8ff"/>
        <path id="Trazado_632991" data-name="Trazado 632991" d="M14.25,24.047H8.906a1.781,1.781,0,0,0-1.781,1.781v5.344a1.781,1.781,0,0,0,1.781,1.781H14.25a1.781,1.781,0,0,0,1.781-1.781V25.828A1.781,1.781,0,0,0,14.25,24.047Zm0,0" fill="#72d8ff"/>
        <path id="Trazado_632992" data-name="Trazado 632992" d="M14.25,7.125H8.906A1.781,1.781,0,0,0,7.125,8.906V14.25a1.781,1.781,0,0,0,1.781,1.781H14.25a1.781,1.781,0,0,0,1.781-1.781V8.906A1.781,1.781,0,0,0,14.25,7.125Zm0,0" fill="#72d8ff"/>
        <path id="Trazado_632993" data-name="Trazado 632993" d="M43.2,34.512a8.684,8.684,0,1,1-8.684-8.684A8.684,8.684,0,0,1,43.2,34.512Zm0,0" fill="#72d8ff"/>
      </g>
      <path id="Trazado_632994" data-name="Trazado 632994" d="M1.113,29.613a1.113,1.113,0,1,0-.787-1.9,1.113,1.113,0,0,0,.787,1.9Zm0,0"/>
      <path id="Trazado_632995" data-name="Trazado 632995" d="M6.012,48.094a2.9,2.9,0,0,0,2.895,2.895H14.25a2.9,2.9,0,0,0,2.895-2.895V42.75a2.9,2.9,0,0,0-2.895-2.895H8.906A2.9,2.9,0,0,0,6.012,42.75ZM8.238,42.75a.669.669,0,0,1,.668-.668H14.25a.669.669,0,0,1,.668.668v5.344a.669.669,0,0,1-.668.668H8.906a.669.669,0,0,1-.668-.668Zm0,0"/>
      <path id="Trazado_632996" data-name="Trazado 632996" d="M6.012,31.172a2.9,2.9,0,0,0,2.895,2.895H14.25a2.9,2.9,0,0,0,2.895-2.895V25.828a2.9,2.9,0,0,0-2.895-2.895H8.906a2.9,2.9,0,0,0-2.895,2.895Zm2.227-5.344a.669.669,0,0,1,.668-.668H14.25a.669.669,0,0,1,.668.668v5.344a.669.669,0,0,1-.668.668H8.906a.669.669,0,0,1-.668-.668Zm0,0"/>
      <path id="Trazado_632997" data-name="Trazado 632997" d="M8.906,17.145H14.25a2.9,2.9,0,0,0,2.895-2.895V8.906A2.9,2.9,0,0,0,14.25,6.012H8.906A2.9,2.9,0,0,0,6.012,8.906V14.25A2.9,2.9,0,0,0,8.906,17.145ZM8.238,8.906a.669.669,0,0,1,.668-.668H14.25a.669.669,0,0,1,.668.668V14.25a.669.669,0,0,1-.668.668H8.906a.669.669,0,0,1-.668-.668Zm0,0"/>
      <path id="Trazado_632998" data-name="Trazado 632998" d="M28.514,12.691a1.113,1.113,0,1,0,0-2.227H21.931a1.113,1.113,0,0,0,0,2.227Zm0,0"/>
      <path id="Trazado_632999" data-name="Trazado 632999" d="M26.942,34.512v-.023a1.113,1.113,0,0,0-1.107-1.119h-.006a1.114,1.114,0,0,0-1.113,1.107v.036a1.113,1.113,0,0,0,2.227,0Zm0,0"/>
      <path id="Trazado_633000" data-name="Trazado 633000" d="M34.512,24.715a9.854,9.854,0,0,0-8.838,5.564,1.113,1.113,0,0,0,2.008.963,7.571,7.571,0,1,1,.16,6.854,1.113,1.113,0,0,0-1.96,1.056,9.8,9.8,0,1,0,8.63-14.437Zm0,0"/>
      <path id="Trazado_633001" data-name="Trazado 633001" d="M55.894,50.556,47.059,41.72a14.449,14.449,0,0,0-2.085-17.2v-12.5a.184.184,0,0,0,0-.022,1.112,1.112,0,0,0-.324-.765L33.739.326A1.113,1.113,0,0,0,33,0l-.045,0H3.34A3.343,3.343,0,0,0,0,3.34V24.047a1.113,1.113,0,0,0,2.227,0V3.34A1.114,1.114,0,0,1,3.34,2.226h28.5V9.8a3.343,3.343,0,0,0,3.34,3.34h7.569v9.482A14.471,14.471,0,1,0,41.72,47.058l1.027,1.028V53.66a1.114,1.114,0,0,1-1.113,1.113H3.34A1.114,1.114,0,0,1,2.226,53.66V32.953a1.113,1.113,0,1,0-2.227,0V53.66A3.343,3.343,0,0,0,3.34,57H41.634a3.344,3.344,0,0,0,3.34-3.34V50.312l5.582,5.582a3.775,3.775,0,1,0,5.339-5.339ZM35.178,10.909A1.114,1.114,0,0,1,34.065,9.8V3.8l7.108,7.108Zm-12.912,23.6A12.246,12.246,0,1,1,34.512,46.758,12.26,12.26,0,0,1,22.266,34.512ZM54.32,54.32a1.548,1.548,0,0,1-2.19,0l-8.543-8.543a14.6,14.6,0,0,0,2.19-2.19L54.32,52.13a1.548,1.548,0,0,1,0,2.19Zm0,0"/>
      <path id="Trazado_633002" data-name="Trazado 633002" d="M37.295,34.512a1.113,1.113,0,0,0,2.227,0A5.015,5.015,0,0,0,34.512,29.5a1.113,1.113,0,1,0,0,2.227A2.786,2.786,0,0,1,37.295,34.512Zm0,0"/>
    </g>
  </g>
</svg>
