<svg xmlns="http://www.w3.org/2000/svg" xmlns:xlink="http://www.w3.org/1999/xlink" width="49" height="58" viewBox="0 0 49 58">
  <defs>
    <clipPath id="clip-path">
      <rect id="Rectángulo_306508" data-name="Rectángulo 306508" width="49" height="58" transform="translate(198 4602)" fill="#583cb6" stroke="#707070" stroke-width="1"/>
    </clipPath>
  </defs>
  <g id="Enmascarar_grupo_878394" data-name="Enmascarar grupo 878394" transform="translate(-198 -4602)" clip-path="url(#clip-path)">
    <g id="seleccionar" transform="translate(198 4606.5)">
      <path id="Trazado_629627" data-name="Trazado 629627" d="M.817,7.35H48.183V40.017H.817Zm0,0" fill="#d1e7f8"/>
      <path id="Trazado_629628" data-name="Trazado 629628" d="M26.95,43.283v4.9H43.283v-4.9Zm0,0" fill="#005ece"/>
      <path id="Trazado_629629" data-name="Trazado 629629" d="M.817.817H48.183V7.35H.817Zm0,0" fill="#006df0"/>
      <path id="Trazado_629630" data-name="Trazado 629630" d="M5.717,12.25v8.167h8.167V12.25Zm0,0" fill="#d80027"/>
      <path id="Trazado_629631" data-name="Trazado 629631" d="M5.717,25.317v8.167h8.167V25.317Zm0,0" fill="#d80027"/>
      <path id="Trazado_629632" data-name="Trazado 629632" d="M22.05,40.017H48.183V17.15C48.183,26.629,33.335,40.017,22.05,40.017Zm0,0" fill="#bcd0df"/>
      <path id="Trazado_629633" data-name="Trazado 629633" d="M28.583,43.283h13.05l.011-1.47a3.265,3.265,0,0,1,.548-1.79l.543-.817a3.269,3.269,0,0,0,.549-1.813V30.773a3.267,3.267,0,0,0-3-3.256l-6.8-.567V19.6a1.633,1.633,0,1,0-3.267,0V30.877a.817.817,0,0,1-1.524.408L26.95,28.266A1.633,1.633,0,1,0,24.124,29.9l2.826,7.725.879,1.664a6.812,6.812,0,0,1,.327.729,6.53,6.53,0,0,1,.428,2.321Zm0,0" fill="#ffdaaa"/>
      <path id="Trazado_629634" data-name="Trazado 629634" d="M0,0V40.833H27.558a5.71,5.71,0,0,1,.209,1.5v.129H26.133V49H44.1V42.467H42.455l.005-.653a2.457,2.457,0,0,1,.215-.98H49V0ZM42.467,47.367h-14.7V44.1h14.7ZM29.4,42.467v-.129a7.37,7.37,0,0,0-.849-3.43L27.7,37.292,24.89,29.615a.827.827,0,0,0-.06-.128.817.817,0,0,1,.916-1.2.806.806,0,0,1,.495.38l1.744,3.022a1.633,1.633,0,0,0,3.048-.817V19.6a.817.817,0,0,1,1.633,0v7.35a.817.817,0,0,0,.749.817l6.8.567a2.464,2.464,0,0,1,2.247,2.44v6.621a2.442,2.442,0,0,1-.408,1.359l-.543.817a4.073,4.073,0,0,0-.685,2.236l-.008.661ZM47.367,39.2H43.674a4.072,4.072,0,0,0,.426-1.806V30.773a4.108,4.108,0,0,0-3.744-4.068L34.3,26.2V19.6a2.45,2.45,0,0,0-4.9,0V30.877l-1.743-3.022a2.45,2.45,0,0,0-4.28,2.381L26.183,37.9a.806.806,0,0,0,.045.1l.63,1.2H1.633V8.167H47.367ZM1.633,6.533v-4.9H47.367v4.9Zm0,0"/>
      <path id="Trazado_629635" data-name="Trazado 629635" d="M3.267,3.267H4.9V4.9H3.267Zm0,0"/>
      <path id="Trazado_629636" data-name="Trazado 629636" d="M6.533,3.267H8.167V4.9H6.533Zm0,0"/>
      <path id="Trazado_629637" data-name="Trazado 629637" d="M9.8,3.267h1.633V4.9H9.8Zm0,0"/>
      <path id="Trazado_629638" data-name="Trazado 629638" d="M14.7,14.8l2.2-1.878-1.062-1.241-1.135.969V11.433H4.9v9.8h9.8ZM6.533,19.6V13.067h6.533v.98l-3.26,2.792L7.915,14.97,6.772,16.132l2.96,2.925L13.067,16.2v3.4Zm0,0"/>
      <path id="Trazado_629639" data-name="Trazado 629639" d="M14.7,27.868l2.2-1.878-1.062-1.241-1.135.969V24.5H4.9v9.8h9.8Zm-8.167,4.8V26.133h6.533v.98l-3.26,2.792L7.915,28.036,6.772,29.2l2.96,2.925,3.335-2.856v3.4Zm0,0"/>
      <path id="Trazado_629640" data-name="Trazado 629640" d="M24.5,11.433h3.267v1.633H24.5Zm0,0"/>
      <path id="Trazado_629641" data-name="Trazado 629641" d="M29.4,11.433H44.1v1.633H29.4Zm0,0"/>
      <path id="Trazado_629642" data-name="Trazado 629642" d="M24.5,14.7H44.1v1.633H24.5Zm0,0"/>
      <path id="Trazado_629643" data-name="Trazado 629643" d="M24.5,18.783h3.267v1.633H24.5Zm0,0"/>
      <path id="Trazado_629644" data-name="Trazado 629644" d="M35.933,18.783H44.1v1.633H35.933Zm0,0"/>
      <path id="Trazado_629645" data-name="Trazado 629645" d="M35.933,22.05H44.1v1.633H35.933Zm0,0"/>
      <path id="Trazado_629646" data-name="Trazado 629646" d="M24.5,22.05h3.267v1.633H24.5Zm0,0"/>
    </g>
  </g>
</svg>
