<svg xmlns="http://www.w3.org/2000/svg" xmlns:xlink="http://www.w3.org/1999/xlink" width="49" height="58" viewBox="0 0 49 58">
  <defs>
    <clipPath id="clip-path">
      <rect id="Rectángulo_306512" data-name="Rectángulo 306512" width="49" height="58" transform="translate(828 4602)" fill="#583cb6" stroke="#707070" stroke-width="1"/>
    </clipPath>
  </defs>
  <g id="Enmascarar_grupo_878398" data-name="Enmascarar grupo 878398" transform="translate(-828 -4602)" clip-path="url(#clip-path)">
    <g id="investigacion" transform="translate(828 4606.5)">
      <path id="Trazado_629691" data-name="Trazado 629691" d="M29.163,19.837A11.061,11.061,0,0,0,12.424,34.2L9.7,36.932,12.068,39.3l2.727-2.727A11.062,11.062,0,0,0,29.163,19.837Zm-.45,10.669A7.9,7.9,0,1,1,18.493,20.3a7.752,7.752,0,0,1,2.845-.538,7.9,7.9,0,0,1,7.374,10.748Zm0,0" fill="#ccd1d9"/>
      <path id="Trazado_629692" data-name="Trazado 629692" d="M10.274,42.677,4.742,48.21A3.94,3.94,0,0,1,.79,44.258l5.532-5.532Zm0,0" fill="#cf9e76"/>
      <path id="Trazado_629693" data-name="Trazado 629693" d="M26.926,22.074l-4.813,4.813a13.4,13.4,0,0,1-3.62-6.591,7.752,7.752,0,0,1,2.845-.538,7.879,7.879,0,0,1,5.587,2.316Zm0,0" fill="#ff826e"/>
      <path id="Trazado_629694" data-name="Trazado 629694" d="M31.613,3.952V17.387l-2.45,2.45a11.082,11.082,0,0,0-10.985-2.782,13.445,13.445,0,0,1,13.435-13.1Zm0,0" fill="#ff826e"/>
      <path id="Trazado_629695" data-name="Trazado 629695" d="M29.242,27.661a7.918,7.918,0,0,1-.529,2.845,13.42,13.42,0,0,1-6.6-3.62l4.813-4.813a7.879,7.879,0,0,1,2.316,5.587Zm0,0" fill="#b4dd7f"/>
      <path id="Trazado_629696" data-name="Trazado 629696" d="M31.613,17.387H45.048a13.445,13.445,0,0,1-13.1,13.435,11.082,11.082,0,0,0-2.782-10.985Zm0,0" fill="#b4dd7f"/>
      <path id="Trazado_629697" data-name="Trazado 629697" d="M46.629,7.9A13.435,13.435,0,0,0,34.774.79V14.226H48.21A13.3,13.3,0,0,0,46.629,7.9Zm0,0" fill="#fcd770"/>
      <path id="Trazado_629698" data-name="Trazado 629698" d="M9.7,36.932l3.161,3.161-2.584,2.584L6.323,38.726l2.584-2.584Zm0,0" fill="#ffeaa7"/>
      <path id="Trazado_629699" data-name="Trazado 629699" d="M28.713,30.507A7.9,7.9,0,1,1,18.494,20.3,13.451,13.451,0,0,0,28.713,30.507Zm0,0" fill="#69d6f4"/>
      <g id="Grupo_956609" data-name="Grupo 956609">
        <path id="Trazado_629700" data-name="Trazado 629700" d="M21.339,18.968a8.694,8.694,0,1,0,8.694,8.694A8.7,8.7,0,0,0,21.339,18.968Zm4.434,3.142-3.64,3.64a12.6,12.6,0,0,1-2.689-4.937,7.038,7.038,0,0,1,6.33,1.3ZM21.339,34.774A7.111,7.111,0,0,1,17.963,21.4,14.264,14.264,0,0,0,27.6,31.037a7.117,7.117,0,0,1-6.259,3.737Zm6.848-5.218a12.624,12.624,0,0,1-4.937-2.689l3.64-3.64a7.031,7.031,0,0,1,1.3,6.33Zm0,0"/>
        <path id="Trazado_629701" data-name="Trazado 629701" d="M4.742,45.048a.79.79,0,1,1-.79-.79A.79.79,0,0,1,4.742,45.048Zm0,0"/>
        <path id="Trazado_629702" data-name="Trazado 629702" d="M32.4,3.161h-.79a14.3,14.3,0,0,0-14.18,13.32A11.821,11.821,0,0,0,11.4,34.108l-1.7,1.7-.79-.79L0,43.93v.328A4.747,4.747,0,0,0,4.742,49h.327l8.91-8.91-.79-.79,1.7-1.7a11.821,11.821,0,0,0,17.627-6.029,14.306,14.306,0,0,0,13.32-14.181V16.6H32.4ZM30.823,4.767V17.06l-1.691,1.691a11.766,11.766,0,0,0-10.085-2.717A12.737,12.737,0,0,1,30.823,4.767ZM4.43,47.4A3.166,3.166,0,0,1,1.6,44.57l4.727-4.727,2.834,2.834Zm5.844-5.844L7.441,38.726l1.47-1.47,2.834,2.834Zm1.8-3.378-1.253-1.253,1.545-1.545a12.011,12.011,0,0,0,1.253,1.253Zm9.267-.246A10.274,10.274,0,1,1,31.613,27.661,10.286,10.286,0,0,1,21.339,37.935ZM44.233,18.177A12.736,12.736,0,0,1,32.967,29.952,11.765,11.765,0,0,0,30.25,19.868l1.691-1.691Zm0,0"/>
        <path id="Trazado_629703" data-name="Trazado 629703" d="M23.71,9.484h5.532v1.581H23.71Zm0,0"/>
        <path id="Trazado_629704" data-name="Trazado 629704" d="M23.71,12.645h5.532v1.581H23.71Zm0,0"/>
        <path id="Trazado_629705" data-name="Trazado 629705" d="M34.774,19.758h5.532v1.581H34.774Zm0,0"/>
        <path id="Trazado_629706" data-name="Trazado 629706" d="M34.774,22.919h5.532V24.5H34.774Zm0,0"/>
        <path id="Trazado_629707" data-name="Trazado 629707" d="M34.774,0h-.79V15.016H49v-.79A14.242,14.242,0,0,0,34.774,0ZM45.639,7.776l-5.66,5.66h-3.3l7.563-7.563A12.682,12.682,0,0,1,45.639,7.776ZM35.565,9.021l5.66-5.66a12.642,12.642,0,0,1,1.9,1.393l-7.563,7.563Zm4.177-6.412L35.565,6.786V1.6a12.542,12.542,0,0,1,4.177,1Zm2.473,10.827,4.177-4.177a12.547,12.547,0,0,1,1,4.177Zm0,0"/>
        <path id="Trazado_629708" data-name="Trazado 629708" d="M17.387,27.661H15.806a5.538,5.538,0,0,0,5.532,5.532V31.613A3.956,3.956,0,0,1,17.387,27.661Zm0,0"/>
      </g>
    </g>
  </g>
</svg>
