<svg xmlns="http://www.w3.org/2000/svg" xmlns:xlink="http://www.w3.org/1999/xlink" width="49" height="58" viewBox="0 0 49 58">
  <defs>
    <clipPath id="clip-path">
      <rect id="Rect치ngulo_306515" data-name="Rect치ngulo 306515" width="49" height="58" transform="translate(828 4704)" fill="#583cb6" stroke="#707070" stroke-width="1"/>
    </clipPath>
  </defs>
  <g id="Enmascarar_grupo_878399" data-name="Enmascarar grupo 878399" transform="translate(-828 -4704)" clip-path="url(#clip-path)">
    <g id="definiendo" transform="translate(827.209 4707.709)">
      <rect id="Rect치ngulo_306884" data-name="Rect치ngulo 306884" width="23.71" height="33.194" rx="0.79" transform="translate(25.29 1.581)" fill="#82ace6"/>
      <path id="Trazado_629709" data-name="Trazado 629709" d="M4.934,11.663V8.31l3.353,3.353v3.353H4.934L1.581,11.663Z" fill="#405d80"/>
      <path id="Trazado_629710" data-name="Trazado 629710" d="M17.56,12.949A12.557,12.557,0,0,0,6.42,23.974a12.166,12.166,0,0,0,4.549,10.757,4.716,4.716,0,0,1,1.711,3.695v5.413A5.245,5.245,0,0,0,18,49h2a5.245,5.245,0,0,0,5.324-5.161V38.425a4.833,4.833,0,0,1,1.781-3.751,12.181,12.181,0,0,0,4.542-9.461A12.539,12.539,0,0,0,17.56,12.949Z" fill="#ffe38f"/>
      <path id="Trazado_629711" data-name="Trazado 629711" d="M12.68,42.677v1.161A5.245,5.245,0,0,0,18,49h2a5.245,5.245,0,0,0,5.324-5.161V42.677Z" fill="#495766"/>
      <circle id="Elipse_7717" data-name="Elipse 7717" cx="8.694" cy="8.694" r="8.694" transform="translate(10.274 16.597)" fill="#d9736b"/>
      <circle id="Elipse_7718" data-name="Elipse 7718" cx="5.532" cy="5.532" r="5.532" transform="translate(13.436 19.758)" fill="#e6e6e6"/>
      <circle id="Elipse_7719" data-name="Elipse 7719" cx="2.371" cy="2.371" r="2.371" transform="translate(16.597 22.919)" fill="#d9736b"/>
      <path id="Trazado_629712" data-name="Trazado 629712" d="M18.944,15.806A9.453,9.453,0,0,0,13.837,17.3l.852,1.331a7.9,7.9,0,1,1-2.433,2.448l-1.337-.844a9.485,9.485,0,1,0,8.024-4.427Z"/>
      <path id="Trazado_629713" data-name="Trazado 629713" d="M18.944,31.613a6.323,6.323,0,1,0-2.9-11.943l.726,1.4a4.691,4.691,0,0,1,2.174-.526A4.742,4.742,0,1,1,14.2,25.29a4.687,4.687,0,0,1,.526-2.173l-1.4-.726a6.324,6.324,0,0,0,5.619,9.222Z"/>
      <path id="Trazado_629714" data-name="Trazado 629714" d="M18.944,28.452a3.161,3.161,0,0,0,0-6.323V23.71a1.581,1.581,0,1,1-1.581,1.581H15.783a3.165,3.165,0,0,0,3.161,3.161Z"/>
      <path id="Trazado_629715" data-name="Trazado 629715" d="M48.21.79H26.081A1.582,1.582,0,0,0,24.5,2.371v9.484h1.581V2.371H48.21V33.984H30.032v1.581H48.21a1.582,1.582,0,0,0,1.581-1.581V2.371A1.582,1.582,0,0,0,48.21.79Z"/>
      <path id="Trazado_629716" data-name="Trazado 629716" d="M29.242,6.323h1.581V7.9H29.242Z"/>
      <path id="Trazado_629717" data-name="Trazado 629717" d="M32.4,6.323H45.839V7.9H32.4Z"/>
      <path id="Trazado_629718" data-name="Trazado 629718" d="M29.242,11.855h1.581v1.581H29.242Z"/>
      <path id="Trazado_629719" data-name="Trazado 629719" d="M32.4,11.855H45.839v1.581H32.4Z"/>
      <path id="Trazado_629720" data-name="Trazado 629720" d="M32.4,17.387H45.839v1.581H32.4Z"/>
      <path id="Trazado_629721" data-name="Trazado 629721" d="M33.984,22.919H45.839V24.5H33.984Z"/>
      <path id="Trazado_629722" data-name="Trazado 629722" d="M33.984,28.452H45.839v1.581H33.984Z"/>
      <path id="Trazado_629723" data-name="Trazado 629723" d="M28.089,15.539a13.69,13.69,0,0,0-10.613-3.376,13.456,13.456,0,0,0-7.514,3.348l-.884-.848v-3a.79.79,0,0,0-.232-.559L5.493,7.751a.79.79,0,0,0-1.349.559v2.563H1.581a.79.79,0,0,0-.559,1.349l3.353,3.353a.79.79,0,0,0,.559.232H7.985l.858.823a12.9,12.9,0,0,0,1.631,18.717,3.906,3.906,0,0,1,1.416,3.079v5.413A6.042,6.042,0,0,0,18,49.79h2a6.042,6.042,0,0,0,6.115-5.952V38.425a4.033,4.033,0,0,1,1.49-3.139,12.924,12.924,0,0,0,.483-19.748Zm-24.6-3.086H4.934a.79.79,0,0,0,.79-.79V10.218L7.5,11.99v2.236H5.261ZM13.47,43.839v-.371H24.535v.371a4.206,4.206,0,0,1-.181,1.21h-10.7a4.206,4.206,0,0,1-.18-1.21ZM20,48.21H18a4.594,4.594,0,0,1-3.486-1.581h8.969A4.594,4.594,0,0,1,20,48.21Zm6.606-14.148a5.608,5.608,0,0,0-2.072,4.363v3.462H13.47V38.425a5.478,5.478,0,0,0-2.006-4.311A11.327,11.327,0,0,1,9.981,17.721l8.413,8.071,1.094-1.141L11.1,16.606a11.883,11.883,0,0,1,6.543-2.871,12.119,12.119,0,0,1,9.388,2.981,11.344,11.344,0,0,1-.426,17.347Z"/>
    </g>
  </g>
</svg>
