<svg xmlns="http://www.w3.org/2000/svg" xmlns:xlink="http://www.w3.org/1999/xlink" width="124" height="124" viewBox="0 0 124 124">
  <defs>
    <clipPath id="clip-path">
      <rect id="Rect치ngulo_306887" data-name="Rect치ngulo 306887" width="75" height="75" transform="translate(1074 4764.58)" fill="#583cb6" stroke="#707070" stroke-width="1"/>
    </clipPath>
  </defs>
  <g id="Grupo_956652" data-name="Grupo 956652" transform="translate(-1049 -4740)">
    <circle id="Elipse_7678" data-name="Elipse 7678" cx="50.5" cy="50.5" r="50.5" transform="translate(1061 4752)" fill="#faebcd"/>
    <rect id="Rect치ngulo_305813" data-name="Rect치ngulo 305813" width="124" height="124" transform="translate(1049 4740)" fill="none"/>
    <g id="Enmascarar_grupo_878405" data-name="Enmascarar grupo 878405" clip-path="url(#clip-path)">
      <g id="analitica" transform="translate(1074 4764.58)">
        <g id="Grupo_956661" data-name="Grupo 956661">
          <g id="Grupo_956660" data-name="Grupo 956660">
            <path id="Trazado_629798" data-name="Trazado 629798" d="M71.465,19.193a2.471,2.471,0,0,0-2.471-2.471H6.006a2.471,2.471,0,0,0-2.471,2.471v30.85l3.158,2.93H68.307l3.159-2.93Z" fill="#2b3890"/>
            <path id="Trazado_629799" data-name="Trazado 629799" d="M68.994,16.721H66.486a2.471,2.471,0,0,1,2.471,2.471V52.37l2.508-2.327V19.193a2.471,2.471,0,0,0-2.471-2.471Z" fill="#242e7a"/>
          </g>
          <path id="Trazado_629800" data-name="Trazado 629800" d="M71.465,50.043v8.612a2.472,2.472,0,0,1-2.471,2.473H6.006a2.472,2.472,0,0,1-2.471-2.473V50.043Z" fill="#dae7ef"/>
          <path id="Trazado_629801" data-name="Trazado 629801" d="M68.957,50.043v8.612a2.472,2.472,0,0,1-2.471,2.473h2.508a2.472,2.472,0,0,0,2.471-2.473V50.043Z" fill="#c1d5e4"/>
        </g>
        <g id="Grupo_956662" data-name="Grupo 956662">
          <path id="Trazado_629802" data-name="Trazado 629802" d="M7.362,50.044V20.977a.429.429,0,0,1,.429-.429H67.209a.429.429,0,0,1,.429.429V50.044H7.362Z" fill="#b1e4f9"/>
          <path id="Trazado_629803" data-name="Trazado 629803" d="M64.96,20.548v29.5h2.678V20.977a.429.429,0,0,0-.429-.429Z" fill="#90d8f9"/>
        </g>
        <path id="Trazado_629804" data-name="Trazado 629804" d="M51,73.9H24a.455.455,0,0,1-.428-.611l.617-1.691a2.262,2.262,0,0,1,2.177-1.323H48.637A2.262,2.262,0,0,1,50.814,71.6l.617,1.691A.455.455,0,0,1,51,73.9Z" fill="#dae7ef"/>
        <path id="Trazado_629805" data-name="Trazado 629805" d="M43.676,61.128H31.324a7.732,7.732,0,0,1-3.1,9.148H46.778A7.732,7.732,0,0,1,43.676,61.128Z" fill="#c1d5e4"/>
        <path id="Trazado_629806" data-name="Trazado 629806" d="M31.324,61.128a9.13,9.13,0,0,1,.445,2.625H43.231a9.125,9.125,0,0,1,.445-2.625Z" fill="#98b9d3"/>
        <g id="Grupo_956666" data-name="Grupo 956666">
          <path id="Trazado_629807" data-name="Trazado 629807" d="M41.67,6.183H13.742V2.994a1.9,1.9,0,0,1,1.9-1.9H36.617a3.8,3.8,0,0,1,3.327,1.962Z" fill="#dd5ca2"/>
          <path id="Trazado_629808" data-name="Trazado 629808" d="M35.46,6.183H13.742V2.994a1.9,1.9,0,0,1,1.9-1.9H30.407a3.8,3.8,0,0,1,3.327,1.962Z" fill="#eab14d"/>
          <path id="Trazado_629809" data-name="Trazado 629809" d="M59.6,45.028H15.4a1.66,1.66,0,0,1-1.66-1.66V6.183H59.6a1.66,1.66,0,0,1,1.66,1.66V43.368A1.66,1.66,0,0,1,59.6,45.028Z" fill="#f9f6f6"/>
          <path id="Trazado_629810" data-name="Trazado 629810" d="M59.6,6.183H56.891a1.66,1.66,0,0,1,1.66,1.66V43.368a1.66,1.66,0,0,1-1.66,1.66H59.6a1.66,1.66,0,0,0,1.66-1.66V7.843a1.66,1.66,0,0,0-1.66-1.66Z" fill="#dae7ef"/>
          <path id="Trazado_629811" data-name="Trazado 629811" d="M29.25,6.183H13.742V2.994a1.9,1.9,0,0,1,1.9-1.9H24.2a3.8,3.8,0,0,1,3.327,1.962Z" fill="#80b4fb"/>
          <path id="Trazado_629812" data-name="Trazado 629812" d="M25.137,40.316H20.768a.657.657,0,0,1-.657-.657V29.192a.657.657,0,0,1,.657-.657h4.369a.657.657,0,0,1,.657.657V39.659A.657.657,0,0,1,25.137,40.316Z" fill="#86f1a7"/>
          <path id="Trazado_629813" data-name="Trazado 629813" d="M25.137,28.535H22.3a.657.657,0,0,1,.657.657V39.659a.657.657,0,0,1-.657.657h2.841a.657.657,0,0,0,.657-.657V29.192a.657.657,0,0,0-.657-.657Z" fill="#80e29d"/>
          <g id="Grupo_956663" data-name="Grupo 956663">
            <path id="Trazado_629814" data-name="Trazado 629814" d="M34.835,40.316H30.466a.657.657,0,0,1-.657-.657V23.332a.657.657,0,0,1,.657-.657h4.369a.657.657,0,0,1,.657.657V39.659A.657.657,0,0,1,34.835,40.316Z" fill="#80b4fb"/>
            <path id="Trazado_629815" data-name="Trazado 629815" d="M34.835,22.676H31.994a.657.657,0,0,1,.657.657V39.659a.657.657,0,0,1-.657.657h2.841a.657.657,0,0,0,.657-.657V23.332A.657.657,0,0,0,34.835,22.676Z" fill="#61a2f9"/>
          </g>
          <g id="Grupo_956664" data-name="Grupo 956664">
            <path id="Trazado_629816" data-name="Trazado 629816" d="M44.533,40.316H40.165a.657.657,0,0,1-.657-.657v-9A.657.657,0,0,1,40.165,30h4.369a.657.657,0,0,1,.657.657v9A.657.657,0,0,1,44.533,40.316Z" fill="#ffe07d"/>
            <path id="Trazado_629817" data-name="Trazado 629817" d="M44.533,30H41.692a.657.657,0,0,1,.657.657v9a.657.657,0,0,1-.657.657h2.841a.657.657,0,0,0,.657-.657v-9A.657.657,0,0,0,44.533,30Z" fill="#ffd064"/>
          </g>
          <g id="Grupo_956665" data-name="Grupo 956665">
            <path id="Trazado_629818" data-name="Trazado 629818" d="M54.231,40.316H49.863a.657.657,0,0,1-.657-.657V19.67a.657.657,0,0,1,.657-.657h4.369a.657.657,0,0,1,.657.657V39.659A.657.657,0,0,1,54.231,40.316Z" fill="#dd5ca2"/>
            <path id="Trazado_629819" data-name="Trazado 629819" d="M54.231,19.014H51.39a.657.657,0,0,1,.657.657V39.659a.657.657,0,0,1-.657.657h2.841a.657.657,0,0,0,.657-.657V19.67A.657.657,0,0,0,54.231,19.014Z" fill="#da4093"/>
          </g>
        </g>
        <g id="Grupo_956667" data-name="Grupo 956667">
          <path id="Trazado_629820" data-name="Trazado 629820" d="M36.222,54.487a1.1,1.1,0,0,0,0,2.2h2.555a1.1,1.1,0,1,0,0-2.2Z"/>
          <path id="Trazado_629821" data-name="Trazado 629821" d="M68.994,15.623H62.357V7.843A2.762,2.762,0,0,0,59.6,5.084H55.4a1.1,1.1,0,0,0,0,2.2h4.2a.562.562,0,0,1,.561.561V43.368a.562.562,0,0,1-.561.561H15.4a.562.562,0,0,1-.561-.561V7.281H51a1.1,1.1,0,0,0,0-2.2H42.318L40.905,2.529A4.9,4.9,0,0,0,36.617,0H15.638a3,3,0,0,0-2.994,2.994V15.623H6.006a3.574,3.574,0,0,0-3.57,3.57V58.655a3.575,3.575,0,0,0,3.57,3.571H30.482a6.547,6.547,0,0,1-2.628,6.951H26.363a3.341,3.341,0,0,0-3.209,2.045l-.617,1.691A1.554,1.554,0,0,0,24,75H51a1.554,1.554,0,0,0,1.46-2.087l-.617-1.691a3.342,3.342,0,0,0-3.209-2.045H47.145a6.546,6.546,0,0,1-2.628-6.951H50.35a1.1,1.1,0,0,0,0-2.2H6.006a1.375,1.375,0,0,1-1.373-1.374V51.142H70.367v7.514a1.375,1.375,0,0,1-1.373,1.374H54.743a1.1,1.1,0,0,0,0,2.2H68.994a3.575,3.575,0,0,0,3.57-3.571V19.193a3.574,3.574,0,0,0-3.57-3.57ZM49.782,71.976l.3.827H24.916l.3-.827a1.2,1.2,0,0,1,1.145-.6H48.637a1.2,1.2,0,0,1,1.145.6Zm-18.8-2.8a8.411,8.411,0,0,0,1.74-6.951h9.55a8.409,8.409,0,0,0,1.74,6.951ZM15.4,46.127H59.6a2.762,2.762,0,0,0,2.759-2.759V21.647H66.54v27.3H8.46v-27.3h4.183V43.368A2.762,2.762,0,0,0,15.4,46.127ZM38.982,3.592l.825,1.492h-3.7c-1.464-2.636-1.4-2.562-1.615-2.887h2.124a2.7,2.7,0,0,1,2.365,1.4Zm-6.21,0L33.6,5.084H29.9C28.434,2.448,28.5,2.523,28.283,2.2h2.124a2.7,2.7,0,0,1,2.365,1.4ZM24.2,2.2a2.7,2.7,0,0,1,2.365,1.395l.825,1.492H14.841V2.994a.8.8,0,0,1,.8-.8Zm-19.565,17A1.374,1.374,0,0,1,6.006,17.82h6.638v1.629H7.362a1.1,1.1,0,0,0-1.1,1.1v28.4H4.633Zm64.1,29.752v-28.4a1.1,1.1,0,0,0-1.1-1.1H62.357V17.82h6.638a1.374,1.374,0,0,1,1.373,1.373V48.944h-1.63Z"/>
          <path id="Trazado_629822" data-name="Trazado 629822" d="M30.467,21.577a1.757,1.757,0,0,0-1.755,1.755V39.659a1.757,1.757,0,0,0,1.755,1.755h4.369a1.757,1.757,0,0,0,1.755-1.755V23.332a1.757,1.757,0,0,0-1.755-1.755Zm3.927,17.64H30.908V23.774h3.485Z"/>
          <path id="Trazado_629823" data-name="Trazado 629823" d="M40.165,28.9a1.757,1.757,0,0,0-1.755,1.755v9a1.757,1.757,0,0,0,1.755,1.755h4.369a1.757,1.757,0,0,0,1.755-1.755v-9A1.757,1.757,0,0,0,44.533,28.9Zm3.927,10.316H40.607V31.1h3.485Z"/>
          <path id="Trazado_629824" data-name="Trazado 629824" d="M48.108,19.67V39.659a1.757,1.757,0,0,0,1.755,1.755h4.369a1.757,1.757,0,0,0,1.755-1.755V19.67a1.757,1.757,0,0,0-1.755-1.755H49.863A1.757,1.757,0,0,0,48.108,19.67Zm2.2.442H53.79v19.1H50.3Z"/>
          <path id="Trazado_629825" data-name="Trazado 629825" d="M52.047,7.765a2.622,2.622,0,0,0-2.51,3.387l-5.926,5.27a2.616,2.616,0,0,0-3.5.935L35.223,16.2a2.623,2.623,0,0,0-5.176.831L24.2,20.62a2.625,2.625,0,1,0,1.319,1.768L31.2,18.9a2.616,2.616,0,0,0,3.518-.566l5.149,1.217A2.623,2.623,0,0,0,44.921,18.2L51,12.792a2.624,2.624,0,1,0,1.049-5.028ZM22.953,23.355a.427.427,0,1,1,.427-.427A.428.428,0,0,1,22.953,23.355Zm9.7-6.206a.427.427,0,1,1,.427-.427A.428.428,0,0,1,32.651,17.148Zm9.7,2a.427.427,0,1,1,.427-.427A.428.428,0,0,1,42.349,19.148Zm9.7-8.332a.427.427,0,1,1,.427-.427A.428.428,0,0,1,52.047,10.816Z"/>
          <path id="Trazado_629826" data-name="Trazado 629826" d="M20.112,36.882a1.1,1.1,0,0,0-1.1,1.1v1.678a1.757,1.757,0,0,0,1.755,1.755h4.369a1.757,1.757,0,0,0,1.755-1.755V29.192a1.757,1.757,0,0,0-1.755-1.755H20.768a1.757,1.757,0,0,0-1.755,1.755v4.4a1.1,1.1,0,0,0,2.2,0V29.634H24.7v9.583H21.21V37.981a1.1,1.1,0,0,0-1.1-1.1Z"/>
        </g>
      </g>
    </g>
  </g>
</svg>
