<svg xmlns="http://www.w3.org/2000/svg" xmlns:xlink="http://www.w3.org/1999/xlink" width="124" height="124" viewBox="0 0 124 124">
  <defs>
    <clipPath id="clip-path">
      <rect id="Rect치ngulo_306887" data-name="Rect치ngulo 306887" width="75" height="75" transform="translate(1074 4764.58)" fill="#583cb6" stroke="#707070" stroke-width="1"/>
    </clipPath>
  </defs>
  <g id="Grupo_956656" data-name="Grupo 956656" transform="translate(-1049 -4740)">
    <circle id="Elipse_7678" data-name="Elipse 7678" cx="50.5" cy="50.5" r="50.5" transform="translate(1061 4752)" fill="#faebcd"/>
    <rect id="Rect치ngulo_305813" data-name="Rect치ngulo 305813" width="124" height="124" transform="translate(1049 4740)" fill="none"/>
    <g id="Enmascarar_grupo_878406" data-name="Enmascarar grupo 878406" clip-path="url(#clip-path)">
      <g id="analitica_1_" data-name="analitica (1)" transform="translate(1074 4764.58)">
        <g id="Grupo_956699" data-name="Grupo 956699">
          <g id="XMLID_20_">
            <g id="Grupo_956669" data-name="Grupo 956669">
              <g id="Grupo_956668" data-name="Grupo 956668">
                <path id="Trazado_629827" data-name="Trazado 629827" d="M21,41.075H14.026a1.21,1.21,0,0,1-1.208-1.208V32.616a1.21,1.21,0,0,1,1.208-1.208h6.905A19.282,19.282,0,0,0,21,41.075Z" fill="#f3d064"/>
              </g>
            </g>
          </g>
          <path id="Trazado_629828" data-name="Trazado 629828" d="M15.839,41.075H21a19.282,19.282,0,0,1-.067-9.668H15.839A22.306,22.306,0,0,0,15.839,41.075Z" fill="#edbd41"/>
          <g id="Grupo_956678" data-name="Grupo 956678">
            <g id="XMLID_24_">
              <g id="Grupo_956671" data-name="Grupo 956671">
                <g id="Grupo_956670" data-name="Grupo 956670">
                  <path id="Trazado_629829" data-name="Trazado 629829" d="M68.188,46.58v2.467a.524.524,0,0,1-.524.524H49.4a19.227,19.227,0,0,0,2.742-3.516H67.664A.524.524,0,0,1,68.188,46.58Z" fill="#7dbfec"/>
                </g>
              </g>
            </g>
            <g id="XMLID_23_">
              <g id="Grupo_956673" data-name="Grupo 956673">
                <g id="Grupo_956672" data-name="Grupo 956672">
                  <path id="Trazado_629830" data-name="Trazado 629830" d="M68.188,38.817v2.467a.524.524,0,0,1-.524.524H54.054a19.1,19.1,0,0,0,.738-3.516H67.664A.524.524,0,0,1,68.188,38.817Z" fill="#c5d65c"/>
                </g>
              </g>
            </g>
            <g id="XMLID_22_">
              <g id="Grupo_956675" data-name="Grupo 956675">
                <g id="Grupo_956674" data-name="Grupo 956674">
                  <path id="Trazado_629831" data-name="Trazado 629831" d="M68.188,31.053V33.52a.524.524,0,0,1-.524.524H54.806a19.212,19.212,0,0,0-.713-3.516H67.664A.524.524,0,0,1,68.188,31.053Z" fill="#f3d064"/>
                </g>
              </g>
            </g>
            <g id="XMLID_21_">
              <g id="Grupo_956677" data-name="Grupo 956677">
                <g id="Grupo_956676" data-name="Grupo 956676">
                  <path id="Trazado_629832" data-name="Trazado 629832" d="M68.188,23.289v2.467a.524.524,0,0,1-.524.524H52.214a19.124,19.124,0,0,0-2.7-3.516H67.664A.524.524,0,0,1,68.188,23.289Z" fill="#ff395e"/>
                </g>
              </g>
            </g>
          </g>
          <path id="Trazado_629833" data-name="Trazado 629833" d="M55.269,22.765H49.518a19.124,19.124,0,0,1,2.7,3.516h5.244A22.147,22.147,0,0,0,55.269,22.765Z" fill="#b12e65"/>
          <path id="Trazado_629834" data-name="Trazado 629834" d="M59.059,30.529H54.092a19.211,19.211,0,0,1,.713,3.516h4.886A22.342,22.342,0,0,0,59.059,30.529Z" fill="#edbd41"/>
          <path id="Trazado_629835" data-name="Trazado 629835" d="M54.792,38.292a19.1,19.1,0,0,1-.738,3.516H59.1a22.36,22.36,0,0,0,.609-3.516Z" fill="#dfde48"/>
          <path id="Trazado_629836" data-name="Trazado 629836" d="M57.531,46.056H52.143A19.227,19.227,0,0,1,49.4,49.571H55.38A22.164,22.164,0,0,0,57.531,46.056Z" fill="#61acc8"/>
          <g id="XMLID_27_">
            <g id="Grupo_956680" data-name="Grupo 956680">
              <g id="Grupo_956679" data-name="Grupo 956679">
                <path id="Trazado_629837" data-name="Trazado 629837" d="M22.88,47.8,26.2,50.7l-4.87,4.868-3.116-3.1Z" fill="#e2e2e3"/>
              </g>
            </g>
          </g>
          <g id="XMLID_14_">
            <g id="Grupo_956682" data-name="Grupo 956682">
              <g id="Grupo_956681" data-name="Grupo 956681">
                <circle id="Elipse_7724" data-name="Elipse 7724" cx="19.189" cy="19.189" r="19.189" transform="translate(18.311 17.052)" fill="#dcdddd"/>
              </g>
            </g>
          </g>
          <path id="Trazado_629838" data-name="Trazado 629838" d="M40.667,49.81a19.2,19.2,0,0,1,5.2-30.842,19.192,19.192,0,1,0,0,34.546A19.161,19.161,0,0,1,40.667,49.81Z" fill="#bececd"/>
          <g id="XMLID_15_">
            <g id="Grupo_956684" data-name="Grupo 956684">
              <g id="Grupo_956683" data-name="Grupo 956683">
                <path id="Trazado_629839" data-name="Trazado 629839" d="M48.406,25.129a15.528,15.528,0,1,1-21.959,0A15.545,15.545,0,0,1,48.406,25.129Z" fill="#8acaeb"/>
              </g>
            </g>
          </g>
          <path id="Trazado_629840" data-name="Trazado 629840" d="M48.406,25.129a15.53,15.53,0,0,0-23.814,2.238A15.528,15.528,0,0,1,46.36,48.81a15.531,15.531,0,0,0,2.046-23.681Z" fill="#8bb1ea"/>
          <g id="XMLID_28_">
            <g id="Grupo_956686" data-name="Grupo 956686">
              <g id="Grupo_956685" data-name="Grupo 956685">
                <path id="Trazado_629841" data-name="Trazado 629841" d="M21.7,54.914a1.53,1.53,0,0,1,0,2.164L8.6,70.172a1.781,1.781,0,0,1-2.517,0L3.631,67.715a1.776,1.776,0,0,1,0-2.515L16.724,52.106a1.53,1.53,0,0,1,2.164,0Z" fill="#717483"/>
              </g>
            </g>
          </g>
          <path id="Trazado_629842" data-name="Trazado 629842" d="M6.166,70.142a1.776,1.776,0,0,1,0-2.515L19.258,54.533a1.53,1.53,0,0,1,1.775-.282l-2.146-2.146a1.53,1.53,0,0,0-2.164,0L3.631,65.2a1.776,1.776,0,0,0,0,2.515l2.455,2.457a1.777,1.777,0,0,0,.419.31Z" fill="#4c5574"/>
          <g id="XMLID_16_">
            <g id="Grupo_956688" data-name="Grupo 956688">
              <g id="Grupo_956687" data-name="Grupo 956687">
                <path id="Trazado_629843" data-name="Trazado 629843" d="M51.918,30.382H37.509a.961.961,0,0,1-.961-.961V25.777a.961.961,0,0,1,.961-.961H48.142c.11.1.217.207.324.313A15.45,15.45,0,0,1,51.918,30.382Z" fill="#ff395e"/>
              </g>
            </g>
          </g>
          <path id="Trazado_629844" data-name="Trazado 629844" d="M48.406,25.129q-.16-.16-.323-.313H37.509a.954.954,0,0,0-.484.132,15.408,15.408,0,0,1,8.634,5.434h6.2A15.436,15.436,0,0,0,48.406,25.129Z" fill="#b12e65"/>
          <g id="XMLID_17_">
            <g id="Grupo_956690" data-name="Grupo 956690">
              <g id="Grupo_956689" data-name="Grupo 956689">
                <path id="Trazado_629845" data-name="Trazado 629845" d="M52.753,33.312a15.655,15.655,0,0,1,0,5.566H37.509a.961.961,0,0,1-.961-.961V34.273a.961.961,0,0,1,.961-.961H52.753Z" fill="#f3d064"/>
              </g>
            </g>
          </g>
          <path id="Trazado_629846" data-name="Trazado 629846" d="M52.694,33.312H47.5A15.526,15.526,0,0,1,49,38.878h3.7A15.652,15.652,0,0,0,52.694,33.312Z" fill="#edbd41"/>
          <g id="XMLID_18_">
            <g id="Grupo_956692" data-name="Grupo 956692">
              <g id="Grupo_956691" data-name="Grupo 956691">
                <path id="Trazado_629847" data-name="Trazado 629847" d="M37.509,41.808h14.42a15.445,15.445,0,0,1-3.463,5.281q-.145.145-.294.286H37.509a.961.961,0,0,1-.961-.961V42.769A.962.962,0,0,1,37.509,41.808Z" fill="#c5d65c"/>
              </g>
            </g>
          </g>
          <path id="Trazado_629848" data-name="Trazado 629848" d="M48.406,47.089a15.439,15.439,0,0,0,3.463-5.281H48.947a15.5,15.5,0,0,1-1.722,5.566h.884C48.208,47.28,48.309,47.186,48.406,47.089Z" fill="#a9bd48"/>
          <g id="XMLID_19_">
            <g id="Grupo_956694" data-name="Grupo 956694">
              <g id="Grupo_956693" data-name="Grupo 956693">
                <path id="Trazado_629849" data-name="Trazado 629849" d="M31.128,30V42.187A1.525,1.525,0,0,1,29.6,43.712H23.947a15.591,15.591,0,0,1,.015-15.234H29.6A1.525,1.525,0,0,1,31.128,30Z" fill="#efc343"/>
              </g>
            </g>
          </g>
          <g id="XMLID_25_">
            <g id="Grupo_956696" data-name="Grupo 956696">
              <g id="Grupo_956695" data-name="Grupo 956695">
                <circle id="Elipse_7725" data-name="Elipse 7725" cx="5.713" cy="5.713" r="5.713" transform="translate(1.099 4.308)" fill="#ff395e"/>
              </g>
            </g>
          </g>
          <g id="XMLID_26_">
            <g id="Grupo_956698" data-name="Grupo 956698">
              <g id="Grupo_956697" data-name="Grupo 956697">
                <circle id="Elipse_7726" data-name="Elipse 7726" cx="5.713" cy="5.713" r="5.713" transform="translate(62.476 53.673)" fill="#c5d65c"/>
              </g>
            </g>
          </g>
          <path id="Trazado_629850" data-name="Trazado 629850" d="M6.006,10.021a5.713,5.713,0,0,1,3.259-5.16,5.713,5.713,0,1,0,0,10.32A5.713,5.713,0,0,1,6.006,10.021Z" fill="#b12e65"/>
          <path id="Trazado_629851" data-name="Trazado 629851" d="M67.383,59.386a5.713,5.713,0,0,1,3.259-5.16,5.713,5.713,0,1,0,0,10.32A5.713,5.713,0,0,1,67.383,59.386Z" fill="#dfde48"/>
        </g>
        <g id="Grupo_956700" data-name="Grupo 956700">
          <path id="Trazado_629852" data-name="Trazado 629852" d="M51.587,44.922l.007-.012c.057-.091.112-.184.168-.276l.053-.088c.042-.071.082-.143.123-.214.03-.053.061-.106.09-.159s.057-.105.085-.158c.04-.074.08-.149.119-.223l.055-.109c.047-.093.094-.186.14-.28l.031-.066q.079-.163.154-.328l.015-.034q.082-.18.158-.362l.007-.017q.08-.188.154-.378l0-.008v0a16.617,16.617,0,0,0,.886-3.126l0-.009.005-.032q.026-.149.05-.3l.014-.089c.014-.092.028-.184.04-.276.006-.04.011-.081.016-.121.011-.082.021-.163.03-.245.006-.055.012-.11.018-.166s.014-.136.02-.2.013-.147.018-.22c0-.051.008-.1.012-.154.007-.1.012-.193.017-.289,0-.03,0-.059,0-.089q.037-.788,0-1.577c0-.009,0-.019,0-.028q-.009-.175-.021-.35c0-.047-.007-.094-.011-.14-.006-.078-.012-.156-.02-.235s-.014-.137-.021-.2-.011-.111-.018-.166c-.01-.083-.02-.166-.031-.249-.005-.04-.01-.08-.016-.12q-.019-.14-.041-.279c0-.03-.009-.059-.014-.089q-.024-.149-.051-.3c0-.013,0-.027-.007-.04l0-.009a16.616,16.616,0,0,0-.893-3.128h0v0q-.078-.2-.161-.392h0q-.08-.188-.165-.375L52.6,29.19q-.077-.17-.159-.338L52.42,28.8c-.047-.1-.095-.19-.143-.285l-.051-.1c-.038-.073-.077-.146-.117-.218-.029-.054-.058-.108-.087-.161s-.052-.092-.078-.138c-.044-.078-.088-.156-.134-.234l-.025-.041a16.545,16.545,0,0,0-2.542-3.269q-.17-.17-.345-.334h0a16.625,16.625,0,0,0-26.389,4.878h0a16.707,16.707,0,0,0-.021,14.383l.014.029q.112.234.231.465v0a16.639,16.639,0,0,0,26.2,4.4h0q.158-.15.314-.306A16.556,16.556,0,0,0,51.587,44.922Zm-1.714-1.413q-.144.241-.3.477L49.5,44.1c-.12.179-.242.357-.371.533l0,.006c-.133.181-.272.359-.415.536l-.087.105q-.173.209-.355.414c-.035.04-.07.079-.106.119q-.212.234-.437.46H37.646V42.906H50.213c-.092.172-.185.342-.284.511C49.91,43.448,49.891,43.478,49.873,43.508Zm1.953-8.923c.007.07.015.141.022.211q.024.267.038.535c0,.064.006.129.009.193.007.175.012.351.013.527,0,.048,0,.1,0,.144q0,.246-.012.493c0,.063,0,.126-.008.189q-.014.267-.038.533c-.007.073-.014.145-.022.218-.005.051-.012.1-.018.152H37.646V34.41H51.8C51.812,34.469,51.82,34.527,51.826,34.585ZM47.7,25.914c.156.156.306.316.454.477l.115.128q.183.205.356.415l.079.1q.213.263.413.533l.036.051q.178.244.344.494l.079.119q.162.249.314.5l.036.059c.1.163.187.329.276.5H37.646V25.914H47.7Zm-20.413,20.4a14.487,14.487,0,0,1-1.3-1.5H29.6a2.627,2.627,0,0,0,2.624-2.624V38.731a1.1,1.1,0,0,0-2.2,0v3.455a.427.427,0,0,1-.427.427H24.61c-.066-.13-.132-.26-.193-.391-.022-.048-.043-.1-.065-.145q-.091-.2-.176-.405c-.029-.069-.058-.138-.086-.207-.061-.153-.118-.306-.173-.461-.034-.095-.067-.19-.1-.285-.027-.08-.052-.16-.077-.24q-.088-.279-.165-.56l-.034-.126a14.6,14.6,0,0,1,.01-7.405l.024-.091c.056-.206.117-.41.182-.613.02-.062.039-.125.06-.187q.052-.155.107-.309.07-.195.146-.388c.037-.093.075-.186.113-.278q.075-.18.156-.359c.028-.063.056-.125.085-.188.063-.134.13-.267.2-.4H29.6a.427.427,0,0,1,.427.427v4.334a1.1,1.1,0,0,0,2.2,0V30A2.627,2.627,0,0,0,29.6,27.379H26a14.445,14.445,0,0,1,18.877-3.662h-7.37a2.061,2.061,0,0,0-2.059,2.059v3.646a2.061,2.061,0,0,0,2.059,2.059h13.64c.082.242.156.487.225.732H37.508a2.061,2.061,0,0,0-2.059,2.059v3.646a2.061,2.061,0,0,0,2.059,2.059H51.38q-.1.368-.223.732H37.508a2.061,2.061,0,0,0-2.059,2.059v3.646a2.061,2.061,0,0,0,2.059,2.059h7.414A14.453,14.453,0,0,1,27.284,46.311Z" fill="#000100"/>
          <path id="Trazado_629853" data-name="Trazado 629853" d="M68.188,52.574a6.821,6.821,0,0,0-6.714,5.671H53.6l-5.1-5.1a20.268,20.268,0,0,0,3.111-2.478H67.664a1.625,1.625,0,0,0,1.623-1.623V46.58a1.625,1.625,0,0,0-1.623-1.623H55.743a20.117,20.117,0,0,0,.856-2.051H67.664a1.625,1.625,0,0,0,1.623-1.623V38.816a1.625,1.625,0,0,0-1.623-1.623H57.735a20.463,20.463,0,0,0,.007-2.051h9.922a1.625,1.625,0,0,0,1.623-1.623V31.053a1.625,1.625,0,0,0-1.623-1.623H56.642a20.193,20.193,0,0,0-.841-2.051H67.664a1.625,1.625,0,0,0,1.623-1.623V23.289a1.625,1.625,0,0,0-1.623-1.623H51.733a20.313,20.313,0,0,0-20.918-4.715l-8-8a1.1,1.1,0,0,0-.759-.322c-.023,0-2.3-.036-4.567-.054-2.058-.016-3.276-.025-4.025,0a6.812,6.812,0,1,0,.112,2.2c1.358-.03,4.8,0,8,.045l7.038,7.038a20.273,20.273,0,0,0-10.57,12.448H14.026a2.31,2.31,0,0,0-2.308,2.308v7.25a2.31,2.31,0,0,0,2.308,2.308h4.1a20.131,20.131,0,0,0,2.956,5.88l-2.6,2.6a2.629,2.629,0,0,0-2.541.677L2.854,64.422a2.878,2.878,0,0,0,0,4.07L5.31,70.948a2.878,2.878,0,0,0,4.07,0L22.473,57.855a2.629,2.629,0,0,0,.677-2.541l2.632-2.632A20.354,20.354,0,0,0,46.52,54.276l5.845,5.845a1.1,1.1,0,0,0,.777.322h8.317a6.812,6.812,0,1,0,6.729-7.869Zm-1.1-11.865H57.247q.152-.655.26-1.318H67.09Zm0-9.082v1.318H57.526q-.1-.663-.252-1.318ZM6.812,14.635a4.614,4.614,0,1,1,4.614-4.614A4.62,4.62,0,0,1,6.812,14.635Zm47.7,32.52H67.09v1.318H53.573c.155-.2.3-.4.45-.61l.049-.068q.209-.3.406-.6ZM67.09,23.863v1.318H54.584c-.021-.032-.043-.063-.064-.1-.124-.192-.251-.383-.383-.572l0,0c-.144-.206-.293-.41-.446-.612l-.026-.036H67.09ZM14.026,39.977a.111.111,0,0,1-.11-.11v-7.25a.111.111,0,0,1,.11-.11H17.52a20.431,20.431,0,0,0,.049,7.471H14.026ZM20.919,56.3,7.826,69.394a.681.681,0,0,1-.962,0L4.408,66.939a.681.681,0,0,1,0-.962L17.5,52.883a.432.432,0,0,1,.61,0l2.808,2.808A.432.432,0,0,1,20.919,56.3Zm3.1-4.966L21.846,53.51l-1.554-1.554,2.175-2.175.672.672h0ZM24.7,48.9l0,0A18.091,18.091,0,0,1,50.279,23.316c.07.07.137.14.206.211v0a18.286,18.286,0,0,1,1.366,1.582l.023.03q.133.174.261.351l.1.135q.087.121.171.244.069.1.137.2l.111.168c.057.088.114.176.17.265l.047.076a18.152,18.152,0,0,1,.013,19.028l-.115.184q-.065.1-.132.206-.088.134-.178.266l-.085.125A18.188,18.188,0,0,1,51.1,48.02l-.014.016q-.167.19-.339.376l-.012.013q-.177.191-.36.376h0l-.1.1A18.112,18.112,0,0,1,24.7,48.9ZM68.188,64A4.614,4.614,0,1,1,72.8,59.386,4.62,4.62,0,0,1,68.188,64Z" fill="#000100"/>
        </g>
      </g>
    </g>
  </g>
</svg>
