<svg xmlns="http://www.w3.org/2000/svg" xmlns:xlink="http://www.w3.org/1999/xlink" width="124" height="124" viewBox="0 0 124 124">
  <defs>
    <clipPath id="clip-path">
      <rect id="Rect치ngulo_306887" data-name="Rect치ngulo 306887" width="75" height="75" transform="translate(1074 4764.58)" fill="#583cb6" stroke="#707070" stroke-width="1"/>
    </clipPath>
  </defs>
  <g id="Grupo_956657" data-name="Grupo 956657" transform="translate(-1049 -4740)">
    <circle id="Elipse_7678" data-name="Elipse 7678" cx="50.5" cy="50.5" r="50.5" transform="translate(1061 4752)" fill="#faebcd"/>
    <rect id="Rect치ngulo_305813" data-name="Rect치ngulo 305813" width="124" height="124" transform="translate(1049 4740)" fill="none"/>
    <g id="Enmascarar_grupo_878407" data-name="Enmascarar grupo 878407" clip-path="url(#clip-path)">
      <g id="maquinaria" transform="translate(1074 4764.58)">
        <path id="Trazado_629854" data-name="Trazado 629854" d="M40,7.5A2.5,2.5,0,1,1,37.5,5,2.5,2.5,0,0,1,40,7.5Zm0,0" fill="#495867"/>
        <path id="Trazado_629855" data-name="Trazado 629855" d="M35,13.75h5v5H35Zm0,0" fill="#bdd5ea"/>
        <path id="Trazado_629856" data-name="Trazado 629856" d="M62.5,56.25H70v7.5H62.5Zm0,0" fill="#495867"/>
        <path id="Trazado_629857" data-name="Trazado 629857" d="M5,56.25h7.5v7.5H5Zm0,0" fill="#495867"/>
        <path id="Trazado_629858" data-name="Trazado 629858" d="M45,18.75H30v2.5l-11.25,2.5L12.5,37.5l6.25,10v-10l2.5-7.5L30,26.25H45l8.75,5,2.5,6.25v10l6.25-10L56.25,23.75,45,21.25Zm0,0" fill="#577399"/>
        <path id="Trazado_629859" data-name="Trazado 629859" d="M30,18.75H45v7.5H30Zm0,0" fill="#495867"/>
        <path id="Trazado_629860" data-name="Trazado 629860" d="M51.25,47.5v-5H47.172a9.963,9.963,0,0,0-1.064-2.573l2.882-2.882L45.455,33.51l-2.882,2.882A9.945,9.945,0,0,0,40,35.328V31.25H35v4.078a9.963,9.963,0,0,0-2.573,1.064L29.545,33.51,26.01,37.045l2.882,2.882A9.945,9.945,0,0,0,27.828,42.5H23.75v5h4.078a9.963,9.963,0,0,0,1.064,2.573L26.01,52.955l3.535,3.535,2.882-2.882A9.945,9.945,0,0,0,35,54.672V58.75h5V54.672a9.963,9.963,0,0,0,2.573-1.064l2.882,2.882,3.535-3.535-2.882-2.882A9.945,9.945,0,0,0,47.172,47.5ZM37.5,50a5,5,0,1,1,5-5A5,5,0,0,1,37.5,50Zm0,0" fill="#fe5f55"/>
        <path id="Trazado_629861" data-name="Trazado 629861" d="M68.75,73.75H6.25a5,5,0,0,1,0-10h62.5a5,5,0,1,1,0,10Zm0,0" fill="#bdd5ea"/>
        <path id="Trazado_629862" data-name="Trazado 629862" d="M37.5,51.25A6.25,6.25,0,1,0,31.25,45,6.257,6.257,0,0,0,37.5,51.25Zm0-10A3.75,3.75,0,1,1,33.75,45,3.755,3.755,0,0,1,37.5,41.25Zm0,0"/>
        <path id="Trazado_629863" data-name="Trazado 629863" d="M23.75,41.25A1.25,1.25,0,0,0,22.5,42.5v5a1.25,1.25,0,0,0,1.25,1.25H26.9a11.5,11.5,0,0,0,.452,1.091l-2.23,2.23a1.249,1.249,0,0,0,0,1.767l3.535,3.536a1.248,1.248,0,0,0,1.767,0l2.23-2.228a11.361,11.361,0,0,0,1.091.451V58.75A1.25,1.25,0,0,0,35,60h5a1.25,1.25,0,0,0,1.25-1.25V55.6a11.36,11.36,0,0,0,1.091-.451l2.23,2.228a1.248,1.248,0,0,0,1.768,0l3.535-3.536a1.249,1.249,0,0,0,0-1.767l-2.23-2.23A11.045,11.045,0,0,0,48.1,48.75H51.25A1.25,1.25,0,0,0,52.5,47.5v-5a1.25,1.25,0,0,0-1.25-1.25H48.1a11.5,11.5,0,0,0-.452-1.091l2.23-2.23a1.249,1.249,0,0,0,0-1.767L46.34,32.625a1.248,1.248,0,0,0-1.767,0l-2.23,2.228a11.361,11.361,0,0,0-1.091-.451V31.25A1.25,1.25,0,0,0,40,30H35a1.25,1.25,0,0,0-1.25,1.25V34.4a11.361,11.361,0,0,0-1.091.451l-2.23-2.228a1.248,1.248,0,0,0-1.768,0l-3.535,3.536a1.249,1.249,0,0,0,0,1.767l2.23,2.23A11.045,11.045,0,0,0,26.9,41.25Zm6.026-2.206-2-2,1.767-1.769,2,2a1.245,1.245,0,0,0,1.52.193,8.693,8.693,0,0,1,2.249-.93,1.25,1.25,0,0,0,.938-1.21V32.5h2.5v2.828a1.25,1.25,0,0,0,.938,1.21,8.693,8.693,0,0,1,2.249.93,1.251,1.251,0,0,0,1.52-.193l2-2,1.767,1.769-2,2a1.25,1.25,0,0,0-.193,1.519,8.7,8.7,0,0,1,.933,2.25,1.25,1.25,0,0,0,1.21.938H50v2.5H47.172a1.249,1.249,0,0,0-1.21.938,8.7,8.7,0,0,1-.933,2.25,1.252,1.252,0,0,0,.193,1.519l2,2-1.768,1.769-2-2a1.25,1.25,0,0,0-1.52-.193,8.7,8.7,0,0,1-2.249.93,1.25,1.25,0,0,0-.936,1.21V57.5h-2.5V54.672a1.25,1.25,0,0,0-.937-1.21,8.693,8.693,0,0,1-2.249-.93,1.251,1.251,0,0,0-1.52.193l-2,2-1.767-1.769,2-2a1.25,1.25,0,0,0,.193-1.519,8.7,8.7,0,0,1-.933-2.25,1.248,1.248,0,0,0-1.208-.937H25v-2.5h2.828a1.249,1.249,0,0,0,1.21-.937,8.7,8.7,0,0,1,.933-2.25,1.251,1.251,0,0,0-.194-1.519Zm0,0"/>
        <path id="Trazado_629864" data-name="Trazado 629864" d="M0,2.5H36.25V3.98a3.728,3.728,0,0,0,0,7.04V12.5H35a1.25,1.25,0,0,0-1.25,1.25V17.5H30a1.25,1.25,0,0,0-1.25,1.25v1.5L18.479,22.53a1.248,1.248,0,0,0-.867.7l-6.25,13.75a1.251,1.251,0,0,0,.078,1.179l6.25,10A1.25,1.25,0,0,0,20,47.5V37.7l2.259-6.775,8-3.428H44.667l8.084,4.619L55,37.74V47.5a1.25,1.25,0,0,0,2.31.662l6.25-10a1.247,1.247,0,0,0,.078-1.179l-6.25-13.75a1.247,1.247,0,0,0-.867-.7L46.25,20.248v-1.5A1.25,1.25,0,0,0,45,17.5H41.25V13.75A1.25,1.25,0,0,0,40,12.5H38.75V11.02a3.728,3.728,0,0,0,0-7.04V2.5H75V0H0ZM20.757,28.851a1.246,1.246,0,0,0-.694.754l-2.5,7.5a1.3,1.3,0,0,0-.063.395v5.641l-3.584-5.735L19.63,24.835l9.12-2.026v2.617ZM55.37,24.835l5.714,12.571L57.5,43.141V37.5a1.269,1.269,0,0,0-.089-.465l-2.5-6.25a1.254,1.254,0,0,0-.541-.621l-8.12-4.639V22.809ZM43.75,21.25V25H31.25V20h12.5Zm-7.5-3.75V15h2.5v2.5ZM37.5,8.75A1.25,1.25,0,1,1,38.75,7.5,1.252,1.252,0,0,1,37.5,8.75Zm0,0"/>
        <path id="Trazado_629865" data-name="Trazado 629865" d="M71.25,63.03V56.25A1.25,1.25,0,0,0,70,55H62.5a1.25,1.25,0,0,0-1.25,1.25V62.5H13.75V56.25A1.25,1.25,0,0,0,12.5,55H5a1.25,1.25,0,0,0-1.25,1.25v6.78A6.245,6.245,0,0,0,6.25,75h62.5a6.245,6.245,0,0,0,2.5-11.97Zm-7.5-5.53h5v5h-5Zm-57.5,0h5v5h-5Zm62.5,15H6.25a3.75,3.75,0,1,1,0-7.5h62.5a3.75,3.75,0,1,1,0,7.5Zm0,0"/>
        <path id="Trazado_629866" data-name="Trazado 629866" d="M6.25,67.5h2.5V70H6.25Zm0,0"/>
        <path id="Trazado_629867" data-name="Trazado 629867" d="M13.75,67.5h2.5V70h-2.5Zm0,0"/>
        <path id="Trazado_629868" data-name="Trazado 629868" d="M21.25,67.5h2.5V70h-2.5Zm0,0"/>
        <path id="Trazado_629869" data-name="Trazado 629869" d="M28.75,67.5h2.5V70h-2.5Zm0,0"/>
        <path id="Trazado_629870" data-name="Trazado 629870" d="M36.25,67.5h2.5V70h-2.5Zm0,0"/>
        <path id="Trazado_629871" data-name="Trazado 629871" d="M43.75,67.5h2.5V70h-2.5Zm0,0"/>
        <path id="Trazado_629872" data-name="Trazado 629872" d="M51.25,67.5h2.5V70h-2.5Zm0,0"/>
        <path id="Trazado_629873" data-name="Trazado 629873" d="M58.75,67.5h2.5V70h-2.5Zm0,0"/>
        <path id="Trazado_629874" data-name="Trazado 629874" d="M66.25,67.5h2.5V70h-2.5Zm0,0"/>
        <path id="Trazado_629875" data-name="Trazado 629875" d="M5,5H31.25V7.5H5ZM5,5"/>
        <path id="Trazado_629876" data-name="Trazado 629876" d="M0,5H2.5V7.5H0ZM0,5"/>
        <path id="Trazado_629877" data-name="Trazado 629877" d="M72.5,5H75V7.5H72.5Zm0,0"/>
        <path id="Trazado_629878" data-name="Trazado 629878" d="M43.75,5H70V7.5H43.75Zm0,0"/>
      </g>
    </g>
  </g>
</svg>
