<svg xmlns="http://www.w3.org/2000/svg" width="125.001" height="77.676" viewBox="0 0 125.001 77.676">
  <g id="Unión_7" data-name="Unión 7" transform="translate(-8919.001 -11699.999)" fill="#faebcd">
    <path d="M 9007.3955078125 11774.00390625 L 9007.3955078125 11761.55078125 L 9007.3955078125 11760.05078125 L 9005.8955078125 11760.05078125 L 8920.5009765625 11760.05078125 L 8920.5009765625 11717.6201171875 L 9005.8955078125 11717.6201171875 L 9007.3955078125 11717.6201171875 L 9007.3955078125 11716.1201171875 L 9007.3955078125 11703.669921875 L 9041.900390625 11738.837890625 L 9007.3955078125 11774.00390625 Z" stroke="none"/>
    <path d="M 9008.8955078125 11770.333984375 L 9039.798828125 11738.837890625 L 9008.8955078125 11707.33984375 L 9008.8955078125 11719.1201171875 L 8922.0009765625 11719.1201171875 L 8922.0009765625 11758.55078125 L 9008.8955078125 11758.55078125 L 9008.8955078125 11770.333984375 M 9005.8955078125 11777.6748046875 L 9005.8955078125 11761.55078125 L 8919.0009765625 11761.55078125 L 8919.0009765625 11716.1201171875 L 9005.8955078125 11716.1201171875 L 9005.8955078125 11699.9990234375 L 9044.001953125 11738.837890625 L 9005.8955078125 11777.6748046875 Z" stroke="none" fill="#f0bd51"/>
  </g>
</svg>
