<svg xmlns="http://www.w3.org/2000/svg" width="104.999" height="85" viewBox="0 0 104.999 85">
  <g id="Unión_8" data-name="Unión 8" transform="translate(-8959 -11700.001)" fill="#faebcd">
    <path d="M 9021.7373046875 11783.5009765625 L 9021.5009765625 11783.5009765625 L 8960.5 11783.5009765625 L 8960.5 11701.5009765625 L 9021.7734375 11701.5009765625 L 9021.9833984375 11701.50390625 C 9027.4677734375 11701.56640625 9032.779296875 11702.6943359375 9037.7724609375 11704.85546875 C 9042.6005859375 11706.9453125 9046.9326171875 11709.9091796875 9050.6494140625 11713.6669921875 C 9054.3681640625 11717.42578125 9057.2861328125 11721.79296875 9059.322265625 11726.6455078125 C 9061.4296875 11731.6689453125 9062.4990234375 11737.0029296875 9062.4990234375 11742.5 C 9062.4990234375 11747.99609375 9061.4296875 11753.3310546875 9059.322265625 11758.3544921875 C 9057.28515625 11763.2080078125 9054.3681640625 11767.57421875 9050.6494140625 11771.333984375 C 9046.9326171875 11775.091796875 9042.6005859375 11778.056640625 9037.7724609375 11780.146484375 C 9032.779296875 11782.3076171875 9027.466796875 11783.435546875 9021.9833984375 11783.498046875 L 9021.7373046875 11783.5009765625 Z" stroke="none"/>
    <path d="M 9021.728515625 11782.0009765625 L 9021.966796875 11781.998046875 C 9027.25 11781.9375 9032.3671875 11780.8515625 9037.1767578125 11778.76953125 C 9041.828125 11776.755859375 9046.001953125 11773.8994140625 9049.5830078125 11770.279296875 C 9053.166015625 11766.65625 9055.9775390625 11762.44921875 9057.9384765625 11757.7744140625 C 9059.9697265625 11752.935546875 9060.9990234375 11747.7958984375 9060.9990234375 11742.5 C 9060.9990234375 11737.203125 9059.9697265625 11732.064453125 9057.939453125 11727.2255859375 C 9055.9775390625 11722.55078125 9053.166015625 11718.34375 9049.5830078125 11714.7216796875 C 9046.001953125 11711.1015625 9041.828125 11708.2451171875 9037.1767578125 11706.232421875 C 9032.3671875 11704.150390625 9027.25 11703.064453125 9021.966796875 11703.00390625 L 9021.7470703125 11703.0009765625 L 8962 11703.0009765625 L 8962 11782.0009765625 L 9021.728515625 11782.0009765625 M 9022.0009765625 11785.0009765625 L 8959 11785.0009765625 L 8959 11700.0009765625 L 9022.0009765625 11700.0009765625 L 9022.0009765625 11700.00390625 C 9045.2431640625 11700.2705078125 9063.9990234375 11719.193359375 9063.9990234375 11742.5 C 9063.9990234375 11765.8056640625 9045.2431640625 11784.7314453125 9022.0009765625 11784.998046875 L 9022.0009765625 11785.0009765625 Z" stroke="none" fill="#f0bd51"/>
  </g>
</svg>
