<svg xmlns="http://www.w3.org/2000/svg" width="190" height="184.021" viewBox="0 0 190 184.021">
  <g id="Grupo_957064" data-name="Grupo 957064" transform="translate(-21.603 -29.797)">
    <g id="Background_Complete" data-name="Background Complete" transform="translate(28.188 30.268)">
      <g id="Grupo_956760" data-name="Grupo 956760" transform="translate(151.035 3.472)">
        <g id="Grupo_956759" data-name="Grupo 956759">
          <g id="Grupo_956758" data-name="Grupo 956758">
            <g id="Grupo_956757" data-name="Grupo 956757">
              <g id="Grupo_956756" data-name="Grupo 956756">
                <g id="Grupo_956755" data-name="Grupo 956755">
                  <g id="Grupo_956754" data-name="Grupo 956754">
                    <g id="Grupo_956753" data-name="Grupo 956753">
                      <g id="Grupo_956752" data-name="Grupo 956752">
                        <g id="Grupo_956751" data-name="Grupo 956751">
                          <g id="Grupo_956750" data-name="Grupo 956750">
                            <g id="Grupo_956749" data-name="Grupo 956749">
                              <g id="Grupo_956748" data-name="Grupo 956748">
                                <path id="Trazado_630017" data-name="Trazado 630017" d="M420.267,43.034l-3.372-.142a10.86,10.86,0,1,0,2,3.337l0,.005Z" transform="translate(-397.909 -39.209)" fill="#c3b6ee"/>
                              </g>
                            </g>
                          </g>
                        </g>
                      </g>
                    </g>
                  </g>
                </g>
              </g>
            </g>
          </g>
        </g>
      </g>
      <g id="Grupo_956773" data-name="Grupo 956773" transform="translate(157.374 135.512)">
        <g id="Grupo_956772" data-name="Grupo 956772">
          <g id="Grupo_956771" data-name="Grupo 956771">
            <g id="Grupo_956770" data-name="Grupo 956770">
              <g id="Grupo_956769" data-name="Grupo 956769">
                <g id="Grupo_956768" data-name="Grupo 956768">
                  <g id="Grupo_956767" data-name="Grupo 956767">
                    <g id="Grupo_956766" data-name="Grupo 956766">
                      <g id="Grupo_956765" data-name="Grupo 956765">
                        <g id="Grupo_956764" data-name="Grupo 956764">
                          <g id="Grupo_956763" data-name="Grupo 956763">
                            <g id="Grupo_956762" data-name="Grupo 956762">
                              <g id="Grupo_956761" data-name="Grupo 956761">
                                <path id="Trazado_630018" data-name="Trazado 630018" d="M425.634,359.669l-1.505-.889a5.627,5.627,0,1,0,.1,2.014v0Z" transform="translate(-413.041 -354.444)" fill="#c3b6ee"/>
                              </g>
                            </g>
                          </g>
                        </g>
                      </g>
                    </g>
                  </g>
                </g>
              </g>
            </g>
          </g>
        </g>
      </g>
      <g id="Grupo_956775" data-name="Grupo 956775" transform="translate(135.757 52.343)">
        <g id="Grupo_956774" data-name="Grupo 956774">
          <path id="Trazado_630019" data-name="Trazado 630019" d="M365.109,157.875a5.4,5.4,0,0,1,1.3-.6l.244-1.307,2.2-.084.343,1.285a5.4,5.4,0,0,1,1.345.5l1.1-.751,1.614,1.5-.666,1.15a5.385,5.385,0,0,1,.6,1.3l1.307.244.084,2.2-1.285.343a5.4,5.4,0,0,1-.5,1.345l.751,1.1-1.495,1.614-1.151-.666a5.383,5.383,0,0,1-1.3.6l-.244,1.307-2.2.084-.343-1.285a5.416,5.416,0,0,1-1.345-.5l-1.1.751-1.614-1.5.666-1.15a5.388,5.388,0,0,1-.6-1.3l-1.307-.244-.084-2.2,1.285-.343a5.418,5.418,0,0,1,.5-1.345l-.751-1.1,1.5-1.614,1.151.666Zm1.233,2.906a2.36,2.36,0,1,0,3.335-.127A2.36,2.36,0,0,0,366.341,160.781Z" transform="translate(-361.432 -155.885)" fill="#c3b6ee"/>
        </g>
      </g>
      <g id="Grupo_956777" data-name="Grupo 956777" transform="translate(21.774)">
        <g id="Grupo_956776" data-name="Grupo 956776">
          <path id="Trazado_630020" data-name="Trazado 630020" d="M92.625,32.716a4.882,4.882,0,0,1,1.176-.54l.22-1.18,1.984-.075.31,1.159a4.856,4.856,0,0,1,1.214.449l.989-.678,1.456,1.35-.6,1.038a4.85,4.85,0,0,1,.54,1.176l1.18.22.076,1.984-1.159.31a4.856,4.856,0,0,1-.449,1.214l.678.989L98.89,41.588l-1.038-.6a4.883,4.883,0,0,1-1.176.54l-.22,1.18-1.984.075-.31-1.159a4.889,4.889,0,0,1-1.214-.449l-.989.678L90.5,40.5l.6-1.038a4.868,4.868,0,0,1-.54-1.176l-1.18-.22-.075-1.984,1.159-.31a4.888,4.888,0,0,1,.449-1.214l-.678-.989,1.349-1.456,1.038.6Zm1.113,2.622a2.13,2.13,0,1,0,3.01-.115A2.129,2.129,0,0,0,93.738,35.338Z" transform="translate(-89.308 -30.921)" fill="#c3b6ee"/>
        </g>
      </g>
      <g id="Grupo_956779" data-name="Grupo 956779" transform="translate(0 147.465)">
        <g id="Grupo_956778" data-name="Grupo 956778">
          <path id="Trazado_630021" data-name="Trazado 630021" d="M41,384.971a5.412,5.412,0,0,1,1.3-.6l.244-1.307,2.2-.084.343,1.285a5.378,5.378,0,0,1,1.345.5l1.1-.751,1.614,1.5-.666,1.15a5.383,5.383,0,0,1,.6,1.3l1.307.244.084,2.2-1.285.343a5.393,5.393,0,0,1-.5,1.345l.751,1.1L47.944,394.8l-1.151-.666a5.385,5.385,0,0,1-1.3.6l-.244,1.308-2.2.084-.343-1.285a5.4,5.4,0,0,1-1.345-.5l-1.1.751-1.614-1.5.666-1.151a5.4,5.4,0,0,1-.6-1.3l-1.307-.244-.084-2.2,1.285-.343a5.413,5.413,0,0,1,.5-1.345l-.751-1.1,1.5-1.614,1.151.666Zm1.232,2.906a2.36,2.36,0,1,0,3.335-.127A2.36,2.36,0,0,0,42.233,387.877Z" transform="translate(-37.324 -382.981)" fill="#c3b6ee"/>
        </g>
      </g>
      <g id="Grupo_956781" data-name="Grupo 956781" transform="translate(1.499 10.055)">
        <g id="Grupo_956780" data-name="Grupo 956780">
          <path id="Trazado_630022" data-name="Trazado 630022" d="M48.943,59.277a11.789,11.789,0,0,1,2.85-1.309l.534-2.859,4.807-.183.75,2.809a11.777,11.777,0,0,1,2.942,1.088l2.4-1.643,3.529,3.27L65.3,62.966a11.787,11.787,0,0,1,1.309,2.851l2.858.534.183,4.807-2.809.75a11.78,11.78,0,0,1-1.088,2.941l1.643,2.4-3.269,3.529-2.516-1.456a11.785,11.785,0,0,1-2.851,1.309l-.534,2.859-4.807.183-.75-2.809a11.8,11.8,0,0,1-2.941-1.088l-2.4,1.643L43.8,78.147l1.456-2.516a11.776,11.776,0,0,1-1.309-2.85l-2.859-.534L40.9,67.44l2.809-.751A11.8,11.8,0,0,1,44.8,63.748l-1.643-2.4,3.27-3.529,2.516,1.456Zm2.7,6.354a5.161,5.161,0,1,0,7.293-.278A5.161,5.161,0,0,0,51.638,65.631Z" transform="translate(-40.903 -54.927)" fill="#c3b6ee"/>
        </g>
      </g>
      <g id="Grupo_956783" data-name="Grupo 956783" transform="translate(127.67 69.046)">
        <g id="Grupo_956782" data-name="Grupo 956782">
          <path id="Trazado_630023" data-name="Trazado 630023" d="M348.3,199.1a9.051,9.051,0,0,1,2.187-1l.41-2.194,3.689-.14.576,2.156a9.036,9.036,0,0,1,2.257.835l1.84-1.261L361.963,200l-1.117,1.931a9.014,9.014,0,0,1,1,2.188l2.194.41.141,3.689-2.156.576a9.045,9.045,0,0,1-.835,2.257l1.261,1.84-2.509,2.708-1.931-1.117a9.047,9.047,0,0,1-2.188,1l-.41,2.194-3.689.141-.576-2.156a9.057,9.057,0,0,1-2.257-.835l-1.84,1.261-2.708-2.509,1.117-1.931a9.038,9.038,0,0,1-1-2.187l-2.194-.41-.141-3.689,2.156-.576a9.072,9.072,0,0,1,.835-2.257l-1.261-1.84,2.509-2.708L348.3,199.1Zm2.068,4.876a3.961,3.961,0,1,0,5.6-.214A3.961,3.961,0,0,0,350.364,203.978Z" transform="translate(-342.125 -195.763)" fill="#c3b6ee"/>
        </g>
      </g>
      <g id="Grupo_956785" data-name="Grupo 956785" transform="translate(12.75 148.364)">
        <g id="Grupo_956784" data-name="Grupo 956784">
          <path id="Trazado_630024" data-name="Trazado 630024" d="M76.043,389.61a12.128,12.128,0,0,1,2.935-1.348l.55-2.944,4.951-.188.772,2.893a12.137,12.137,0,0,1,3.03,1.12l2.469-1.692,3.634,3.368-1.5,2.591a12.119,12.119,0,0,1,1.348,2.936l2.944.55.189,4.951-2.894.773a12.124,12.124,0,0,1-1.12,3.029l1.692,2.47-3.367,3.634-2.591-1.5a12.124,12.124,0,0,1-2.935,1.347l-.55,2.944-4.951.189-.772-2.893a12.143,12.143,0,0,1-3.029-1.121l-2.47,1.692-3.634-3.368,1.5-2.591a12.122,12.122,0,0,1-1.348-2.935l-2.944-.55-.189-4.951,2.894-.773a12.154,12.154,0,0,1,1.12-3.029l-1.692-2.47,3.367-3.634,2.591,1.5Zm2.776,6.543a5.315,5.315,0,1,0,7.511-.286A5.315,5.315,0,0,0,78.819,396.153Z" transform="translate(-67.763 -385.129)" fill="#c3b6ee"/>
        </g>
      </g>
    </g>
    <g id="Speech_Bubble_4" data-name="Speech Bubble 4" transform="translate(175.072 58.749)">
      <g id="Grupo_956801" data-name="Grupo 956801">
        <g id="Grupo_956800" data-name="Grupo 956800">
          <g id="Grupo_956799" data-name="Grupo 956799">
            <g id="Grupo_956798" data-name="Grupo 956798">
              <g id="Grupo_956797" data-name="Grupo 956797">
                <g id="Grupo_956796" data-name="Grupo 956796">
                  <g id="Grupo_956795" data-name="Grupo 956795">
                    <g id="Grupo_956794" data-name="Grupo 956794">
                      <g id="Grupo_956793" data-name="Grupo 956793">
                        <g id="Grupo_956792" data-name="Grupo 956792">
                          <g id="Grupo_956791" data-name="Grupo 956791">
                            <g id="Grupo_956790" data-name="Grupo 956790">
                              <g id="Grupo_956789" data-name="Grupo 956789">
                                <g id="Grupo_956788" data-name="Grupo 956788">
                                  <g id="Grupo_956787" data-name="Grupo 956787">
                                    <path id="Trazado_630025" data-name="Trazado 630025" d="M408.309,99.291l-3.361,1.115a11.4,11.4,0,1,0,3.206,2.53l.005,0Z" transform="translate(-388.14 -99.013)" fill="#fff"/>
                                    <g id="Grupo_956786" data-name="Grupo 956786">
                                      <path id="Trazado_630026" data-name="Trazado 630026" d="M408.166,99.194s0,.073,0,.227-.01.394-.018.691c-.019.63-.047,1.545-.084,2.732a.046.046,0,0,1-.047.045.052.052,0,0,1-.024-.008l-.005,0,.06-.07a11.394,11.394,0,0,1,2.59,4.974,11.228,11.228,0,0,1,.243,3.655,11.387,11.387,0,0,1-3.9,7.6,11.535,11.535,0,0,1-4.328,2.358,11.378,11.378,0,0,1-5.227.256,11.251,11.251,0,0,1-5-2.239l-.551-.444-.506-.49-.252-.244-.229-.265-.453-.531a11.629,11.629,0,0,1-2.429-7.52,11.482,11.482,0,0,1,11.389-11.006,11.333,11.333,0,0,1,5.433,1.352l-.036,0,2.525-.808.64-.2c.142-.044.211-.062.211-.062s-.078.031-.224.082l-.646.225-2.477.851a.046.046,0,0,1-.036,0A11.293,11.293,0,0,0,389.215,115a11.46,11.46,0,0,0,1.389,2.311l.444.521.224.261.248.239.5.481.541.435a11.273,11.273,0,0,0,18.156-7.824,11.121,11.121,0,0,0-.219-3.608,11.4,11.4,0,0,0-2.52-4.944.046.046,0,0,1,0-.066.047.047,0,0,1,.057,0l.005,0-.072.037c.061-1.172.107-2.076.139-2.7.017-.3.03-.536.039-.7S408.166,99.194,408.166,99.194Z" transform="translate(-387.997 -98.917)" fill="#263238"/>
                                    </g>
                                  </g>
                                </g>
                              </g>
                            </g>
                          </g>
                        </g>
                      </g>
                    </g>
                  </g>
                </g>
              </g>
            </g>
          </g>
        </g>
        <rect id="Rectángulo_306908" data-name="Rectángulo 306908" width="2.828" height="8.832" transform="translate(6.288 6.6)" fill="#583cb6"/>
        <rect id="Rectángulo_306909" data-name="Rectángulo 306909" width="2.828" height="6.814" transform="translate(10.51 8.617)" fill="#583cb6"/>
        <rect id="Rectángulo_306910" data-name="Rectángulo 306910" width="2.828" height="4.047" transform="translate(14.419 11.385)" fill="#583cb6"/>
      </g>
    </g>
    <g id="Speech_Bubble_3" data-name="Speech Bubble 3" transform="translate(181.238 90.5)">
      <g id="Grupo_956822" data-name="Grupo 956822">
        <g id="Grupo_956816" data-name="Grupo 956816">
          <g id="Grupo_956815" data-name="Grupo 956815">
            <g id="Grupo_956814" data-name="Grupo 956814">
              <g id="Grupo_956813" data-name="Grupo 956813">
                <g id="Grupo_956812" data-name="Grupo 956812">
                  <g id="Grupo_956811" data-name="Grupo 956811">
                    <g id="Grupo_956810" data-name="Grupo 956810">
                      <g id="Grupo_956809" data-name="Grupo 956809">
                        <g id="Grupo_956808" data-name="Grupo 956808">
                          <g id="Grupo_956807" data-name="Grupo 956807">
                            <g id="Grupo_956806" data-name="Grupo 956806">
                              <g id="Grupo_956805" data-name="Grupo 956805">
                                <g id="Grupo_956802" data-name="Grupo 956802" transform="translate(0.076 0.09)">
                                  <path id="Trazado_630027" data-name="Trazado 630027" d="M433.189,190.833l-3.149-2.816a13.511,13.511,0,0,0-2.392-7.244,13.582,13.582,0,1,0,1.678,12.063v.008Z" transform="translate(-402.9 -174.936)" fill="#fff"/>
                                </g>
                                <g id="Grupo_956804" data-name="Grupo 956804">
                                  <g id="Grupo_956803" data-name="Grupo 956803">
                                    <path id="Trazado_630028" data-name="Trazado 630028" d="M433.084,190.708s-.078.045-.241.132l-.73.389-2.876,1.52-.054.029,0-.062v-.008l.068.013a13.587,13.587,0,0,1-3.61,5.615,13.258,13.258,0,0,1-1.652,1.314,14.95,14.95,0,0,1-1.979,1.1,13.552,13.552,0,0,1-10.155.47,13.728,13.728,0,0,1-4.991-3.069,13.529,13.529,0,0,1-3.356-5.238,13.379,13.379,0,0,1-.648-6.477c.022-.14.043-.279.064-.419l.172-.826.2-.8.138-.393.279-.781c.1-.256.23-.5.344-.75a6.773,6.773,0,0,1,.37-.732,12.408,12.408,0,0,1,.878-1.37,13.839,13.839,0,0,1,4.723-4.1,13.655,13.655,0,0,1,15.318,1.856,14.925,14.925,0,0,1,1.58,1.629,17.79,17.79,0,0,1,1.2,1.74,13.523,13.523,0,0,1,1.834,6.408l-.011-.025,2.338,2.119.593.541c.132.121.195.182.195.182s-.075-.062-.213-.183l-.611-.536-2.348-2.071-.011-.01v-.015a13.523,13.523,0,0,0-1.858-6.356,17.732,17.732,0,0,0-1.2-1.721,14.764,14.764,0,0,0-1.572-1.609,13.554,13.554,0,0,0-15.163-1.809,13.694,13.694,0,0,0-4.665,4.059,12.236,12.236,0,0,0-.867,1.354,6.63,6.63,0,0,0-.366.723c-.112.247-.238.488-.339.741l-.276.772-.137.388-.1.4-.2.8c-.049.272-.085.547-.129.821a13.229,13.229,0,0,0,.638,6.4,13.38,13.38,0,0,0,3.312,5.18,13.578,13.578,0,0,0,10.251,3.784,13.423,13.423,0,0,0,4.734-1.185,14.825,14.825,0,0,0,1.965-1.081,13.175,13.175,0,0,0,1.643-1.3,13.6,13.6,0,0,0,3.617-5.559l.083-.24-.015.254v.008l-.051-.033,2.874-1.471.746-.379C432.993,190.752,433.084,190.708,433.084,190.708Z" transform="translate(-402.718 -174.722)" fill="#263238"/>
                                  </g>
                                </g>
                              </g>
                            </g>
                          </g>
                        </g>
                      </g>
                    </g>
                  </g>
                </g>
              </g>
            </g>
          </g>
        </g>
        <g id="Grupo_956821" data-name="Grupo 956821" transform="translate(6.112 8.726)">
          <g id="Grupo_956820" data-name="Grupo 956820">
            <g id="Grupo_956819" data-name="Grupo 956819">
              <path id="Trazado_630029" data-name="Trazado 630029" d="M434.5,214.333a1.488,1.488,0,1,1-1.481-1.495A1.488,1.488,0,0,1,434.5,214.333Z" transform="translate(-425.569 -205.598)" fill="#583cb6"/>
              <g id="Grupo_956817" data-name="Grupo 956817" transform="translate(3.053 3.841)">
                <path id="Trazado_630030" data-name="Trazado 630030" d="M426.013,207.7a4.123,4.123,0,0,1,5.965-.079.837.837,0,0,0,1.189-1.178,5.815,5.815,0,0,0-8.332.068c-.742.779.433,1.971,1.178,1.189Z" transform="translate(-424.598 -204.724)" fill="#583cb6"/>
              </g>
              <g id="Grupo_956818" data-name="Grupo 956818">
                <path id="Trazado_630031" data-name="Trazado 630031" d="M418.717,199.947a8.186,8.186,0,0,1,12.029-.172c.752.773,1.941-.405,1.189-1.178a9.855,9.855,0,0,0-14.4.161c-.73.789.445,1.981,1.178,1.189Z" transform="translate(-417.309 -195.553)" fill="#583cb6"/>
              </g>
            </g>
          </g>
        </g>
      </g>
    </g>
    <g id="Speech_Bubble_2" data-name="Speech Bubble 2" transform="translate(173.111 122.502)">
      <g id="Grupo_956839" data-name="Grupo 956839">
        <g id="Grupo_956837" data-name="Grupo 956837">
          <g id="Grupo_956836" data-name="Grupo 956836">
            <g id="Grupo_956835" data-name="Grupo 956835">
              <g id="Grupo_956834" data-name="Grupo 956834">
                <g id="Grupo_956833" data-name="Grupo 956833">
                  <g id="Grupo_956832" data-name="Grupo 956832">
                    <g id="Grupo_956831" data-name="Grupo 956831">
                      <g id="Grupo_956830" data-name="Grupo 956830">
                        <g id="Grupo_956829" data-name="Grupo 956829">
                          <g id="Grupo_956828" data-name="Grupo 956828">
                            <g id="Grupo_956827" data-name="Grupo 956827">
                              <g id="Grupo_956826" data-name="Grupo 956826">
                                <g id="Grupo_956823" data-name="Grupo 956823" transform="translate(0.086 0.076)">
                                  <path id="Trazado_630032" data-name="Trazado 630032" d="M411.056,282.623l-.286-4.886a15.652,15.652,0,0,0,3.954-7.9,15.736,15.736,0,1,0-8.477,11.28l-.007.006Z" transform="translate(-383.521 -251.304)" fill="#fff"/>
                                </g>
                                <g id="Grupo_956825" data-name="Grupo 956825">
                                  <g id="Grupo_956824" data-name="Grupo 956824">
                                    <path id="Trazado_630033" data-name="Trazado 630033" d="M410.937,282.518s-.1-.027-.305-.089l-.918-.277-3.6-1.1-.068-.021.053-.048.007-.006.045.066a15.742,15.742,0,0,1-7.553,1.663,15.337,15.337,0,0,1-2.431-.27,17.289,17.289,0,0,1-2.523-.715,15.7,15.7,0,0,1-8.725-7.911,15.9,15.9,0,0,1-1.592-6.6,15.668,15.668,0,0,1,1.523-7.044,15.5,15.5,0,0,1,4.76-5.85c.132-.1.263-.194.395-.292l.816-.538.823-.493.434-.209.868-.413c.293-.127.6-.223.9-.335a7.9,7.9,0,0,1,.9-.3,14.346,14.346,0,0,1,1.84-.408,16.037,16.037,0,0,1,7.232.489,15.822,15.822,0,0,1,11.066,14.04,17.279,17.279,0,0,1-.033,2.628,20.736,20.736,0,0,1-.435,2.411,15.663,15.663,0,0,1-3.729,6.762l.01-.029c.082,1.592.146,2.817.189,3.65.02.406.035.715.045.929s.012.309.012.309-.011-.112-.026-.325-.036-.529-.064-.939c-.054-.826-.134-2.041-.237-3.62v-.017l.012-.013a15.671,15.671,0,0,0,3.667-6.739,20.679,20.679,0,0,0,.422-2.393,17.211,17.211,0,0,0,.023-2.6,15.7,15.7,0,0,0-10.977-13.876,15.864,15.864,0,0,0-7.148-.478,14.14,14.14,0,0,0-1.818.4,7.627,7.627,0,0,0-.891.3c-.294.111-.6.206-.885.331l-.857.409-.429.207-.41.246-.822.493c-.262.184-.517.379-.777.569a15.322,15.322,0,0,0-4.7,5.778,15.5,15.5,0,0,0-1.512,6.961,15.733,15.733,0,0,0,5.329,11.484,15.554,15.554,0,0,0,4.856,2.895,17.152,17.152,0,0,0,2.5.718,15.281,15.281,0,0,0,2.409.277,15.755,15.755,0,0,0,7.513-1.611l.265-.13-.219.2-.007.006-.015-.069,3.563,1.14.923.3C410.827,282.48,410.937,282.518,410.937,282.518Z" transform="translate(-383.317 -251.124)" fill="#263238"/>
                                  </g>
                                </g>
                              </g>
                            </g>
                          </g>
                        </g>
                      </g>
                    </g>
                  </g>
                </g>
              </g>
            </g>
          </g>
        </g>
        <g id="Grupo_956838" data-name="Grupo 956838" transform="translate(7.471 9.812)">
          <path id="Trazado_630034" data-name="Trazado 630034" d="M403.058,282.724a1.886,1.886,0,0,0,.769-.161.981.981,0,0,1,.258-.075l-.013,3.872a.516.516,0,0,0,.515.518l4.029.013,0-.457a.827.827,0,0,0-.059-.308,1.691,1.691,0,0,1-.122-.638,1.711,1.711,0,0,1,3.419-.11,1.689,1.689,0,0,1-.16.842.852.852,0,0,0-.085.36v.321l4.082.026a.634.634,0,0,0,.636-.632l.016-3.591h.278c.032,0,.064,0,.1,0a2.086,2.086,0,1,0,.2-3.5.789.789,0,0,1-.169.018H416.4l.013-4.008a.634.634,0,0,0-.632-.636l-11.15-.035a.515.515,0,0,0-.518.514l-.013,4.081a1.01,1.01,0,0,1-.2-.074,1.893,1.893,0,0,0-1.156-.166,1.924,1.924,0,0,0,.318,3.818Z" transform="translate(-401.153 -274.55)" fill="#583cb6"/>
        </g>
      </g>
    </g>
    <g id="Speech_Bubble_1" data-name="Speech Bubble 1" transform="translate(142.396 29.797)">
      <g id="Grupo_956856" data-name="Grupo 956856">
        <g id="Grupo_956854" data-name="Grupo 956854">
          <g id="Grupo_956853" data-name="Grupo 956853">
            <g id="Grupo_956852" data-name="Grupo 956852">
              <g id="Grupo_956851" data-name="Grupo 956851">
                <g id="Grupo_956850" data-name="Grupo 956850">
                  <g id="Grupo_956849" data-name="Grupo 956849">
                    <g id="Grupo_956848" data-name="Grupo 956848">
                      <g id="Grupo_956847" data-name="Grupo 956847">
                        <g id="Grupo_956846" data-name="Grupo 956846">
                          <g id="Grupo_956845" data-name="Grupo 956845">
                            <g id="Grupo_956844" data-name="Grupo 956844">
                              <g id="Grupo_956843" data-name="Grupo 956843">
                                <g id="Grupo_956842" data-name="Grupo 956842">
                                  <g id="Grupo_956841" data-name="Grupo 956841">
                                    <path id="Trazado_630035" data-name="Trazado 630035" d="M318.895,29.8l-1.058,4.91a16.165,16.165,0,1,0,5.4-2.1l.008,0Z" transform="translate(-310.082 -29.797)" fill="#fff"/>
                                    <g id="Grupo_956840" data-name="Grupo 956840">
                                      <path id="Trazado_630036" data-name="Trazado 630036" d="M318.8,29.8s.092.054.277.17l.831.525,3.266,2.076a.046.046,0,0,1,.014.064.052.052,0,0,1-.019.017l-.008,0-.03-.088a16.155,16.155,0,0,1,7.929.425,15.776,15.776,0,0,1,2.331.934,17.746,17.746,0,0,1,2.3,1.4,16.119,16.119,0,0,1,6.462,10.222,16.323,16.323,0,0,1-.236,6.967,16.09,16.09,0,0,1-3.441,6.552,15.917,15.917,0,0,1-6.316,4.482c-.313.118-.623.242-.937.353l-.96.266-.479.132-.487.088-.973.17c-.325.045-.653.057-.978.086a8.091,8.091,0,0,1-.975.047,14.757,14.757,0,0,1-1.933-.1,16.069,16.069,0,0,1-11.945-7.456,16.217,16.217,0,0,1-2.17-11.944,17.737,17.737,0,0,1,.755-2.592,21.287,21.287,0,0,1,1.093-2.265,16.077,16.077,0,0,1,5.547-5.664l-.021.03.818-3.663.211-.931c.048-.207.074-.307.074-.307s-.02.115-.063.329-.109.535-.194.947c-.173.834-.426,2.056-.756,3.644a.045.045,0,0,1-.021.029,16.082,16.082,0,0,0-5.471,5.657,21.234,21.234,0,0,0-1.073,2.25,17.646,17.646,0,0,0-.737,2.568,16.109,16.109,0,0,0,7.045,16.722,16.275,16.275,0,0,0,6.933,2.431,14.577,14.577,0,0,0,1.907.1,7.886,7.886,0,0,0,.962-.048c.32-.029.644-.04.965-.085l.959-.169.481-.086.472-.131.948-.262c.309-.11.615-.233.924-.349a15.713,15.713,0,0,0,6.233-4.42,15.9,15.9,0,0,0,3.4-6.464,16.137,16.137,0,0,0-2.116-12.81,15.954,15.954,0,0,0-4-4.194,17.693,17.693,0,0,0-2.272-1.395,15.713,15.713,0,0,0-2.305-.935,16.172,16.172,0,0,0-7.868-.471.046.046,0,0,1-.029-.087l.008,0,0,.081-3.207-2.106-.831-.549C318.9,29.866,318.8,29.8,318.8,29.8Z" transform="translate(-309.986 -29.797)" fill="#263238"/>
                                    </g>
                                  </g>
                                </g>
                              </g>
                            </g>
                          </g>
                        </g>
                      </g>
                    </g>
                  </g>
                </g>
              </g>
            </g>
          </g>
        </g>
        <g id="Grupo_956855" data-name="Grupo 956855" transform="translate(10.317 11.233)">
          <path id="Trazado_630037" data-name="Trazado 630037" d="M346.507,62.56a5.945,5.945,0,1,0-11.069,3h0l.017.023c.228.384.514.659.8,1.062l3.452,4.572a1.074,1.074,0,0,0,1.714,0l3.394-4.5a12.86,12.86,0,0,0,.863-1.144l.013-.016h0A5.909,5.909,0,0,0,346.507,62.56Zm-5.945,2.589a2.616,2.616,0,1,1,2.616-2.617A2.617,2.617,0,0,1,340.562,65.149Z" transform="translate(-334.618 -56.615)" fill="#583cb6"/>
        </g>
      </g>
    </g>
    <g id="Mind" transform="translate(21.603 35.966)">
      <g id="Grupo_956924" data-name="Grupo 956924" transform="translate(0 0)">
        <g id="Grupo_956859" data-name="Grupo 956859">
          <path id="Trazado_630038" data-name="Trazado 630038" d="M114.5,49.218a63.33,63.33,0,0,0-45.209-.872c-38.132,14.273-34.425,59.422-34.425,59.422s-10.59,27.379-12.678,31.7a3.444,3.444,0,0,0-.349,1.5v0a3.4,3.4,0,0,0,3.4,3.4H36.417s-.31,18.3,0,26.366,9.926,8.685,9.926,8.685L66.5,178.179l-5.627,43.775H139.8l-8.593-60.159,13.075-43.307a68.542,68.542,0,0,0,3.022-15.75C149.449,71.44,129.013,55.354,114.5,49.218Z" transform="translate(-21.74 -44.568)" fill="#e0e0e0"/>
          <g id="Grupo_956858" data-name="Grupo 956858">
            <path id="Trazado_630039" data-name="Trazado 630039" d="M114.5,49.218a63.33,63.33,0,0,0-45.209-.872c-38.132,14.273-34.425,59.422-34.425,59.422s-10.59,27.379-12.678,31.7a3.444,3.444,0,0,0-.349,1.5v0a3.4,3.4,0,0,0,3.4,3.4H36.417s-.31,18.3,0,26.366,9.926,8.685,9.926,8.685L66.5,178.179l-5.627,43.775H139.8l-8.593-60.159,13.075-43.307a68.542,68.542,0,0,0,3.022-15.75C149.449,71.44,129.013,55.354,114.5,49.218Z" transform="translate(-21.74 -44.568)" fill="none"/>
            <g id="Grupo_956857" data-name="Grupo 956857">
              <path id="Trazado_630040" data-name="Trazado 630040" d="M114.363,49.175s.184.076.545.232.9.385,1.6.719a57.645,57.645,0,0,1,6.006,3.273c.643.385,1.3.839,2,1.3.682.485,1.412.977,2.142,1.542a52.825,52.825,0,0,1,4.624,3.878A51.282,51.282,0,0,1,140.6,71.78a49.946,49.946,0,0,1,6.114,17.487,62.893,62.893,0,0,1-.611,21.863q-.577,2.888-1.423,5.812l-1.777,5.905-3.717,12.325-8.025,26.607,0-.039c2.62,18.313,5.527,38.639,8.605,60.157l.017.118h-.12l-78.928.005h-.124l.016-.123c.181-1.407.377-2.93.573-4.457,1.717-13.359,3.406-26.491,5.055-39.317l.114.121-20.162,1.239H46.2a14.739,14.739,0,0,1-5.077-1.425,9,9,0,0,1-3.875-3.474,7.858,7.858,0,0,1-.909-2.453,16,16,0,0,1-.2-2.589c-.048-1.719-.072-3.43-.085-5.134-.046-6.816.025-13.513.124-20.083l.1.1H25.137a3.693,3.693,0,0,1-.862-.1,3.432,3.432,0,0,1-1.518-.805,3.5,3.5,0,0,1-1.113-3.123,3.589,3.589,0,0,1,.233-.825l.346-.762c.235-.5.447-1.014.666-1.521.863-2.036,1.692-4.07,2.5-6.09,3.25-8.083,6.313-15.938,9.251-23.5l-.006.04a72.076,72.076,0,0,1,.586-13.258c.278-2.146.673-4.249,1.1-6.316.478-2.056.979-4.083,1.619-6.041a60.843,60.843,0,0,1,4.679-11.053A50.5,50.5,0,0,1,49.137,61.8,49.834,49.834,0,0,1,57,54.689l2.1-1.429c.34-.247.707-.446,1.065-.657l1.071-.625,1.061-.619c.354-.2.725-.367,1.084-.55l2.148-1.062c.722-.322,1.452-.606,2.166-.905s1.416-.607,2.14-.835c.717-.243,1.422-.5,2.127-.724l2.111-.609c.692-.214,1.4-.344,2.083-.517s1.366-.328,2.047-.442l2.008-.374,1.971-.274.966-.132.958-.089,1.875-.174,1.827-.087c.6-.029,1.19-.064,1.773-.055,1.164,0,2.292-.027,3.381.04l1.606.067c.526.027,1.04.085,1.545.125a65.368,65.368,0,0,1,10.152,1.681,61.455,61.455,0,0,1,6.074,1.923c1.34.53,2.028.809,2.028.809s-.695-.262-2.037-.783a63.219,63.219,0,0,0-6.078-1.9A65.7,65.7,0,0,0,96.1,44.841c-.506-.039-1.019-.1-1.544-.121l-1.6-.064c-1.088-.065-2.215-.034-3.377-.034-.582-.008-1.172.028-1.771.057l-1.824.09-1.872.176-.956.09-.965.132-1.967.276-2,.377c-.679.114-1.357.277-2.042.444s-1.387.3-2.078.519l-2.106.611c-.7.227-1.407.482-2.122.725-.722.228-1.418.546-2.134.836s-1.44.583-2.16.905l-2.142,1.062c-.358.184-.729.348-1.081.55l-1.058.619-1.068.625c-.356.211-.723.41-1.062.656L57.076,54.8a49.7,49.7,0,0,0-7.829,7.1,50.365,50.365,0,0,0-6.482,9.237,60.7,60.7,0,0,0-4.658,11.027c-.637,1.953-1.135,3.976-1.611,6.028-.43,2.062-.823,4.161-1.1,6.3a71.948,71.948,0,0,0-.578,13.22v.022l-.007.018c-2.935,7.568-5.994,15.424-9.241,23.511-.812,2.021-1.64,4.055-2.5,6.095-.219.508-.431,1.021-.667,1.526a5.6,5.6,0,0,0-.563,1.536,3.305,3.305,0,0,0,1.052,2.946,3.237,3.237,0,0,0,1.432.759,6.988,6.988,0,0,0,1.663.1h10.4l0,.1c-.1,6.568-.166,13.265-.119,20.078.013,1.7.038,3.413.086,5.129a15.8,15.8,0,0,0,.2,2.555,7.654,7.654,0,0,0,.885,2.388,8.787,8.787,0,0,0,3.787,3.389,14.556,14.556,0,0,0,5,1.4H46.2l20.162-1.242.13-.008-.017.13c-1.648,12.826-3.336,25.958-5.053,39.317-.2,1.527-.392,3.051-.573,4.457l-.108-.123,78.928.005-.1.119c-3.07-21.519-5.97-41.846-8.583-60.16l0-.02.006-.02,8.04-26.6,3.725-12.323,1.781-5.9q.845-2.913,1.425-5.8a62.8,62.8,0,0,0,.63-21.813,49.887,49.887,0,0,0-6.078-17.454,51.278,51.278,0,0,0-9.291-11.657,52.946,52.946,0,0,0-4.609-3.883c-.728-.566-1.456-1.06-2.136-1.546-.7-.459-1.349-.914-1.991-1.3a59,59,0,0,0-5.988-3.295c-.7-.338-1.233-.572-1.592-.732S114.363,49.175,114.363,49.175Z" transform="translate(-21.603 -44.525)" fill="#263238"/>
            </g>
          </g>
        </g>
        <path id="Trazado_630041" data-name="Trazado 630041" d="M146.9,231.019s-4.9-34.57-5.643-38.187c-1.793-8.682-6.7-9.21-9.617-12.183s-6.374-5.542-8.371-9.194a14.206,14.206,0,0,1,9.889-20.787c7.155-1.319,15.119,2.819,21.525-.632,3.837-2.067,5.9-6.311,7.5-10.365,4.555-11.547,7.333-24.005,6.254-36.371s-6.3-24.643-15.707-32.745c-9.858-8.491-23.675-11.734-36.545-9.829S93.619,68.083,84.334,77.2c-4.483,4.4-10.038,15.071-8.99,21.265,1.964,11.6,19.121,11.227,21.187,22.807,1.305,7.316-4.992,13.367-10.37,18.5-5.112,4.875-6.093,8.914-6.093,8.914a21.375,21.375,0,0,0,12.819,28.282c4.5,1.553,8.384,1.222,12.846,2.88s6.569,5.562,6.646,10.322c.076,4.672-1.3,41.323-1.3,41.323Z" transform="translate(-52.759 -53.633)" fill="#fafafa"/>
        <g id="Grupo_956868" data-name="Grupo 956868" transform="translate(34.093 90.237)">
          <g id="Grupo_956861" data-name="Grupo 956861" transform="translate(27.562 43.598)">
            <g id="Grupo_956860" data-name="Grupo 956860">
              <path id="Trazado_630042" data-name="Trazado 630042" d="M174.01,369.069a9.938,9.938,0,0,1,2.124-1.579l-.059-2.454,3.937-.991,1.11,2.189a9.928,9.928,0,0,1,2.619.384l1.693-1.776,3.485,2.083-.762,2.331a9.95,9.95,0,0,1,1.579,2.125l2.453-.058.991,3.937-2.189,1.11a9.931,9.931,0,0,1-.385,2.619l1.776,1.693-2.083,3.485-2.331-.762a9.943,9.943,0,0,1-2.125,1.579l.059,2.454-3.937.991-1.11-2.189a9.971,9.971,0,0,1-2.619-.384l-1.693,1.776-3.485-2.083.762-2.331a9.936,9.936,0,0,1-1.579-2.125l-2.453.059-.991-3.937,2.189-1.11a9.949,9.949,0,0,1,.385-2.619l-1.776-1.693,2.083-3.485,2.332.762Zm3.335,4.775a4.356,4.356,0,1,0,5.973-1.5A4.356,4.356,0,0,0,177.346,373.844Z" transform="translate(-168.798 -364.046)" fill="#e0e0e0"/>
            </g>
          </g>
          <g id="Grupo_956863" data-name="Grupo 956863" transform="translate(0 2.233)">
            <g id="Grupo_956862" data-name="Grupo 956862">
              <path id="Trazado_630043" data-name="Trazado 630043" d="M107.719,272.263a11.837,11.837,0,0,1,2.225-2.23l-.5-2.879,4.463-1.856,1.69,2.382a11.825,11.825,0,0,1,3.151-.005l1.682-2.387,4.468,1.843-.49,2.878a11.817,11.817,0,0,1,2.23,2.226l2.878-.5,1.856,4.462-2.382,1.69a11.841,11.841,0,0,1,.005,3.151l2.386,1.683-1.843,4.468-2.878-.49a11.854,11.854,0,0,1-2.226,2.23l.5,2.878-4.463,1.856-1.69-2.383a11.837,11.837,0,0,1-3.15.005l-1.683,2.387-4.468-1.843.49-2.878a11.825,11.825,0,0,1-2.23-2.225l-2.879.5-1.856-4.463,2.383-1.69a11.858,11.858,0,0,1-.005-3.151L103,276.241l1.843-4.468,2.879.49Zm4.762,5.039a5.184,5.184,0,1,0,6.77-2.816A5.185,5.185,0,0,0,112.482,277.3Z" transform="translate(-102.997 -265.289)" fill="#e0e0e0"/>
            </g>
          </g>
          <g id="Grupo_956865" data-name="Grupo 956865" transform="translate(23.182 26.47)">
            <g id="Grupo_956864" data-name="Grupo 956864">
              <path id="Trazado_630044" data-name="Trazado 630044" d="M160.568,326.44a5.584,5.584,0,0,1,1.048-1.051l-.235-1.357,2.1-.874.8,1.123a5.578,5.578,0,0,1,1.485,0l.793-1.125,2.106.869-.231,1.356a5.578,5.578,0,0,1,1.051,1.049l1.356-.235.875,2.1-1.123.8a5.578,5.578,0,0,1,0,1.485l1.125.793-.868,2.106-1.357-.231a5.589,5.589,0,0,1-1.049,1.051l.235,1.357-2.1.875-.8-1.123a5.6,5.6,0,0,1-1.485,0l-.793,1.125-2.106-.869.231-1.357a5.579,5.579,0,0,1-1.051-1.049l-1.356.235-.875-2.1,1.123-.8a5.576,5.576,0,0,1,0-1.485l-1.125-.793.868-2.106,1.357.231Zm2.244,2.375a2.443,2.443,0,1,0,3.19-1.327A2.443,2.443,0,0,0,162.813,328.815Z" transform="translate(-158.343 -323.154)" fill="#e0e0e0"/>
            </g>
          </g>
          <path id="Trazado_630045" data-name="Trazado 630045" d="M194.362,444.273l-3.2.553a13.147,13.147,0,0,0-2.478-2.473l.544-3.2-4.963-2.048-1.869,2.651a13.157,13.157,0,0,0-3.5.006l-1.877-2.647-4.958,2.061.553,3.2a13.178,13.178,0,0,0-2.472,2.478l-3.2-.544-2.047,4.963,1.107.781,9.7-.166c1.213-2.94,4.957-3.438,7.251-2.563a4.862,4.862,0,0,1,2.87,2.729h9.9l.7-.825Z" transform="translate(-138.97 -362.907)" fill="#e0e0e0"/>
          <g id="Grupo_956867" data-name="Grupo 956867" transform="translate(27.389)">
            <g id="Grupo_956866" data-name="Grupo 956866">
              <path id="Trazado_630046" data-name="Trazado 630046" d="M170.247,262.708a4.675,4.675,0,0,1,.877-.879l-.2-1.135,1.76-.731.666.94a4.64,4.64,0,0,1,1.242,0l.663-.941,1.761.727-.193,1.135a4.669,4.669,0,0,1,.88.878l1.135-.2.732,1.76-.94.666a4.668,4.668,0,0,1,0,1.242l.941.664-.727,1.762-1.135-.193a4.664,4.664,0,0,1-.878.879l.2,1.135-1.76.732-.666-.94a4.688,4.688,0,0,1-1.242,0l-.663.941-1.762-.727.193-1.135a4.668,4.668,0,0,1-.88-.878l-1.135.2-.732-1.759.939-.666a4.673,4.673,0,0,1,0-1.242l-.941-.663.727-1.761,1.135.193Zm1.878,1.987a2.044,2.044,0,1,0,2.669-1.11A2.044,2.044,0,0,0,172.125,264.7Z" transform="translate(-168.385 -259.959)" fill="#e0e0e0"/>
            </g>
          </g>
        </g>
        <path id="Trazado_630047" data-name="Trazado 630047" d="M107.524,222.3c-2.8,4.768-7.363,9.027-11.667,13.827h31.436S113.446,223.614,107.524,222.3Z" transform="translate(-64.755 -147.835)" fill="#ebebeb"/>
        <path id="Trazado_630048" data-name="Trazado 630048" d="M236.852,233.212c-.026-.3-10.018-9.541-15.011-8.432s-19.322,12.663-19.322,12.663l32.579.072Z" transform="translate(-126.741 -149.224)" fill="#ebebeb"/>
        <g id="Grupo_956869" data-name="Grupo 956869" transform="translate(31.102 88.181)">
          <path id="Trazado_630049" data-name="Trazado 630049" d="M95.857,255.159c0-.06,17.3-.109,38.626-.109s38.63.049,38.63.109-17.292.109-38.63.109S95.857,255.219,95.857,255.159Z" transform="translate(-95.857 -255.05)" fill="#263238"/>
        </g>
        <g id="Grupo_956870" data-name="Grupo 956870" transform="translate(22.456 6.343)">
          <path id="Trazado_630050" data-name="Trazado 630050" d="M92.783,86.189c-.244.239-.491.5-.739.774-.376.435-.716.837-1.011,1.192-.428.537-.856,1.116-1.279,1.729l32.7,22.069,4.722-3.9-21.453-31.9A64.049,64.049,0,0,0,92.783,86.189Z" transform="translate(-83.664 -69.253)" fill="#faebcd"/>
          <path id="Trazado_630052" data-name="Trazado 630052" d="M75.344,144.544c1.09,6.438,6.862,9.189,12.136,12.342l24.335.413.811-7.006-37.11-10.308A13.113,13.113,0,0,0,75.344,144.544Z" transform="translate(-75.216 -106.344)" fill="#faebcd"/>
          <path id="Trazado_630054" data-name="Trazado 630054" d="M170.686,59.886c-.658.07-1.315.15-1.969.247-1.064.157-2.1.349-3.122.555l5.968,32.659,8.43,1.322,6.874-33.46C181.885,59.419,175.226,59.519,170.686,59.886Z" transform="translate(-127.738 -59.668)" fill="#faebcd"/>
          <path id="Trazado_630056" data-name="Trazado 630056" d="M217.177,111.777l29.635-7.976a45.154,45.154,0,0,0-11.891-18.063l-19.5,23.219Z" transform="translate(-156.693 -74.818)" fill="#faebcd"/>
          <path id="Trazado_630058" data-name="Trazado 630058" d="M246.645,152.527a55.606,55.606,0,0,0-1.092-7.131l-32.732,10.231-3.044,7.309,36.771,1.6A65.254,65.254,0,0,0,246.645,152.527Z" transform="translate(-153.414 -109.488)" fill="#faebcd"/>
        </g>
        <g id="Grupo_956871" data-name="Grupo 956871" transform="translate(22.358 6.173)">
          <path id="Trazado_630060" data-name="Trazado 630060" d="M146.768,230.476l-35.725.056h-.057l0-.058c.2-6.012.416-12.741.656-20.116q.163-5.532.339-11.541.072-3,.147-6.119a26.527,26.527,0,0,0-.311-6.3,10.044,10.044,0,0,0-3.2-5.534,13.673,13.673,0,0,0-6.11-2.656c-2.233-.5-4.558-.7-6.874-1.2a21.632,21.632,0,0,1-12.332-7.3,20.837,20.837,0,0,1-3.774-6.533,21.806,21.806,0,0,1,.314-15.365l0,.013a13.883,13.883,0,0,1,1.309-2.952,23.653,23.653,0,0,1,1.811-2.7,29.894,29.894,0,0,1,2.154-2.473c.773-.782,1.577-1.531,2.367-2.3a58.763,58.763,0,0,0,4.573-4.853,22.285,22.285,0,0,0,3.534-5.733,13.744,13.744,0,0,0,.51-1.622c.063-.277.136-.552.192-.831l.1-.848c.016-.141.039-.282.049-.424l0-.428.005-.857-.1-.853a5.332,5.332,0,0,0-.137-.848,11.552,11.552,0,0,0-3.342-5.963,29.019,29.019,0,0,0-5.706-4.149c-2.042-1.22-4.153-2.375-6.121-3.789a19.88,19.88,0,0,1-2.772-2.365,12.276,12.276,0,0,1-2.126-2.991,11.244,11.244,0,0,1-1.077-3.528c-.029-.309-.066-.618-.089-.927L75,95.461a7.015,7.015,0,0,1,.071-.927c.039-.307.06-.618.114-.924A30.15,30.15,0,0,1,77.435,86.5a40.754,40.754,0,0,1,3.7-6.563,27.292,27.292,0,0,1,2.356-2.982l.659-.691.689-.658c.464-.434.91-.888,1.391-1.306a65.032,65.032,0,0,1,5.937-4.858,55.814,55.814,0,0,1,6.556-4.1,51.715,51.715,0,0,1,7.157-3.09c1.027-.377,2.082-.666,3.126-.982l1.584-.4.792-.2.8-.167a57.773,57.773,0,0,1,6.42-1.016c1.079-.065,2.153-.189,3.231-.188l1.613-.033,1.611.044.8.023.8.062,1.6.123,1.59.2.794.1.788.138,1.572.281c.52.11,1.037.238,1.554.356,1.041.215,2.049.549,3.068.831a44.969,44.969,0,0,1,5.881,2.305,42.263,42.263,0,0,1,5.452,3.09l1.272.9c.21.153.427.3.63.457l.605.489,1.208.977,1.144,1.046.571.522.539.553L156,72.873l1.011,1.161.5.58.472.6.941,1.209.876,1.253.436.626c.14.212.27.43.406.645l.8,1.291a51.379,51.379,0,0,1,4.8,11,56.285,56.285,0,0,1,2.181,11.553,66.657,66.657,0,0,1-.1,11.493,81.918,81.918,0,0,1-1.87,11.056A98.916,98.916,0,0,1,163.3,135.8a41.412,41.412,0,0,1-4.475,9.6,15.744,15.744,0,0,1-1.684,2,11.7,11.7,0,0,1-2.039,1.6,12.086,12.086,0,0,1-4.831,1.594,23.628,23.628,0,0,1-5.013-.042c-1.649-.16-3.27-.408-4.881-.592a34.183,34.183,0,0,0-4.8-.278l-1.185.067-1.169.16a12.871,12.871,0,0,0-2.261.589,14.449,14.449,0,0,0-7.1,5.49,13.461,13.461,0,0,0-1.844,3.992,14.493,14.493,0,0,0,.223,8.412,14.318,14.318,0,0,0,1.861,3.654,38.629,38.629,0,0,0,5.425,5.772q.706.66,1.389,1.327c.452.449.889.9,1.367,1.3.96.794,2.019,1.433,3.011,2.137a14.31,14.31,0,0,1,2.694,2.375,13.383,13.383,0,0,1,1.878,2.923,23.6,23.6,0,0,1,1.694,6.352c.331,2.087.631,4.1.916,6.023l1.53,10.543c.9,6.337,1.591,11.258,2.063,14.6.23,1.668.407,2.94.525,3.8l.171,1.3L143.925,210.8l-1.549-10.54-.925-6.02a23.477,23.477,0,0,0-1.693-6.319,13.263,13.263,0,0,0-1.863-2.892,14.211,14.211,0,0,0-2.674-2.351c-.988-.7-2.049-1.338-3.022-2.14-.487-.4-.928-.86-1.377-1.3s-.917-.884-1.388-1.324a38.752,38.752,0,0,1-5.451-5.789,14.482,14.482,0,0,1-1.883-3.69,14.644,14.644,0,0,1-.233-8.5,13.63,13.63,0,0,1,1.862-4.041,14.614,14.614,0,0,1,7.178-5.558,13.01,13.01,0,0,1,2.288-.6l1.182-.163,1.2-.068a34.4,34.4,0,0,1,4.825.276c3.219.359,6.511,1.006,9.853.628a11.908,11.908,0,0,0,4.756-1.571,11.557,11.557,0,0,0,2.006-1.575,15.6,15.6,0,0,0,1.662-1.971,41.262,41.262,0,0,0,4.446-9.555,98.74,98.74,0,0,0,3.147-10.429,81.785,81.785,0,0,0,1.861-11.029,66.418,66.418,0,0,0,.1-11.458,56.089,56.089,0,0,0-2.176-11.509,51.2,51.2,0,0,0-4.781-10.957l-.8-1.285c-.135-.214-.265-.431-.4-.642l-.434-.623-.871-1.247-.937-1.2-.47-.6-.5-.577-1.006-1.155-1.071-1.1-.537-.55-.568-.519-1.138-1.04-1.2-.971-.6-.486c-.2-.16-.419-.3-.627-.454l-1.265-.9a42.057,42.057,0,0,0-5.425-3.073,44.707,44.707,0,0,0-5.853-2.294c-1.015-.28-2.018-.613-3.054-.827-.515-.117-1.029-.244-1.547-.354l-1.565-.28-.784-.138-.791-.1-1.583-.2-1.594-.122-.8-.061-.8-.023-1.6-.044-1.606.033c-1.074,0-2.142.123-3.216.187a57.491,57.491,0,0,0-6.394,1.012l-.8.166-.789.2-1.577.4c-1.04.315-2.09.6-3.113.978a51.572,51.572,0,0,0-7.126,3.076,55.6,55.6,0,0,0-6.53,4.089,64.879,64.879,0,0,0-5.918,4.842c-.479.417-.924.87-1.387,1.3l-.687.656-.652.684a27,27,0,0,0-2.337,2.958,40.543,40.543,0,0,0-3.677,6.528,29.951,29.951,0,0,0-2.239,7.052c-.053.3-.074.608-.112.912a6.832,6.832,0,0,0-.07.914l-.016.915c.023.3.058.6.087.906a11.035,11.035,0,0,0,1.056,3.461,12.059,12.059,0,0,0,2.089,2.94,19.7,19.7,0,0,0,2.742,2.34c1.953,1.4,4.059,2.558,6.1,3.781a29.22,29.22,0,0,1,5.746,4.182,11.762,11.762,0,0,1,3.4,6.068,5.532,5.532,0,0,1,.14.864l.1.869-.005.873,0,.436c-.011.145-.034.288-.05.432l-.107.863c-.057.283-.131.563-.2.844a13.979,13.979,0,0,1-.518,1.647,22.478,22.478,0,0,1-3.568,5.786,58.965,58.965,0,0,1-4.591,4.868c-.792.771-1.6,1.521-2.364,2.3a29.7,29.7,0,0,0-2.14,2.455,23.382,23.382,0,0,0-1.8,2.676,13.748,13.748,0,0,0-1.291,2.9l0,.01,0,0a21.621,21.621,0,0,0-.318,15.229,20.656,20.656,0,0,0,3.738,6.478,21.455,21.455,0,0,0,12.229,7.245c2.3.493,4.627.7,6.873,1.2a22.113,22.113,0,0,1,3.281.976,10.075,10.075,0,0,1,2.9,1.721,10.2,10.2,0,0,1,3.252,5.624,26.684,26.684,0,0,1,.31,6.339q-.078,3.116-.153,6.12-.183,6.005-.351,11.542c-.25,7.375-.478,14.1-.682,20.115l-.056-.057Z" transform="translate(-74.98 -59.263)" fill="#263238"/>
        </g>
        <g id="Grupo_956923" data-name="Grupo 956923" transform="translate(52.274 30.758)">
          <g id="Grupo_956877" data-name="Grupo 956877">
            <g id="Grupo_956876" data-name="Grupo 956876">
              <g id="Grupo_956875" data-name="Grupo 956875">
                <g id="Grupo_956874" data-name="Grupo 956874">
                  <g id="Grupo_956873" data-name="Grupo 956873">
                    <g id="Grupo_956872" data-name="Grupo 956872">
                      <path id="Trazado_630061" data-name="Trazado 630061" d="M182.1,136.328a17.853,17.853,0,1,0-25.918,15.409l-.13,4.5,15.641.453s.168-2.524.268-4.779A17.847,17.847,0,0,0,182.1,136.328Z" transform="translate(-146.404 -117.958)" fill="#f0bd51"/>
                    </g>
                  </g>
                </g>
              </g>
            </g>
          </g>
          <g id="Grupo_956879" data-name="Grupo 956879" transform="translate(11.289 16.404)">
            <g id="Grupo_956878" data-name="Grupo 956878">
              <path id="Trazado_630062" data-name="Trazado 630062" d="M185.018,179.379s-.01-.075-.023-.222-.031-.368-.054-.652c-.045-.573-.1-1.419-.165-2.509-.117-2.18-.238-5.34-.163-9.245q.026-1.465.095-3.063.039-.8.079-1.629a5.6,5.6,0,0,1,.258-1.681,1.891,1.891,0,0,1,.49-.737,1.152,1.152,0,0,1,.841-.324,1.079,1.079,0,0,1,.779.48,1.69,1.69,0,0,1,.3.88,2.081,2.081,0,0,1-.817,1.655,3.138,3.138,0,0,1-1.787.692,3.389,3.389,0,0,1-1.914-.444,3.577,3.577,0,0,1-1.371-1.471,4.272,4.272,0,0,1-.478-2,3.128,3.128,0,0,1,.168-1.041,1.475,1.475,0,0,1,.658-.844.951.951,0,0,1,.548-.1,1.219,1.219,0,0,1,.517.2,1.711,1.711,0,0,1,.651.871,3.716,3.716,0,0,1,.191,1.074,10.864,10.864,0,0,1-.009,1.09,7.363,7.363,0,0,1-.425,2.16,4.06,4.06,0,0,1-1.272,1.826,3.24,3.24,0,0,1-.994.539,2.515,2.515,0,0,1-1.122.1,2.333,2.333,0,0,1-1.028-.443,3,3,0,0,1-.74-.826,6.753,6.753,0,0,1-.784-2.024c-.084-.349-.151-.7-.209-1.051a6.224,6.224,0,0,1-.115-1.061,1.754,1.754,0,0,1,.294-1.028,1.137,1.137,0,0,1,.408-.363.772.772,0,0,1,.547-.058.92.92,0,0,1,.457.294,1.817,1.817,0,0,1,.284.447,3.541,3.541,0,0,1,.273,1,5.973,5.973,0,0,1-.617,3.881,3.816,3.816,0,0,1-1.357,1.358,2.862,2.862,0,0,1-1.82.4,2.473,2.473,0,0,1-1.562-.9,2.813,2.813,0,0,1-.666-1.623,2.317,2.317,0,0,1,.1-.863,1.3,1.3,0,0,1,.5-.7.662.662,0,0,1,.819.089,1.556,1.556,0,0,1,.387.728,6.466,6.466,0,0,1,.138,1.567q.017.766.034,1.5c.08,3.9.087,7.063.053,9.246-.016,1.092-.045,1.938-.067,2.513q-.021.427-.032.653c-.008.147-.015.222-.015.222s0-.075,0-.223.011-.369.019-.653c.014-.574.034-1.422.043-2.513.019-2.182,0-5.341-.094-9.243q-.018-.731-.038-1.5a6.408,6.408,0,0,0-.138-1.542,1.462,1.462,0,0,0-.36-.68.562.562,0,0,0-.7-.075,1.2,1.2,0,0,0-.452.643,2.2,2.2,0,0,0-.091.822,2.705,2.705,0,0,0,.644,1.559,2.363,2.363,0,0,0,1.493.862,2.75,2.75,0,0,0,1.746-.384,3.707,3.707,0,0,0,1.313-1.318,5.857,5.857,0,0,0,.6-3.8,3.423,3.423,0,0,0-.264-.962,1.129,1.129,0,0,0-.661-.672.776.776,0,0,0-.821.372,1.628,1.628,0,0,0-.27.957,6.137,6.137,0,0,0,.114,1.039c.058.348.125.7.208,1.042a6.621,6.621,0,0,0,.769,1.985,2.876,2.876,0,0,0,.708.792,2.207,2.207,0,0,0,.97.418,2.674,2.674,0,0,0,2.016-.614,3.925,3.925,0,0,0,1.232-1.769,7.267,7.267,0,0,0,.417-2.123,5.751,5.751,0,0,0-.174-2.112,1.58,1.58,0,0,0-.6-.809.913.913,0,0,0-.937-.1,1.352,1.352,0,0,0-.6.774,3,3,0,0,0-.161,1,4.152,4.152,0,0,0,.463,1.942A3.458,3.458,0,0,0,183,162.476a3.273,3.273,0,0,0,1.846.431,3.026,3.026,0,0,0,1.721-.662,1.969,1.969,0,0,0,.777-1.56,1.577,1.577,0,0,0-.279-.821.969.969,0,0,0-.7-.435,1.045,1.045,0,0,0-.76.295,1.785,1.785,0,0,0-.463.694,5.505,5.505,0,0,0-.255,1.648q-.043.829-.083,1.627-.073,1.6-.1,3.061c-.087,3.9.021,7.06.122,9.241.054,1.09.105,1.936.142,2.509.018.284.032.5.041.653S185.018,179.379,185.018,179.379Z" transform="translate(-173.356 -157.12)" fill="#fff"/>
            </g>
          </g>
          <g id="Grupo_956881" data-name="Grupo 956881" transform="translate(1.133 15.95)">
            <g id="Grupo_956880" data-name="Grupo 956880">
              <path id="Trazado_630063" data-name="Trazado 630063" d="M159.571,173.338a1.4,1.4,0,0,1-.206-.075c-.132-.057-.333-.128-.581-.246a15.669,15.669,0,0,1-2.034-1.113,16.606,16.606,0,0,1-2.684-2.15,16.4,16.4,0,0,1-4.284-7.169,16.623,16.623,0,0,1-.622-3.383,15.651,15.651,0,0,1-.017-2.318c.013-.274.045-.484.058-.628a1.457,1.457,0,0,1,.031-.217,1.361,1.361,0,0,1-.005.22c-.005.144-.029.355-.034.628a17.329,17.329,0,0,0,.058,2.308,16.925,16.925,0,0,0,7.55,12.633,17.352,17.352,0,0,0,2.005,1.145c.243.125.44.2.569.267A1.481,1.481,0,0,1,159.571,173.338Z" transform="translate(-149.108 -156.038)" fill="#263238"/>
            </g>
          </g>
          <g id="Grupo_956883" data-name="Grupo 956883" transform="translate(1.611 12.57)">
            <g id="Grupo_956882" data-name="Grupo 956882">
              <path id="Trazado_630064" data-name="Trazado 630064" d="M150.752,147.967a6.613,6.613,0,0,1-.494,1.78,6.656,6.656,0,0,1,.494-1.78Z" transform="translate(-150.25 -147.967)" fill="#263238"/>
            </g>
          </g>
          <g id="Grupo_956885" data-name="Grupo 956885" transform="translate(28.649 5.467)">
            <g id="Grupo_956884" data-name="Grupo 956884">
              <path id="Trazado_630065" data-name="Trazado 630065" d="M219.757,148a1.062,1.062,0,0,1,.034-.187c.031-.133.071-.309.122-.529L220,146.9c.029-.14.049-.295.078-.46.05-.331.131-.7.157-1.125q.029-.315.061-.658c.019-.229.014-.468.023-.715.026-.495-.012-1.022-.037-1.577a17.161,17.161,0,0,0-2.011-6.894c-.278-.482-.529-.948-.817-1.35-.14-.2-.264-.409-.4-.591l-.405-.522c-.248-.341-.516-.612-.736-.864-.113-.124-.213-.243-.313-.346l-.281-.272-.387-.381a1.087,1.087,0,0,1-.129-.139,1.041,1.041,0,0,1,.147.12l.4.364.291.266c.1.1.206.218.322.34a11,11,0,0,1,.755.856l.414.519c.142.182.269.387.412.591.294.4.55.87.833,1.353a16.849,16.849,0,0,1,2.025,6.943c.022.56.057,1.091.025,1.589-.011.249-.008.49-.03.72s-.047.45-.07.661a10.989,10.989,0,0,1-.176,1.128c-.032.165-.056.32-.089.46l-.1.38-.146.524A1.083,1.083,0,0,1,219.757,148Z" transform="translate(-214.802 -131.011)" fill="#263238"/>
            </g>
          </g>
          <g id="Grupo_956887" data-name="Grupo 956887" transform="translate(3.122 3.099)" opacity="0.2">
            <g id="Grupo_956886" data-name="Grupo 956886">
              <path id="Trazado_630066" data-name="Trazado 630066" d="M168.266,127.273a3.179,3.179,0,0,0-2.078-1.652,5.62,5.62,0,0,0-4.238.351,13.532,13.532,0,0,0-7.584,8.568c-.5,1.451-.789,3.863-.112,5.318a2.9,2.9,0,0,0,1.707,1.574c2,.643,3.655-1.27,4.332-3.122.632-1.727.9-3.689,2.176-5.011,1.052-1.089,2.593-1.525,3.889-2.308S168.8,128.688,168.266,127.273Z" transform="translate(-153.858 -125.357)" fill="#fff"/>
            </g>
          </g>
          <g id="Grupo_956889" data-name="Grupo 956889" transform="translate(19.773 3.113)" opacity="0.2">
            <g id="Grupo_956888" data-name="Grupo 956888">
              <path id="Trazado_630067" data-name="Trazado 630067" d="M198.543,126.8a2.835,2.835,0,0,0-3.239-1.274,2.906,2.906,0,0,0-1.631,1.947,2.664,2.664,0,0,0,1.1,2.767,2.518,2.518,0,0,0,2.948-.2A3.09,3.09,0,0,0,198.543,126.8Z" transform="translate(-193.61 -125.39)" fill="#fff"/>
            </g>
          </g>
          <g id="Grupo_956922" data-name="Grupo 956922" transform="translate(8.826 34.291)">
            <g id="_2gGvdE.tif" data-name="2gGvdE.tif" transform="translate(4.925 13.189)">
              <g id="Grupo_956890" data-name="Grupo 956890">
                <path id="Trazado_630068" data-name="Trazado 630068" d="M179.232,231.311a4.884,4.884,0,0,1,1,.935,1.05,1.05,0,0,0,.819.42l3.148.088a1.06,1.06,0,0,0,.895-.44,1.972,1.972,0,0,1,1.1-.807Z" transform="translate(-179.232 -231.311)" fill="#455a64"/>
              </g>
            </g>
            <g id="Grupo_956891" data-name="Grupo 956891" transform="translate(1.765 4.328)">
              <path id="Trazado_630069" data-name="Trazado 630069" d="M171.687,210.157c0,.063.589,5,.816,6.888a2.316,2.316,0,0,0,1.251,1.818,2.149,2.149,0,0,0,.89.222l6.885.194s1.8.051,2.247-1.365c.472-1.49,1.451-7.375,1.451-7.375Z" transform="translate(-171.687 -210.157)" fill="#263238"/>
            </g>
            <g id="Grupo_956895" data-name="Grupo 956895" transform="translate(1.925 10.365)">
              <g id="Grupo_956892" data-name="Grupo 956892" transform="translate(0.05 0.05)">
                <rect id="Rectángulo_306911" data-name="Rectángulo 306911" width="0.72" height="12.681" rx="0.36" transform="translate(0 0.72) rotate(-88.587)" fill="#e0e0e0"/>
              </g>
              <g id="Grupo_956894" data-name="Grupo 956894">
                <g id="Grupo_956893" data-name="Grupo 956893">
                  <path id="Trazado_630070" data-name="Trazado 630070" d="M184.457,225.642a.384.384,0,0,0,.234-.1.349.349,0,0,0,.1-.284.323.323,0,0,0-.243-.3c-.651-.027-1.62-.031-2.8-.059l-9.265-.212a.284.284,0,0,0-.289.251.422.422,0,0,0,.008.145.285.285,0,0,0,.183.193,1.671,1.671,0,0,0,.313.02l1.3.033,2.46.064,4.165.115,2.808.088.763.03.2.011a.286.286,0,0,1,.068.008.3.3,0,0,1-.068,0h-.2l-.764-.008-2.808-.051-4.166-.09-2.46-.057-1.3-.031-.166,0a.6.6,0,0,1-.181-.022.4.4,0,0,1-.259-.272.536.536,0,0,1-.011-.188.4.4,0,0,1,.407-.355l9.265.245c1.187.039,2.14.054,2.812.1a.362.362,0,0,1,.266.344.372.372,0,0,1-.117.3A.3.3,0,0,1,184.457,225.642Z" transform="translate(-172.071 -224.569)" fill="#263238"/>
                </g>
              </g>
            </g>
            <g id="Grupo_956899" data-name="Grupo 956899" transform="translate(1.715 8.81)">
              <g id="Grupo_956896" data-name="Grupo 956896" transform="translate(0.05 0.05)">
                <rect id="Rectángulo_306912" data-name="Rectángulo 306912" width="0.72" height="13.189" rx="0.36" transform="translate(0 0.72) rotate(-88.587)" fill="#e0e0e0"/>
              </g>
              <g id="Grupo_956898" data-name="Grupo 956898">
                <g id="Grupo_956897" data-name="Grupo 956897">
                  <path id="Trazado_630071" data-name="Trazado 630071" d="M184.462,221.944a.379.379,0,0,0,.242-.109.36.36,0,0,0,.09-.3.324.324,0,0,0-.279-.287l-2.915-.056-9.625-.22a.285.285,0,0,0-.246.131.279.279,0,0,0-.044.137.343.343,0,0,0,.015.149.283.283,0,0,0,.208.181c.093.012.224.008.333.013l1.352.034,2.555.066,4.326.119,2.917.09.793.03.206.011a.035.035,0,1,1,0,.012h-.206l-.793-.008-2.917-.054-4.327-.094-2.555-.06-1.352-.033c-.119-.006-.219,0-.354-.016a.4.4,0,0,1-.293-.255.454.454,0,0,1-.022-.195.4.4,0,0,1,.062-.193.4.4,0,0,1,.347-.185l9.624.254c1.233.037,2.226.064,2.919.093a.362.362,0,0,1,.307.328.385.385,0,0,1-.109.318A.3.3,0,0,1,184.462,221.944Z" transform="translate(-171.568 -220.857)" fill="#263238"/>
                </g>
              </g>
            </g>
            <g id="Grupo_956903" data-name="Grupo 956903" transform="translate(1.597 7.258)">
              <g id="Grupo_956900" data-name="Grupo 956900" transform="translate(0.058 0.058)">
                <path id="Trazado_630072" data-name="Trazado 630072" d="M184.584,218.326l-12.827-.316a.341.341,0,0,1-.333-.35v-.037a.341.341,0,0,1,.349-.333l12.827.317a.341.341,0,0,1,.333.349v.037A.342.342,0,0,1,184.584,218.326Z" transform="translate(-171.425 -217.29)" fill="#e0e0e0"/>
              </g>
              <g id="Grupo_956902" data-name="Grupo 956902">
                <g id="Grupo_956901" data-name="Grupo 956901">
                  <path id="Trazado_630073" data-name="Trazado 630073" d="M184.5,218.246a.376.376,0,0,0,.246-.113.365.365,0,0,0,.084-.308.322.322,0,0,0-.3-.275l-2.986-.056-9.854-.226a.285.285,0,0,0-.25.137.29.29,0,0,0-.041.142.325.325,0,0,0,.021.151.284.284,0,0,0,.223.171c.105.006.232.007.346.01l1.384.035,2.616.068,4.429.121,2.986.092.812.031.211.011a.331.331,0,0,1,.072.008.324.324,0,0,1-.072,0h-.211l-.813-.009-2.986-.055-4.43-.1-2.616-.061-1.384-.033c-.12,0-.229,0-.359-.011a.4.4,0,0,1-.315-.242.443.443,0,0,1-.03-.2.4.4,0,0,1,.41-.392l9.853.26,2.987.093a.36.36,0,0,1,.331.316.387.387,0,0,1-.1.328A.3.3,0,0,1,184.5,218.246Z" transform="translate(-171.286 -217.151)" fill="#263238"/>
                </g>
              </g>
            </g>
            <g id="Grupo_956907" data-name="Grupo 956907" transform="translate(1.38 5.703)">
              <g id="Grupo_956904" data-name="Grupo 956904" transform="translate(0.05 0.05)">
                <rect id="Rectángulo_306913" data-name="Rectángulo 306913" width="0.72" height="14.034" rx="0.36" transform="translate(0 0.72) rotate(-88.587)" fill="#e0e0e0"/>
              </g>
              <g id="Grupo_956906" data-name="Grupo 956906">
                <g id="Grupo_956905" data-name="Grupo 956905">
                  <path id="Trazado_630074" data-name="Trazado 630074" d="M184.506,214.547a.351.351,0,0,0,.327-.443.326.326,0,0,0-.336-.255l-3.1-.058-10.221-.235a.285.285,0,0,0-.256.146.352.352,0,0,0-.005.3.286.286,0,0,0,.248.154l.366.009,1.435.036,2.714.07,4.595.126,3.1.1.842.031.219.011a.355.355,0,0,1,.074.008.347.347,0,0,1-.075,0h-.219l-.842-.01-3.1-.058-4.6-.1-2.714-.064-1.435-.034-.366-.009a.4.4,0,0,1-.348-.217.477.477,0,0,1,.007-.413.4.4,0,0,1,.36-.207l10.221.269,3.1.1a.365.365,0,0,1,.369.293.4.4,0,0,1-.09.345.338.338,0,0,1-.195.1A.219.219,0,0,1,184.506,214.547Z" transform="translate(-170.768 -213.439)" fill="#263238"/>
                </g>
              </g>
            </g>
            <g id="Grupo_956908" data-name="Grupo 956908" transform="translate(0.149 0.034)">
              <path id="Trazado_630075" data-name="Trazado 630075" d="M167.83,199.9c0,.128.2,3.147.3,4.7a1.863,1.863,0,0,0,.8,1.412l.689.474,13.311.375.7-.428a1.864,1.864,0,0,0,.884-1.384l.527-4.66Z" transform="translate(-167.83 -199.905)" fill="#ef8b53"/>
            </g>
            <g id="Grupo_956910" data-name="Grupo 956910" transform="translate(2.763 11.124)" opacity="0.3">
              <g id="Grupo_956909" data-name="Grupo 956909">
                <path id="Trazado_630076" data-name="Trazado 630076" d="M174.07,226.382a17.341,17.341,0,0,0,3.959.42c1.136.027,2.25.09,3.484.1.9.007,1.737-.016,2.64-.029a2.482,2.482,0,0,0,1.054-.2Z" transform="translate(-174.07 -226.382)"/>
              </g>
            </g>
            <g id="Grupo_956912" data-name="Grupo 956912" transform="translate(2.332 9.556)" opacity="0.3">
              <g id="Grupo_956911" data-name="Grupo 956911">
                <path id="Trazado_630077" data-name="Trazado 630077" d="M173.042,222.639a20.146,20.146,0,0,0,4.268.429c1.225.029,2.426.095,3.756.106.975.009,1.873-.011,2.845-.023a2.847,2.847,0,0,0,1.136-.195Z" transform="translate(-173.042 -222.639)"/>
              </g>
            </g>
            <g id="Grupo_956914" data-name="Grupo 956914" transform="translate(2.375 8.019)" opacity="0.3">
              <g id="Grupo_956913" data-name="Grupo 956913">
                <path id="Trazado_630078" data-name="Trazado 630078" d="M173.145,218.969a20.148,20.148,0,0,0,4.269.429c1.225.029,2.425.095,3.756.106.975.009,1.873-.011,2.846-.023a2.84,2.84,0,0,0,1.136-.2Z" transform="translate(-173.145 -218.969)"/>
              </g>
            </g>
            <g id="Grupo_956916" data-name="Grupo 956916" transform="translate(2.419 6.482)" opacity="0.3">
              <g id="Grupo_956915" data-name="Grupo 956915">
                <path id="Trazado_630079" data-name="Trazado 630079" d="M173.248,215.3a20.155,20.155,0,0,0,4.269.429c1.225.029,2.426.095,3.756.106.975.009,1.873-.011,2.845-.023a2.839,2.839,0,0,0,1.136-.2Z" transform="translate(-173.248 -215.299)"/>
              </g>
            </g>
            <g id="Grupo_956919" data-name="Grupo 956919" transform="translate(0.594 5.356)">
              <g id="Grupo_956918" data-name="Grupo 956918">
                <path id="Trazado_630081" data-name="Trazado 630081" d="M184.795,213.066c0,.032-3.562-.042-7.953-.166s-7.952-.25-7.95-.282,3.561.042,7.954.166S184.8,213.034,184.795,213.066Z" transform="translate(-168.891 -212.61)" fill="#263238"/>
              </g>
            </g>
            <g id="Grupo_956921" data-name="Grupo 956921">
              <g id="Grupo_956920" data-name="Grupo 956920">
                <path id="Trazado_630082" data-name="Trazado 630082" d="M184.75,200.253c0,.036-3.867-.029-8.637-.145s-8.639-.238-8.639-.274,3.867.029,8.638.145S184.75,200.217,184.75,200.253Z" transform="translate(-167.474 -199.824)" fill="#263238"/>
              </g>
            </g>
          </g>
        </g>
      </g>
    </g>
    <g id="Character" transform="translate(102.72 81.222)">
      <g id="Grupo_957063" data-name="Grupo 957063">
        <path id="Trazado_630083" data-name="Trazado 630083" d="M245.492,195.649a45.748,45.748,0,0,0-2.552-12.2,20.027,20.027,0,0,0-7.519-9.734l-.9.839a5.233,5.233,0,0,0-9.137-1.4A5.167,5.167,0,0,0,219.736,181a4.737,4.737,0,0,0-2.108,8.588,6.893,6.893,0,0,0,4.25,12.1,5.448,5.448,0,0,0,9.516,4.777,5.482,5.482,0,0,0,4.212,5.424,7.452,7.452,0,0,0,6.82-2.143,11.838,11.838,0,0,0,3.11-6.654A29.892,29.892,0,0,0,245.492,195.649Z" transform="translate(-215.264 -163.308)" fill="#263238"/>
        <g id="Grupo_957018" data-name="Grupo 957018" transform="translate(15.245)">
          <g id="Grupo_956959" data-name="Grupo 956959">
            <g id="Grupo_956925" data-name="Grupo 956925" transform="translate(0 13.959)">
              <path id="Trazado_630084" data-name="Trazado 630084" d="M255.474,185.9c-2.414.782-2.908,2.736-3.409,4.365-1.079,3.506.134,8.7,2.1,11.795s4.114,4.675,7.745,5.2q.177-8.349.354-16.7Z" transform="translate(-251.66 -185.896)" fill="#ff725e"/>
            </g>
            <g id="Grupo_956958" data-name="Grupo 956958" transform="translate(1.28)">
              <g id="Grupo_956957" data-name="Grupo 956957">
                <g id="Grupo_956927" data-name="Grupo 956927" transform="translate(0.071 0.096)">
                  <g id="Grupo_956926" data-name="Grupo 956926">
                    <path id="Trazado_630085" data-name="Trazado 630085" d="M255.986,176.248a5.782,5.782,0,0,1,.513-7.4c-1.057-1.327-.677-3.376.4-4.689a11.316,11.316,0,0,1,4.21-2.78,7.784,7.784,0,0,1,9.071-5.684c2.013-2.96,6.3-3.424,9.739-2.422a9.155,9.155,0,0,0,2.552.557,14.939,14.939,0,0,0,1.9-.263c3.5-.47,6.966,1.991,8.329,5.244a6.472,6.472,0,0,0,.743,1.514,8.769,8.769,0,0,0,1.727,1.381,5.583,5.583,0,0,1,2.139,4.128c.057,1.358-.375,2.8.2,4.032.287.618.8,1.117,1.027,1.761.646,1.865-1.421,3.772-1.038,5.708.078.4.256.763.366,1.151a3.446,3.446,0,0,1-.21,2.408,4.935,4.935,0,0,0-.758,1.731,5.593,5.593,0,0,0,.282,1.413c.236,1.156-2.258,5.614-3.257,6.242l-29.851.267a5.578,5.578,0,0,1-4.316-4.8,2.04,2.04,0,0,0-.279-1.1,2.385,2.385,0,0,0-.815-.529c-1.922-1.032-2.154-3.671-1.952-5.843a2.65,2.65,0,0,0-.017-.911A3.337,3.337,0,0,0,255.986,176.248Z" transform="translate(-254.886 -152.799)" fill="#263238"/>
                  </g>
                </g>
                <g id="Grupo_956929" data-name="Grupo 956929" transform="translate(9.721 7.74)">
                  <g id="Grupo_956928" data-name="Grupo 956928">
                    <path id="Trazado_630086" data-name="Trazado 630086" d="M277.926,186.9a15.984,15.984,0,0,1,8.473-13.936,19.743,19.743,0,0,1,7.628-1.842,12.092,12.092,0,0,1,7.04,1.477c1.645.387,7.675,5.907,7.988,11.9.348,6.655.51,14.795-.331,19.749-1.692,9.962-9.354,11.15-9.354,11.15,0-.015.713,16.559.713,16.559l-14.725,12.068-5.733-19.168Z" transform="translate(-277.924 -171.048)" fill="#ffbf9d"/>
                  </g>
                </g>
                <g id="Grupo_956935" data-name="Grupo 956935" transform="translate(17.796 48.376)">
                  <g id="Grupo_956934" data-name="Grupo 956934">
                    <g id="Grupo_956933" data-name="Grupo 956933">
                      <g id="Grupo_956932" data-name="Grupo 956932">
                        <g id="Grupo_956931" data-name="Grupo 956931">
                          <g id="Grupo_956930" data-name="Grupo 956930">
                            <path id="Trazado_630087" data-name="Trazado 630087" d="M310.574,271.769a25.488,25.488,0,0,1-13.37-3.706s3.482,7.072,13.479,6.245Z" transform="translate(-297.204 -268.063)" fill="#ff9a6c"/>
                          </g>
                        </g>
                      </g>
                    </g>
                  </g>
                </g>
                <g id="Grupo_956941" data-name="Grupo 956941" transform="translate(4.083 30.328)">
                  <g id="Grupo_956940" data-name="Grupo 956940">
                    <g id="Grupo_956939" data-name="Grupo 956939">
                      <g id="Grupo_956938" data-name="Grupo 956938">
                        <g id="Grupo_956937" data-name="Grupo 956937">
                          <g id="Grupo_956936" data-name="Grupo 956936">
                            <path id="Trazado_630088" data-name="Trazado 630088" d="M271.61,227.709c.006-.743-.834-2.5-1.567-2.627-1.957-.326-5.49-.207-5.576,4.77-.118,6.8,6.737,5.518,6.752,5.323C271.231,235.022,271.589,230.275,271.61,227.709Z" transform="translate(-264.465 -224.974)" fill="#ffbf9d"/>
                          </g>
                        </g>
                      </g>
                    </g>
                  </g>
                </g>
                <g id="Grupo_956948" data-name="Grupo 956948" transform="translate(6.009 32.606)">
                  <g id="Grupo_956947" data-name="Grupo 956947">
                    <g id="Grupo_956946" data-name="Grupo 956946">
                      <g id="Grupo_956945" data-name="Grupo 956945">
                        <g id="Grupo_956944" data-name="Grupo 956944">
                          <g id="Grupo_956943" data-name="Grupo 956943">
                            <g id="Grupo_956942" data-name="Grupo 956942">
                              <path id="Trazado_630089" data-name="Trazado 630089" d="M272.057,235.817c-.03-.022-.12.081-.322.169a1.186,1.186,0,0,1-.887,0,2.932,2.932,0,0,1-1.311-2.654,3.912,3.912,0,0,1,.361-1.691,1.366,1.366,0,0,1,.907-.894.6.6,0,0,1,.694.336c.088.192.042.327.078.339.018.018.148-.111.1-.392a.755.755,0,0,0-.261-.431.9.9,0,0,0-.652-.184,1.664,1.664,0,0,0-1.256,1.033,4.021,4.021,0,0,0-.444,1.889,3.077,3.077,0,0,0,1.678,2.968,1.27,1.27,0,0,0,1.087-.162C272.042,235.982,272.08,235.83,272.057,235.817Z" transform="translate(-269.063 -230.413)" fill="#ff9a6c"/>
                            </g>
                          </g>
                        </g>
                      </g>
                    </g>
                  </g>
                </g>
                <path id="Trazado_630090" data-name="Trazado 630090" d="M305.43,178.939a18.04,18.04,0,0,0-2.393-6.99,14.482,14.482,0,0,0-3.073-4.1,16,16,0,0,0-3.674-2.216c-3.408-1.616-7.21-2.988-10.89-2.159a18.75,18.75,0,0,0-5.484,2.547,20.534,20.534,0,0,0-3.768,2.717A15.424,15.424,0,0,0,273.7,172a21.1,21.1,0,0,0-3.033,9.161c-.223,3.238-2.673,6.1-.774,8.734.147.2,3.528.9,3.762,1,.55.219,1.154-.378,1.149-.969a2.179,2.179,0,0,0-.849-1.5,1.644,1.644,0,0,0,1.366-1.807,4.451,4.451,0,0,0-1.051-2.259.651.651,0,0,1-.146-.291c-.036-.287.289-.464.538-.611a2.29,2.29,0,0,0,.242-3.586,3.072,3.072,0,0,0,2.1-3.89.984.984,0,0,1-.1-.759c.114-.226.395-.3.637-.369a3.9,3.9,0,0,0,2.612-4.393,9.8,9.8,0,0,0,2.824-.125,3.3,3.3,0,0,0,2.227-1.608,3.685,3.685,0,0,0,6.233.334,9.636,9.636,0,0,0,4.67-.723,4.558,4.558,0,0,0,2.97,3.2c.281.091.6.179.739.441a1.071,1.071,0,0,1,.062.553c-.05.95.6,1.355,1.121,2.148s1.437,1.977,2.351,1.715a3.956,3.956,0,0,0,2.13,3.668Z" transform="translate(-263.119 -158.763)" fill="#263238"/>
                <g id="Grupo_956950" data-name="Grupo 956950">
                  <g id="Grupo_956949" data-name="Grupo 956949">
                    <path id="Trazado_630091" data-name="Trazado 630091" d="M298.435,171.5a2.591,2.591,0,0,0-.36-.733c-.142-.228-.343-.493-.533-.832a3.171,3.171,0,0,1-.37-1.275,9.9,9.9,0,0,1,.045-1.683,7.485,7.485,0,0,0-.036-2.021,5.676,5.676,0,0,0-.875-2.151,5.567,5.567,0,0,0-.828-.97,8.311,8.311,0,0,0-1.068-.809,4.221,4.221,0,0,1-1.026-.9,5.483,5.483,0,0,1-.633-1.286,9.129,9.129,0,0,0-4.248-4.7,8.1,8.1,0,0,0-1.632-.63,7.306,7.306,0,0,0-1.786-.218,8.377,8.377,0,0,0-.917.065c-.3.044-.605.106-.906.157a4.39,4.39,0,0,1-1.818-.014c-.608-.125-1.2-.35-1.831-.512a11.932,11.932,0,0,0-3.919-.393,10.37,10.37,0,0,0-2,.351,6.708,6.708,0,0,0-3.444,2.231l-.255.333.109-.042a7.894,7.894,0,0,0-9.191,5.762l.054-.067a21.524,21.524,0,0,0-2.4,1.239,7.17,7.17,0,0,0-1.962,1.725,4.662,4.662,0,0,0-.905,2.341,3.212,3.212,0,0,0,.63,2.305l.007-.114a5.633,5.633,0,0,0-1.6,3.48,5.768,5.768,0,0,0,.679,3.387,5.542,5.542,0,0,0,.446.677,7.328,7.328,0,0,1,.463.611,1.452,1.452,0,0,1,.237.669,4.1,4.1,0,0,1-.025.706,11.177,11.177,0,0,0,.051,2.583,5.4,5.4,0,0,0,.653,1.971,3.337,3.337,0,0,0,1.049,1.113c.349.235.659.327.831.454a1.558,1.558,0,0,1,.246.207.79.79,0,0,0-.231-.229c-.17-.137-.48-.239-.817-.476a3.322,3.322,0,0,1-1.012-1.108,5.371,5.371,0,0,1-.621-1.947,11.16,11.16,0,0,1-.029-2.558,4.233,4.233,0,0,0,.03-.728,1.58,1.58,0,0,0-.251-.726,7.286,7.286,0,0,0-.467-.625,5.515,5.515,0,0,1-.431-.662,5.636,5.636,0,0,1-.646-3.3,5.479,5.479,0,0,1,1.561-3.374l.055-.054-.048-.06a3.041,3.041,0,0,1-.587-2.184,4.486,4.486,0,0,1,.876-2.246,6.987,6.987,0,0,1,1.915-1.674,21.5,21.5,0,0,1,2.377-1.223l.044-.021.01-.047a7.7,7.7,0,0,1,8.952-5.6l.065.015.044-.058.246-.321a6.51,6.51,0,0,1,3.341-2.162,10.186,10.186,0,0,1,1.956-.344,11.754,11.754,0,0,1,3.853.382c.616.158,1.216.384,1.843.512a4.716,4.716,0,0,0,.951.106,5.6,5.6,0,0,0,.939-.095c.306-.052.6-.114.9-.158a8.2,8.2,0,0,1,.891-.065,7.141,7.141,0,0,1,1.739.208,7.935,7.935,0,0,1,1.6.612,8.973,8.973,0,0,1,4.183,4.594,5.642,5.642,0,0,0,.659,1.319,4.356,4.356,0,0,0,1.066.929,8.209,8.209,0,0,1,1.056.79,5.434,5.434,0,0,1,.814.942,5.558,5.558,0,0,1,.87,2.1,7.4,7.4,0,0,1,.051,1.992,9.845,9.845,0,0,0-.027,1.7,3.209,3.209,0,0,0,.4,1.3c.2.342.4.6.552.825a4.026,4.026,0,0,1,.307.522C298.407,171.432,298.429,171.5,298.435,171.5Z" transform="translate(-254.717 -152.57)" fill="#455a64"/>
                  </g>
                </g>
                <g id="Grupo_956952" data-name="Grupo 956952" transform="translate(18.567 0.66)">
                  <g id="Grupo_956951" data-name="Grupo 956951">
                    <path id="Trazado_630092" data-name="Trazado 630092" d="M299.044,155.013c.01.015.181-.1.513-.261a4.579,4.579,0,0,1,1.486-.421,4.3,4.3,0,0,1,2.234.343,4.437,4.437,0,0,1,2.021,1.86,3.792,3.792,0,0,1,.332.772.851.851,0,0,1-.055.716l-.168.23.275-.075a2.816,2.816,0,0,1,2.1.267,2.717,2.717,0,0,1,1.144,1.268,2.973,2.973,0,0,1,.257,1.123c.008.273-.016.422,0,.424s.017-.035.032-.106a1.851,1.851,0,0,0,.037-.317,2.84,2.84,0,0,0-1.384-2.541,2.961,2.961,0,0,0-2.241-.31l.108.155a1.04,1.04,0,0,0,.09-.886,3.89,3.89,0,0,0-.35-.819,4.555,4.555,0,0,0-2.123-1.932,4.344,4.344,0,0,0-2.328-.315,4.255,4.255,0,0,0-1.506.494,3.011,3.011,0,0,0-.362.232C299.078,154.973,299.039,155.007,299.044,155.013Z" transform="translate(-299.043 -154.145)" fill="#455a64"/>
                  </g>
                </g>
                <g id="Grupo_956954" data-name="Grupo 956954" transform="translate(7.465 9.249)">
                  <g id="Grupo_956953" data-name="Grupo 956953">
                    <path id="Trazado_630093" data-name="Trazado 630093" d="M272.54,174.653c-.008.009.072.1.236.245a4.416,4.416,0,0,0,.766.541,3.252,3.252,0,0,0,1.354.418,2.429,2.429,0,0,0,1.693-.5l-.15-.024.2.281c.072.092.152.179.23.27a4.118,4.118,0,0,0,1.691,1.071,4.217,4.217,0,0,0,1.62.216,3.749,3.749,0,0,0,1.074-.235,1.344,1.344,0,0,0,.356-.187,5.875,5.875,0,0,1-1.437.278,4.318,4.318,0,0,1-1.551-.25,4.062,4.062,0,0,1-1.6-1.033c-.073-.086-.15-.168-.218-.255l-.188-.264-.066-.093-.084.069a2.288,2.288,0,0,1-1.554.474,3.272,3.272,0,0,1-1.3-.358C272.913,174.963,272.563,174.623,272.54,174.653Z" transform="translate(-272.54 -174.651)" fill="#455a64"/>
                  </g>
                </g>
                <g id="Grupo_956956" data-name="Grupo 956956" transform="translate(3.818 14.958)">
                  <g id="Grupo_956955" data-name="Grupo 956955">
                    <path id="Trazado_630094" data-name="Trazado 630094" d="M263.834,188.855c-.007,0,0,.044.016.126a1.161,1.161,0,0,0,.149.33,1.815,1.815,0,0,0,1.09.738,3.468,3.468,0,0,0,1.945-.2,11.125,11.125,0,0,0,1.077-.415,1.861,1.861,0,0,0,.946-.849l.044-.109-.161.047a7.787,7.787,0,0,0,2.008,1.228,3.506,3.506,0,0,0,1.909.212,2.524,2.524,0,0,0,1.181-.526,1.579,1.579,0,0,0,.248-.25c.049-.064.072-.1.067-.1s-.121.117-.363.291a2.63,2.63,0,0,1-1.156.447,3.454,3.454,0,0,1-1.817-.245,7.978,7.978,0,0,1-1.949-1.213l-.108-.086-.053.133-.036.091a1.683,1.683,0,0,1-.847.752c-.348.166-.712.294-1.051.417a3.418,3.418,0,0,1-1.85.233,1.8,1.8,0,0,1-1.059-.642A3,3,0,0,1,263.834,188.855Z" transform="translate(-263.831 -188.281)" fill="#455a64"/>
                  </g>
                </g>
              </g>
            </g>
          </g>
          <g id="Grupo_956968" data-name="Grupo 956968" transform="translate(24.561 28.613)">
            <g id="Grupo_956967" data-name="Grupo 956967">
              <g id="Grupo_956966" data-name="Grupo 956966">
                <g id="Grupo_956965" data-name="Grupo 956965">
                  <g id="Grupo_956964" data-name="Grupo 956964">
                    <g id="Grupo_956963" data-name="Grupo 956963">
                      <g id="Grupo_956962" data-name="Grupo 956962">
                        <g id="Grupo_956961" data-name="Grupo 956961">
                          <g id="Grupo_956960" data-name="Grupo 956960">
                            <path id="Trazado_630095" data-name="Trazado 630095" d="M312.805,221.979a1.259,1.259,0,0,1-1.172,1.308A1.2,1.2,0,0,1,310.3,222.2a1.26,1.26,0,0,1,1.171-1.309A1.2,1.2,0,0,1,312.805,221.979Z" transform="translate(-310.297 -220.881)" fill="#263238"/>
                          </g>
                        </g>
                      </g>
                    </g>
                  </g>
                </g>
              </g>
            </g>
          </g>
          <g id="Grupo_956977" data-name="Grupo 956977" transform="translate(36.398 27.916)">
            <g id="Grupo_956976" data-name="Grupo 956976">
              <g id="Grupo_956975" data-name="Grupo 956975">
                <g id="Grupo_956974" data-name="Grupo 956974">
                  <g id="Grupo_956973" data-name="Grupo 956973">
                    <g id="Grupo_956972" data-name="Grupo 956972">
                      <g id="Grupo_956971" data-name="Grupo 956971">
                        <g id="Grupo_956970" data-name="Grupo 956970">
                          <g id="Grupo_956969" data-name="Grupo 956969">
                            <path id="Trazado_630096" data-name="Trazado 630096" d="M341.067,220.315a1.259,1.259,0,0,1-1.172,1.309,1.2,1.2,0,0,1-1.334-1.093,1.26,1.26,0,0,1,1.171-1.309A1.2,1.2,0,0,1,341.067,220.315Z" transform="translate(-338.559 -219.217)" fill="#263238"/>
                          </g>
                        </g>
                      </g>
                    </g>
                  </g>
                </g>
              </g>
            </g>
          </g>
          <g id="Grupo_956987" data-name="Grupo 956987" transform="translate(34.785 23.594)">
            <g id="Grupo_956986" data-name="Grupo 956986">
              <g id="Grupo_956985" data-name="Grupo 956985">
                <g id="Grupo_956984" data-name="Grupo 956984">
                  <g id="Grupo_956983" data-name="Grupo 956983">
                    <g id="Grupo_956982" data-name="Grupo 956982">
                      <g id="Grupo_956981" data-name="Grupo 956981">
                        <g id="Grupo_956980" data-name="Grupo 956980">
                          <g id="Grupo_956979" data-name="Grupo 956979">
                            <g id="Grupo_956978" data-name="Grupo 956978">
                              <path id="Trazado_630097" data-name="Trazado 630097" d="M339.681,210.144c-.151.169-1.126-.506-2.48-.459-1.353.028-2.324.756-2.476.6-.075-.071.075-.372.5-.7a3.459,3.459,0,0,1,1.976-.679,3.318,3.318,0,0,1,1.981.57C339.6,209.776,339.755,210.068,339.681,210.144Z" transform="translate(-334.706 -208.898)" fill="#263238"/>
                            </g>
                          </g>
                        </g>
                      </g>
                    </g>
                  </g>
                </g>
              </g>
            </g>
          </g>
          <g id="Grupo_956997" data-name="Grupo 956997" transform="translate(21.338 24.013)">
            <g id="Grupo_956996" data-name="Grupo 956996">
              <g id="Grupo_956995" data-name="Grupo 956995">
                <g id="Grupo_956994" data-name="Grupo 956994">
                  <g id="Grupo_956993" data-name="Grupo 956993">
                    <g id="Grupo_956992" data-name="Grupo 956992">
                      <g id="Grupo_956991" data-name="Grupo 956991">
                        <g id="Grupo_956990" data-name="Grupo 956990">
                          <g id="Grupo_956989" data-name="Grupo 956989">
                            <g id="Grupo_956988" data-name="Grupo 956988">
                              <path id="Trazado_630098" data-name="Trazado 630098" d="M307.561,211.4c-.168.152-1.07-.619-2.421-.711-1.348-.112-2.39.513-2.524.338-.067-.079.111-.363.567-.647a3.455,3.455,0,0,1,2.035-.473,3.323,3.323,0,0,1,1.912.77C307.522,211.026,307.642,211.333,307.561,211.4Z" transform="translate(-302.603 -209.898)" fill="#263238"/>
                            </g>
                          </g>
                        </g>
                      </g>
                    </g>
                  </g>
                </g>
              </g>
            </g>
          </g>
          <g id="Grupo_957006" data-name="Grupo 957006" transform="translate(30.349 24.418)">
            <g id="Grupo_957005" data-name="Grupo 957005">
              <g id="Grupo_957004" data-name="Grupo 957004">
                <g id="Grupo_957003" data-name="Grupo 957003">
                  <g id="Grupo_957002" data-name="Grupo 957002">
                    <g id="Grupo_957001" data-name="Grupo 957001">
                      <g id="Grupo_957000" data-name="Grupo 957000">
                        <g id="Grupo_956999" data-name="Grupo 956999">
                          <g id="Grupo_956998" data-name="Grupo 956998">
                            <path id="Trazado_630099" data-name="Trazado 630099" d="M325.112,222.125a8.989,8.989,0,0,1,2.186-.467c.344-.047.669-.126.72-.364a1.761,1.761,0,0,0-.263-1.017q-.528-1.239-1.107-2.6a45.209,45.209,0,0,1-2.517-6.812,45.377,45.377,0,0,1,3.06,6.593q.557,1.37,1.064,2.617a2,2,0,0,1,.223,1.351.868.868,0,0,1-.552.524,2.345,2.345,0,0,1-.585.1A8.8,8.8,0,0,1,325.112,222.125Z" transform="translate(-324.117 -210.865)" fill="#263238"/>
                          </g>
                        </g>
                      </g>
                    </g>
                  </g>
                </g>
              </g>
            </g>
          </g>
          <path id="Trazado_630100" data-name="Trazado 630100" d="M319.175,242.514a1.932,1.932,0,0,0-1.31.758,2,2,0,0,0-.216,1.8c.251.33,1.369.328,2.138.232a.946.946,0,0,0,.772-.631l.3-.874a.943.943,0,0,0-.588-1.213A2.524,2.524,0,0,0,319.175,242.514Z" transform="translate(-289.927 -204.824)" fill="#ff9a6c"/>
          <g id="Grupo_957011" data-name="Grupo 957011" transform="translate(20.68 18.525)">
            <g id="Grupo_957010" data-name="Grupo 957010">
              <g id="Grupo_957009" data-name="Grupo 957009">
                <g id="Grupo_957008" data-name="Grupo 957008">
                  <g id="Grupo_957007" data-name="Grupo 957007">
                    <path id="Trazado_630101" data-name="Trazado 630101" d="M307.217,198.4c-.2.336-1.5-.094-3.092-.21-1.595-.148-2.941.064-3.085-.3-.062-.173.223-.47.8-.721a5.387,5.387,0,0,1,4.706.389C307.074,197.895,307.307,198.235,307.217,198.4Z" transform="translate(-301.032 -196.796)" fill="#263238"/>
                  </g>
                </g>
              </g>
            </g>
          </g>
          <g id="Grupo_957016" data-name="Grupo 957016" transform="translate(34.195 21.105)">
            <g id="Grupo_957015" data-name="Grupo 957015">
              <g id="Grupo_957014" data-name="Grupo 957014">
                <g id="Grupo_957013" data-name="Grupo 957013">
                  <g id="Grupo_957012" data-name="Grupo 957012">
                    <path id="Trazado_630102" data-name="Trazado 630102" d="M338.615,203.967c-.223.347-1.341.2-2.626.4-1.29.153-2.336.586-2.638.309-.134-.137-.012-.468.416-.833a4.117,4.117,0,0,1,2.051-.841,4.059,4.059,0,0,1,2.19.273C338.512,203.51,338.711,203.8,338.615,203.967Z" transform="translate(-333.299 -202.957)" fill="#263238"/>
                  </g>
                </g>
              </g>
            </g>
          </g>
          <g id="Grupo_957017" data-name="Grupo 957017" transform="translate(27.13 38.677)">
            <path id="Trazado_630103" data-name="Trazado 630103" d="M320.1,246.561c-.025-.017-.005-.1.043-.221a1.748,1.748,0,0,0,.14-.5c.013-.2-.072-.439-.27-.48a1.437,1.437,0,0,0-.429-.019c-.17.005-.346.017-.526.03-1.443.108-2.578.48-2.623.362a4.6,4.6,0,0,1,2.589-.8c.189-.013.373-.023.552-.023a1.6,1.6,0,0,1,.568.066.691.691,0,0,1,.42.428.879.879,0,0,1,.026.48,1.237,1.237,0,0,1-.3.547C320.189,246.533,320.123,246.577,320.1,246.561Z" transform="translate(-316.431 -244.909)" fill="#263238"/>
          </g>
        </g>
        <g id="Grupo_957029" data-name="Grupo 957029" transform="translate(11.458 57.076)">
          <g id="Grupo_957019" data-name="Grupo 957019">
            <path id="Trazado_630104" data-name="Trazado 630104" d="M242.619,316.958l11.123,29.983-5.985,16.947H303.7s-3.435-15.725-3.645-19.26,0-23.713-1.684-30.637-6.5-21.764-6.5-21.764l-14.18-2.251c-6.5,3.492-11.607,2.905-18.6-1.141l-12.854,6.317Z" transform="translate(-242.619 -288.834)" fill="#583cb6"/>
          </g>
          <g id="Grupo_957020" data-name="Grupo 957020" transform="translate(46.961 3.369)">
            <path id="Trazado_630105" data-name="Trazado 630105" d="M356.675,296.878s4.3.919,7.37,7.182c3.029,6.187,14.749,33.459,15.206,38.034s-3.254,10.732-6.489,11.584l-9.979-14.633.3-2.135-8.354-27.86Z" transform="translate(-354.734 -296.878)" fill="#583cb6"/>
          </g>
          <g id="Grupo_957022" data-name="Grupo 957022" transform="translate(51.076 13.737)">
            <g id="Grupo_957021" data-name="Grupo 957021">
              <path id="Trazado_630106" data-name="Trazado 630106" d="M364.559,321.631s.023.019.06.061l.162.191c.136.173.358.413.6.755a19.925,19.925,0,0,1,1.852,3.022,24.767,24.767,0,0,1,1.83,4.927,32.4,32.4,0,0,1,.96,6.364,59.322,59.322,0,0,1-.767,11.654c-.222,1.479-.425,2.672-.568,3.5q-.108.6-.171.947l-.049.245a.329.329,0,0,1-.023.083.3.3,0,0,1,0-.086l.031-.248q.05-.349.137-.953l.512-3.5a62.42,62.42,0,0,0,.714-11.626,33.01,33.01,0,0,0-.941-6.332,25.367,25.367,0,0,0-1.784-4.912,21.481,21.481,0,0,0-1.794-3.037c-.231-.348-.444-.594-.57-.774l-.148-.2A.307.307,0,0,1,364.559,321.631Z" transform="translate(-364.558 -321.631)" fill="#263238"/>
            </g>
          </g>
          <g id="Grupo_957024" data-name="Grupo 957024" transform="translate(55.792 42.957)">
            <g id="Grupo_957023" data-name="Grupo 957023">
              <path id="Trazado_630107" data-name="Trazado 630107" d="M386.092,392.865a1.946,1.946,0,0,1-.409-.106l-1.1-.34a18.644,18.644,0,0,0-3.675-.81,8.47,8.47,0,0,0-3.7.425,10.461,10.461,0,0,0-1.4.69,1.592,1.592,0,0,1,.33-.266,5.377,5.377,0,0,1,1.021-.542,8.074,8.074,0,0,1,3.759-.486,16.281,16.281,0,0,1,3.7.868c.459.158.827.3,1.08.395A1.876,1.876,0,0,1,386.092,392.865Z" transform="translate(-375.818 -391.39)" fill="#263238"/>
            </g>
          </g>
          <g id="Grupo_957026" data-name="Grupo 957026" transform="translate(55.773 37.944)">
            <g id="Grupo_957025" data-name="Grupo 957025">
              <path id="Trazado_630108" data-name="Trazado 630108" d="M384.857,379.426a1.992,1.992,0,0,1-.407.154c-.266.085-.647.22-1.111.4a18.383,18.383,0,0,0-6.453,4.238c-.35.354-.625.65-.808.86a2.064,2.064,0,0,1-.3.313,2.018,2.018,0,0,1,.25-.357c.168-.225.43-.535.771-.9a16.471,16.471,0,0,1,6.5-4.269c.473-.166.862-.284,1.135-.349A2.056,2.056,0,0,1,384.857,379.426Z" transform="translate(-375.773 -379.423)" fill="#263238"/>
            </g>
          </g>
          <g id="Grupo_957028" data-name="Grupo 957028" transform="translate(54.652 20.19)" opacity="0.3">
            <g id="Grupo_957027" data-name="Grupo 957027">
              <path id="Trazado_630109" data-name="Trazado 630109" d="M373.1,337.037a36.836,36.836,0,0,1,1.915,19.415l5.361-2a16.737,16.737,0,0,1-5.57,4.886,13.069,13.069,0,0,1,4.429-.742,4.431,4.431,0,0,1,3.729,2.166,18.035,18.035,0,0,0-5.305-.434,6.094,6.094,0,0,0-4.507,2.529,62.157,62.157,0,0,0,1.506-17.442" transform="translate(-373.096 -337.037)"/>
            </g>
          </g>
        </g>
        <g id="Grupo_957042" data-name="Grupo 957042" transform="translate(19.518 102.355)">
          <g id="Grupo_957031" data-name="Grupo 957031" transform="translate(8.854 12.572)" opacity="0.3">
            <g id="Grupo_957030" data-name="Grupo 957030">
              <path id="Trazado_630110" data-name="Trazado 630110" d="M322.963,426.949,283,430.908c2.88-.061,5.1,2.377,7.591,3.819,4.618,2.671,10.369,1.924,15.638,1.095l13.1-2.06a5.638,5.638,0,0,0,3.087-1.145C323.872,431.247,323.473,428.882,322.963,426.949Z" transform="translate(-283.001 -426.949)"/>
            </g>
          </g>
          <g id="Grupo_957032" data-name="Grupo 957032" transform="translate(0 1.958)">
            <path id="Trazado_630111" data-name="Trazado 630111" d="M280.159,408.937l-6.692-6.461a3.088,3.088,0,0,0-2.437-.854,46.269,46.269,0,0,0-5.812.776,4.584,4.584,0,0,0-2.127,1.382,28.225,28.225,0,0,0-1.223,3.775,8.754,8.754,0,0,0,.107,1.361.946.946,0,0,0,1.388.722,1.569,1.569,0,0,0,.632-.594,2.123,2.123,0,0,0,.372-1.117s-.212,2.871,2.127,2.924c0,0-1.078,2.446,1.933,3.456,0,0-.111,1.6,2.407,1.808a30.634,30.634,0,0,0,4.8,0s4.6,3.307,7.847,3.519,10.506-1.2,10.506-1.2l.877-13.376Z" transform="translate(-261.862 -401.608)" fill="#ffbf9d"/>
          </g>
          <g id="Grupo_957034" data-name="Grupo 957034" transform="translate(2.367 5.186)">
            <g id="Grupo_957033" data-name="Grupo 957033">
              <path id="Trazado_630112" data-name="Trazado 630112" d="M274.375,409.317a7.192,7.192,0,0,1-1.072.449c-.672.251-1.607.586-2.669.868-.525.15-1.056.234-1.5.354a1.627,1.627,0,0,0-.911.748,7.6,7.6,0,0,1-.483.7c-.132.156-.225.222-.232.214a1.936,1.936,0,0,1,.176-.256c.114-.163.247-.416.432-.728a2.483,2.483,0,0,1,.364-.479,1.483,1.483,0,0,1,.6-.358c.471-.139.973-.221,1.5-.371,1.053-.28,1.991-.594,2.673-.815A7.775,7.775,0,0,1,274.375,409.317Z" transform="translate(-267.512 -409.314)" fill="#ff9a6c"/>
            </g>
          </g>
          <g id="Grupo_957036" data-name="Grupo 957036" transform="translate(4.799 9.285)">
            <g id="Grupo_957035" data-name="Grupo 957035">
              <path id="Trazado_630113" data-name="Trazado 630113" d="M278.612,419.1a3.549,3.549,0,0,1-.745.344c-.47.189-1.125.432-1.856.677s-1.4.445-1.89.576a3.541,3.541,0,0,1-.8.173,3.928,3.928,0,0,1,.765-.294l1.87-.625,1.869-.626A3.916,3.916,0,0,1,278.612,419.1Z" transform="translate(-273.319 -419.101)" fill="#ff9a6c"/>
            </g>
          </g>
          <g id="Grupo_957038" data-name="Grupo 957038" transform="translate(6.697 13.088)">
            <g id="Grupo_957037" data-name="Grupo 957037">
              <path id="Trazado_630114" data-name="Trazado 630114" d="M282.9,428.194c.005.055-1.165.175-2.558.554s-2.467.857-2.49.807a2.821,2.821,0,0,1,.683-.363,12.613,12.613,0,0,1,3.592-.968A2.806,2.806,0,0,1,282.9,428.194Z" transform="translate(-277.851 -428.18)" fill="#ff9a6c"/>
            </g>
          </g>
          <g id="Grupo_957039" data-name="Grupo 957039" transform="translate(21.624)">
            <path id="Trazado_630115" data-name="Trazado 630115" d="M319.107,416.562l29.605-5.142s-3.487-14.487-8.692-14.487c-.762,0-26.533,9.63-26.533,9.63Z" transform="translate(-313.488 -396.934)" fill="#ffbf9d"/>
          </g>
          <g id="Grupo_957041" data-name="Grupo 957041" transform="translate(17.539 8.556)">
            <g id="Grupo_957040" data-name="Grupo 957040">
              <path id="Trazado_630116" data-name="Trazado 630116" d="M308.247,421.95a5.429,5.429,0,0,1-.7-.637l-1.622-1.593c-.63-.627-1.192-1.2-1.587-1.632a4.494,4.494,0,0,1-.605-.725,5.5,5.5,0,0,1,.7.637l1.622,1.594c.629.626,1.192,1.2,1.586,1.632A4.5,4.5,0,0,1,308.247,421.95Z" transform="translate(-303.736 -417.361)" fill="#ff9a6c"/>
            </g>
          </g>
        </g>
        <g id="Grupo_957062" data-name="Grupo 957062" transform="translate(7.833 42.189)">
          <g id="Grupo_957046" data-name="Grupo 957046" transform="translate(0 20.812)">
            <g id="Grupo_957043" data-name="Grupo 957043" transform="translate(0.056)">
              <path id="Trazado_630117" data-name="Trazado 630117" d="M241.893,302.981s-9.942,5.8-7.367,16.472c2.9,12.027,29.67,29.993,29.67,29.993a29.762,29.762,0,0,1,3.793-21.207L254.128,315.4" transform="translate(-234.099 -302.981)" fill="#583cb6"/>
            </g>
            <g id="Grupo_957045" data-name="Grupo 957045">
              <g id="Grupo_957044" data-name="Grupo 957044">
                <path id="Trazado_630118" data-name="Trazado 630118" d="M254.05,315.4s.089.073.255.222l.732.665,2.79,2.559,10.131,9.345.041.038-.029.049a29.219,29.219,0,0,0-3.715,9.47,32.349,32.349,0,0,0-.05,11.686l.034.2-.17-.116c-2.822-1.925-5.68-4.026-8.548-6.258a112.653,112.653,0,0,1-14.828-13.49c-.521-.57-1-1.167-1.482-1.741-.458-.6-.935-1.166-1.351-1.768a26.607,26.607,0,0,1-2.251-3.611,14.238,14.238,0,0,1-1.626-7.39,13.744,13.744,0,0,1,1.771-6,17.08,17.08,0,0,1,2.89-3.765,18.579,18.579,0,0,1,2.291-1.942c.28-.2.5-.341.649-.435s.231-.133.231-.133l-.221.148c-.146.1-.362.245-.637.449a19.428,19.428,0,0,0-2.263,1.962,17.169,17.169,0,0,0-2.851,3.765,13.673,13.673,0,0,0-1.732,5.962,14.13,14.13,0,0,0,1.631,7.316,26.51,26.51,0,0,0,2.246,3.586c.415.6.892,1.166,1.349,1.759.485.571.96,1.165,1.48,1.733a113.4,113.4,0,0,0,14.814,13.458c2.865,2.23,5.721,4.331,8.536,6.254l-.135.088a32.441,32.441,0,0,1,.064-11.747,29.279,29.279,0,0,1,3.756-9.511l.012.087-10.09-9.39-2.764-2.586-.718-.679C254.129,315.481,254.05,315.4,254.05,315.4Z" transform="translate(-233.965 -302.981)" fill="#263238"/>
              </g>
            </g>
          </g>
          <g id="Grupo_957047" data-name="Grupo 957047" transform="translate(29.671 23.542)">
            <path id="Trazado_630119" data-name="Trazado 630119" d="M305.283,352.837s6.265,5.111,12.681,2.064a6.821,6.821,0,0,0,3.093-3.9c4.084-11.195,4.563-40.75,4.563-40.75l-11.193-.758-5.351,22.529C305.229,337.546,304.019,344.512,305.283,352.837Z" transform="translate(-304.801 -309.498)" fill="#ffbf9d"/>
          </g>
          <g id="Grupo_957049" data-name="Grupo 957049" transform="translate(32.799 59.764)">
            <g id="Grupo_957048" data-name="Grupo 957048">
              <path id="Trazado_630120" data-name="Trazado 630120" d="M326.889,395.976a.954.954,0,0,1-.022.214c-.021.139-.051.344-.1.606-.095.525-.248,1.283-.5,2.2a16.145,16.145,0,0,1-1.2,3.135,7.649,7.649,0,0,1-2.692,3.083,7.837,7.837,0,0,1-3.967,1.017,11.353,11.353,0,0,1-3.319-.493,12,12,0,0,1-2.1-.837c-.241-.114-.415-.23-.537-.3a.982.982,0,0,1-.18-.118c.008-.014.267.128.748.353a13.474,13.474,0,0,0,2.106.778,11.575,11.575,0,0,0,3.283.449,7.776,7.776,0,0,0,3.876-1.006,7.574,7.574,0,0,0,2.638-3.006,16.774,16.774,0,0,0,1.221-3.093c.268-.911.44-1.662.555-2.182l.134-.6A.973.973,0,0,1,326.889,395.976Z" transform="translate(-312.27 -395.976)" fill="#ff9a6c"/>
            </g>
          </g>
          <g id="Grupo_957051" data-name="Grupo 957051" transform="translate(24.644 46.228)">
            <g id="Grupo_957050" data-name="Grupo 957050">
              <path id="Trazado_630121" data-name="Trazado 630121" d="M301.742,363.664a10.962,10.962,0,0,0-1.784.488,9.974,9.974,0,0,0-3.605,2.561,21.779,21.779,0,0,0-2.591,3.643l-.69,1.174a2.733,2.733,0,0,1-.271.422,2.639,2.639,0,0,1,.209-.455c.146-.287.361-.7.641-1.2a19.422,19.422,0,0,1,2.568-3.7,9.582,9.582,0,0,1,3.692-2.559,6.445,6.445,0,0,1,1.329-.335,3.654,3.654,0,0,1,.371-.036A.357.357,0,0,1,301.742,363.664Z" transform="translate(-292.801 -363.659)" fill="#263238"/>
            </g>
          </g>
          <g id="Grupo_957061" data-name="Grupo 957061" transform="translate(30.085)">
            <g id="Grupo_957052" data-name="Grupo 957052" transform="translate(0.107 0.085)">
              <path id="Trazado_630122" data-name="Trazado 630122" d="M315.558,274.021c-.248-.826-1.642-8.454-2.209-10.228-.8-2.5-7.3-6.977-7.3-6.977s1.02-2.349,3.788-1.128c3.278,1.445,4.9,3.879,5.723,3.383s5.974-5.736,7.378-5.571a1.452,1.452,0,0,1,1.216,2.184,12.817,12.817,0,0,0-1.051,1.532s2.973-.894,2.395,2.36c0,0,3.385-2.112,3.055,2.347,0,0,2.229-.909,2.725.661s-.974,3.385-1.717,4.624-3.155,8.422-3.155,8.422l-.279,4.393-11.587-.493Z" transform="translate(-306.047 -253.497)" fill="#ffbf9d"/>
            </g>
            <g id="Grupo_957054" data-name="Grupo 957054">
              <g id="Grupo_957053" data-name="Grupo 957053">
                <path id="Trazado_630123" data-name="Trazado 630123" d="M326.131,280.324s0-.107,0-.315.008-.524.013-.927c.016-.822.041-2.023.072-3.572V275.5l0-.006c.608-1.8,1.384-4.14,2.435-6.86a10.18,10.18,0,0,1,.991-2.047,14.172,14.172,0,0,0,1.195-2.093,3.763,3.763,0,0,0,.308-1.2,1.883,1.883,0,0,0-.286-1.192,1.18,1.18,0,0,0-.213-.223,1.366,1.366,0,0,0-.275-.148,1.682,1.682,0,0,0-.631-.112,3.752,3.752,0,0,0-1.308.255l-.116.044.008-.122a6.308,6.308,0,0,0-.025-1.269,2.006,2.006,0,0,0-.479-1.149,1.314,1.314,0,0,0-1.18-.316,3.585,3.585,0,0,0-1.247.465l-.148.087.021-.173q.03-.25.061-.5c.011-.169,0-.338,0-.51a1.69,1.69,0,0,0-.365-.927,1.407,1.407,0,0,0-.917-.416,3.008,3.008,0,0,0-1.065.093l-.209.057.109-.184c.2-.345.42-.684.654-1.017.117-.166.24-.33.372-.489a.91.91,0,0,0,.222-.506,1.385,1.385,0,0,0-.342-1.072,1.547,1.547,0,0,0-1.037-.5,1.345,1.345,0,0,0-.564.146,4.83,4.83,0,0,0-.547.294c-.357.219-.7.467-1.041.724-.679.516-1.336,1.076-1.99,1.647l-1.523,1.359c-.507.45-.99.911-1.531,1.327a.617.617,0,0,1-.541.124,1.4,1.4,0,0,1-.47-.241,9.8,9.8,0,0,1-.762-.648c-.486-.443-.974-.871-1.49-1.255a12.447,12.447,0,0,0-1.61-1.025,5.6,5.6,0,0,0-1.735-.641,2.83,2.83,0,0,0-1.747.232,2.887,2.887,0,0,0-1.219,1.218l-.029-.1a43.116,43.116,0,0,1,4.95,3.933,12.726,12.726,0,0,1,1.922,2.194,3.366,3.366,0,0,1,.335.624c.043.11.1.216.13.327l.093.331c.114.441.215.875.31,1.3.753,3.415,1.26,6.34,1.766,8.549l0,.012,0,.009c-.338,1.775-.6,3.149-.778,4.087l-.207,1.057c-.048.238-.078.357-.078.357s.015-.123.055-.362l.185-1.061c.169-.939.417-2.316.737-4.095v.021c-.527-2.221-1.048-5.134-1.814-8.545a7.581,7.581,0,0,0-.858-2.536,12.628,12.628,0,0,0-1.906-2.161,43.252,43.252,0,0,0-4.938-3.906l-.061-.042.032-.062a3.042,3.042,0,0,1,1.294-1.3,3,3,0,0,1,1.851-.25,5.765,5.765,0,0,1,1.789.656,12.677,12.677,0,0,1,1.634,1.038c.523.389,1.017.822,1.5,1.265a9.709,9.709,0,0,0,.747.634c.258.191.563.334.8.116.518-.4,1.011-.867,1.515-1.314l1.525-1.361c.656-.572,1.315-1.134,2-1.654.343-.259.691-.509,1.057-.734a5.064,5.064,0,0,1,.568-.3,1.491,1.491,0,0,1,.648-.16,1.72,1.72,0,0,1,1.159.56,1.56,1.56,0,0,1,.384,1.212,1.1,1.1,0,0,1-.262.6c-.128.153-.248.314-.364.477-.23.327-.446.664-.646,1l-.1-.127a3.17,3.17,0,0,1,1.134-.1,1.576,1.576,0,0,1,1.025.472,1.847,1.847,0,0,1,.408,1.027c0,.18.011.361,0,.537s-.043.349-.064.521l-.128-.086a3.754,3.754,0,0,1,1.313-.486,1.889,1.889,0,0,1,.7.019,1.284,1.284,0,0,1,.615.346,2.162,2.162,0,0,1,.523,1.241,6.527,6.527,0,0,1,.023,1.3l-.109-.079a3.9,3.9,0,0,1,1.37-.264,1.836,1.836,0,0,1,.686.126,1.488,1.488,0,0,1,.31.168,1.329,1.329,0,0,1,.242.255,2.023,2.023,0,0,1,.312,1.292,3.9,3.9,0,0,1-.323,1.245,14.256,14.256,0,0,1-1.213,2.111,10.029,10.029,0,0,0-.988,2.021c-1.061,2.71-1.851,5.044-2.473,6.839l0-.012c-.048,1.548-.086,2.749-.112,3.57-.015.4-.026.711-.034.927S326.131,280.324,326.131,280.324Z" transform="translate(-305.791 -253.293)" fill="#ff9a6c"/>
              </g>
            </g>
            <g id="Grupo_957056" data-name="Grupo 957056" transform="translate(14.242 3.885)">
              <g id="Grupo_957055" data-name="Grupo 957055">
                <path id="Trazado_630124" data-name="Trazado 630124" d="M342.7,262.571a77.128,77.128,0,0,1-2.907,2.644,12.582,12.582,0,0,1,2.907-2.644Z" transform="translate(-339.793 -262.569)" fill="#ff9a6c"/>
              </g>
            </g>
            <g id="Grupo_957058" data-name="Grupo 957058" transform="translate(17.967 5.986)">
              <g id="Grupo_957057" data-name="Grupo 957057">
                <path id="Trazado_630125" data-name="Trazado 630125" d="M350.517,267.586a4.872,4.872,0,0,1-1.829,2.358c-.035-.04.457-.5.958-1.146S350.47,267.563,350.517,267.586Z" transform="translate(-348.687 -267.585)" fill="#ff9a6c"/>
              </g>
            </g>
            <g id="Grupo_957060" data-name="Grupo 957060" transform="translate(21.173 8.347)">
              <g id="Grupo_957059" data-name="Grupo 957059">
                <path id="Trazado_630126" data-name="Trazado 630126" d="M357.732,273.222a7.916,7.916,0,0,1-1.389,1.926,7.915,7.915,0,0,1,1.389-1.926Z" transform="translate(-356.339 -273.221)" fill="#ff9a6c"/>
              </g>
            </g>
          </g>
        </g>
      </g>
    </g>
  </g>
</svg>
