<svg xmlns="http://www.w3.org/2000/svg" xmlns:xlink="http://www.w3.org/1999/xlink" width="85" height="85" viewBox="0 0 85 85">
  <defs>
    <clipPath id="clip-path">
      <rect id="Rect치ngulo_306895" data-name="Rect치ngulo 306895" width="59" height="59" transform="translate(613 15469)" fill="#f0bd51"/>
    </clipPath>
  </defs>
  <g id="Grupo_956741" data-name="Grupo 956741" transform="translate(-600 -15407.133)">
    <rect id="Rect치ngulo_306892" data-name="Rect치ngulo 306892" width="85" height="85" transform="translate(600 15407.133)" fill="#583cb6"/>
    <g id="Enmascarar_grupo_878411" data-name="Enmascarar grupo 878411" transform="translate(0 -48.867)" clip-path="url(#clip-path)">
      <g id="equipo" transform="translate(613 15469)">
        <g id="Grupo_956707" data-name="Grupo 956707">
          <path id="Trazado_629927" data-name="Trazado 629927" d="M20.056,20.189h1.49a3.636,3.636,0,0,1,3.622,3.626l.954,4.769-.954,4.23H11.162v-9a3.636,3.636,0,0,1,3.622-3.626Z" fill="#a5cdff" fill-rule="evenodd"/>
          <path id="Trazado_629928" data-name="Trazado 629928" d="M34.024,20.189h1.529a3.636,3.636,0,0,1,3.623,3.626l1.342,5.073L39.175,43.264H25.168V23.815a3.636,3.636,0,0,1,3.622-3.626Z" fill="#ff6978" fill-rule="evenodd"/>
          <path id="Trazado_629929" data-name="Trazado 629929" d="M48.03,20.189h1.529a3.636,3.636,0,0,1,3.622,3.626V37.178H39.175V23.815A3.636,3.636,0,0,1,42.8,20.189Z" fill="#ccf49f" fill-rule="evenodd"/>
          <path id="Trazado_629930" data-name="Trazado 629930" d="M50.385,23.815V37.178h2.8V23.815a3.636,3.636,0,0,0-3.622-3.626h-2.8A3.636,3.636,0,0,1,50.385,23.815Z" fill="#b3e59f" fill-rule="evenodd"/>
          <path id="Trazado_629931" data-name="Trazado 629931" d="M36.379,23.815V37.178h2.8V23.815a3.636,3.636,0,0,0-3.623-3.626h-2.8a3.636,3.636,0,0,1,3.622,3.626Z" fill="#eb616f" fill-rule="evenodd"/>
          <path id="Trazado_629932" data-name="Trazado 629932" d="M22.372,23.815V37.178h2.8V23.815a3.636,3.636,0,0,0-3.622-3.626h-2.8A3.636,3.636,0,0,1,22.372,23.815Z" fill="#8abfff" fill-rule="evenodd"/>
          <path id="Trazado_629933" data-name="Trazado 629933" d="M35.229,26.8a4.462,4.462,0,0,1,1.493,8.666,13.011,13.011,0,0,0,3.822-1.2L51.9,29.2a4.458,4.458,0,0,1,5.886,2.254c1,2.247-.258,4.442-2.254,5.883L42.921,46.461c-3.214,2.326-5.974,1.973-8.882,1.708L16.019,46.52c-2.558-.235-4.883-2.247-6.523-3.933V31.942c.774-3.737,7.882-5.04,10.3-5.145Z" fill="#ffcbbe"/>
          <path id="Trazado_629934" data-name="Trazado 629934" d="M57.225,30.521a4.434,4.434,0,0,1,.559.931c1,2.247-.258,4.442-2.254,5.883L42.921,46.461c-3.214,2.326-5.974,1.973-8.882,1.708L16.019,46.52c-2.558-.235-4.883-2.247-6.523-3.933V40.7c1.542,1.437,3.5,2.848,5.618,3.044l18.021,1.649c2.907.265,5.667.617,8.882-1.708l12.612-9.127A5.712,5.712,0,0,0,57.225,30.521Z" fill="#f7beaf"/>
          <g id="Grupo_956706" data-name="Grupo 956706">
            <path id="Trazado_629935" data-name="Trazado 629935" d="M8.437,28.228H4.511A3.691,3.691,0,0,0,.866,31.942V42.587A3.688,3.688,0,0,0,4.511,46.3H8.437a3.691,3.691,0,0,0,3.649-3.711V31.942a3.694,3.694,0,0,0-3.649-3.714Z" fill="#477b9e" fill-rule="evenodd"/>
            <path id="Trazado_629936" data-name="Trazado 629936" d="M24.538,33.729a.867.867,0,0,0,0,1.735H36.722a4.461,4.461,0,0,0-.091-8.437c-.082-.029-.167-.052-.252-.075a4.338,4.338,0,0,0-1.15-.153h-2.8a4.474,4.474,0,0,1,4.462,4.462,3.576,3.576,0,0,1-.232,1.418c-.343.8-.523,1.052-1.708,1.052H24.538Z" fill="#f7beaf" fill-rule="evenodd"/>
            <path id="Trazado_629937" data-name="Trazado 629937" d="M50.019,16.9a3.841,3.841,0,0,1-7.683,0V12.787a2.155,2.155,0,0,1,2.149-2.149H47.87a2.155,2.155,0,0,1,2.149,2.149Z" fill="#c68b87" fill-rule="evenodd"/>
            <path id="Trazado_629938" data-name="Trazado 629938" d="M22.006,16.9a3.841,3.841,0,0,1-7.683,0V12.787a2.155,2.155,0,0,1,2.149-2.149h4.962a.515.515,0,0,1,.572.572Z" fill="#ffcbbe" fill-rule="evenodd"/>
            <path id="Trazado_629939" data-name="Trazado 629939" d="M42.337,12.787v2.525l2.626-1.287a1.326,1.326,0,0,1,1.055-.069l4,1.356V12.787a2.155,2.155,0,0,0-2.149-2.149H44.486a2.155,2.155,0,0,0-2.149,2.149Z" fill="#477b9e" fill-rule="evenodd"/>
            <path id="Trazado_629940" data-name="Trazado 629940" d="M14.323,12.787v1.241h7.683V11.21a.515.515,0,0,0-.572-.572H16.473a2.155,2.155,0,0,0-2.149,2.149Z" fill="#ffe5a0" fill-rule="evenodd"/>
            <path id="Trazado_629941" data-name="Trazado 629941" d="M36.013,16.9a3.841,3.841,0,0,1-7.683,0V12.787a2.155,2.155,0,0,1,2.149-2.149h3.384a2.155,2.155,0,0,1,2.149,2.149Z" fill="#ffcbbe" fill-rule="evenodd"/>
            <path id="Trazado_629942" data-name="Trazado 629942" d="M28.33,12.787v1.5a2.925,2.925,0,0,0,2.509-.232c.405-.232.47-.274.872.075a4.6,4.6,0,0,0,4.3.719V12.787a2.155,2.155,0,0,0-2.149-2.149H30.479a2.155,2.155,0,0,0-2.149,2.149Z" fill="#c68b87" fill-rule="evenodd"/>
            <path id="Trazado_629943" data-name="Trazado 629943" d="M19.21,16.9a3.845,3.845,0,0,1-1.862,3.286,3.721,3.721,0,0,1-.581.291A3.839,3.839,0,0,0,22.006,16.9V14.029h-2.8V16.9Z" fill="#f7beaf" fill-rule="evenodd"/>
            <path id="Trazado_629944" data-name="Trazado 629944" d="M19.21,11.21v2.819h2.8V11.21a.515.515,0,0,0-.572-.572h-2.8A.516.516,0,0,1,19.21,11.21Z" fill="#f2ce7e" fill-rule="evenodd"/>
            <path id="Trazado_629945" data-name="Trazado 629945" d="M33.217,16.9a3.845,3.845,0,0,1-1.862,3.286,3.72,3.72,0,0,1-.581.291A3.839,3.839,0,0,0,36.013,16.9V14.845a5.1,5.1,0,0,1-2.8.091V16.9Z" fill="#f7beaf" fill-rule="evenodd"/>
            <path id="Trazado_629946" data-name="Trazado 629946" d="M31.067,10.638a2.155,2.155,0,0,1,2.149,2.149v2.149a5.1,5.1,0,0,0,2.8-.091V12.787a2.155,2.155,0,0,0-2.149-2.149Z" fill="#bd7d79" fill-rule="evenodd"/>
            <path id="Trazado_629947" data-name="Trazado 629947" d="M47.223,16.9a3.845,3.845,0,0,1-1.862,3.286,3.716,3.716,0,0,1-.581.291A3.839,3.839,0,0,0,50.02,16.9V15.313l-2.8-.947Z" fill="#bd7d79" fill-rule="evenodd"/>
            <path id="Trazado_629948" data-name="Trazado 629948" d="M45.074,10.638a2.155,2.155,0,0,1,2.149,2.149v1.578l2.8.947V12.787a2.155,2.155,0,0,0-2.149-2.149Z" fill="#365e7d" fill-rule="evenodd"/>
            <path id="Trazado_629949" data-name="Trazado 629949" d="M9.29,42.587A3.691,3.691,0,0,1,5.641,46.3h2.8a3.644,3.644,0,0,0,3.133-1.816,3.719,3.719,0,0,0,.516-1.895V31.942a3.731,3.731,0,0,0-.924-2.463,3.609,3.609,0,0,0-2.724-1.251h-2.8A3.694,3.694,0,0,1,9.29,31.942Z" fill="#365e7d" fill-rule="evenodd"/>
          </g>
        </g>
        <path id="Trazado_629950" data-name="Trazado 629950" d="M12.024,27.95a14.24,14.24,0,0,1,1.685-.745v-2a.864.864,0,1,1,1.728,0v1.447a21.569,21.569,0,0,1,4.315-.719c.376-.01.761,0,1.14,0V25.21a.864.864,0,1,1,1.728,0v.725H24.3v-2.12a2.766,2.766,0,0,0-2.757-2.76H20.373a4.675,4.675,0,0,1-4.42,0H14.784a2.771,2.771,0,0,0-2.76,2.76V27.95Zm14.007-2.015h1.686V25.21a.864.864,0,1,1,1.728,0v.725H34.9V25.21a.864.864,0,1,1,1.728,0v.911a5.42,5.42,0,0,1,1.685.8v-3.11a2.771,2.771,0,0,0-2.76-2.76H34.379a4.669,4.669,0,0,1-4.416,0H28.79a2.771,2.771,0,0,0-2.76,2.76v2.12Zm14.01,3.051a5.285,5.285,0,0,1-.016,4.576c.549-.274,1.137-.516,1.7-.764V25.21a.864.864,0,1,1,1.728,0v6.814l5.455-2.434V25.21a.864.864,0,1,1,1.728,0v3.609l.915-.408a5.545,5.545,0,0,1,.771-.274V23.815a2.771,2.771,0,0,0-2.76-2.76H48.39a4.675,4.675,0,0,1-4.42,0H42.8a2.766,2.766,0,0,0-2.757,2.76Zm14.007-1.029A5.332,5.332,0,0,1,58.571,31.1a4.722,4.722,0,0,1,.095,3.711,7.385,7.385,0,0,1-2.63,3.224l-4.668,3.378a.863.863,0,0,1-1.013-1.4l4.668-3.378a5.668,5.668,0,0,0,2.029-2.44A3.055,3.055,0,0,0,57,31.8a3.6,3.6,0,0,0-4.746-1.816L40.926,35.039a16.175,16.175,0,0,1-1.94.856,7.452,7.452,0,0,1-2.264.431H24.067a.864.864,0,0,1,0-1.728h12.5a3.6,3.6,0,0,0-1.346-6.935H19.808a18.194,18.194,0,0,0-4.152.725,13.518,13.518,0,0,0-3.273,1.342,4.6,4.6,0,0,1,.565,2.211v3.3a.864.864,0,1,1-1.728,0v-3.3a2.823,2.823,0,0,0-2.783-2.848H4.511a2.823,2.823,0,0,0-2.783,2.848V42.587A2.872,2.872,0,0,0,2.551,44.6a2.74,2.74,0,0,0,1.96.833H8.437A2.747,2.747,0,0,0,10.4,44.6a2.877,2.877,0,0,0,.82-2.015v-3.3a.864.864,0,0,1,1.728,0v3.3a4.563,4.563,0,0,1-.3,1.627,10.209,10.209,0,0,0,1.4.843,5.938,5.938,0,0,0,2.038.6L34.425,47.34c2.63.245,5.151.477,7.99-1.578l4.668-3.378a.863.863,0,0,1,1.013,1.4L43.428,47.16c-3.361,2.434-6.2,2.169-9.159,1.894L15.94,47.376a7.52,7.52,0,0,1-2.633-.768,11.193,11.193,0,0,1-1.561-.921,4.473,4.473,0,0,1-3.309,1.476H4.511a4.46,4.46,0,0,1-3.188-1.352A4.586,4.586,0,0,1,0,42.587V31.942a4.56,4.56,0,0,1,4.511-4.576H8.437a4.431,4.431,0,0,1,1.859.408V23.815a4.5,4.5,0,0,1,3.864-4.446,4.68,4.68,0,0,1-.7-2.466V12.788a3.023,3.023,0,0,1,3.015-3.015h5.533a.864.864,0,0,1,.862.866V16.9a4.651,4.651,0,0,1-.7,2.466,4.472,4.472,0,0,1,2.548,1.274,4.676,4.676,0,0,1,.454.529,4.369,4.369,0,0,1,.454-.529,4.474,4.474,0,0,1,2.545-1.274,4.68,4.68,0,0,1-.7-2.466V12.788A3.023,3.023,0,0,1,30.48,9.773h3.384a3.023,3.023,0,0,1,3.015,3.015V16.9a4.68,4.68,0,0,1-.7,2.466,4.473,4.473,0,0,1,2.545,1.274,4.369,4.369,0,0,1,.454.529,4.664,4.664,0,0,1,.454-.529,4.473,4.473,0,0,1,2.548-1.274,4.65,4.65,0,0,1-.7-2.466V12.788a3.023,3.023,0,0,1,3.012-3.015H47.87a3.023,3.023,0,0,1,3.015,3.015V16.9a4.68,4.68,0,0,1-.7,2.466,4.5,4.5,0,0,1,3.864,4.446ZM49.157,15.93,45.535,14.7,43.2,15.848V16.9a2.977,2.977,0,0,0,5.955,0V15.93Zm-5.955-2,1.846-.9a.868.868,0,0,1,.705-.069l3.4,1.153V12.787A1.294,1.294,0,0,0,47.87,11.5H44.486A1.294,1.294,0,0,0,43.2,12.787Zm-28.017-.768h5.955V11.5H16.473a1.294,1.294,0,0,0-1.287,1.287Zm5.955,1.728H15.186V16.9a2.977,2.977,0,0,0,5.955,0V14.891Zm14.007,1.016A5.1,5.1,0,0,1,31.2,14.829a3.873,3.873,0,0,1-2.009.5V16.9a2.976,2.976,0,0,0,5.952,0v-1ZM29.2,13.6a2.154,2.154,0,0,0,1.545-.529.86.86,0,0,1,1.215.085,3.365,3.365,0,0,0,3.191,1.016V12.787A1.288,1.288,0,0,0,33.864,11.5H30.48A1.288,1.288,0,0,0,29.2,12.787V13.6Z"/>
      </g>
    </g>
  </g>
</svg>
