<svg xmlns="http://www.w3.org/2000/svg" xmlns:xlink="http://www.w3.org/1999/xlink" width="85" height="85" viewBox="0 0 85 85">
  <defs>
    <clipPath id="clip-path">
      <rect id="Rect치ngulo_306894" data-name="Rect치ngulo 306894" width="59" height="59" transform="translate(1135 15469)" fill="#f0bd51"/>
    </clipPath>
  </defs>
  <g id="Grupo_956743" data-name="Grupo 956743" transform="translate(-1122 -15407.133)">
    <rect id="Rect치ngulo_306802" data-name="Rect치ngulo 306802" width="85" height="85" transform="translate(1122 15407.133)" fill="#583cb6"/>
    <g id="Enmascarar_grupo_878413" data-name="Enmascarar grupo 878413" transform="translate(0 -48.867)" clip-path="url(#clip-path)">
      <g id="maquinaria_1_" data-name="maquinaria (1)" transform="translate(1135 15469)">
        <g id="Grupo_956739" data-name="Grupo 956739">
          <g id="Grupo_956735" data-name="Grupo 956735">
            <g id="Grupo_956733" data-name="Grupo 956733">
              <g id="Grupo_956731" data-name="Grupo 956731">
                <path id="Trazado_629985" data-name="Trazado 629985" d="M.864,3.17H58.136V6.658H.864Z" fill="#b7d4e2"/>
                <path id="Trazado_629986" data-name="Trazado 629986" d="M3.572,6.658H55.428v3.487H3.572Z" fill="#668fa3"/>
              </g>
              <g id="Grupo_956732" data-name="Grupo 956732">
                <path id="Trazado_629987" data-name="Trazado 629987" d="M54.448,3.17h3.688V6.658H54.448Z" fill="#99bac6"/>
                <path id="Trazado_629988" data-name="Trazado 629988" d="M51.74,6.658h3.688v3.487H51.74Z" fill="#4c7889"/>
              </g>
            </g>
            <g id="Grupo_956734" data-name="Grupo 956734">
              <path id="Trazado_629989" data-name="Trazado 629989" d="M39.215,4.913H50.8V8.4H39.215Z" transform="translate(38.349 51.661) rotate(-90)" fill="#4c7889"/>
              <path id="Trazado_629990" data-name="Trazado 629990" d="M40.086,5.785H51.667V7.527H40.086Z" transform="translate(39.22 52.532) rotate(-90)" fill="#364c59"/>
            </g>
          </g>
          <g id="Grupo_956737" data-name="Grupo 956737">
            <path id="Trazado_629991" data-name="Trazado 629991" d="M58.136,51.856a6.283,6.283,0,0,1-6.277,6.274H7.141a6.275,6.275,0,1,1,0-12.55H51.859A6.284,6.284,0,0,1,58.136,51.856Z" fill="#4c7889"/>
            <path id="Trazado_629992" data-name="Trazado 629992" d="M58.136,51.856a6.283,6.283,0,0,1-6.277,6.274H48.4a6.275,6.275,0,1,0,0-12.55h3.457A6.284,6.284,0,0,1,58.136,51.856Z" fill="#364c59"/>
            <path id="Trazado_629993" data-name="Trazado 629993" d="M51.859,54.675H7.141a2.819,2.819,0,1,1,0-5.638H51.859a2.819,2.819,0,1,1,0,5.638Z" fill="#364c59"/>
            <g id="Grupo_956736" data-name="Grupo 956736">
              <ellipse id="Elipse_7730" data-name="Elipse 7730" cx="2.82" cy="2.819" rx="2.82" ry="2.819" transform="translate(19.227 49.037)" fill="#99bac6"/>
              <ellipse id="Elipse_7731" data-name="Elipse 7731" cx="2.82" cy="2.819" rx="2.82" ry="2.819" transform="translate(34.133 49.037)" fill="#99bac6"/>
              <ellipse id="Elipse_7732" data-name="Elipse 7732" cx="2.82" cy="2.819" rx="2.82" ry="2.819" transform="translate(4.321 49.037)" fill="#99bac6"/>
              <ellipse id="Elipse_7733" data-name="Elipse 7733" cx="2.82" cy="2.819" rx="2.82" ry="2.819" transform="translate(49.039 49.037)" fill="#99bac6"/>
            </g>
          </g>
          <path id="Trazado_629994" data-name="Trazado 629994" d="M9.992,18.1h23.5V58.136H9.992Z" fill="#d4efff"/>
          <path id="Trazado_629995" data-name="Trazado 629995" d="M30.9,18.1h2.589V58.136H30.9Z" fill="#b7d4e2"/>
          <path id="Trazado_629996" data-name="Trazado 629996" d="M13.392,24.957H30.033v7.01H13.392Z" fill="#3eb1ff"/>
          <path id="Trazado_629997" data-name="Trazado 629997" d="M27.152,24.957h2.881v7.01H27.152Z" transform="translate(57.185 56.923) rotate(180)" fill="#4390ff"/>
          <g id="Grupo_956738" data-name="Grupo 956738">
            <path id="Trazado_629998" data-name="Trazado 629998" d="M39.313,34.191H50.7V45.574H39.313Z" fill="#ffc73b"/>
            <path id="Trazado_629999" data-name="Trazado 629999" d="M39.313,42.434H50.7v3.14H39.313Z" fill="#ffa73e"/>
            <path id="Trazado_630000" data-name="Trazado 630000" d="M46.868,34.191H43.141v5.692a2.716,2.716,0,0,1,3.726,0V34.191Z" fill="#ff5a39"/>
          </g>
          <path id="Trazado_630001" data-name="Trazado 630001" d="M13.392,51.87H30.033v6.266H13.392Z" fill="#b7d4e2"/>
          <path id="Trazado_630002" data-name="Trazado 630002" d="M27.152,51.87h2.881v6.266H27.152Z" fill="#99bac6"/>
          <path id="Trazado_630003" data-name="Trazado 630003" d="M9.992,18.1h23.5v3.459H9.992Z" fill="#668fa3"/>
          <path id="Trazado_630004" data-name="Trazado 630004" d="M30.9,18.1h2.589v3.459H30.9Z" transform="translate(64.396 39.663) rotate(180)" fill="#4c7889"/>
        </g>
        <g id="Grupo_956740" data-name="Grupo 956740">
          <path id="Trazado_630005" data-name="Trazado 630005" d="M58.136,2.306H47.612V.864A.864.864,0,0,0,46.748,0H43.262A.864.864,0,0,0,42.4.864V2.306H9.244a.864.864,0,0,0,0,1.729H42.4V5.793H1.729V4.035H5.175a.864.864,0,0,0,0-1.729H.864A.864.864,0,0,0,0,3.17V6.658a.864.864,0,0,0,.864.864H2.708v2.623a.864.864,0,0,0,.864.864H42.4v1.441a.864.864,0,0,0,.864.864h.853v6.344H41.638a.864.864,0,0,0-.6.246l-3.457,3.38a.864.864,0,0,0-.26.618v6.263a.864.864,0,0,0,.864.864h3.411a.864.864,0,0,0,0-1.729H39.045V24.268l2.945-2.88h5.975l2.945,2.88V29.3H48.366a.864.864,0,0,0,0,1.729h3.409a.864.864,0,0,0,.864-.864V23.9a.864.864,0,0,0-.26-.618l-3.457-3.38a.864.864,0,0,0-.6-.246H45.843V13.315h.9a.864.864,0,0,0,.864-.864V11.009h7.816a.864.864,0,0,0,.864-.864V7.522h1.844A.864.864,0,0,0,59,6.658V3.17a.864.864,0,0,0-.864-.864ZM4.437,9.281V7.522H42.4V9.281Zm41.447,2.306H44.126V1.729h1.757Zm8.68-2.306H47.612V7.522h6.952Zm2.708-3.487h-9.66V4.035h9.66Z"/>
          <path id="Trazado_630006" data-name="Trazado 630006" d="M51.863,44.713h-.3V34.191a.864.864,0,0,0-.864-.864H39.313a.864.864,0,0,0-.864.864V44.713H34.357V18.966h.864a.864.864,0,0,0,0-1.729H8.263a.864.864,0,0,0,0,1.729h.864V44.713H7.174A7.144,7.144,0,0,0,7.174,59H19.711a.864.864,0,0,0,0-1.729H14.256V52.734H29.169v4.537H23.714a.864.864,0,1,0,0,1.729H51.863a7.144,7.144,0,0,0,0-14.287ZM46,35.055v3.367a3.6,3.6,0,0,0-2,0V35.055Zm-5.827,0h2.1v4.829a.864.864,0,0,0,1.457.629,1.852,1.852,0,0,1,2.54,0,.864.864,0,0,0,1.457-.629V35.055h2.1v9.658H40.177Zm13.64,16.8A1.954,1.954,0,1,1,51.863,49.9,1.957,1.957,0,0,1,53.817,51.856Zm-5.073,1.957H40.086a3.681,3.681,0,0,0,0-3.913h8.658a3.681,3.681,0,0,0,0,3.913ZM38.92,51.856A1.954,1.954,0,1,1,36.966,49.9,1.957,1.957,0,0,1,38.92,51.856Zm-6.292-32.89V20.7H10.856v-1.73Zm-23.5,32.89A1.954,1.954,0,1,1,7.174,49.9,1.957,1.957,0,0,1,9.128,51.856Zm-7.363,0a5.418,5.418,0,0,1,5.409-5.415H9.128v1.73H7.174a3.685,3.685,0,0,0,0,7.371H9.128v1.73H7.174a5.418,5.418,0,0,1-5.409-5.415ZM30.9,57.271v-5.4a.864.864,0,0,0-.864-.864H13.392a.864.864,0,0,0-.864.864v5.4H10.856V22.425H32.628V57.271Zm20.966,0H34.357v-1.73H51.863a3.685,3.685,0,0,0,0-7.371H34.357v-1.73H51.863a5.415,5.415,0,0,1,0,10.83Z"/>
          <path id="Trazado_630007" data-name="Trazado 630007" d="M30.033,24.092H13.392a.864.864,0,0,0-.864.864v7.01a.864.864,0,0,0,.864.864H30.033a.864.864,0,0,0,.864-.864v-7.01A.864.864,0,0,0,30.033,24.092Zm-.864,7.01H14.256V25.821H29.169Z"/>
          <path id="Trazado_630008" data-name="Trazado 630008" d="M16.948,41H14.56a.864.864,0,1,0,0,1.729h2.388a.864.864,0,1,0,0-1.729Z"/>
          <path id="Trazado_630009" data-name="Trazado 630009" d="M16.948,44.453H14.56a.864.864,0,1,0,0,1.729h2.388a.864.864,0,1,0,0-1.729Z"/>
          <path id="Trazado_630010" data-name="Trazado 630010" d="M20.54,41a.864.864,0,0,0,0,1.729h2.388a.864.864,0,0,0,0-1.729Z"/>
          <path id="Trazado_630011" data-name="Trazado 630011" d="M28.881,41H26.493a.864.864,0,0,0,0,1.729h2.388a.864.864,0,0,0,0-1.729Z"/>
          <path id="Trazado_630012" data-name="Trazado 630012" d="M14.545,39.275h2.388a.864.864,0,1,0,0-1.729H14.545a.864.864,0,1,0,0,1.729Z"/>
          <path id="Trazado_630013" data-name="Trazado 630013" d="M22.913,37.546H20.525a.864.864,0,0,0,0,1.729h2.388a.864.864,0,0,0,0-1.729Z"/>
          <path id="Trazado_630014" data-name="Trazado 630014" d="M26.477,39.275h2.388a.864.864,0,0,0,0-1.729H26.477a.864.864,0,0,0,0,1.729Z"/>
          <path id="Trazado_630015" data-name="Trazado 630015" d="M28.881,44.453H20.54a.864.864,0,0,0,0,1.729h8.34a.864.864,0,0,0,0-1.729Z"/>
        </g>
      </g>
    </g>
  </g>
</svg>
