<svg xmlns="http://www.w3.org/2000/svg" xmlns:xlink="http://www.w3.org/1999/xlink" width="85" height="85" viewBox="0 0 85 85">
  <defs>
    <clipPath id="clip-path">
      <rect id="Rectángulo_306814" data-name="Rectángulo 306814" width="85" height="85" transform="translate(-7293 7138)" fill="#449c6e" stroke="#707070" stroke-width="1"/>
    </clipPath>
  </defs>
  <g id="Enmascarar_grupo_878419" data-name="Enmascarar grupo 878419" transform="translate(7293 -7138)" clip-path="url(#clip-path)">
    <g id="solucion" transform="translate(-7294.371 7136.629)">
      <g id="Grupo_959763" data-name="Grupo 959763">
        <g id="Grupo_959750" data-name="Grupo 959750">
          <circle id="Elipse_7756" data-name="Elipse 7756" cx="35.645" cy="35.645" r="35.645" transform="translate(8.226 8.226)" fill="#e6e9ed"/>
        </g>
        <g id="Grupo_959751" data-name="Grupo 959751">
          <path id="Trazado_631001" data-name="Trazado 631001" d="M30.161,10.954V24.677H24.677V2.742h5.484Z" fill="#ff826e"/>
        </g>
        <g id="Grupo_959752" data-name="Grupo 959752">
          <path id="Trazado_631002" data-name="Trazado 631002" d="M19.194,8.226V24.677H13.71V8.226Z" fill="#ff826e"/>
        </g>
        <g id="Grupo_959753" data-name="Grupo 959753">
          <path id="Trazado_631003" data-name="Trazado 631003" d="M2.742,13.71H8.226V24.677H2.742Z" fill="#ff826e"/>
        </g>
        <g id="Grupo_959754" data-name="Grupo 959754">
          <path id="Trazado_631004" data-name="Trazado 631004" d="M24.677,76.774v5.484A2.75,2.75,0,0,1,21.935,85H5.484a2.75,2.75,0,0,1-2.742-2.742V76.774H4.113a4.113,4.113,0,0,0,0-8.226H2.742V63.065a2.75,2.75,0,0,1,2.742-2.742H9.6V58.952a4.059,4.059,0,0,1,.891-2.55,3.9,3.9,0,0,1,.315-.356,4.11,4.11,0,0,1,7.019,2.906v1.371h4.113a2.75,2.75,0,0,1,2.742,2.742v5.484H23.306a4.113,4.113,0,1,0,0,8.226Z" fill="#b4dd7f"/>
        </g>
        <g id="Grupo_959755" data-name="Grupo 959755">
          <path id="Trazado_631005" data-name="Trazado 631005" d="M85,49.355V52.1H74.032V49.355a5.477,5.477,0,0,1,5.443-5.484h.041A5.482,5.482,0,0,1,85,49.355Z" fill="#aab2bd"/>
        </g>
        <g id="Grupo_959756" data-name="Grupo 959756">
          <path id="Trazado_631006" data-name="Trazado 631006" d="M85,76.774,81.5,83.78a2.229,2.229,0,0,1-3.976,0l-3.5-7.006H85Z" fill="#aab2bd"/>
        </g>
        <g id="Grupo_959757" data-name="Grupo 959757">
          <path id="Trazado_631007" data-name="Trazado 631007" d="M79.516,52.1H85V76.774H79.516Z" fill="#ff826e"/>
        </g>
        <g id="Grupo_959758" data-name="Grupo 959758">
          <path id="Trazado_631008" data-name="Trazado 631008" d="M79.516,52.1V76.774H74.032V52.1Z" fill="#b4dd7f"/>
        </g>
        <g id="Grupo_959759" data-name="Grupo 959759">
          <path id="Trazado_631009" data-name="Trazado 631009" d="M76.774,27.419v2.742A2.75,2.75,0,0,1,74.032,32.9H71.29a2.75,2.75,0,0,1-2.742-2.742V27.419h8.226Z" fill="#aab2bd"/>
        </g>
        <g id="Grupo_959760" data-name="Grupo 959760">
          <path id="Trazado_631010" data-name="Trazado 631010" d="M76.774,26.336v1.083H68.548V26.391a4.06,4.06,0,0,0-1.782-3.441,10.9,10.9,0,0,1-5.045-9.967c.014-.233.041-.466.069-.713A10.967,10.967,0,1,1,78.584,22.936a4.013,4.013,0,0,0-1.81,3.4Z" fill="#ffeaa7"/>
        </g>
        <g id="Grupo_959761" data-name="Grupo 959761">
          <circle id="Elipse_7757" data-name="Elipse 7757" cx="2.742" cy="2.742" r="2.742" transform="translate(69.919 10.968)" fill="#fcd770"/>
        </g>
        <g id="Grupo_959762" data-name="Grupo 959762">
          <path id="Trazado_631011" data-name="Trazado 631011" d="M60.323,43.871v4.113l-2.194.781a15.875,15.875,0,0,1-.727,1.727l1.015,2.1L52.59,58.417l-2.1-1.015a15.872,15.872,0,0,1-1.727.727l-.781,2.194H39.758l-.781-2.194a15.874,15.874,0,0,1-1.727-.727l-2.1,1.015L29.325,52.59l1.015-2.1a15.874,15.874,0,0,1-.727-1.727l-2.194-.781V39.758l2.194-.781a15.872,15.872,0,0,1,.727-1.727l-1.015-2.1,5.827-5.827,2.1,1.015a15.873,15.873,0,0,1,1.727-.727l.781-2.194h8.226l.781,2.194a15.872,15.872,0,0,1,1.727.727l2.1-1.015,5.827,5.827-1.015,2.1a15.872,15.872,0,0,1,.727,1.727l2.194.781Zm-6.855,0a9.6,9.6,0,1,0-9.6,9.6A9.59,9.59,0,0,0,53.468,43.871Z" fill="#fcd770"/>
        </g>
      </g>
      <g id="Grupo_959764" data-name="Grupo 959764">
        <path id="Trazado_631012" data-name="Trazado 631012" d="M54.839,43.871A10.968,10.968,0,1,0,43.871,54.839,10.981,10.981,0,0,0,54.839,43.871ZM43.871,52.1A8.226,8.226,0,1,1,52.1,43.871,8.234,8.234,0,0,1,43.871,52.1Z"/>
        <path id="Trazado_631013" data-name="Trazado 631013" d="M80.857,42.636A36.759,36.759,0,0,0,78.145,29.88V26.334a2.677,2.677,0,0,1,1.18-2.247,12.337,12.337,0,0,0-8.1-22.635,12.42,12.42,0,0,0-10.577,9.431A37.028,37.028,0,0,0,31.532,8.966v-7.6H23.306V23.306H20.565V6.855H12.339V23.306H9.6V12.339H1.371v13.71H11.428A36.907,36.907,0,0,0,8.988,56.21a5.427,5.427,0,0,0-.762,2.742H5.484a4.118,4.118,0,0,0-4.113,4.113v6.855H4.113a2.742,2.742,0,0,1,0,5.484H1.371v6.855a4.118,4.118,0,0,0,4.113,4.113H21.935a4.118,4.118,0,0,0,4.113-4.113V75.4H23.306a2.742,2.742,0,0,1,0-5.484h2.742V63.065a4.118,4.118,0,0,0-4.113-4.113H19.194a5.489,5.489,0,0,0-5.484-5.484,5.409,5.409,0,0,0-2.523.644,34.078,34.078,0,0,1-1.53-8.87H26.048v3.713l2.5.884q.127.323.269.646l-1.146,2.4,7.189,7.189,2.4-1.146c.214.095.429.185.646.269l.882,2.5H42.5V78.108a33.913,33.913,0,0,1-13.082-3.15l-1.157,2.486a37.033,37.033,0,0,0,44.4-10.314V77.1l3.644,7.288a3.59,3.59,0,0,0,6.422,0L86.371,77.1V49.355a6.863,6.863,0,0,0-5.514-6.719Zm-74-19.329H4.113V15.081H6.855ZM83.629,49.355v1.371H75.4V49.355a4.113,4.113,0,1,1,8.226,0ZM80.887,75.4V53.468h2.742V75.4Zm-5.484,0V53.468h2.742V75.4ZM59.19,37.9q-.128-.323-.269-.646l1.146-2.4-7.189-7.189-2.4,1.146c-.214-.095-.429-.185-.646-.269l-.882-2.5H45.242V9.642a34.237,34.237,0,0,1,15.085,4.175,12.247,12.247,0,0,0,5.7,10.289,2.693,2.693,0,0,1,1.152,2.285v3.77a4.118,4.118,0,0,0,4.113,4.113h2.742a4.072,4.072,0,0,0,2.483-.855,34.046,34.046,0,0,1,1.6,9.081H61.694V38.787ZM75.4,28.79v1.371a1.373,1.373,0,0,1-1.371,1.371H71.29a1.373,1.373,0,0,1-1.371-1.371V28.79ZM71.29,13.71a1.371,1.371,0,1,1,1.371,1.371A1.373,1.373,0,0,1,71.29,13.71Zm-8.144-1.268a9.634,9.634,0,0,1,8.39-8.266,10.241,10.241,0,0,1,1.137-.063A9.484,9.484,0,0,1,79.051,6.55a9.59,9.59,0,0,1-1.208,15.23,5.35,5.35,0,0,0-2.422,4.268H74.032V17.57a4.113,4.113,0,1,0-2.742,0v8.478H69.9A5.344,5.344,0,0,0,67.5,21.8a9.558,9.558,0,0,1-4.356-9.354Zm-37.1-8.329H28.79V23.306H26.048ZM15.081,9.6h2.742v13.71H15.081Zm1.371,49.355v2.742h5.484a1.373,1.373,0,0,1,1.371,1.371v4.113a5.484,5.484,0,0,0,0,10.968v4.113a1.373,1.373,0,0,1-1.371,1.371H5.484a1.373,1.373,0,0,1-1.371-1.371V78.145a5.484,5.484,0,0,0,0-10.968V63.065a1.373,1.373,0,0,1,1.371-1.371h5.484V58.952a2.742,2.742,0,1,1,5.484,0Zm9.6-20.164V42.5H9.645A34.116,34.116,0,0,1,14.61,26.048H31.532V11.9A33.964,33.964,0,0,1,42.5,9.631V26.048H38.787l-.884,2.5q-.323.127-.646.269l-2.4-1.146-7.189,7.189,1.146,2.4c-.095.214-.185.429-.269.646ZM40.056,57.043l-.628-.215a13.4,13.4,0,0,1-1.572-.655l-.6-.292-1.829.875-4.445-4.445.875-1.829-.292-.6a13.642,13.642,0,0,1-.655-1.572l-.215-.628-1.907-.672V40.727l1.908-.673.215-.628a13.4,13.4,0,0,1,.655-1.573l.292-.6-.875-1.829,4.445-4.445,1.829.875.6-.292a13.642,13.642,0,0,1,1.572-.655l.628-.215.672-1.906h6.286l.673,1.908.628.215a13.4,13.4,0,0,1,1.572.655l.6.292,1.829-.875,4.445,4.445-.875,1.829.292.6a13.642,13.642,0,0,1,.655,1.573l.215.628,1.906.672v6.286l-1.908.673-.215.628a13.4,13.4,0,0,1-.655,1.572l-.292.6.875,1.829-4.445,4.445-1.829-.875-.6.292a13.643,13.643,0,0,1-1.572.655l-.628.215-.672,1.906H40.727ZM45.242,78.1V61.694h3.713l.884-2.5q.323-.128.646-.269l2.4,1.146,7.189-7.189-1.146-2.4c.095-.214.185-.429.269-.646l2.5-.882V45.242H74.068a6.784,6.784,0,0,0-1.407,4.113v13.1A34.1,34.1,0,0,1,45.242,78.1Zm35.032,5.06a.879.879,0,0,1-1.515,0L76.25,78.145h6.531Z"/>
        <path id="Trazado_631014" data-name="Trazado 631014" d="M47.8,72.4l.372,2.716a31.575,31.575,0,0,0,18.767-9.741L64.932,63.5A28.835,28.835,0,0,1,47.8,72.4Z"/>
        <path id="Trazado_631015" data-name="Trazado 631015" d="M67.1,60.883l2.211,1.622a31.73,31.73,0,0,0,1.873-2.867L68.81,58.266A28.956,28.956,0,0,1,67.1,60.883Z"/>
      </g>
    </g>
  </g>
</svg>
