<svg xmlns="http://www.w3.org/2000/svg" xmlns:xlink="http://www.w3.org/1999/xlink" width="71" height="71" viewBox="0 0 71 71">
  <defs>
    <clipPath id="clip-path">
      <rect id="Rectángulo_306928" data-name="Rectángulo 306928" width="71" height="71" transform="translate(638 20344)" fill="#583cb6" stroke="#707070" stroke-width="1"/>
    </clipPath>
  </defs>
  <g id="Enmascarar_grupo_878423" data-name="Enmascarar grupo 878423" transform="translate(-638 -20344)" clip-path="url(#clip-path)">
    <g id="cronometro" transform="translate(644.895 20344)">
      <path id="Trazado_631073" data-name="Trazado 631073" d="M28.68,15.387a22.06,22.06,0,0,1,2.334.126V7.562H26.346v7.951a22.071,22.071,0,0,1,2.334-.126Zm0,0" fill="#f4b537"/>
      <path id="Trazado_631074" data-name="Trazado 631074" d="M29.72,7.562H26.346v7.951a22.071,22.071,0,0,1,2.334-.126c.348,0,.694.01,1.04.027Zm0,0" fill="#e59d1f"/>
      <path id="Trazado_631075" data-name="Trazado 631075" d="M43.948,20.084,47.066,14.6l-4.088-2.254-3.092,5.435A27.545,27.545,0,0,1,43.948,20.084Zm0,0" fill="#f4b537"/>
      <path id="Trazado_631076" data-name="Trazado 631076" d="M43.921,16.766,45.609,13.8l-2.63-1.451-3.092,5.435a27.573,27.573,0,0,1,4.062,2.3l.887-1.56q-.227-.121-.456-.239a1.1,1.1,0,0,1-.458-1.52Zm0,0" fill="#e59d1f"/>
      <path id="Trazado_631077" data-name="Trazado 631077" d="M17.474,17.783l-3.092-5.435L10.294,14.6l3.119,5.483a27.489,27.489,0,0,1,4.061-2.3Zm0,0" fill="#f4b537"/>
      <path id="Trazado_631078" data-name="Trazado 631078" d="M14.233,15.216a.7.7,0,0,1,.27-.957l.736-.405-.857-1.507L10.294,14.6l3.119,5.483a27.462,27.462,0,0,1,2.672-1.614Zm0,0" fill="#e59d1f"/>
      <path id="Trazado_631079" data-name="Trazado 631079" d="M56.23,42.415a27.55,27.55,0,1,1-27.55-27.55A27.55,27.55,0,0,1,56.23,42.415Zm0,0" fill="#54a0ff"/>
      <path id="Trazado_631080" data-name="Trazado 631080" d="M5.29,42.415A27.552,27.552,0,0,1,30.76,14.943q-1.03-.077-2.08-.077a27.55,27.55,0,1,0,0,55.1q1.049,0,2.08-.078A27.552,27.552,0,0,1,5.29,42.415Zm0,0" fill="#338def"/>
      <path id="Trazado_631081" data-name="Trazado 631081" d="M51.552,42.415A22.872,22.872,0,1,1,28.68,19.543,22.871,22.871,0,0,1,51.552,42.415Zm0,0" fill="#e4eaf8"/>
      <path id="Trazado_631082" data-name="Trazado 631082" d="M9.969,42.415A22.873,22.873,0,0,1,30.76,19.639c-.685-.062-1.379-.1-2.08-.1a22.872,22.872,0,1,0,0,45.743c.7,0,1.395-.033,2.08-.095A22.873,22.873,0,0,1,9.969,42.415Zm0,0" fill="#d8dce5"/>
      <path id="Trazado_631083" data-name="Trazado 631083" d="M31.837,42.415H51.552A22.872,22.872,0,0,0,28.68,19.543V39.12a3.011,3.011,0,0,1,3.156,3.3Zm0,0" fill="#ff6b6b"/>
      <path id="Trazado_631084" data-name="Trazado 631084" d="M32.84,19.922a22.987,22.987,0,0,0-4.16-.379V39.12a3.011,3.011,0,0,1,3.156,3.3h1Zm0,0" fill="#ee5253"/>
      <path id="Trazado_631085" data-name="Trazado 631085" d="M32.253,42.415a3.572,3.572,0,1,1-3.572-3.572A3.572,3.572,0,0,1,32.253,42.415Zm0,0" fill="#576574"/>
      <path id="Trazado_631086" data-name="Trazado 631086" d="M29.268,42.415a3.567,3.567,0,0,1,1.492-2.9,3.572,3.572,0,1,0,0,5.807,3.568,3.568,0,0,1-1.492-2.9Zm0,0" fill="#3e4b5a"/>
      <path id="Trazado_631087" data-name="Trazado 631087" d="M36.525,1.045H20.835A1.891,1.891,0,0,0,18.95,2.931V6.8a1.891,1.891,0,0,0,1.885,1.885H36.524A1.891,1.891,0,0,0,38.409,6.8V2.931a1.89,1.89,0,0,0-1.885-1.885Zm0,0" fill="#feca57"/>
      <path id="Trazado_631088" data-name="Trazado 631088" d="M36.525,4.526H20.835a1.89,1.89,0,0,1-1.878-1.74c0,.048-.007.1-.007.145V6.8a1.891,1.891,0,0,0,1.885,1.885H36.524A1.891,1.891,0,0,0,38.409,6.8V2.931c0-.049,0-.1-.007-.145a1.89,1.89,0,0,1-1.877,1.74Zm0,0" fill="#f4b537"/>
      <path id="Trazado_631089" data-name="Trazado 631089" d="M12.347,6.848,6.8,9.9a.76.76,0,0,0-.3,1.032L8.811,15.12a.76.76,0,0,0,1.032.3l5.544-3.056a.761.761,0,0,0,.3-1.033L13.38,7.146a.76.76,0,0,0-1.032-.3Zm0,0" fill="#feca57"/>
      <path id="Trazado_631090" data-name="Trazado 631090" d="M10.665,10.937a.76.76,0,0,1,.3-1.032L13.982,8.24l-.6-1.093a.761.761,0,0,0-1.033-.3L6.8,9.9a.76.76,0,0,0-.3,1.032L8.811,15.12a.76.76,0,0,0,1.032.3l2.525-1.392Zm0,0" fill="#f4b537"/>
      <path id="Trazado_631091" data-name="Trazado 631091" d="M45.013,6.848,50.557,9.9a.76.76,0,0,1,.3,1.032L48.549,15.12a.76.76,0,0,1-1.032.3l-5.544-3.056a.76.76,0,0,1-.3-1.033l2.306-4.183a.76.76,0,0,1,1.032-.3Zm0,0" fill="#feca57"/>
      <path id="Trazado_631092" data-name="Trazado 631092" d="M46.133,12.362a.76.76,0,0,1-.3-1.032l1.7-3.09L45.013,6.848a.761.761,0,0,0-1.033.3L41.674,11.33a.76.76,0,0,0,.3,1.032l5.544,3.056a.76.76,0,0,0,1.032-.3l.6-1.093Zm0,0" fill="#f4b537"/>
      <path id="Trazado_631093" data-name="Trazado 631093" d="M28.66,18.5A23.912,23.912,0,1,0,52.571,42.41,23.935,23.935,0,0,0,28.66,18.5ZM50.466,41.37H33.154A4.637,4.637,0,0,0,29.7,37.916V20.6a21.665,21.665,0,0,1,8.96,2.4l-.922,1.6a1.04,1.04,0,1,0,1.8,1.04l.921-1.595a21.968,21.968,0,0,1,6.558,6.558l-1.595.921a1.04,1.04,0,1,0,1.04,1.8l1.6-.922a21.652,21.652,0,0,1,2.405,8.961ZM28.66,39.878a2.532,2.532,0,1,1-2.532,2.532A2.535,2.535,0,0,1,28.66,39.878Zm11.8,20.892-.921-1.6a1.04,1.04,0,1,0-1.8,1.04l.923,1.6a21.675,21.675,0,0,1-8.961,2.4V62.367a1.04,1.04,0,0,0-2.08,0v1.849a21.68,21.68,0,0,1-8.961-2.4l.923-1.6a1.04,1.04,0,0,0-1.8-1.04l-.921,1.6A21.993,21.993,0,0,1,10.3,54.211l1.6-.921a1.04,1.04,0,1,0-1.04-1.8l-1.6.923a21.68,21.68,0,0,1-2.4-8.961H8.7a1.04,1.04,0,0,0,0-2.08H6.853a21.675,21.675,0,0,1,2.4-8.961l1.6.922a1.04,1.04,0,1,0,1.04-1.8l-1.6-.921a22,22,0,0,1,6.559-6.559l.921,1.6a1.04,1.04,0,1,0,1.8-1.04l-.923-1.6a21.68,21.68,0,0,1,8.961-2.4V37.917a4.612,4.612,0,1,0,5.533,5.533H50.466a21.675,21.675,0,0,1-2.4,8.961l-1.6-.922a1.04,1.04,0,1,0-1.04,1.8l1.6.921a22,22,0,0,1-6.559,6.559Zm0,0"/>
      <path id="Trazado_631094" data-name="Trazado 631094" d="M56.192,41.019a1.041,1.041,0,0,0,.946-1.127A28.614,28.614,0,0,0,45.563,19.352l1.62-2.939a1.8,1.8,0,0,0,2.256-.8l2.306-4.183a1.8,1.8,0,0,0-.707-2.445L45.495,5.932a1.8,1.8,0,0,0-2.446.707l-2.306,4.183a1.8,1.8,0,0,0,.531,2.333l-1.583,2.871a28.5,28.5,0,0,0-7.657-2.009v-4.3H36.5A2.929,2.929,0,0,0,39.429,6.8V2.925A2.928,2.928,0,0,0,36.5,0H31.086a1.04,1.04,0,0,0,0,2.08H36.5a.846.846,0,0,1,.845.845V6.8a.846.846,0,0,1-.845.844H20.815A.846.846,0,0,1,19.97,6.8V2.925a.846.846,0,0,1,.845-.845h5.418a1.04,1.04,0,0,0,0-2.08H20.815A2.928,2.928,0,0,0,17.89,2.925V6.8a2.928,2.928,0,0,0,2.925,2.925h4.471v4.3a28.365,28.365,0,0,0-7.654,2.013l-1.586-2.877a1.8,1.8,0,0,0,.531-2.334L14.27,6.639a1.8,1.8,0,0,0-2.445-.707h0L6.281,8.988a1.8,1.8,0,0,0-.708,2.446l2.307,4.183a1.8,1.8,0,0,0,2.256.8l1.626,2.95A28.585,28.585,0,1,0,57.138,44.927a1.04,1.04,0,1,0-2.072-.181,26.509,26.509,0,1,1,0-4.673,1.04,1.04,0,0,0,1.127.946ZM14.23,14.171,15.736,16.9c-.768.39-1.521.816-2.252,1.275l-1.52-2.757Zm-6.7-3.5,5.053-2.786,2.036,3.693L9.566,14.367ZM44.736,7.889l5.053,2.786-2.036,3.692L42.7,11.581ZM41.584,16.9l1.506-2.732,2.266,1.249-1.52,2.757q-1.086-.683-2.228-1.262l-.024-.012ZM27.366,13.849V9.721h2.588v4.128C29.084,13.81,28.244,13.809,27.366,13.849Zm0,0"/>
    </g>
  </g>
</svg>
