<svg xmlns="http://www.w3.org/2000/svg" xmlns:xlink="http://www.w3.org/1999/xlink" width="71" height="71" viewBox="0 0 71 71">
  <defs>
    <clipPath id="clip-path">
      <rect id="Rectángulo_306929" data-name="Rectángulo 306929" width="71" height="71" transform="translate(1058 20344)" fill="#583cb6" stroke="#707070" stroke-width="1"/>
    </clipPath>
  </defs>
  <g id="Enmascarar_grupo_878424" data-name="Enmascarar grupo 878424" transform="translate(-1058 -20344)" clip-path="url(#clip-path)">
    <g id="tablero" transform="translate(1058 20344)">
      <g id="Grupo_959772" data-name="Grupo 959772">
        <path id="Trazado_631095" data-name="Trazado 631095" d="M69.959,10.4V53.61a1.664,1.664,0,0,1-1.665,1.665H2.7A1.664,1.664,0,0,1,1.04,53.61V10.4L5.111,7.667,63.878,6.353Z" fill="#f2fbff"/>
        <path id="Trazado_631096" data-name="Trazado 631096" d="M6.173,55.274H2.7A1.664,1.664,0,0,1,1.04,53.61V10.4L2.958,7.667,4.508,10.4V53.61A1.664,1.664,0,0,0,6.173,55.274Z" fill="#d8ecfe"/>
        <path id="Trazado_631097" data-name="Trazado 631097" d="M69.959,3.97V10.4H1.04V3.97A1.665,1.665,0,0,1,2.7,2.305h65.59A1.665,1.665,0,0,1,69.959,3.97Z" fill="#b3dafe"/>
        <path id="Trazado_631098" data-name="Trazado 631098" d="M6.173,2.305A1.665,1.665,0,0,0,4.508,3.97V10.4H1.04V3.97A1.665,1.665,0,0,1,2.7,2.305Z" fill="#8ac9fe"/>
        <path id="Trazado_631099" data-name="Trazado 631099" d="M27.573,33.641H10.34a.551.551,0,0,1-.427-.2,11.674,11.674,0,1,1,18.087,0,.551.551,0,0,1-.427.2Z" fill="#b6c4cf"/>
        <path id="Trazado_631100" data-name="Trazado 631100" d="M10.75,26.06a11.622,11.622,0,0,0,2.631,7.382.551.551,0,0,0,.427.2H10.341a.551.551,0,0,1-.427-.2A11.678,11.678,0,0,1,20.688,14.513,11.646,11.646,0,0,0,10.75,26.06Z" fill="#9facba"/>
        <path id="Trazado_631101" data-name="Trazado 631101" d="M23.76,33.642V30.481a4.8,4.8,0,0,0-9.607,0v3.161Z" fill="#fe99a0"/>
        <path id="Trazado_631102" data-name="Trazado 631102" d="M20.691,26a4.808,4.808,0,0,0-3.07,4.482v3.161H14.153V30.48A4.808,4.808,0,0,1,20.691,26Z" fill="#fd8087"/>
        <circle id="Elipse_7759" data-name="Elipse 7759" cx="3.229" cy="3.229" r="3.229" transform="translate(15.727 19.46)" fill="#f2fbff"/>
        <path id="Trazado_631103" data-name="Trazado 631103" d="M62.607,33.642H38.292a1.11,1.11,0,0,0-1.11,1.11V64.883a1.11,1.11,0,0,0,1.11,1.11h5.88a.555.555,0,0,0,.555-.555V62.775a.555.555,0,0,1,.555-.555H55.617a.555.555,0,0,1,.555.555v2.663a.555.555,0,0,0,.555.555h5.88a1.11,1.11,0,0,0,1.11-1.11V34.752a1.109,1.109,0,0,0-1.11-1.11Z" fill="#fe99a0"/>
        <path id="Trazado_631104" data-name="Trazado 631104" d="M40.65,34.751V64.883a1.109,1.109,0,0,0,1.11,1.11H38.292a1.109,1.109,0,0,1-1.11-1.11V34.751a1.109,1.109,0,0,1,1.11-1.11H41.76A1.109,1.109,0,0,0,40.65,34.751Z" fill="#fd8087"/>
        <circle id="Elipse_7760" data-name="Elipse 7760" cx="10.351" cy="10.351" r="10.351" transform="translate(7.285 47.99)" fill="#b3dafe"/>
        <path id="Trazado_631105" data-name="Trazado 631105" d="M19.37,68.548a10.352,10.352,0,1,1,0-20.413,10.352,10.352,0,0,0-1.774,19.944A10.5,10.5,0,0,0,19.37,68.548Z" fill="#8ac9fe"/>
        <path id="Trazado_631106" data-name="Trazado 631106" d="M27.2,43.992H10.718a.555.555,0,0,1-.555-.555v-4.59a.555.555,0,0,1,.555-.555H27.2a.555.555,0,0,1,.555.555v4.59A.555.555,0,0,1,27.2,43.992Z" fill="#c9f6b0"/>
        <path id="Trazado_631107" data-name="Trazado 631107" d="M14.186,43.991H10.718a.555.555,0,0,1-.555-.555V38.848a.555.555,0,0,1,.555-.555h3.468a.555.555,0,0,0-.555.555v4.589A.555.555,0,0,0,14.186,43.991Z" fill="#9be69d"/>
        <path id="Trazado_631108" data-name="Trazado 631108" d="M43.424,43.131V38.976a.555.555,0,0,1,.555-.555H56.92a.555.555,0,0,1,.555.555v4.155a.555.555,0,0,1-.555.555H43.979A.555.555,0,0,1,43.424,43.131Z" fill="#f2fbff"/>
        <path id="Trazado_631109" data-name="Trazado 631109" d="M17.842,57.457l9.4-7.046a.278.278,0,0,1,.384.048,12.187,12.187,0,0,1,1.5,13.106,11.541,11.541,0,0,1-1.894,2.677.277.277,0,0,1-.388.01l-9.023-8.37a.277.277,0,0,1,.022-.425Z" fill="#c9f6b0"/>
        <path id="Trazado_631110" data-name="Trazado 631110" d="M21.287,57.882,28.527,64.6a11.544,11.544,0,0,1-1.3,1.644.276.276,0,0,1-.388.011l-9.023-8.37a.278.278,0,0,1,.022-.424l9.4-7.047a.279.279,0,0,1,.384.047,13,13,0,0,1,1.025,1.5l-7.339,5.5A.278.278,0,0,0,21.287,57.882Z" fill="#9be69d"/>
        <g id="Grupo_959771" data-name="Grupo 959771">
          <circle id="Elipse_7761" data-name="Elipse 7761" cx="1.912" cy="1.912" r="1.912" transform="translate(45.542 15.058)" fill="#fe99a0"/>
          <circle id="Elipse_7762" data-name="Elipse 7762" cx="1.912" cy="1.912" r="1.912" transform="translate(50.843 21.021)" fill="#fe99a0"/>
          <circle id="Elipse_7763" data-name="Elipse 7763" cx="1.912" cy="1.912" r="1.912" transform="translate(57.798 15.533)" fill="#fe99a0"/>
        </g>
        <path id="Trazado_631111" data-name="Trazado 631111" d="M47.447,43.686H43.979a.555.555,0,0,1-.555-.555V38.976a.555.555,0,0,1,.555-.555h3.468a.555.555,0,0,0-.555.555v4.154A.555.555,0,0,0,47.447,43.686Z" fill="#d8ecfe"/>
      </g>
      <g id="Grupo_959773" data-name="Grupo 959773">
        <path id="Trazado_631112" data-name="Trazado 631112" d="M31.671,26.063A12.714,12.714,0,1,0,9.108,34.1a1.585,1.585,0,0,0,1.232.581H27.573a1.586,1.586,0,0,0,1.233-.581A12.733,12.733,0,0,0,31.671,26.063ZM18.957,24.882a2.189,2.189,0,1,1,2.189-2.189A2.191,2.191,0,0,1,18.957,24.882Zm-.969,1.968a4.239,4.239,0,0,0,1.941,0,3.764,3.764,0,0,1,2.791,3.635v2.12H15.193v-2.12A3.773,3.773,0,0,1,17.988,26.851Zm9.353,5.754H24.8v-2.12a5.8,5.8,0,0,0-1.711-4.131,5.877,5.877,0,0,0-.977-.787,4.27,4.27,0,1,0-6.31,0,5.865,5.865,0,0,0-2.69,4.917v2.12h-2.54a10.634,10.634,0,1,1,16.767,0Z"/>
        <path id="Trazado_631113" data-name="Trazado 631113" d="M68.295,1.269H2.7A2.708,2.708,0,0,0,0,3.974v9.875a1.04,1.04,0,0,0,2.081,0v-2.4H68.919V53.613a.625.625,0,0,1-.624.624H64.757V51.706a1.04,1.04,0,0,0-2.081,0V64.886a.07.07,0,0,1-.069.069H57.213V62.779a1.6,1.6,0,0,0-1.6-1.6H45.282a1.6,1.6,0,0,0-1.6,1.6v2.176H38.292a.07.07,0,0,1-.069-.069V34.756a.07.07,0,0,1,.069-.069H62.607a.07.07,0,0,1,.069.069V46.851a1.04,1.04,0,1,0,2.081,0V34.756a2.152,2.152,0,0,0-2.15-2.15H38.292a2.152,2.152,0,0,0-2.15,2.15V54.237H30.788a13.882,13.882,0,0,0-2.349-4.42,1.326,1.326,0,0,0-1.824-.235l-.932.7A11.389,11.389,0,0,0,7.015,54.237H2.7a.625.625,0,0,1-.624-.624V18.7A1.04,1.04,0,1,0,0,18.7V53.613a2.708,2.708,0,0,0,2.7,2.7H6.427A11.374,11.374,0,0,0,17.611,69.73a11.465,11.465,0,0,0,7.972-3.223l.552.512a1.322,1.322,0,0,0,1.852-.058,12.584,12.584,0,0,0,2.064-2.918,12.767,12.767,0,0,0,1.223-7.725h4.869v8.568a2.152,2.152,0,0,0,2.15,2.15h5.88a1.6,1.6,0,0,0,1.6-1.6V63.265h9.365v2.176a1.6,1.6,0,0,0,1.6,1.6h5.88a2.152,2.152,0,0,0,2.15-2.15V56.318H68.3a2.708,2.708,0,0,0,2.7-2.7V3.974a2.709,2.709,0,0,0-2.705-2.7ZM14.479,67.1A9.311,9.311,0,1,1,24,51.546l-6.779,5.083a1.318,1.318,0,0,0-.106,2.021l6.943,6.44A9.358,9.358,0,0,1,14.479,67.1Zm3.988-8.811h0ZM28.2,63.1a10.482,10.482,0,0,1-1.222,1.866L19.2,57.745l8.054-6.039A11.142,11.142,0,0,1,28.2,63.1ZM2.081,9.364V3.974A.625.625,0,0,1,2.7,3.35h65.59a.625.625,0,0,1,.624.624v5.39Z"/>
        <path id="Trazado_631114" data-name="Trazado 631114" d="M43.467,5.316H7A1.04,1.04,0,0,0,7,7.4H43.468a1.04,1.04,0,1,0,0-2.081Z"/>
        <path id="Trazado_631115" data-name="Trazado 631115" d="M64,5.316h-.471a1.04,1.04,0,0,0,0,2.081H64a1.04,1.04,0,1,0,0-2.081Z"/>
        <path id="Trazado_631116" data-name="Trazado 631116" d="M60.057,5.316h-.471a1.04,1.04,0,0,0,0,2.081h.471a1.04,1.04,0,0,0,0-2.081Z"/>
        <path id="Trazado_631117" data-name="Trazado 631117" d="M56.119,5.316h-.47a1.04,1.04,0,1,0,0,2.081h.47a1.04,1.04,0,0,0,0-2.081Z"/>
        <path id="Trazado_631118" data-name="Trazado 631118" d="M27.2,37.256H10.718a1.6,1.6,0,0,0-1.6,1.6v4.59a1.6,1.6,0,0,0,1.6,1.6H27.2a1.6,1.6,0,0,0,1.6-1.6v-4.59A1.6,1.6,0,0,0,27.2,37.256Zm-.485,5.7H11.2V39.337H26.71Z"/>
        <path id="Trazado_631119" data-name="Trazado 631119" d="M58.515,38.98a1.6,1.6,0,0,0-1.6-1.6H43.979a1.6,1.6,0,0,0-1.6,1.6v4.155a1.6,1.6,0,0,0,1.6,1.6H56.92a1.6,1.6,0,0,0,1.6-1.6Zm-2.081,3.67H44.465V39.465h11.97Z"/>
        <path id="Trazado_631120" data-name="Trazado 631120" d="M45.4,47.587H43.425a1.04,1.04,0,0,0,0,2.081H45.4a1.04,1.04,0,0,0,0-2.081Z"/>
        <path id="Trazado_631121" data-name="Trazado 631121" d="M57.475,47.587H49.2a1.04,1.04,0,0,0,0,2.081h8.274a1.04,1.04,0,0,0,0-2.081Z"/>
        <path id="Trazado_631122" data-name="Trazado 631122" d="M45.4,52.026H43.425a1.04,1.04,0,1,0,0,2.081H45.4a1.04,1.04,0,0,0,0-2.081Z"/>
        <path id="Trazado_631123" data-name="Trazado 631123" d="M57.475,52.026H49.2a1.04,1.04,0,0,0,0,2.081h8.274a1.04,1.04,0,0,0,0-2.081Z"/>
        <path id="Trazado_631124" data-name="Trazado 631124" d="M45.4,56.465H43.425a1.04,1.04,0,0,0,0,2.081H45.4a1.04,1.04,0,0,0,0-2.081Z"/>
        <path id="Trazado_631125" data-name="Trazado 631125" d="M57.475,56.465H49.2a1.04,1.04,0,0,0,0,2.081h8.274a1.04,1.04,0,0,0,0-2.081Z"/>
        <path id="Trazado_631126" data-name="Trazado 631126" d="M39.5,13.349a1.04,1.04,0,0,0-1.04,1.04V28.516a1.319,1.319,0,0,0,1.318,1.318H59.587a1.04,1.04,0,1,0,0-2.081H40.539V23.322l5.316-3.869a2.922,2.922,0,0,0,2.656.275l1.641,1.819a2.953,2.953,0,1,0,5.43.541l2.657-2.082A2.962,2.962,0,1,0,56.917,18.4l-2.6,2.038a2.917,2.917,0,0,0-2.6-.259l-1.652-1.831a2.954,2.954,0,1,0-5.45-.565l-4.077,2.968V14.389a1.04,1.04,0,0,0-1.04-1.04ZM59.71,16.578a.872.872,0,1,1-.872.872A.873.873,0,0,1,59.71,16.578Zm-6.083,6.36a.872.872,0,1,1-.872-.872A.873.873,0,0,1,53.627,22.937ZM47.454,16.1a.872.872,0,1,1-.872.872A.873.873,0,0,1,47.454,16.1Z"/>
      </g>
    </g>
  </g>
</svg>
