<svg xmlns="http://www.w3.org/2000/svg" xmlns:xlink="http://www.w3.org/1999/xlink" width="71" height="71" viewBox="0 0 71 71">
  <defs>
    <clipPath id="clip-path">
      <rect id="Rectángulo_306931" data-name="Rectángulo 306931" width="71" height="71" transform="translate(638 20663)" fill="#583cb6" stroke="#707070" stroke-width="1"/>
    </clipPath>
  </defs>
  <g id="Enmascarar_grupo_878426" data-name="Enmascarar grupo 878426" transform="translate(-638 -20663)" clip-path="url(#clip-path)">
    <g id="experiencia" transform="translate(638 20663)">
      <g id="Grupo_959779" data-name="Grupo 959779">
        <path id="Trazado_631148" data-name="Trazado 631148" d="M13.369,32.312H8.955V34.98a1.994,1.994,0,0,0,1.994,1.994h.426a1.994,1.994,0,0,0,1.994-1.994V32.312Z" fill="#a59ca6"/>
        <path id="Trazado_631149" data-name="Trazado 631149" d="M42.464,50.955l.27.041a7.524,7.524,0,0,0,8.045-10.43l-2.257-5.2a6.3,6.3,0,0,1-.456-1.609,12.7,12.7,0,0,0-25.142,0,6.3,6.3,0,0,1-.456,1.609l-2.257,5.2A7.524,7.524,0,0,0,28.255,51l.27-.041,4.338-1.041h5.849Z" fill="#a59ca6"/>
        <path id="Trazado_631150" data-name="Trazado 631150" d="M38.711,56.922l5.969,2.395a8.73,8.73,0,0,1,5.479,8.1V68.71a1.25,1.25,0,0,1-1.25,1.25H21.8a1.25,1.25,0,0,1-1.25-1.25V67.419a8.73,8.73,0,0,1,5.479-8.1L32,56.922l1.83-.735h3.129Z" fill="#e79098"/>
        <path id="Trazado_631151" data-name="Trazado 631151" d="M38.711,56.922l-.029-.012-.389.047-5.6,1.955V56.645L32,56.922l-5.969,2.395a8.73,8.73,0,0,0-5.479,8.1V68.71a1.25,1.25,0,0,0,1.25,1.25h2.106V68.943a8.73,8.73,0,0,1,5.479-8.1l.506-.2a1.739,1.739,0,0,1,1.815.309,5.431,5.431,0,0,0,9.023-3.215Z" fill="#e17983"/>
        <path id="Trazado_631152" data-name="Trazado 631152" d="M38.711,56.922a3.356,3.356,0,0,1-6.712,0V48.888h6.712Z" fill="#ffd1c2"/>
        <g id="Grupo_959778" data-name="Grupo 959778">
          <path id="Trazado_631153" data-name="Trazado 631153" d="M43.793,36.484v9.568a8.3,8.3,0,0,1-16.6,0v-7.2a9.753,9.753,0,0,1,2.139-6.095.694.694,0,0,1,.98-.1l.387.315a10.175,10.175,0,0,0,6.154,2.279l5.883.155a1.084,1.084,0,0,1,1.055,1.083Z" fill="#ffe0d1"/>
          <path id="Trazado_631154" data-name="Trazado 631154" d="M28.391,34.739l.521.383a14.588,14.588,0,0,0,8.273,2.766l6.608.157V36.484A1.084,1.084,0,0,0,42.737,35.4l-5.883-.155A10.175,10.175,0,0,1,30.7,32.967l-.387-.315a.694.694,0,0,0-.98.1,9.76,9.76,0,0,0-1.169,1.86.953.953,0,0,1,.226.122Z" fill="#ffd1c2"/>
          <path id="Trazado_631155" data-name="Trazado 631155" d="M18.423,22.429a7.3,7.3,0,0,0-10.154-6.7,6.7,6.7,0,0,0-3.789,3.764,7.4,7.4,0,0,0,.745,7.114l3.493,5.439V33.1a.463.463,0,0,0,.463.463h3.962a.463.463,0,0,0,.463-.463v-1.05L17.1,26.607A7.228,7.228,0,0,0,18.423,22.429Z" fill="#fbe88c"/>
          <path id="Trazado_631156" data-name="Trazado 631156" d="M11.814,33.1v-1.05L8.321,26.607a7.4,7.4,0,0,1-.745-7.114,6.7,6.7,0,0,1,3.789-3.764,8.338,8.338,0,0,1,1.332-.4,7.655,7.655,0,0,0-4.429.4,6.7,6.7,0,0,0-3.789,3.764,7.4,7.4,0,0,0,.745,7.114l3.493,5.439V33.1a.463.463,0,0,0,.463.463h3.1A.463.463,0,0,1,11.814,33.1Z" fill="#f9de58"/>
          <path id="Trazado_631157" data-name="Trazado 631157" d="M12.015,26.284H10.309A1.034,1.034,0,0,1,9.275,25.25V23.544a1.034,1.034,0,0,1,1.034-1.034h1.706a1.034,1.034,0,0,1,1.034,1.034V25.25A1.034,1.034,0,0,1,12.015,26.284Z" fill="#f9de58"/>
          <circle id="Elipse_7764" data-name="Elipse 7764" cx="8.191" cy="8.191" r="8.191" transform="translate(27.164 1.04)" fill="#b3e5ee"/>
          <path id="Trazado_631158" data-name="Trazado 631158" d="M30.741,8.733a8.2,8.2,0,0,1,5.3-7.665c-.225-.019-.454-.028-.684-.028A8.191,8.191,0,1,0,38.25,16.9a8.192,8.192,0,0,1-7.509-8.162Z" fill="#86d7e5"/>
          <path id="Trazado_631159" data-name="Trazado 631159" d="M59.561,15.493,61.6,19.625a.582.582,0,0,0,.439.319l4.559.663a.582.582,0,0,1,.323.993l-3.3,3.216a.582.582,0,0,0-.167.515l.779,4.541a.582.582,0,0,1-.845.614L59.31,28.341a.583.583,0,0,0-.542,0L54.69,30.485a.582.582,0,0,1-.845-.614l.779-4.541a.582.582,0,0,0-.167-.515l-3.3-3.216a.582.582,0,0,1,.323-.993l4.559-.663a.582.582,0,0,0,.439-.319l2.039-4.131a.582.582,0,0,1,1.044,0Z" fill="#fbe88c"/>
          <path id="Trazado_631160" data-name="Trazado 631160" d="M64.233,29.871l-.084-.492-4.79-2.518a.686.686,0,0,0-.639,0L56.45,28.054a.419.419,0,0,1-.607-.441l.477-2.783a.706.706,0,0,0-.2-.625l-1.86-1.813a.594.594,0,0,1,.329-1.013l2.567-.373a.661.661,0,0,0,.5-.362l2.226-4.511-.316-.641a.582.582,0,0,0-1.044,0l-2.039,4.131a.582.582,0,0,1-.439.319l-4.559.663a.582.582,0,0,0-.323.993l3.3,3.216a.582.582,0,0,1,.167.515l-.779,4.541a.582.582,0,0,0,.845.614l4.078-2.144a.583.583,0,0,1,.542,0l4.078,2.144a.582.582,0,0,0,.845-.614Z" fill="#f9de58"/>
        </g>
      </g>
      <g id="Grupo_959780" data-name="Grupo 959780">
        <path id="Trazado_631161" data-name="Trazado 631161" d="M49.475,34.948a5.249,5.249,0,0,1-.381-1.343,13.757,13.757,0,0,0-.988-3.495,1.04,1.04,0,0,0-1.909.825,11.676,11.676,0,0,1,.838,2.966,7.344,7.344,0,0,0,.531,1.875l2.257,5.2a6.484,6.484,0,0,1-5.889,9.063,9.282,9.282,0,0,0,.9-3.991V36.484a2.112,2.112,0,0,0-2.068-2.123l-5.883-.155a9.184,9.184,0,0,1-5.525-2.046l-.387-.315a1.734,1.734,0,0,0-2.448.261,10.832,10.832,0,0,0-2.367,6.745v7.2a9.282,9.282,0,0,0,.9,3.991,6.484,6.484,0,0,1-5.889-9.063l2.257-5.2a7.347,7.347,0,0,0,.531-1.875,11.66,11.66,0,0,1,19.892-6.478,1.04,1.04,0,1,0,1.489-1.452A13.74,13.74,0,0,0,21.893,33.6a5.249,5.249,0,0,1-.381,1.343l-2.257,5.2a8.569,8.569,0,0,0,7.809,11.975,8.875,8.875,0,0,0,1.265-.092,9.4,9.4,0,0,0,2.63,2.178v2.007l-5.316,2.133a9.725,9.725,0,0,0-6.132,9.067V69.96a1.04,1.04,0,0,0,2.08,0V67.419a7.655,7.655,0,0,1,4.827-7.137l4.785-1.92a4.394,4.394,0,0,0,8.3,0l4.786,1.92c.126.05.258.109.418.184a1.04,1.04,0,1,0,.885-1.882c-.2-.093-.365-.166-.529-.232l-5.316-2.133V54.36a9.4,9.4,0,0,0,2.907-2.325,8.853,8.853,0,0,0,1.265.092,8.569,8.569,0,0,0,7.809-11.975Zm-11.8,21.974a2.316,2.316,0,0,1-4.632,0V55.061a9.294,9.294,0,0,0,4.632.071Zm-2.177-3.611a7.267,7.267,0,0,1-7.259-7.259v-7.2a8.748,8.748,0,0,1,1.7-5.169l.112.091a11.275,11.275,0,0,0,6.782,2.511l5.883.155a.044.044,0,0,1,.043.044v9.569a7.268,7.268,0,0,1-7.259,7.259Z"/>
        <path id="Trazado_631162" data-name="Trazado 631162" d="M47.952,61.527a1.04,1.04,0,0,0-.248,1.449,7.65,7.65,0,0,1,1.415,4.443V69.96a1.04,1.04,0,0,0,2.08,0V67.419a9.717,9.717,0,0,0-1.8-5.644,1.039,1.039,0,0,0-1.449-.248Z"/>
        <path id="Trazado_631163" data-name="Trazado 631163" d="M15.84,15.572a8.446,8.446,0,0,0-7.949-.812,7.751,7.751,0,0,0-4.378,4.35,8.852,8.852,0,0,0-.627,3.929,1.04,1.04,0,0,0,2.074-.151,6.79,6.79,0,0,1,.487-3.012,5.665,5.665,0,0,1,3.2-3.178,6.4,6.4,0,0,1,6.02.591,6.222,6.222,0,0,1,1.584,8.719l-.025.037-3.493,5.439a1.041,1.041,0,0,0-.165.562v.474H12.2V27.314a2.076,2.076,0,0,0,1.887-2.064V23.544a2.076,2.076,0,0,0-2.074-2.074H10.309a2.076,2.076,0,0,0-2.074,2.074V25.25a2.076,2.076,0,0,0,1.887,2.064V32.52H9.758v-.474a1.041,1.041,0,0,0-.165-.562L6.414,26.535a1.04,1.04,0,0,0-1.75,1.124l3.014,4.693V33.1a1.493,1.493,0,0,0,.237.808V34.98a3.037,3.037,0,0,0,3.034,3.034h.426a3.037,3.037,0,0,0,3.034-3.034V33.9a1.493,1.493,0,0,0,.237-.808v-.745l3.317-5.164A8.3,8.3,0,0,0,15.84,15.572Zm-3.831,7.972.007,1.7-.8,0-.055,0c-.021,0-.043,0-.064,0l-.783,0-.006-1.7Zm.32,11.437a.955.955,0,0,1-.954.954h-.426A.955.955,0,0,1,10,34.98V34.6h2.334Z"/>
        <path id="Trazado_631164" data-name="Trazado 631164" d="M35.355,18.462a9.231,9.231,0,1,0-9.231-9.231,9.241,9.241,0,0,0,9.231,9.231Zm0-16.382A7.151,7.151,0,1,1,28.2,9.231,7.159,7.159,0,0,1,35.355,2.08Z"/>
        <path id="Trazado_631165" data-name="Trazado 631165" d="M33.527,12.7A1.04,1.04,0,0,0,35,12.7l4.858-4.858a1.04,1.04,0,1,0-1.471-1.471l-4.122,4.122-.7-.7a1.04,1.04,0,1,0-1.47,1.471Z"/>
        <path id="Trazado_631166" data-name="Trazado 631166" d="M68.057,20.681a1.612,1.612,0,0,0-1.31-1.1l-4.321-.628-1.932-3.916a1.622,1.622,0,0,0-2.909,0l-1.933,3.916-4.321.628a1.622,1.622,0,0,0-.9,2.767l3.127,3.048-.738,4.3a1.622,1.622,0,0,0,2.354,1.71l3.865-2.032L62.9,31.405a1.622,1.622,0,0,0,2.353-1.71l-.738-4.3,3.127-3.048a1.612,1.612,0,0,0,.411-1.663ZM62.9,24.07a1.622,1.622,0,0,0-.467,1.436l.622,3.627-3.257-1.713a1.622,1.622,0,0,0-1.51,0l-3.258,1.713.622-3.628a1.622,1.622,0,0,0-.467-1.436L52.547,21.5l3.642-.529a1.622,1.622,0,0,0,1.221-.887l1.629-3.3,1.629,3.3a1.622,1.622,0,0,0,1.222.888l3.642.529Z"/>
        <path id="Trazado_631167" data-name="Trazado 631167" d="M46.381,13.337a30.269,30.269,0,0,1,4.588,2.257,1.039,1.039,0,0,0,.739,1.936l1.97-.587a1.04,1.04,0,0,0,.743-1V13.817a1.04,1.04,0,1,0-2.08,0V14a32.365,32.365,0,0,0-5.205-2.6,1.04,1.04,0,0,0-.756,1.937Z"/>
        <path id="Trazado_631168" data-name="Trazado 631168" d="M18.948,15.9a1.035,1.035,0,0,0,.543-.154,30.407,30.407,0,0,1,3.015-1.624l-.054.2a1.04,1.04,0,1,0,2.009.537l.635-2.376a1.04,1.04,0,0,0-.669-1.253l-1.905-.649a1.039,1.039,0,0,0-1.058,1.73,32.493,32.493,0,0,0-3.06,1.66,1.04,1.04,0,0,0,.545,1.926Z"/>
      </g>
    </g>
  </g>
</svg>
