<svg xmlns="http://www.w3.org/2000/svg" xmlns:xlink="http://www.w3.org/1999/xlink" width="71" height="71" viewBox="0 0 71 71">
  <defs>
    <clipPath id="clip-path">
      <rect id="Rectángulo_306933" data-name="Rectángulo 306933" width="71" height="71" transform="translate(1058 20981)" fill="#583cb6" stroke="#707070" stroke-width="1"/>
    </clipPath>
  </defs>
  <g id="Enmascarar_grupo_878430" data-name="Enmascarar grupo 878430" transform="translate(-1058 -20981)" clip-path="url(#clip-path)">
    <g id="reloj-de-arena" transform="translate(1072.699 20981)">
      <path id="Trazado_631220" data-name="Trazado 631220" d="M37.441,64.066a2.773,2.773,0,0,1,2.773,2.773v2.773H1.387V66.84A2.773,2.773,0,0,1,4.16,64.066Zm0,0" fill="#424d63"/>
      <path id="Trazado_631221" data-name="Trazado 631221" d="M40.215,1.387V4.16a2.773,2.773,0,0,1-2.773,2.773H4.16A2.773,2.773,0,0,1,1.387,4.16V1.387Zm0,0" fill="#424d63"/>
      <path id="Trazado_631222" data-name="Trazado 631222" d="M18.532,28.368a8.475,8.475,0,0,1,2.269,2.14,8.692,8.692,0,0,1,2.324-2.172c5.244-3.16,8.769-8.175,8.769-12.472V13.312A20.911,20.911,0,0,1,20.8,16.494,20.911,20.911,0,0,1,9.707,13.312v2.551C9.707,20.162,13.232,25.176,18.532,28.368ZM37.441,55.144v8.922H4.16V55.144A20.189,20.189,0,0,1,13.938,37.9a2.838,2.838,0,0,0,0-4.8A20.189,20.189,0,0,1,4.16,15.856V6.933H37.441v8.922A20.189,20.189,0,0,1,27.663,33.1a2.838,2.838,0,0,0,0,4.8,20.189,20.189,0,0,1,9.778,17.244ZM31.895,58.52v-.61c0-4.3-3.525-3.765-8.825-6.957A8.294,8.294,0,0,1,20.8,48.876a8.464,8.464,0,0,1-2.32,2.108c-5.244,3.16-8.769,2.628-8.769,6.925v.61ZM22.187,43.4A1.387,1.387,0,1,0,20.8,44.791,1.387,1.387,0,0,0,22.187,43.4Zm0,0" fill="#cae9fc"/>
      <path id="Trazado_631223" data-name="Trazado 631223" d="M31.895,57.91v.61H9.707v-.61c0-4.3,3.525-3.765,8.769-6.925a8.465,8.465,0,0,0,2.32-2.108,8.294,8.294,0,0,0,2.273,2.076c5.3,3.192,8.825,2.66,8.825,6.957Zm0,0" fill="#ffe781"/>
      <path id="Trazado_631224" data-name="Trazado 631224" d="M31.895,13.312v2.551c0,4.3-3.525,9.312-8.769,12.472A8.692,8.692,0,0,0,20.8,30.508a8.475,8.475,0,0,0-2.269-2.14c-5.3-3.192-8.825-8.207-8.825-12.5V13.312A20.911,20.911,0,0,0,20.8,16.494,20.911,20.911,0,0,0,31.895,13.312Zm0,0" fill="#ffe781"/>
      <path id="Trazado_631225" data-name="Trazado 631225" d="M20.8,42.018A1.387,1.387,0,1,1,19.414,43.4,1.387,1.387,0,0,1,20.8,42.018Zm0,0"/>
      <path id="Trazado_631226" data-name="Trazado 631226" d="M28.384,34.284a21.827,21.827,0,0,0,7.7-7.958,21.47,21.47,0,0,0,2.741-10.471V8.082A4.167,4.167,0,0,0,41.6,4.16V1.387A1.387,1.387,0,0,0,40.215,0H1.387A1.387,1.387,0,0,0,0,1.387V4.16A4.167,4.167,0,0,0,2.773,8.082v7.774A21.47,21.47,0,0,0,5.514,26.326a21.83,21.83,0,0,0,7.7,7.958,1.452,1.452,0,0,1,0,2.431,21.823,21.823,0,0,0-7.7,7.958A21.47,21.47,0,0,0,2.773,55.144v7.774A4.167,4.167,0,0,0,0,66.84v2.773A1.387,1.387,0,0,0,1.387,71H40.215A1.387,1.387,0,0,0,41.6,69.613V66.84a4.167,4.167,0,0,0-2.773-3.922V55.144a21.469,21.469,0,0,0-2.741-10.471,21.821,21.821,0,0,0-7.7-7.958,1.452,1.452,0,0,1,0-2.431ZM2.773,2.773H38.828V4.16a1.388,1.388,0,0,1-1.387,1.387H4.16A1.388,1.388,0,0,1,2.773,4.16ZM38.828,68.227H2.773V66.84A1.388,1.388,0,0,1,4.16,65.453H37.441a1.388,1.388,0,0,1,1.387,1.387ZM26.944,39.085a18.692,18.692,0,0,1,9.111,16.059V62.68H5.547V55.144a18.692,18.692,0,0,1,9.111-16.059,4.224,4.224,0,0,0,0-7.171A18.692,18.692,0,0,1,5.547,15.856V8.32H36.055v7.535a18.691,18.691,0,0,1-9.111,16.058,4.224,4.224,0,0,0,0,7.171Zm0,0"/>
      <path id="Trazado_631227" data-name="Trazado 631227" d="M21.906,48.044A1.387,1.387,0,0,0,20.8,47.49h0a1.387,1.387,0,0,0-1.108.553A7.069,7.069,0,0,1,17.754,49.8a31.421,31.421,0,0,1-4.259,2.083C10.718,53.054,8.32,54.065,8.32,57.91v.61a1.387,1.387,0,0,0,1.387,1.387H31.895a1.387,1.387,0,0,0,1.387-1.387v-.61c0-3.842-2.4-4.858-5.186-6.034a32.062,32.062,0,0,1-4.3-2.107,6.905,6.905,0,0,1-1.887-1.725Zm8.547,9.088H11.148c.211-1.282,1.085-1.707,3.425-2.694a34.227,34.227,0,0,0,4.62-2.266l.014-.009A10.007,10.007,0,0,0,20.8,50.947a9.747,9.747,0,0,0,1.543,1.184l.015.009a34.737,34.737,0,0,0,4.661,2.29c2.349.993,3.226,1.421,3.438,2.7Zm0,0"/>
      <path id="Trazado_631228" data-name="Trazado 631228" d="M33.281,15.864V13.312a1.387,1.387,0,0,0-2.122-1.176A19.52,19.52,0,0,1,20.8,15.107a19.521,19.521,0,0,1-10.359-2.971A1.387,1.387,0,0,0,8.32,13.312v2.551A13.2,13.2,0,0,0,11,23.329a22.626,22.626,0,0,0,6.81,6.221,6.86,6.86,0,0,1,1.606,1.44v6.867a1.387,1.387,0,0,0,2.773,0V30.993a7.071,7.071,0,0,1,1.66-1.473c5.643-3.4,9.433-8.89,9.433-13.656ZM22.409,27.148l-.014.009a9.376,9.376,0,0,0-1.59,1.251,8.951,8.951,0,0,0-1.543-1.219l-.015-.009c-4.877-2.938-8.154-7.485-8.154-11.316v-.2A22.3,22.3,0,0,0,20.8,17.88a22.3,22.3,0,0,0,9.707-2.22v.2c0,3.771-3.33,8.411-8.1,11.284Zm0,0"/>
    </g>
  </g>
</svg>
