<svg xmlns="http://www.w3.org/2000/svg" width="301.244" height="483.711" viewBox="0 0 301.244 483.711">
  <g id="Grupo_980568" data-name="Grupo 980568" transform="translate(-1118.756 -24968.133)">
    <rect id="Rectángulo_306863" data-name="Rectángulo 306863" width="295" height="318" transform="translate(1125 24968.133)" fill="#fffaef"/>
    <g id="Grupo_960060" data-name="Grupo 960060" transform="translate(981.99 25046.02)">
      <g id="Background_Complete" data-name="Background Complete" transform="translate(320.828 131.421)">
        <g id="Grupo_959813" data-name="Grupo 959813">
          <g id="Grupo_959807" data-name="Grupo 959807">
            <g id="Grupo_959801" data-name="Grupo 959801" transform="translate(0 102.995)">
              <g id="Grupo_959788" data-name="Grupo 959788" transform="translate(0.358 0.386)">
                <g id="Grupo_959787" data-name="Grupo 959787">
                  <g id="Grupo_959786" data-name="Grupo 959786">
                    <g id="Grupo_959785" data-name="Grupo 959785">
                      <g id="Grupo_959784" data-name="Grupo 959784">
                        <path id="Trazado_631229" data-name="Trazado 631229" d="M361.975,264.436a26.874,26.874,0,0,1-7.03,1.171l-2.875,5.95-10.653-2.464.03-6.609a26.761,26.761,0,0,1-5.8-4.14l-6.238,2.175-5.79-9.276,4.692-4.65a26.722,26.722,0,0,1-1.17-7.032l-5.951-2.875,2.463-10.652,6.609.029a26.812,26.812,0,0,1,4.141-5.8l-2.175-6.238,9.276-5.792,4.65,4.693a26.757,26.757,0,0,1,7.031-1.171l2.876-5.951,10.653,2.464-.031,6.61a26.811,26.811,0,0,1,5.8,4.14l6.238-2.174,5.791,9.275-4.693,4.65a26.69,26.69,0,0,1,1.171,7.032l5.951,2.875-2.463,10.652-6.61-.03a26.819,26.819,0,0,1-4.14,5.8l2.174,6.237-9.275,5.79-4.651-4.691Zm-2.122-15.544a11.729,11.729,0,1,0-16.162-3.738A11.728,11.728,0,0,0,359.853,248.892Z" transform="translate(-321.186 -205.802)" fill="none"/>
                      </g>
                    </g>
                  </g>
                </g>
              </g>
              <g id="Grupo_959794" data-name="Grupo 959794" transform="translate(20.773 21.471)">
                <g id="Grupo_959793" data-name="Grupo 959793">
                  <g id="Grupo_959792" data-name="Grupo 959792">
                    <g id="Grupo_959791" data-name="Grupo 959791">
                      <g id="Grupo_959790" data-name="Grupo 959790">
                        <g id="Grupo_959789" data-name="Grupo 959789">
                          <path id="Trazado_631230" data-name="Trazado 631230" d="M359.853,248.892a8.855,8.855,0,0,1-2.584,1.331,11.673,11.673,0,0,1-7.862-.1,11.817,11.817,0,0,1-4.6-3.054,12.01,12.01,0,0,1-2.932-5.617,12.029,12.029,0,0,1,.574-6.972,11.967,11.967,0,0,1,12.093-7.55,12.02,12.02,0,0,1,6.518,2.546,12,12,0,0,1,3.759,5.1,11.812,11.812,0,0,1,.724,5.472,11.681,11.681,0,0,1-3.363,7.108,8.846,8.846,0,0,1-2.329,1.736c-.049-.067.873-.575,2.14-1.918a11.689,11.689,0,0,0,3.078-6.97,11.454,11.454,0,0,0-4.392-10.04,11.45,11.45,0,0,0-6.185-2.376,11.363,11.363,0,0,0-11.43,7.136,11.462,11.462,0,0,0-.58,6.6,11.461,11.461,0,0,0,7.091,8.355,11.693,11.693,0,0,0,7.614.3C358.952,249.425,359.814,248.819,359.853,248.892Z" transform="translate(-341.601 -226.887)" fill="#e0e0e0"/>
                        </g>
                      </g>
                    </g>
                  </g>
                </g>
              </g>
              <g id="Grupo_959800" data-name="Grupo 959800">
                <g id="Grupo_959799" data-name="Grupo 959799">
                  <g id="Grupo_959798" data-name="Grupo 959798">
                    <g id="Grupo_959797" data-name="Grupo 959797">
                      <g id="Grupo_959796" data-name="Grupo 959796">
                        <g id="Grupo_959795" data-name="Grupo 959795">
                          <path id="Trazado_631231" data-name="Trazado 631231" d="M361.975,264.436a2.38,2.38,0,0,1,.307.275c.221.213.517.5.9.87l3.522,3.47-.134-.015,9.241-5.844-.07.2c-.667-1.887-1.407-3.984-2.2-6.228l-.04-.112.083-.089a26.762,26.762,0,0,0,4.089-5.771l.061-.118h.135l6.609.011-.234.186c.768-3.356,1.583-6.918,2.439-10.657l.143.3-5.957-2.864-.151-.072-.006-.169a26.6,26.6,0,0,0-1.17-6.956l-.052-.167.125-.125L384.3,225.9l-.043.372c-1.823-2.911-3.788-6.05-5.8-9.268l.369.13-6.236,2.179-.182.064-.142-.132a26.648,26.648,0,0,0-5.736-4.085l-.174-.092v-.2c.008-2.07.017-4.328.026-6.609l.255.323-10.653-2.46.376-.181c-.908,1.88-1.887,3.909-2.874,5.952l-.089.184-.2.006a26.515,26.515,0,0,0-6.937,1.155h-.005c-.151-.037.337.086-.339-.084l-.005,0-.009-.009-.018-.018-.037-.037-.073-.074-.147-.148-.292-.295-.585-.59-1.166-1.177-2.318-2.34.417.048L332.4,214.3l.138-.392,2.172,6.239.066.189-.137.146a26.5,26.5,0,0,0-4.094,5.729l-.092.174h-.2l-6.609-.034.314-.248q-1.268,5.453-2.474,10.649l-.167-.349,5.947,2.883.165.08,0,.182a26.53,26.53,0,0,0,1.147,6.955l.052.169-.125.124-4.7,4.642.041-.347,5.77,9.287-.3-.107,6.243-2.159.139-.048.106.1a26.7,26.7,0,0,0,5.742,4.121l.119.063v.133c-.019,2.4-.036,4.565-.052,6.609l-.154-.2L352.1,271.41l-.17.082c1.163-2.37,2.118-4.313,2.913-5.932l.029-.06.065,0a27.8,27.8,0,0,0,5.316-.653l1.29-.311a2.623,2.623,0,0,1,.428-.1,3.493,3.493,0,0,1-.413.152c-.28.088-.7.221-1.279.365a25.908,25.908,0,0,1-5.335.762l.094-.061-2.836,5.969-.052.108-.118-.027-10.664-2.417-.154-.035v-.16c0-2.044.005-4.207.007-6.609l.118.2a27.031,27.031,0,0,1-5.865-4.159l.244.052-6.232,2.189-.194.068-.11-.175-5.808-9.264-.119-.189.159-.158,4.684-4.658-.073.293a27.037,27.037,0,0,1-1.194-7.108l.17.262-5.954-2.868-.223-.107.056-.242q1.2-5.2,2.453-10.654l.057-.249h.257l6.608.025-.289.173a27.111,27.111,0,0,1,4.188-5.876l-.071.334q-1.077-3.087-2.177-6.236l-.088-.252.226-.141,9.274-5.794.228-.142.189.191,2.318,2.339,1.166,1.177.585.59.293.295.146.148.073.074.037.037.018.018.009.009.005,0c-.676-.169-.187-.047-.337-.085h.005a27.126,27.126,0,0,1,7.113-1.183l-.291.189,2.877-5.95.116-.241.26.06,10.652,2.469.257.06,0,.263c-.011,2.281-.023,4.539-.034,6.609l-.173-.289a27.312,27.312,0,0,1,5.869,4.194l-.324-.069,6.24-2.167.237-.082.132.212c2.006,3.223,3.964,6.367,5.779,9.282l.127.2-.17.169-4.7,4.642.073-.291a27.083,27.083,0,0,1,1.171,7.108l-.157-.241c2.078,1.008,4.105,1.993,5.945,2.887l.192.092-.049.206c-.873,3.736-1.7,7.293-2.488,10.646l-.044.187h-.191l-6.609-.049.2-.117a27.053,27.053,0,0,1-4.192,5.835l.042-.2,2.149,6.246.045.13-.116.071-9.308,5.736-.074.046-.059-.061-3.41-3.52-.873-.918A3.39,3.39,0,0,1,361.975,264.436Z" transform="translate(-320.828 -205.416)" fill="#e0e0e0"/>
                        </g>
                      </g>
                    </g>
                  </g>
                </g>
              </g>
            </g>
            <g id="Grupo_959806" data-name="Grupo 959806" transform="translate(5.245)">
              <g id="Grupo_959805" data-name="Grupo 959805">
                <g id="Grupo_959804" data-name="Grupo 959804">
                  <g id="Grupo_959803" data-name="Grupo 959803">
                    <g id="Grupo_959802" data-name="Grupo 959802">
                      <path id="Trazado_631232" data-name="Trazado 631232" d="M383.746,185.324a37.917,37.917,0,0,1-9.941,1.655l-4.064,8.414-15.062-3.485.042-9.343a37.9,37.9,0,0,1-8.206-5.854l-8.821,3.074-8.185-13.114,6.633-6.575a37.86,37.86,0,0,1-1.655-9.943l-8.414-4.065,3.484-15.06,9.344.041a37.884,37.884,0,0,1,5.855-8.205l-3.075-8.82,13.115-8.188,6.575,6.635a37.8,37.8,0,0,1,9.941-1.655l4.066-8.415L390.44,105.9l-.043,9.345a38,38,0,0,1,8.2,5.853l8.82-3.073,8.187,13.115-6.634,6.574a37.815,37.815,0,0,1,1.655,9.943l8.415,4.065-3.484,15.061-9.345-.042a37.879,37.879,0,0,1-5.854,8.205l3.074,8.819-13.114,8.187-6.576-6.633Zm-3-21.977a16.584,16.584,0,1,0-22.85-5.286A16.585,16.585,0,0,0,380.745,163.347Z" transform="translate(-326.073 -102.421)" fill="#e0e0e0" fill-rule="evenodd"/>
                    </g>
                  </g>
                </g>
              </g>
            </g>
          </g>
          <g id="Grupo_959812" data-name="Grupo 959812" transform="translate(67.722 88.613)">
            <g id="Grupo_959811" data-name="Grupo 959811">
              <g id="Grupo_959810" data-name="Grupo 959810">
                <g id="Grupo_959809" data-name="Grupo 959809">
                  <g id="Grupo_959808" data-name="Grupo 959808">
                    <path id="Trazado_631233" data-name="Trazado 631233" d="M419.232,235.138a20.189,20.189,0,0,1-5.289.881l-2.162,4.476-8.013-1.854.022-4.971a20.143,20.143,0,0,1-4.365-3.114l-4.693,1.636-4.355-6.977,3.529-3.5a20.112,20.112,0,0,1-.88-5.29l-4.476-2.162,1.853-8.012,4.971.021a20.188,20.188,0,0,1,3.115-4.364l-1.636-4.692,6.977-4.357,3.5,3.53a20.1,20.1,0,0,1,5.289-.88l2.163-4.477,8.013,1.854-.023,4.971a20.2,20.2,0,0,1,4.365,3.114l4.692-1.635,4.356,6.977-3.53,3.5a20.115,20.115,0,0,1,.881,5.29l4.476,2.163-1.853,8.012-4.972-.022a20.157,20.157,0,0,1-3.114,4.365l1.635,4.692-6.976,4.355-3.5-3.529Zm-1.6-11.692a8.823,8.823,0,1,0-12.156-2.811A8.822,8.822,0,0,0,417.635,223.446Z" transform="translate(-388.55 -191.034)" fill="#ebebeb" fill-rule="evenodd"/>
                  </g>
                </g>
              </g>
            </g>
          </g>
        </g>
      </g>
      <g id="Character" transform="translate(136.765 -42.128)">
        <g id="Grupo_960049" data-name="Grupo 960049">
          <g id="Grupo_959815" data-name="Grupo 959815" transform="translate(15.703 103.481)">
            <path id="Trazado_631234" data-name="Trazado 631234" d="M152.355,161.176s2.743-16.429,3.4-17.68,8.228-8.931,9.12-9.09,12.831-3.905,12.17-2.043-9.033,4.375-9.033,4.375l-.795,1s7.155-2.328,8.934-2.269c1.638.055,1.929,1.756.65,2.246s-7.588,2.328-7.822,2.723,7.023-1.679,7.933-1.64c1.227.052,2.117,1.606.864,2.132-.739.311-7.754,1.921-7.754,1.921a61.643,61.643,0,0,1,6.515-.507c1.08.292.988,1.6-.2,1.915-.815.216-5.1.4-6.19.691,0,0-.809.693-.78,2.863s-2.79,7.952-2.79,7.952Z" transform="translate(-152.355 -131.846)" fill="#ffbe9d"/>
            <g id="Grupo_959814" data-name="Grupo 959814" transform="translate(11.617 0.55)">
              <path id="Trazado_631235" data-name="Trazado 631235" d="M176.948,132.4a6.02,6.02,0,0,1-1.756,1.526,14.256,14.256,0,0,1-2.235,1.226c-.888.333-1.874.672-2.907,1.03l-2.2.746.119-.073a35.117,35.117,0,0,1-4.074,3.779,34.418,34.418,0,0,1,3.689-4.133l.044-.047.075-.026,2.175-.762,2.894-.98a17.615,17.615,0,0,0,2.216-1.085C176.2,132.89,176.892,132.334,176.948,132.4Z" transform="translate(-163.888 -132.392)" fill="#eb996e"/>
            </g>
          </g>
          <g id="Grupo_959909" data-name="Grupo 959909" transform="translate(12.285)">
            <path id="Trazado_631236" data-name="Trazado 631236" d="M335.973,342.377l-162.6-16.75a9.053,9.053,0,0,1-8.077-9.933L193.458,42.334A12.859,12.859,0,0,1,207.567,30.86L362.594,46.83a12.859,12.859,0,0,1,11.473,14.109L345.906,334.3A9.052,9.052,0,0,1,335.973,342.377Z" transform="translate(-148.843 -29.101)" fill="#449c6e"/>
            <path id="Trazado_631237" data-name="Trazado 631237" d="M335.973,342.377l-162.6-16.75a9.053,9.053,0,0,1-8.077-9.933L193.458,42.334A12.859,12.859,0,0,1,207.567,30.86L362.594,46.83a12.859,12.859,0,0,1,11.473,14.109L345.906,334.3A9.052,9.052,0,0,1,335.973,342.377Z" transform="translate(-149.177 -29.101)" opacity="0.4"/>
            <g id="Grupo_959908" data-name="Grupo 959908">
              <g id="Grupo_959816" data-name="Grupo 959816">
                <path id="Trazado_631238" data-name="Trazado 631238" d="M319.686,340.7l-162.6-16.75a9.051,9.051,0,0,1-8.076-9.933L177.171,40.656a12.857,12.857,0,0,1,14.108-11.473l155.026,15.97a12.859,12.859,0,0,1,11.473,14.109L329.618,332.622A9.051,9.051,0,0,1,319.686,340.7Z" transform="translate(-148.962 -29.114)" fill="#449c6e"/>
              </g>
              <g id="Grupo_959817" data-name="Grupo 959817" transform="translate(26.773 231.155)">
                <rect id="Rectángulo_307109" data-name="Rectángulo 307109" width="61.239" height="27.055" rx="2.42" transform="translate(2.772 0) rotate(5.882)" fill="#449c6e"/>
              </g>
              <g id="Grupo_959818" data-name="Grupo 959818" transform="translate(27.773 231.155)" opacity="0.4">
                <rect id="Rectángulo_307110" data-name="Rectángulo 307110" width="61.239" height="27.055" rx="2.42" transform="translate(1.772 0) rotate(5.882)"/>
              </g>
              <g id="Grupo_959822" data-name="Grupo 959822" transform="translate(33.018 30.34)">
                <g id="Grupo_959819" data-name="Grupo 959819" transform="translate(0.276 0.288)">
                  <rect id="Rectángulo_307111" data-name="Rectángulo 307111" width="60.89" height="155.227" transform="translate(0 60.57) rotate(-84.118)" fill="#fafafa"/>
                </g>
                <g id="Grupo_959821" data-name="Grupo 959821">
                  <g id="Grupo_959820" data-name="Grupo 959820">
                    <path id="Trazado_631239" data-name="Trazado 631239" d="M336.427,136s.026-.373.093-1.081.17-1.765.3-3.136c.274-2.758.676-6.81,1.195-12.035,1.053-10.444,2.577-25.567,4.467-44.337l.163.2L188.24,59.784h-.01l.287-.234c-2.186,21.183-4.3,41.65-6.25,60.568l-.225-.276,110.652,11.517,32.135,3.381,8.605.919,2.227.245c.5.057.766.095.766.095s-.245-.015-.737-.06l-2.2-.211-8.558-.85-32.092-3.235-110.846-11.3-.25-.026.025-.25c1.946-18.919,4.05-39.387,6.229-60.571l.027-.261.261.027h.01L342.685,75.248l.181.018-.019.181c-1.979,18.808-3.574,33.962-4.676,44.427-.555,5.2-.986,9.238-1.28,11.986q-.222,2.032-.338,3.1C336.475,135.653,336.427,136,336.427,136Z" transform="translate(-181.741 -59.234)" fill="#263238"/>
                  </g>
                </g>
              </g>
              <g id="Grupo_959827" data-name="Grupo 959827" transform="translate(32.679 115.822)">
                <g id="Grupo_959823" data-name="Grupo 959823" transform="translate(4.053 0.417)">
                  <rect id="Rectángulo_307112" data-name="Rectángulo 307112" width="26.385" height="26.385" rx="2.082" transform="translate(2.704 0) rotate(5.882)" fill="#e8505b"/>
                </g>
                <g id="Grupo_959824" data-name="Grupo 959824" transform="translate(4.053 0.417)" opacity="0.4">
                  <rect id="Rectángulo_307113" data-name="Rectángulo 307113" width="26.385" height="26.385" rx="2.082" transform="translate(2.704 0) rotate(5.882)"/>
                </g>
                <g id="Grupo_959825" data-name="Grupo 959825" transform="translate(0 0)">
                  <rect id="Rectángulo_307114" data-name="Rectángulo 307114" width="26.385" height="26.385" rx="2.082" transform="matrix(0.995, 0.102, -0.102, 0.995, 2.704, 0)" fill="#263238"/>
                </g>
                <g id="Grupo_959826" data-name="Grupo 959826" transform="translate(11.974 8.59)">
                  <path id="Trazado_631240" data-name="Trazado 631240" d="M198.22,153.111l-1.127,10.938-2.531-.261.918-8.906-2.187-.226.208-2.031Z" transform="translate(-193.292 -152.625)" fill="#fff"/>
                </g>
              </g>
              <g id="Grupo_959832" data-name="Grupo 959832" transform="translate(69.278 119.592)">
                <g id="Grupo_959828" data-name="Grupo 959828" transform="translate(4.053 0.418)">
                  <rect id="Rectángulo_307115" data-name="Rectángulo 307115" width="26.385" height="26.385" rx="2.082" transform="matrix(0.995, 0.102, -0.102, 0.995, 2.704, 0)" fill="#449c6e"/>
                </g>
                <g id="Grupo_959829" data-name="Grupo 959829" transform="translate(4.053 0.418)" opacity="0.4">
                  <rect id="Rectángulo_307116" data-name="Rectángulo 307116" width="26.385" height="26.385" rx="2.082" transform="matrix(0.995, 0.102, -0.102, 0.995, 2.704, 0)"/>
                </g>
                <g id="Grupo_959830" data-name="Grupo 959830" transform="translate(0 0)">
                  <rect id="Rectángulo_307117" data-name="Rectángulo 307117" width="26.385" height="26.385" rx="2.082" transform="matrix(0.995, 0.102, -0.102, 0.995, 2.704, 0)" fill="#263238"/>
                </g>
                <g id="Grupo_959831" data-name="Grupo 959831" transform="translate(11.463 8.803)">
                  <path id="Trazado_631241" data-name="Trazado 631241" d="M237.6,166.135l-.213,2.063-8.266-.852.169-1.64,4.631-3.551c1.063-.822,1.292-1.367,1.347-1.9.089-.86-.453-1.421-1.609-1.54a2.692,2.692,0,0,0-2.38.861l-1.72-1.379a5.106,5.106,0,0,1,4.553-1.583c2.437.251,3.934,1.669,3.73,3.653-.11,1.063-.507,2-2.184,3.265l-2.761,2.116Z" transform="translate(-229.118 -156.579)" fill="#fff"/>
                </g>
              </g>
              <g id="Grupo_959837" data-name="Grupo 959837" transform="translate(107.218 123.5)">
                <g id="Grupo_959833" data-name="Grupo 959833" transform="translate(4.053 0.417)">
                  <rect id="Rectángulo_307118" data-name="Rectángulo 307118" width="26.385" height="26.385" rx="2.082" transform="translate(2.704 0) rotate(5.882)" fill="#449c6e"/>
                </g>
                <g id="Grupo_959834" data-name="Grupo 959834" transform="translate(4.053 0.417)" opacity="0.4">
                  <rect id="Rectángulo_307119" data-name="Rectángulo 307119" width="26.385" height="26.385" rx="2.082" transform="translate(2.704 0) rotate(5.882)"/>
                </g>
                <g id="Grupo_959835" data-name="Grupo 959835" transform="translate(0 0)">
                  <rect id="Rectángulo_307120" data-name="Rectángulo 307120" width="26.385" height="26.385" rx="2.082" transform="translate(2.704 0) rotate(5.882)" fill="#263238"/>
                </g>
                <g id="Grupo_959836" data-name="Grupo 959836" transform="translate(11.033 8.633)">
                  <path id="Trazado_631242" data-name="Trazado 631242" d="M275.3,168.725c-.19,1.844-1.786,3.385-4.894,3.065a7.572,7.572,0,0,1-4.052-1.6l1.185-1.836a5.343,5.343,0,0,0,3.024,1.306c1.265.13,2.1-.305,2.192-1.2.085-.828-.471-1.406-1.909-1.554l-1.156-.119.171-1.673,2.514-2.315-4.657-.479.21-2.032,7.656.789-.169,1.641-2.759,2.559A3.122,3.122,0,0,1,275.3,168.725Z" transform="translate(-266.357 -160.291)" fill="#fff"/>
                </g>
              </g>
              <g id="Grupo_959845" data-name="Grupo 959845" transform="translate(145.251 127.409)">
                <g id="Grupo_959838" data-name="Grupo 959838" transform="translate(3.961 0.417)">
                  <rect id="Rectángulo_307121" data-name="Rectángulo 307121" width="26.385" height="26.385" rx="2.082" transform="translate(2.704 0) rotate(5.882)" fill="#449c6e"/>
                </g>
                <g id="Grupo_959839" data-name="Grupo 959839" transform="translate(3.961 0.417)" opacity="0.4">
                  <rect id="Rectángulo_307122" data-name="Rectángulo 307122" width="26.385" height="26.385" rx="2.082" transform="translate(2.704 0) rotate(5.882)"/>
                </g>
                <g id="Grupo_959840" data-name="Grupo 959840" transform="translate(0 0)">
                  <rect id="Rectángulo_307123" data-name="Rectángulo 307123" width="26.385" height="26.385" rx="2.082" transform="matrix(0.995, 0.102, -0.102, 0.995, 2.704, 0)" fill="#263238"/>
                </g>
                <g id="Grupo_959844" data-name="Grupo 959844" transform="translate(8.449 7.021)">
                  <g id="Grupo_959841" data-name="Grupo 959841" transform="translate(0 5.916)">
                    <rect id="Rectángulo_307124" data-name="Rectángulo 307124" width="1.008" height="11.782" transform="translate(0 1.002) rotate(-84.118)" fill="#fff"/>
                  </g>
                  <g id="Grupo_959842" data-name="Grupo 959842" transform="translate(4.528)">
                    <path id="Trazado_631243" data-name="Trazado 631243" d="M309.854,164.677a1.91,1.91,0,1,1-1.7-2.1A1.909,1.909,0,0,1,309.854,164.677Z" transform="translate(-306.044 -162.571)" fill="#fff"/>
                  </g>
                  <g id="Grupo_959843" data-name="Grupo 959843" transform="translate(3.475 10.22)">
                    <path id="Trazado_631244" data-name="Trazado 631244" d="M308.809,174.823a1.91,1.91,0,1,1-1.7-2.1A1.91,1.91,0,0,1,308.809,174.823Z" transform="translate(-304.999 -172.717)" fill="#fff"/>
                  </g>
                </g>
              </g>
              <g id="Grupo_959850" data-name="Grupo 959850" transform="translate(28.719 154.269)">
                <g id="Grupo_959846" data-name="Grupo 959846" transform="translate(4.053 0.417)">
                  <rect id="Rectángulo_307125" data-name="Rectángulo 307125" width="26.385" height="26.385" rx="2.082" transform="matrix(0.995, 0.102, -0.102, 0.995, 2.704, 0)" fill="#e8505b"/>
                </g>
                <g id="Grupo_959847" data-name="Grupo 959847" transform="translate(4.053 0.417)" opacity="0.4">
                  <rect id="Rectángulo_307126" data-name="Rectángulo 307126" width="26.385" height="26.385" rx="2.082" transform="matrix(0.995, 0.102, -0.102, 0.995, 2.704, 0)"/>
                </g>
                <g id="Grupo_959848" data-name="Grupo 959848" transform="translate(0 0)">
                  <rect id="Rectángulo_307127" data-name="Rectángulo 307127" width="26.385" height="26.385" rx="2.082" transform="matrix(0.995, 0.102, -0.102, 0.995, 2.704, 0)" fill="#263238"/>
                </g>
                <g id="Grupo_959849" data-name="Grupo 959849" transform="translate(9.064 8.892)">
                  <path id="Trazado_631245" data-name="Trazado 631245" d="M196.612,200.248l-1.782-.184-.237,2.3-2.468-.255.236-2.3-5.891-.607.175-1.7,5.872-6.405,2.655.273-5.459,6.086,2.938.3.21-2.047,2.391.247L195.043,198l1.782.183Z" transform="translate(-186.471 -191.094)" fill="#fff"/>
                </g>
              </g>
              <g id="Grupo_959855" data-name="Grupo 959855" transform="translate(65.317 158.039)">
                <g id="Grupo_959851" data-name="Grupo 959851" transform="translate(4.053 0.417)">
                  <rect id="Rectángulo_307128" data-name="Rectángulo 307128" width="26.385" height="26.385" rx="2.082" transform="translate(2.704 0) rotate(5.882)" fill="#449c6e"/>
                </g>
                <g id="Grupo_959852" data-name="Grupo 959852" transform="translate(4.053 0.417)" opacity="0.4">
                  <rect id="Rectángulo_307129" data-name="Rectángulo 307129" width="26.385" height="26.385" rx="2.082" transform="translate(2.704 0) rotate(5.882)"/>
                </g>
                <g id="Grupo_959853" data-name="Grupo 959853" transform="translate(0 0)">
                  <rect id="Rectángulo_307130" data-name="Rectángulo 307130" width="26.385" height="26.385" rx="2.082" transform="translate(2.704 0) rotate(5.882)" fill="#263238"/>
                </g>
                <g id="Grupo_959854" data-name="Grupo 959854" transform="translate(9.903 8.603)">
                  <path id="Trazado_631246" data-name="Trazado 631246" d="M232.609,202.806c-.2,1.938-1.8,3.479-4.921,3.157a7.6,7.6,0,0,1-4.051-1.6l1.2-1.834a5.282,5.282,0,0,0,3.007,1.3c1.265.131,2.1-.32,2.193-1.212.089-.859-.416-1.48-2.4-1.683l-2.8-.289,1.2-6.1,6.672.687-.209,2.031-4.564-.469-.386,2.06.891.092C231.677,199.283,232.807,200.869,232.609,202.806Z" transform="translate(-223.637 -194.55)" fill="#fff"/>
                </g>
              </g>
              <g id="Grupo_959860" data-name="Grupo 959860" transform="translate(103.258 161.948)">
                <g id="Grupo_959856" data-name="Grupo 959856" transform="translate(4.053 0.417)">
                  <rect id="Rectángulo_307131" data-name="Rectángulo 307131" width="26.385" height="26.385" rx="2.082" transform="translate(2.704 0) rotate(5.882)" fill="#449c6e"/>
                </g>
                <g id="Grupo_959857" data-name="Grupo 959857" transform="translate(4.053 0.417)" opacity="0.4">
                  <rect id="Rectángulo_307132" data-name="Rectángulo 307132" width="26.385" height="26.385" rx="2.082" transform="translate(2.704 0) rotate(5.882)"/>
                </g>
                <g id="Grupo_959858" data-name="Grupo 959858" transform="translate(0 0)">
                  <rect id="Rectángulo_307133" data-name="Rectángulo 307133" width="26.385" height="26.385" rx="2.082" transform="matrix(0.995, 0.102, -0.102, 0.995, 2.704, 0)" fill="#263238"/>
                </g>
                <g id="Grupo_959859" data-name="Grupo 959859" transform="translate(10.746 8.856)">
                  <path id="Trazado_631247" data-name="Trazado 631247" d="M271.036,206.747c-.23,2.235-2.2,3.453-4.516,3.214-3.015-.31-4.695-2.394-4.331-5.926.39-3.78,2.887-5.656,6.186-5.315a5.94,5.94,0,0,1,2.968,1.064l-1.129,1.763a3.625,3.625,0,0,0-1.991-.759c-1.827-.188-3.111.77-3.4,2.856a3.71,3.71,0,0,1,2.8-.691A3.488,3.488,0,0,1,271.036,206.747Zm-2.466-.128a1.657,1.657,0,0,0-1.691-1.831,1.721,1.721,0,0,0-2.06,1.445c-.1.938.538,1.7,1.756,1.823A1.644,1.644,0,0,0,268.571,206.619Z" transform="translate(-262.14 -198.681)" fill="#fff"/>
                </g>
              </g>
              <g id="Grupo_959867" data-name="Grupo 959867" transform="translate(141.198 165.856)">
                <g id="Grupo_959861" data-name="Grupo 959861" transform="translate(4.053 0.418)">
                  <rect id="Rectángulo_307134" data-name="Rectángulo 307134" width="26.385" height="26.385" rx="2.082" transform="matrix(0.995, 0.102, -0.102, 0.995, 2.704, 0)" fill="#449c6e"/>
                </g>
                <g id="Grupo_959862" data-name="Grupo 959862" transform="translate(4.053 0.418)" opacity="0.4">
                  <rect id="Rectángulo_307135" data-name="Rectángulo 307135" width="26.385" height="26.385" rx="2.082" transform="matrix(0.995, 0.102, -0.102, 0.995, 2.704, 0)"/>
                </g>
                <g id="Grupo_959863" data-name="Grupo 959863" transform="translate(0 0)">
                  <rect id="Rectángulo_307136" data-name="Rectángulo 307136" width="26.385" height="26.385" rx="2.082" transform="matrix(0.995, 0.102, -0.102, 0.995, 2.704, 0)" fill="#263238"/>
                </g>
                <g id="Grupo_959866" data-name="Grupo 959866" transform="translate(9.537 9.587)">
                  <g id="Grupo_959864" data-name="Grupo 959864" transform="translate(0 0.845)">
                    <rect id="Rectángulo_307137" data-name="Rectángulo 307137" width="11.782" height="1.007" transform="matrix(0.785, -0.619, 0.619, 0.785, 0, 7.296)" fill="#fff"/>
                  </g>
                  <g id="Grupo_959865" data-name="Grupo 959865" transform="translate(0.83 0)">
                    <rect id="Rectángulo_307138" data-name="Rectángulo 307138" width="1.007" height="11.782" transform="matrix(0.776, -0.631, 0.631, 0.776, 0, 0.635)" fill="#fff"/>
                  </g>
                </g>
              </g>
              <g id="Grupo_959872" data-name="Grupo 959872" transform="translate(24.79 192.404)">
                <g id="Grupo_959868" data-name="Grupo 959868" transform="translate(4.053 0.417)">
                  <rect id="Rectángulo_307139" data-name="Rectángulo 307139" width="26.385" height="26.385" rx="2.082" transform="matrix(0.995, 0.102, -0.102, 0.995, 2.704, 0)" fill="#e8505b"/>
                </g>
                <g id="Grupo_959869" data-name="Grupo 959869" transform="translate(4.053 0.417)" opacity="0.4">
                  <rect id="Rectángulo_307140" data-name="Rectángulo 307140" width="26.385" height="26.385" rx="2.082" transform="matrix(0.995, 0.102, -0.102, 0.995, 2.704, 0)"/>
                </g>
                <g id="Grupo_959870" data-name="Grupo 959870" transform="translate(0 0)">
                  <rect id="Rectángulo_307141" data-name="Rectángulo 307141" width="26.385" height="26.385" rx="2.082" transform="matrix(0.995, 0.102, -0.102, 0.995, 2.704, 0)" fill="#263238"/>
                </g>
                <g id="Grupo_959871" data-name="Grupo 959871" transform="translate(9.48 8.352)">
                  <path id="Trazado_631248" data-name="Trazado 631248" d="M192.146,229.32l-.168,1.641-5.022,8.878-2.75-.283,4.836-8.471-3.624-.374-.183,1.781-2.25-.232.4-3.844Z" transform="translate(-182.984 -228.416)" fill="#fff"/>
                </g>
              </g>
              <g id="Grupo_959877" data-name="Grupo 959877" transform="translate(61.388 196.174)">
                <g id="Grupo_959873" data-name="Grupo 959873" transform="translate(4.053 0.418)">
                  <rect id="Rectángulo_307142" data-name="Rectángulo 307142" width="26.385" height="26.385" rx="2.082" transform="matrix(0.995, 0.102, -0.102, 0.995, 2.704, 0)" fill="#449c6e"/>
                </g>
                <g id="Grupo_959874" data-name="Grupo 959874" transform="translate(4.053 0.418)" opacity="0.4">
                  <rect id="Rectángulo_307143" data-name="Rectángulo 307143" width="26.385" height="26.385" rx="2.082" transform="matrix(0.995, 0.102, -0.102, 0.995, 2.704, 0)"/>
                </g>
                <g id="Grupo_959875" data-name="Grupo 959875" transform="translate(0 0)">
                  <rect id="Rectángulo_307144" data-name="Rectángulo 307144" width="26.385" height="26.385" rx="2.082" transform="translate(2.704 0) rotate(5.882)" fill="#263238"/>
                </g>
                <g id="Grupo_959876" data-name="Grupo 959876" transform="translate(10.501 8.747)">
                  <path id="Trazado_631249" data-name="Trazado 631249" d="M229.567,241.02c-.213,2.063-2.19,3.17-4.97,2.884s-4.46-1.771-4.248-3.833a2.8,2.8,0,0,1,1.922-2.408,2.538,2.538,0,0,1-1.034-2.38c.2-1.922,2.042-2.948,4.526-2.693,2.516.259,4.11,1.64,3.912,3.562a2.554,2.554,0,0,1-1.513,2.117A2.784,2.784,0,0,1,229.567,241.02Zm-2.554-.341c.1-.969-.636-1.645-1.9-1.776-1.25-.129-2.092.385-2.193,1.354s.618,1.659,1.869,1.788C226.053,242.175,226.914,241.647,227.013,240.679Zm-3.273-5.027c-.086.828.519,1.411,1.549,1.518,1.049.108,1.772-.338,1.857-1.167.089-.859-.545-1.445-1.577-1.552C224.556,234.345,223.829,234.792,223.741,235.651Z" transform="translate(-220.331 -232.552)" fill="#fff"/>
                </g>
              </g>
              <g id="Grupo_959882" data-name="Grupo 959882" transform="translate(99.329 200.083)">
                <g id="Grupo_959878" data-name="Grupo 959878" transform="translate(4.053 0.417)">
                  <rect id="Rectángulo_307145" data-name="Rectángulo 307145" width="26.385" height="26.385" rx="2.082" transform="translate(2.704 0) rotate(5.882)" fill="#449c6e"/>
                </g>
                <g id="Grupo_959879" data-name="Grupo 959879" transform="translate(4.053 0.417)" opacity="0.4">
                  <rect id="Rectángulo_307146" data-name="Rectángulo 307146" width="26.385" height="26.385" rx="2.082" transform="translate(2.704 0) rotate(5.882)"/>
                </g>
                <g id="Grupo_959880" data-name="Grupo 959880" transform="translate(0 0)">
                  <rect id="Rectángulo_307147" data-name="Rectángulo 307147" width="26.385" height="26.385" rx="2.082" transform="matrix(0.995, 0.102, -0.102, 0.995, 2.704, 0)" fill="#263238"/>
                </g>
                <g id="Grupo_959881" data-name="Grupo 959881" transform="translate(10.439 8.685)">
                  <path id="Trazado_631250" data-name="Trazado 631250" d="M267.073,242.327c-.389,3.78-2.871,5.657-6.184,5.315a5.885,5.885,0,0,1-2.954-1.062l1.129-1.763a3.564,3.564,0,0,0,1.99.757c1.812.186,3.112-.77,3.406-2.871a3.759,3.759,0,0,1-2.819.7,3.488,3.488,0,0,1-3.416-3.794c.231-2.234,2.2-3.453,4.517-3.214C265.773,236.712,267.438,238.8,267.073,242.327Zm-2.631-2.2c.1-.937-.536-1.7-1.739-1.821a1.654,1.654,0,1,0-.305,3.27A1.706,1.706,0,0,0,264.442,240.128Z" transform="translate(-257.935 -236.371)" fill="#fff"/>
                </g>
              </g>
              <g id="Grupo_959888" data-name="Grupo 959888" transform="translate(137.27 203.991)">
                <g id="Grupo_959883" data-name="Grupo 959883" transform="translate(4.053 0.417)">
                  <rect id="Rectángulo_307148" data-name="Rectángulo 307148" width="26.385" height="26.385" rx="2.082" transform="matrix(0.995, 0.102, -0.102, 0.995, 2.704, 0)" fill="#449c6e"/>
                </g>
                <g id="Grupo_959884" data-name="Grupo 959884" transform="translate(4.053 0.417)" opacity="0.4">
                  <rect id="Rectángulo_307149" data-name="Rectángulo 307149" width="26.385" height="26.385" rx="2.082" transform="matrix(0.995, 0.102, -0.102, 0.995, 2.704, 0)"/>
                </g>
                <g id="Grupo_959885" data-name="Grupo 959885" transform="translate(0 0)">
                  <rect id="Rectángulo_307150" data-name="Rectángulo 307150" width="26.385" height="26.385" rx="2.082" transform="matrix(0.995, 0.102, -0.102, 0.995, 2.704, 0)" fill="#263238"/>
                </g>
                <g id="Grupo_959887" data-name="Grupo 959887" transform="translate(8.563 13.371)">
                  <g id="Grupo_959886" data-name="Grupo 959886" transform="translate(0 0)">
                    <rect id="Rectángulo_307151" data-name="Rectángulo 307151" width="1.008" height="11.782" transform="translate(0 1.002) rotate(-84.123)" fill="#fff"/>
                  </g>
                </g>
              </g>
              <g id="Grupo_959892" data-name="Grupo 959892" transform="translate(95.366 238.55)">
                <g id="Grupo_959889" data-name="Grupo 959889" transform="translate(4.053 0.417)">
                  <rect id="Rectángulo_307152" data-name="Rectángulo 307152" width="26.385" height="26.385" rx="2.082" transform="translate(2.704 0) rotate(5.882)" fill="#449c6e"/>
                </g>
                <g id="Grupo_959890" data-name="Grupo 959890" transform="translate(4.053 0.417)" opacity="0.4">
                  <rect id="Rectángulo_307153" data-name="Rectángulo 307153" width="26.385" height="26.385" rx="2.082" transform="translate(2.704 0) rotate(5.882)"/>
                </g>
                <g id="Grupo_959891" data-name="Grupo 959891" transform="translate(0 0)">
                  <rect id="Rectángulo_307154" data-name="Rectángulo 307154" width="26.385" height="26.385" rx="2.082" transform="translate(2.704 0) rotate(5.882)" fill="#263238"/>
                </g>
              </g>
              <g id="Grupo_959901" data-name="Grupo 959901" transform="translate(133.307 242.459)">
                <g id="Grupo_959893" data-name="Grupo 959893" transform="translate(4.053 0.417)">
                  <rect id="Rectángulo_307155" data-name="Rectángulo 307155" width="26.385" height="26.385" rx="2.082" transform="translate(2.704 0) rotate(5.882)" fill="#449c6e"/>
                </g>
                <g id="Grupo_959894" data-name="Grupo 959894" transform="translate(4.053 0.417)" opacity="0.4">
                  <rect id="Rectángulo_307156" data-name="Rectángulo 307156" width="26.385" height="26.385" rx="2.082" transform="translate(2.704 0) rotate(5.882)"/>
                </g>
                <g id="Grupo_959895" data-name="Grupo 959895" transform="translate(0 0)">
                  <rect id="Rectángulo_307157" data-name="Rectángulo 307157" width="26.385" height="26.385" rx="2.082" transform="matrix(0.995, 0.102, -0.102, 0.995, 2.704, 0)" fill="#455a64"/>
                </g>
                <g id="Grupo_959900" data-name="Grupo 959900" transform="translate(8.253 11.925)">
                  <g id="Grupo_959897" data-name="Grupo 959897" transform="translate(0.459 0)">
                    <g id="Grupo_959896" data-name="Grupo 959896" transform="translate(0)">
                      <rect id="Rectángulo_307158" data-name="Rectángulo 307158" width="1.007" height="11.781" transform="translate(0 1.001) rotate(-84.125)" fill="#fff"/>
                    </g>
                  </g>
                  <g id="Grupo_959899" data-name="Grupo 959899" transform="translate(0 4.461)">
                    <g id="Grupo_959898" data-name="Grupo 959898" transform="translate(0 0)">
                      <rect id="Rectángulo_307159" data-name="Rectángulo 307159" width="1.007" height="11.781" transform="translate(0 1.001) rotate(-84.125)" fill="#fff"/>
                    </g>
                  </g>
                </g>
              </g>
              <g id="Grupo_959902" data-name="Grupo 959902" transform="translate(19.416 230.397)">
                <rect id="Rectángulo_307160" data-name="Rectángulo 307160" width="63.687" height="27.055" rx="2.5" transform="matrix(0.995, 0.102, -0.102, 0.995, 2.772, 0)" fill="#263238"/>
              </g>
              <g id="Grupo_959903" data-name="Grupo 959903" transform="translate(50.075 241.146)">
                <path id="Trazado_631251" data-name="Trazado 631251" d="M198.723,273.716c.372-3.61,2.584-5.452,5.27-5.175,2.7.279,4.477,2.53,4.106,6.139s-2.567,5.452-5.271,5.173C200.142,279.577,198.352,277.324,198.723,273.716Zm6.829.7c.256-2.485-.514-3.606-1.78-3.737-1.249-.128-2.229.813-2.486,3.3s.513,3.606,1.762,3.734C204.315,277.845,205.3,276.9,205.553,274.419Z" transform="translate(-198.675 -268.514)" fill="#fff"/>
              </g>
              <g id="Grupo_959906" data-name="Grupo 959906" transform="translate(103.929 247.116)">
                <g id="Grupo_959904" data-name="Grupo 959904" transform="translate(4.722 0)">
                  <rect id="Rectángulo_307161" data-name="Rectángulo 307161" width="11.782" height="1.006" transform="translate(0 11.701) rotate(-83.269)" fill="#fff"/>
                </g>
                <g id="Grupo_959905" data-name="Grupo 959905" transform="translate(0 4.806)">
                  <rect id="Rectángulo_307162" data-name="Rectángulo 307162" width="1.007" height="11.783" transform="translate(0 1.001) rotate(-84.121)" fill="#fff"/>
                </g>
              </g>
              <g id="Grupo_959907" data-name="Grupo 959907" transform="translate(93.594 67.109)">
                <path id="Trazado_631252" data-name="Trazado 631252" d="M246.835,96.24l-1.684,16.353-.772-.08,1.611-15.629-4.112-.424.075-.723Z" transform="translate(-241.878 -95.737)" fill="#263238"/>
                <path id="Trazado_631253" data-name="Trazado 631253" d="M260.216,113.409l-.075.724-11.073-1.14.058-.561,7.735-6.333c2.216-1.8,2.76-2.95,2.9-4.282.225-2.173-1.149-3.731-4-4.025a6.07,6.07,0,0,0-5.11,1.458l-.483-.569a6.95,6.95,0,0,1,5.69-1.61c3.132.322,4.95,2.139,4.678,4.779-.158,1.542-.788,2.847-3.159,4.774l-7.04,5.769Z" transform="translate(-241.826 -95.728)" fill="#263238"/>
                <path id="Trazado_631254" data-name="Trazado 631254" d="M273.085,110.889c-.28,2.711-2.393,4.428-5.99,4.058a7.394,7.394,0,0,1-5.443-2.852l.478-.518a6.811,6.811,0,0,0,5.016,2.642c3.13.322,4.925-1.052,5.167-3.411.245-2.383-1.187-4.064-4.645-4.421l-.912-.094.058-.561,5.777-6.11-9.018-.929.075-.724L273.694,99l-.058.561-5.8,6.131C271.665,106.092,273.366,108.155,273.085,110.889Z" transform="translate(-241.734 -95.721)" fill="#263238"/>
                <path id="Trazado_631255" data-name="Trazado 631255" d="M289.074,112.341l-3.551-.366-.487,4.719-.771-.08.486-4.719-9.392-.968.058-.56L285.6,100.225l.911.095-10.05,10.013,8.363.861.428-4.158.772.08-.428,4.158,3.551.366Z" transform="translate(-241.634 -95.704)" fill="#263238"/>
                <path id="Trazado_631256" data-name="Trazado 631256" d="M292.382,116.64a4.47,4.47,0,0,1-.23.849l-1.164,3.045-.607-.062,1.058-3.15a.784.784,0,0,1-.6-.841.766.766,0,0,1,.849-.691A.782.782,0,0,1,292.382,116.64Z" transform="translate(-241.524 -95.591)" fill="#263238"/>
                <path id="Trazado_631257" data-name="Trazado 631257" d="M308.554,114.348,305,113.982l-.486,4.719-.772-.08.487-4.719-9.392-.968.058-.56,10.182-10.142.912.094-10.051,10.013,8.364.862.428-4.158.771.08-.427,4.158,3.551.366Z" transform="translate(-241.492 -95.69)" fill="#263238"/>
                <path id="Trazado_631258" data-name="Trazado 631258" d="M320.588,115.687c-.274,2.663-2.332,4.529-6.046,4.146a7.412,7.412,0,0,1-5.42-2.849l.5-.515a6.758,6.758,0,0,0,4.993,2.64c3.2.329,4.939-1.192,5.177-3.5.26-2.523-1.082-4.173-5.755-4.654l-3.177-.327,1.66-7.62,8.433.869-.076.723-7.778-.8-1.347,6.189,2.523.261C319.277,110.759,320.886,112.79,320.588,115.687Z" transform="translate(-241.388 -95.684)" fill="#263238"/>
              </g>
            </g>
          </g>
          <g id="Grupo_960046" data-name="Grupo 960046" transform="translate(0 64.553)">
            <g id="Grupo_960043" data-name="Grupo 960043">
              <g id="Grupo_960042" data-name="Grupo 960042">
                <g id="Grupo_959928" data-name="Grupo 959928" transform="translate(0 357.559)">
                  <g id="Grupo_959921" data-name="Grupo 959921" transform="translate(0 0)">
                    <g id="Grupo_959920" data-name="Grupo 959920">
                      <g id="Grupo_959912" data-name="Grupo 959912">
                        <g id="Grupo_959911" data-name="Grupo 959911">
                          <g id="Grupo_959910" data-name="Grupo 959910">
                            <path id="Trazado_631259" data-name="Trazado 631259" d="M143.169,448.17l-6.4,23.68,20.814,1.9,4.375-22.543Z" transform="translate(-136.765 -448.17)" fill="#ef8b53"/>
                          </g>
                        </g>
                      </g>
                      <g id="Grupo_959916" data-name="Grupo 959916" transform="translate(0.791 21.209)">
                        <g id="Grupo_959915" data-name="Grupo 959915">
                          <g id="Grupo_959914" data-name="Grupo 959914">
                            <g id="Grupo_959913" data-name="Grupo 959913">
                              <path id="Trazado_631260" data-name="Trazado 631260" d="M158.178,471.667a14.689,14.689,0,0,1-3.048-.1c-1.876-.151-4.459-.437-7.3-.8l-7.275-.976a17.2,17.2,0,0,1-3-.52,14.825,14.825,0,0,1,3.047.112c1.876.155,4.458.444,7.3.809l7.274.97A17.29,17.29,0,0,1,158.178,471.667Z" transform="translate(-137.551 -469.225)" fill="#263238"/>
                            </g>
                          </g>
                        </g>
                      </g>
                      <g id="Grupo_959919" data-name="Grupo 959919" transform="translate(0 21.231)" opacity="0.6">
                        <g id="Grupo_959918" data-name="Grupo 959918">
                          <g id="Grupo_959917" data-name="Grupo 959917">
                            <path id="Trazado_631261" data-name="Trazado 631261" d="M136.765,471.7l20.814,1.9.337-1.736-20.549-2.612-.58,2.213" transform="translate(-136.765 -469.248)" fill="#fff"/>
                          </g>
                        </g>
                      </g>
                    </g>
                  </g>
                  <g id="Grupo_959924" data-name="Grupo 959924" transform="translate(10.328 4.597)">
                    <g id="Grupo_959923" data-name="Grupo 959923">
                      <g id="Grupo_959922" data-name="Grupo 959922">
                        <path id="Trazado_631262" data-name="Trazado 631262" d="M147.031,470.762a176.654,176.654,0,0,1,4.433-18.028,88.278,88.278,0,0,1-1.979,9.074A88.372,88.372,0,0,1,147.031,470.762Z" transform="translate(-147.018 -452.734)" fill="#263238"/>
                      </g>
                    </g>
                  </g>
                  <g id="Grupo_959927" data-name="Grupo 959927" transform="translate(2.695 12.064)">
                    <g id="Grupo_959926" data-name="Grupo 959926">
                      <g id="Grupo_959925" data-name="Grupo 959925">
                        <path id="Trazado_631263" data-name="Trazado 631263" d="M157.014,471.579a10.017,10.017,0,0,0,.047-4.4,8.765,8.765,0,0,0-2.277-4.121,8.516,8.516,0,0,0-5.181-2.379,8.867,8.867,0,0,0-5.574,1.266,9.652,9.652,0,0,0-3.241,3.444,12.31,12.31,0,0,0-1.313,4.223c-.017,0-.027-.108-.03-.314a6.263,6.263,0,0,1,.048-.9,9.464,9.464,0,0,1,.991-3.171,9.712,9.712,0,0,1,3.3-3.66,9.165,9.165,0,0,1,5.864-1.373A8.584,8.584,0,0,1,157.4,467.1a8.217,8.217,0,0,1,.007,3.324,5.538,5.538,0,0,1-.256.866C157.076,471.487,157.029,471.585,157.014,471.579Z" transform="translate(-139.441 -460.146)" fill="#263238"/>
                      </g>
                    </g>
                  </g>
                </g>
                <g id="Grupo_959957" data-name="Grupo 959957" transform="translate(73.436 354.266)">
                  <g id="Grupo_959948" data-name="Grupo 959948">
                    <g id="Grupo_959930" data-name="Grupo 959930">
                      <g id="Grupo_959929" data-name="Grupo 959929">
                        <path id="Trazado_631264" data-name="Trazado 631264" d="M228.5,445.5l-1.235,18.648s18.56,6.16,18.667,9.628l-36.264.263L210.4,444.9Z" transform="translate(-209.67 -444.901)" fill="#ef8b53"/>
                      </g>
                    </g>
                    <g id="Grupo_959933" data-name="Grupo 959933" transform="translate(5.338 17.282)" opacity="0.6">
                      <g id="Grupo_959932" data-name="Grupo 959932">
                        <g id="Grupo_959931" data-name="Grupo 959931">
                          <path id="Trazado_631265" data-name="Trazado 631265" d="M216.068,462.11a1.482,1.482,0,0,0-1.075,1.659,1.424,1.424,0,0,0,1.635,1.079,1.561,1.561,0,0,0,1.128-1.762,1.477,1.477,0,0,0-1.824-.935" transform="translate(-214.97 -462.058)" fill="#fff"/>
                        </g>
                      </g>
                    </g>
                    <g id="Grupo_959935" data-name="Grupo 959935" transform="translate(0 26.202)" opacity="0.6">
                      <g id="Grupo_959934" data-name="Grupo 959934">
                        <path id="Trazado_631266" data-name="Trazado 631266" d="M209.67,473.846l.189-2.933,34.91.963a2.509,2.509,0,0,1,1.35,1.97Z" transform="translate(-209.67 -470.913)" fill="#fff"/>
                      </g>
                    </g>
                    <g id="Grupo_959938" data-name="Grupo 959938" transform="translate(14.826 18.896)">
                      <g id="Grupo_959937" data-name="Grupo 959937">
                        <g id="Grupo_959936" data-name="Grupo 959936">
                          <path id="Trazado_631267" data-name="Trazado 631267" d="M227.752,463.842c-.011.176-.9.23-1.787.773-.9.52-1.374,1.272-1.535,1.2-.162-.039.134-1.089,1.221-1.728S227.8,463.681,227.752,463.842Z" transform="translate(-224.389 -463.66)" fill="#263238"/>
                        </g>
                      </g>
                    </g>
                    <g id="Grupo_959941" data-name="Grupo 959941" transform="translate(19.468 20.687)">
                      <g id="Grupo_959940" data-name="Grupo 959940">
                        <g id="Grupo_959939" data-name="Grupo 959939">
                          <path id="Trazado_631268" data-name="Trazado 631268" d="M231.472,465.517c.036.172-.739.45-1.364,1.181-.645.712-.821,1.517-1,1.5-.167.022-.258-1.017.535-1.911S231.474,465.347,231.472,465.517Z" transform="translate(-228.998 -465.438)" fill="#263238"/>
                        </g>
                      </g>
                    </g>
                    <g id="Grupo_959944" data-name="Grupo 959944" transform="translate(23.772 22.366)">
                      <g id="Grupo_959943" data-name="Grupo 959943">
                        <g id="Grupo_959942" data-name="Grupo 959942">
                          <path id="Trazado_631269" data-name="Trazado 631269" d="M233.462,470.119c-.162.033-.381-.858.1-1.814s1.323-1.316,1.393-1.166c.1.149-.457.653-.842,1.443C233.712,469.362,233.639,470.107,233.462,470.119Z" transform="translate(-233.27 -467.106)" fill="#263238"/>
                        </g>
                      </g>
                    </g>
                    <g id="Grupo_959947" data-name="Grupo 959947" transform="translate(14.226 14.107)">
                      <g id="Grupo_959946" data-name="Grupo 959946">
                        <g id="Grupo_959945" data-name="Grupo 959945">
                          <path id="Trazado_631270" data-name="Trazado 631270" d="M227.566,459.6c-.079.158-.883-.11-1.886-.073-1,.017-1.792.329-1.88.175-.1-.131.681-.764,1.862-.791S227.658,459.459,227.566,459.6Z" transform="translate(-223.793 -458.906)" fill="#263238"/>
                        </g>
                      </g>
                    </g>
                  </g>
                  <g id="Grupo_959950" data-name="Grupo 959950" transform="translate(0.559 3.914)" opacity="0.3">
                    <g id="Grupo_959949" data-name="Grupo 959949">
                      <path id="Trazado_631271" data-name="Trazado 631271" d="M228.249,449.162l-.216,3.323-17.808-.7.068-3Z" transform="translate(-210.225 -448.786)"/>
                    </g>
                  </g>
                  <g id="Grupo_959953" data-name="Grupo 959953" transform="translate(12.732 7.972)">
                    <g id="Grupo_959952" data-name="Grupo 959952">
                      <g id="Grupo_959951" data-name="Grupo 959951">
                        <path id="Trazado_631272" data-name="Trazado 631272" d="M227.757,455.873a3.4,3.4,0,0,1-1.815-.064,8.141,8.141,0,0,1-1.882-.641,8.519,8.519,0,0,1-1.025-.584,2.229,2.229,0,0,1-.535-.443.774.774,0,0,1-.053-.945.974.974,0,0,1,.788-.381,2.331,2.331,0,0,1,.678.115,6.4,6.4,0,0,1,2.758,1.57c.817.8,1.084,1.474,1.022,1.506-.082.056-.474-.51-1.31-1.179a7.245,7.245,0,0,0-1.592-.961,6.758,6.758,0,0,0-1.032-.354c-.381-.112-.707-.125-.811.043-.037.063-.043.09.034.2a1.791,1.791,0,0,0,.393.323,9.448,9.448,0,0,0,.943.577,10.059,10.059,0,0,0,1.735.726A12.45,12.45,0,0,1,227.757,455.873Z" transform="translate(-222.309 -452.815)" fill="#263238"/>
                      </g>
                    </g>
                  </g>
                  <g id="Grupo_959956" data-name="Grupo 959956" transform="translate(17.514 5.56)">
                    <g id="Grupo_959955" data-name="Grupo 959955">
                      <g id="Grupo_959954" data-name="Grupo 959954">
                        <path id="Trazado_631273" data-name="Trazado 631273" d="M227.484,456.137a2.9,2.9,0,0,1-.425-1.768,5.87,5.87,0,0,1,.8-3.067,1.5,1.5,0,0,1,1.186-.881.848.848,0,0,1,.743.529,2.476,2.476,0,0,1,.166.671,4.041,4.041,0,0,1-.036,1.223,4.168,4.168,0,0,1-.832,1.851c-.736.918-1.482,1.107-1.495,1.047-.056-.091.571-.414,1.14-1.3a4.171,4.171,0,0,0,.626-1.688,3.746,3.746,0,0,0,0-1.051c-.045-.387-.18-.7-.325-.667-.18-.008-.5.273-.654.575a6.045,6.045,0,0,0-.478.97,6.5,6.5,0,0,0-.407,1.8C227.413,455.445,227.582,456.113,227.484,456.137Z" transform="translate(-227.058 -450.421)" fill="#263238"/>
                      </g>
                    </g>
                  </g>
                </g>
                <g id="Grupo_959958" data-name="Grupo 959958" transform="translate(2.58 60.942)">
                  <path id="Trazado_631274" data-name="Trazado 631274" d="M150.386,157.167s-3.93,21.457-7.088,34.441c-2.453,10.082-8.806,28.983,2.688,34.474s26.949-16.664,26.949-16.664l6.559-50.5c-4.569.854-9.741,6.148-15.25,13.936l1-19.156Z" transform="translate(-139.327 -153.7)" fill="#455a64"/>
                </g>
                <g id="Grupo_959959" data-name="Grupo 959959" transform="translate(160.196 73.019)">
                  <path id="Trazado_631275" data-name="Trazado 631275" d="M307.413,188.775l-6.048,2.883-5.563-8.729,3.253-6.74c.309-.626.64-1.327.986-2.132a9.214,9.214,0,0,0,.717-2.964,14.06,14.06,0,0,0-.1-3.793c-.3-1.124.889-2.046,1.7-1.39s1.71,3.734,1.11,7.447,3.724-.227,5.325-1.633,6.75-5.522,7.559-5.362c1.186.236,1.153,1.583-.476,2.95-1.65,1.384-6.239,5.817-5.479,6.644l.036,0a4.545,4.545,0,0,1,3.946,3.528c.411,1.829.744,4.354-.284,5.187A59.756,59.756,0,0,1,307.413,188.775Z" transform="translate(-295.802 -165.69)" fill="#ffbe9d"/>
                </g>
                <g id="Grupo_959967" data-name="Grupo 959967" transform="translate(46.101)">
                  <g id="Grupo_959962" data-name="Grupo 959962">
                    <g id="Grupo_959960" data-name="Grupo 959960" transform="translate(8.353 8.232)">
                      <path id="Trazado_631276" data-name="Trazado 631276" d="M190.986,107.832l-.16,52.492,22.52,1.075L214,148.63s8,1.589,10.063-5.84c1.319-4.745.989-41.418.989-41.418Z" transform="translate(-190.826 -101.372)" fill="#ffbe9d"/>
                    </g>
                    <g id="Grupo_959961" data-name="Grupo 959961">
                      <path id="Trazado_631277" data-name="Trazado 631277" d="M230.194,106.608c-1.517,3.137-8.74,8.876-8.74,8.876l-3.263,8.744c-2.835-2.219-6.64-2.092-7.361,2.889-.52,3.6,3.955,4.327,3.955,4.327-2.6,4.433-4.372,8.019-8.164,12.236-4.106,4.563-6.405,5.023-10.858,5.1h-4.91s-10.046-8.395-8.06-30.5,21.862-15.658,26.607-21.182C217.126,88.094,235.257,96.136,230.194,106.608Z" transform="translate(-182.533 -93.199)" fill="#263238"/>
                    </g>
                  </g>
                  <g id="Grupo_959964" data-name="Grupo 959964" transform="translate(1.376 8.445)">
                    <g id="Grupo_959963" data-name="Grupo 959963">
                      <path id="Trazado_631278" data-name="Trazado 631278" d="M183.9,136.7s.218-.007.629,0a9.813,9.813,0,0,0,1.782-.2,12.74,12.74,0,0,0,5.769-3.054,32.172,32.172,0,0,0,5.848-7.826c.953-1.585,1.951-3.26,3.158-4.882a18.708,18.708,0,0,1,4.42-4.4,18.251,18.251,0,0,1,5.741-2.446c1.957-.51,3.879-.822,5.694-1.176,3.622-.668,6.876-1.678,9.094-3.4a9.836,9.836,0,0,0,3.681-5.317,7.584,7.584,0,0,0,.216-1.778c-.021-.41-.022-.628-.022-.628s.029.215.064.627a7.234,7.234,0,0,1-.178,1.8,9.835,9.835,0,0,1-3.671,5.417c-2.235,1.76-5.519,2.792-9.146,3.472-1.818.359-3.736.675-5.679,1.184a18.11,18.11,0,0,0-5.675,2.422,18.6,18.6,0,0,0-4.374,4.354c-1.2,1.61-2.2,3.276-3.157,4.859a31.93,31.93,0,0,1-5.916,7.837,12.647,12.647,0,0,1-5.85,3.024,9.063,9.063,0,0,1-1.8.166C184.115,136.72,183.9,136.7,183.9,136.7Z" transform="translate(-183.899 -101.583)" fill="#455a64"/>
                    </g>
                  </g>
                  <g id="Grupo_959966" data-name="Grupo 959966" transform="translate(0.216 5.521)">
                    <g id="Grupo_959965" data-name="Grupo 959965">
                      <path id="Trazado_631279" data-name="Trazado 631279" d="M182.748,118.737s.356-.138,1.044-.369a15.14,15.14,0,0,1,3.085-.732,6.991,6.991,0,0,1,4.831,1.044,4.033,4.033,0,0,1,1.723,2.575,3.621,3.621,0,0,1-.992,3.289,2.818,2.818,0,0,1-1.766.71,3.679,3.679,0,0,1-1.924-.516,5.785,5.785,0,0,1-2.574-3.26,8.187,8.187,0,0,1-.2-4.473,7.791,7.791,0,0,1,2.427-4.067,8.1,8.1,0,0,1,4.544-2.034,13.957,13.957,0,0,1,5.176.67,35.727,35.727,0,0,0,5.233,1.255,21.18,21.18,0,0,0,5.52.012,18.232,18.232,0,0,0,5.309-1.468,6.277,6.277,0,0,0,3.559-3.73,4.847,4.847,0,0,0-1.183-4.722,4.142,4.142,0,0,0-4.549-.673,3.44,3.44,0,0,0-1.679,1.572,3.8,3.8,0,0,0-.361,2.225,5.144,5.144,0,0,0,2.292,3.607,7.5,7.5,0,0,0,3.935,1.106,11.787,11.787,0,0,0,3.779-.567,13.628,13.628,0,0,0,5.589-3.4,14.487,14.487,0,0,0,2.888-4.049,15.318,15.318,0,0,0,1.058-2.976c.137-.71.22-1.082.22-1.082s-.054.376-.178,1.092a14.747,14.747,0,0,1-1.025,3,14.426,14.426,0,0,1-2.879,4.1,13.721,13.721,0,0,1-5.628,3.464,11.9,11.9,0,0,1-3.827.587,7.656,7.656,0,0,1-4.027-1.123,5.318,5.318,0,0,1-2.38-3.729,3.982,3.982,0,0,1,.376-2.334,3.628,3.628,0,0,1,1.767-1.662,4.335,4.335,0,0,1,4.769.7,5.043,5.043,0,0,1,1.241,4.923,6.472,6.472,0,0,1-3.666,3.861,18.4,18.4,0,0,1-5.374,1.489,21.366,21.366,0,0,1-5.573-.014,35.857,35.857,0,0,1-5.261-1.263,13.757,13.757,0,0,0-5.1-.669,7.867,7.867,0,0,0-6.63,10.32,5.623,5.623,0,0,0,2.49,3.174,3.513,3.513,0,0,0,1.838.5,2.674,2.674,0,0,0,1.671-.665,3.49,3.49,0,0,0,.961-3.156,3.911,3.911,0,0,0-1.66-2.5,6.93,6.93,0,0,0-4.755-1.059,15.9,15.9,0,0,0-3.081.692C183.113,118.625,182.748,118.737,182.748,118.737Z" transform="translate(-182.748 -98.68)" fill="#455a64"/>
                    </g>
                  </g>
                </g>
                <g id="Grupo_959977" data-name="Grupo 959977" transform="translate(0.918 167.965)">
                  <g id="Grupo_959968" data-name="Grupo 959968">
                    <path id="Trazado_631280" data-name="Trazado 631280" d="M168.228,260.452l-29.98,196.9,24.9,3.161L198.28,295.358l8.846,166.263,26.986-.471-4.474-200.236Z" transform="translate(-137.673 -259.945)" fill="#263238"/>
                    <path id="Trazado_631281" data-name="Trazado 631281" d="M206.652,462.138l-.025-.486-8.644-162.459L163.547,461.074l-25.87-3.284L167.8,259.949l62.335.468,4.5,201.232Zm-8.067-170.609,9.022,169.585,25.994-.454-4.452-199.241-60.485-.456L138.828,456.921l23.926,3.037Z" transform="translate(-137.677 -259.949)" fill="#263238"/>
                  </g>
                  <g id="Grupo_959970" data-name="Grupo 959970" transform="translate(88.157 24.669)">
                    <g id="Grupo_959969" data-name="Grupo 959969">
                      <path id="Trazado_631282" data-name="Trazado 631282" d="M225.459,460.66c-.145,0-.263-39.452-.263-88.106,0-48.671.118-88.115.263-88.115s.262,39.443.262,88.115C225.721,421.208,225.6,460.66,225.459,460.66Z" transform="translate(-225.196 -284.439)" fill="#455a64"/>
                    </g>
                  </g>
                  <g id="Grupo_959972" data-name="Grupo 959972" transform="translate(19.995 36.726)">
                    <g id="Grupo_959971" data-name="Grupo 959971">
                      <path id="Trazado_631283" data-name="Trazado 631283" d="M157.529,459.855a2.8,2.8,0,0,1,.06-.428c.055-.305.131-.719.228-1.248l.926-4.786c.838-4.176,2.044-10.174,3.53-17.575,3.024-14.831,7.306-35.3,12.221-57.866s9.542-42.969,12.963-57.714c1.728-7.348,3.128-13.3,4.1-17.449.495-2.037.88-3.627,1.149-4.736.132-.522.236-.929.312-1.229a2.763,2.763,0,0,1,.123-.415,2.587,2.587,0,0,1-.071.427c-.064.3-.151.714-.262,1.24-.247,1.115-.6,2.713-1.053,4.758-.937,4.155-2.28,10.122-3.939,17.487-3.328,14.766-7.892,35.173-12.812,57.743s-9.255,43.018-12.371,57.83c-1.555,7.386-2.815,13.373-3.694,17.541-.439,2.049-.783,3.649-1.021,4.765l-.279,1.237A2.559,2.559,0,0,1,157.529,459.855Z" transform="translate(-157.527 -296.409)" fill="#455a64"/>
                    </g>
                  </g>
                  <g id="Grupo_959974" data-name="Grupo 959974" transform="translate(40.516 35.185)">
                    <g id="Grupo_959973" data-name="Grupo 959973">
                      <path id="Trazado_631284" data-name="Trazado 631284" d="M206.836,294.932a4.863,4.863,0,0,1-1.138.151l-3.112.22c-2.627.175-6.259.356-10.249.746s-7.587.932-10.2,1.274l-3.094.393a4.869,4.869,0,0,1-1.145.076,4.762,4.762,0,0,1,1.114-.277c.722-.145,1.771-.335,3.069-.558,2.6-.437,6.193-1.029,10.2-1.43s7.651-.514,10.283-.594c1.318-.035,2.383-.054,3.121-.053A4.823,4.823,0,0,1,206.836,294.932Z" transform="translate(-177.9 -294.879)" fill="#455a64"/>
                    </g>
                  </g>
                  <g id="Grupo_959976" data-name="Grupo 959976" transform="translate(77.745 11.868)">
                    <g id="Grupo_959975" data-name="Grupo 959975">
                      <path id="Trazado_631285" data-name="Trazado 631285" d="M229.6,282.315a2.13,2.13,0,0,1-.774.2,10.681,10.681,0,0,1-2.174.1,12.612,12.612,0,0,1-11.115-7.989,10.729,10.729,0,0,1-.6-2.091,2.126,2.126,0,0,1-.061-.8c.093-.019.265,1.1,1,2.742a13.121,13.121,0,0,0,10.8,7.764C228.471,282.415,229.591,282.221,229.6,282.315Z" transform="translate(-214.859 -271.731)" fill="#455a64"/>
                    </g>
                  </g>
                </g>
                <g id="Grupo_960037" data-name="Grupo 960037" transform="translate(15.69 62.309)">
                  <g id="Grupo_959988" data-name="Grupo 959988" transform="translate(10.658)">
                    <g id="Grupo_959979" data-name="Grupo 959979">
                      <g id="Grupo_959978" data-name="Grupo 959978">
                        <path id="Trazado_631286" data-name="Trazado 631286" d="M162.922,265.083l68.972-.223-3.772-45.519c-.418-10.415-.355-11.658-.612-21.274,0,0,9.792,11.838,17.493,20.14a15.688,15.688,0,0,0,18.214,3.493l40.3-28.112-7.547-19.3L259.347,196.7c-1.677-1.043-15.936-21.38-25.789-31.312A34.862,34.862,0,0,0,209.8,155.115a173.653,173.653,0,0,0-22.247.892,23.276,23.276,0,0,0-20.714,21.217c-.714,8.511-.14,18.391-.14,35.185Z" transform="translate(-162.922 -155.058)" fill="#455a64"/>
                      </g>
                    </g>
                    <g id="Grupo_959981" data-name="Grupo 959981" transform="translate(3.091 26.769)">
                      <g id="Grupo_959980" data-name="Grupo 959980">
                        <path id="Trazado_631287" data-name="Trazado 631287" d="M166.142,181.633s.01.183.011.532c0,.408-.006.912-.01,1.524-.019,1.324-.017,3.238,0,5.6.025,4.731.218,11.267.421,18.485s.243,13.766.061,18.5c-.083,2.366-.187,4.28-.3,5.6-.05.61-.092,1.112-.125,1.519-.031.348-.057.529-.057.529s0-.183.015-.532c.023-.407.051-.91.086-1.521.086-1.321.167-3.233.232-5.6.143-4.73.081-11.268-.123-18.488s-.373-13.757-.361-18.491c.005-2.367.026-4.283.071-5.606.02-.612.036-1.116.049-1.524C166.124,181.816,166.142,181.633,166.142,181.633Z" transform="translate(-165.99 -181.633)" fill="#263238"/>
                      </g>
                    </g>
                    <g id="Grupo_959983" data-name="Grupo 959983" transform="translate(94.908 41.782)">
                      <g id="Grupo_959982" data-name="Grupo 959982">
                        <path id="Trazado_631288" data-name="Trazado 631288" d="M257.15,202.914a4.378,4.378,0,0,1,.145-.948c.117-.581.291-1.382.5-2.264s.4-1.677.557-2.249a4.279,4.279,0,0,1,.29-.915,4.477,4.477,0,0,1-.147.953c-.116.581-.29,1.38-.5,2.259s-.4,1.672-.556,2.245A4.417,4.417,0,0,1,257.15,202.914Z" transform="translate(-257.143 -196.538)" fill="#263238"/>
                      </g>
                    </g>
                    <g id="Grupo_959985" data-name="Grupo 959985" transform="translate(96.915 41.422)">
                      <g id="Grupo_959984" data-name="Grupo 959984">
                        <path id="Trazado_631289" data-name="Trazado 631289" d="M260.807,203.482a66.848,66.848,0,0,1-1.665-7.3,67.008,67.008,0,0,1,1.665,7.3Z" transform="translate(-259.136 -196.18)" fill="#263238"/>
                      </g>
                    </g>
                    <g id="Grupo_959987" data-name="Grupo 959987" transform="translate(49.671 2.099)">
                      <g id="Grupo_959986" data-name="Grupo 959986">
                        <path id="Trazado_631290" data-name="Trazado 631290" d="M228.851,199.76s-.135-.115-.378-.347l-1.053-1.021c-.909-.893-2.221-2.189-3.785-3.848a63.311,63.311,0,0,1-5.144-6.136,35.566,35.566,0,0,1-4.679-8.6,24,24,0,0,1-1.542-9.65,19.918,19.918,0,0,1,1.735-7.79,11.454,11.454,0,0,1,3.389-4.167,11.124,11.124,0,0,1,1.227-.808c.291-.168.448-.247.448-.247.021.033-.621.338-1.625,1.119a11.589,11.589,0,0,0-3.306,4.168,19.974,19.974,0,0,0-1.674,7.734,23.992,23.992,0,0,0,1.546,9.568,35.771,35.771,0,0,0,4.639,8.564,65.378,65.378,0,0,0,5.1,6.147c1.548,1.67,2.844,2.981,3.734,3.891l1.025,1.051C228.736,199.626,228.851,199.76,228.851,199.76Z" transform="translate(-212.234 -157.142)" fill="#263238"/>
                      </g>
                    </g>
                  </g>
                  <g id="Grupo_959990" data-name="Grupo 959990" transform="translate(27.779 20.532)">
                    <g id="Grupo_959989" data-name="Grupo 959989">
                      <path id="Trazado_631291" data-name="Trazado 631291" d="M184.251,180.9a23.222,23.222,0,0,1-4.322-5.451,23.154,23.154,0,0,1,4.322,5.451Z" transform="translate(-179.919 -175.441)" fill="#fafafa"/>
                    </g>
                  </g>
                  <g id="Grupo_959992" data-name="Grupo 959992" transform="translate(40.876 43.774)">
                    <g id="Grupo_959991" data-name="Grupo 959991">
                      <path id="Trazado_631292" data-name="Trazado 631292" d="M199.832,198.52a22.806,22.806,0,0,1-3.267,3.63,23,23,0,0,1-3.638,3.261,45.514,45.514,0,0,1,6.9-6.891Z" transform="translate(-192.922 -198.515)" fill="#fafafa"/>
                    </g>
                  </g>
                  <g id="Grupo_959994" data-name="Grupo 959994" transform="translate(59.239 62.962)">
                    <g id="Grupo_959993" data-name="Grupo 959993">
                      <path id="Trazado_631293" data-name="Trazado 631293" d="M214.87,223.912c-.148.045-.7-1.512-1.724-3.246s-2.1-2.989-1.985-3.1a10.336,10.336,0,0,1,3.71,6.342Z" transform="translate(-211.152 -217.564)" fill="#fafafa"/>
                    </g>
                  </g>
                  <g id="Grupo_959996" data-name="Grupo 959996" transform="translate(21.671 56.085)">
                    <g id="Grupo_959995" data-name="Grupo 959995">
                      <path id="Trazado_631294" data-name="Trazado 631294" d="M175.815,221.071A19.459,19.459,0,0,1,174,210.737c.156,0,.206,2.357.714,5.2C175.206,218.784,175.961,221.016,175.815,221.071Z" transform="translate(-173.856 -210.737)" fill="#fafafa"/>
                    </g>
                  </g>
                  <g id="Grupo_959998" data-name="Grupo 959998" transform="translate(43.312 69.023)">
                    <g id="Grupo_959997" data-name="Grupo 959997">
                      <path id="Trazado_631295" data-name="Trazado 631295" d="M196.542,232.22a12.8,12.8,0,0,1-.773-8.638c.155.021-.066,1.963.155,4.339C196.128,230.3,196.691,232.17,196.542,232.22Z" transform="translate(-195.34 -223.582)" fill="#fafafa"/>
                    </g>
                  </g>
                  <g id="Grupo_960000" data-name="Grupo 960000" transform="translate(27.056 88.239)">
                    <g id="Grupo_959999" data-name="Grupo 959999">
                      <path id="Trazado_631296" data-name="Trazado 631296" d="M188.4,248.416a28.126,28.126,0,0,1-4.737-2.651,28.219,28.219,0,0,1-4.459-3.1,28.308,28.308,0,0,1,4.737,2.652A28.371,28.371,0,0,1,188.4,248.416Z" transform="translate(-179.202 -242.658)" fill="#fafafa"/>
                    </g>
                  </g>
                  <g id="Grupo_960002" data-name="Grupo 960002" transform="translate(58.874 89.154)">
                    <g id="Grupo_960001" data-name="Grupo 960001">
                      <path id="Trazado_631297" data-name="Trazado 631297" d="M220.643,243.577c.064.14-2.273,1.3-4.982,3.018s-4.771,3.316-4.869,3.2a27.211,27.211,0,0,1,9.851-6.216Z" transform="translate(-210.789 -243.566)" fill="#fafafa"/>
                    </g>
                  </g>
                  <g id="Grupo_960004" data-name="Grupo 960004" transform="translate(17.823 105.588)">
                    <g id="Grupo_960003" data-name="Grupo 960003">
                      <path id="Trazado_631298" data-name="Trazado 631298" d="M180.1,261.922a25.327,25.327,0,0,1-5.082-.746,25.364,25.364,0,0,1-4.979-1.261,25.259,25.259,0,0,1,5.082.746A25.28,25.28,0,0,1,180.1,261.922Z" transform="translate(-170.036 -259.882)" fill="#fafafa"/>
                    </g>
                  </g>
                  <g id="Grupo_960006" data-name="Grupo 960006" transform="translate(45.895 97.185)">
                    <g id="Grupo_960005" data-name="Grupo 960005">
                      <path id="Trazado_631299" data-name="Trazado 631299" d="M201.664,258.438a13.076,13.076,0,0,1-3.736-6.9c.146-.047.77,1.6,1.8,3.486S201.784,258.342,201.664,258.438Z" transform="translate(-197.904 -251.539)" fill="#fafafa"/>
                    </g>
                  </g>
                  <g id="Grupo_960008" data-name="Grupo 960008" transform="translate(70.603 105.783)">
                    <g id="Grupo_960007" data-name="Grupo 960007">
                      <path id="Trazado_631300" data-name="Trazado 631300" d="M225.985,260.082a7.5,7.5,0,0,1-1.568,2.286c-.977,1.17-1.859,2.043-1.971,1.95a7.506,7.506,0,0,1,1.569-2.287C224.992,260.862,225.874,259.988,225.985,260.082Z" transform="translate(-222.434 -260.075)" fill="#fafafa"/>
                    </g>
                  </g>
                  <g id="Grupo_960010" data-name="Grupo 960010" transform="translate(25.03 36.53)">
                    <g id="Grupo_960009" data-name="Grupo 960009">
                      <path id="Trazado_631301" data-name="Trazado 631301" d="M181.5,191.34c.081.12-.819.862-2.009,1.656a6.622,6.622,0,0,1-2.3,1.221c-.081-.12.818-.862,2.009-1.657A6.629,6.629,0,0,1,181.5,191.34Z" transform="translate(-177.19 -191.323)" fill="#fafafa"/>
                    </g>
                  </g>
                  <g id="Grupo_960012" data-name="Grupo 960012" transform="translate(43.48 6.98)">
                    <g id="Grupo_960011" data-name="Grupo 960011">
                      <path id="Trazado_631302" data-name="Trazado 631302" d="M198.37,172.565a22.675,22.675,0,0,1-1.813-5.183,22.6,22.6,0,0,1-1.021-5.394,39.933,39.933,0,0,1,1.528,5.258A39.759,39.759,0,0,1,198.37,172.565Z" transform="translate(-195.507 -161.988)" fill="#fafafa"/>
                    </g>
                  </g>
                  <g id="Grupo_960014" data-name="Grupo 960014" transform="translate(55.778 33.34)">
                    <g id="Grupo_960013" data-name="Grupo 960013">
                      <path id="Trazado_631303" data-name="Trazado 631303" d="M214.606,189.662c-.062.141-1.533-.424-3.422-.779s-3.462-.385-3.468-.539a9.845,9.845,0,0,1,6.89,1.318Z" transform="translate(-207.716 -188.156)" fill="#fafafa"/>
                    </g>
                  </g>
                  <g id="Grupo_960016" data-name="Grupo 960016" transform="translate(66.414 18.987)">
                    <g id="Grupo_960015" data-name="Grupo 960015">
                      <path id="Trazado_631304" data-name="Trazado 631304" d="M225.75,175.079a10.444,10.444,0,0,1-7.473-1.15c.059-.143,1.656.449,3.709.757C224.036,175.01,225.736,174.924,225.75,175.079Z" transform="translate(-218.275 -173.907)" fill="#fafafa"/>
                    </g>
                  </g>
                  <g id="Grupo_960018" data-name="Grupo 960018" transform="translate(85.266 25.627)">
                    <g id="Grupo_960017" data-name="Grupo 960017">
                      <path id="Trazado_631305" data-name="Trazado 631305" d="M237.095,191.413a25.241,25.241,0,0,1,1.768-10.913c.147.044-.491,2.438-.971,5.442S237.249,191.417,237.095,191.413Z" transform="translate(-236.99 -180.499)" fill="#fafafa"/>
                    </g>
                  </g>
                  <g id="Grupo_960020" data-name="Grupo 960020" transform="translate(92.065 48.824)">
                    <g id="Grupo_960019" data-name="Grupo 960019">
                      <path id="Trazado_631306" data-name="Trazado 631306" d="M250.535,210.536a45.5,45.5,0,0,1-6.789-7,45.491,45.491,0,0,1,6.789,7Z" transform="translate(-243.741 -203.528)" fill="#fafafa"/>
                    </g>
                  </g>
                  <g id="Grupo_960022" data-name="Grupo 960022" transform="translate(106.015 54.347)">
                    <g id="Grupo_960021" data-name="Grupo 960021">
                      <path id="Trazado_631307" data-name="Trazado 631307" d="M261.661,209.015a26.937,26.937,0,0,1-4.06,6.3,26.935,26.935,0,0,1,4.06-6.3Z" transform="translate(-257.589 -209.012)" fill="#fafafa"/>
                    </g>
                  </g>
                  <g id="Grupo_960024" data-name="Grupo 960024" transform="translate(119.218 40.021)">
                    <g id="Grupo_960023" data-name="Grupo 960023">
                      <path id="Trazado_631308" data-name="Trazado 631308" d="M274.584,202.773a18.973,18.973,0,0,1-2.172-3.876,19.011,19.011,0,0,1-1.7-4.106,37.653,37.653,0,0,1,3.873,7.982Z" transform="translate(-270.697 -194.789)" fill="#fafafa"/>
                    </g>
                  </g>
                  <g id="Grupo_960026" data-name="Grupo 960026" transform="translate(131.675 38.999)">
                    <g id="Grupo_960025" data-name="Grupo 960025">
                      <path id="Trazado_631309" data-name="Trazado 631309" d="M292.227,195.444a41.393,41.393,0,0,1-9.163-1.629,41.393,41.393,0,0,1,9.163,1.629Z" transform="translate(-283.064 -193.775)" fill="#fafafa"/>
                    </g>
                  </g>
                  <g id="Grupo_960028" data-name="Grupo 960028" transform="translate(0 50.574)">
                    <g id="Grupo_960027" data-name="Grupo 960027">
                      <path id="Trazado_631310" data-name="Trazado 631310" d="M152.355,214.222a23.643,23.643,0,0,1,1.871-4.589,23.647,23.647,0,0,1,2.346-4.366,23.567,23.567,0,0,1-1.871,4.589A23.577,23.577,0,0,1,152.355,214.222Z" transform="translate(-152.342 -205.266)" fill="#fafafa"/>
                    </g>
                  </g>
                  <g id="Grupo_960030" data-name="Grupo 960030" transform="translate(3.693 36.59)">
                    <g id="Grupo_960029" data-name="Grupo 960029">
                      <path id="Trazado_631311" data-name="Trazado 631311" d="M161.727,197.743a34.906,34.906,0,0,1-5.712-6.355,34.995,34.995,0,0,1,5.712,6.355Z" transform="translate(-156.008 -191.383)" fill="#fafafa"/>
                    </g>
                  </g>
                  <g id="Grupo_960032" data-name="Grupo 960032" transform="translate(5.173 69.565)">
                    <g id="Grupo_960031" data-name="Grupo 960031">
                      <path id="Trazado_631312" data-name="Trazado 631312" d="M160.938,224.133c.093.112-.605.844-1.559,1.637s-1.8,1.345-1.894,1.233.605-.844,1.558-1.637S160.845,224.022,160.938,224.133Z" transform="translate(-157.477 -224.119)" fill="#fafafa"/>
                    </g>
                  </g>
                  <g id="Grupo_960034" data-name="Grupo 960034" transform="translate(9.49 25.323)">
                    <g id="Grupo_960033" data-name="Grupo 960033">
                      <path id="Trazado_631313" data-name="Trazado 631313" d="M164.081,180.207c.113.091-.31.807-.945,1.6s-1.242,1.364-1.355,1.273.31-.807.945-1.6S163.967,180.116,164.081,180.207Z" transform="translate(-161.763 -180.198)" fill="#fafafa"/>
                    </g>
                  </g>
                  <g id="Grupo_960036" data-name="Grupo 960036" transform="translate(64.452 29.913)" opacity="0.3">
                    <g id="Grupo_960035" data-name="Grupo 960035">
                      <path id="Trazado_631314" data-name="Trazado 631314" d="M216.327,184.754c4.26,13.386,7.549,27.438,11.808,40.824l-1.015-27.727A66.471,66.471,0,0,1,216.327,184.754Z" transform="translate(-216.327 -184.754)"/>
                    </g>
                  </g>
                </g>
                <g id="Grupo_960039" data-name="Grupo 960039" transform="translate(10.831 79.484)">
                  <g id="Grupo_960038" data-name="Grupo 960038">
                    <path id="Trazado_631315" data-name="Trazado 631315" d="M147.519,202.362a2.161,2.161,0,0,1,.13-.33l.41-.928c.358-.8.9-1.961,1.579-3.38,1.365-2.841,3.345-6.721,5.714-10.9s4.683-7.878,6.417-10.509c.867-1.316,1.581-2.371,2.088-3.092l.585-.829a2.3,2.3,0,0,1,.216-.28,2.236,2.236,0,0,1-.18.3c-.161.247-.342.527-.553.851l-2.031,3.128c-1.7,2.649-3.99,6.35-6.36,10.53s-4.366,8.046-5.764,10.867c-.657,1.344-1.207,2.468-1.639,3.35-.169.348-.316.647-.445.912A2.312,2.312,0,0,1,147.519,202.362Z" transform="translate(-147.518 -172.108)" fill="#263238"/>
                  </g>
                </g>
                <g id="Grupo_960041" data-name="Grupo 960041" transform="translate(11.039 96.913)">
                  <g id="Grupo_960040" data-name="Grupo 960040">
                    <path id="Trazado_631316" data-name="Trazado 631316" d="M154.313,189.415c.01.032-.425.173-1.1.463a14.031,14.031,0,0,0-4.67,3.249c-.506.532-.79.89-.817.87-.011-.009.047-.107.165-.278a8.036,8.036,0,0,1,.542-.692,11.794,11.794,0,0,1,4.724-3.287,8.151,8.151,0,0,1,.837-.268A.957.957,0,0,1,154.313,189.415Z" transform="translate(-147.725 -189.411)" fill="#263238"/>
                  </g>
                </g>
              </g>
            </g>
            <g id="Grupo_960045" data-name="Grupo 960045" transform="translate(12.018 76.252)">
              <g id="Grupo_960044" data-name="Grupo 960044">
                <path id="Trazado_631317" data-name="Trazado 631317" d="M155.253,168.9a29.915,29.915,0,0,1-3.062,4.682,30.029,30.029,0,0,1-3.488,4.376,29.968,29.968,0,0,1,3.063-4.683A30.077,30.077,0,0,1,155.253,168.9Z" transform="translate(-148.696 -168.899)" fill="#fafafa"/>
              </g>
            </g>
          </g>
          <g id="Grupo_960048" data-name="Grupo 960048" transform="translate(25.848 112.436)">
            <path id="Trazado_631318" data-name="Trazado 631318" d="M162.427,152.72a2.427,2.427,0,0,0,2.56-1.209c.562-.842.823-1.85,1.324-2.731,1.5-2.634,4.9-3.78,6.271-6.483.19-.377.307-.9-.02-1.167-.3-.247-.752-.08-1.1.1l-8.973,4.493" transform="translate(-162.426 -140.734)" fill="#ffbe9d"/>
            <g id="Grupo_960047" data-name="Grupo 960047">
              <path id="Trazado_631319" data-name="Trazado 631319" d="M162.486,145.72a4,4,0,0,1,.92-.585c.609-.343,1.5-.824,2.606-1.406l3.9-2.021,1.13-.576a1.989,1.989,0,0,1,1.463-.351.843.843,0,0,1,.547.776,1.733,1.733,0,0,1-.179.8,6.513,6.513,0,0,1-.809,1.238,38.4,38.4,0,0,1-4.068,3.56,7.581,7.581,0,0,0-1.464,1.724c-.358.607-.593,1.252-.872,1.823a3.533,3.533,0,0,1-2.126,2.1,1.269,1.269,0,0,1-1.1-.087,2.943,2.943,0,0,0,1.033-.126,3.417,3.417,0,0,0,1.826-2.06c.248-.561.459-1.219.83-1.891a7.78,7.78,0,0,1,1.516-1.876,44.687,44.687,0,0,0,3.984-3.535,6.2,6.2,0,0,0,.736-1.117c.182-.375.175-.763-.043-.81-.231-.09-.644.117-1.026.312l-1.138.56-3.952,1.91c-1.129.536-2.047.962-2.687,1.244A4.022,4.022,0,0,1,162.486,145.72Z" transform="translate(-162.426 -140.736)" fill="#eb996e"/>
            </g>
          </g>
        </g>
      </g>
    </g>
  </g>
</svg>
