<svg xmlns="http://www.w3.org/2000/svg" xmlns:xlink="http://www.w3.org/1999/xlink" width="110" height="110" viewBox="0 0 110 110">
  <defs>
    <clipPath id="clip-path">
      <rect id="Rectángulo_307021" data-name="Rectángulo 307021" width="84" height="84" transform="translate(1178 2443)" fill="#fff"/>
    </clipPath>
  </defs>
  <g id="Grupo_980566" data-name="Grupo 980566" transform="translate(-1165 -2431)">
    <circle id="Elipse_7748" data-name="Elipse 7748" cx="55" cy="55" r="55" transform="translate(1165 2431)" fill="#f0bd51"/>
    <g id="Enmascarar_grupo_878441" data-name="Enmascarar grupo 878441" clip-path="url(#clip-path)">
      <g id="disgusto" transform="translate(1178 2443)">
        <g id="Grupo_962123" data-name="Grupo 962123">
          <path id="Trazado_632081" data-name="Trazado 632081" d="M30.436,40.562l-15.82,9.544L9.885,69.441,14.616,82.77H50.288a4.631,4.631,0,1,0,0-9.262h1.662a4.631,4.631,0,1,0,0-9.262h1.664a4.631,4.631,0,0,0,0-9.262H51.949a4.631,4.631,0,1,0,0-9.262H43.065L38.946,41.6a6.957,6.957,0,0,0-8.51-1.038Z" fill="#ffddce"/>
          <g id="Grupo_962116" data-name="Grupo 962116">
            <path id="Trazado_632082" data-name="Trazado 632082" d="M37.673,24.406H47.98V45.72H37.673Z" fill="#26457d"/>
            <path id="Trazado_632083" data-name="Trazado 632083" d="M37.673,24.406h3.68V45.72h-3.68Z" fill="#21386b"/>
          </g>
          <g id="Grupo_962117" data-name="Grupo 962117">
            <path id="Trazado_632084" data-name="Trazado 632084" d="M54.919,78.138a4.632,4.632,0,0,1-4.631,4.631H22.945a8.313,8.313,0,0,1-6.722-3.411H50.288a4.627,4.627,0,0,0,4.3-2.926.081.081,0,0,0,.009.016A4.629,4.629,0,0,1,54.919,78.138Z" fill="#ffcbbe"/>
          </g>
          <g id="Grupo_962118" data-name="Grupo 962118">
            <path id="Trazado_632085" data-name="Trazado 632085" d="M56.254,67.169a4.632,4.632,0,0,1-4.305,6.338H50.175a1.706,1.706,0,1,1,0-3.411h1.775a4.63,4.63,0,0,0,4.305-2.927Z" fill="#ffcbbe"/>
          </g>
          <g id="Grupo_962119" data-name="Grupo 962119">
            <path id="Trazado_632086" data-name="Trazado 632086" d="M57.918,57.907a4.632,4.632,0,0,1-4.305,6.338H51.838a1.706,1.706,0,1,1,0-3.411h1.775A4.63,4.63,0,0,0,57.918,57.907Z" fill="#ffcbbe"/>
          </g>
          <g id="Grupo_962120" data-name="Grupo 962120">
            <path id="Trazado_632087" data-name="Trazado 632087" d="M56.256,48.644a4.632,4.632,0,0,1-4.3,6.338H50.177a1.706,1.706,0,0,1,0-3.411h1.775a4.63,4.63,0,0,0,4.3-2.927Z" fill="#ffcbbe"/>
          </g>
          <path id="Trazado_632088" data-name="Trazado 632088" d="M4.235,50.262V79.143A3.627,3.627,0,0,0,7.862,82.77h7.151a3.627,3.627,0,0,0,3.627-3.627V50.262a3.627,3.627,0,0,0-3.627-3.627H7.862a3.627,3.627,0,0,0-3.627,3.627Z" fill="#9dc6fb"/>
          <path id="Trazado_632089" data-name="Trazado 632089" d="M4.234,70.046v9.1A3.627,3.627,0,0,0,7.862,82.77h7.151a3.625,3.625,0,0,0,3.626-3.626v-9.1a3.627,3.627,0,0,1-3.626,3.628H7.862a3.629,3.629,0,0,1-3.628-3.628Z" fill="#80b4fb"/>
          <circle id="Elipse_7781" data-name="Elipse 7781" cx="20.297" cy="20.297" r="20.297" transform="translate(22.591 1.23)" fill="#ee596b"/>
          <path id="Trazado_632090" data-name="Trazado 632090" d="M45.18,41.7a20.3,20.3,0,1,1,0-40.338,20.3,20.3,0,0,0,0,40.338Z" fill="#ed3a4f"/>
          <g id="Grupo_962122" data-name="Grupo 962122">
            <path id="Trazado_632091" data-name="Trazado 632091" d="M51.554,32.413q1.124-1.095,2.219-2.219a2.639,2.639,0,0,0,.03-3.658q-1.514-1.6-3.045-3.18a2.63,2.63,0,0,1,0-3.659q1.531-1.582,3.045-3.18a2.639,2.639,0,0,0-.03-3.658q-1.095-1.124-2.218-2.218a2.639,2.639,0,0,0-3.658-.03q-1.6,1.514-3.18,3.045a2.63,2.63,0,0,1-3.659,0q-1.582-1.531-3.18-3.045a2.639,2.639,0,0,0-3.658.03Q33.1,11.737,32,12.861a2.639,2.639,0,0,0-.03,3.658q1.514,1.6,3.045,3.18a2.63,2.63,0,0,1,0,3.659q-1.531,1.582-3.045,3.18A2.639,2.639,0,0,0,32,30.194q1.095,1.124,2.219,2.219a2.639,2.639,0,0,0,3.658.03q1.6-1.514,3.18-3.045a2.63,2.63,0,0,1,3.659,0q1.582,1.531,3.18,3.045A2.639,2.639,0,0,0,51.554,32.413Z" fill="#f1f4f6"/>
            <g id="Grupo_962121" data-name="Grupo 962121">
              <path id="Trazado_632092" data-name="Trazado 632092" d="M19.5,8.263l-.2.353a2.735,2.735,0,0,1-3.571,1.089L11.754,7.761a2.735,2.735,0,0,1-1.166-3.824l.506-.877a2.735,2.735,0,0,1,3.895-.9l3.67,2.468A2.735,2.735,0,0,1,19.5,8.263Z" fill="#f1f4f6"/>
              <path id="Trazado_632093" data-name="Trazado 632093" d="M66.274,34.791l.2-.353a2.735,2.735,0,0,1,3.571-1.089l3.972,1.944a2.735,2.735,0,0,1,1.166,3.824l-.506.877a2.735,2.735,0,0,1-3.895.9l-3.67-2.468A2.735,2.735,0,0,1,66.274,34.791Z" fill="#f1f4f6"/>
              <path id="Trazado_632094" data-name="Trazado 632094" d="M15.892,21.323v.408a2.735,2.735,0,0,1-2.548,2.729l-4.412.3A2.735,2.735,0,0,1,6.01,22.034V21.021a2.735,2.735,0,0,1,2.922-2.729l4.412.3a2.735,2.735,0,0,1,2.548,2.728Z" fill="#f1f4f6"/>
              <path id="Trazado_632095" data-name="Trazado 632095" d="M69.883,21.731v-.408a2.735,2.735,0,0,1,2.548-2.729l4.412-.3a2.735,2.735,0,0,1,2.922,2.729v1.013a2.735,2.735,0,0,1-2.922,2.729l-4.412-.3a2.735,2.735,0,0,1-2.548-2.728Z" fill="#f1f4f6"/>
              <path id="Trazado_632096" data-name="Trazado 632096" d="M19.3,34.438l.2.353a2.735,2.735,0,0,1-.842,3.637L14.989,40.9a2.735,2.735,0,0,1-3.895-.9l-.506-.877a2.735,2.735,0,0,1,1.166-3.824l3.972-1.944A2.734,2.734,0,0,1,19.3,34.438Z" fill="#f1f4f6"/>
              <path id="Trazado_632097" data-name="Trazado 632097" d="M66.478,8.616l-.2-.353a2.735,2.735,0,0,1,.842-3.637l3.67-2.468a2.735,2.735,0,0,1,3.895.9l.507.877a2.735,2.735,0,0,1-1.166,3.824L70.048,9.705a2.735,2.735,0,0,1-3.571-1.089Z" fill="#f1f4f6"/>
            </g>
          </g>
        </g>
        <g id="Grupo_962124" data-name="Grupo 962124">
          <path id="Trazado_632098" data-name="Trazado 632098" d="M64.415,21.527a21.647,21.647,0,0,0-.4-4.135,1.23,1.23,0,1,0-2.415.471,19.067,19.067,0,1,1-1.431-4.394,1.23,1.23,0,0,0,2.23-1.041,21.527,21.527,0,1,0-31.89,26.7c-.242.115-.48.239-.71.378L18.134,46.546a4.834,4.834,0,0,0-3.121-1.14H7.861A4.862,4.862,0,0,0,3,50.262V71.006a1.23,1.23,0,0,0,2.461,0V50.262a2.4,2.4,0,0,1,2.4-2.4h7.151a2.4,2.4,0,0,1,2.4,2.4V79.144a2.4,2.4,0,0,1-2.4,2.4H7.861a2.4,2.4,0,0,1-2.4-2.4V75.928a1.23,1.23,0,0,0-2.461,0v3.216A4.862,4.862,0,0,0,7.861,84h7.151a4.836,4.836,0,0,0,3.231-1.235A9.48,9.48,0,0,0,22.944,84H50.287a5.864,5.864,0,0,0,5.459-8,5.8,5.8,0,0,0-1.187-1.875,5.862,5.862,0,0,0,1.662-9.263,5.862,5.862,0,0,0,0-10.5,5.859,5.859,0,0,0-4.269-9.873H49.21V42.107a21.566,21.566,0,0,0,15.2-20.58ZM33.466,44.489a1.23,1.23,0,0,0,0,2.461H51.95a3.4,3.4,0,1,1,0,6.8,1.23,1.23,0,0,0,0,2.461h1.662a3.4,3.4,0,0,1,0,6.8H51.95a1.23,1.23,0,1,0,0,2.461,3.4,3.4,0,1,1,0,6.8H50.288a1.23,1.23,0,0,0,0,2.461,3.4,3.4,0,1,1,0,6.8H22.945a7.039,7.039,0,0,1-3.335-.832,4.831,4.831,0,0,0,.26-1.563V50.262a4.833,4.833,0,0,0-.309-1.7l11.512-6.943a5.741,5.741,0,0,1,2.3-.784,21.385,21.385,0,0,0,3.072,1.236v2.421Zm13.283,0H38.9V42.684a21.6,21.6,0,0,0,7.847.024Z"/>
          <path id="Trazado_632099" data-name="Trazado 632099" d="M31.079,25.69a3.86,3.86,0,0,0,.041,5.363c.733.752,1.487,1.507,2.241,2.241a3.86,3.86,0,0,0,5.363.041c1.064-1.008,2.137-2.036,3.189-3.054a1.394,1.394,0,0,1,1.947,0c1.049,1.016,2.122,2.043,3.189,3.054a3.86,3.86,0,0,0,5.363-.041c.753-.733,1.507-1.487,2.241-2.241A3.86,3.86,0,0,0,54.7,25.69c-1.007-1.063-2.035-2.136-3.054-3.189a1.394,1.394,0,0,1,0-1.947c1.021-1.055,2.049-2.128,3.054-3.189A3.86,3.86,0,0,0,54.654,12c-.735-.754-1.489-1.508-2.241-2.241a3.86,3.86,0,0,0-5.363-.041c-1.066,1.01-2.139,2.038-3.189,3.054a1.394,1.394,0,0,1-1.947,0c-1.055-1.021-2.128-2.049-3.189-3.054a3.86,3.86,0,0,0-5.363.041c-.754.734-1.508,1.488-2.242,2.241a3.86,3.86,0,0,0-.041,5.363c1.005,1.061,2.033,2.134,3.054,3.189a1.394,1.394,0,0,1,0,1.947c-1.019,1.053-2.047,2.126-3.054,3.189ZM35.9,18.842c-1.015-1.049-2.037-2.116-3.036-3.17a1.406,1.406,0,0,1,.018-1.953c.719-.738,1.457-1.477,2.2-2.2a1.405,1.405,0,0,1,1.953-.018c1.055,1,2.121,2.021,3.17,3.036a3.845,3.845,0,0,0,5.37,0c1.044-1.01,2.111-2.032,3.17-3.036a1.405,1.405,0,0,1,1.953.018c.737.718,1.476,1.457,2.2,2.2a1.406,1.406,0,0,1,.018,1.953c-1,1.055-2.021,2.121-3.036,3.17a3.845,3.845,0,0,0,0,5.37c1.013,1.047,2.035,2.114,3.036,3.17a1.406,1.406,0,0,1-.018,1.953c-.72.739-1.458,1.478-2.2,2.2a1.405,1.405,0,0,1-1.953.018c-1.06-1.005-2.127-2.027-3.17-3.036a3.845,3.845,0,0,0-5.37,0c-1.046,1.012-2.112,2.034-3.17,3.036a1.406,1.406,0,0,1-1.953-.018c-.739-.72-1.478-1.459-2.2-2.2a1.405,1.405,0,0,1-.018-1.953c1-1.057,2.023-2.123,3.036-3.17A3.845,3.845,0,0,0,35.9,18.842Z"/>
          <path id="Trazado_632100" data-name="Trazado 632100" d="M11.213,8.867l3.972,1.944a3.932,3.932,0,0,0,1.732.4,3.977,3.977,0,0,0,3.445-1.98l.2-.353h0a3.977,3.977,0,0,0-1.221-5.273l-3.67-2.468a3.965,3.965,0,0,0-5.647,1.308l-.506.877a3.965,3.965,0,0,0,1.691,5.544Zm.44-4.314.506-.877a1.489,1.489,0,0,1,.964-.713,1.523,1.523,0,0,1,.344-.04,1.49,1.49,0,0,1,.835.257l3.67,2.468a1.509,1.509,0,0,1,.463,2l-.2.353a1.509,1.509,0,0,1-1.964.6L12.295,6.656a1.5,1.5,0,0,1-.642-2.1Z"/>
          <path id="Trazado_632101" data-name="Trazado 632101" d="M74.562,34.188l-3.972-1.944a3.977,3.977,0,0,0-5.177,1.579l-.2.353a3.977,3.977,0,0,0,1.221,5.273l3.67,2.468a3.965,3.965,0,0,0,5.647-1.308l.506-.877a3.966,3.966,0,0,0-1.691-5.545Zm-.44,4.314-.506.877a1.5,1.5,0,0,1-2.143.5L67.8,37.407a1.509,1.509,0,0,1-.463-2l.2-.353A1.509,1.509,0,0,1,68.85,34.3a1.492,1.492,0,0,1,.657.152L73.48,36.4a1.5,1.5,0,0,1,.642,2.1Z"/>
          <path id="Trazado_632102" data-name="Trazado 632102" d="M6.039,24.932A3.981,3.981,0,0,0,8.748,26c.089,0,.179,0,.269-.009l4.412-.3a3.977,3.977,0,0,0,3.694-3.956v-.408a3.977,3.977,0,0,0-3.694-3.956l-4.412-.3A3.965,3.965,0,0,0,4.78,21.021v1.013a3.979,3.979,0,0,0,1.259,2.9Zm1.2-3.911a1.5,1.5,0,0,1,1.5-1.5q.053,0,.106,0l4.412.3a1.509,1.509,0,0,1,1.4,1.5v.408a1.509,1.509,0,0,1-1.4,1.5l-4.412.3a1.5,1.5,0,0,1-1.607-1.5Z"/>
          <path id="Trazado_632103" data-name="Trazado 632103" d="M79.736,18.123a3.98,3.98,0,0,0-2.978-1.058l-4.412.3a3.977,3.977,0,0,0-3.694,3.956v.408a3.977,3.977,0,0,0,3.694,3.956l4.412.3q.134.009.269.009A3.965,3.965,0,0,0,81,22.034V21.021a3.979,3.979,0,0,0-1.259-2.9Zm-1.2,3.911a1.5,1.5,0,0,1-1.607,1.5l-4.412-.3a1.509,1.509,0,0,1-1.4-1.5v-.408a1.509,1.509,0,0,1,1.4-1.5l4.412-.3q.053,0,.106,0a1.5,1.5,0,0,1,1.5,1.5v1.013Z"/>
          <path id="Trazado_632104" data-name="Trazado 632104" d="M15.185,32.244l-3.972,1.944a3.965,3.965,0,0,0-1.691,5.544l.506.877a3.967,3.967,0,0,0,5.647,1.308l3.67-2.468a3.977,3.977,0,0,0,1.221-5.273l-.2-.353h0a3.977,3.977,0,0,0-5.177-1.579Zm2.787,5.163L14.3,39.875a1.5,1.5,0,0,1-2.143-.5l-.506-.877a1.5,1.5,0,0,1,.642-2.1l3.972-1.944a1.492,1.492,0,0,1,.657-.152,1.509,1.509,0,0,1,1.307.751h0l.2.353a1.508,1.508,0,0,1-.463,2Z"/>
          <path id="Trazado_632105" data-name="Trazado 632105" d="M65.412,9.231h0a3.977,3.977,0,0,0,3.445,1.98,3.935,3.935,0,0,0,1.732-.4l3.972-1.944a3.965,3.965,0,0,0,1.691-5.544l-.506-.877A3.965,3.965,0,0,0,70.1,1.137L66.43,3.605a3.977,3.977,0,0,0-1.221,5.273ZM67.8,5.648l3.67-2.468a1.5,1.5,0,0,1,2.143.5l.506.877a1.5,1.5,0,0,1-.641,2.1L69.508,8.6A1.509,1.509,0,0,1,67.543,8l-.2-.353a1.509,1.509,0,0,1,.463-2Z"/>
        </g>
      </g>
    </g>
  </g>
</svg>
