<svg xmlns="http://www.w3.org/2000/svg" xmlns:xlink="http://www.w3.org/1999/xlink" width="57" height="57" viewBox="0 0 57 57">
  <defs>
    <clipPath id="clip-path">
      <rect id="Rectángulo_307085" data-name="Rectángulo 307085" width="57" height="57" transform="translate(194 9546.434)" fill="#583cb6" stroke="#707070" stroke-width="1"/>
    </clipPath>
  </defs>
  <g id="Enmascarar_grupo_878449" data-name="Enmascarar grupo 878449" transform="translate(-194 -9546.434)" clip-path="url(#clip-path)">
    <g id="caja-de-herramientas" transform="translate(192.1 9544.533)">
      <path id="Trazado_632954" data-name="Trazado 632954" d="M4.75,24.7h51.3V41.8H4.75Z" fill="#d68029"/>
      <path id="Trazado_632955" data-name="Trazado 632955" d="M19.95,7.6h3.8v7.6h-3.8Z" fill="#4895aa"/>
      <path id="Trazado_632956" data-name="Trazado 632956" d="M37.05,7.6h3.8v7.6h-3.8Z" fill="#4895aa"/>
      <path id="Trazado_632957" data-name="Trazado 632957" d="M4.75,14.25h51.3v11.4H4.75Z" fill="#feac4f"/>
      <path id="Trazado_632958" data-name="Trazado 632958" d="M4.75,14.25h51.3a9.73,9.73,0,0,1-6.88,2.85H10.425a6.821,6.821,0,0,1-4.823-2Z" fill="#ffd199"/>
      <path id="Trazado_632959" data-name="Trazado 632959" d="M4.75,15.2V25.65h1.9V18.791a4.082,4.082,0,0,0-1.2-2.887Z" fill="#ffd199"/>
      <path id="Trazado_632960" data-name="Trazado 632960" d="M21.8,2.85H39A1.848,1.848,0,0,1,40.85,4.7V8.55H19.95V4.7A1.848,1.848,0,0,1,21.8,2.85Z" fill="#0a4566"/>
      <path id="Trazado_632961" data-name="Trazado 632961" d="M41.8,40.85l4.6-4.6A3.743,3.743,0,0,0,47.5,33.6V32.415a4.865,4.865,0,0,1,4.865-4.865h.441a3.244,3.244,0,0,1,2.294.95l-3.8,3.8,1.9,1.9L57,30.4a3.244,3.244,0,0,1,.95,2.294v.441A4.865,4.865,0,0,1,53.085,38H51.9a3.743,3.743,0,0,0-2.647,1.1L47.5,40.85Z" fill="#96d6e4"/>
      <path id="Trazado_632962" data-name="Trazado 632962" d="M51.3,32.3l3.8-3.8a3.243,3.243,0,0,0-1.922-.928L51.3,29.453a2.012,2.012,0,0,0,0,2.847Z" fill="#4895aa"/>
      <path id="Trazado_632963" data-name="Trazado 632963" d="M57,30.4l-.022.022a3.245,3.245,0,0,1,.022.371v.441A4.865,4.865,0,0,1,52.135,36.1H50.951A3.743,3.743,0,0,0,48.3,37.2,5.987,5.987,0,0,1,44.07,38.95H43.7l-1.9,1.9h5.7L49.254,39.1A3.743,3.743,0,0,1,51.9,38h1.184a4.865,4.865,0,0,0,4.865-4.865v-.441A3.244,3.244,0,0,0,57,30.4Z" fill="#4895aa"/>
      <path id="Trazado_632964" data-name="Trazado 632964" d="M14.25,35.15h-3.8V20.9L9.5,19l.95-4.75h3.8L15.2,19l-.95,1.9Z" fill="#96d6e4"/>
      <path id="Trazado_632965" data-name="Trazado 632965" d="M14.25,14.25h-1.9L13.3,19l-.95,1.9V35.15h1.9V20.9L15.2,19Z" fill="#4895aa"/>
      <path id="Trazado_632966" data-name="Trazado 632966" d="M17.1,40.85H7.6v-.838A4.5,4.5,0,0,1,8.075,38a4.5,4.5,0,0,0,.475-2.012V33.25h7.6v2.738A4.5,4.5,0,0,0,16.625,38a4.5,4.5,0,0,1,.475,2.012Z" fill="#af1e4b"/>
      <path id="Trazado_632967" data-name="Trazado 632967" d="M9.969,38.962A4.415,4.415,0,0,0,10.45,37V36a1.8,1.8,0,0,1,1.8-1.8h3.9v-.95H8.55v2.74a4.69,4.69,0,0,1-.5,2.051A4.5,4.5,0,0,0,7.6,40.012v.838H9.5a4.5,4.5,0,0,1,.466-1.888Z" fill="#dd1c4b"/>
      <path id="Trazado_632968" data-name="Trazado 632968" d="M38.053,38.053l-5.648-.778L34.383,24.7,40,25.65Z" fill="#2a6377"/>
      <path id="Trazado_632969" data-name="Trazado 632969" d="M38.053,38.053l-5.648-.778.891-5.659a5.22,5.22,0,0,0,5.725-3.329L40,25.65Z" fill="#4895aa"/>
      <path id="Trazado_632970" data-name="Trazado 632970" d="M30.925,37.091h7.6v7.6h-7.6Z" transform="translate(6.775 -4.898) rotate(8.916)" fill="#0a4566"/>
      <path id="Trazado_632971" data-name="Trazado 632971" d="M32.81,44.434l-2.432-.383,1.181-7.508,7.508,1.181-1.391.073a4.761,4.761,0,0,0-4.453,4.015Z" fill="#045f9c"/>
      <path id="Trazado_632972" data-name="Trazado 632972" d="M20.9,19.95h7.6v22.8H20.9Z" fill="#efd66a"/>
      <path id="Trazado_632973" data-name="Trazado 632973" d="M20.9,19.95h7.6v13.3a7.6,7.6,0,0,1-7.6,7.6Z" fill="#f6e597"/>
      <path id="Trazado_632974" data-name="Trazado 632974" d="M45.53,27.2,30.025,24.762l.966-5.618,9.794,1.54A5.7,5.7,0,0,1,45.53,27.2Z" fill="#96d6e4"/>
      <path id="Trazado_632975" data-name="Trazado 632975" d="M32.666,20.958l.237-1.513-1.5-.237-.886,5.631L45.53,27.2a5.688,5.688,0,0,0-.01-1.833L34.63,23.655a2.359,2.359,0,0,1-1.964-2.7Z" fill="#4895aa"/>
      <path id="Trazado_632976" data-name="Trazado 632976" d="M27.183,17.93h3.8v7.6h-3.8Z" transform="translate(3.729 -4.254) rotate(8.916)" fill="#045f9c"/>
      <path id="Trazado_632977" data-name="Trazado 632977" d="M30.367,25.778l-3.754-.591.427-2.717a3.9,3.9,0,0,1,4.36-3.262Z" fill="#0a4566"/>
      <path id="Trazado_632978" data-name="Trazado 632978" d="M2.85,40.85h55.1v17.1H2.85Z" fill="#feac4f"/>
      <path id="Trazado_632979" data-name="Trazado 632979" d="M56.05,40.85V52.739a3.311,3.311,0,0,1-3.311,3.311H7.1a5.662,5.662,0,0,0-4,1.658l-.242.242h55.1V40.85Z" fill="#d68029"/>
      <path id="Trazado_632980" data-name="Trazado 632980" d="M3.314,56.536,2.85,57V40.85h1.9V53.069a4.9,4.9,0,0,1-1.436,3.466Z" fill="#ffd199"/>
      <path id="Trazado_632981" data-name="Trazado 632981" d="M14.25,44.65h7.6v5.7h-7.6Z" fill="#d68029"/>
      <path id="Trazado_632982" data-name="Trazado 632982" d="M38.95,44.65h7.6v5.7h-7.6Z" fill="#d68029"/>
      <path id="Trazado_632983" data-name="Trazado 632983" d="M2.85,40.85h55.1v3.8H2.85Z" fill="#2993ce"/>
      <path id="Trazado_632984" data-name="Trazado 632984" d="M56.05,40.85h1.9v3.8h-1.9Z" fill="#045f9c"/>
      <path id="Trazado_632985" data-name="Trazado 632985" d="M56.328,29.728,53.2,32.857l-.557-.557,3.128-3.128a.95.95,0,0,0,0-1.344A4.166,4.166,0,0,0,52.807,26.6H56.05a.95.95,0,0,0,.95-.95V14.25a.95.95,0,0,0-.95-.95H48.414v1.9H55.1v9.5H46.35a6.66,6.66,0,0,0-5.417-4.954l-8.446-1.328a.95.95,0,0,0-.791-1.086l-3.754-.591a.95.95,0,0,0-1.086.791L26.625,19H20.9a.95.95,0,0,0-.95.95V24.7H15.2V21.124l.85-1.7a.95.95,0,0,0,.082-.611L15.409,15.2H46.55V13.3H41.8V4.7A2.8,2.8,0,0,0,39,1.9H21.8A2.8,2.8,0,0,0,19,4.7v8.6H4.75a.95.95,0,0,0-.95.95V37.97H5.7V26.6H9.5v5.7H8.55a.95.95,0,0,0-.95.95v2.738a3.567,3.567,0,0,1-.375,1.587A5.479,5.479,0,0,0,6.653,39.9H2.85a.95.95,0,0,0-.95.95v17.1a.95.95,0,0,0,.95.95h55.1a.95.95,0,0,0,.95-.95V40.85a.95.95,0,0,0-.95-.95H57V37.434c.067-.061.132-.123.2-.187a5.777,5.777,0,0,0,1.7-4.112v-.441a4.166,4.166,0,0,0-1.228-2.965.95.95,0,0,0-1.344,0ZM45.382,28.139a.949.949,0,0,0,1.086-.791,6.7,6.7,0,0,0,.074-.749h5.823a5.815,5.815,0,0,0-5.815,5.815V33.6a2.775,2.775,0,0,1-.818,1.975L41.407,39.9h-1.72l.319-2.028a.95.95,0,0,0-.791-1.086L40.69,27.4ZM30.219,26.716a.949.949,0,0,0,1.086-.791l1.877.3-1.476,9.385a.95.95,0,0,0-1.086.791l-.551,3.5H29.45V26.6ZM33.583,35.9l1.476-9.385,3.754.59-1.476,9.385ZM32.35,37.63l5.631.886L37.762,39.9h-5.77Zm12.3-11.53L31.6,24.048l.59-3.754,8.446,1.328A4.759,4.759,0,0,1,44.645,26.1Zm-16.06-7.334,1.877.3-.886,5.631L27.7,24.4ZM26.326,20.9l-.651,4.14a.95.95,0,0,0,.791,1.086l1.085.171V39.9h-5.7V38h1.9V36.1h-1.9V34.2h1.9V32.3h-1.9V30.4h1.9V28.5h-1.9V20.9ZM19.95,26.6V39.9h-1.9a5.479,5.479,0,0,0-.572-2.325,3.567,3.567,0,0,1-.375-1.587V33.25a.95.95,0,0,0-.95-.95H15.2V26.6ZM36.1,9.5v3.8H24.7V9.5ZM38,13.3V9.5h1.9v3.8ZM20.9,4.7a.9.9,0,0,1,.9-.9H39a.9.9,0,0,1,.9.9V7.6h-19Zm0,4.8h1.9v3.8H20.9ZM5.7,24.7V15.2H9.291l-.723,3.614a.95.95,0,0,0,.082.611l.85,1.7V24.7Zm5.6-4.225-.8-1.608.733-3.667h2.242l.733,3.667-.8,1.608a.949.949,0,0,0-.1.425V32.3H11.4V20.9a.949.949,0,0,0-.1-.425ZM8.925,38.425A5.478,5.478,0,0,0,9.5,35.988V34.2h5.7v1.788a5.478,5.478,0,0,0,.575,2.437,3.567,3.567,0,0,1,.371,1.475H8.553a3.567,3.567,0,0,1,.371-1.475ZM57,57H3.8V45.6h9.5v4.75a.95.95,0,0,0,.95.95h7.6a.95.95,0,0,0,.95-.95V47.5H20.9v1.9H15.2V45.6H45.6v3.8H39.9V47.5H38v2.85a.95.95,0,0,0,.95.95h7.6a.95.95,0,0,0,.95-.95V45.6h7.6V43.7H3.8V41.8H57ZM55.1,39.9H49.793l.132-.132A2.775,2.775,0,0,1,51.9,38.95h1.184a5.815,5.815,0,0,0,2.015-.358ZM57,33.135a3.915,3.915,0,0,1-3.915,3.915H51.9a4.662,4.662,0,0,0-3.319,1.375L47.107,39.9H44.093l2.982-2.982A4.662,4.662,0,0,0,48.45,33.6V32.415A3.915,3.915,0,0,1,52.365,28.5h.441a2.293,2.293,0,0,1,.805.145l-2.984,2.983a.95.95,0,0,0,0,1.344l1.9,1.9a.95.95,0,0,0,1.344,0l2.983-2.984a2.293,2.293,0,0,1,.145.805Z"/>
    </g>
  </g>
</svg>
