<svg xmlns="http://www.w3.org/2000/svg" xmlns:xlink="http://www.w3.org/1999/xlink" width="74" height="74" viewBox="0 0 74 74">
  <defs>
    <clipPath id="clip-path">
      <rect id="Rectángulo_307023" data-name="Rectángulo 307023" width="74" height="74" transform="translate(1287 3195)" fill="#fff" stroke="#707070" stroke-width="1"/>
    </clipPath>
  </defs>
  <g id="Enmascarar_grupo_878442" data-name="Enmascarar grupo 878442" transform="translate(-1287 -3195)" clip-path="url(#clip-path)">
    <g id="_25-Entrepreneur" data-name="25-Entrepreneur" transform="translate(1287.005 3195.009)">
      <path id="Trazado_632106" data-name="Trazado 632106" d="M54.337,72.835H37V69.366l9.249-2.312-2.312-3.468,2.312-1.156V54.337l5.781,1.156s.162.555.393,1.538A74.3,74.3,0,0,1,53.944,65.9,65.076,65.076,0,0,1,54.337,72.835Z" fill="#3d5c9e"/>
      <path id="Trazado_632107" data-name="Trazado 632107" d="M48.557,35.839v2.312a2.319,2.319,0,0,1-2.312,2.312H45.088V35.839Z" fill="#e09380"/>
      <path id="Trazado_632108" data-name="Trazado 632108" d="M47.4,32.371v3.468H45.088c-12.717,0-12.717-3.468-12.717-3.468A3.4,3.4,0,0,1,28.9,35.839H26.59V32.371a10.4,10.4,0,0,1,20.81,0Z" fill="#966857"/>
      <path id="Trazado_632109" data-name="Trazado 632109" d="M32.371,30.059A3.4,3.4,0,0,1,28.9,33.527H26.59v2.312H28.9a3.4,3.4,0,0,0,3.468-3.468s0,3.468,12.717,3.468H47.4V33.527H45.088C32.371,33.527,32.371,30.059,32.371,30.059Z" fill="#8d5c4d"/>
      <path id="Trazado_632110" data-name="Trazado 632110" d="M46.244,54.337V62.43l-2.312,1.156,2.312,3.468L37,69.366c4.624-4.624,5.781-13.873,5.781-13.873v-1.85Z" fill="#7ea8c2"/>
      <path id="Trazado_632111" data-name="Trazado 632111" d="M40.464,48.926A8.088,8.088,0,0,1,28.9,41.62V35.839a3.4,3.4,0,0,0,3.468-3.468s0,3.468,12.717,3.468V41.62A8.058,8.058,0,0,1,40.464,48.926Zm0-7.307H33.527a3.468,3.468,0,0,0,6.937,0Z" fill="#ffbeaa"/>
      <path id="Trazado_632112" data-name="Trazado 632112" d="M42.776,53.643v1.85l-3.468,3.468L37,56.649l3.468-3.468Z" fill="#acaeaf"/>
      <path id="Trazado_632113" data-name="Trazado 632113" d="M39.308,58.962l3.468-3.468S41.62,64.742,37,69.366V56.649Z" fill="#f4f4f4"/>
      <path id="Trazado_632114" data-name="Trazado 632114" d="M40.464,48.926v4.254L37,56.649l-3.468-3.468V48.926A8.044,8.044,0,0,0,40.464,48.926Z" fill="#e09380"/>
      <path id="Trazado_632115" data-name="Trazado 632115" d="M33.527,41.62h6.937a3.468,3.468,0,0,1-6.937,0Z" fill="#ff475a"/>
      <path id="Trazado_632116" data-name="Trazado 632116" d="M37,41.62H33.527a3.438,3.438,0,0,0,.48,1.734A3.448,3.448,0,0,1,37,41.62Z" fill="#d1093a"/>
      <path id="Trazado_632117" data-name="Trazado 632117" d="M39.984,43.354a3.438,3.438,0,0,0,.48-1.734H37a3.447,3.447,0,0,1,2.989,1.734Z" fill="#d1093a"/>
      <path id="Trazado_632118" data-name="Trazado 632118" d="M37,69.366v3.468H19.654a65.076,65.076,0,0,1,.393-6.937,74.3,74.3,0,0,1,1.526-8.867c.231-.983.393-1.538.393-1.538l5.781-1.156V62.43l2.312,1.156-2.312,3.468Z" fill="#314a66"/>
      <path id="Trazado_632119" data-name="Trazado 632119" d="M37,56.649V69.366c-4.624-4.624-5.781-13.873-5.781-13.873l3.468,3.468Z" fill="#cfd9dc"/>
      <path id="Trazado_632120" data-name="Trazado 632120" d="M37,56.649l-2.312,2.312-3.468-3.468v-1.85l2.312-.462Z" fill="#acaeaf"/>
      <path id="Trazado_632121" data-name="Trazado 632121" d="M37,69.366l-9.249-2.312,2.312-3.468L27.747,62.43V54.337l3.468-.694v1.85S32.371,64.742,37,69.366Z" fill="#7ea8c2"/>
      <path id="Trazado_632122" data-name="Trazado 632122" d="M28.9,35.839v4.624H27.747a2.319,2.319,0,0,1-2.312-2.312V35.839Z" fill="#e09380"/>
      <path id="Trazado_632123" data-name="Trazado 632123" d="M5.781,33.527H10.4V49.713H5.781Z" fill="#06ccab"/>
      <path id="Trazado_632124" data-name="Trazado 632124" d="M8.093,45.088V33.527H5.781V49.713H10.4V47.4A2.312,2.312,0,0,1,8.093,45.088Z" fill="#00bd9d"/>
      <path id="Trazado_632125" data-name="Trazado 632125" d="M15.029,26.59h4.624V49.713H15.029Z" fill="#54addd"/>
      <path id="Trazado_632126" data-name="Trazado 632126" d="M17.342,45.088V26.59H15.029V49.713h4.624V47.4A2.312,2.312,0,0,1,17.342,45.088Z" fill="#7099cf"/>
      <path id="Trazado_632127" data-name="Trazado 632127" d="M54.337,20.81h4.624v3.468H54.337Z" fill="#966857"/>
      <path id="Trazado_632128" data-name="Trazado 632128" d="M54.337,20.81h2.312v3.468H54.337Z" fill="#8d5c4d"/>
      <path id="Trazado_632129" data-name="Trazado 632129" d="M65.9,10.4a9.222,9.222,0,0,1-5.492,8.44,2.139,2.139,0,0,0-1.445,1.965H54.337a2.139,2.139,0,0,0-1.445-1.965A9.249,9.249,0,1,1,65.9,10.4Z" fill="#ffd03e"/>
      <path id="Trazado_632130" data-name="Trazado 632130" d="M55.2,18.845a9.242,9.242,0,0,1,1.9-17.5c.243-.047.482-.071.721-.1a9.514,9.514,0,0,0-3.034.1,9.242,9.242,0,0,0-1.9,17.5,2.139,2.139,0,0,1,1.445,1.965h2.312A2.139,2.139,0,0,0,55.2,18.845Z" fill="#fbb040"/>
      <path id="Trazado_632131" data-name="Trazado 632131" d="M60.118,50.869H72.835a12.677,12.677,0,0,1-3.723,8.995Z" fill="#54addd"/>
      <path id="Trazado_632132" data-name="Trazado 632132" d="M72.835,50.869H60.118V38.152A12.71,12.71,0,0,1,72.835,50.869Z" fill="#ff636e"/>
      <path id="Trazado_632133" data-name="Trazado 632133" d="M60.118,50.869l8.995,8.995a12.725,12.725,0,0,1-15.769,1.769,62.275,62.275,0,0,0-1.318-6.139l-4.046-.809a12.967,12.967,0,0,1-.578-3.815A12.71,12.71,0,0,1,60.118,38.152Z" fill="#fbb040"/>
      <path id="Trazado_632134" data-name="Trazado 632134" d="M55.655,61.632a62.275,62.275,0,0,0-1.318-6.139l-4.046-.809a12.967,12.967,0,0,1-.578-3.815,12.705,12.705,0,0,1,10.408-12.5l0-.219A12.71,12.71,0,0,0,47.4,50.869a12.967,12.967,0,0,0,.578,3.815l4.046.809a62.272,62.272,0,0,1,1.318,6.139,12.68,12.68,0,0,0,6.775,1.954c.391,0,.775-.024,1.156-.058a12.684,12.684,0,0,1-5.619-1.9Z" fill="#f7941d"/>
      <path id="Trazado_632135" data-name="Trazado 632135" d="M37,50.869a9.259,9.259,0,0,1-9.249-9.249V35.839h2.312V41.62a6.937,6.937,0,1,0,13.873,0V35.839h2.312V41.62A9.259,9.259,0,0,1,37,50.869Z"/>
      <path id="Trazado_632136" data-name="Trazado 632136" d="M37,46.244a4.624,4.624,0,0,1-4.624-4.624,1.156,1.156,0,0,1,1.156-1.156h6.937A1.156,1.156,0,0,1,41.62,41.62,4.624,4.624,0,0,1,37,46.244Zm-2-3.468a2.312,2.312,0,0,0,4,0Z"/>
      <path id="Trazado_632137" data-name="Trazado 632137" d="M46.244,41.62H45.088V39.308h1.156A1.156,1.156,0,0,0,47.4,38.152V37H45.088c-6.966,0-10.455-1.04-12.19-2.16a4.723,4.723,0,0,1-4,2.16H26.59v1.156a1.156,1.156,0,0,0,1.156,1.156H28.9V41.62H27.747a3.468,3.468,0,0,1-3.468-3.468V35.839a1.156,1.156,0,0,1,1.156-1.156H28.9a2.178,2.178,0,0,0,2.312-2.312,1.156,1.156,0,0,1,2.305-.132c.095.2,1.435,2.444,11.568,2.444h3.468a1.156,1.156,0,0,1,1.156,1.156v2.312A3.468,3.468,0,0,1,46.244,41.62Z"/>
      <path id="Trazado_632138" data-name="Trazado 632138" d="M48.557,35.839H46.244V32.371a9.249,9.249,0,1,0-18.5,0v3.468H25.434V32.371a11.561,11.561,0,0,1,23.122,0Z"/>
      <path id="Trazado_632139" data-name="Trazado 632139" d="M54.337,73.991H19.654A1.156,1.156,0,0,1,18.5,72.835a71.266,71.266,0,0,1,2.357-17.658,1.156,1.156,0,0,1,.884-.816l10.632-2.126V48.557h2.312v4.624a1.156,1.156,0,0,1-.925,1.133L22.9,56.485a71.569,71.569,0,0,0-2.082,15.194H53.168a71.57,71.57,0,0,0-2.081-15.194L40.233,54.314a1.156,1.156,0,0,1-.925-1.133V48.557H41.62v3.678L52.256,54.36a1.156,1.156,0,0,1,.884.816,71.266,71.266,0,0,1,2.353,17.658,1.156,1.156,0,0,1-1.156,1.156Z"/>
      <path id="Trazado_632140" data-name="Trazado 632140" d="M37,57.805a1.156,1.156,0,0,1-.817-.339L32.71,54l1.635-1.635L37,55.015l2.651-2.651L41.281,54l-3.468,3.468A1.156,1.156,0,0,1,37,57.805Z"/>
      <path id="Trazado_632141" data-name="Trazado 632141" d="M39.308,60.118a1.156,1.156,0,0,1-.817-.339l-1.5-1.5L35.5,59.779a1.156,1.156,0,0,1-1.635,0L30.4,56.311a1.156,1.156,0,0,1-.339-.817V53.181h2.312v1.834l2.312,2.312,1.495-1.495a1.156,1.156,0,0,1,1.635,0l1.495,1.495,2.312-2.312V53.181h2.312v2.312a1.156,1.156,0,0,1-.339.817l-3.468,3.468A1.156,1.156,0,0,1,39.308,60.118Z"/>
      <path id="Trazado_632142" data-name="Trazado 632142" d="M37,70.523a1.168,1.168,0,0,1-.281-.035l-9.249-2.312a1.156,1.156,0,0,1-.681-1.763l1.586-2.378-1.141-.57a1.156,1.156,0,0,1-.639-1.035V54.337H28.9v7.378l1.673.836a1.156,1.156,0,0,1,.445,1.676l-1.4,2.1,4.417,1.1a33.318,33.318,0,0,1-3.968-11.792l2.294-.287c.012.088,1.167,8.915,5.451,13.2A1.156,1.156,0,0,1,37,70.523Z"/>
      <path id="Trazado_632143" data-name="Trazado 632143" d="M37,70.523a1.156,1.156,0,0,1-.817-1.973c4.286-4.285,5.442-13.111,5.451-13.2l2.294.287a33.318,33.318,0,0,1-3.968,11.792l4.417-1.1-1.4-2.1a1.156,1.156,0,0,1,.445-1.676l1.673-.83V54.337H47.4V62.43a1.156,1.156,0,0,1-.639,1.041l-1.141.57,1.586,2.378a1.156,1.156,0,0,1-.681,1.763l-9.249,2.312a1.176,1.176,0,0,1-.281.029Z"/>
      <path id="Trazado_632144" data-name="Trazado 632144" d="M35.839,56.649h2.312V72.835H35.839Z"/>
      <path id="Trazado_632145" data-name="Trazado 632145" d="M58.962,25.434H54.337a1.156,1.156,0,0,1-1.156-1.156V20.81c0-.156,0-.57-.756-.905a10.4,10.4,0,1,1,8.449,0c-.756.336-.756.749-.756.905v3.468A1.156,1.156,0,0,1,58.962,25.434Zm-3.468-2.312h2.312V20.81a3.276,3.276,0,0,1,2.13-3.019,8.093,8.093,0,1,0-6.57,0,3.276,3.276,0,0,1,2.128,3.019Z"/>
      <path id="Trazado_632146" data-name="Trazado 632146" d="M54.337,19.654h4.624v2.312H54.337Z"/>
      <path id="Trazado_632147" data-name="Trazado 632147" d="M57.805,20.81H55.493V11.561A1.156,1.156,0,0,1,56.649,10.4h2.312V8.093h2.312v3.468a1.156,1.156,0,0,1-1.156,1.156H57.805Z"/>
      <path id="Trazado_632148" data-name="Trazado 632148" d="M56.649,12.717H53.181a1.156,1.156,0,0,1-1.156-1.156V8.093h2.312V10.4h2.312Z"/>
      <path id="Trazado_632149" data-name="Trazado 632149" d="M68.21,9.249h4.624v2.312H68.21Z"/>
      <path id="Trazado_632150" data-name="Trazado 632150" d="M67.482,5.2h4.9V7.514h-4.9Z" transform="translate(15.99 51.321) rotate(-45)"/>
      <path id="Trazado_632151" data-name="Trazado 632151" d="M68.778,12H71.09v4.9H68.778Z" transform="translate(10.267 53.691) rotate(-45)"/>
      <path id="Trazado_632152" data-name="Trazado 632152" d="M40.464,9.249h4.624v2.312H40.464Z"/>
      <path id="Trazado_632153" data-name="Trazado 632153" d="M42.192,3.906H44.5v4.9H42.192Z" transform="translate(8.201 32.518) rotate(-45)"/>
      <path id="Trazado_632154" data-name="Trazado 632154" d="M40.9,13.293h4.9v2.312H40.9Z" transform="translate(2.48 34.889) rotate(-45)"/>
      <path id="Trazado_632155" data-name="Trazado 632155" d="M28.9,50.869H1.156A1.156,1.156,0,0,1,0,49.713V25.434H2.312V48.557H28.9Z"/>
      <path id="Trazado_632156" data-name="Trazado 632156" d="M10.4,50.869H5.781a1.156,1.156,0,0,1-1.156-1.156V33.527a1.156,1.156,0,0,1,1.156-1.156H10.4a1.156,1.156,0,0,1,1.156,1.156V49.713A1.156,1.156,0,0,1,10.4,50.869ZM6.937,48.557H9.249V34.683H6.937Z"/>
      <path id="Trazado_632157" data-name="Trazado 632157" d="M19.654,50.869H15.029a1.156,1.156,0,0,1-1.156-1.156V26.59a1.156,1.156,0,0,1,1.156-1.156h4.624A1.156,1.156,0,0,1,20.81,26.59V49.713A1.156,1.156,0,0,1,19.654,50.869Zm-3.468-2.312H18.5V27.747H16.186Z"/>
      <path id="Trazado_632158" data-name="Trazado 632158" d="M24.617,25.1,17.342,17.82l-4.963,4.963a1.156,1.156,0,0,1-1.635,0L2.312,14.352V18.5H0V11.561a1.156,1.156,0,0,1,1.973-.817l9.588,9.588,4.963-4.963a1.156,1.156,0,0,1,1.635,0l8.093,8.093Z"/>
      <path id="Trazado_632159" data-name="Trazado 632159" d="M1.156,10.4H8.093v2.312H1.156Z"/>
      <path id="Trazado_632160" data-name="Trazado 632160" d="M0,20.81H2.312v2.312H0Z"/>
      <path id="Trazado_632161" data-name="Trazado 632161" d="M60.118,64.742a13.858,13.858,0,0,1-7.391-2.132l1.232-1.957a11.561,11.561,0,1,0-5.4-9.784,11.8,11.8,0,0,0,.527,3.475l-2.21.68a14.131,14.131,0,0,1-.629-4.155A13.873,13.873,0,1,1,60.118,64.742Z"/>
      <path id="Trazado_632162" data-name="Trazado 632162" d="M68.549,60.935,59.3,51.686a1.156,1.156,0,0,1-.339-.817V38.152h2.312V50.39l8.91,8.91Z"/>
      <path id="Trazado_632163" data-name="Trazado 632163" d="M60.118,49.713H72.835v2.312H60.118Z"/>
      <path id="Trazado_632164" data-name="Trazado 632164" d="M9.249,57.805h2.312v6.937H9.249Z"/>
      <path id="Trazado_632165" data-name="Trazado 632165" d="M6.937,60.118h6.937V62.43H6.937Z"/>
      <path id="Trazado_632166" data-name="Trazado 632166" d="M64.742,26.59h2.312v6.937H64.742Z"/>
      <path id="Trazado_632167" data-name="Trazado 632167" d="M62.43,28.9h6.937v2.312H62.43Z"/>
      <path id="Trazado_632168" data-name="Trazado 632168" d="M25.434,5.781h2.312v6.937H25.434Z"/>
      <path id="Trazado_632169" data-name="Trazado 632169" d="M23.122,8.093h6.937V10.4H23.122Z"/>
    </g>
  </g>
</svg>
