<svg xmlns="http://www.w3.org/2000/svg" xmlns:xlink="http://www.w3.org/1999/xlink" width="110" height="110" viewBox="0 0 110 110">
  <defs>
    <clipPath id="clip-path">
      <rect id="Rectángulo_307020" data-name="Rectángulo 307020" width="84" height="84" transform="translate(758 2443)" fill="#fff"/>
    </clipPath>
  </defs>
  <g id="Grupo_980565" data-name="Grupo 980565" transform="translate(-745 -2431)">
    <circle id="Elipse_7747" data-name="Elipse 7747" cx="55" cy="55" r="55" transform="translate(745 2431)" fill="#f0bd51"/>
    <g id="Enmascarar_grupo_878440" data-name="Enmascarar grupo 878440" clip-path="url(#clip-path)">
      <g id="apoyar" transform="translate(758 2443)">
        <g id="Grupo_962115" data-name="Grupo 962115">
          <path id="Trazado_632066" data-name="Trazado 632066" d="M63.366,81.077,81.075,63.39a3.867,3.867,0,0,0,0-5.456l-2.92-2.912a3.873,3.873,0,0,0-5.458,0l-.079.074L55.062,72.63l-.074.079a3.862,3.862,0,0,0,0,5.452l2.92,2.916a3.845,3.845,0,0,0,1,.72h3.459a3.921,3.921,0,0,0,1-.72Z" fill="#dad0d3" fill-rule="evenodd"/>
          <path id="Trazado_632067" data-name="Trazado 632067" d="M55.062,72.63,72.618,55.1l-7.681-7.671c-11.5-6.515-20.815,8.419-18.253,16.838Z" fill="#ffdcd5" fill-rule="evenodd"/>
          <path id="Trazado_632068" data-name="Trazado 632068" d="M21.341,81.8H24.8a3.921,3.921,0,0,0,1-.72l2.92-2.916a3.862,3.862,0,0,0,0-5.452l-.079-.079L11.085,55.1l-.074-.074a3.878,3.878,0,0,0-5.463,0L2.633,57.933a3.867,3.867,0,0,0,0,5.456l17.7,17.688A3.947,3.947,0,0,0,21.341,81.8Z" fill="#9d9ae8" fill-rule="evenodd"/>
          <path id="Trazado_632069" data-name="Trazado 632069" d="M49.53,62.809,60.372,51.985l4.566-4.56,1.437-1.435a4.077,4.077,0,1,0-5.77-5.763l1.446-1.449a4.077,4.077,0,1,0-5.77-5.763l1.446-1.449a4.077,4.077,0,1,0-5.77-5.763l1.451-1.444a4.072,4.072,0,0,0-3.543-6.9,4.044,4.044,0,0,0-2.232,1.133l-5.779,5.777.186.186.032.033A4.077,4.077,0,0,1,36.3,30.35a4.081,4.081,0,0,1-5.774,5.767,4.077,4.077,0,0,1-5.77,5.763,4.077,4.077,0,0,1-5.77,5.763l-.219-.218L11.085,55.1,28.64,72.63,35.977,65.3c2.078-2.15,6.946-.269,10.707-1.04a5.44,5.44,0,0,0,2.846-1.453Z" fill="#ffd0c7" fill-rule="evenodd"/>
          <path id="Trazado_632070" data-name="Trazado 632070" d="M36.3,30.35a4.077,4.077,0,1,0,5.77-5.763l-.032-.033c-2.45-.176-7.137-4.425-7.415-7.407a4.079,4.079,0,0,0-5.774,5.763L30.3,24.36Z" fill="#ffdcd5" fill-rule="evenodd"/>
          <path id="Trazado_632071" data-name="Trazado 632071" d="M30.528,36.117A4.081,4.081,0,0,0,36.3,30.35l-6-5.99a4.077,4.077,0,0,0-5.77,5.763l1.446,1.444Z" fill="#ffdcd5" fill-rule="evenodd"/>
          <path id="Trazado_632072" data-name="Trazado 632072" d="M24.758,41.88a4.077,4.077,0,0,0,5.77-5.763l-4.552-4.551a4.079,4.079,0,0,0-5.77,5.767l2.9,2.893Z" fill="#ffdcd5" fill-rule="evenodd"/>
          <path id="Trazado_632073" data-name="Trazado 632073" d="M18.989,47.643a4.077,4.077,0,1,0,5.77-5.763L23.1,40.227a4.079,4.079,0,0,0-5.774,5.763l1.441,1.435Z" fill="#ffdcd5" fill-rule="evenodd"/>
          <path id="Trazado_632074" data-name="Trazado 632074" d="M41.854,24.369l5.779-5.777a4.044,4.044,0,0,1,2.232-1.133L38.7,15.346c-2.2-.418-4.291-.432-4.077,1.8.279,2.981,4.965,7.23,7.415,7.407Z" fill="#ffdcd5" fill-rule="evenodd"/>
        </g>
        <path id="Trazado_632075" data-name="Trazado 632075" d="M41.854,10.674a1.652,1.652,0,0,0,1.652-1.652V1.652a1.652,1.652,0,1,0-3.3,0V9.022a1.653,1.653,0,0,0,1.652,1.652Z"/>
        <path id="Trazado_632076" data-name="Trazado 632076" d="M82.242,56.763l-2.919-2.911a5.533,5.533,0,0,0-6.547-.934l-5.5-5.494.268-.268a5.735,5.735,0,0,0,0-8.1A5.672,5.672,0,0,0,64.667,37.5a5.771,5.771,0,0,0,.228-1.607,5.722,5.722,0,0,0-4.552-5.6,5.77,5.77,0,0,0,.228-1.607,5.716,5.716,0,0,0-4.551-5.6,5.718,5.718,0,0,0-6.111-7.3l-10.9-2.063c-1.662-.315-3.738-.524-5.048.671a3.01,3.01,0,0,0-.25.259,5.746,5.746,0,0,0-6.028,1.326,5.685,5.685,0,0,0-1.674,4.051,5.777,5.777,0,0,0,.227,1.608,5.723,5.723,0,0,0-4.55,5.6,5.76,5.76,0,0,0,.228,1.612,5.729,5.729,0,0,0-3.551,8.841,5.726,5.726,0,0,0-2.2,9.472l.267.266-5.5,5.491A5.524,5.524,0,0,0,4.678,54L1.758,56.913a5.52,5.52,0,0,0,0,7.794L5.4,68.348A1.652,1.652,0,0,0,7.738,66.01L4.093,62.369a2.215,2.215,0,0,1,0-3.118l2.921-2.913a2.212,2.212,0,0,1,2.695-.33,1.658,1.658,0,0,0,.208.254,1.64,1.64,0,0,0,.475.33L27.14,73.319a1.628,1.628,0,0,0,.8.8,2.211,2.211,0,0,1-.092,3.017l-2.918,2.914a2.219,2.219,0,0,1-3.124,0l-3.645-3.645a1.652,1.652,0,0,0-2.337,2.336L19.469,82.4a5.532,5.532,0,0,0,7.792,0l2.92-2.916a5.524,5.524,0,0,0,.773-6.824l6.191-6.184.02-.02c.709-.733,2.683-.6,4.592-.463a23.779,23.779,0,0,0,4.346.029l6.78,6.772a5.522,5.522,0,0,0,.937,6.541l2.92,2.916a5.525,5.525,0,0,0,7.793,0L82.242,64.559a5.52,5.52,0,0,0,0-7.8ZM38.394,16.97l7.167,1.357-4.29,4.288A10.416,10.416,0,0,1,38.7,20.747a7.6,7.6,0,0,1-2.432-3.756h0a1.444,1.444,0,0,1-.007-.163,5.6,5.6,0,0,1,2.133.144Zm-8.377,1.347a2.437,2.437,0,0,1,3.083-.292,11.818,11.818,0,0,0,3.316,5.109,12.236,12.236,0,0,0,4.76,2.949,2.425,2.425,0,0,1-3.707,3.1h0l-7.451-7.438a2.433,2.433,0,0,1,0-3.425ZM25.7,25.527a2.437,2.437,0,0,1,3.433,0l6,5.988A2.428,2.428,0,0,1,31.7,34.949h0L27.144,30.4l-.022-.021L25.7,28.953a2.425,2.425,0,0,1,0-3.426Zm-4.326,7.209a2.445,2.445,0,0,1,3.422-.011l4.566,4.564a2.425,2.425,0,0,1-3.436,3.423l-1.655-1.653h0l-2.9-2.892a2.431,2.431,0,0,1,0-3.429ZM18.5,41.4a2.442,2.442,0,0,1,3.438,0l1.658,1.656a2.425,2.425,0,0,1-3.438,3.422l-.208-.207-.008-.008-.01-.009L18.5,44.823a2.426,2.426,0,0,1,0-3.427ZM52.168,60.174a1.652,1.652,0,0,0-2.337,0l-1.47,1.468c-1.4,1.4-3.928,1.221-6.376,1.051-2.658-.185-5.407-.375-7.185,1.451l-6.086,6.079L13.5,55.024l5.386-5.376A5.73,5.73,0,0,0,27.6,44.762c0-.014,0-.028,0-.043h.043A5.715,5.715,0,0,0,33.373,39c0-.014,0-.028,0-.043h.043a5.709,5.709,0,0,0,5.728-5.765h.044a5.732,5.732,0,0,0,4.891-8.712L48.8,19.763a2.424,2.424,0,0,1,1.24-.661c.049-.005.1-.013.146-.023a2.421,2.421,0,0,1,2.057,4.109L50.8,24.621l-.015.014-1.656,1.653a1.652,1.652,0,1,0,2.335,2.338l1.443-1.441h0l.218-.217a2.434,2.434,0,0,1,3.429.008,2.425,2.425,0,0,1,0,3.425l-1.446,1.449h0L53.455,33.5a1.652,1.652,0,0,0,2.332,2.341l1.663-1.657a2.425,2.425,0,0,1,3.432,3.427L58,40.493a1.652,1.652,0,1,0,2.337,2.336l1.413-1.413.025-.022a2.425,2.425,0,0,1,3.433,3.426L63.77,46.255h0v0l-2.28,2.277a1.652,1.652,0,0,0,2.335,2.338l1.115-1.114L70.282,55.1,55.064,70.3l-5.452-5.446a6.5,6.5,0,0,0,1.085-.873l1.469-1.467a1.652,1.652,0,0,0,0-2.336ZM79.907,62.22,62.2,79.908a2.221,2.221,0,0,1-3.123,0l-2.92-2.916a2.209,2.209,0,0,1,0-3.114L73.865,56.19a2.22,2.22,0,0,1,3.124,0L79.907,59.1a2.215,2.215,0,0,1,0,3.118Z"/>
        <path id="Trazado_632077" data-name="Trazado 632077" d="M19.914,9.281a1.652,1.652,0,0,0,2.334-2.339L16.227.933a1.652,1.652,0,0,0-2.334,2.339Z"/>
        <path id="Trazado_632078" data-name="Trazado 632078" d="M62.627,9.764a1.648,1.648,0,0,0,1.168-.483L69.81,3.272A1.652,1.652,0,0,0,67.475.934L61.459,6.943a1.652,1.652,0,0,0,1.168,2.821Z"/>
        <path id="Trazado_632079" data-name="Trazado 632079" d="M10.306,71.073a1.652,1.652,0,0,0,.02,2.337l0,0a1.652,1.652,0,1,0-.025-2.341Z"/>
        <path id="Trazado_632080" data-name="Trazado 632080" d="M56.209,57.794a1.653,1.653,0,1,0-.742-3.128l-.009,0a1.651,1.651,0,0,0,.752,3.124Z"/>
      </g>
    </g>
  </g>
</svg>
