<svg xmlns="http://www.w3.org/2000/svg" xmlns:xlink="http://www.w3.org/1999/xlink" width="57" height="57" viewBox="0 0 57 57">
  <defs>
    <clipPath id="clip-path">
      <rect id="Rectángulo_307083" data-name="Rectángulo 307083" width="57" height="57" transform="translate(194 9429)" fill="#583cb6" stroke="#707070" stroke-width="1"/>
    </clipPath>
  </defs>
  <g id="Enmascarar_grupo_878448" data-name="Enmascarar grupo 878448" transform="translate(-194 -9429)" clip-path="url(#clip-path)">
    <g id="Page-1" transform="translate(194 9429.044)">
      <g id="_043---Spreadsheets" data-name="043---Spreadsheets">
        <g id="Icons_copy" transform="translate(0.95 0.95)">
          <path id="Shape" d="M40.85,53.2a1.906,1.906,0,0,1-1.9,1.9H16.15a1.9,1.9,0,1,1,0-3.8h22.8A1.914,1.914,0,0,1,40.85,53.2Z" fill="#9e9e9e"/>
          <path id="Shape-2" data-name="Shape" d="M40.29,51.861a1.857,1.857,0,0,0-1.34-.561H36.1a1.9,1.9,0,0,1,0,3.8h2.85a1.906,1.906,0,0,0,1.9-1.9,1.857,1.857,0,0,0-.56-1.34Z" fill="#707070"/>
          <path id="Shape-3" data-name="Shape" d="M55.1,8.55v32.3H0V8.55a1.906,1.906,0,0,1,1.9-1.9H53.2A1.906,1.906,0,0,1,55.1,8.55Z" fill="#00bcd4"/>
          <path id="Shape-4" data-name="Shape" d="M53.2,6.65H50.35a1.906,1.906,0,0,1,1.9,1.9v32.3H55.1V8.55A1.906,1.906,0,0,0,53.2,6.65Z" fill="#00838f"/>
          <path id="Shape-5" data-name="Shape" d="M55.1,40.85V43.7a1.906,1.906,0,0,1-1.9,1.9H1.9A1.906,1.906,0,0,1,0,43.7V40.85Z" fill="#9e9e9e"/>
          <path id="Shape-6" data-name="Shape" d="M52.25,40.85V43.7a1.906,1.906,0,0,1-1.9,1.9H53.2a1.906,1.906,0,0,0,1.9-1.9V40.85Z" fill="#707070"/>
          <path id="Shape-7" data-name="Shape" d="M38,51.3H17.1c2.85-1.9,2.85-5.7,2.85-5.7h15.2S35.15,49.4,38,51.3Z" fill="#707070"/>
          <path id="Shape-8" data-name="Shape" d="M43.833,10.288V35.15a1.906,1.906,0,0,1-1.9,1.9h-28.5a1.9,1.9,0,0,1-1.9-1.9V1.9a1.9,1.9,0,0,1,1.9-1.9H33.544a1.758,1.758,0,0,1,.665.123L34.2.171V7.6a1.906,1.906,0,0,0,1.9,1.9h7.429l.095-.057A1.742,1.742,0,0,1,43.833,10.288Z" fill="#f5f5f5"/>
          <g id="Grupo_963570" data-name="Grupo 963570">
            <path id="Shape-9" data-name="Shape" d="M31.35.171V7.6a1.906,1.906,0,0,0,1.9,1.9H36.1a1.906,1.906,0,0,1-1.9-1.9V.171l.009-.047A1.758,1.758,0,0,0,33.544,0h-2.85a1.76,1.76,0,0,1,.665.124Z" fill="#cfd8dc"/>
            <path id="Shape-10" data-name="Shape" d="M43.624,9.443l-.095.057H40.8a1.757,1.757,0,0,1,.19.788V35.15a1.906,1.906,0,0,1-1.9,1.9h2.85a1.906,1.906,0,0,0,1.9-1.9V10.288a1.742,1.742,0,0,0-.212-.845Z" fill="#cfd8dc"/>
            <path id="Shape-11" data-name="Shape" d="M43.624,9.443l-.095.057H36.1a1.906,1.906,0,0,1-1.9-1.9V.171l.009-.047a1.836,1.836,0,0,1,.674.437l8.388,8.379a1.662,1.662,0,0,1,.351.5Z" fill="#cfd8dc"/>
            <path id="Shape-12" data-name="Shape" d="M26.6,26.6H16.15a.95.95,0,0,1-.95-.95V4.75a.95.95,0,0,1,.95-.95H34.2l1.9,5.7V20.6Z" fill="#cfd8dc"/>
          </g>
          <path id="Shape-13" data-name="Shape" d="M39.9,26.6a6.65,6.65,0,0,1-11.352,4.7l4.7-4.7Z" fill="#e91e63"/>
          <path id="Shape-14" data-name="Shape" d="M37.05,26.6a6.65,6.65,0,0,1-5.225,6.494A6.65,6.65,0,0,0,39.9,26.6Z" fill="#ad1457"/>
          <path id="Shape-15" data-name="Shape" d="M33.25,19.95V26.6l-4.7,4.7a6.65,6.65,0,0,1,4.7-11.352Z" fill="#60a917"/>
          <path id="Shape-16" data-name="Shape" d="M39.9,26.6H33.25V19.95A6.65,6.65,0,0,1,39.9,26.6Z" fill="#00bcd4"/>
          <path id="Shape-17" data-name="Shape" d="M33.25,19.95V20.6a6.64,6.64,0,0,1,3.8,6H39.9A6.65,6.65,0,0,0,33.25,19.95Z" fill="#0377bc"/>
        </g>
        <g id="Icons">
          <path id="Shape-18" data-name="Shape" d="M54.15,6.65H42.193L36.378.835a2.85,2.85,0,0,0-.819-.563C35.54.262,35.523.25,35.5.242A2.835,2.835,0,0,0,34.362,0H14.25A2.85,2.85,0,0,0,11.4,2.85v3.8H2.85A2.85,2.85,0,0,0,0,9.5V44.65A2.85,2.85,0,0,0,2.85,47.5H19.937a6.123,6.123,0,0,1-2.172,3.888H17.1a2.762,2.762,0,0,0,0,5.523H39.9a2.762,2.762,0,1,0,0-5.523h-.665A6.123,6.123,0,0,1,37.063,47.5H54.15A2.85,2.85,0,0,0,57,44.65V9.5a2.85,2.85,0,0,0-2.85-2.85ZM42.357,9.5H37.05a.95.95,0,0,1-.95-.95V3.243ZM24.7,26.6V22.8h3.577a7.564,7.564,0,0,0-1.615,3.8Zm-7.6,0V22.8h5.7v3.8ZM34.2,5.7V8.55a2.818,2.818,0,0,0,.175.95H24.7V5.7Zm1.9,9.5H24.7V11.4H36.1Zm-19,1.9h5.7v3.8H17.1Zm0-1.9V11.4h5.7v3.8Zm5.7-5.7H17.1V5.7h5.7ZM33.25,21.935V27.16l-3.691,3.691a5.685,5.685,0,0,1,3.691-8.916ZM34.593,28.5h5.225a5.685,5.685,0,0,1-8.912,3.691Zm.557-1.9V21.935A5.708,5.708,0,0,1,39.814,26.6Zm-.95-6.65a7.542,7.542,0,0,0-3.671.95H24.7V17.1H36.1v3.1A7.555,7.555,0,0,0,34.2,19.95ZM13.3,2.85a.95.95,0,0,1,.95-.95H34.2V3.8H17.1a1.9,1.9,0,0,0-1.9,1.9V26.6a1.9,1.9,0,0,0,1.9,1.9h9.566A7.6,7.6,0,1,0,38,20.978V11.4h5.7V36.1a.95.95,0,0,1-.95.95H14.25a.95.95,0,0,1-.95-.95Zm27.637,51.3A1.038,1.038,0,0,1,39.9,55.188H17.1a1.038,1.038,0,1,1,0-2.077H39.9A1.038,1.038,0,0,1,40.937,54.15Zm-4.1-2.762H20.163A8.678,8.678,0,0,0,21.679,47.5H35.321A8.678,8.678,0,0,0,36.837,51.388ZM54.15,45.6H2.85a.95.95,0,0,1-.95-.95v-1.9H5.7a.95.95,0,0,0,0-1.9H1.9V9.5a.95.95,0,0,1,.95-.95H11.4V36.1a2.85,2.85,0,0,0,2.85,2.85h28.5A2.85,2.85,0,0,0,45.6,36.1V11.237a2.828,2.828,0,0,0-.243-1.14c-.007-.018-.018-.032-.026-.049a2.85,2.85,0,0,0-.57-.824l-.668-.674H54.15a.95.95,0,0,1,.95.95V40.85H9.5a.95.95,0,0,0,0,1.9H55.1v1.9A.95.95,0,0,1,54.15,45.6Z"/>
        </g>
      </g>
    </g>
  </g>
</svg>
