<svg xmlns="http://www.w3.org/2000/svg" xmlns:xlink="http://www.w3.org/1999/xlink" width="57" height="57" viewBox="0 0 57 57">
  <defs>
    <clipPath id="clip-path">
      <rect id="Rectángulo_307076" data-name="Rectángulo 307076" width="57" height="57" transform="translate(194 9224)" fill="#583cb6" stroke="#707070" stroke-width="1"/>
    </clipPath>
  </defs>
  <g id="Enmascarar_grupo_878445" data-name="Enmascarar grupo 878445" transform="translate(-194 -9224)" clip-path="url(#clip-path)">
    <g id="sistema-de-procesamiento" transform="translate(193.081 9223.081)">
      <g id="Grupo_963533" data-name="Grupo 963533">
        <g id="Grupo_963520" data-name="Grupo 963520">
          <path id="Trazado_632858" data-name="Trazado 632858" d="M16.052,51.484h2.335V57H1.839V55.161a3.676,3.676,0,0,1,3.677-3.677H16.052Z" fill="#969faa"/>
        </g>
        <g id="Grupo_963521" data-name="Grupo 963521">
          <path id="Trazado_632859" data-name="Trazado 632859" d="M18.387,6.435H40.452V57H18.387Z" fill="#ffeaa7"/>
        </g>
        <g id="Grupo_963522" data-name="Grupo 963522">
          <path id="Trazado_632860" data-name="Trazado 632860" d="M57,29.419v1.839H40.452V25.742H53.323A3.676,3.676,0,0,1,57,29.419Z" fill="#969faa"/>
        </g>
        <g id="Grupo_963523" data-name="Grupo 963523">
          <path id="Trazado_632861" data-name="Trazado 632861" d="M53.736,11.759,48.652,25.742H42.787l5.682-15.629h.257a4.62,4.62,0,0,0,5.01,1.646Z" fill="#ccd1d9"/>
        </g>
        <g id="Grupo_963524" data-name="Grupo 963524">
          <path id="Trazado_632862" data-name="Trazado 632862" d="M47.806,7.355a4.562,4.562,0,0,0,.754,2.519l-.092.239H39.716a5.539,5.539,0,0,0,0-5.516h9.01A4.543,4.543,0,0,0,47.806,7.355Z" fill="#ccd1d9"/>
        </g>
        <g id="Grupo_963525" data-name="Grupo 963525">
          <path id="Trazado_632863" data-name="Trazado 632863" d="M18.387,35.855H10.37l-.092-.239a4.591,4.591,0,0,0-.165-5.277h9.01a5.539,5.539,0,0,0,0,5.516Z" fill="#ccd1d9"/>
        </g>
        <g id="Grupo_963526" data-name="Grupo 963526">
          <path id="Trazado_632864" data-name="Trazado 632864" d="M10.37,35.855l5.682,15.629H10.186L5.1,37.5a4.62,4.62,0,0,0,5.01-1.646Z" fill="#ccd1d9"/>
        </g>
        <g id="Grupo_963527" data-name="Grupo 963527">
          <path id="Trazado_632865" data-name="Trazado 632865" d="M10.113,30.339a4.591,4.591,0,0,1,.165,5.277,1.388,1.388,0,0,1-.165.239,4.6,4.6,0,1,1,0-5.516Z" fill="#ff826e"/>
        </g>
        <g id="Grupo_963528" data-name="Grupo 963528">
          <path id="Trazado_632866" data-name="Trazado 632866" d="M53.736,11.759a4.62,4.62,0,0,1-5.01-1.646,1.388,1.388,0,0,1-.165-.239,4.594,4.594,0,1,1,5.176,1.885Z" fill="#ff826e"/>
        </g>
        <g id="Grupo_963529" data-name="Grupo 963529">
          <path id="Trazado_632867" data-name="Trazado 632867" d="M33.1,30.339H25.742A1.844,1.844,0,0,0,23.9,32.177v7.355a1.844,1.844,0,0,0,1.839,1.839H33.1a1.844,1.844,0,0,0,1.839-1.839V32.177A1.844,1.844,0,0,0,33.1,30.339Z" fill="#d3a06c"/>
        </g>
        <g id="Grupo_963530" data-name="Grupo 963530">
          <path id="Trazado_632868" data-name="Trazado 632868" d="M33.1,4.6H25.742A1.844,1.844,0,0,0,23.9,6.435V13.79a1.844,1.844,0,0,0,1.839,1.839H33.1a1.844,1.844,0,0,0,1.839-1.839V6.435A1.844,1.844,0,0,0,33.1,4.6Z" fill="#d3a06c"/>
        </g>
        <g id="Grupo_963531" data-name="Grupo 963531">
          <path id="Trazado_632869" data-name="Trazado 632869" d="M27.581,4.6h3.677V8.274H27.581Z" fill="#b27946"/>
        </g>
        <g id="Grupo_963532" data-name="Grupo 963532">
          <path id="Trazado_632870" data-name="Trazado 632870" d="M27.581,30.339h3.677v3.677H27.581Z" fill="#b27946"/>
        </g>
      </g>
      <path id="Trazado_632871" data-name="Trazado 632871" d="M53.323,24.823H49.965l4.491-12.352A5.513,5.513,0,1,0,48.3,3.677H40.209A6.427,6.427,0,0,0,34.935.919h-.306L30.952,3.677h-5.21a2.754,2.754,0,0,0-2.589,1.839H17.468v23.9H10.536a5.511,5.511,0,1,0-6.153,8.794L8.874,50.565H5.516a4.6,4.6,0,0,0-4.6,4.6v2.758H41.371V32.177H57.919V29.419A4.6,4.6,0,0,0,53.323,24.823Zm-9.228,0,4.8-13.211a5.485,5.485,0,0,0,3.456,1.257L48.008,24.823ZM16.7,50.565l-5.015-13.79h5.783v13.79Zm8.122-11.492,3.31-2.482-1.1-1.471-2.206,1.655v-4.6a.921.921,0,0,1,.919-.919h.919v3.677h5.516V31.258H33.1a.921.921,0,0,1,.919.919v7.355a.921.921,0,0,1-.919.919H25.742a.921.921,0,0,1-.919-.919ZM30.339,33.1H28.5V31.258h1.839Zm-7.355-.919v5.406a4.587,4.587,0,0,1,.625-9.074l1.373,1.03A2.754,2.754,0,0,0,22.984,32.177Zm-3.677,5.415a6.424,6.424,0,0,0,3.677,1.867v.073a2.761,2.761,0,0,0,2.758,2.758H33.1a2.761,2.761,0,0,0,2.758-2.758V33.1h3.677V44.129H19.306Zm16.379-6.334A2.754,2.754,0,0,0,33.1,29.419h-5.21l-3.677-2.758H23.9a6.414,6.414,0,0,0-4.6,1.94V20.226H39.532V31.258Zm5.685-20.226h5.782l-5.015,13.79h-.767ZM52.4,3.677a3.677,3.677,0,1,1-3.677,3.677A3.681,3.681,0,0,1,52.4,3.677ZM47.209,5.516a5.414,5.414,0,0,0,0,3.677H41.1a6.369,6.369,0,0,0,0-3.677ZM35.23,2.767a4.587,4.587,0,0,1,.625,9.074V6.435a2.754,2.754,0,0,0-2-2.639ZM28.5,5.516h1.839V7.355H28.5Zm-3.677.919a.921.921,0,0,1,.919-.919h.919V9.194h5.516V5.516H33.1a.921.921,0,0,1,.919.919v4.6L31.81,9.377l-1.1,1.471,3.31,2.482v.46a.921.921,0,0,1-.919.919H25.742a.921.921,0,0,1-.919-.919Zm-1.839.919V13.79a2.761,2.761,0,0,0,2.758,2.758H33.1a2.761,2.761,0,0,0,2.758-2.758v-.074a6.413,6.413,0,0,0,3.677-1.867v6.538H19.306V7.355Zm-5.245,23.9a6.369,6.369,0,0,0,0,3.677H11.63a5.414,5.414,0,0,0,0-3.677ZM2.758,33.1a3.677,3.677,0,1,1,3.677,3.677A3.681,3.681,0,0,1,2.758,33.1ZM6.484,38.61A5.487,5.487,0,0,0,9.94,37.353l4.8,13.211H10.831ZM2.758,56.081v-.919A2.761,2.761,0,0,1,5.516,52.4H17.468v3.677Zm16.548,0V45.968H39.532V56.081ZM56.081,30.339H41.371V26.661H53.323a2.761,2.761,0,0,1,2.758,2.758Z"/>
    </g>
  </g>
</svg>
