<svg xmlns="http://www.w3.org/2000/svg" width="610" height="422.58" viewBox="0 0 610 422.58">
  <g id="Grupo_980574" data-name="Grupo 980574" transform="translate(-810 -6472.683)">
    <rect id="Rect치ngulo_307041" data-name="Rect치ngulo 307041" width="610" height="235" transform="translate(810 6660)" fill="#fff9ec"/>
    <g id="Grupo_963375" data-name="Grupo 963375" transform="translate(883.602 6450.626)">
      <g id="Background_Complete" data-name="Background Complete" transform="translate(34.916 35.476)">
        <g id="Grupo_963153" data-name="Grupo 963153" transform="translate(0 0)">
          <g id="Grupo_963092" data-name="Grupo 963092" transform="translate(299.485 85.337)">
            <g id="Grupo_963083" data-name="Grupo 963083" transform="translate(0.248 0.206)">
              <g id="Grupo_963082" data-name="Grupo 963082">
                <g id="Grupo_963081" data-name="Grupo 963081">
                  <path id="Trazado_632363" data-name="Trazado 632363" d="M380.065,138.9a27.378,27.378,0,0,1,6.682-2.9l1.377-6.615,11.177-.2,1.608,6.562a27.407,27.407,0,0,1,6.781,2.668l5.649-3.7,8.041,7.764-3.5,5.774a27.375,27.375,0,0,1,2.9,6.685l6.615,1.376.2,11.177-6.561,1.608a27.406,27.406,0,0,1-2.668,6.781l3.7,5.649-7.763,8.042-5.775-3.5a27.34,27.34,0,0,1-6.684,2.9l-1.376,6.615-11.177.2-1.608-6.563a27.407,27.407,0,0,1-6.781-2.668l-5.649,3.7-8.041-7.764,3.5-5.774a27.378,27.378,0,0,1-2.905-6.684l-6.614-1.376-.2-11.177,6.562-1.609a27.436,27.436,0,0,1,2.668-6.78l-3.7-5.649,7.763-8.042,5.776,3.5Zm5.957,14.889a11.991,11.991,0,1,0,16.956-.3A11.991,11.991,0,0,0,386.023,153.791Z" transform="translate(-360.997 -129.186)" fill="#ffdf9c"/>
                </g>
              </g>
            </g>
            <g id="Grupo_963087" data-name="Grupo 963087" transform="translate(21.697 20.932)">
              <g id="Grupo_963086" data-name="Grupo 963086">
                <g id="Grupo_963085" data-name="Grupo 963085">
                  <g id="Grupo_963084" data-name="Grupo 963084">
                    <path id="Trazado_632364" data-name="Trazado 632364" d="M387.793,155.5a9.072,9.072,0,0,1,2.233-1.96,11.942,11.942,0,0,1,7.823-1.849,12.092,12.092,0,0,1,5.317,1.889,12.281,12.281,0,0,1,4.3,4.845,12.279,12.279,0,0,1,1.157,7.057A12.234,12.234,0,0,1,398.5,175.969a12.295,12.295,0,0,1-7.1-.909,12.287,12.287,0,0,1-4.993-4.127,12.085,12.085,0,0,1-2.074-5.248,11.941,11.941,0,0,1,1.573-7.883,9.076,9.076,0,0,1,1.88-2.3c.065.055-.723.787-1.647,2.433a11.948,11.948,0,0,0-1.326,7.676,11.714,11.714,0,0,0,6.845,8.869,11.7,11.7,0,0,0,6.723.825,11.618,11.618,0,0,0,9.568-9.912,11.73,11.73,0,0,0-1.06-6.689,11.716,11.716,0,0,0-9.1-6.529,11.944,11.944,0,0,0-7.626,1.594C388.554,154.751,387.85,155.565,387.793,155.5Z" transform="translate(-384.217 -151.623)" fill="#ffdf9c"/>
                  </g>
                </g>
              </g>
            </g>
            <g id="Grupo_963091" data-name="Grupo 963091" transform="translate(0 0)">
              <g id="Grupo_963090" data-name="Grupo 963090">
                <g id="Grupo_963089" data-name="Grupo 963089">
                  <g id="Grupo_963088" data-name="Grupo 963088">
                    <path id="Trazado_632365" data-name="Trazado 632365" d="M380.044,138.885a2.682,2.682,0,0,1-.372-.2l-1.108-.64-4.353-2.571.136-.018-7.717,8.087.021-.216c1.128,1.707,2.382,3.6,3.725,5.633l.066.1-.059.108a27.35,27.35,0,0,0-2.624,6.736l-.032.132-.133.033-6.558,1.628.186-.242c.07,3.519.145,7.253.223,11.175l-.215-.26,6.617,1.363.168.035.047.165a27.218,27.218,0,0,0,2.885,6.609l.093.153-.093.154c-1.083,1.791-2.276,3.767-3.493,5.779l-.049-.379,8.051,7.754-.4-.037c1.759-1.156,3.69-2.423,5.645-3.709l.165-.108.173.1a27.217,27.217,0,0,0,6.7,2.631l.195.047.048.2c.505,2.055,1.057,4.3,1.613,6.562l-.333-.257,11.177-.2-.329.273c.434-2.09.9-4.344,1.375-6.615l.042-.2.2-.056a27.124,27.124,0,0,0,6.594-2.865l.006,0,.18-.107.176.107,5.774,3.5-.424.055,7.765-8.039-.04.423-3.7-5.651-.112-.171.1-.178a27.082,27.082,0,0,0,2.639-6.7l.048-.2.2-.048,6.563-1.6-.249.324q-.094-5.723-.185-11.177l.251.3-6.612-1.385-.184-.039-.05-.179a27.165,27.165,0,0,0-2.863-6.614l-.093-.155.093-.153,3.51-5.768.046.354-8.026-7.781.327.031-5.657,3.688-.126.082-.13-.073a27.289,27.289,0,0,0-6.715-2.664l-.134-.033-.031-.132c-.576-2.387-1.1-4.537-1.587-6.567l.2.154-11.177.147.148-.123c-.567,2.639-1.032,4.8-1.419,6.607l-.015.067-.064.018a28.326,28.326,0,0,0-5.11,1.966l-1.2.628a2.672,2.672,0,0,1-.4.2,3.391,3.391,0,0,1,.373-.254c.255-.157.642-.393,1.178-.679a26.448,26.448,0,0,1,5.1-2.078l-.079.083c.365-1.808.8-3.978,1.334-6.623l.024-.12.125,0,11.176-.245.162,0,.04.158c.5,2.028,1.037,4.174,1.63,6.556l-.165-.165a27.645,27.645,0,0,1,6.847,2.672l-.255.009,5.64-3.716.176-.115.151.147,8.057,7.748.164.158-.118.2-3.491,5.78v-.308a27.713,27.713,0,0,1,2.946,6.754l-.234-.217,6.617,1.368.248.052,0,.253q.1,5.451.208,11.176l.006.261-.255.063-6.561,1.614.243-.244a27.707,27.707,0,0,1-2.7,6.865l-.013-.348q1.835,2.795,3.7,5.647l.15.227-.189.2-7.761,8.044-.19.2-.235-.142-5.774-3.5h.356l-.006,0a27.732,27.732,0,0,1-6.762,2.937l.242-.26-1.378,6.614-.055.268-.273,0-11.177.191-.269,0-.064-.261c-.554-2.265-1.1-4.508-1.6-6.563l.244.244a27.817,27.817,0,0,1-6.861-2.706l.338-.012-5.653,3.7-.214.14-.184-.177-8.032-7.774-.176-.171.127-.209c1.222-2.008,2.422-3.98,3.509-5.769v.307a27.735,27.735,0,0,1-2.924-6.76l.215.2-6.612-1.389-.212-.045,0-.215c-.06-3.921-.117-7.657-.171-11.177l0-.2.189-.046,6.567-1.591-.164.165a27.579,27.579,0,0,1,2.71-6.825l.007.209c-1.326-2.041-2.564-3.948-3.68-5.664l-.076-.118.1-.1,7.81-8,.062-.064.074.046,4.254,2.647,1.094.695A3.338,3.338,0,0,1,380.044,138.885Z" transform="translate(-360.729 -128.963)" fill="#ffdf9c"/>
                  </g>
                </g>
              </g>
            </g>
          </g>
          <g id="Grupo_963104" data-name="Grupo 963104" transform="translate(12.085 151.79)">
            <g id="Grupo_963095" data-name="Grupo 963095" transform="translate(0.248 0.207)">
              <g id="Grupo_963094" data-name="Grupo 963094">
                <g id="Grupo_963093" data-name="Grupo 963093">
                  <path id="Trazado_632366" data-name="Trazado 632366" d="M68.944,210.84a27.419,27.419,0,0,1,6.683-2.9L77,201.321l11.177-.2,1.608,6.562a27.326,27.326,0,0,1,6.782,2.668l5.649-3.7,8.041,7.765-3.5,5.774a27.355,27.355,0,0,1,2.9,6.684l6.614,1.376.2,11.177-6.562,1.609a27.4,27.4,0,0,1-2.668,6.78l3.7,5.65-7.764,8.041-5.774-3.5a27.425,27.425,0,0,1-6.684,2.9l-1.377,6.615-11.176.2-1.609-6.562a27.4,27.4,0,0,1-6.78-2.668l-5.649,3.7-8.042-7.764,3.5-5.774a27.39,27.39,0,0,1-2.9-6.684L50.073,240.6l-.2-11.177,6.562-1.609a27.385,27.385,0,0,1,2.668-6.78l-3.7-5.65,7.764-8.041,5.775,3.5ZM74.9,225.729a11.992,11.992,0,1,0,16.956-.3A11.992,11.992,0,0,0,74.9,225.729Z" transform="translate(-49.877 -201.125)" fill="#ffdf9c"/>
                </g>
              </g>
            </g>
            <g id="Grupo_963099" data-name="Grupo 963099" transform="translate(21.697 20.933)">
              <g id="Grupo_963098" data-name="Grupo 963098">
                <g id="Grupo_963097" data-name="Grupo 963097">
                  <g id="Grupo_963096" data-name="Grupo 963096">
                    <path id="Trazado_632367" data-name="Trazado 632367" d="M76.673,227.44a9.06,9.06,0,0,1,2.233-1.959,11.942,11.942,0,0,1,7.823-1.849,12.088,12.088,0,0,1,5.317,1.889,12.27,12.27,0,0,1,4.3,4.844,12.294,12.294,0,0,1,1.158,7.058,12.237,12.237,0,0,1-10.123,10.486,12.281,12.281,0,0,1-7.094-.91,12.276,12.276,0,0,1-4.994-4.127,12.089,12.089,0,0,1-2.074-5.247,11.94,11.94,0,0,1,1.574-7.883,9.048,9.048,0,0,1,1.88-2.3c.065.055-.724.787-1.648,2.433A11.96,11.96,0,0,0,73.7,237.55a11.718,11.718,0,0,0,6.845,8.87,11.715,11.715,0,0,0,6.724.824,11.621,11.621,0,0,0,9.568-9.912,11.724,11.724,0,0,0-1.06-6.689,11.719,11.719,0,0,0-9.1-6.529,11.956,11.956,0,0,0-7.626,1.594C77.433,226.689,76.73,227.5,76.673,227.44Z" transform="translate(-73.096 -223.562)" fill="#ffdf9c"/>
                  </g>
                </g>
              </g>
            </g>
            <g id="Grupo_963103" data-name="Grupo 963103">
              <g id="Grupo_963102" data-name="Grupo 963102">
                <g id="Grupo_963101" data-name="Grupo 963101">
                  <g id="Grupo_963100" data-name="Grupo 963100">
                    <path id="Trazado_632368" data-name="Trazado 632368" d="M68.924,210.823a2.559,2.559,0,0,1-.373-.2l-1.107-.641-4.353-2.57.136-.018-7.717,8.087.02-.216c1.129,1.707,2.383,3.6,3.725,5.634l.067.1-.059.108a27.33,27.33,0,0,0-2.625,6.736l-.031.132-.134.033-6.558,1.628.187-.241c.07,3.519.144,7.253.222,11.175l-.215-.26,6.617,1.363.169.035.047.165a27.249,27.249,0,0,0,2.885,6.609l.093.152-.093.154c-1.083,1.791-2.277,3.767-3.493,5.78l-.049-.38,8.051,7.755-.4-.038,5.645-3.708.165-.108.173.1a27.229,27.229,0,0,0,6.7,2.63l.2.048.048.2c.5,2.055,1.056,4.3,1.613,6.561l-.333-.257,11.177-.2-.328.272,1.375-6.615.042-.2.2-.057A27.121,27.121,0,0,0,97.2,257.7l.006,0,.18-.107.176.107,5.774,3.5-.425.055,7.766-8.04-.04.423-3.7-5.65-.113-.172.1-.177a27.081,27.081,0,0,0,2.639-6.7l.049-.2.2-.047,6.562-1.6-.248.323q-.1-5.723-.186-11.176l.251.3-6.612-1.385-.183-.039-.051-.179a27.184,27.184,0,0,0-2.862-6.614l-.093-.155.093-.153,3.51-5.768.046.353-8.026-7.78.327.03-5.658,3.689-.126.081-.129-.072a27.243,27.243,0,0,0-6.716-2.664l-.133-.033-.032-.132c-.576-2.387-1.1-4.537-1.587-6.567l.2.154-11.177.147.148-.123c-.566,2.638-1.031,4.8-1.419,6.607l-.014.066-.064.018a28.369,28.369,0,0,0-5.111,1.967l-1.2.628a2.643,2.643,0,0,1-.4.2,3.566,3.566,0,0,1,.372-.253c.256-.157.643-.394,1.178-.679a26.5,26.5,0,0,1,5.1-2.078l-.078.084c.364-1.808.8-3.979,1.334-6.624l.024-.12.124,0,11.176-.245.162,0,.04.159c.5,2.027,1.037,4.174,1.63,6.556l-.165-.165a27.648,27.648,0,0,1,6.848,2.672l-.255.009,5.639-3.716.176-.115.152.147,8.057,7.748.164.158-.119.2-3.491,5.78v-.308a27.7,27.7,0,0,1,2.945,6.754l-.233-.217,6.616,1.368.248.051,0,.254q.1,5.45.208,11.176l0,.261-.254.062-6.561,1.614.244-.243a27.709,27.709,0,0,1-2.7,6.865l-.013-.349,3.705,5.647.149.227-.188.2-7.761,8.044-.19.2-.235-.143-5.775-3.5h.356l-.006,0a27.767,27.767,0,0,1-6.762,2.937l.242-.26-1.377,6.614-.055.267-.273,0-11.177.191-.269.006-.064-.262c-.554-2.264-1.1-4.507-1.6-6.562l.243.243a27.822,27.822,0,0,1-6.86-2.7l.338-.013-5.653,3.7-.213.139-.184-.177c-2.789-2.7-5.509-5.332-8.032-7.774l-.176-.17.127-.209c1.221-2.009,2.421-3.981,3.509-5.769v.307a27.74,27.74,0,0,1-2.925-6.76l.216.2L50,240.843l-.212-.044,0-.216c-.06-3.921-.116-7.656-.17-11.176l0-.2.19-.046,6.567-1.59-.165.164a27.681,27.681,0,0,1,2.71-6.825l.007.209-3.679-5.664-.077-.117.1-.1,7.81-8,.062-.064.074.046,4.254,2.647,1.095.695A3.428,3.428,0,0,1,68.924,210.823Z" transform="translate(-49.608 -200.901)" fill="#ffdf9c"/>
                  </g>
                </g>
              </g>
            </g>
          </g>
          <g id="Grupo_963116" data-name="Grupo 963116" transform="translate(325.599 26.995)">
            <g id="Grupo_963107" data-name="Grupo 963107" transform="translate(0.18 0.15)">
              <g id="Grupo_963106" data-name="Grupo 963106">
                <g id="Grupo_963105" data-name="Grupo 963105">
                  <path id="Trazado_632369" data-name="Trazado 632369" d="M403.01,73.009a19.881,19.881,0,0,1,4.843-2.105l1-4.793,8.1-.142,1.166,4.756a19.842,19.842,0,0,1,4.914,1.933l4.093-2.684,5.828,5.627-2.538,4.185a19.836,19.836,0,0,1,2.105,4.844l4.792,1,.142,8.1L432.7,94.891a19.85,19.85,0,0,1-1.933,4.913l2.683,4.094-5.626,5.827-4.185-2.538a19.835,19.835,0,0,1-4.844,2.105l-1,4.793-8.1.142-1.166-4.756a19.856,19.856,0,0,1-4.914-1.933l-4.093,2.683L393.7,104.6l2.537-4.185a19.833,19.833,0,0,1-2.1-4.844l-4.793-1-.142-8.1,4.756-1.166a19.85,19.85,0,0,1,1.933-4.913L393.2,76.3l5.627-5.827,4.185,2.538ZM407.327,83.8a8.69,8.69,0,1,0,12.287-.215A8.691,8.691,0,0,0,407.327,83.8Z" transform="translate(-389.193 -65.968)" fill="#ffdf9c"/>
                </g>
              </g>
            </g>
            <g id="Grupo_963111" data-name="Grupo 963111" transform="translate(15.723 15.169)">
              <g id="Grupo_963110" data-name="Grupo 963110">
                <g id="Grupo_963109" data-name="Grupo 963109">
                  <g id="Grupo_963108" data-name="Grupo 963108">
                    <path id="Trazado_632370" data-name="Trazado 632370" d="M408.61,85.037a6.574,6.574,0,0,1,1.618-1.42,8.654,8.654,0,0,1,5.669-1.34,8.77,8.77,0,0,1,3.853,1.369,8.893,8.893,0,0,1,3.116,3.511,8.915,8.915,0,0,1,.839,5.114,8.866,8.866,0,0,1-7.335,7.6,8.914,8.914,0,0,1-5.142-.659,8.9,8.9,0,0,1-3.618-2.991,8.764,8.764,0,0,1-1.5-3.8,8.648,8.648,0,0,1,1.141-5.713,6.55,6.55,0,0,1,1.362-1.667c.047.041-.525.571-1.193,1.763a8.663,8.663,0,0,0-.961,5.563,8.491,8.491,0,0,0,4.961,6.428,8.477,8.477,0,0,0,4.872.6,8.418,8.418,0,0,0,6.934-7.182,8.5,8.5,0,0,0-.769-4.847,8.489,8.489,0,0,0-6.6-4.731,8.661,8.661,0,0,0-5.525,1.156C409.162,84.493,408.652,85.083,408.61,85.037Z" transform="translate(-406.019 -82.227)" fill="#ffdf9c"/>
                  </g>
                </g>
              </g>
            </g>
            <g id="Grupo_963115" data-name="Grupo 963115">
              <g id="Grupo_963114" data-name="Grupo 963114">
                <g id="Grupo_963113" data-name="Grupo 963113">
                  <g id="Grupo_963112" data-name="Grupo 963112">
                    <path id="Trazado_632371" data-name="Trazado 632371" d="M402.995,73a1.869,1.869,0,0,1-.27-.143l-.8-.464-3.154-1.862.1-.013-5.592,5.859.015-.157c.818,1.238,1.727,2.612,2.7,4.083l.048.073-.043.079a19.79,19.79,0,0,0-1.9,4.881l-.023.1-.1.024-4.752,1.18.135-.176c.051,2.55.1,5.256.161,8.1l-.156-.188,4.8.988.122.026.034.12a19.737,19.737,0,0,0,2.09,4.788l.067.112-.067.112-2.531,4.187-.035-.274c1.832,1.765,3.809,3.668,5.834,5.619l-.288-.028,4.09-2.686.12-.079.125.069a19.768,19.768,0,0,0,4.856,1.907l.141.034.035.142c.366,1.489.766,3.113,1.169,4.755l-.241-.186,8.1-.146-.237.2c.315-1.514.654-3.148,1-4.793l.031-.148.145-.041a19.668,19.668,0,0,0,4.778-2.076l0,0,.13-.078.127.078,4.185,2.538-.308.04,5.628-5.826-.03.307q-1.352-2.067-2.681-4.1l-.08-.124.072-.129a19.612,19.612,0,0,0,1.912-4.853l.035-.141.142-.035,4.756-1.162-.181.235q-.068-4.147-.134-8.1l.183.22-4.792-1-.132-.028-.037-.13a19.7,19.7,0,0,0-2.074-4.792l-.067-.113.067-.111,2.544-4.18.033.256L426.976,70.1l.237.022-4.1,2.672-.091.06-.094-.053a19.753,19.753,0,0,0-4.866-1.931l-.1-.024-.022-.1c-.418-1.729-.794-3.288-1.15-4.759l.145.113-8.1.106.107-.089c-.41,1.912-.747,3.48-1.028,4.787l-.01.048-.046.013a20.521,20.521,0,0,0-3.7,1.424l-.871.455a2.045,2.045,0,0,1-.291.148,2.521,2.521,0,0,1,.271-.184c.185-.115.466-.285.854-.492a19.206,19.206,0,0,1,3.7-1.506l-.055.061c.263-1.31.58-2.883.966-4.8l.018-.087.09,0,8.1-.177.116,0,.03.115c.365,1.47.752,3.025,1.181,4.751l-.119-.119a20,20,0,0,1,4.961,1.936l-.185.006L427,69.8l.127-.084.111.106,5.838,5.615.119.115-.086.142-2.529,4.188v-.224a20.114,20.114,0,0,1,2.135,4.894l-.169-.157,4.794.992.179.037,0,.183q.072,3.95.15,8.1l0,.189-.184.045-4.755,1.169.176-.176a20.083,20.083,0,0,1-1.954,4.975l-.009-.253,2.684,4.092.108.164-.137.142-5.625,5.829-.138.143-.17-.1-4.185-2.537h.258l0,0a20.151,20.151,0,0,1-4.9,2.128l.175-.188c-.343,1.645-.683,3.279-1,4.792l-.041.194-.2,0-8.1.139-.195,0-.046-.19c-.4-1.641-.8-3.266-1.163-4.756l.176.176a20.149,20.149,0,0,1-4.971-1.96l.245-.009-4.1,2.679-.155.1-.133-.128-5.821-5.633-.128-.124.092-.151,2.543-4.181v.223a20.1,20.1,0,0,1-2.118-4.9l.156.145-4.792-1.007-.154-.032,0-.156c-.043-2.841-.085-5.549-.124-8.1l0-.142.138-.034,4.759-1.152-.12.12a20.023,20.023,0,0,1,1.964-4.946l.006.151-2.666-4.1-.055-.086.07-.072,5.66-5.795.045-.046.053.033,3.083,1.919.793.5A2.268,2.268,0,0,1,402.995,73Z" transform="translate(-388.998 -65.806)" fill="#ffdf9c"/>
                  </g>
                </g>
              </g>
            </g>
          </g>
          <g id="Grupo_963128" data-name="Grupo 963128" transform="translate(72.29 4.177)">
            <g id="Grupo_963119" data-name="Grupo 963119" transform="translate(0.179 0.151)">
              <g id="Grupo_963118" data-name="Grupo 963118">
                <g id="Grupo_963117" data-name="Grupo 963117">
                  <path id="Trazado_632372" data-name="Trazado 632372" d="M128.794,48.308a19.826,19.826,0,0,1,4.843-2.1l1-4.794,8.1-.141,1.166,4.755a19.856,19.856,0,0,1,4.914,1.933l4.093-2.684,5.827,5.628L156.2,55.084a19.847,19.847,0,0,1,2.1,4.844l4.793,1,.142,8.1-4.756,1.166a19.851,19.851,0,0,1-1.933,4.913l2.683,4.094L153.6,85.026l-4.185-2.538a19.842,19.842,0,0,1-4.843,2.1l-1,4.793-8.1.142-1.166-4.756a19.85,19.85,0,0,1-4.913-1.933l-4.093,2.684L119.479,79.9l2.538-4.185a19.844,19.844,0,0,1-2.105-4.843l-4.793-1-.142-8.1,4.756-1.166a19.886,19.886,0,0,1,1.933-4.913L118.982,51.6l5.626-5.828,4.186,2.538Zm4.318,10.79a8.69,8.69,0,1,0,12.287-.216A8.689,8.689,0,0,0,133.111,59.1Z" transform="translate(-114.976 -41.268)" fill="#ffdf9c"/>
                </g>
              </g>
            </g>
            <g id="Grupo_963123" data-name="Grupo 963123" transform="translate(15.722 15.17)">
              <g id="Grupo_963122" data-name="Grupo 963122">
                <g id="Grupo_963121" data-name="Grupo 963121">
                  <g id="Grupo_963120" data-name="Grupo 963120">
                    <path id="Trazado_632373" data-name="Trazado 632373" d="M134.394,60.337a6.555,6.555,0,0,1,1.617-1.42,8.649,8.649,0,0,1,5.669-1.34,8.756,8.756,0,0,1,3.853,1.368,8.9,8.9,0,0,1,3.116,3.511,8.905,8.905,0,0,1,.84,5.114,8.868,8.868,0,0,1-7.336,7.6,8.9,8.9,0,0,1-5.142-.659,8.9,8.9,0,0,1-3.617-2.991,8.758,8.758,0,0,1-1.5-3.8A8.655,8.655,0,0,1,133.031,62a6.565,6.565,0,0,1,1.363-1.666c.047.04-.525.57-1.194,1.763a8.669,8.669,0,0,0-.961,5.563A8.491,8.491,0,0,0,137.2,74.09a8.49,8.49,0,0,0,4.872.6,8.421,8.421,0,0,0,6.934-7.183,8.49,8.49,0,0,0-.768-4.847,8.494,8.494,0,0,0-6.6-4.731,8.664,8.664,0,0,0-5.526,1.156C134.945,59.793,134.435,60.382,134.394,60.337Z" transform="translate(-131.802 -57.527)" fill="#ffdf9c"/>
                  </g>
                </g>
              </g>
            </g>
            <g id="Grupo_963127" data-name="Grupo 963127" transform="translate(0)">
              <g id="Grupo_963126" data-name="Grupo 963126">
                <g id="Grupo_963125" data-name="Grupo 963125">
                  <g id="Grupo_963124" data-name="Grupo 963124">
                    <path id="Trazado_632374" data-name="Trazado 632374" d="M128.779,48.3a1.809,1.809,0,0,1-.271-.142l-.8-.464-3.155-1.863.1-.013-5.592,5.86.015-.157,2.7,4.082.049.073-.043.079a19.84,19.84,0,0,0-1.9,4.881l-.023.1-.1.024L115,61.931l.135-.176c.051,2.55.1,5.257.162,8.1l-.156-.188c1.484.306,3.12.642,4.794.988l.123.025.034.12a19.723,19.723,0,0,0,2.09,4.789l.067.111-.067.112c-.785,1.3-1.65,2.73-2.531,4.188l-.036-.275,5.834,5.619-.288-.027,4.09-2.687.12-.079.126.069a19.746,19.746,0,0,0,4.855,1.907l.142.034.034.142c.367,1.489.766,3.114,1.169,4.755l-.242-.186,8.1-.146-.238.2c.315-1.514.655-3.147,1-4.793l.03-.148.145-.041a19.639,19.639,0,0,0,4.779-2.076l0,0,.131-.078.127.078,4.185,2.538-.309.04,5.628-5.826-.029.307q-1.354-2.067-2.681-4.094l-.081-.125.072-.128a19.626,19.626,0,0,0,1.912-4.853l.036-.142.141-.034,4.756-1.162-.181.234q-.069-4.146-.134-8.1l.182.221-4.792-1-.133-.028-.036-.129A19.694,19.694,0,0,0,156,55.183l-.067-.112L156,54.96l2.544-4.18.033.257L152.759,45.4l.237.022-4.1,2.673-.091.059-.093-.053a19.767,19.767,0,0,0-4.866-1.931l-.1-.024-.023-.1c-.418-1.729-.794-3.287-1.15-4.758l.146.112-8.1.106.107-.089c-.411,1.912-.747,3.481-1.028,4.787l-.01.048-.047.013a20.648,20.648,0,0,0-3.7,1.424l-.871.455a2.019,2.019,0,0,1-.29.148,2.427,2.427,0,0,1,.27-.184c.185-.114.466-.285.854-.492a19.255,19.255,0,0,1,3.7-1.506l-.056.061c.263-1.31.58-2.883.966-4.8l.018-.087.091,0,8.1-.177.117,0,.029.115c.365,1.469.752,3.024,1.181,4.751l-.12-.12a20,20,0,0,1,4.962,1.936l-.185.006,4.087-2.693.127-.083.11.105,5.839,5.615.119.115-.086.142-2.53,4.188V54.96a20.046,20.046,0,0,1,2.135,4.894l-.169-.158,4.794.992.179.037,0,.184q.073,3.949.151,8.1l0,.19-.185.045-4.755,1.169.176-.176a20.057,20.057,0,0,1-1.954,4.974l-.009-.253,2.685,4.092.108.164-.137.142-5.625,5.829-.139.143-.169-.1-4.186-2.536h.258l0,0a20.115,20.115,0,0,1-4.9,2.128l.176-.188c-.343,1.645-.684,3.279-1,4.793l-.041.193-.2,0-8.1.139-.195,0-.046-.189c-.4-1.642-.8-3.266-1.163-4.756l.176.176a20.141,20.141,0,0,1-4.972-1.96l.245-.009-4.1,2.68-.155.1-.133-.129-5.821-5.633-.127-.124.092-.152c.885-1.456,1.754-2.885,2.543-4.18v.222a20.077,20.077,0,0,1-2.119-4.9l.156.145-4.792-1.008-.153-.032,0-.156c-.043-2.841-.085-5.548-.124-8.1l0-.142.138-.033,4.758-1.153-.119.12a20.023,20.023,0,0,1,1.964-4.946l.006.151-2.667-4.1-.055-.085.071-.072,5.659-5.8.045-.045.054.033,3.083,1.918.793.5A2.553,2.553,0,0,1,128.779,48.3Z" transform="translate(-114.782 -41.105)" fill="#ffdf9c"/>
                  </g>
                </g>
              </g>
            </g>
          </g>
          <g id="Grupo_963140" data-name="Grupo 963140" transform="translate(284.943)">
            <g id="Grupo_963131" data-name="Grupo 963131" transform="translate(0.112 0.091)">
              <g id="Grupo_963130" data-name="Grupo 963130">
                <g id="Grupo_963129" data-name="Grupo 963129">
                  <path id="Trazado_632375" data-name="Trazado 632375" d="M360.6,73.191l0-.018-.878-3.58a15.023,15.023,0,0,1-3.693-1.452l-3.1,2.03-.014-.013L348.5,65.893l.009-.016,1.909-3.149a15.04,15.04,0,0,1-1.581-3.641l-3.626-.755v-.018l-.108-6.137.018,0,3.58-.878a15.067,15.067,0,0,1,1.452-3.693l-2.029-3.1.013-.013,4.263-4.416.016.009L355.57,42a15.053,15.053,0,0,1,3.64-1.582l.755-3.626h.019l6.137-.107,0,.018.877,3.58A15,15,0,0,1,370.7,41.73l3.1-2.029.013.013,4.417,4.264-.009.016L376.3,47.143a14.944,14.944,0,0,1,1.581,3.641l3.626.755v.018l.108,6.137-.018,0-3.58.877a15.044,15.044,0,0,1-1.452,3.693l2.03,3.1-.014.013-4.263,4.416-.016-.009-3.15-1.909a15.056,15.056,0,0,1-3.64,1.581l-.756,3.627h-.018Zm-4.576-5.1.012.006a14.952,14.952,0,0,0,3.708,1.46l.013,0,0,.014.876,3.575,6.082-.106.754-3.618.014,0a15.038,15.038,0,0,0,3.654-1.588l.011-.007.012.007,3.146,1.908,4.224-4.377-2.024-3.089.007-.012a15.013,15.013,0,0,0,1.458-3.707l0-.014.014,0,3.575-.876-.108-6.082-3.616-.753,0-.014a14.976,14.976,0,0,0-1.588-3.654l-.007-.012.007-.012,1.908-3.145-4.377-4.225L370.7,41.784l-.012-.006a14.954,14.954,0,0,0-3.707-1.458l-.014,0,0-.013-.876-3.575L360,36.833l-.753,3.618-.014,0a14.994,14.994,0,0,0-3.653,1.589l-.012.007-.012-.007-3.146-1.908-4.224,4.377,2.023,3.089-.006.012a15.039,15.039,0,0,0-1.459,3.707l0,.014-.014,0-3.575.876.107,6.082,3.617.753,0,.014a14.962,14.962,0,0,0,1.588,3.654l.007.012-.007.012-1.908,3.145,4.378,4.225Zm7.528-6.766a6.586,6.586,0,0,1-4.739-11.162h0a6.589,6.589,0,1,1,4.739,11.162Zm0-13.125a6.523,6.523,0,0,0-4.708,2h0a6.549,6.549,0,1,0,4.708-2Z" transform="translate(-345.107 -36.681)" fill="#ffdf9c"/>
                </g>
              </g>
            </g>
            <g id="Grupo_963135" data-name="Grupo 963135" transform="translate(11.879 11.461)">
              <g id="Grupo_963134" data-name="Grupo 963134">
                <g id="Grupo_963133" data-name="Grupo 963133">
                  <g id="Grupo_963132" data-name="Grupo 963132">
                    <path id="Trazado_632376" data-name="Trazado 632376" d="M359.8,51.114a4.972,4.972,0,0,1,1.223-1.073,6.54,6.54,0,0,1,4.283-1.012,6.621,6.621,0,0,1,2.911,1.035,6.715,6.715,0,0,1,2.354,2.652,6.727,6.727,0,0,1,.635,3.864,6.7,6.7,0,0,1-5.543,5.741,6.733,6.733,0,0,1-3.884-.5,6.725,6.725,0,0,1-2.733-2.26,6.623,6.623,0,0,1-1.136-2.873,6.535,6.535,0,0,1,.862-4.316,4.976,4.976,0,0,1,1.029-1.259c.036.03-.4.43-.9,1.332a6.548,6.548,0,0,0-.726,4.2,6.414,6.414,0,0,0,3.748,4.856,6.416,6.416,0,0,0,3.681.451,6.359,6.359,0,0,0,5.239-5.426,6.414,6.414,0,0,0-.58-3.663,6.417,6.417,0,0,0-4.985-3.575,6.55,6.55,0,0,0-4.175.873C360.22,50.7,359.835,51.148,359.8,51.114Z" transform="translate(-357.845 -48.99)" fill="#ffdf9c"/>
                  </g>
                </g>
              </g>
            </g>
            <g id="Grupo_963139" data-name="Grupo 963139">
              <g id="Grupo_963138" data-name="Grupo 963138">
                <g id="Grupo_963137" data-name="Grupo 963137">
                  <g id="Grupo_963136" data-name="Grupo 963136">
                    <path id="Trazado_632377" data-name="Trazado 632377" d="M355.561,42.016a1.315,1.315,0,0,1-.2-.108l-.606-.35-2.383-1.408.074-.009-4.225,4.428.012-.118c.618.934,1.3,1.973,2.039,3.084l.037.055-.032.059a15.01,15.01,0,0,0-1.437,3.688l-.018.072-.073.018-3.59.891.1-.133c.039,1.927.078,3.972.122,6.119l-.118-.142,3.623.746.092.019.026.091a14.915,14.915,0,0,0,1.58,3.618l.051.083-.051.085-1.913,3.164-.027-.208,4.408,4.247-.218-.02,3.091-2.03.091-.06.1.053a14.841,14.841,0,0,0,3.669,1.44l.106.027.027.107c.276,1.125.578,2.353.883,3.592l-.183-.14,6.12-.11-.18.149c.238-1.145.494-2.379.753-3.622l.023-.112.11-.03a14.834,14.834,0,0,0,3.61-1.569l0,0,.1-.058.1.058L374.4,69.6l-.233.03,4.252-4.4-.021.231q-1.024-1.562-2.026-3.094l-.062-.093.055-.1a14.839,14.839,0,0,0,1.446-3.666l.027-.108.106-.026,3.593-.878-.136.177q-.053-3.134-.1-6.12l.138.167-3.62-.758-.1-.021-.028-.1a14.89,14.89,0,0,0-1.567-3.622l-.052-.084.052-.084c.659-1.084,1.3-2.133,1.922-3.158l.025.194-4.394-4.26.179.017-3.1,2.019-.069.045-.071-.04a14.912,14.912,0,0,0-3.677-1.459l-.073-.018-.018-.072c-.316-1.307-.6-2.484-.868-3.6l.11.085-6.12.08.081-.067c-.31,1.445-.565,2.63-.777,3.617l-.008.036-.035.01a15.535,15.535,0,0,0-2.8,1.076l-.658.344a1.411,1.411,0,0,1-.22.112,1.976,1.976,0,0,1,.2-.139c.139-.086.352-.215.645-.372a14.516,14.516,0,0,1,2.793-1.137l-.043.045.731-3.627.013-.066.068,0,6.118-.134.089,0,.022.087c.275,1.11.568,2.285.892,3.59L367,40.169a15.152,15.152,0,0,1,3.749,1.462l-.139.006L373.7,39.6l.1-.063.083.08,4.411,4.242.091.087-.066.107q-.93,1.541-1.911,3.164v-.168a15.13,15.13,0,0,1,1.613,3.7l-.128-.119,3.623.749.135.029,0,.139.114,6.119,0,.143-.139.034-3.592.883.134-.133a15.2,15.2,0,0,1-1.476,3.759l-.007-.191,2.029,3.092.081.125-.1.107-4.25,4.4-.1.108-.128-.079L371.048,68h.195l0,0a15.227,15.227,0,0,1-3.7,1.607l.132-.142c-.259,1.243-.515,2.478-.754,3.621l-.031.147-.15,0-6.12.1-.147,0-.035-.143c-.3-1.241-.6-2.468-.879-3.593l.133.133a15.248,15.248,0,0,1-3.756-1.481l.186-.007-3.1,2.025-.117.077-.1-.1L348.408,66l-.1-.093.07-.115,1.921-3.158V62.8a15.181,15.181,0,0,1-1.6-3.7l.117.11-3.62-.761-.115-.025,0-.117c-.033-2.148-.064-4.193-.093-6.12l0-.107.1-.025,3.6-.871-.091.091a15.113,15.113,0,0,1,1.484-3.737l0,.115-2.015-3.1-.042-.065.053-.054,4.276-4.378.034-.035.041.025,2.329,1.449.6.381A1.766,1.766,0,0,1,355.561,42.016Z" transform="translate(-344.986 -36.583)" fill="#ffdf9c"/>
                  </g>
                </g>
              </g>
            </g>
          </g>
          <g id="Grupo_963152" data-name="Grupo 963152" transform="translate(0 110.405)">
            <g id="Grupo_963143" data-name="Grupo 963143" transform="translate(0.112 0.091)">
              <g id="Grupo_963142" data-name="Grupo 963142">
                <g id="Grupo_963141" data-name="Grupo 963141">
                  <path id="Trazado_632378" data-name="Trazado 632378" d="M52.144,192.708l0-.018-.878-3.58a15.026,15.026,0,0,1-3.693-1.453l-3.1,2.03-.013-.013-4.416-4.264.01-.016,1.909-3.149a15.03,15.03,0,0,1-1.581-3.641l-3.627-.754v-.018l-.108-6.137.018,0,3.58-.878A15,15,0,0,1,41.7,167.12l-2.029-3.1.012-.013,4.263-4.417.017.009,3.15,1.91a15.007,15.007,0,0,1,3.64-1.581l.755-3.627h.018l6.137-.107,0,.018.877,3.58a14.987,14.987,0,0,1,3.693,1.452l3.1-2.03.013.013,4.417,4.264-.009.016-1.909,3.149a15.046,15.046,0,0,1,1.581,3.641l3.625.755v.018l.108,6.137-.018,0-3.58.877a15,15,0,0,1-1.452,3.693l2.029,3.1-.013.014-4.263,4.416-.017-.009L62.7,187.392a15.045,15.045,0,0,1-3.641,1.581L58.3,192.6h-.018Zm-4.576-5.1.013.007a15.009,15.009,0,0,0,3.706,1.459l.014,0,0,.014.876,3.575,6.082-.106.753-3.617.014,0a15,15,0,0,0,3.654-1.588l.012-.007.012.007,3.146,1.908,4.224-4.377-2.024-3.089.006-.012a14.993,14.993,0,0,0,1.459-3.707l0-.014.014,0,3.575-.876L73,171.093l-3.617-.753,0-.014a14.986,14.986,0,0,0-1.588-3.654l-.007-.012.007-.012L69.7,163.5l-4.377-4.225L62.237,161.3l-.012-.006a14.941,14.941,0,0,0-3.707-1.458l-.014,0,0-.014-.876-3.575-6.082.106-.753,3.618-.014,0a15.005,15.005,0,0,0-3.654,1.588l-.011.007-.012-.007-3.147-1.908-4.224,4.377,2.024,3.089-.006.013a14.934,14.934,0,0,0-1.458,3.706l0,.014-.014,0-3.575.877.106,6.082,3.618.752,0,.014a14.974,14.974,0,0,0,1.589,3.654l.007.012-.007.012L40.1,185.4l4.376,4.226Zm7.527-6.766a6.582,6.582,0,1,1,4.742-2.008A6.568,6.568,0,0,1,55.094,180.837Zm0-13.128h-.118a6.554,6.554,0,1,0,.118,0Z" transform="translate(-36.647 -156.198)" fill="#ffdf9c"/>
                </g>
              </g>
            </g>
            <g id="Grupo_963147" data-name="Grupo 963147" transform="translate(11.879 11.461)">
              <g id="Grupo_963146" data-name="Grupo 963146">
                <g id="Grupo_963145" data-name="Grupo 963145">
                  <g id="Grupo_963144" data-name="Grupo 963144">
                    <path id="Trazado_632379" data-name="Trazado 632379" d="M51.343,170.631a4.964,4.964,0,0,1,1.222-1.072,6.537,6.537,0,0,1,4.283-1.013,6.62,6.62,0,0,1,2.912,1.035,6.722,6.722,0,0,1,2.354,2.652,6.727,6.727,0,0,1,.635,3.864,6.7,6.7,0,0,1-5.543,5.741,6.733,6.733,0,0,1-3.884-.5,6.718,6.718,0,0,1-2.733-2.26,6.611,6.611,0,0,1-1.136-2.873,6.535,6.535,0,0,1,.862-4.316,4.977,4.977,0,0,1,1.029-1.259c.036.03-.4.43-.9,1.332a6.542,6.542,0,0,0-.726,4.2,6.414,6.414,0,0,0,3.748,4.856,6.413,6.413,0,0,0,3.681.451,6.359,6.359,0,0,0,5.239-5.426,6.414,6.414,0,0,0-.58-3.663,6.417,6.417,0,0,0-4.985-3.575,6.549,6.549,0,0,0-4.175.873C51.76,170.22,51.375,170.665,51.343,170.631Z" transform="translate(-49.385 -168.507)" fill="#ffdf9c"/>
                  </g>
                </g>
              </g>
            </g>
            <g id="Grupo_963151" data-name="Grupo 963151">
              <g id="Grupo_963150" data-name="Grupo 963150">
                <g id="Grupo_963149" data-name="Grupo 963149">
                  <g id="Grupo_963148" data-name="Grupo 963148">
                    <path id="Trazado_632380" data-name="Trazado 632380" d="M47.1,161.533a1.347,1.347,0,0,1-.2-.107l-.606-.351-2.383-1.407.074-.01-4.225,4.428.012-.118,2.039,3.084.037.055-.032.059a14.974,14.974,0,0,0-1.437,3.688l-.018.073-.073.018-3.591.891.1-.133c.038,1.927.079,3.972.121,6.119l-.117-.142,3.623.746.091.019.026.091a14.934,14.934,0,0,0,1.58,3.618l.051.084-.051.084c-.592.981-1.246,2.063-1.912,3.165l-.027-.208,4.408,4.246-.218-.02,3.091-2.03.091-.059.1.053a14.921,14.921,0,0,0,3.668,1.44l.107.026.027.107c.276,1.125.578,2.353.883,3.592l-.183-.14,6.119-.11-.179.149c.237-1.144.494-2.379.753-3.622l.023-.112.11-.03a14.849,14.849,0,0,0,3.61-1.569l0,0,.1-.058.1.058,3.162,1.918-.233.03,4.252-4.4-.022.232-2.025-3.094-.062-.094.055-.1a14.787,14.787,0,0,0,1.445-3.666l.027-.107.107-.027,3.593-.878-.137.177q-.051-3.134-.1-6.119l.138.166-3.621-.758-.1-.021-.028-.1a14.884,14.884,0,0,0-1.567-3.621l-.052-.085.052-.084,1.921-3.158.026.194-4.394-4.26.179.018-3.1,2.018-.068.045-.071-.04a14.949,14.949,0,0,0-3.677-1.459l-.073-.018-.018-.072-.869-3.6.11.084-6.119.08.08-.066c-.31,1.445-.564,2.629-.777,3.617l-.007.036-.035.01a15.535,15.535,0,0,0-2.8,1.076l-.659.344a1.386,1.386,0,0,1-.219.112,1.849,1.849,0,0,1,.2-.139c.139-.086.352-.215.645-.372a14.514,14.514,0,0,1,2.793-1.137l-.042.045c.2-.989.439-2.177.731-3.627l.013-.066h.067l6.119-.135.089,0,.021.087c.276,1.11.568,2.285.893,3.59l-.091-.091a15.121,15.121,0,0,1,3.749,1.463l-.139,0,3.088-2.035.1-.063.083.08,4.412,4.242.09.087-.065.107-1.911,3.165v-.169a15.164,15.164,0,0,1,1.613,3.7l-.127-.119,3.622.75.136.028,0,.139.114,6.119,0,.143-.139.034-3.592.883.134-.133a15.186,15.186,0,0,1-1.477,3.759l-.006-.191,2.029,3.092.081.125-.1.107-4.249,4.4-.1.108-.128-.079-3.162-1.916h.195l0,0a15.207,15.207,0,0,1-3.7,1.607l.132-.142c-.259,1.243-.516,2.478-.755,3.622l-.03.146-.149,0-6.12.1-.147,0-.035-.143-.878-3.593.133.133a15.234,15.234,0,0,1-3.756-1.481l.186-.006-3.1,2.024-.117.077-.1-.1-4.4-4.257-.1-.093.07-.115,1.921-3.158v.168a15.166,15.166,0,0,1-1.6-3.7l.117.11-3.62-.761-.115-.024,0-.118c-.032-2.148-.064-4.192-.093-6.119V171.6l.1-.025,3.6-.871-.091.091a15.15,15.15,0,0,1,1.484-3.737l0,.115c-.725-1.118-1.4-2.162-2.015-3.1l-.042-.065.054-.054c1.741-1.783,3.181-3.257,4.276-4.378l.034-.035.04.025,2.33,1.449.6.381A1.929,1.929,0,0,1,47.1,161.533Z" transform="translate(-36.526 -156.1)" fill="#ffdf9c"/>
                  </g>
                </g>
              </g>
            </g>
          </g>
        </g>
      </g>
      <g id="Iteration" transform="translate(15.415 22.057)">
        <g id="Grupo_963164" data-name="Grupo 963164" transform="translate(126.716 78.315)">
          <g id="Grupo_963163" data-name="Grupo 963163">
            <g id="Grupo_963162" data-name="Grupo 963162">
              <g id="Grupo_963161" data-name="Grupo 963161">
                <g id="Grupo_963154" data-name="Grupo 963154" transform="translate(0.197 0.164)">
                  <path id="Trazado_632381" data-name="Trazado 632381" d="M189.888,139.636a67.275,67.275,0,0,1,14.724-10.2l.155-16.608,26.853-5.817,7.016,15.051a67.3,67.3,0,0,1,17.626,3.189l11.848-11.628,23.1,14.874-5.68,15.6a67.25,67.25,0,0,1,10.2,14.728l16.606.155,5.819,26.853-15.052,7.017a67.333,67.333,0,0,1-3.189,17.624l11.626,11.849-14.872,23.1-15.6-5.68a67.261,67.261,0,0,1-14.727,10.2l-.155,16.608-26.852,5.818-7.018-15.053a67.372,67.372,0,0,1-17.624-3.19l-11.848,11.629-23.1-14.874,5.68-15.6a67.29,67.29,0,0,1-10.2-14.727l-16.606-.155L152.8,193.549l15.052-7.018a67.417,67.417,0,0,1,3.189-17.624l-11.627-11.848,14.873-23.1,15.6,5.68Zm15,30.357a36.385,36.385,0,1,0,50.289-10.9A36.385,36.385,0,0,0,204.886,169.993Z" transform="translate(-152.803 -107.013)" fill="#f0bd51"/>
                </g>
                <g id="Grupo_963160" data-name="Grupo 963160">
                  <g id="Grupo_963155" data-name="Grupo 963155" transform="translate(0.197 0.164)">
                    <path id="Trazado_632382" data-name="Trazado 632382" d="M189.888,139.636a67.275,67.275,0,0,1,14.724-10.2l.155-16.608,26.853-5.817,7.016,15.051a67.3,67.3,0,0,1,17.626,3.189l11.848-11.628,23.1,14.874-5.68,15.6a67.25,67.25,0,0,1,10.2,14.728l16.606.155,5.819,26.853-15.052,7.017a67.333,67.333,0,0,1-3.189,17.624l11.626,11.849-14.872,23.1-15.6-5.68a67.261,67.261,0,0,1-14.727,10.2l-.155,16.608-26.852,5.818-7.018-15.053a67.372,67.372,0,0,1-17.624-3.19l-11.848,11.629-23.1-14.874,5.68-15.6a67.29,67.29,0,0,1-10.2-14.727l-16.606-.155L152.8,193.549l15.052-7.018a67.417,67.417,0,0,1,3.189-17.624l-11.627-11.848,14.873-23.1,15.6,5.68Zm15,30.357a36.385,36.385,0,1,0,50.289-10.9A36.385,36.385,0,0,0,204.886,169.993Z" transform="translate(-152.803 -107.013)" fill="none"/>
                  </g>
                  <g id="Grupo_963157" data-name="Grupo 963157" transform="translate(46.383 46.292)">
                    <g id="Grupo_963156" data-name="Grupo 963156">
                      <path id="Trazado_632383" data-name="Trazado 632383" d="M208.7,173.8s.1-.171.323-.493l.991-1.422q.33-.47.736-1.046c.288-.37.64-.747,1-1.171l1.183-1.357a19.554,19.554,0,0,1,1.465-1.433,34.528,34.528,0,0,1,8.621-6.038,36.278,36.278,0,0,1,13.4-3.749l1.966-.142c.664-.008,1.337.025,2.016.037.679.034,1.37-.008,2.058.091l2.09.255,1.06.135,1.054.235,2.138.478c.714.182,1.411.45,2.126.674a18.627,18.627,0,0,1,2.136.771,34.009,34.009,0,0,1,4.185,2.043c.679.4,1.39.767,2.058,1.209l1.971,1.411c.327.243.673.463.987.727l.927.816c.613.553,1.259,1.081,1.857,1.666a38.6,38.6,0,0,1,3.337,3.84,38.107,38.107,0,0,1,2.885,4.344c.424.77.785,1.581,1.183,2.378.186.4.412.793.566,1.213l.471,1.262a33.447,33.447,0,0,1,2.311,10.725l.1,1.4-.03,1.412-.036,1.419a9.264,9.264,0,0,1-.1,1.42q-.175,1.416-.351,2.845l-.632,2.819a36.252,36.252,0,0,1-12.51,19.437l-2.306,1.742-2.445,1.5-.611.369-.64.312-1.277.62-1.273.613-1.318.491A33.533,33.533,0,0,1,241.652,230l-1.343.093c-.447.033-.894-.011-1.339-.013-.89-.033-1.777-.026-2.654-.093a37.927,37.927,0,0,1-5.15-.829,38.511,38.511,0,0,1-4.877-1.447c-.781-.3-1.529-.673-2.285-1l-1.127-.505c-.37-.176-.714-.4-1.07-.6l-2.1-1.211c-.68-.425-1.306-.921-1.953-1.373a33.944,33.944,0,0,1-3.592-2.964,18.638,18.638,0,0,1-1.586-1.624c-.5-.56-1.034-1.083-1.495-1.657l-1.319-1.749-.65-.862-.562-.91-1.1-1.8c-.375-.586-.623-1.232-.935-1.836-.292-.614-.6-1.212-.867-1.82l-.685-1.848A36.26,36.26,0,0,1,202.83,192.2a34.506,34.506,0,0,1,1.928-10.345,19.674,19.674,0,0,1,.7-1.927q.4-.876.745-1.639c.236-.505.433-.982.651-1.4l.648-1.1.884-1.491c.2-.334.315-.5.315-.5s-.086.182-.273.525l-.842,1.512-.624,1.109c-.211.418-.4.9-.628,1.4s-.465,1.057-.721,1.642a19.342,19.342,0,0,0-.674,1.925A34.663,34.663,0,0,0,203.1,192.21a36.148,36.148,0,0,0,2.186,13.627q.338.9.685,1.828c.267.6.576,1.193.866,1.8.311.6.559,1.236.932,1.814l1.092,1.775.559.9.647.851,1.311,1.727c.457.566.988,1.083,1.484,1.634a18.5,18.5,0,0,0,1.573,1.6,33.612,33.612,0,0,0,3.561,2.922c.641.445,1.261.934,1.933,1.353l2.08,1.192c.353.194.693.416,1.059.588l1.115.5c.749.323,1.489.687,2.26.985a38.384,38.384,0,0,0,4.821,1.421,37.8,37.8,0,0,0,5.088.81c.867.065,1.743.055,2.622.088.44,0,.881.045,1.322.011l1.327-.094a33.123,33.123,0,0,0,10.584-2.319l1.3-.485,1.256-.607,1.26-.613.632-.308.6-.365,2.413-1.48,2.274-1.721a35.816,35.816,0,0,0,12.346-19.183q.315-1.4.625-2.781.175-1.409.347-2.808a8.9,8.9,0,0,0,.1-1.4l.037-1.4.031-1.395-.1-1.385a33.051,33.051,0,0,0-2.271-10.592l-.464-1.247c-.151-.416-.374-.8-.557-1.2-.393-.787-.747-1.589-1.165-2.35a39.629,39.629,0,0,0-6.132-8.1c-.589-.579-1.227-1.1-1.832-1.649l-.914-.809c-.309-.262-.651-.479-.974-.721l-1.945-1.4c-.66-.44-1.362-.8-2.032-1.2a33.733,33.733,0,0,0-4.133-2.031,18.218,18.218,0,0,0-2.11-.769c-.708-.224-1.4-.492-2.1-.675l-2.114-.479-1.042-.236L244.5,157.7l-2.067-.26c-.682-.1-1.366-.061-2.038-.1-.672-.014-1.339-.05-2-.044l-1.948.133a36.149,36.149,0,0,0-13.31,3.651,34.67,34.67,0,0,0-8.612,5.933,19.61,19.61,0,0,0-1.473,1.41l-1.2,1.337c-.366.418-.723.788-1.016,1.153l-.753,1.028-1.028,1.392C208.829,173.647,208.7,173.8,208.7,173.8Z" transform="translate(-202.801 -156.949)" fill="#263238"/>
                    </g>
                  </g>
                  <g id="Grupo_963159" data-name="Grupo 963159">
                    <g id="Grupo_963158" data-name="Grupo 963158">
                      <path id="Trazado_632384" data-name="Trazado 632384" d="M189.872,139.623s-.335-.11-1-.345l-2.975-1.063-11.651-4.2.091-.03L159.5,157.112l-.016-.151,11.641,11.834.06.061-.026.082A67.5,67.5,0,0,0,168,186.525l0,.1-.087.041-15.047,7.031.1-.192,5.835,26.848-.183-.149,16.606.146h.12l.055.107a67.326,67.326,0,0,0,10.176,14.677l.084.092-.042.119c-1.759,4.834-3.7,10.167-5.674,15.6l-.085-.254,23.107,14.866-.278.029,11.845-11.632.1-.1.131.043a67.465,67.465,0,0,0,17.565,3.174l.14.006.06.127,7.02,15.052-.263-.131,26.851-5.821-.188.231c.049-5.245.1-10.906.155-16.607v-.146l.129-.066a67.251,67.251,0,0,0,14.661-10.151l.013-.011.109-.1.135.049,15.6,5.68-.285.1,14.873-23.1.03.3-11.626-11.851-.1-.1.043-.137a67.087,67.087,0,0,0,3.181-17.562l.006-.141.127-.059,15.054-7.014-.128.256q-2.976-13.751-5.811-26.854l.214.175-16.605-.161-.13,0-.059-.116a67.238,67.238,0,0,0-10.161-14.685l-.085-.093.043-.118c1.95-5.348,3.841-10.531,5.687-15.593l.079.236-23.093-14.887.229-.024-11.856,11.621-.075.073-.1-.032a67.3,67.3,0,0,0-17.58-3.2l-.1,0-.041-.086-7-15.058.159.079-26.859,5.785.085-.1c-.075,6.65-.136,12.095-.186,16.606v.047l-.042.021a68,68,0,0,0-11.355,7.279c-1.169.921-2.006,1.651-2.569,2.129s-.835.721-.835.721,1.035-1.033,3.354-2.913a66.682,66.682,0,0,1,11.335-7.355l-.042.068c.034-4.513.075-9.957.125-16.608v-.086l.084-.018,26.845-5.851.111-.024.049.1,7.03,15.044-.136-.091a67.577,67.577,0,0,1,17.672,3.182l-.175.042,11.84-11.637.105-.1.124.079L291.3,128.317l.135.087-.055.151-5.672,15.6-.042-.212a67.6,67.6,0,0,1,10.237,14.77l-.189-.117,16.605.149.176,0,.038.174q2.842,13.094,5.826,26.85l.039.179-.166.078-15.05,7.021.135-.2a67.568,67.568,0,0,1-3.2,17.685l-.056-.237L311.7,222.141l.134.136-.1.16-14.87,23.1-.1.162-.18-.066-15.6-5.679.245-.048-.013.011a67.747,67.747,0,0,1-14.766,10.223l.13-.212c-.054,5.7-.107,11.362-.157,16.607v.191l-.188.041-26.852,5.814-.184.04-.079-.171L232.1,257.4l.2.134a67.857,67.857,0,0,1-17.684-3.2l.23-.055L202.99,265.9l-.127.125-.151-.1-23.1-14.882-.144-.092.058-.161c1.98-5.43,3.924-10.761,5.687-15.594l.042.211a67.752,67.752,0,0,1-10.224-14.776l.176.108-16.606-.164-.152,0-.031-.148-5.8-26.856-.029-.134.124-.058,15.058-7.006-.091.136a67.747,67.747,0,0,1,3.213-17.66l.033.142-11.614-11.861-.068-.07.053-.082,14.91-23.076.033-.053.057.021,11.594,4.265,2.973,1.1C189.532,139.487,189.872,139.623,189.872,139.623Z" transform="translate(-152.59 -106.836)" fill="#263238"/>
                    </g>
                  </g>
                </g>
              </g>
            </g>
          </g>
        </g>
        <g id="Grupo_963168" data-name="Grupo 963168" transform="translate(233.807 229.784)">
          <g id="Grupo_963165" data-name="Grupo 963165" transform="translate(0 21.108)">
            <path id="Trazado_632385" data-name="Trazado 632385" d="M322.007,293.656l-53.488,34.179H443.863V293.656Z" transform="translate(-268.519 -293.656)" fill="#b5ffd8"/>
          </g>
          <g id="Grupo_963167" data-name="Grupo 963167" transform="translate(152.387)">
            <g id="Grupo_963166" data-name="Grupo 963166">
              <path id="Trazado_632386" data-name="Trazado 632386" d="M433.484,270.806V347.2L483.272,309Z" transform="translate(-433.484 -270.806)" fill="#b5ffd8"/>
            </g>
          </g>
        </g>
        <g id="Grupo_963171" data-name="Grupo 963171" transform="translate(71.359 125.572)">
          <g id="Grupo_963170" data-name="Grupo 963170" transform="translate(0)">
            <g id="Grupo_963169" data-name="Grupo 963169">
              <path id="Trazado_632387" data-name="Trazado 632387" d="M92.739,198.011c5.493,69.582,63.872,124.523,134.842,124.523V288.355A101.2,101.2,0,0,1,126.5,187.27s1.523-17.637,2.586-22.951l-33.648-6.326h0C94.207,164.027,92.255,191.872,92.739,198.011Z" transform="translate(-92.663 -157.993)" fill="#88efb9"/>
            </g>
          </g>
        </g>
        <g id="Grupo_963174" data-name="Grupo 963174" transform="translate(61.577 21.617)">
          <g id="Grupo_963172" data-name="Grupo 963172" transform="translate(0 83.389)">
            <path id="Trazado_632388" data-name="Trazado 632388" d="M149.264,154.156l-67.19-18.427,21.74,52.441Z" transform="translate(-82.075 -135.729)" fill="#449c6e"/>
          </g>
          <g id="Grupo_963173" data-name="Grupo 963173" transform="translate(17.749)">
            <path id="Trazado_632389" data-name="Trazado 632389" d="M133.6,145.977a101.259,101.259,0,0,1,94.932-66.34V45.458a135.5,135.5,0,0,0-127.249,89.369Z" transform="translate(-101.288 -45.458)" fill="#449c6e"/>
          </g>
        </g>
        <g id="Grupo_963177" data-name="Grupo 963177" transform="translate(181.319)">
          <g id="Grupo_963175" data-name="Grupo 963175">
            <path id="Trazado_632390" data-name="Trazado 632390" d="M256.208,102.917,211.7,54.228l56.795-32.171Z" transform="translate(-211.699 -22.057)" fill="#b39dfe"/>
          </g>
          <g id="Grupo_963176" data-name="Grupo 963176" transform="translate(29.786 19.584)">
            <path id="Trazado_632391" data-name="Trazado 632391" d="M320.079,112.023a101.133,101.133,0,0,0-76.135-34.586V43.257A135.309,135.309,0,0,1,345.811,89.526Z" transform="translate(-243.944 -43.257)" fill="#b39dfe"/>
          </g>
        </g>
        <g id="Grupo_963181" data-name="Grupo 963181" transform="translate(282.3 55.524)">
          <g id="Grupo_963179" data-name="Grupo 963179" transform="translate(12.037 23.307)">
            <g id="Grupo_963178" data-name="Grupo 963178">
              <path id="Trazado_632392" data-name="Trazado 632392" d="M370.762,245.73l-30.948-14.506c6.3-13.448,12.086-32.828,12.086-47.812a99.988,99.988,0,0,0-10.841-45.6c-1.249-2.464-5.772-10.667-7.013-12.718l29.239-17.7c1.8,2.97,6.743,11.97,8.265,14.972a133.871,133.871,0,0,1,14.53,61.046C386.078,203.447,379.209,227.709,370.762,245.73Z" transform="translate(-334.045 -107.394)" fill="#8a6ee6"/>
            </g>
          </g>
          <g id="Grupo_963180" data-name="Grupo 963180">
            <path id="Trazado_632393" data-name="Trazado 632393" d="M321.015,138.756l58.2-38.294-53.738-18.3Z" transform="translate(-321.015 -82.163)" fill="#8a6ee6"/>
          </g>
        </g>
        <g id="Grupo_963187" data-name="Grupo 963187" transform="translate(102.035 189.628)">
          <g id="Grupo_963186" data-name="Grupo 963186" transform="translate(0)">
            <g id="Grupo_963183" data-name="Grupo 963183" transform="translate(0 26.554)">
              <g id="Grupo_963182" data-name="Grupo 963182">
                <path id="Trazado_632394" data-name="Trazado 632394" d="M234.942,330.012H125.872V295.833h109.07A100.433,100.433,0,0,0,315.3,256.081l27.151,20.762A134.36,134.36,0,0,1,234.942,330.012Z" transform="translate(-125.872 -256.081)" fill="#583cb6"/>
              </g>
            </g>
            <g id="Grupo_963184" data-name="Grupo 963184" transform="translate(172.152)">
              <path id="Trazado_632395" data-name="Trazado 632395" d="M312.233,245.343l58,38.608-4.159-56.616Z" transform="translate(-312.233 -227.336)" fill="#583cb6"/>
            </g>
          </g>
        </g>
        <g id="Grupo_963191" data-name="Grupo 963191" transform="translate(0 234.826)">
          <g id="Grupo_963188" data-name="Grupo 963188" transform="translate(92.954)">
            <path id="Trazado_632397" data-name="Trazado 632397" d="M116.041,276.264v76.394l49.148-38.2Z" transform="translate(-116.041 -276.264)" fill="#3a2484"/>
          </g>
          <g id="Grupo_963190" data-name="Grupo 963190" transform="translate(0 21.107)">
            <g id="Grupo_963189" data-name="Grupo 963189">
              <rect id="Rect치ngulo_307298" data-name="Rect치ngulo 307298" width="102.036" height="34.179" fill="#3a2484"/>
            </g>
          </g>
        </g>
      </g>
      <g id="Character" transform="translate(142.13 112.14)">
        <g id="Grupo_963356" data-name="Grupo 963356">
          <g id="Grupo_963219" data-name="Grupo 963219" transform="translate(54.503 303.435)">
            <g id="Grupo_963196" data-name="Grupo 963196">
              <g id="Grupo_963195" data-name="Grupo 963195">
                <g id="Grupo_963194" data-name="Grupo 963194">
                  <g id="Grupo_963193" data-name="Grupo 963193">
                    <g id="Grupo_963192" data-name="Grupo 963192">
                      <path id="Trazado_632398" data-name="Trazado 632398" d="M229.294,449.232l-2.633,27.883L211.59,476l2.58-27.942Z" transform="translate(-211.59 -448.054)" fill="#449c6e"/>
                    </g>
                  </g>
                </g>
              </g>
            </g>
            <g id="Grupo_963202" data-name="Grupo 963202" transform="translate(7.708 0.226)">
              <g id="Grupo_963201" data-name="Grupo 963201">
                <g id="Grupo_963200" data-name="Grupo 963200">
                  <g id="Grupo_963199" data-name="Grupo 963199">
                    <g id="Grupo_963198" data-name="Grupo 963198">
                      <g id="Grupo_963197" data-name="Grupo 963197">
                        <path id="Trazado_632399" data-name="Trazado 632399" d="M219.952,475.53c-.126-.014.426-6.121,1.23-13.639s1.559-13.605,1.685-13.592-.425,6.12-1.23,13.641S220.077,475.542,219.952,475.53Z" transform="translate(-219.934 -448.298)" fill="#263238"/>
                      </g>
                    </g>
                  </g>
                </g>
              </g>
            </g>
            <g id="Grupo_963207" data-name="Grupo 963207" transform="translate(0 25.97)">
              <g id="Grupo_963206" data-name="Grupo 963206">
                <g id="Grupo_963205" data-name="Grupo 963205">
                  <g id="Grupo_963204" data-name="Grupo 963204">
                    <g id="Grupo_963203" data-name="Grupo 963203">
                      <path id="Trazado_632400" data-name="Trazado 632400" d="M226.843,477.336l-15.071-1.169-.182,1.973,15.072,1.12Z" transform="translate(-211.59 -476.167)" fill="#263238"/>
                    </g>
                  </g>
                </g>
              </g>
            </g>
            <g id="Grupo_963213" data-name="Grupo 963213" transform="translate(0.823 15.241)">
              <g id="Grupo_963212" data-name="Grupo 963212">
                <g id="Grupo_963211" data-name="Grupo 963211">
                  <g id="Grupo_963210" data-name="Grupo 963210">
                    <g id="Grupo_963209" data-name="Grupo 963209">
                      <g id="Grupo_963208" data-name="Grupo 963208">
                        <path id="Trazado_632401" data-name="Trazado 632401" d="M212.483,468.324c-.021-.019.129-.229.444-.571a10.551,10.551,0,0,1,1.482-1.3,10.255,10.255,0,0,1,2.589-1.39,8.043,8.043,0,0,1,9.2,2.659,6.923,6.923,0,0,1,.939,1.744,1.976,1.976,0,0,1,.173.7,15.834,15.834,0,0,0-1.368-2.25,8.048,8.048,0,0,0-5.408-2.869,9.255,9.255,0,0,0-5.939,1.667C213.234,467.619,212.54,468.382,212.483,468.324Z" transform="translate(-212.481 -464.552)" fill="#263238"/>
                      </g>
                    </g>
                  </g>
                </g>
              </g>
            </g>
            <g id="Grupo_963218" data-name="Grupo 963218" transform="translate(1.562 7.953)" opacity="0.3">
              <g id="Grupo_963217" data-name="Grupo 963217">
                <g id="Grupo_963216" data-name="Grupo 963216">
                  <g id="Grupo_963215" data-name="Grupo 963215">
                    <g id="Grupo_963214" data-name="Grupo 963214">
                      <path id="Trazado_632402" data-name="Trazado 632402" d="M213.564,456.663l-.283,3.073,15.113,1.054.218-2.314Z" transform="translate(-213.281 -456.663)"/>
                    </g>
                  </g>
                </g>
              </g>
            </g>
          </g>
          <g id="Grupo_963247" data-name="Grupo 963247" transform="translate(117.686 302.663)">
            <g id="Grupo_963224" data-name="Grupo 963224">
              <g id="Grupo_963223" data-name="Grupo 963223">
                <g id="Grupo_963222" data-name="Grupo 963222">
                  <g id="Grupo_963221" data-name="Grupo 963221">
                    <g id="Grupo_963220" data-name="Grupo 963220">
                      <path id="Trazado_632403" data-name="Trazado 632403" d="M295.107,447.218l1.812,27.949-15.059,1.279-1.873-28Z" transform="translate(-279.987 -447.218)" fill="#449c6e"/>
                    </g>
                  </g>
                </g>
              </g>
            </g>
            <g id="Grupo_963230" data-name="Grupo 963230" transform="translate(7.96 0.177)">
              <g id="Grupo_963229" data-name="Grupo 963229">
                <g id="Grupo_963228" data-name="Grupo 963228">
                  <g id="Grupo_963227" data-name="Grupo 963227">
                    <g id="Grupo_963226" data-name="Grupo 963226">
                      <g id="Grupo_963225" data-name="Grupo 963225">
                        <path id="Trazado_632404" data-name="Trazado 632404" d="M290.069,474.759c-.127.007-.549-6.112-.943-13.662s-.612-13.681-.486-13.687.548,6.11.942,13.663S290.195,474.752,290.069,474.759Z" transform="translate(-288.604 -447.409)" fill="#263238"/>
                      </g>
                    </g>
                  </g>
                </g>
              </g>
            </g>
            <g id="Grupo_963235" data-name="Grupo 963235" transform="translate(1.741 26.021)">
              <g id="Grupo_963234" data-name="Grupo 963234">
                <g id="Grupo_963233" data-name="Grupo 963233">
                  <g id="Grupo_963232" data-name="Grupo 963232">
                    <g id="Grupo_963231" data-name="Grupo 963231">
                      <path id="Trazado_632405" data-name="Trazado 632405" d="M296.938,475.387l-15.066,1.23.132,1.976,15.059-1.279Z" transform="translate(-281.872 -475.387)" fill="#263238"/>
                    </g>
                  </g>
                </g>
              </g>
            </g>
            <g id="Grupo_963241" data-name="Grupo 963241" transform="translate(1.271 15.302)">
              <g id="Grupo_963240" data-name="Grupo 963240">
                <g id="Grupo_963239" data-name="Grupo 963239">
                  <g id="Grupo_963238" data-name="Grupo 963238">
                    <g id="Grupo_963237" data-name="Grupo 963237">
                      <g id="Grupo_963236" data-name="Grupo 963236">
                        <path id="Trazado_632406" data-name="Trazado 632406" d="M281.367,468.76a2.022,2.022,0,0,1,.349-.635,10.466,10.466,0,0,1,1.257-1.52,10.267,10.267,0,0,1,2.336-1.782,8.045,8.045,0,0,1,9.5,1.171,6.913,6.913,0,0,1,1.2,1.573,1.945,1.945,0,0,1,.282.668,15.8,15.8,0,0,0-1.706-2.005,8.05,8.05,0,0,0-5.794-1.978,9.247,9.247,0,0,0-5.6,2.587C282,467.945,281.433,468.809,281.367,468.76Z" transform="translate(-281.364 -463.783)" fill="#263238"/>
                      </g>
                    </g>
                  </g>
                </g>
              </g>
            </g>
            <g id="Grupo_963246" data-name="Grupo 963246" transform="translate(0.533 8.608)" opacity="0.3">
              <g id="Grupo_963245" data-name="Grupo 963245">
                <g id="Grupo_963244" data-name="Grupo 963244">
                  <g id="Grupo_963243" data-name="Grupo 963243">
                    <g id="Grupo_963242" data-name="Grupo 963242">
                      <path id="Trazado_632407" data-name="Trazado 632407" d="M280.564,457.126l.206,3.079,15.089-1.35-.15-2.319Z" transform="translate(-280.564 -456.536)"/>
                    </g>
                  </g>
                </g>
              </g>
            </g>
          </g>
          <g id="Grupo_963319" data-name="Grupo 963319" transform="translate(58.429)">
            <g id="Grupo_963257" data-name="Grupo 963257" transform="translate(3.399 8.628)">
              <g id="Grupo_963256" data-name="Grupo 963256">
                <g id="Grupo_963255" data-name="Grupo 963255">
                  <g id="Grupo_963254" data-name="Grupo 963254">
                    <g id="Grupo_963253" data-name="Grupo 963253">
                      <g id="Grupo_963252" data-name="Grupo 963252">
                        <g id="Grupo_963251" data-name="Grupo 963251">
                          <g id="Grupo_963250" data-name="Grupo 963250">
                            <g id="Grupo_963249" data-name="Grupo 963249">
                              <g id="Grupo_963248" data-name="Grupo 963248">
                                <path id="Trazado_632408" data-name="Trazado 632408" d="M247.846,175.894l-20.754,3.1-.972-17.757s-1.5-.065-2.826-7.64-3.775-20.418-3.775-20.418h0a28.5,28.5,0,0,1,28-1.113l1.305.677Z" transform="translate(-219.519 -128.915)" fill="#ffbe9d"/>
                              </g>
                            </g>
                          </g>
                        </g>
                      </g>
                    </g>
                  </g>
                </g>
              </g>
            </g>
            <g id="Grupo_963265" data-name="Grupo 963265" transform="translate(31.752 21.598)">
              <g id="Grupo_963264" data-name="Grupo 963264">
                <g id="Grupo_963263" data-name="Grupo 963263">
                  <g id="Grupo_963262" data-name="Grupo 963262">
                    <g id="Grupo_963261" data-name="Grupo 963261">
                      <g id="Grupo_963260" data-name="Grupo 963260">
                        <g id="Grupo_963259" data-name="Grupo 963259">
                          <g id="Grupo_963258" data-name="Grupo 963258">
                            <path id="Trazado_632409" data-name="Trazado 632409" d="M250.212,143.545c.125-.078,5.154-2.417,5.822,2.8s-4.894,4.85-4.923,4.7S250.212,143.545,250.212,143.545Z" transform="translate(-250.212 -142.956)" fill="#ffbe9d"/>
                          </g>
                        </g>
                      </g>
                    </g>
                  </g>
                </g>
              </g>
            </g>
            <g id="Grupo_963273" data-name="Grupo 963273" transform="translate(2.067 25.166)">
              <g id="Grupo_963272" data-name="Grupo 963272">
                <g id="Grupo_963271" data-name="Grupo 963271">
                  <g id="Grupo_963270" data-name="Grupo 963270">
                    <g id="Grupo_963269" data-name="Grupo 963269">
                      <g id="Grupo_963268" data-name="Grupo 963268">
                        <g id="Grupo_963267" data-name="Grupo 963267">
                          <g id="Grupo_963266" data-name="Grupo 963266">
                            <path id="Trazado_632410" data-name="Trazado 632410" d="M222.337,146.844c-.142-.034-5.137-.505-4.125,4.657s6.173,3.058,6.154,2.908S222.337,146.844,222.337,146.844Z" transform="translate(-218.077 -146.818)" fill="#ffbe9d"/>
                          </g>
                        </g>
                      </g>
                    </g>
                  </g>
                </g>
              </g>
            </g>
            <g id="Grupo_963277" data-name="Grupo 963277" transform="translate(2.362 7.391)">
              <g id="Grupo_963276" data-name="Grupo 963276">
                <g id="Grupo_963275" data-name="Grupo 963275">
                  <g id="Grupo_963274" data-name="Grupo 963274">
                    <path id="Trazado_632411" data-name="Trazado 632411" d="M249.435,141.512c-.1,4.478.43,6.739.157,9.763-.432,4.788-2.225,8.7-6.143,11.686s-9.726,3.888-13.917,1.36c-2.907-1.755-5.117-3.912-6.025-7.117s-2.223-8.924-2.781-12.207c-1-5.919-2.331-11.518-2.331-11.518l17.039-5.9,10.907,4.114Z" transform="translate(-218.396 -127.576)" fill="#263238"/>
                  </g>
                </g>
              </g>
            </g>
            <g id="Grupo_963282" data-name="Grupo 963282" transform="translate(18.969 45.204)">
              <g id="Grupo_963281" data-name="Grupo 963281">
                <g id="Grupo_963280" data-name="Grupo 963280">
                  <g id="Grupo_963279" data-name="Grupo 963279">
                    <g id="Grupo_963278" data-name="Grupo 963278">
                      <path id="Trazado_632412" data-name="Trazado 632412" d="M236.374,170.139a8.2,8.2,0,0,0,5.909-1.614c-.072-.122-1.305.48-2.925.915S236.372,170,236.374,170.139Z" transform="translate(-236.374 -168.51)" fill="#263238"/>
                    </g>
                  </g>
                </g>
              </g>
            </g>
            <g id="Grupo_963318" data-name="Grupo 963318">
              <g id="Grupo_963285" data-name="Grupo 963285">
                <g id="Grupo_963284" data-name="Grupo 963284">
                  <g id="Grupo_963283" data-name="Grupo 963283">
                    <path id="Trazado_632413" data-name="Trazado 632413" d="M249.591,148.432c-.209-4.54-.7-9.692-.74-14.507-.015-1.807.224-4.454-.226-6.2a14.464,14.464,0,0,0-2-5.034,7.783,7.783,0,0,0-5.972-3.109,8.018,8.018,0,0,0-6.233,2.729,6.022,6.022,0,0,0-6.392-1.329,5.8,5.8,0,0,0-3.612,5.327,4.238,4.238,0,0,0-4.858.276,3.919,3.919,0,0,0-1.046,4.606,3.964,3.964,0,0,0-2.549,2.645,3.732,3.732,0,0,0,.867,3.487c1.008,1.076,2.581,1.5,3.663,2.511a4.262,4.262,0,0,1,1.028,4.642" transform="translate(-215.84 -119.575)" fill="#263238"/>
                  </g>
                </g>
              </g>
              <g id="Grupo_963289" data-name="Grupo 963289" transform="translate(6.791 11.273)">
                <g id="Grupo_963288" data-name="Grupo 963288">
                  <g id="Grupo_963287" data-name="Grupo 963287">
                    <g id="Grupo_963286" data-name="Grupo 963286">
                      <path id="Trazado_632414" data-name="Trazado 632414" d="M223.193,137.2c-.016.009.056.182.273.456a3.533,3.533,0,0,0,1.2.941,3.807,3.807,0,0,0,2.394.328,4.02,4.02,0,0,0,2.6-1.727l-.386-.037a3.612,3.612,0,0,0,2.766,2.217,4.367,4.367,0,0,0,3.875-1.121,5.833,5.833,0,0,0,1.769-3.175l-.418.115a5.052,5.052,0,0,0,4.311,1.46,4.708,4.708,0,0,0,3.127-1.859,4.5,4.5,0,0,0,.888-2.181,1.9,1.9,0,0,0-.03-.84c-.038,0-.029.3-.134.817a4.736,4.736,0,0,1-.968,2.026,4.455,4.455,0,0,1-2.933,1.637,4.658,4.658,0,0,1-3.9-1.373l-.322-.346-.1.462a5.444,5.444,0,0,1-1.632,2.908,3.9,3.9,0,0,1-3.435,1.016,3.209,3.209,0,0,1-2.462-1.9l-.15-.418-.236.38a3.686,3.686,0,0,1-2.308,1.608,3.636,3.636,0,0,1-2.214-.215A4.96,4.96,0,0,1,223.193,137.2Z" transform="translate(-223.191 -131.779)" fill="#455a64"/>
                    </g>
                  </g>
                </g>
              </g>
              <g id="Grupo_963293" data-name="Grupo 963293" transform="translate(6.341 5.57)">
                <g id="Grupo_963292" data-name="Grupo 963292">
                  <g id="Grupo_963291" data-name="Grupo 963291">
                    <g id="Grupo_963290" data-name="Grupo 963290">
                      <path id="Trazado_632415" data-name="Trazado 632415" d="M222.854,134.667a4.655,4.655,0,0,1,.443-2.011,3.243,3.243,0,0,1,1.65-1.5,3.476,3.476,0,0,1,2.754.06l.474.226-.127-.5a3.822,3.822,0,0,1-.062-1.521,4.17,4.17,0,0,1,1.764-2.773,4.31,4.31,0,0,1,2.7-.674,5.859,5.859,0,0,1,2.48.872c.019-.018-.139-.23-.529-.507a4.362,4.362,0,0,0-1.911-.7,4.424,4.424,0,0,0-4.991,3.716,4.188,4.188,0,0,0,.079,1.713l.347-.273a3.86,3.86,0,0,0-3.144-.016,3.47,3.47,0,0,0-1.77,1.745,3.22,3.22,0,0,0-.295,1.581C222.746,134.481,222.83,134.673,222.854,134.667Z" transform="translate(-222.704 -125.605)" fill="#455a64"/>
                    </g>
                  </g>
                </g>
              </g>
              <g id="Grupo_963297" data-name="Grupo 963297" transform="translate(17.165 8.672)">
                <g id="Grupo_963296" data-name="Grupo 963296">
                  <g id="Grupo_963295" data-name="Grupo 963295">
                    <g id="Grupo_963294" data-name="Grupo 963294">
                      <path id="Trazado_632416" data-name="Trazado 632416" d="M234.953,133.264c.064-.04-.062-.294-.1-.716a3.354,3.354,0,0,1,.3-1.622,16.586,16.586,0,0,1,.791-1.54c.226-.31.509-.165.542-.2.026-.014.01-.12-.149-.19a.629.629,0,0,0-.651.159,3.9,3.9,0,0,0-.51.69,6.069,6.069,0,0,0-.483.9,2.8,2.8,0,0,0-.186,1.866C234.652,133.094,234.906,133.3,234.953,133.264Z" transform="translate(-234.421 -128.963)" fill="#455a64"/>
                    </g>
                  </g>
                </g>
              </g>
              <g id="Grupo_963301" data-name="Grupo 963301" transform="translate(21.839 3.02)">
                <g id="Grupo_963300" data-name="Grupo 963300">
                  <g id="Grupo_963299" data-name="Grupo 963299">
                    <g id="Grupo_963298" data-name="Grupo 963298">
                      <path id="Trazado_632417" data-name="Trazado 632417" d="M244.685,124.587c.053-.028-.063-.4-.481-.893a2.579,2.579,0,0,0-.931-.684,2.178,2.178,0,0,0-1.474-.071,3.474,3.474,0,0,0-1.92,1.633c-.315.543-.44.9-.385.933s.3-.272.676-.745a3.762,3.762,0,0,1,1.769-1.361,2.105,2.105,0,0,1,2.013.534C244.393,124.318,244.62,124.627,244.685,124.587Z" transform="translate(-239.481 -122.844)" fill="#455a64"/>
                    </g>
                  </g>
                </g>
              </g>
              <g id="Grupo_963305" data-name="Grupo 963305" transform="translate(27.856 19.79)">
                <g id="Grupo_963304" data-name="Grupo 963304">
                  <g id="Grupo_963303" data-name="Grupo 963303">
                    <g id="Grupo_963302" data-name="Grupo 963302">
                      <path id="Trazado_632418" data-name="Trazado 632418" d="M246.014,148.425a8.5,8.5,0,0,0,1.316-3.611A8.283,8.283,0,0,0,247.38,141c-.147.006-.156,1.7-.538,3.737S245.879,148.372,246.014,148.425Z" transform="translate(-245.995 -140.998)" fill="#455a64"/>
                    </g>
                  </g>
                </g>
              </g>
              <g id="Grupo_963309" data-name="Grupo 963309" transform="translate(25.689 23.569)">
                <g id="Grupo_963308" data-name="Grupo 963308">
                  <g id="Grupo_963307" data-name="Grupo 963307">
                    <g id="Grupo_963306" data-name="Grupo 963306">
                      <path id="Trazado_632419" data-name="Trazado 632419" d="M243.685,150.363a6.332,6.332,0,0,0,.918-2.57,6.165,6.165,0,0,0,.218-2.7,9.679,9.679,0,0,0-.7,2.611A9.561,9.561,0,0,0,243.685,150.363Z" transform="translate(-243.649 -145.09)" fill="#455a64"/>
                    </g>
                  </g>
                </g>
              </g>
              <g id="Grupo_963313" data-name="Grupo 963313" transform="translate(10.971 31.588)">
                <g id="Grupo_963312" data-name="Grupo 963312">
                  <g id="Grupo_963311" data-name="Grupo 963311">
                    <g id="Grupo_963310" data-name="Grupo 963310">
                      <path id="Trazado_632420" data-name="Trazado 632420" d="M227.754,153.77a8.047,8.047,0,0,0,1.344,4.464,8.342,8.342,0,0,0,3.289,3.375,29,29,0,0,1-2.856-3.617A28.272,28.272,0,0,1,227.754,153.77Z" transform="translate(-227.716 -153.77)" fill="#455a64"/>
                    </g>
                  </g>
                </g>
              </g>
              <g id="Grupo_963317" data-name="Grupo 963317" transform="translate(7.848 28.182)">
                <g id="Grupo_963316" data-name="Grupo 963316">
                  <g id="Grupo_963315" data-name="Grupo 963315">
                    <g id="Grupo_963314" data-name="Grupo 963314">
                      <path id="Trazado_632421" data-name="Trazado 632421" d="M224.527,150.084a6.5,6.5,0,0,0,.322,4.165,6.635,6.635,0,0,0,2.425,3.435,22.829,22.829,0,0,1-1.955-3.6A22.5,22.5,0,0,1,224.527,150.084Z" transform="translate(-224.336 -150.083)" fill="#455a64"/>
                    </g>
                  </g>
                </g>
              </g>
            </g>
          </g>
          <g id="Grupo_963320" data-name="Grupo 963320" transform="translate(68.495 46.072)">
            <path id="Trazado_632422" data-name="Trazado 632422" d="M226.737,178.484l.184-4.453,21.692-4.582.767,3.666Z" transform="translate(-226.737 -169.449)" fill="#fff"/>
          </g>
          <g id="Grupo_963345" data-name="Grupo 963345" transform="translate(0 16.123)">
            <g id="Grupo_963321" data-name="Grupo 963321" transform="translate(0 81.886)">
              <path id="Trazado_632423" data-name="Trazado 632423" d="M153.177,236.638s-1.072.551-.324,1.335,10.613,9.545,11.945,10.4a28.164,28.164,0,0,0,5.325,1.9l2.607-.485,1.526-6.283,1.84-3.023-.469-.695,1.733-6.718s-1.5-.611-2.192.472c-.97,1.528-2.31,4-2.31,4s-2.713.413-3.7-.764-6.738-10.882-7.434-11.051-1.752.043-1.189,1.587,4.241,7.046,4.1,7.348-.7.715-.968.448-6.137-8.015-7.067-8.148c-.99-.141-1.7.659-.791,2.152s5.684,6.941,5.466,7.29-.854-.073-.854-.073-5.459-5.7-6.226-5.6c-.851.113-.984.969-.553,1.677s5.964,6.056,6.062,6.481c.064.279-.171,1.379-.616,1S153.611,236.276,153.177,236.638Z" transform="translate(-152.588 -225.673)" fill="#ffbe9d"/>
            </g>
            <g id="Grupo_963322" data-name="Grupo 963322" transform="translate(52.68 135.301)">
              <path id="Trazado_632424" data-name="Trazado 632424" d="M213.3,297.784l-1.148,74.525-2.531,77.364,21,1.518,7.085-78.882,8.064-55.971,1.775-.109L263.4,374.5l9.887,74.779c1.229-.307,19.824-1.775,19.824-1.775l-12.9-151.416-2.15-12.593-55.283,1.229Z" transform="translate(-209.616 -283.497)" fill="#263238"/>
            </g>
            <g id="Grupo_963323" data-name="Grupo 963323" transform="translate(46.393 32.067)">
              <path id="Trazado_632425" data-name="Trazado 632425" d="M274.929,249.126l-1.6-43.1-2.659-29.766H252.545l-4.628-4.513-23.248,4.513-2.152,6.493s-18.671,5.944-19.707,7.757c0,0,6.549,25.846,9.633,40.329,2.115,9.938,4.344,20.123,4.344,20.123l-5.9,47.683c-.234,0,35.916-1.591,35.916-1.591l34.924-3.778Z" transform="translate(-202.81 -171.742)" fill="#455a64"/>
            </g>
            <g id="Grupo_963324" data-name="Grupo 963324" transform="translate(121.254)">
              <path id="Trazado_632426" data-name="Trazado 632426" d="M299.986,160.056s-5.321.418-5.636.418-5.792.5-5.792.5a2.808,2.808,0,0,1,1.511-1.889c1.259-.566,3.66-1.443,3.912-1.884s.809-1.075.306-1.767-9.679-10.006-9.994-10.511-.818-1.448,0-1.637,1.826.693,2.518,1.259,4.266,3.585,4.643,3.4.064-.5.064-.5-6.068-6.245-6.131-6.433-.778-2.03.95-1.728c.828.145,7.132,6.588,7.385,6.336s-5.289-7.366-4.785-7.932,1.071-1.133,2.078,0,5.346,6.925,5.664,6.988a.527.527,0,0,0,.569-.693c-.126-.441-2.7-4.929-2.7-5.433s.506-.628,1.01-.691,5.911,7.76,5.911,7.76,4.174,6.716,4.6,7.492a25.432,25.432,0,0,1,1.2,3.4Z" transform="translate(-283.849 -137.029)" fill="#ffbe9d"/>
            </g>
            <g id="Grupo_963325" data-name="Grupo 963325" transform="translate(113.533 18.713)">
              <path id="Trazado_632427" data-name="Trazado 632427" d="M298.021,161.946l3.626,13.983-8.287,3.108-17.867-3.883v26.412l2.527,6.867s37.39-18.045,39.874-20.031c4.643-3.714-2.727-16.5-2.727-16.5l-6.788-14.615Z" transform="translate(-275.492 -157.286)" fill="#455a64"/>
            </g>
            <g id="Grupo_963326" data-name="Grupo 963326" transform="translate(17.614 50.83)">
              <path id="Trazado_632428" data-name="Trazado 632428" d="M200.435,192.054l-4.183,8.373L185.685,235.41l-11.809,3.15-2.22,10.794s18.467,4.33,21.892,2.841c5.817-2.525,15.525-26.611,15.525-26.611l-1.314-20.592Z" transform="translate(-171.656 -192.054)" fill="#455a64"/>
            </g>
            <g id="Grupo_963328" data-name="Grupo 963328" transform="translate(139.583 37.049)">
              <g id="Grupo_963327" data-name="Grupo 963327">
                <path id="Trazado_632429" data-name="Trazado 632429" d="M315.524,183.16a24.845,24.845,0,0,0-11.832-6,6.014,6.014,0,0,1,1.986.187,17.872,17.872,0,0,1,8.522,4.317A5.981,5.981,0,0,1,315.524,183.16Z" transform="translate(-303.692 -177.135)" fill="#263238"/>
              </g>
            </g>
            <g id="Grupo_963330" data-name="Grupo 963330" transform="translate(138.952 36.428)">
              <g id="Grupo_963329" data-name="Grupo 963329">
                <path id="Trazado_632430" data-name="Trazado 632430" d="M311.947,177.316a16.136,16.136,0,0,0-8.936.566,9.547,9.547,0,0,1,8.936-.566Z" transform="translate(-303.009 -176.463)" fill="#263238"/>
              </g>
            </g>
            <g id="Grupo_963332" data-name="Grupo 963332" transform="translate(66.036 36.577)">
              <g id="Grupo_963331" data-name="Grupo 963331">
                <path id="Trazado_632431" data-name="Trazado 632431" d="M254.166,176.628a6.055,6.055,0,0,1-1.015.7c-.332.221-.75.47-1.25.735s-1.057.589-1.7.886a42.963,42.963,0,0,1-4.619,1.917,57.712,57.712,0,0,1-5.892,1.665,62.744,62.744,0,0,1-11.016,1.409c-1.42.054-2.571.057-3.365.026a6.057,6.057,0,0,1-1.231-.091,6.124,6.124,0,0,1,1.23-.1c.792-.026,1.937-.081,3.349-.178a74.693,74.693,0,0,0,10.929-1.538c2.1-.475,4.078-1.036,5.853-1.615,1.763-.613,3.338-1.206,4.618-1.806.651-.274,1.219-.567,1.724-.816s.937-.464,1.281-.659A6.028,6.028,0,0,1,254.166,176.628Z" transform="translate(-224.074 -176.625)" fill="#263238"/>
              </g>
            </g>
            <g id="Grupo_963334" data-name="Grupo 963334" transform="translate(67.219 108.71)">
              <g id="Grupo_963333" data-name="Grupo 963333">
                <path id="Trazado_632432" data-name="Trazado 632432" d="M259.744,257.325a7.49,7.49,0,0,1-1.333.34c-.864.2-2.127.415-3.7.625a60.384,60.384,0,0,1-24.532-1.862c-1.52-.444-2.736-.852-3.56-1.176a7.483,7.483,0,0,1-1.266-.537,7.525,7.525,0,0,1,1.327.359c.841.269,2.067.625,3.591,1.025a67.426,67.426,0,0,0,24.4,1.852c1.567-.166,2.833-.333,3.7-.471A7.593,7.593,0,0,1,259.744,257.325Z" transform="translate(-225.355 -254.711)" fill="#263238"/>
              </g>
            </g>
            <g id="Grupo_963336" data-name="Grupo 963336" transform="translate(30.978 75.95)">
              <g id="Grupo_963335" data-name="Grupo 963335">
                <path id="Trazado_632433" data-name="Trazado 632433" d="M186.131,240.688c-.127-.038,1.169-4.868,2.9-10.788s3.23-10.691,3.358-10.654-1.169,4.866-2.9,10.789S186.259,240.725,186.131,240.688Z" transform="translate(-186.123 -219.247)" fill="#263238"/>
              </g>
            </g>
            <g id="Grupo_963338" data-name="Grupo 963338" transform="translate(87.592 125.294)">
              <g id="Grupo_963337" data-name="Grupo 963337">
                <path id="Trazado_632434" data-name="Trazado 632434" d="M247.494,272.664c.133,0,.375,5.372.54,12.005s.192,12.014.059,12.018-.374-5.372-.539-12.006S247.362,272.667,247.494,272.664Z" transform="translate(-247.41 -272.664)" fill="#263238"/>
              </g>
            </g>
            <g id="Grupo_963340" data-name="Grupo 963340" transform="translate(79.854 166.143)">
              <g id="Grupo_963339" data-name="Grupo 963339">
                <path id="Trazado_632435" data-name="Trazado 632435" d="M260.1,316.9c.024.131-4.673,1.1-10.489,2.167s-10.554,1.824-10.578,1.693,4.672-1.1,10.491-2.166S260.076,316.769,260.1,316.9Z" transform="translate(-239.033 -316.884)" fill="#455a64"/>
              </g>
            </g>
            <g id="Grupo_963342" data-name="Grupo 963342" transform="translate(110.47 222.497)">
              <g id="Grupo_963341" data-name="Grupo 963341">
                <path id="Trazado_632436" data-name="Trazado 632436" d="M283.944,378.089a43.819,43.819,0,0,0-6.042.782,43.48,43.48,0,0,0-5.725,2.09,5.282,5.282,0,0,1,1.51-1.007,17.977,17.977,0,0,1,8.452-2.064A5.282,5.282,0,0,1,283.944,378.089Z" transform="translate(-272.176 -377.889)" fill="#455a64"/>
              </g>
            </g>
            <g id="Grupo_963344" data-name="Grupo 963344" transform="translate(63.966 225.717)">
              <g id="Grupo_963343" data-name="Grupo 963343">
                <path id="Trazado_632437" data-name="Trazado 632437" d="M229.538,381.977c-.031.141-1.742-.212-3.863-.11-2.123.083-3.8.583-3.84.445a10.175,10.175,0,0,1,7.7-.335Z" transform="translate(-221.834 -381.375)" fill="#455a64"/>
              </g>
            </g>
          </g>
          <g id="Grupo_963347" data-name="Grupo 963347" transform="translate(49.686 80.013)">
            <g id="Grupo_963346" data-name="Grupo 963346">
              <path id="Trazado_632438" data-name="Trazado 632438" d="M217.059,253.585a1.875,1.875,0,0,1-.152-.472c-.091-.367-.205-.821-.344-1.374-.294-1.266-.693-2.982-1.179-5.071-.977-4.351-2.3-10.244-3.762-16.757s-2.771-12.412-3.742-16.763l-1.136-5.08-.295-1.385a1.888,1.888,0,0,1-.07-.491,1.966,1.966,0,0,1,.164.467c.1.364.229.815.382,1.363.323,1.187.761,2.912,1.285,5.046,1.048,4.271,2.421,10.187,3.881,16.737s2.731,12.485,3.625,16.789c.424,2.1.772,3.83,1.03,5.1.1.561.187,1.021.255,1.393A1.962,1.962,0,0,1,217.059,253.585Z" transform="translate(-206.376 -206.192)" fill="#263238"/>
            </g>
          </g>
          <g id="Grupo_963349" data-name="Grupo 963349" transform="translate(116.017 67.637)">
            <g id="Grupo_963348" data-name="Grupo 963348">
              <path id="Trazado_632439" data-name="Trazado 632439" d="M278.181,192.794a1.082,1.082,0,0,1,.042.262l.072.775c.059.682.139,1.688.222,2.984.176,2.592.382,6.345.615,10.984.463,9.278,1.006,22.1,1.537,36.262.084,2.282.166,4.528.245,6.661l0-.028c1.887,12.46,3.557,23.487,4.763,31.439.575,3.937,1.039,7.111,1.364,9.34q.22,1.606.346,2.522c.032.267.058.482.079.656a.9.9,0,0,1,.012.224.827.827,0,0,1-.056-.218c-.032-.171-.073-.384-.123-.648l-.429-2.51c-.36-2.223-.873-5.389-1.509-9.317-1.244-7.947-2.97-18.966-4.919-31.415l0-.014v-.014c-.079-2.133-.163-4.38-.248-6.661C279.094,216.119,278.284,195.414,278.181,192.794Z" transform="translate(-278.181 -192.794)" fill="#263238"/>
            </g>
          </g>
          <g id="Grupo_963351" data-name="Grupo 963351" transform="translate(66.981 54.334)" opacity="0.3">
            <g id="Grupo_963350" data-name="Grupo 963350">
              <path id="Trazado_632440" data-name="Trazado 632440" d="M251.844,178.394c-8.738,3.521-17.372,5.695-26.747,5.7a7.577,7.577,0,0,0,4.89,2.153,19.619,19.619,0,0,0,5.485-.468,82.9,82.9,0,0,0,13.344-3.749C250.3,181.475,252.048,179.869,251.844,178.394Z" transform="translate(-225.097 -178.394)"/>
            </g>
          </g>
          <g id="Grupo_963353" data-name="Grupo 963353" transform="translate(50.21 81.518)" opacity="0.3">
            <g id="Grupo_963352" data-name="Grupo 963352">
              <path id="Trazado_632441" data-name="Trazado 632441" d="M206.942,207.821c.143,3.366-.229,7.41.475,10.7a20.068,20.068,0,0,0,4.206,9.049C209.994,221.232,208.618,214.285,206.942,207.821Z" transform="translate(-206.942 -207.821)"/>
            </g>
          </g>
          <g id="Grupo_963355" data-name="Grupo 963355" transform="translate(77.027 132.197)" opacity="0.3">
            <g id="Grupo_963354" data-name="Grupo 963354">
              <path id="Trazado_632442" data-name="Trazado 632442" d="M236.259,262.726l-.286-.043c2.828,3.213,7.521,3.547,11.8,3.577s8.93-.247,11.8-3.421A57.917,57.917,0,0,1,236.259,262.726Z" transform="translate(-235.973 -262.683)"/>
            </g>
          </g>
        </g>
      </g>
      <g id="Speech_Bubble" data-name="Speech Bubble" transform="translate(141.674 111.22)">
        <g id="Grupo_963374" data-name="Grupo 963374">
          <g id="Grupo_963365" data-name="Grupo 963365">
            <g id="Grupo_963364" data-name="Grupo 963364">
              <g id="Grupo_963359" data-name="Grupo 963359" transform="translate(0.157 0.17)">
                <g id="Grupo_963358" data-name="Grupo 963358">
                  <g id="Grupo_963357" data-name="Grupo 963357">
                    <path id="Trazado_632443" data-name="Trazado 632443" d="M204.891,161.375,194.713,159.1a24.3,24.3,0,1,1,4.5-7.456l.007-.012Z" transform="translate(-152.264 -118.764)" fill="#fff"/>
                  </g>
                </g>
              </g>
              <g id="Grupo_963363" data-name="Grupo 963363">
                <g id="Grupo_963362" data-name="Grupo 963362">
                  <g id="Grupo_963361" data-name="Grupo 963361">
                    <g id="Grupo_963360" data-name="Grupo 963360">
                      <path id="Trazado_632444" data-name="Trazado 632444" d="M204.877,161.361l-5.593-9.791a.091.091,0,0,0-.125-.034.089.089,0,0,0-.029.027l-.008.011.16.086a24.248,24.248,0,0,0,1.308-12.582,21.953,21.953,0,0,0-.934-3.737c-.228-.622-.441-1.262-.693-1.895l-.894-1.873a24.517,24.517,0,0,0-13.75-11.686A24.228,24.228,0,0,0,174.14,118.7a24.783,24.783,0,0,0-10.258,3.426,23.986,23.986,0,0,0-8.042,7.9,24.415,24.415,0,0,0-3.664,10.908,24.783,24.783,0,0,0,1.577,10.909,23.978,23.978,0,0,0,5.743,8.7,24.652,24.652,0,0,0,16.942,6.889,26.238,26.238,0,0,0,7.866-1.3,24.173,24.173,0,0,0,10.462-6.987l-.085.028,10.2,2.192L194.719,159a.088.088,0,0,0-.085.028,24.13,24.13,0,0,1-10.412,6.863,26.091,26.091,0,0,1-7.785,1.252,24.387,24.387,0,0,1-16.706-6.845,23.666,23.666,0,0,1-5.649-8.586,24.463,24.463,0,0,1-1.544-10.75,24.077,24.077,0,0,1,3.613-10.743,23.648,23.648,0,0,1,7.918-7.781,24.455,24.455,0,0,1,10.105-3.386,23.928,23.928,0,0,1,10.035,1.16,24.249,24.249,0,0,1,13.6,11.5l.89,1.848c.252.624.464,1.256.692,1.871a21.713,21.713,0,0,1,.94,3.692,24.181,24.181,0,0,1-1.224,12.474.091.091,0,0,0,.16.086l.008-.011-.153-.007C202.762,157.8,204.545,160.8,204.877,161.361Z" transform="translate(-152.094 -118.579)" fill="#263238"/>
                    </g>
                  </g>
                </g>
              </g>
            </g>
          </g>
          <g id="Grupo_963373" data-name="Grupo 963373" transform="translate(11.016 14.724)">
            <g id="Grupo_963372" data-name="Grupo 963372">
              <g id="Grupo_963371" data-name="Grupo 963371">
                <g id="Grupo_963370" data-name="Grupo 963370">
                  <g id="Grupo_963369" data-name="Grupo 963369">
                    <g id="Grupo_963368" data-name="Grupo 963368">
                      <g id="Grupo_963367" data-name="Grupo 963367">
                        <g id="Grupo_963366" data-name="Grupo 963366">
                          <path id="Trazado_632445" data-name="Trazado 632445" d="M164.02,144.728l3.486-3.486,6.723,5.976,13.2-12.7L190.663,138l-16.932,15.936Z" transform="translate(-164.02 -134.519)" fill="#ef8b53"/>
                        </g>
                      </g>
                    </g>
                  </g>
                </g>
              </g>
            </g>
          </g>
        </g>
      </g>
    </g>
  </g>
</svg>
