<svg xmlns="http://www.w3.org/2000/svg" xmlns:xlink="http://www.w3.org/1999/xlink" width="77" height="76" viewBox="0 0 77 76">
  <defs>
    <clipPath id="clip-path">
      <rect id="Rectángulo_307014" data-name="Rectángulo 307014" width="77" height="76" transform="translate(614 1801)" fill="#583cb6"/>
    </clipPath>
  </defs>
  <g id="Enmascarar_grupo_878437" data-name="Enmascarar grupo 878437" transform="translate(-614 -1801)" clip-path="url(#clip-path)">
    <g id="produccion" transform="translate(614.505 1801)">
      <path id="Trazado_632021" data-name="Trazado 632021" d="M67.123,59.533H8.857a7.6,7.6,0,1,0,0,15.2H67.123a7.6,7.6,0,1,0,0-15.2Zm0,0" fill="#4a4a56"/>
      <g id="Grupo_962114" data-name="Grupo 962114">
        <path id="Trazado_632022" data-name="Trazado 632022" d="M12.657,67.133A2.533,2.533,0,1,1,10.123,64.6,2.533,2.533,0,0,1,12.657,67.133Zm0,0" fill="#676b7f"/>
        <path id="Trazado_632023" data-name="Trazado 632023" d="M26.59,67.133A2.533,2.533,0,1,1,24.057,64.6,2.533,2.533,0,0,1,26.59,67.133Zm0,0" fill="#676b7f"/>
        <path id="Trazado_632024" data-name="Trazado 632024" d="M40.523,67.133A2.533,2.533,0,1,1,37.99,64.6,2.533,2.533,0,0,1,40.523,67.133Zm0,0" fill="#676b7f"/>
        <path id="Trazado_632025" data-name="Trazado 632025" d="M54.457,67.133A2.533,2.533,0,1,1,51.923,64.6,2.533,2.533,0,0,1,54.457,67.133Zm0,0" fill="#676b7f"/>
        <path id="Trazado_632026" data-name="Trazado 632026" d="M68.39,67.133A2.533,2.533,0,1,1,65.857,64.6,2.533,2.533,0,0,1,68.39,67.133Zm0,0" fill="#676b7f"/>
      </g>
      <path id="Trazado_632027" data-name="Trazado 632027" d="M36.723,0h2.533V7.6H36.723Zm0,0" fill="#878b9b"/>
      <path id="Trazado_632028" data-name="Trazado 632028" d="M46.857,25.333H40.523V22.8h3.8V16.213a1.15,1.15,0,0,0-.38-.886L37.99,9.373l-5.953,5.954a1.148,1.148,0,0,0-.38.886V22.8h3.8v2.533H29.123v-9.12a3.451,3.451,0,0,1,1.14-2.66L37.99,5.827l7.727,7.727a3.644,3.644,0,0,1,1.14,2.66Zm0,0" fill="#878b9b"/>
      <path id="Trazado_632029" data-name="Trazado 632029" d="M43.563,35.973l-2.28-2.28a2.5,2.5,0,0,1-.76-1.773V21.533H35.457V31.92a2.5,2.5,0,0,1-.76,1.773l-2.28,2.28a2.5,2.5,0,0,0-.76,1.773V59.533H44.323V37.746a2.5,2.5,0,0,0-.76-1.773Zm0,0" fill="#5da364"/>
      <path id="Trazado_632030" data-name="Trazado 632030" d="M35.457,21.533h5.067v7.6H35.457Zm0,0" fill="#4a4a56"/>
      <path id="Trazado_632031" data-name="Trazado 632031" d="M31.657,41.8H44.323V53.2H31.657Zm0,0" fill="#f4c167"/>
      <path id="Trazado_632032" data-name="Trazado 632032" d="M59.523,0h2.533V7.6H59.523Zm0,0" fill="#878b9b"/>
      <path id="Trazado_632033" data-name="Trazado 632033" d="M69.657,25.333H63.323V22.8h3.8V16.213a1.15,1.15,0,0,0-.38-.886L60.79,9.373l-5.953,5.954a1.148,1.148,0,0,0-.38.886V22.8h3.8v2.533H51.923v-9.12a3.451,3.451,0,0,1,1.14-2.66L60.79,5.827l7.727,7.727a3.644,3.644,0,0,1,1.14,2.66Zm0,0" fill="#878b9b"/>
      <path id="Trazado_632034" data-name="Trazado 632034" d="M66.363,35.973l-2.28-2.28a2.5,2.5,0,0,1-.76-1.773V21.533H58.257V31.92a2.5,2.5,0,0,1-.76,1.773l-2.28,2.28a2.5,2.5,0,0,0-.76,1.773V59.533H67.123V37.746a2.5,2.5,0,0,0-.76-1.773Zm0,0" fill="#5da364"/>
      <path id="Trazado_632035" data-name="Trazado 632035" d="M58.257,21.533h5.067v7.6H58.257Zm0,0" fill="#4a4a56"/>
      <path id="Trazado_632036" data-name="Trazado 632036" d="M54.457,41.8H67.123V53.2H54.457Zm0,0" fill="#f4c167"/>
      <path id="Trazado_632037" data-name="Trazado 632037" d="M12.657,0H15.19V7.6H12.657Zm0,0" fill="#878b9b"/>
      <path id="Trazado_632038" data-name="Trazado 632038" d="M22.79,25.333H16.457V22.8h3.8V16.213a1.15,1.15,0,0,0-.38-.886L13.923,9.373,7.971,15.327a1.367,1.367,0,0,0-.38.886V22.8h3.8v2.533H5.057v-9.12a3.451,3.451,0,0,1,1.14-2.66l7.727-7.727,7.727,7.727a3.644,3.644,0,0,1,1.14,2.66Zm0,0" fill="#878b9b"/>
      <path id="Trazado_632039" data-name="Trazado 632039" d="M19.5,35.973l-2.28-2.28a2.5,2.5,0,0,1-.76-1.773V21.533H11.39V31.92a2.5,2.5,0,0,1-.76,1.773l-2.28,2.28a2.5,2.5,0,0,0-.76,1.773V59.533H20.257V37.746a2.5,2.5,0,0,0-.76-1.773Zm0,0" fill="#5da364"/>
      <path id="Trazado_632040" data-name="Trazado 632040" d="M11.39,21.533h5.067v7.6H11.39Zm0,0" fill="#4a4a56"/>
      <path id="Trazado_632041" data-name="Trazado 632041" d="M7.59,41.8H20.257V53.2H7.59Zm0,0" fill="#f4c167"/>
      <path id="Trazado_632042" data-name="Trazado 632042" d="M68.39,58.393V37.746a3.449,3.449,0,0,0-1.14-2.66l-2.28-2.28a1.148,1.148,0,0,1-.38-.886V25.333h5.067v-9.12a3.449,3.449,0,0,0-1.14-2.66l-6.46-6.46V0H59.523V7.094l-6.46,6.46a3.646,3.646,0,0,0-1.14,2.66v9.12H56.99V31.92a1.15,1.15,0,0,1-.38.886l-2.28,2.28a3.646,3.646,0,0,0-1.14,2.66v20.52h-7.6V37.746a3.449,3.449,0,0,0-1.14-2.66l-2.28-2.28a1.148,1.148,0,0,1-.38-.886V25.333h5.067v-9.12a3.449,3.449,0,0,0-1.14-2.66l-6.46-6.46V0H36.723V7.094l-6.46,6.46a3.646,3.646,0,0,0-1.14,2.66v9.12H34.19V31.92a1.15,1.15,0,0,1-.38.886l-2.28,2.28a3.646,3.646,0,0,0-1.14,2.66v20.52H21.523V37.746a3.449,3.449,0,0,0-1.14-2.66l-2.28-2.28a1.148,1.148,0,0,1-.38-.886V25.333H22.79v-9.12a3.449,3.449,0,0,0-1.14-2.66l-6.46-6.46V0H12.657V7.094L6.2,13.554a3.646,3.646,0,0,0-1.14,2.66v9.12h5.067V31.92a1.15,1.15,0,0,1-.38.886l-2.28,2.28a3.646,3.646,0,0,0-1.14,2.66v20.9A8.863,8.863,0,0,0,8.857,76H67.123A8.847,8.847,0,0,0,68.39,58.393Zm-2.533-6.46H55.723V43.067H65.857ZM54.457,22.8V16.213a1.148,1.148,0,0,1,.38-.886L60.79,9.373l5.954,5.954a1.15,1.15,0,0,1,.38.886V22.8H64.59V20.267h-7.6V22.8Zm7.6,5.067H59.523V22.8h2.533ZM56.1,36.86l2.28-2.28a3.644,3.644,0,0,0,1.14-2.66V30.4h2.533v1.52a3.451,3.451,0,0,0,1.14,2.66l2.28,2.28a1.15,1.15,0,0,1,.38.886v2.787H55.723V37.746a1.367,1.367,0,0,1,.38-.886Zm-.38,17.606H65.857v3.8H55.723ZM43.057,51.933H32.923V43.067H43.057ZM31.657,22.8V16.213a1.148,1.148,0,0,1,.38-.886L37.99,9.373l5.954,5.954a1.15,1.15,0,0,1,.38.886V22.8H41.79V20.267h-7.6V22.8Zm7.6,5.067H36.723V22.8h2.533ZM33.3,36.86l2.28-2.28a3.644,3.644,0,0,0,1.14-2.66V30.4h2.533v1.52a3.451,3.451,0,0,0,1.14,2.66l2.28,2.28a1.15,1.15,0,0,1,.38.886v2.787H32.923V37.746a1.367,1.367,0,0,1,.38-.886Zm-.38,17.606H43.057v3.8H32.923ZM18.99,51.933H8.857V43.067H18.99ZM7.59,22.8V16.213a1.148,1.148,0,0,1,.38-.886l5.953-5.954,5.954,5.954a1.15,1.15,0,0,1,.38.886V22.8H17.723V20.267h-7.6V22.8Zm7.6,5.067H12.657V22.8H15.19ZM9.237,36.86l2.28-2.28a3.644,3.644,0,0,0,1.14-2.66V30.4H15.19v1.52a3.451,3.451,0,0,0,1.14,2.66l2.28,2.28a1.15,1.15,0,0,1,.38.886v2.787H8.857V37.746a1.367,1.367,0,0,1,.38-.886Zm-.38,17.606H18.99v3.8H8.857Zm58.267,19H8.857a6.333,6.333,0,0,1,0-12.667H67.123a6.333,6.333,0,1,1,0,12.667Zm0,0"/>
      <path id="Trazado_632043" data-name="Trazado 632043" d="M10.123,63.333a3.8,3.8,0,1,0,0,7.6,3.8,3.8,0,1,0,0-7.6Zm0,5.067a1.267,1.267,0,0,1,0-2.533,1.267,1.267,0,0,1,0,2.533Zm0,0"/>
      <path id="Trazado_632044" data-name="Trazado 632044" d="M24.057,63.333a3.8,3.8,0,1,0,3.8,3.8A3.732,3.732,0,0,0,24.057,63.333Zm0,5.067a1.267,1.267,0,1,1,1.267-1.267A1.2,1.2,0,0,1,24.057,68.4Zm0,0"/>
      <path id="Trazado_632045" data-name="Trazado 632045" d="M37.99,63.333a3.8,3.8,0,1,0,3.8,3.8A3.732,3.732,0,0,0,37.99,63.333Zm0,5.067a1.267,1.267,0,1,1,1.267-1.267A1.2,1.2,0,0,1,37.99,68.4Zm0,0"/>
      <path id="Trazado_632046" data-name="Trazado 632046" d="M51.923,63.333a3.8,3.8,0,1,0,3.8,3.8A3.732,3.732,0,0,0,51.923,63.333Zm0,5.067a1.267,1.267,0,1,1,1.267-1.267A1.2,1.2,0,0,1,51.923,68.4Zm0,0"/>
      <path id="Trazado_632047" data-name="Trazado 632047" d="M65.857,63.333a3.8,3.8,0,1,0,3.8,3.8A3.732,3.732,0,0,0,65.857,63.333Zm0,5.067a1.267,1.267,0,1,1,1.267-1.267A1.2,1.2,0,0,1,65.857,68.4Zm0,0"/>
    </g>
  </g>
</svg>
