<svg xmlns="http://www.w3.org/2000/svg" xmlns:xlink="http://www.w3.org/1999/xlink" width="110" height="110" viewBox="0 0 110 110">
  <defs>
    <clipPath id="clip-path">
      <rect id="Rectángulo_307019" data-name="Rectángulo 307019" width="84" height="84" transform="translate(338 2443)" fill="#fff"/>
    </clipPath>
  </defs>
  <g id="Grupo_980564" data-name="Grupo 980564" transform="translate(-325 -2431)">
    <circle id="Elipse_7746" data-name="Elipse 7746" cx="55" cy="55" r="55" transform="translate(325 2431)" fill="#f0bd51"/>
    <g id="Enmascarar_grupo_878439" data-name="Enmascarar grupo 878439" clip-path="url(#clip-path)">
      <g id="brazo-robotico" transform="translate(338 2443)">
        <path id="Trazado_632049" data-name="Trazado 632049" d="M39.1,9.771l9.9,9.9L25.24,43.429l-9.9-9.9Zm0,0" fill="#195c85"/>
        <path id="Trazado_632050" data-name="Trazado 632050" d="M74.2,33.6l-5.6,5.6L42,18.24l9.9-9.9Zm0,0" fill="#195c85"/>
        <path id="Trazado_632051" data-name="Trazado 632051" d="M1.4,74.2H54.6v8.4H1.4Zm0,0" fill="#32b1cc"/>
        <path id="Trazado_632052" data-name="Trazado 632052" d="M68.6,43.4A5.6,5.6,0,0,0,63,49V63l5.6-2.8V49H77V60.2L82.6,63V49A5.6,5.6,0,0,0,77,43.4Zm0,0" fill="#32b1cc"/>
        <path id="Trazado_632053" data-name="Trazado 632053" d="M11.2,42h14V74.2h-14Zm0,0" fill="#195c85"/>
        <path id="Trazado_632054" data-name="Trazado 632054" d="M29.4,42A11.2,11.2,0,1,1,18.2,30.8,11.2,11.2,0,0,1,29.4,42Zm0,0" fill="#d9176c"/>
        <path id="Trazado_632055" data-name="Trazado 632055" d="M23.8,42a5.6,5.6,0,1,1-5.6-5.6A5.6,5.6,0,0,1,23.8,42Zm0,0" fill="#fcf05a"/>
        <path id="Trazado_632056" data-name="Trazado 632056" d="M57.4,12.6A11.2,11.2,0,1,1,46.2,1.4,11.2,11.2,0,0,1,57.4,12.6Zm0,0" fill="#d9176c"/>
        <path id="Trazado_632057" data-name="Trazado 632057" d="M51.8,12.6A5.6,5.6,0,1,1,46.2,7,5.6,5.6,0,0,1,51.8,12.6Zm0,0" fill="#fcf05a"/>
        <path id="Trazado_632058" data-name="Trazado 632058" d="M72.8,32.2a5.6,5.6,0,0,1,5.6,5.6v7H67.2v-7A5.6,5.6,0,0,1,72.8,32.2Zm0,0" fill="#d9176c"/>
        <path id="Trazado_632059" data-name="Trazado 632059" d="M16.8,70a1.4,1.4,0,0,1-1.4-1.4V60.2a1.4,1.4,0,0,1,2.8,0v8.4A1.4,1.4,0,0,1,16.8,70Zm0,0" fill="#32b1cc"/>
        <path id="Trazado_632060" data-name="Trazado 632060" d="M28,30.8a1.4,1.4,0,0,1-.99-2.39l5.6-5.6a1.4,1.4,0,0,1,1.98,1.98l-5.6,5.6a1.4,1.4,0,0,1-.99.41Zm0,0" fill="#32b1cc"/>
        <path id="Trazado_632061" data-name="Trazado 632061" d="M18.2,35a7,7,0,1,0,7,7A7,7,0,0,0,18.2,35Zm0,11.2A4.2,4.2,0,1,1,22.4,42,4.2,4.2,0,0,1,18.2,46.2Zm0,0"/>
        <path id="Trazado_632062" data-name="Trazado 632062" d="M46.2,19.6a7,7,0,1,0-7-7A7,7,0,0,0,46.2,19.6Zm0-11.2A4.2,4.2,0,1,1,42,12.6,4.2,4.2,0,0,1,46.2,8.4Zm0,0"/>
        <path id="Trazado_632063" data-name="Trazado 632063" d="M79.8,42.593V37.8a6.987,6.987,0,0,0-6.126-6.912L58.724,13.957A12.865,12.865,0,0,0,58.8,12.6a12.6,12.6,0,1,0-25.2,0c0,.223.023.44.033.658L17.454,29.438A12.569,12.569,0,0,0,9.8,51.365V72.8H1.4A1.4,1.4,0,0,0,0,74.2v8.4A1.4,1.4,0,0,0,1.4,84H54.6A1.4,1.4,0,0,0,56,82.6V74.2a1.4,1.4,0,0,0-1.4-1.4h-28V51.365a12.38,12.38,0,0,0,4.029-11.34L45.486,25.164c.238.014.473.036.714.036a12.573,12.573,0,0,0,2.124-.193L65.8,38.78V42.6A7,7,0,0,0,61.6,49V63a1.4,1.4,0,0,0,2.025,1.26l5.6-2.8A1.4,1.4,0,0,0,70,60.2V50.4h5.6v9.8a1.4,1.4,0,0,0,.775,1.26l5.6,2.8A1.4,1.4,0,0,0,84,63V49a7,7,0,0,0-4.2-6.407ZM46.2,2.8a9.8,9.8,0,1,1-9.8,9.8A9.8,9.8,0,0,1,46.2,2.8Zm7,78.4H2.8V75.6H53.2ZM23.8,72.8H12.6V53.27a12.459,12.459,0,0,0,11.2,0Zm-5.6-21A9.8,9.8,0,1,1,28,42,9.8,9.8,0,0,1,18.2,51.8ZM29.738,36.96a12.643,12.643,0,0,0-8.637-7.2L34.261,16.6a12.64,12.64,0,0,0,7.906,7.932ZM57.9,17.253,70.29,31.286a7,7,0,0,0-4.081,4.247L51.557,23.987A12.658,12.658,0,0,0,57.9,17.253ZM68.6,37.8a4.2,4.2,0,1,1,8.4,0V42H68.6ZM81.2,60.735l-2.8-1.4V49A1.4,1.4,0,0,0,77,47.6H68.6A1.4,1.4,0,0,0,67.2,49V59.335l-2.8,1.4V49a4.2,4.2,0,0,1,4.2-4.2H77A4.2,4.2,0,0,1,81.2,49Zm0,0"/>
        <path id="Trazado_632064" data-name="Trazado 632064" d="M16.8,58.8a1.4,1.4,0,0,0-1.4,1.4v8.4a1.4,1.4,0,1,0,2.8,0V60.2A1.4,1.4,0,0,0,16.8,58.8Zm0,0"/>
        <path id="Trazado_632065" data-name="Trazado 632065" d="M32.61,22.81l-5.6,5.6a1.4,1.4,0,1,0,1.98,1.98l5.6-5.6a1.4,1.4,0,0,0-1.98-1.98Zm0,0"/>
      </g>
    </g>
  </g>
</svg>
