<svg xmlns="http://www.w3.org/2000/svg" width="420" height="284" viewBox="0 0 420 284">
  <g id="Grupo_980567" data-name="Grupo 980567" transform="translate(-180 -3349)">
    <path id="Rectángulo_307027" data-name="Rectángulo 307027" d="M0,0H284A136,136,0,0,1,420,136V284a0,0,0,0,1,0,0H0a0,0,0,0,1,0,0V0A0,0,0,0,1,0,0Z" transform="translate(180 3349)" fill="#e6fff2"/>
    <g id="Grupo_963075" data-name="Grupo 963075" transform="translate(155.17 3309.427)">
      <g id="Grupo_963080" data-name="Grupo 963080" transform="translate(-145.249 21.997)">
        <g id="Grupo_963077" data-name="Grupo 963077" transform="translate(215.718 98.493)">
          <g id="Grupo_963076" data-name="Grupo 963076" transform="translate(56.806 11.284)">
            <path id="Trazado_632349" data-name="Trazado 632349" d="M289.776,113.32c-.214.387.152,35.287.152,35.287l2.843.032.957-35.316Z" transform="translate(-286.099 -113.32)" fill="#e0e0e0"/>
            <path id="Trazado_632350" data-name="Trazado 632350" d="M292.591,147.784l-3.275.171.03,4.942-3.71,1.939.023,3.249,2.423,3.354.1-4.674,3.027-1.582,2.587,1.349-.159,5.04,2.677-3.275-.15-3-3.438-2.557Z" transform="translate(-285.637 -117.231)" fill="#e0e0e0"/>
          </g>
          <rect id="Rectángulo_307289" data-name="Rectángulo 307289" width="59.631" height="16.404" rx="8.202" transform="matrix(0.638, -0.77, 0.77, 0.638, 0, 45.908)" fill="#e0e0e0"/>
          <rect id="Rectángulo_307290" data-name="Rectángulo 307290" width="34.844" height="10.295" rx="5.148" transform="translate(32.405 6.31)" fill="#e0e0e0"/>
          <path id="Rectángulo_307291" data-name="Rectángulo 307291" d="M11.521,0h0A11.521,11.521,0,0,1,23.043,11.521V60.987A11.521,11.521,0,0,1,11.521,72.508h0A11.521,11.521,0,0,1,0,60.987V11.521A11.521,11.521,0,0,1,11.521,0Z" transform="translate(1.605 35.413)" fill="#e0e0e0"/>
          <path id="Trazado_632351" data-name="Trazado 632351" d="M241.585,209.186a5.68,5.68,0,1,1-5.68-5.68A5.681,5.681,0,0,1,241.585,209.186Z" transform="translate(-222.543 -112.27)" fill="#e0e0e0"/>
          <path id="Trazado_632352" data-name="Trazado 632352" d="M241.319,151.034a5.68,5.68,0,1,1-5.68-5.68A5.68,5.68,0,0,1,241.319,151.034Z" transform="translate(-222.512 -105.671)" fill="#e0e0e0"/>
          <circle id="Elipse_7782" data-name="Elipse 7782" cx="3.446" cy="3.446" r="3.446" transform="translate(34.817 8.012)" fill="#e0e0e0"/>
          <circle id="Elipse_7783" data-name="Elipse 7783" cx="2.341" cy="2.341" r="2.341" transform="translate(60.291 9.116)" fill="#e0e0e0"/>
        </g>
        <g id="Grupo_963079" data-name="Grupo 963079" transform="translate(460.817 82.096)">
          <g id="Grupo_963078" data-name="Grupo 963078" transform="translate(0 12.365)">
            <path id="Trazado_632353" data-name="Trazado 632353" d="M514.914,96.158c.233.45-1.159,26.123-1.159,26.123l-3.255-.049-.111-26.189Z" transform="translate(-499.432 -96.044)" fill="#e0e0e0"/>
            <path id="Trazado_632354" data-name="Trazado 632354" d="M507.471,110.1l7.712.607-.378,11.651,8.627,4.8-.257,7.659-5.922,7.758.048-11.028-7.039-3.918-6.184,3.022.061,11.9-6.11-7.89.539-7.073,8.267-5.817Z" transform="translate(-498.03 -97.639)" fill="#e0e0e0"/>
          </g>
          <rect id="Rectángulo_307292" data-name="Rectángulo 307292" width="68.289" height="18.786" rx="9.393" transform="matrix(-0.638, -0.77, 0.77, -0.638, 69.965, 64.562)" fill="#e0e0e0"/>
          <path id="Rectángulo_307293" data-name="Rectángulo 307293" d="M5.895,0H34.009A5.895,5.895,0,0,1,39.9,5.895v0a5.895,5.895,0,0,1-5.895,5.895H5.895A5.895,5.895,0,0,1,0,5.895v0A5.895,5.895,0,0,1,5.895,0Z" transform="translate(47.317 19.016) rotate(180)" fill="#e0e0e0"/>
          <rect id="Rectángulo_307294" data-name="Rectángulo 307294" width="26.389" height="83.036" rx="13.194" transform="translate(82.589 123.59) rotate(180)" fill="#e0e0e0"/>
          <circle id="Elipse_7784" data-name="Elipse 7784" cx="6.505" cy="6.505" r="6.505" transform="translate(60.62 114.492) rotate(-67.393)" fill="#e0e0e0"/>
          <circle id="Elipse_7785" data-name="Elipse 7785" cx="6.505" cy="6.505" r="6.505" transform="translate(62.89 45.444)" fill="#e0e0e0"/>
          <circle id="Elipse_7786" data-name="Elipse 7786" cx="3.946" cy="3.946" r="3.946" transform="translate(36.663 9.175)" fill="#e0e0e0"/>
          <path id="Trazado_632355" data-name="Trazado 632355" d="M510.117,94.658a2.681,2.681,0,1,0,3.792,0A2.681,2.681,0,0,0,510.117,94.658Z" transform="translate(-499.312 -83.432)" fill="#e0e0e0"/>
        </g>
        <rect id="Rectángulo_307295" data-name="Rectángulo 307295" width="420" height="23.44" rx="11.72" transform="translate(590.079 207.888) rotate(180)" fill="#e0e0e0"/>
        <path id="Trazado_632356" data-name="Trazado 632356" d="M231.84,210.809a5.825,5.825,0,1,0,5.825-5.825A5.825,5.825,0,0,0,231.84,210.809Z" transform="translate(-7.008 -13.944)" fill="#e0e0e0"/>
        <circle id="Elipse_7787" data-name="Elipse 7787" cx="5.825" cy="5.825" r="5.825" transform="translate(177.036 190.118)" fill="#e0e0e0"/>
        <path id="Trazado_632357" data-name="Trazado 632357" d="M291.661,210.809a5.825,5.825,0,1,0,5.824-5.825A5.825,5.825,0,0,0,291.661,210.809Z" transform="translate(-13.796 -13.944)" fill="#e0e0e0"/>
        <path id="Trazado_632358" data-name="Trazado 632358" d="M351.482,210.809a5.825,5.825,0,1,0,5.824-5.825A5.825,5.825,0,0,0,351.482,210.809Z" transform="translate(-20.584 -13.944)" fill="#e0e0e0"/>
        <path id="Trazado_632359" data-name="Trazado 632359" d="M411.3,210.809a5.825,5.825,0,1,0,5.825-5.825A5.825,5.825,0,0,0,411.3,210.809Z" transform="translate(-27.371 -13.944)" fill="#e0e0e0"/>
        <path id="Trazado_632360" data-name="Trazado 632360" d="M471.123,210.809a5.825,5.825,0,1,0,5.825-5.825A5.825,5.825,0,0,0,471.123,210.809Z" transform="translate(-34.159 -13.944)" fill="#e0e0e0"/>
        <path id="Trazado_632361" data-name="Trazado 632361" d="M530.944,210.809a5.825,5.825,0,1,0,5.825-5.825A5.826,5.826,0,0,0,530.944,210.809Z" transform="translate(-40.947 -13.944)" fill="#e0e0e0"/>
        <path id="Trazado_632362" data-name="Trazado 632362" d="M612.5,210.809a5.825,5.825,0,1,0,5.825-5.825A5.825,5.825,0,0,0,612.5,210.809Z" transform="translate(-50.202 -13.944)" fill="#e0e0e0"/>
        <rect id="Rectángulo_307296" data-name="Rectángulo 307296" width="66.481" height="90.524" transform="translate(562.303 298.412) rotate(180)" fill="#e0e0e0"/>
        <rect id="Rectángulo_307297" data-name="Rectángulo 307297" width="66.481" height="55.353" transform="translate(268.001 300.081) rotate(180)" fill="#e0e0e0"/>
      </g>
      <g id="Speech_Bubble" data-name="Speech Bubble" transform="translate(66.918 47.573)">
        <g id="Grupo_962884" data-name="Grupo 962884">
          <g id="Grupo_962876" data-name="Grupo 962876">
            <g id="Grupo_962875" data-name="Grupo 962875">
              <g id="Grupo_962874" data-name="Grupo 962874">
                <g id="Grupo_962873" data-name="Grupo 962873">
                  <g id="Grupo_962872" data-name="Grupo 962872">
                    <g id="Grupo_962871" data-name="Grupo 962871">
                      <g id="Grupo_962870" data-name="Grupo 962870">
                        <g id="Grupo_962869" data-name="Grupo 962869">
                          <g id="Grupo_962868" data-name="Grupo 962868">
                            <g id="Grupo_962867" data-name="Grupo 962867">
                              <g id="Grupo_962866" data-name="Grupo 962866">
                                <g id="Grupo_962865" data-name="Grupo 962865">
                                  <g id="Grupo_962864" data-name="Grupo 962864">
                                    <g id="Grupo_962861" data-name="Grupo 962861" transform="translate(0.139 0.155)">
                                      <path id="Trazado_632290" data-name="Trazado 632290" d="M640.823,121.863l-4.749-8.085a29.845,29.845,0,1,0-5.2,9.345l-.007.016Z" transform="translate(-578.05 -74.423)" fill="#fff"/>
                                    </g>
                                    <g id="Grupo_962863" data-name="Grupo 962863">
                                      <g id="Grupo_962862" data-name="Grupo 962862">
                                        <path id="Trazado_632291" data-name="Trazado 632291" d="M640.962,121.788s-.229.022-.661.073l-1.914.228-7.387.9.08.108.007-.016.247-.534-.377.454a29.817,29.817,0,0,1-11.8,8.647,28.971,28.971,0,0,1-4.385,1.384,33.18,33.18,0,0,1-4.875.686,29.525,29.525,0,0,1-20.933-6.89,29.816,29.816,0,0,1-7.746-10.021,29.682,29.682,0,0,1,.742-26.721l.9-1.592c.331-.51.689-1,1.031-1.5a29.166,29.166,0,0,1,2.253-2.821c.379-.465.845-.847,1.261-1.273.438-.4.831-.856,1.3-1.217l1.386-1.107c.234-.178.452-.379.7-.54l.739-.479a30.123,30.123,0,0,1,12.724-4.792A29.5,29.5,0,0,1,617,75.947a29.71,29.71,0,0,1,17.1,14.189l.584,1.127.289.556.232.577q.454,1.153.894,2.266a40.577,40.577,0,0,1,1.137,4.474,29.7,29.7,0,0,1-1.1,14.543l-.011.032.018.029,3.56,5.97.927,1.547c.21.349.326.531.326.531s-.092-.17-.289-.515l-.888-1.545-3.507-6.062.007.062a29.685,29.685,0,0,0,1.184-14.63,40.481,40.481,0,0,0-1.129-4.514l-.894-2.289-.233-.583-.289-.562-.586-1.139a30,30,0,0,0-30.132-15.58,30.438,30.438,0,0,0-12.874,4.837l-.748.485c-.249.162-.47.365-.707.545l-1.4,1.12c-.477.365-.875.822-1.319,1.231-.421.431-.892.818-1.276,1.288a29.66,29.66,0,0,0-2.28,2.853c-.347.5-.709,1-1.044,1.517l-.908,1.611a30,30,0,0,0-.737,27.033,30.071,30.071,0,0,0,18.278,15.8,29.747,29.747,0,0,0,10.723,1.238,33.266,33.266,0,0,0,4.915-.709,29.064,29.064,0,0,0,4.416-1.412,29.817,29.817,0,0,0,11.834-8.767l-.129-.08-.007.015-.057.126.137-.018,7.429-1,1.888-.26C640.758,121.822,640.962,121.788,640.962,121.788Z" transform="translate(-578.05 -74.194)" fill="#263238"/>
                                      </g>
                                    </g>
                                  </g>
                                </g>
                              </g>
                            </g>
                          </g>
                        </g>
                      </g>
                    </g>
                  </g>
                </g>
              </g>
            </g>
          </g>
          <g id="Grupo_962883" data-name="Grupo 962883" transform="translate(12.898 17.151)">
            <g id="Grupo_962880" data-name="Grupo 962880" transform="translate(0 3.434)">
              <g id="Grupo_962877" data-name="Grupo 962877" transform="translate(0.193 0.179)">
                <rect id="Rectángulo_307287" data-name="Rectángulo 307287" width="19.446" height="21.652" fill="#e0e0e0"/>
              </g>
              <g id="Grupo_962879" data-name="Grupo 962879">
                <g id="Grupo_962878" data-name="Grupo 962878">
                  <path id="Trazado_632292" data-name="Trazado 632292" d="M627.2,126.479a.714.714,0,0,1-.007-.109c0-.084,0-.183-.008-.306,0-.287-.009-.677-.016-1.174-.009-1.042-.021-2.531-.036-4.416-.017-3.8-.041-9.19-.07-15.648l.137.152L607.756,105c-.036.038.3-.331.157-.172v5.838c0,1.91,0,3.779,0,5.6-.005,3.634-.011,7.065-.016,10.213l-.137-.152,14.054.077,3.966.04,1.054.018.274.008a.475.475,0,0,1,.1.009,2.454,2.454,0,0,1-.342.017l-1.028.018-3.935.04-14.142.078h-.137v-.153c0-3.148-.01-6.579-.016-10.213,0-1.818,0-3.687,0-5.6q0-1.433,0-2.894V104.83c-.141.155.192-.218.16-.18l19.444.024h.138v.152c-.029,6.5-.052,11.921-.069,15.744-.015,1.87-.027,3.348-.036,4.382-.007.485-.012.865-.016,1.144A3.284,3.284,0,0,1,627.2,126.479Z" transform="translate(-607.561 -104.648)" fill="#263238"/>
                </g>
              </g>
            </g>
            <g id="Grupo_962882" data-name="Grupo 962882" transform="translate(1.325)">
              <g id="Grupo_962881" data-name="Grupo 962881">
                <path id="Trazado_632293" data-name="Trazado 632293" d="M621.432,121.921l-11.689-10.887,3.412-4.541,7.838,7.3,12-14.226,3.875,4.054Z" transform="translate(-609.744 -99.568)" fill="#455a64"/>
              </g>
            </g>
          </g>
        </g>
      </g>
      <g id="Character" transform="translate(80.049 47.573)">
        <g id="Grupo_963074" data-name="Grupo 963074">
          <g id="Grupo_962885" data-name="Grupo 962885" transform="translate(115.161 109.255)">
            <path id="Trazado_632294" data-name="Trazado 632294" d="M428.4,251,446.15,239.13a11.854,11.854,0,0,1,13.772,8.789c5.872-1.229,12.1,2.88,14.119,8.528s.248,12.226-3.648,16.788-9.635,7.267-15.519,8.434c-8.466,1.68-18.364-.17-23.435-7.155C426.679,267.957,427.435,259.044,428.4,251Z" transform="translate(-427.681 -238.864)" fill="#263238"/>
          </g>
          <g id="Grupo_962886" data-name="Grupo 962886" transform="translate(39.757 53.474)">
            <path id="Trazado_632295" data-name="Trazado 632295" d="M512.735,218.892A16.24,16.24,0,0,1,522,204.6c-2.027-7.09-4.267-14.536-2.7-21.741,3.547-16.277,18.216-18.514,25.588-18.406l24.248,15.473c6.486,7.36-1.662,47.728-4.585,57.091a29.279,29.279,0,0,1-20.493,19.313c-6.778,1.681-14.526.609-19.7-4.081s-6.818-13.329-2.613-18.9A16.241,16.241,0,0,1,512.735,218.892Z" transform="translate(-512.735 -164.449)" fill="#263238"/>
          </g>
          <g id="Grupo_962905" data-name="Grupo 962905" transform="translate(6.433 121.668)">
            <g id="Grupo_962894" data-name="Grupo 962894" transform="translate(22.304)">
              <g id="Grupo_962893" data-name="Grupo 962893">
                <g id="Grupo_962887" data-name="Grupo 962887" transform="translate(0.797)">
                  <path id="Trazado_632296" data-name="Trazado 632296" d="M559.88,309.382l-2.244,99.39-132.477.522s9.827-139.518,12.689-140.881c2.136-1.017,28.307-9.6,28.307-9.6l11.64-3.387,48.114,9.229,17.449,3.821Z" transform="translate(-425.159 -255.424)" fill="#455a64"/>
                </g>
                <g id="Grupo_962892" data-name="Grupo 962892" transform="translate(0 0.739)">
                  <g id="Grupo_962889" data-name="Grupo 962889" transform="translate(115.184 11.477)">
                    <g id="Grupo_962888" data-name="Grupo 962888">
                      <path id="Trazado_632297" data-name="Trazado 632297" d="M403.927,296.86c0-.259-12.656-25.139-12.656-25.139,12.4,1.3,23.473,5.682,30.67,15.122,3.347,4.39,4.851,11.048,6.518,15.792,1.13,3.214,8.548,46.473,8.548,46.473l-29.392,12.042Z" transform="translate(-391.271 -271.721)" fill="#455a64"/>
                    </g>
                  </g>
                  <g id="Grupo_962890" data-name="Grupo 962890" transform="translate(77.962 9.048)">
                    <path id="Trazado_632298" data-name="Trazado 632298" d="M425.608,332.439l27.725-63.959c10.1,2.267,21.458,4.813,28.7,9.475L478.2,324.971l.558,87.589-53.07.278-3.27-62.333Z" transform="translate(-422.422 -268.48)" fill="#449c6e"/>
                  </g>
                  <g id="Grupo_962891" data-name="Grupo 962891">
                    <path id="Trazado_632299" data-name="Trazado 632299" d="M508.042,345.72l5.715-79L545.94,256.41l32.871,72.471v80.934l-81.231-.271Z" transform="translate(-497.58 -256.41)" fill="#449c6e"/>
                  </g>
                </g>
              </g>
            </g>
            <g id="Grupo_962896" data-name="Grupo 962896" transform="translate(22.138 0.527)">
              <g id="Grupo_962895" data-name="Grupo 962895">
                <path id="Trazado_632300" data-name="Trazado 632300" d="M507.948,345.65s-.076.379-.2,1.122-.316,1.855-.561,3.3c-.486,2.908-1.2,7.186-2.118,12.692-1.824,11.03-4.46,26.98-7.717,46.686l-.027.163h.166l81.231.316h.187v-.187c0-19.823.006-41.4.009-63.793V328.768l-.018-.038L546,256.267l-.064-.14-.146.047L513.617,266.5l-.1.032-.007.1c-1.723,24.2-3.128,43.948-4.1,57.654-.477,6.848-.849,12.184-1.1,15.816-.121,1.809-.214,3.192-.277,4.13s-.08,1.412-.08,1.412.05-.477.125-1.407l.32-4.126c.272-3.63.672-8.964,1.185-15.807,1.008-13.706,2.459-33.453,4.237-57.651l-.1.133L545.9,256.5l-.21-.094,32.852,72.481-.017-.081c0,5.636,0,11.362,0,17.142,0,22.394.006,43.97.009,63.793l.187-.186-81.232-.226.138.163c3.205-19.717,5.8-35.675,7.593-46.711.888-5.512,1.576-9.793,2.045-12.7l.522-3.3C507.9,346.032,507.948,345.65,507.948,345.65Z" transform="translate(-497.32 -256.127)" fill="#263238"/>
              </g>
            </g>
            <g id="Grupo_962897" data-name="Grupo 962897" transform="translate(41.518 87.969)">
              <rect id="Rectángulo_307288" data-name="Rectángulo 307288" width="114.058" height="14.912" transform="translate(0)" fill="#fff"/>
            </g>
            <g id="Grupo_962898" data-name="Grupo 962898" transform="translate(0 12.175)">
              <path id="Trazado_632301" data-name="Trazado 632301" d="M623.032,271.666s-7.419-.085-18.16,19.216c-12.058,21.669-19.766,49.174-19.766,49.174L614.8,356.263Z" transform="translate(-585.106 -271.666)" fill="#455a64"/>
            </g>
            <g id="Grupo_962899" data-name="Grupo 962899" transform="translate(133.089 11.117)">
              <path id="Trazado_632302" data-name="Trazado 632302" d="M452.832,273.53,449.6,413.011l-12.7.068,4.4-142.824S450.836,272.49,452.832,273.53Z" transform="translate(-436.9 -270.255)" fill="#fff"/>
            </g>
            <g id="Grupo_962900" data-name="Grupo 962900" transform="translate(45.541 4.464)">
              <path id="Trazado_632303" data-name="Trazado 632303" d="M565.256,261.379l3.886,149.478h-16.6l-.774-144.976Z" transform="translate(-551.764 -261.379)" fill="#fff"/>
            </g>
            <g id="Grupo_962902" data-name="Grupo 962902" transform="translate(19.753 34.93)" opacity="0.3">
              <g id="Grupo_962901" data-name="Grupo 962901">
                <path id="Trazado_632304" data-name="Trazado 632304" d="M584.85,311.47a19.15,19.15,0,0,1-9.168,14.39c-2.421,1.43-5.182,2.332-7.3,4.178-2.043,1.779-3.3,4.269-4.513,6.694-9,18.03-18.009,36.106-24.952,55.02-1.553,4.231-3.025,8.551-5.51,12.311s-6.163,6.968-10.588,7.822-9.545-1.184-11.306-5.333l56.018-104.53Z" transform="translate(-511.511 -302.023)"/>
              </g>
            </g>
            <g id="Grupo_962904" data-name="Grupo 962904" transform="translate(103.373 9.37)">
              <g id="Grupo_962903" data-name="Grupo 962903">
                <path id="Trazado_632305" data-name="Trazado 632305" d="M422.342,331.764s-.017.5-.024,1.467-.013,2.417-.024,4.294c-.01,3.775-.025,9.306-.045,16.363-.016,14.126-.04,34.357-.068,58.811v.163l.163,0,53.158-.284.187,0v-.188c-.1-15.736-.2-32.707-.313-50.25-.084-12.988-.166-25.662-.244-37.841v.016c1.321-16.487,2.571-32.1,3.724-46.482l.008-.106-.089-.055a61.941,61.941,0,0,0-14.622-6.132c-4.885-1.456-9.656-2.56-14.227-3.586l-.123-.027-.05.115-20.049,46.5-5.474,12.752c-.621,1.457-1.1,2.572-1.417,3.33s-.469,1.139-.469,1.139.181-.382.513-1.13.822-1.867,1.46-3.32l5.552-12.728c4.793-11.036,11.7-26.937,20.163-46.425l-.173.088c4.566,1.033,9.33,2.144,14.2,3.6a61.7,61.7,0,0,1,14.531,6.112l-.081-.16c-1.163,14.385-2.426,29.992-3.758,46.479v.016c.076,12.179.155,24.853.237,37.841.114,17.544.224,34.514.327,50.251l.187-.189-53.157.337.162.161c-.029-24.454-.052-44.685-.068-58.811-.02-7.051-.035-12.578-.045-16.35-.011-1.878-.018-3.318-.023-4.3S422.342,331.764,422.342,331.764Z" transform="translate(-422.18 -267.924)" fill="#263238"/>
              </g>
            </g>
          </g>
          <g id="Grupo_963035" data-name="Grupo 963035" transform="translate(62.736)">
            <g id="Grupo_963027" data-name="Grupo 963027">
              <g id="Grupo_963026" data-name="Grupo 963026">
                <g id="Grupo_962907" data-name="Grupo 962907" transform="translate(70.226 35.977)">
                  <g id="Grupo_962906" data-name="Grupo 962906">
                    <path id="Trazado_632306" data-name="Trazado 632306" d="M454.429,155.639A9.482,9.482,0,0,0,447,141.107L432.014,143.3l4.363,25.324c.418,2.423.907,5,2.593,6.787a8.606,8.606,0,0,0,6.363,2.367,12.977,12.977,0,0,0,9.1-22.14Z" transform="translate(-432.014 -141.107)" fill="#263238"/>
                  </g>
                </g>
                <g id="Grupo_962977" data-name="Grupo 962977" transform="translate(7.057 15.338)">
                  <g id="Grupo_962976" data-name="Grupo 962976">
                    <g id="Grupo_962909" data-name="Grupo 962909" transform="translate(12.466)">
                      <g id="Grupo_962908" data-name="Grupo 962908">
                        <path id="Trazado_632307" data-name="Trazado 632307" d="M472.417,246.076c-12.521-.027-26.058-13.218-26.3-25.736l-1.338-68.6c-1.039-20.226,9.865-37.689,30.112-38.167l1.874.064a36.2,36.2,0,0,1,34.917,34.52c.8,17.535.115,33.37-.327,42.747-.914,19.413-19.052,22.513-19.052,22.513-.043,0,1.562,17.087-1.106,22.127-5.976,11.287-10.733,10.319-18.777,10.53Z" transform="translate(-444.708 -113.574)" fill="#ffbf9d"/>
                      </g>
                    </g>
                    <g id="Grupo_962911" data-name="Grupo 962911" transform="translate(35.182 91.515)">
                      <g id="Grupo_962910" data-name="Grupo 962910">
                        <path id="Trazado_632308" data-name="Trazado 632308" d="M495.6,244.014s-12.266.293-25.027-8.354c0,0,5.793,14.7,25.233,13.628Z" transform="translate(-470.578 -235.66)" fill="#ff9a6c"/>
                      </g>
                    </g>
                    <g id="Grupo_962919" data-name="Grupo 962919" transform="translate(64.988 47.548)">
                      <g id="Grupo_962918" data-name="Grupo 962918">
                        <g id="Grupo_962917" data-name="Grupo 962917">
                          <g id="Grupo_962916" data-name="Grupo 962916">
                            <g id="Grupo_962915" data-name="Grupo 962915">
                              <g id="Grupo_962914" data-name="Grupo 962914">
                                <g id="Grupo_962913" data-name="Grupo 962913">
                                  <g id="Grupo_962912" data-name="Grupo 962912">
                                    <path id="Trazado_632309" data-name="Trazado 632309" d="M462.626,179.608a2.775,2.775,0,0,1-2.771,2.706,2.655,2.655,0,0,1-2.772-2.6,2.776,2.776,0,0,1,2.768-2.708A2.656,2.656,0,0,1,462.626,179.608Z" transform="translate(-457.083 -177.005)" fill="#263238"/>
                                  </g>
                                </g>
                              </g>
                            </g>
                          </g>
                        </g>
                      </g>
                    </g>
                    <g id="Grupo_962928" data-name="Grupo 962928" transform="translate(63.673 38.999)">
                      <g id="Grupo_962927" data-name="Grupo 962927">
                        <g id="Grupo_962926" data-name="Grupo 962926">
                          <g id="Grupo_962925" data-name="Grupo 962925">
                            <g id="Grupo_962924" data-name="Grupo 962924">
                              <g id="Grupo_962923" data-name="Grupo 962923">
                                <g id="Grupo_962922" data-name="Grupo 962922">
                                  <g id="Grupo_962921" data-name="Grupo 962921">
                                    <g id="Grupo_962920" data-name="Grupo 962920">
                                      <path id="Trazado_632310" data-name="Trazado 632310" d="M462.507,168.71c-.357.349-2.4-1.279-5.389-1.374-2.98-.139-5.223,1.321-5.534.945-.153-.168.22-.809,1.2-1.47a7.619,7.619,0,0,1,4.447-1.2,7.317,7.317,0,0,1,4.273,1.545C462.393,167.888,462.683,168.553,462.507,168.71Z" transform="translate(-451.551 -165.601)" fill="#263238"/>
                                    </g>
                                  </g>
                                </g>
                              </g>
                            </g>
                          </g>
                        </g>
                      </g>
                    </g>
                    <g id="Grupo_962936" data-name="Grupo 962936" transform="translate(37.819 47.549)">
                      <g id="Grupo_962935" data-name="Grupo 962935">
                        <g id="Grupo_962934" data-name="Grupo 962934">
                          <g id="Grupo_962933" data-name="Grupo 962933">
                            <g id="Grupo_962932" data-name="Grupo 962932">
                              <g id="Grupo_962931" data-name="Grupo 962931">
                                <g id="Grupo_962930" data-name="Grupo 962930">
                                  <g id="Grupo_962929" data-name="Grupo 962929">
                                    <path id="Trazado_632311" data-name="Trazado 632311" d="M498.87,179.609a2.775,2.775,0,0,1-2.771,2.705,2.654,2.654,0,0,1-2.772-2.6,2.777,2.777,0,0,1,2.769-2.707A2.656,2.656,0,0,1,498.87,179.609Z" transform="translate(-493.327 -177.006)" fill="#263238"/>
                                  </g>
                                </g>
                              </g>
                            </g>
                          </g>
                        </g>
                      </g>
                    </g>
                    <g id="Grupo_962945" data-name="Grupo 962945" transform="translate(34.396 39.193)">
                      <g id="Grupo_962944" data-name="Grupo 962944">
                        <g id="Grupo_962943" data-name="Grupo 962943">
                          <g id="Grupo_962942" data-name="Grupo 962942">
                            <g id="Grupo_962941" data-name="Grupo 962941">
                              <g id="Grupo_962940" data-name="Grupo 962940">
                                <g id="Grupo_962939" data-name="Grupo 962939">
                                  <g id="Grupo_962938" data-name="Grupo 962938">
                                    <g id="Grupo_962937" data-name="Grupo 962937">
                                      <path id="Trazado_632312" data-name="Trazado 632312" d="M501.565,168.967c-.356.349-2.407-1.277-5.39-1.373-2.979-.138-5.222,1.321-5.534.944-.153-.167.216-.807,1.2-1.468a7.611,7.611,0,0,1,4.446-1.2,7.32,7.32,0,0,1,4.273,1.545C501.45,168.146,501.739,168.811,501.565,168.967Z" transform="translate(-490.608 -165.859)" fill="#263238"/>
                                    </g>
                                  </g>
                                </g>
                              </g>
                            </g>
                          </g>
                        </g>
                      </g>
                    </g>
                    <g id="Grupo_962953" data-name="Grupo 962953" transform="translate(54.724 40.69)">
                      <g id="Grupo_962952" data-name="Grupo 962952">
                        <g id="Grupo_962951" data-name="Grupo 962951">
                          <g id="Grupo_962950" data-name="Grupo 962950">
                            <g id="Grupo_962949" data-name="Grupo 962949">
                              <g id="Grupo_962948" data-name="Grupo 962948">
                                <g id="Grupo_962947" data-name="Grupo 962947">
                                  <g id="Grupo_962946" data-name="Grupo 962946">
                                    <path id="Trazado_632313" data-name="Trazado 632313" d="M467.744,192.772c-.008-.171,1.858-.427,4.878-.707.765-.052,1.492-.178,1.638-.694a3.881,3.881,0,0,0-.43-2.277q-.979-2.8-2.052-5.881c-2.843-8.371-4.873-15.243-4.535-15.355s2.917,6.583,5.76,14.954q1.024,3.1,1.956,5.914a4.415,4.415,0,0,1,.292,3,1.916,1.916,0,0,1-1.292,1.071,5.194,5.194,0,0,1-1.3.135C469.626,192.993,467.75,192.941,467.744,192.772Z" transform="translate(-467.205 -167.856)" fill="#263238"/>
                                  </g>
                                </g>
                              </g>
                            </g>
                          </g>
                        </g>
                      </g>
                    </g>
                    <g id="Grupo_962955" data-name="Grupo 962955" transform="translate(45.836 68.133)">
                      <g id="Grupo_962954" data-name="Grupo 962954">
                        <path id="Trazado_632314" data-name="Trazado 632314" d="M485.77,212.825a3.681,3.681,0,0,1-2.6,1.054,3.942,3.942,0,0,1-2.714-1.176,5.342,5.342,0,0,1-1.294-4.75,2.058,2.058,0,0,1,.3-.786,1.557,1.557,0,0,1,.1-.441,3.464,3.464,0,0,1,1.93-1.959,4.467,4.467,0,0,1,2.823-.133,4.311,4.311,0,0,1,2.9,3.534A5.441,5.441,0,0,1,485.77,212.825Z" transform="translate(-479.083 -204.466)" fill="#ff9a6c"/>
                      </g>
                    </g>
                    <g id="Grupo_962963" data-name="Grupo 962963" transform="translate(45.205 68.261)">
                      <g id="Grupo_962962" data-name="Grupo 962962">
                        <g id="Grupo_962961" data-name="Grupo 962961">
                          <g id="Grupo_962960" data-name="Grupo 962960">
                            <g id="Grupo_962959" data-name="Grupo 962959">
                              <g id="Grupo_962958" data-name="Grupo 962958">
                                <g id="Grupo_962957" data-name="Grupo 962957">
                                  <g id="Grupo_962956" data-name="Grupo 962956">
                                    <path id="Trazado_632315" data-name="Trazado 632315" d="M476,204.642c.466-.139,1.217,3.014,4.447,4.615s6.505.461,6.635.9c.09.187-.6.789-2.015,1.163a8.073,8.073,0,0,1-5.5-.57,7.031,7.031,0,0,1-3.526-3.917C475.614,205.539,475.781,204.674,476,204.642Z" transform="translate(-475.777 -204.637)" fill="#263238"/>
                                  </g>
                                </g>
                              </g>
                            </g>
                          </g>
                        </g>
                      </g>
                    </g>
                    <g id="Grupo_962967" data-name="Grupo 962967" transform="translate(32.455 29.549)">
                      <g id="Grupo_962966" data-name="Grupo 962966">
                        <g id="Grupo_962965" data-name="Grupo 962965">
                          <g id="Grupo_962964" data-name="Grupo 962964">
                            <path id="Trazado_632316" data-name="Trazado 632316" d="M503.288,155.438c-.323.8-3.289.313-6.8.613-3.523.23-6.382,1.157-6.821.414-.195-.356.324-1.1,1.493-1.849a11.874,11.874,0,0,1,10.38-.782C502.8,154.4,503.427,155.058,503.288,155.438Z" transform="translate(-489.621 -152.994)" fill="#263238"/>
                          </g>
                        </g>
                      </g>
                    </g>
                    <g id="Grupo_962971" data-name="Grupo 962971" transform="translate(63.694 27.805)">
                      <g id="Grupo_962970" data-name="Grupo 962970">
                        <g id="Grupo_962969" data-name="Grupo 962969">
                          <g id="Grupo_962968" data-name="Grupo 962968">
                            <path id="Trazado_632317" data-name="Trazado 632317" d="M462.7,153.944c-.549.66-2.581-.115-5.052-.234-2.467-.205-4.582.3-5.039-.43-.2-.351.154-1.019,1.091-1.628a7.321,7.321,0,0,1,8.131.534C462.681,152.913,462.943,153.621,462.7,153.944Z" transform="translate(-452.557 -150.668)" fill="#263238"/>
                          </g>
                        </g>
                      </g>
                    </g>
                    <g id="Grupo_962973" data-name="Grupo 962973" transform="translate(0 51.441)">
                      <g id="Grupo_962972" data-name="Grupo 962972">
                        <path id="Trazado_632318" data-name="Trazado 632318" d="M546.619,182.967c-.326-.155-13.207-4.41-13.244,8.882s13.316,10.587,13.34,10.206S546.619,182.967,546.619,182.967Z" transform="translate(-533.375 -182.198)" fill="#ffbf9d"/>
                      </g>
                    </g>
                    <g id="Grupo_962975" data-name="Grupo 962975" transform="translate(3.373 55.727)">
                      <g id="Grupo_962974" data-name="Grupo 962974">
                        <path id="Trazado_632319" data-name="Trazado 632319" d="M544.682,198.441c-.059-.043-.232.161-.624.34a2.319,2.319,0,0,1-1.731.031c-1.4-.519-2.579-2.753-2.637-5.148a7.655,7.655,0,0,1,.657-3.313,2.679,2.679,0,0,1,1.747-1.773,1.178,1.178,0,0,1,1.365.639c.177.372.092.637.163.66.037.034.286-.222.181-.771a1.478,1.478,0,0,0-.521-.834,1.75,1.75,0,0,0-1.28-.342,3.254,3.254,0,0,0-2.425,2.054,7.866,7.866,0,0,0-.813,3.7c.078,2.678,1.442,5.189,3.362,5.749a2.482,2.482,0,0,0,2.118-.346C544.656,198.761,544.727,198.465,544.682,198.441Z" transform="translate(-538.761 -187.917)" fill="#ff9a6c"/>
                      </g>
                    </g>
                  </g>
                </g>
                <g id="Grupo_962979" data-name="Grupo 962979" transform="translate(3.27 33.29)">
                  <g id="Grupo_962978" data-name="Grupo 962978">
                    <path id="Trazado_632320" data-name="Trazado 632320" d="M542.216,140.14c-1.57-1.56-3.862-2.13-6.059-2.4a30.966,30.966,0,0,0-16.852,2.725c-2.738,1.295-5.377,3.094-6.855,5.737s-1.5,6.269.584,8.467a9.318,9.318,0,0,0,7.454,16.9h0a6.044,6.044,0,0,0,9.147,4.578A9.5,9.5,0,0,0,532.027,174c2.546-3.261,2.8-9.45,2.1-13.528a8.834,8.834,0,0,0,6.812-3.607,17.143,17.143,0,0,0,3.012-7.318C544.589,146.284,544.574,142.484,542.216,140.14Z" transform="translate(-508.629 -137.523)" fill="#263238"/>
                  </g>
                </g>
                <g id="Grupo_963025" data-name="Grupo 963025">
                  <g id="Grupo_962984" data-name="Grupo 962984">
                    <g id="Grupo_962983" data-name="Grupo 962983">
                      <g id="Grupo_962982" data-name="Grupo 962982">
                        <g id="Grupo_962981" data-name="Grupo 962981">
                          <g id="Grupo_962980" data-name="Grupo 962980">
                            <path id="Trazado_632321" data-name="Trazado 632321" d="M449.245,93.823c-.906.188-22.708,6.659-27.147,23.515s-2.48,21.81-2.48,21.81a10.835,10.835,0,0,0-2.178,2.141c-.849,1.143.842,6.249,3.692,5.471,20.983-11.006,46.507-13.672,75.074-14.684l21.81-1.723c6.159.3,8.2-1.462,5.517-2.824-2.055-1.044-19.863-6.854-19.863-6.854l-3.573-2.258-9.846-11.9s1-1.813-1.3-3.115S467.134,90.108,449.245,93.823Z" transform="translate(-417.221 -93.112)" fill="#ef8b53"/>
                          </g>
                        </g>
                      </g>
                    </g>
                  </g>
                  <g id="Grupo_962990" data-name="Grupo 962990" transform="translate(12.458 5.295)" opacity="0.3">
                    <g id="Grupo_962989" data-name="Grupo 962989">
                      <g id="Grupo_962988" data-name="Grupo 962988">
                        <g id="Grupo_962987" data-name="Grupo 962987">
                          <g id="Grupo_962986" data-name="Grupo 962986">
                            <g id="Grupo_962985" data-name="Grupo 962985">
                              <path id="Trazado_632322" data-name="Trazado 632322" d="M478.448,106.655s23.6-5.441,34.618-1.016l-1.28-.541,10.386,3.767c1.754.636,3.8,1.249,5.392.274,0,0-5.711-4.485-15.914-7.2S485.5,98.83,478.448,106.655Z" transform="translate(-478.448 -100.175)"/>
                            </g>
                          </g>
                        </g>
                      </g>
                    </g>
                  </g>
                  <g id="Grupo_962996" data-name="Grupo 962996" transform="translate(12.119 4.987)">
                    <g id="Grupo_962995" data-name="Grupo 962995">
                      <g id="Grupo_962994" data-name="Grupo 962994">
                        <g id="Grupo_962993" data-name="Grupo 962993">
                          <g id="Grupo_962992" data-name="Grupo 962992">
                            <g id="Grupo_962991" data-name="Grupo 962991">
                              <path id="Trazado_632323" data-name="Trazado 632323" d="M463.141,106.7a16.986,16.986,0,0,1,2.044-1.542A29.754,29.754,0,0,1,471.408,102a35.431,35.431,0,0,1,10.124-2.143,29.75,29.75,0,0,1,12.539,1.6,53.6,53.6,0,0,1,5.983,2.731c1.872,1,3.719,1.859,5.408,2.86a32.062,32.062,0,0,0,4.824,2.627,10.312,10.312,0,0,0,4.671.623c5.867-.307,9.386-1.759,9.1-2.113a.935.935,0,0,1-.438.493,7.535,7.535,0,0,1-1.76.726,31.931,31.931,0,0,1-6.887,1.154,10.538,10.538,0,0,1-4.793-.6,31.763,31.763,0,0,1-4.887-2.621c-1.665-.978-3.529-1.843-5.4-2.831a54.018,54.018,0,0,0-5.945-2.706,29.722,29.722,0,0,0-12.39-1.607,35.944,35.944,0,0,0-10.056,2.049,31.482,31.482,0,0,0-6.235,3.037c-.695.438-1.221.8-1.57,1.057S463.141,106.7,463.141,106.7Z" transform="translate(-463.141 -99.765)" fill="#263238"/>
                            </g>
                          </g>
                        </g>
                      </g>
                    </g>
                  </g>
                  <g id="Grupo_963002" data-name="Grupo 963002" transform="translate(2.557 19.71)" opacity="0.3">
                    <g id="Grupo_963001" data-name="Grupo 963001">
                      <g id="Grupo_963000" data-name="Grupo 963000">
                        <g id="Grupo_962999" data-name="Grupo 962999">
                          <g id="Grupo_962998" data-name="Grupo 962998">
                            <g id="Grupo_962997" data-name="Grupo 962997">
                              <path id="Trazado_632324" data-name="Trazado 632324" d="M511.03,130.944c4.274-.313,7.444-1.638,11.628-2.847,4.459-1.289,8.888-2.369,13.279-3.869,3.333-1.139,7.292-2.223,9.342-4.821a4.962,4.962,0,0,1-1.2,4.727c-1.217,1.333-5.333,3.1-7.04,3.687-9.728,3.355-16.472,5.622-26.707,7.018a29.53,29.53,0,0,1,.7-3.893" transform="translate(-510.328 -119.406)"/>
                            </g>
                          </g>
                        </g>
                      </g>
                    </g>
                  </g>
                  <g id="Grupo_963007" data-name="Grupo 963007" transform="translate(1.279 17.097)">
                    <g id="Grupo_963006" data-name="Grupo 963006">
                      <g id="Grupo_963005" data-name="Grupo 963005">
                        <g id="Grupo_963004" data-name="Grupo 963004">
                          <g id="Grupo_963003" data-name="Grupo 963003">
                            <path id="Trazado_632325" data-name="Trazado 632325" d="M514.52,121.2c-2.631,1.355-4.24,2.257-4.166,4.569.062,1.925.607,4.249,2.522,4.459a4.721,4.721,0,0,0,1.734-.245l29.125-7.9a4.4,4.4,0,0,0,2.629-1.433c.886-1.3.062-3.2-1.291-3.992a8.216,8.216,0,0,0-4.585-.7A98.426,98.426,0,0,0,514.52,121.2" transform="translate(-510.351 -115.92)" fill="#ef8b53"/>
                          </g>
                        </g>
                      </g>
                    </g>
                  </g>
                  <g id="Grupo_963013" data-name="Grupo 963013" transform="translate(3.415 15.949)">
                    <g id="Grupo_963012" data-name="Grupo 963012">
                      <g id="Grupo_963011" data-name="Grupo 963011">
                        <g id="Grupo_963010" data-name="Grupo 963010">
                          <g id="Grupo_963009" data-name="Grupo 963009">
                            <g id="Grupo_963008" data-name="Grupo 963008">
                              <path id="Trazado_632326" data-name="Trazado 632326" d="M543.6,120.727a2.847,2.847,0,0,0,.708-1.34,3.706,3.706,0,0,0-1.459-3.645c-1.465-.984-3.7-1.2-6.024-.921-2.36.275-4.955.612-7.66,1.059a78.551,78.551,0,0,0-13.613,3.357c-1.7.591-3.037,1.159-3.962,1.553l-1.06.466a1.678,1.678,0,0,1-.381.14,1.682,1.682,0,0,1,.349-.207l1.033-.53c.909-.436,2.239-1.042,3.932-1.668a71.988,71.988,0,0,1,13.643-3.475c2.715-.448,5.314-.776,7.684-1.034s4.663-.032,6.213,1.047a3.838,3.838,0,0,1,1.444,3.887,2.512,2.512,0,0,1-.535,1.043A1.354,1.354,0,0,1,543.6,120.727Z" transform="translate(-510.15 -114.389)" fill="#263238"/>
                            </g>
                          </g>
                        </g>
                      </g>
                    </g>
                  </g>
                  <g id="Grupo_963018" data-name="Grupo 963018" transform="translate(57.524 17.138)">
                    <g id="Grupo_963017" data-name="Grupo 963017">
                      <g id="Grupo_963016" data-name="Grupo 963016">
                        <g id="Grupo_963015" data-name="Grupo 963015">
                          <g id="Grupo_963014" data-name="Grupo 963014">
                            <path id="Trazado_632327" data-name="Trazado 632327" d="M472.992,115.975l-18.6.84,1.915,5.13,20.164-1.761Z" transform="translate(-454.396 -115.975)" fill="#fff"/>
                          </g>
                        </g>
                      </g>
                    </g>
                  </g>
                  <g id="Grupo_963024" data-name="Grupo 963024" transform="translate(49.12 28.106)">
                    <g id="Grupo_963023" data-name="Grupo 963023">
                      <g id="Grupo_963022" data-name="Grupo 963022">
                        <g id="Grupo_963021" data-name="Grupo 963021">
                          <g id="Grupo_963020" data-name="Grupo 963020">
                            <g id="Grupo_963019" data-name="Grupo 963019">
                              <path id="Trazado_632328" data-name="Trazado 632328" d="M446.093,137.975c-.02-.1,8.182-1.829,18.316-3.862s18.37-3.6,18.39-3.5-8.18,1.828-18.318,3.862S446.112,138.074,446.093,137.975Z" transform="translate(-446.093 -130.607)" fill="#263238"/>
                            </g>
                          </g>
                        </g>
                      </g>
                    </g>
                  </g>
                </g>
              </g>
            </g>
            <g id="Grupo_963028" data-name="Grupo 963028" transform="translate(14.931 113.059)">
              <path id="Trazado_632329" data-name="Trazado 632329" d="M521.374,262.335l-5.245-9.476-20.22,25.861-28.179-34.781-4.122,10.606,21.858,38.239,9.274-12.571,2.2.321,7.65,13.29Z" transform="translate(-463.607 -243.939)" fill="#e0e0e0"/>
            </g>
            <g id="Grupo_963030" data-name="Grupo 963030" transform="translate(28.976 149.333)">
              <g id="Grupo_963029" data-name="Grupo 963029">
                <path id="Trazado_632330" data-name="Trazado 632330" d="M499.139,293.412a6.844,6.844,0,0,0,.6.959c.4.606.988,1.484,1.686,2.591a75.591,75.591,0,0,1,4.9,9.06l.148.328.194-.305.583-.912c2.376-3.593,4.809-6.665,6.446-8.977.826-1.151,1.475-2.1,1.9-2.764a7.005,7.005,0,0,0,.627-1.061,7.866,7.866,0,0,0-.752.974l-2,2.687c-1.69,2.267-4.156,5.31-6.55,8.928l-.587.92.343.022a64.6,64.6,0,0,0-5.028-9.045c-.729-1.092-1.349-1.95-1.791-2.531A6.332,6.332,0,0,0,499.139,293.412Z" transform="translate(-499.137 -292.33)" fill="#263238"/>
              </g>
            </g>
            <g id="Grupo_963032" data-name="Grupo 963032" transform="translate(3.524 52.736)">
              <g id="Grupo_963031" data-name="Grupo 963031">
                <path id="Trazado_632331" data-name="Trazado 632331" d="M549.481,163.466a2.544,2.544,0,0,0-.531.573,9.255,9.255,0,0,0-1.1,1.826,10.342,10.342,0,0,0,3.208,12.7,9.227,9.227,0,0,0,1.835,1.085,2.572,2.572,0,0,0,.739.252,20.461,20.461,0,0,1-2.4-1.555,10.48,10.48,0,0,1-3.126-12.377A20.3,20.3,0,0,1,549.481,163.466Z" transform="translate(-546.882 -163.465)" fill="#455a64"/>
              </g>
            </g>
            <g id="Grupo_963034" data-name="Grupo 963034" transform="translate(48.261 132.188)">
              <g id="Grupo_963033" data-name="Grupo 963033">
                <path id="Trazado_632332" data-name="Trazado 632332" d="M463.9,286.924a1.1,1.1,0,0,0,.1.274l.341.769c.307.668.773,1.636,1.4,2.842a93.151,93.151,0,0,0,5.666,9.507l.166.245.141-.261,4.655-8.613c3.264-6.106,6.216-11.632,8.38-15.681l2.5-4.773.663-1.307a2.586,2.586,0,0,0,.208-.468,2.45,2.45,0,0,0-.277.431l-.726,1.272-2.609,4.714-8.48,15.627-4.629,8.627.307-.016a106.546,106.546,0,0,1-5.77-9.407l-1.483-2.79-.392-.744A1.082,1.082,0,0,0,463.9,286.924Z" transform="translate(-463.9 -269.458)" fill="#263238"/>
              </g>
            </g>
          </g>
          <g id="Grupo_963066" data-name="Grupo 963066" transform="translate(125.893 152.72)">
            <g id="Grupo_963063" data-name="Grupo 963063">
              <g id="Grupo_963037" data-name="Grupo 963037" transform="translate(37.053 40.936)">
                <g id="Grupo_963036" data-name="Grupo 963036">
                  <path id="Trazado_632333" data-name="Trazado 632333" d="M353.57,351.46l10.789,30.91,16.16-18.793,21.5,13.35-27.344,36.584c-7.406,10.555-19.627,13.868-26.307,12.274-13.613-3.249-20.855-20.868-20.855-20.868l.076-16.886L330.493,363Z" transform="translate(-327.51 -351.46)" fill="#455a64"/>
                </g>
              </g>
              <g id="Grupo_963039" data-name="Grupo 963039" transform="translate(0 9.184)">
                <g id="Grupo_963038" data-name="Grupo 963038">
                  <path id="Trazado_632334" data-name="Trazado 632334" d="M455.389,309.1s-41.536,45.123-50.053,53.391c-4.067,3.947-12.653,9.236-12.653,9.236l12.878,1.5Z" transform="translate(-392.683 -309.101)" fill="#e0e0e0"/>
                </g>
              </g>
              <g id="Grupo_963041" data-name="Grupo 963041" transform="translate(4.59 76.508)" opacity="0.3">
                <g id="Grupo_963040" data-name="Grupo 963040">
                  <path id="Trazado_632335" data-name="Trazado 632335" d="M446.611,399s-17.032,3.963-28.653,4.6-42,.441-42,.441l5.984-5.132Z" transform="translate(-375.957 -398.914)"/>
                </g>
              </g>
              <g id="Grupo_963043" data-name="Grupo 963043" transform="translate(6.509 1.543)">
                <g id="Grupo_963042" data-name="Grupo 963042">
                  <path id="Trazado_632336" data-name="Trazado 632336" d="M348.591,300.732l74.463-1.825L358.277,373.96l-68.735,1.873Z" transform="translate(-289.542 -298.908)" fill="#263238"/>
                </g>
              </g>
              <g id="Grupo_963059" data-name="Grupo 963059" transform="translate(81.24 27.773)">
                <g id="Grupo_963055" data-name="Grupo 963055">
                  <g id="Grupo_963045" data-name="Grupo 963045">
                    <g id="Grupo_963044" data-name="Grupo 963044">
                      <path id="Trazado_632337" data-name="Trazado 632337" d="M327.488,337.374a3.446,3.446,0,0,1,3.743-3.465c1.1.079,2.53.215,4.288.452,4.545.612,17.852,7.7,18.125,10.4.4,3.956-1.646,5.411-1.646,5.411s2.523,3.585,1.454,6.446c-.916,2.453-4.913,3.175-4.913,3.175s2.829,3.524-.293,5.86c-1.082.81-3.256,2.363-3.764,2.895a9.467,9.467,0,0,1-.9,2.082,8.03,8.03,0,0,1-5.915,3.142l-.762.044a5.849,5.849,0,0,1-4.051-1.314c-5.149-4.217-19.7-16.412-19.9-19.667,0,0-2.776-2.313-1.573-4.6S316.8,347.1,316.8,347.1a3.488,3.488,0,0,1-.939-4.039c1.064-2.405,8.6-1.941,12.011-1.381,2.715.446,10.287,1.935,10.287,1.935s-10.013-3.808-10.557-5.554A2.657,2.657,0,0,1,327.488,337.374Z" transform="translate(-311.085 -333.9)" fill="#ffbf9d"/>
                    </g>
                  </g>
                  <g id="Grupo_963048" data-name="Grupo 963048" transform="translate(1.875 18.932)">
                    <g id="Grupo_963047" data-name="Grupo 963047">
                      <g id="Grupo_963046" data-name="Grupo 963046">
                        <path id="Trazado_632338" data-name="Trazado 632338" d="M328.432,359.158a7.285,7.285,0,0,0,1,.652c.655.4,1.621.951,2.833,1.6,2.419,1.3,5.84,2.953,9.7,4.589s7.413,2.967,10,3.885c1.293.46,2.345.818,3.075,1.054a7.144,7.144,0,0,0,1.147.331,7.317,7.317,0,0,0-1.1-.468l-3.032-1.166c-2.561-.981-6.093-2.352-9.945-3.983s-7.279-3.239-9.723-4.478c-1.223-.616-2.208-1.129-2.884-1.49A7.233,7.233,0,0,0,328.432,359.158Z" transform="translate(-328.432 -359.157)" fill="#ff9a6c"/>
                      </g>
                    </g>
                  </g>
                  <g id="Grupo_963051" data-name="Grupo 963051" transform="translate(5.252 13.087)">
                    <g id="Grupo_963050" data-name="Grupo 963050">
                      <g id="Grupo_963049" data-name="Grupo 963049">
                        <path id="Trazado_632339" data-name="Trazado 632339" d="M324.861,351.365a6.564,6.564,0,0,0,1.1.274c.709.165,1.738.388,3,.718,2.523.639,5.953,1.718,9.7,3.033,1.875.664,3.679,1.25,5.276,1.875s3.019,1.251,4.2,1.8,2.115,1.031,2.762,1.366a7.576,7.576,0,0,0,1.016.5c.007-.01-.073-.073-.233-.181s-.4-.26-.711-.448c-.627-.375-1.549-.894-2.718-1.477s-2.581-1.239-4.185-1.884-3.405-1.244-5.281-1.908a94.47,94.47,0,0,0-9.763-2.936c-1.272-.3-2.313-.483-3.033-.6A6.6,6.6,0,0,0,324.861,351.365Z" transform="translate(-324.861 -351.358)" fill="#ff9a6c"/>
                      </g>
                    </g>
                  </g>
                  <g id="Grupo_963054" data-name="Grupo 963054" transform="translate(27.073 9.707)">
                    <g id="Grupo_963053" data-name="Grupo 963053">
                      <g id="Grupo_963052" data-name="Grupo 963052">
                        <path id="Trazado_632340" data-name="Trazado 632340" d="M316.79,346.855a8.142,8.142,0,0,0,1.6.922c1.016.517,2.447,1.169,4.025,1.885s2.986,1.4,4,1.917a10.8,10.8,0,0,0,1.66.8,7.708,7.708,0,0,0-1.532-1.033,43.746,43.746,0,0,0-3.968-2.025c-1.582-.718-3.027-1.331-4.068-1.784A10.105,10.105,0,0,0,316.79,346.855Z" transform="translate(-316.789 -346.85)" fill="#ff9a6c"/>
                      </g>
                    </g>
                  </g>
                </g>
                <g id="Grupo_963058" data-name="Grupo 963058" transform="translate(6.44 25.017)">
                  <g id="Grupo_963057" data-name="Grupo 963057">
                    <g id="Grupo_963056" data-name="Grupo 963056">
                      <path id="Trazado_632341" data-name="Trazado 632341" d="M330.624,367.275a5.55,5.55,0,0,0,.675.817c.459.5,1.139,1.217,2.012,2.068,1.734,1.712,4.282,3.913,7.019,6.406.681.622,1.325,1.266,2,1.836a22.378,22.378,0,0,0,2.027,1.535,13.966,13.966,0,0,0,3.883,1.849,8.638,8.638,0,0,0,2.878.355,5.1,5.1,0,0,0,.783-.082c.178-.029.27-.051.268-.064,0-.037-.379.012-1.053,0a9.428,9.428,0,0,1-2.8-.462,14.415,14.415,0,0,1-3.766-1.882,23.309,23.309,0,0,1-1.98-1.528c-.66-.563-1.3-1.2-1.986-1.833-2.75-2.5-5.316-4.664-7.091-6.323-.893-.822-1.6-1.505-2.089-1.977A5.867,5.867,0,0,0,330.624,367.275Z" transform="translate(-330.623 -367.274)" fill="#ff9a6c"/>
                    </g>
                  </g>
                </g>
              </g>
              <g id="Grupo_963062" data-name="Grupo 963062" transform="translate(79.663)">
                <g id="Grupo_963060" data-name="Grupo 963060" transform="translate(0.36 0.361)">
                  <path id="Trazado_632342" data-name="Trazado 632342" d="M322.617,297.741l32.685-.412a.786.786,0,0,1,.607,1.3l-7.121,8.334-32.26.977a.786.786,0,0,1-.643-1.24l6.1-8.624A.786.786,0,0,1,322.617,297.741Z" transform="translate(-315.739 -297.33)" fill="#449c6e"/>
                </g>
                <g id="Grupo_963061" data-name="Grupo 963061">
                  <path id="Trazado_632343" data-name="Trazado 632343" d="M348.837,307.2l7.225-8.455a1.147,1.147,0,0,0-.886-1.891l-32.685.412a1.136,1.136,0,0,0-.922.484l-6.1,8.624a1.147,1.147,0,0,0,.938,1.809Zm-26.37-9.212.033,0,32.685-.412a.425.425,0,0,1,.328.7l-7.017,8.213-32.1.973a.426.426,0,0,1-.337-.672l6.1-8.624A.429.429,0,0,1,322.467,297.984Z" transform="translate(-315.258 -296.849)" fill="#263238"/>
                </g>
              </g>
            </g>
            <g id="Grupo_963065" data-name="Grupo 963065" transform="translate(58.954 71.329)">
              <g id="Grupo_963064" data-name="Grupo 963064">
                <path id="Trazado_632344" data-name="Trazado 632344" d="M377.563,413.68a32.344,32.344,0,0,1-.052-4.24,19.105,19.105,0,0,1,11.064-15.985,32.378,32.378,0,0,1,3.985-1.444.837.837,0,0,0-.3.028c-.191.035-.477.071-.835.164a17.008,17.008,0,0,0-2.968,1,18.7,18.7,0,0,0-11.224,16.218,17.05,17.05,0,0,0,.109,3.13c.039.368.106.648.14.84A.867.867,0,0,0,377.563,413.68Z" transform="translate(-377.211 -392.005)" fill="#263238"/>
              </g>
            </g>
          </g>
          <g id="Grupo_963073" data-name="Grupo 963073" transform="translate(0 119.225)">
            <g id="Grupo_963067" data-name="Grupo 963067" transform="translate(0 48.803)">
              <path id="Trazado_632345" data-name="Trazado 632345" d="M619.436,334.966s-16.316,40.395-23.713,54.972c-7.665,15.105-19.057,40.411-41.884,27.181-18.678-10.825-1.758-67.666-1.758-67.666l16.806,7.589,24.861-39.771Z" transform="translate(-545.057 -317.271)" fill="#455a64"/>
            </g>
            <g id="Grupo_963068" data-name="Grupo 963068" transform="translate(51.05)">
              <path id="Trazado_632346" data-name="Trazado 632346" d="M524.193,253.63a2.125,2.125,0,0,1,2.932-1.259c1.732.821,4.282,2.771,4.886,7.24.934,6.919-.355,11.8,1.266,13.616s21.962,3.249,23.536,6.219c1.517,2.864.621,5.447.689,6.911a2.122,2.122,0,0,0,.612,1.391,4.534,4.534,0,0,1,.99,5.644,2.207,2.207,0,0,0-.078,2.1,4.455,4.455,0,0,1-1.03,5.424,2.254,2.254,0,0,0-.474.684c-.61,1.424-2.986,6.485-6.377,7.521a25.477,25.477,0,0,1-7.812.849,2.1,2.1,0,0,0-1.455.515c-1.716,1.492-7.413,5.135-9.1,7.341,0,0-21-14.677-22.313-15.371,0,0,9.462-14.437,9.937-21.058.507-7.054,4.949-15.283,3.752-21.9A12.2,12.2,0,0,1,524.193,253.63Z" transform="translate(-510.465 -252.165)" fill="#ffbf9d"/>
            </g>
            <g id="Grupo_963070" data-name="Grupo 963070" transform="translate(14.841 48.545)">
              <g id="Grupo_963069" data-name="Grupo 963069">
                <path id="Trazado_632347" data-name="Trazado 632347" d="M604.6,334.88a.555.555,0,0,0-.115-.1l-.356-.264-1.4-1-5.282-3.7-18.432-12.782-.155-.108-.1.159c-2.7,4.159-5.638,8.734-8.661,13.526L552.4,358.962l-5.4,8.568-1.462,2.333-.373.612a1.13,1.13,0,0,0-.115.216,1.152,1.152,0,0,0,.149-.194c.1-.151.236-.346.4-.591l1.525-2.293c1.314-2,3.2-4.9,5.5-8.5,4.618-7.2,10.832-17.247,17.786-28.29,3.022-4.791,5.947-9.369,8.638-13.535l-.258.051L597.316,330l5.342,3.616,1.431.95.373.239A.575.575,0,0,0,604.6,334.88Z" transform="translate(-545.057 -316.926)" fill="#263238"/>
              </g>
            </g>
            <g id="Grupo_963072" data-name="Grupo 963072" transform="translate(4.495 96.296)">
              <g id="Grupo_963071" data-name="Grupo 963071">
                <path id="Trazado_632348" data-name="Trazado 632348" d="M620.422,394.105a3.042,3.042,0,0,0,.406-.672l.992-1.885a33.151,33.151,0,0,1,3.765-5.873,15.014,15.014,0,0,1,5.465-4.188,20.24,20.24,0,0,1,2.762-.844,2.622,2.622,0,0,0-.786.04,9.407,9.407,0,0,0-2.079.547,14.25,14.25,0,0,0-5.66,4.193,28.553,28.553,0,0,0-3.714,6c-.39.813-.686,1.48-.882,1.944A3.055,3.055,0,0,0,620.422,394.105Z" transform="translate(-620.419 -380.628)" fill="#263238"/>
              </g>
            </g>
          </g>
        </g>
      </g>
    </g>
  </g>
</svg>
