<svg xmlns="http://www.w3.org/2000/svg" xmlns:xlink="http://www.w3.org/1999/xlink" width="190" height="163" viewBox="0 0 190 163">
  <defs>
    <clipPath id="clip-path">
      <rect id="Rectángulo_307042" data-name="Rectángulo 307042" width="190" height="163" transform="translate(1230 7662)" fill="#449c6e" stroke="#707070" stroke-width="1"/>
    </clipPath>
  </defs>
  <g id="Enmascarar_grupo_878444" data-name="Enmascarar grupo 878444" transform="translate(-1230 -7662)" clip-path="url(#clip-path)">
    <g id="layer2" transform="translate(1238.067 7656.567)">
      <path id="path6585" d="M135.829,27.167V51.633a2.717,2.717,0,0,0,3.73,2.5l27.172-10.867a2.717,2.717,0,0,0,.2-4.935l-27.172-13.6a2.723,2.723,0,0,0-3.932,2.43Z" fill="#ff5151"/>
      <path id="path6587" d="M138.455,24.455a2.717,2.717,0,0,0-2.626,2.711V51.633a2.717,2.717,0,0,0,3.73,2.5l7.137-2.855V28.207l-6.935-3.47a2.717,2.717,0,0,0-1.305-.281Z" fill="#ff2929"/>
      <path id="path6589" d="M160.283,57.05a8.132,8.132,0,0,1,8.15,8.15v95.083a8.132,8.132,0,0,1-8.15,8.15H14.875c-4.8,0-9.442-4.2-9.442-8.829V57.05" fill="#e4eff8"/>
      <path id="path6591" d="M168.434,160.283a8.132,8.132,0,0,1-8.15,8.15H14.828a9.932,9.932,0,0,1-8.877-6.144A9.048,9.048,0,0,0,9.395,163H154.85a8.132,8.132,0,0,0,8.15-8.15V59.728a8.082,8.082,0,0,0-.377-2.34,8.106,8.106,0,0,1,5.81,7.774Z" fill="#c4dcf0"/>
      <path id="path6593" d="M5.433,54.333a10.867,10.867,0,0,1,21.733,0v86.933a8.132,8.132,0,0,1-8.15,8.15H14.942a9.488,9.488,0,0,0-9.508,9.508Z" fill="#549ad4"/>
      <path id="path6595" d="M27.167,54.311v86.955a8.132,8.132,0,0,1-8.15,8.15H14.942a9.487,9.487,0,0,0-9.508,9.508v-14a9.462,9.462,0,0,1,4.075-.939h4.075a8.132,8.132,0,0,0,8.15-8.15V48.878a10.839,10.839,0,0,0-.971-4.462,10.827,10.827,0,0,1,6.4,9.9Z" fill="#3588cb"/>
      <path id="circle6597" d="M105.95,40.75a32.6,32.6,0,1,1-32.6-32.6,32.6,32.6,0,0,1,32.6,32.6Z" fill="#ffca28"/>
      <path id="path6599" d="M73.35,8.15A32.6,32.6,0,0,0,47.834,20.518a32.57,32.57,0,0,1,45.6,45.9A32.59,32.59,0,0,0,73.35,8.15Z" fill="#ecb200"/>
      <g id="Grupo_963519" data-name="Grupo 963519">
        <path id="path6601" d="M73.318,18.971a2.717,2.717,0,0,0-2.687,2.767V40.75a2.717,2.717,0,0,0,.8,1.925l8.142,8.142c2.552,2.734,6.571-1.264,3.85-3.83l-7.36-7.36V21.739a2.717,2.717,0,0,0-2.747-2.767Z" fill="#549ad4"/>
        <path id="path6603" d="M54.307,138.554a2.717,2.717,0,0,0-1.484.461l-8.142,5.415a2.72,2.72,0,1,0,3.008,4.532l6.638-4.432,6.658,4.432a2.717,2.717,0,0,0,3.008,0l6.638-4.432,6.638,4.432a2.717,2.717,0,0,0,3.028,0l6.638-4.432,6.638,4.432c3.023,2.014,6.039-2.529,3.008-4.532l-8.142-5.415a2.717,2.717,0,0,0-3.008,0l-6.638,4.412-6.658-4.412a2.717,2.717,0,0,0-3.008,0l-6.638,4.412-6.658-4.412a2.717,2.717,0,0,0-1.524-.461Z" fill="#549ad4"/>
        <path id="path6605" d="M54.307,124.957a2.717,2.717,0,0,0-1.484.461l-8.142,5.435a2.72,2.72,0,1,0,3.008,4.532l6.638-4.432,6.658,4.432a2.717,2.717,0,0,0,3.008,0l6.638-4.432,6.638,4.432a2.717,2.717,0,0,0,3.028,0l6.638-4.432,6.638,4.432c3.024,2.018,6.042-2.529,3.008-4.532l-8.142-5.435a2.717,2.717,0,0,0-3.008,0l-6.638,4.432-6.658-4.432a2.717,2.717,0,0,0-3.008,0l-6.638,4.432-6.658-4.432a2.717,2.717,0,0,0-1.524-.461Z" fill="#549ad4"/>
      </g>
      <path id="path6607" d="M135.822,135.833a2.717,2.717,0,1,0,0,5.435h2.727a2.717,2.717,0,1,0,0-5.435Z" fill="#ffca28"/>
      <path id="path6609" d="M122.239,135.833a2.717,2.717,0,1,0,0,5.435h2.727a2.717,2.717,0,1,0,0-5.435Z" fill="#ff5151"/>
      <path id="path6611" d="M149.418,135.833a2.717,2.717,0,1,0,0,5.435h2.727a2.717,2.717,0,1,0,0-5.435Z" fill="#ff5151"/>
      <path id="path6613" d="M151.321,114.891a2.716,2.716,0,0,1-3.841,3.841l-8.151-8.153a2.732,2.732,0,0,1,1.943-4.651,2.8,2.8,0,0,1,1.907.8Z" fill="#ffca28"/>
      <path id="path6615" d="M139.362,114.891a2.716,2.716,0,0,0,3.841,3.841l8.151-8.153a2.732,2.732,0,0,0-1.943-4.651,2.8,2.8,0,0,0-1.907.8Z" fill="#ffca28"/>
      <path id="path6617" d="M110.572,87.724a2.716,2.716,0,0,1-3.841,3.841L98.58,83.413a2.732,2.732,0,0,1,1.943-4.651,2.8,2.8,0,0,1,1.907.8Z" fill="#549ad4"/>
      <path id="path6619" d="M98.612,87.724a2.716,2.716,0,0,0,3.841,3.841l8.151-8.153a2.732,2.732,0,0,0-1.943-4.651,2.8,2.8,0,0,0-1.907.8Z" fill="#549ad4"/>
      <path id="path6621" d="M141.267,24.45a2.717,2.717,0,1,0-5.435,0V77.43a2.717,2.717,0,1,0,5.435,0Z" fill="#549ad4"/>
      <path id="rect6623" d="M133.117,76.067h10.867a2.711,2.711,0,0,1,2.717,2.717v8.15a2.711,2.711,0,0,1-2.717,2.717H133.117a2.711,2.711,0,0,1-2.717-2.717v-8.15A2.711,2.711,0,0,1,133.117,76.067Z" fill="#ff5151"/>
      <path id="path6625" d="M133.117,76.067a2.711,2.711,0,0,0-2.717,2.717v8.15a2.711,2.711,0,0,0,2.717,2.717h10.867a2.711,2.711,0,0,0,2.717-2.717V84.217h-8.15a2.711,2.711,0,0,1-2.717-2.717V76.067Z" fill="#ff2929"/>
      <path id="path6627" d="M77.83,92.409a2.717,2.717,0,0,0-1.4,4.933l23.042,16.6c2.964,2.255,6.252-2.324,3.169-4.412l-23.022-16.6a2.717,2.717,0,0,0-1.785-.521Z" fill="#ffca28"/>
      <path id="path6629" d="M130.4,86.933a2.717,2.717,0,1,0,0,5.435h16.3a2.717,2.717,0,0,0,0-5.435Z" fill="#ffca28"/>
      <path id="path6631" d="M108.145,110.618A2.717,2.717,0,0,0,111.366,115L142,92.455a2.717,2.717,0,1,0-3.221-4.377Z" fill="#ffca28"/>
      <path id="circle6633" d="M114.1,114.1a8.15,8.15,0,1,1-8.15-8.15A8.15,8.15,0,0,1,114.1,114.1Z" fill="#ff5151"/>
      <path id="circle6635" d="M114.1,114.1a8.15,8.15,0,1,1-8.15-8.15A8.15,8.15,0,0,1,114.1,114.1Z" fill="#ff5151"/>
      <path id="path6637" d="M97.8,114.1a8.147,8.147,0,0,0,15.944,2.361,8.133,8.133,0,0,1-10.156-10.156A8.15,8.15,0,0,0,97.8,114.1Z" fill="#ff2929"/>
      <path id="path6639" d="M39.167,114.578a2.717,2.717,0,0,0,3.221,4.377L73.022,96.415A2.717,2.717,0,1,0,69.8,92.038Z" fill="#ffca28"/>
      <path id="circle6641" d="M81.5,92.367a8.15,8.15,0,1,1-8.15-8.15A8.15,8.15,0,0,1,81.5,92.367Z" fill="#ff5151"/>
      <path id="path6643" d="M70.989,84.572A8.147,8.147,0,1,0,81.145,94.728,8.133,8.133,0,0,1,70.989,84.572Z" fill="#ff2929"/>
      <path id="path6645" d="M141.267,8.152a2.717,2.717,0,1,0-5.435,0v2.727a2.717,2.717,0,1,0,5.435,0Z" fill="#ffca28"/>
      <path id="path6647" d="M153.268,16.292a2.717,2.717,0,1,0-3.843-3.843L147.5,14.377a2.717,2.717,0,1,0,3.843,3.843Z" fill="#ffca28"/>
      <path id="path6649" d="M123.832,16.292a2.717,2.717,0,1,1,3.843-3.843l1.929,1.929a2.717,2.717,0,1,1-3.843,3.843Z" fill="#ffca28"/>
      <path id="path6651" d="M103.234,38.033a2.717,2.717,0,1,0,0,5.433h2.579q.126-1.355.138-2.717-.007-1.36-.127-2.717Z" fill="#3588cb"/>
      <path id="path6653" d="M40.888,38.033q-.126,1.355-.138,2.717.007,1.36.127,2.717h2.589a2.717,2.717,0,1,0,0-5.433Z" fill="#549ad4"/>
      <path id="path6655" d="M73.35,67.917a2.609,2.609,0,0,0-2.717,2.717v2.579q1.355.126,2.717.138,1.36-.007,2.717-.127V70.633A2.609,2.609,0,0,0,73.35,67.917Z" fill="#549ad4"/>
      <path id="path6657" d="M73.35,8.15q-1.36.007-2.717.127v2.589a2.717,2.717,0,1,0,5.433,0V8.288q-1.355-.126-2.717-.138Z" fill="#3588cb"/>
    </g>
  </g>
</svg>
