<svg xmlns="http://www.w3.org/2000/svg" xmlns:xlink="http://www.w3.org/1999/xlink" width="77" height="76" viewBox="0 0 77 76">
  <defs>
    <clipPath id="clip-path">
      <rect id="Rectángulo_307015" data-name="Rectángulo 307015" width="77" height="76" transform="translate(1034 1801)" fill="#583cb6"/>
    </clipPath>
  </defs>
  <g id="Enmascarar_grupo_878436" data-name="Enmascarar grupo 878436" transform="translate(-1034 -1801)" clip-path="url(#clip-path)">
    <g id="transportador" transform="translate(1033.274 1799.774)">
      <g id="Grupo_962112" data-name="Grupo 962112">
        <g id="Grupo_962083" data-name="Grupo 962083">
          <path id="Trazado_631991" data-name="Trazado 631991" d="M74.051,6.852a2.4,2.4,0,0,1,.723,1.728,2.459,2.459,0,0,1-2.452,2.452H69.871v-4.9h2.452A2.4,2.4,0,0,1,74.051,6.852Z" fill="#ccd1d9"/>
        </g>
        <g id="Grupo_962084" data-name="Grupo 962084">
          <path id="Trazado_631992" data-name="Trazado 631992" d="M57.613,6.129v4.9H35.548v-4.9Z" fill="#ccd1d9"/>
        </g>
        <g id="Grupo_962085" data-name="Grupo 962085">
          <path id="Trazado_631993" data-name="Trazado 631993" d="M35.548,7.355H15.935V4.9a2.459,2.459,0,0,1,2.452-2.452H33.1A2.459,2.459,0,0,1,35.548,4.9V7.355Z" fill="#969faa"/>
        </g>
        <g id="Grupo_962086" data-name="Grupo 962086">
          <path id="Trazado_631994" data-name="Trazado 631994" d="M15.935,12.258H35.548v7.355H15.935Z" fill="#969faa"/>
        </g>
        <g id="Grupo_962087" data-name="Grupo 962087">
          <path id="Trazado_631995" data-name="Trazado 631995" d="M35.548,12.258H15.935v-4.9H35.548v4.9Z" fill="#aab2bd"/>
        </g>
        <g id="Grupo_962088" data-name="Grupo 962088">
          <path id="Trazado_631996" data-name="Trazado 631996" d="M69.871,6.129v7.355a1.229,1.229,0,0,1-1.226,1.226H58.839a1.229,1.229,0,0,1-1.226-1.226V3.677a1.229,1.229,0,0,1,1.226-1.226h9.806a1.229,1.229,0,0,1,1.226,1.226Z" fill="#aab2bd"/>
        </g>
        <g id="Grupo_962089" data-name="Grupo 962089">
          <circle id="Elipse_7774" data-name="Elipse 7774" cx="2.452" cy="2.452" r="2.452" transform="translate(61.29 6.129)" fill="#fcd770"/>
        </g>
        <g id="Grupo_962090" data-name="Grupo 962090">
          <path id="Trazado_631997" data-name="Trazado 631997" d="M41.677,19.613l4.9,7.355H4.9l4.9-7.355H41.677Z" fill="#ccd1d9"/>
        </g>
        <g id="Grupo_962091" data-name="Grupo 962091">
          <path id="Trazado_631998" data-name="Trazado 631998" d="M56.387,46.581H71.1V61.29H56.387Z" fill="#d3a06c"/>
        </g>
        <g id="Grupo_962092" data-name="Grupo 962092">
          <path id="Trazado_631999" data-name="Trazado 631999" d="M34.323,51.484h14.71v14.71H34.323Z" fill="#d3a06c"/>
        </g>
        <g id="Grupo_962093" data-name="Grupo 962093">
          <path id="Trazado_632000" data-name="Trazado 632000" d="M12.258,51.484h14.71v14.71H12.258Z" fill="#d3a06c"/>
        </g>
        <g id="Grupo_962094" data-name="Grupo 962094">
          <path id="Trazado_632001" data-name="Trazado 632001" d="M46.581,26.968V51.484H34.323v14.71H26.968V51.484H12.258v14.71h-4.9a4.89,4.89,0,0,0-2.452.662V26.968Z" fill="#e6e9ed"/>
        </g>
        <g id="Grupo_962095" data-name="Grupo 962095">
          <circle id="Elipse_7775" data-name="Elipse 7775" cx="2.452" cy="2.452" r="2.452" transform="translate(36.774 31.871)" fill="#fcd770"/>
        </g>
        <g id="Grupo_962096" data-name="Grupo 962096">
          <circle id="Elipse_7776" data-name="Elipse 7776" cx="2.452" cy="2.452" r="2.452" transform="translate(26.968 31.871)" fill="#fcd770"/>
        </g>
        <g id="Grupo_962097" data-name="Grupo 962097">
          <path id="Trazado_632002" data-name="Trazado 632002" d="M67.419,35.548v.074a3.678,3.678,0,0,1-7.355,0v-.074a3.677,3.677,0,1,1,7.355,0Z" fill="#fcd770"/>
        </g>
        <g id="Grupo_962103" data-name="Grupo 962103">
          <g id="Grupo_962098" data-name="Grupo 962098">
            <path id="Trazado_632003" data-name="Trazado 632003" d="M71.1,66.194H61.29a4.9,4.9,0,1,1,0,9.806H71.1a4.9,4.9,0,0,0,0-9.806Z" fill="#ccd1d9"/>
          </g>
          <g id="Grupo_962099" data-name="Grupo 962099">
            <path id="Trazado_632004" data-name="Trazado 632004" d="M56.387,71.1a4.9,4.9,0,0,1,4.9-4.9H46.581a4.9,4.9,0,1,1,0,9.806H61.29A4.9,4.9,0,0,1,56.387,71.1Z" fill="#ccd1d9"/>
          </g>
          <g id="Grupo_962100" data-name="Grupo 962100">
            <path id="Trazado_632005" data-name="Trazado 632005" d="M41.677,71.1a4.9,4.9,0,0,1,4.9-4.9H31.871a4.9,4.9,0,1,1,0,9.806h14.71A4.9,4.9,0,0,1,41.677,71.1Z" fill="#ccd1d9"/>
          </g>
          <g id="Grupo_962101" data-name="Grupo 962101">
            <path id="Trazado_632006" data-name="Trazado 632006" d="M26.968,71.1a4.9,4.9,0,0,1,4.9-4.9H17.161a4.9,4.9,0,1,1,0,9.806h14.71A4.9,4.9,0,0,1,26.968,71.1Z" fill="#ccd1d9"/>
          </g>
          <g id="Grupo_962102" data-name="Grupo 962102">
            <path id="Trazado_632007" data-name="Trazado 632007" d="M12.258,71.1a4.9,4.9,0,0,1,4.9-4.9H7.355a4.89,4.89,0,0,0-2.452.662,5.179,5.179,0,0,0-1.017.772A4.906,4.906,0,0,0,7.355,76h9.806A4.9,4.9,0,0,1,12.258,71.1Z" fill="#ccd1d9"/>
          </g>
        </g>
        <g id="Grupo_962104" data-name="Grupo 962104">
          <circle id="Elipse_7777" data-name="Elipse 7777" cx="4.903" cy="4.903" r="4.903" transform="translate(56.387 66.194)" fill="#969faa"/>
        </g>
        <g id="Grupo_962105" data-name="Grupo 962105">
          <circle id="Elipse_7778" data-name="Elipse 7778" cx="4.903" cy="4.903" r="4.903" transform="translate(41.677 66.194)" fill="#969faa"/>
        </g>
        <g id="Grupo_962106" data-name="Grupo 962106">
          <circle id="Elipse_7779" data-name="Elipse 7779" cx="4.903" cy="4.903" r="4.903" transform="translate(26.968 66.194)" fill="#969faa"/>
        </g>
        <g id="Grupo_962107" data-name="Grupo 962107">
          <circle id="Elipse_7780" data-name="Elipse 7780" cx="4.903" cy="4.903" r="4.903" transform="translate(12.258 66.194)" fill="#969faa"/>
        </g>
        <g id="Grupo_962108" data-name="Grupo 962108">
          <path id="Trazado_632008" data-name="Trazado 632008" d="M66.194,46.581v4.9h-4.9v-4.9h4.9Z" fill="#b27946"/>
        </g>
        <g id="Grupo_962109" data-name="Grupo 962109">
          <path id="Trazado_632009" data-name="Trazado 632009" d="M39.226,51.484h4.9v4.9h-4.9Z" fill="#b27946"/>
        </g>
        <g id="Grupo_962110" data-name="Grupo 962110">
          <path id="Trazado_632010" data-name="Trazado 632010" d="M17.161,51.484h4.9v4.9h-4.9Z" fill="#b27946"/>
        </g>
        <g id="Grupo_962111" data-name="Grupo 962111">
          <path id="Trazado_632011" data-name="Trazado 632011" d="M9.806,31.871H22.065v14.71H9.806Z" fill="#69d6f4"/>
        </g>
      </g>
      <g id="Grupo_962113" data-name="Grupo 962113">
        <path id="Trazado_632012" data-name="Trazado 632012" d="M71.1,64.968H50.258V50.258H47.806V26.6l-5.473-8.209H36.774V12.258H56.387v1.226a2.454,2.454,0,0,0,2.452,2.452h3.677V30.819a4.906,4.906,0,0,0-3.579,3.757,11.046,11.046,0,0,0-8.679,10.779,6.141,6.141,0,0,0,4.9,6.005V62.516H72.323V51.36a6.14,6.14,0,0,0,4.9-6.005,11.046,11.046,0,0,0-8.679-10.779,4.906,4.906,0,0,0-3.579-3.757V15.935h3.677A2.454,2.454,0,0,0,71.1,13.484V12.258h1.226a3.677,3.677,0,1,0,0-7.355H71.1V3.677a2.454,2.454,0,0,0-2.452-2.452H58.839a2.454,2.454,0,0,0-2.452,2.452V4.9H36.774A3.682,3.682,0,0,0,33.1,1.226H18.387A3.682,3.682,0,0,0,14.71,4.9V18.387H9.151L3.677,26.6V66.224a6.109,6.109,0,0,0,3.677,11H71.1a6.129,6.129,0,0,0,0-12.258ZM52.71,45.355a8.586,8.586,0,0,1,6.394-8.29,4.892,4.892,0,0,0,3.413,3.213v5.077H55.161v3.452A3.672,3.672,0,0,1,52.71,45.355Zm9.806,2.452h2.452v2.452H62.516Zm7.355,12.258H57.613V47.806h2.452v4.9h7.355v-4.9h2.452Zm-1.491-23a8.585,8.585,0,0,1,6.394,8.29,3.672,3.672,0,0,1-2.452,3.452V45.355H64.968V40.278a4.892,4.892,0,0,0,3.413-3.213Zm-2.187-1.516A2.452,2.452,0,1,1,63.742,33.1,2.454,2.454,0,0,1,66.194,35.548ZM72.323,7.355a1.226,1.226,0,1,1,0,2.452H71.1V7.355ZM58.839,3.677h9.806v9.806H58.839ZM64.968,71.1a3.677,3.677,0,1,1-3.677-3.677A3.682,3.682,0,0,1,64.968,71.1Zm-51.484,0a3.677,3.677,0,1,1,3.677,3.677A3.682,3.682,0,0,1,13.484,71.1Zm4.9-18.387h2.452v2.452H18.387Zm4.9,4.9v-4.9h2.452V64.968H13.484V52.71h2.452v4.9Zm-1.258,9.806H27a6.007,6.007,0,0,0,0,7.355H22.034a6.007,6.007,0,0,0,0-7.355ZM28.194,71.1a3.677,3.677,0,1,1,3.677,3.677A3.682,3.682,0,0,1,28.194,71.1Zm8.549-3.677h4.966a6.007,6.007,0,0,0,0,7.355H36.744a6.007,6.007,0,0,0,0-7.355ZM42.9,71.1a3.677,3.677,0,1,1,3.677,3.677A3.682,3.682,0,0,1,42.9,71.1Zm8.549-3.677h4.966a6.007,6.007,0,0,0,0,7.355H51.453a6.007,6.007,0,0,0,0-7.355Zm-15.9-2.452V52.71H38v4.9h7.355v-4.9h2.452V64.968Zm4.9-12.258H42.9v2.452H40.452ZM34.323,11.032H17.161V8.581H34.323ZM56.387,7.355V9.806H36.774V7.355Zm-38-3.677H33.1A1.228,1.228,0,0,1,34.323,4.9V6.129H17.161V4.9A1.228,1.228,0,0,1,18.387,3.677Zm-1.226,9.806H34.323v4.9H17.161Zm-6.7,7.355H41.022l3.269,4.9H7.193ZM6.129,28.194H45.355V50.258H33.1v14.71h-4.9V50.258H11.032v14.71H7.355a6.123,6.123,0,0,0-1.226.124ZM3.677,71.1a3.682,3.682,0,0,1,3.677-3.677H12.29a6.005,6.005,0,0,0,0,7.355H7.355A3.682,3.682,0,0,1,3.677,71.1ZM71.1,74.774H66.162a6.005,6.005,0,0,0,0-7.355H71.1a3.677,3.677,0,0,1,0,7.355Z"/>
        <path id="Trazado_632013" data-name="Trazado 632013" d="M63.742,4.9a3.677,3.677,0,1,0,3.677,3.677A3.682,3.682,0,0,0,63.742,4.9Zm0,4.9a1.226,1.226,0,1,1,1.226-1.226A1.228,1.228,0,0,1,63.742,9.806Z"/>
        <path id="Trazado_632014" data-name="Trazado 632014" d="M23.29,30.645H8.581V47.806H23.29Zm-2.452,14.71H11.032V33.1h9.806Z"/>
        <path id="Trazado_632015" data-name="Trazado 632015" d="M29.419,38a3.677,3.677,0,1,0-3.677-3.677A3.682,3.682,0,0,0,29.419,38Zm0-4.9a1.226,1.226,0,1,1-1.226,1.226A1.228,1.228,0,0,1,29.419,33.1Z"/>
        <path id="Trazado_632016" data-name="Trazado 632016" d="M39.226,38a3.677,3.677,0,1,0-3.677-3.677A3.682,3.682,0,0,0,39.226,38Zm0-4.9A1.226,1.226,0,1,1,38,34.323,1.228,1.228,0,0,1,39.226,33.1Z"/>
        <path id="Trazado_632017" data-name="Trazado 632017" d="M25.742,40.452H42.9V42.9H25.742Z"/>
        <path id="Trazado_632018" data-name="Trazado 632018" d="M25.742,45.355h2.452v2.452H25.742Z"/>
        <path id="Trazado_632019" data-name="Trazado 632019" d="M30.645,45.355H38v2.452H30.645Z"/>
        <path id="Trazado_632020" data-name="Trazado 632020" d="M40.452,45.355H42.9v2.452H40.452Z"/>
      </g>
    </g>
  </g>
</svg>
